<?xml version="1.0" standalone="no"?>
 <!DOCTYPE svg PUBLIC "-//W3C//DTD SVG 1.1//EN" 
 "http://www.w3.org/Graphics/SVG/1.1/DTD/svg11.dtd"> 
<svg xmlns="http://www.w3.org/2000/svg" version="1.1" 
    width="31.2268cm" height="7.91718cm" viewBox="0 0 122940 31170 ">
<title>SVG Picture created as woerdclock-B_SilkS.svg date 2014/11/22 11:49:06 </title>
  <desc>Picture generated by PCBNEW </desc>
<g style="fill:#000000; fill-opacity:1;stroke:#000000; stroke-opacity:1;
stroke-linecap:round; stroke-linejoin:round; "
 transform="translate(0 0) scale(1 1)">
</g>
<g style="fill:#A000A0; fill-opacity:0.0; 
stroke:#A000A0; stroke-width:59.0551; stroke-opacity:1; 
stroke-linecap:round; stroke-linejoin:round;">
<path d="M49358 13398
L49004 13398
" />
<path d="M49358 13550
L49173 13550
L49139 13533
L49122 13499
L49122 13448
L49139 13415
L49156 13398
" />
<path d="M49122 13668
L49122 13803
" />
<path d="M49004 13718
L49308 13718
L49341 13735
L49358 13769
L49358 13803
" />
<path d="M49122 13870
L49122 14005
" />
<path d="M49004 13921
L49308 13921
L49341 13938
L49358 13971
L49358 14005
" />
<path d="M49122 14123
L49476 14123
" />
<path d="M49139 14123
L49122 14157
L49122 14225
L49139 14258
L49156 14275
L49189 14292
L49291 14292
L49324 14275
L49341 14258
L49358 14225
L49358 14157
L49341 14123
" />
<path d="M49324 14444
L49341 14461
L49358 14444
L49341 14427
L49324 14444
L49358 14444
" />
<path d="M49139 14444
L49156 14461
L49173 14444
L49156 14427
L49139 14444
L49173 14444
" />
<path d="M48987 14866
L49443 14562
" />
<path d="M48987 15237
L49443 14933
" />
<path d="M49341 15338
L49358 15372
L49358 15439
L49341 15473
L49308 15490
L49291 15490
L49257 15473
L49240 15439
L49240 15389
L49223 15355
L49189 15338
L49173 15338
L49139 15355
L49122 15389
L49122 15439
L49139 15473
" />
<path d="M49341 15777
L49358 15743
L49358 15676
L49341 15642
L49308 15625
L49173 15625
L49139 15642
L49122 15676
L49122 15743
L49139 15777
L49173 15794
L49206 15794
L49240 15625
" />
<path d="M49358 15946
L49004 15946
" />
<path d="M49139 15946
L49122 15979
L49122 16047
L49139 16081
L49156 16097
L49189 16114
L49291 16114
L49324 16097
L49341 16081
L49358 16047
L49358 15979
L49341 15946
" />
<path d="M49358 16418
L49173 16418
L49139 16401
L49122 16367
L49122 16300
L49139 16266
" />
<path d="M49341 16418
L49358 16384
L49358 16300
L49341 16266
L49308 16249
L49274 16249
L49240 16266
L49223 16300
L49223 16384
L49206 16418
" />
<path d="M49341 16570
L49358 16604
L49358 16671
L49341 16705
L49308 16722
L49291 16722
L49257 16705
L49240 16671
L49240 16621
L49223 16587
L49189 16570
L49173 16570
L49139 16587
L49122 16621
L49122 16671
L49139 16705
" />
<path d="M49122 16823
L49122 16958
" />
<path d="M49004 16874
L49308 16874
L49341 16890
L49358 16924
L49358 16958
" />
<path d="M49358 17076
L49122 17076
" />
<path d="M49004 17076
L49021 17059
L49038 17076
L49021 17093
L49004 17076
L49038 17076
" />
<path d="M49358 17397
L49173 17397
L49139 17380
L49122 17346
L49122 17279
L49139 17245
" />
<path d="M49341 17397
L49358 17363
L49358 17279
L49341 17245
L49308 17228
L49274 17228
L49240 17245
L49223 17279
L49223 17363
L49206 17397
" />
<path d="M49122 17565
L49358 17565
" />
<path d="M49156 17565
L49139 17582
L49122 17616
L49122 17667
L49139 17700
L49173 17717
L49358 17717
" />
<path d="M49324 17886
L49341 17903
L49358 17886
L49341 17869
L49324 17886
L49358 17886
" />
<path d="M49341 18038
L49358 18072
L49358 18139
L49341 18173
L49308 18190
L49291 18190
L49257 18173
L49240 18139
L49240 18088
L49223 18055
L49189 18038
L49173 18038
L49139 18055
L49122 18088
L49122 18139
L49139 18173
" />
<path d="M49341 18477
L49358 18443
L49358 18375
L49341 18342
L49308 18325
L49173 18325
L49139 18342
L49122 18375
L49122 18443
L49139 18477
L49173 18493
L49206 18493
L49240 18325
" />
<path d="M49122 18595
L49122 18730
" />
<path d="M49004 18645
L49308 18645
L49341 18662
L49358 18696
L49358 18730
" />
<path d="M49122 18814
L49122 19000
L49358 18814
L49358 19000
" />
<path d="M49324 19135
L49341 19151
L49358 19135
L49341 19118
L49324 19135
L49358 19135
" />
<path d="M49122 19303
L49358 19303
" />
<path d="M49156 19303
L49139 19320
L49122 19354
L49122 19405
L49139 19438
L49173 19455
L49358 19455
" />
<path d="M49358 19776
L49173 19776
L49139 19759
L49122 19725
L49122 19658
L49139 19624
" />
<path d="M49341 19776
L49358 19742
L49358 19658
L49341 19624
L49308 19607
L49274 19607
L49240 19624
L49223 19658
L49223 19742
L49206 19776
" />
<path d="M49358 19944
L49122 19944
" />
<path d="M49156 19944
L49139 19961
L49122 19995
L49122 20046
L49139 20079
L49173 20096
L49358 20096
" />
<path d="M49173 20096
L49139 20113
L49122 20147
L49122 20198
L49139 20231
L49173 20248
L49358 20248
" />
<path d="M49341 20552
L49358 20518
L49358 20451
L49341 20417
L49308 20400
L49173 20400
L49139 20417
L49122 20451
L49122 20518
L49139 20552
L49173 20569
L49206 20569
L49240 20400
" />
<path d="M48987 20974
L49443 20670
" />
<path d="M49358 21244
L49173 21244
L49139 21227
L49122 21193
L49122 21126
L49139 21092
" />
<path d="M49341 21244
L49358 21210
L49358 21126
L49341 21092
L49308 21075
L49274 21075
L49240 21092
L49223 21126
L49223 21210
L49206 21244
" />
<path d="M49358 21412
L49122 21412
" />
<path d="M49189 21412
L49156 21429
L49139 21446
L49122 21480
L49122 21514
" />
<path d="M49358 21784
L49004 21784
" />
<path d="M49341 21784
L49358 21750
L49358 21682
L49341 21649
L49324 21632
L49291 21615
L49189 21615
L49156 21632
L49139 21649
L49122 21682
L49122 21750
L49139 21784
" />
<path d="M49122 22104
L49358 22104
" />
<path d="M49122 21952
L49308 21952
L49341 21969
L49358 22003
L49358 22054
L49341 22087
L49324 22104
" />
<path d="M49358 22273
L49122 22273
" />
<path d="M49004 22273
L49021 22256
L49038 22273
L49021 22290
L49004 22273
L49038 22273
" />
<path d="M49122 22442
L49358 22442
" />
<path d="M49156 22442
L49139 22459
L49122 22492
L49122 22543
L49139 22577
L49173 22594
L49358 22594
" />
<path d="M49358 22813
L49341 22779
L49324 22762
L49291 22745
L49189 22745
L49156 22762
L49139 22779
L49122 22813
L49122 22863
L49139 22897
L49156 22914
L49189 22931
L49291 22931
L49324 22914
L49341 22897
L49358 22863
L49358 22813
" />
<path d="M48987 23336
L49443 23032
" />
<path d="M49358 23454
L49122 23454
" />
<path d="M49156 23454
L49139 23471
L49122 23505
L49122 23555
L49139 23589
L49173 23606
L49358 23606
" />
<path d="M49173 23606
L49139 23623
L49122 23657
L49122 23707
L49139 23741
L49173 23758
L49358 23758
" />
<path d="M49122 23893
L49358 23977
" />
<path d="M49122 24061
L49358 23977
L49443 23943
L49459 23926
L49476 23893
" />
<path d="M49223 24196
L49223 24466
" />
<path d="M49122 24635
L49476 24635
" />
<path d="M49139 24635
L49122 24669
L49122 24736
L49139 24770
L49156 24787
L49189 24804
L49291 24804
L49324 24787
L49341 24770
L49358 24736
L49358 24669
L49341 24635
" />
<path d="M49358 24956
L49122 24956
" />
<path d="M49189 24956
L49156 24973
L49139 24989
L49122 25023
L49122 25057
" />
<path d="M49358 25226
L49341 25192
L49324 25175
L49291 25158
L49189 25158
L49156 25175
L49139 25192
L49122 25226
L49122 25276
L49139 25310
L49156 25327
L49189 25344
L49291 25344
L49324 25327
L49341 25310
L49358 25276
L49358 25226
" />
<path d="M49122 25496
L49426 25496
L49459 25479
L49476 25445
L49476 25428
" />
<path d="M49004 25496
L49021 25479
L49038 25496
L49021 25513
L49004 25496
L49038 25496
" />
<path d="M49341 25799
L49358 25766
L49358 25698
L49341 25664
L49308 25648
L49173 25648
L49139 25664
L49122 25698
L49122 25766
L49139 25799
L49173 25816
L49206 25816
L49240 25648
" />
<path d="M49358 25968
L49004 25968
" />
<path d="M49223 26002
L49358 26103
" />
<path d="M49122 26103
L49257 25968
" />
<path d="M49122 26204
L49122 26339
" />
<path d="M49004 26255
L49308 26255
L49341 26272
L49358 26306
L49358 26339
" />
<path d="M49341 26441
L49358 26474
L49358 26542
L49341 26576
L49308 26592
L49291 26592
L49257 26576
L49240 26542
L49240 26491
L49223 26457
L49189 26441
L49173 26441
L49139 26457
L49122 26491
L49122 26542
L49139 26576
" />
<path d="M48987 26997
L49443 26694
" />
<path d="M49122 27082
L49358 27149
L49189 27217
L49358 27284
L49122 27352
" />
<path d="M49358 27537
L49341 27504
L49324 27487
L49291 27470
L49189 27470
L49156 27487
L49139 27504
L49122 27537
L49122 27588
L49139 27622
L49156 27639
L49189 27655
L49291 27655
L49324 27639
L49341 27622
L49358 27588
L49358 27537
" />
<path d="M49341 27942
L49358 27908
L49358 27841
L49341 27807
L49308 27790
L49173 27790
L49139 27807
L49122 27841
L49122 27908
L49139 27942
L49173 27959
L49206 27959
L49240 27790
" />
<path d="M49358 28111
L49122 28111
" />
<path d="M49189 28111
L49156 28128
L49139 28145
L49122 28178
L49122 28212
" />
<path d="M49358 28482
L49004 28482
" />
<path d="M49341 28482
L49358 28448
L49358 28381
L49341 28347
L49324 28330
L49291 28313
L49189 28313
L49156 28330
L49139 28347
L49122 28381
L49122 28448
L49139 28482
" />
<path d="M49341 28803
L49358 28769
L49358 28702
L49341 28668
L49324 28651
L49291 28634
L49189 28634
L49156 28651
L49139 28668
L49122 28702
L49122 28769
L49139 28803
" />
<path d="M49358 29005
L49341 28971
L49308 28955
L49004 28955
" />
<path d="M49358 29191
L49341 29157
L49324 29140
L49291 29123
L49189 29123
L49156 29140
L49139 29157
L49122 29191
L49122 29241
L49139 29275
L49156 29292
L49189 29309
L49291 29309
L49324 29292
L49341 29275
L49358 29241
L49358 29191
" />
<path d="M49341 29613
L49358 29579
L49358 29511
L49341 29478
L49324 29461
L49291 29444
L49189 29444
L49156 29461
L49139 29478
L49122 29511
L49122 29579
L49139 29613
" />
<path d="M49358 29765
L49004 29765
" />
<path d="M49223 29798
L49358 29899
" />
<path d="M49122 29899
L49257 29765
" />
<path d="M48987 30304
L49443 30001
" />
<path d="M49593 13381
L49576 13398
L49559 13432
L49559 13516
L49576 13550
L49593 13567
L49626 13583
L49660 13583
L49711 13567
L49913 13364
L49913 13583
" />
<path d="M49593 13718
L49576 13735
L49559 13769
L49559 13853
L49576 13887
L49593 13904
L49626 13921
L49660 13921
L49711 13904
L49913 13702
L49913 13921
" />
<path d="M49880 14073
L49896 14090
L49913 14073
L49896 14056
L49880 14073
L49913 14073
" />
<path d="M49913 14427
L49913 14225
" />
<path d="M49913 14326
L49559 14326
L49610 14292
L49643 14258
L49660 14225
" />
<path d="M49913 14765
L49913 14562
" />
<path d="M49913 14663
L49559 14663
L49610 14630
L49643 14596
L49660 14562
" />
<path d="M49880 14916
L49896 14933
L49913 14916
L49896 14899
L49880 14916
L49913 14916
" />
<path d="M49593 15068
L49576 15085
L49559 15119
L49559 15203
L49576 15237
L49593 15254
L49626 15271
L49660 15271
L49711 15254
L49913 15051
L49913 15271
" />
<path d="M49559 15490
L49559 15524
L49576 15558
L49593 15574
L49626 15591
L49694 15608
L49778 15608
L49846 15591
L49880 15574
L49896 15558
L49913 15524
L49913 15490
L49896 15456
L49880 15439
L49846 15423
L49778 15406
L49694 15406
L49626 15423
L49593 15439
L49576 15456
L49559 15490
" />
<path d="M49913 15946
L49913 15743
" />
<path d="M49913 15844
L49559 15844
L49610 15811
L49643 15777
L49660 15743
" />
<path d="M49677 16249
L49913 16249
" />
<path d="M49542 16165
L49795 16081
L49795 16300
" />
</g>
<g style="fill:#FFFF00; fill-opacity:0.0; 
stroke:#FFFF00; stroke-width:150; stroke-opacity:1; 
stroke-linecap:round; stroke-linejoin:round;">
<path d="M61273 5938
L3202 5938
" />
<path d="M3202 5544
L61273 5544
" />
<path d="M2415 4757
L2415 2001
" />
<path d="M2415 9481
L2415 6725
" />
<path d="M119738 10269
L3202 10269
" />
<path d="M119738 5938
L61667 5938
" />
<path d="M61667 5544
L119738 5544
" />
<path d="M120525 6725
L120525 9481
" />
<path d="M120525 2001
L120525 4757
" />
<path d="M3202 1213
L119738 1213
" />
<path d="M3202.65 5938.35 A787.402 787.402 0.0 0 0 2415.25 6725.75 " />
<path d="M2415.25 9481.65 A787.402 787.402 0.0 0 0 3202.65 10269.1 " />
<path d="M119738 10269.1 A787.402 787.402 0.0 0 0 120525 9481.65 " />
<path d="M120525 6725.75 A787.402 787.402 0.0 0 0 119738 5938.35 " />
<path d="M120525 2001.34 A787.402 787.402 0.0 0 0 119738 1213.94 " />
<path d="M119738 5544.65 A787.402 787.402 0.0 0 0 120525 4757.24 " />
<path d="M2415.25 4757.24 A787.402 787.402 0.0 0 0 3202.65 5544.65 " />
<path d="M3202.65 1213.94 A787.402 787.402 0.0 0 0 2415.25 2001.34 " />
<path d="M12415 29914
L12415 12198
" />
<path d="M50761 30898
L13399 30898
" />
<path d="M51785 12198
L51785 29954
" />
<path d="M13399 11213
L50801 11213
" />
<path d="M50761.5 30899 A985.039 985.039 0.0 0 0 51785.3 29954.3 " />
<path d="M51785.3 12198.2 A984.252 984.252 0.0 0 0 50801.1 11213.9 " />
<path d="M13399.5 11213.9 A984.252 984.252 0.0 0 0 12415.2 12198.2 " />
<path d="M12415.2 29914.7 A984.252 984.252 0.0 0 0 13399.5 30899 " />
<path d="M61667 5544
L61667 5938
" />
<path d="M61273 5938
L61273 5544
" />
</g>
<g style="fill:#A000A0; fill-opacity:0.0; 
stroke:#A000A0; stroke-width:59.0551; stroke-opacity:1; 
stroke-linecap:round; stroke-linejoin:round;">
<path d="M32073 22801
L32089 22851
L32106 22868
L32140 22885
L32191 22885
L32224 22868
L32241 22851
L32258 22817
L32258 22683
L31904 22683
L31904 22801
L31921 22834
L31938 22851
L31971 22868
L32005 22868
L32039 22851
L32056 22834
L32073 22801
L32073 22683
" />
<path d="M32258 23037
L31904 23037
" />
<path d="M32073 23037
L32073 23239
" />
<path d="M32258 23239
L31904 23239
" />
<path d="M32258 23594
L32258 23391
" />
<path d="M32258 23492
L31904 23492
L31954 23459
L31988 23425
L32005 23391
" />
<path d="M31904 23712
L31904 23948
L32258 23796
" />
<path d="M31904 24252
L31904 24083
L32073 24066
L32056 24083
L32039 24117
L32039 24201
L32056 24235
L32073 24252
L32106 24269
L32191 24269
L32224 24252
L32241 24235
L32258 24201
L32258 24117
L32241 24083
L32224 24066
" />
<path d="M31904 24488
L31904 24522
L31921 24555
L31938 24572
L31971 24589
L32039 24606
L32123 24606
L32191 24589
L32224 24572
L32241 24555
L32258 24522
L32258 24488
L32241 24454
L32224 24437
L32191 24420
L32123 24404
L32039 24404
L31971 24420
L31938 24437
L31921 24454
L31904 24488
" />
<path d="M32073 24876
L32073 24758
" />
<path d="M32258 24758
L31904 24758
L31904 24927
" />
<path d="M31904 25011
L32258 25129
L31904 25247
" />
<path d="M32258 25365
L31904 25365
" />
<path d="M32292 25450
L32292 25720
" />
<path d="M32258 25804
L31904 25804
L32157 25922
L31904 26040
L32258 26040
" />
<path d="M31904 26276
L31904 26344
L31921 26378
L31954 26411
L32022 26428
L32140 26428
L32208 26411
L32241 26378
L32258 26344
L32258 26276
L32241 26243
L32208 26209
L32140 26192
L32022 26192
L31954 26209
L31921 26243
L31904 26276
" />
<path d="M32258 26580
L31904 26580
L31904 26665
L31921 26715
L31954 26749
L31988 26766
L32056 26783
L32106 26783
L32174 26766
L32208 26749
L32241 26715
L32258 26665
L32258 26580
" />
<path d="M31904 26934
L32191 26934
L32224 26951
L32241 26968
L32258 27002
L32258 27069
L32241 27103
L32224 27120
L32191 27137
L31904 27137
" />
<path d="M32258 27474
L32258 27306
L31904 27306
" />
<path d="M32073 27593
L32073 27711
" />
<path d="M32258 27761
L32258 27593
L31904 27593
L31904 27761
" />
</g>
<g style="fill:#A000A0; fill-opacity:0.0; 
stroke:#A000A0; stroke-width:120; stroke-opacity:1; 
stroke-linecap:round; stroke-linejoin:round;">
<path d="M38820 12706
L38849 12792
L38849 12935
L38820 12992
L38791 13021
L38734 13049
L38677 13049
L38620 13021
L38591 12992
L38563 12935
L38534 12821
L38506 12763
L38477 12735
L38420 12706
L38363 12706
L38306 12735
L38277 12763
L38249 12821
L38249 12963
L38277 13049
" />
<path d="M38849 13392
L38820 13335
L38791 13306
L38734 13278
L38563 13278
L38506 13306
L38477 13335
L38449 13392
L38449 13478
L38477 13535
L38506 13563
L38563 13592
L38734 13592
L38791 13563
L38820 13535
L38849 13478
L38849 13392
" />
<path d="M38449 14106
L38849 14106
" />
<path d="M38449 13849
L38763 13849
L38820 13878
L38849 13935
L38849 14021
L38820 14078
L38791 14106
" />
<path d="M38449 14392
L38849 14392
" />
<path d="M38506 14392
L38477 14421
L38449 14478
L38449 14563
L38477 14621
L38534 14649
L38849 14649
" />
<path d="M38849 15192
L38249 15192
" />
<path d="M38820 15192
L38849 15135
L38849 15021
L38820 14963
L38791 14935
L38734 14906
L38563 14906
L38506 14935
L38477 14963
L38449 15021
L38449 15135
L38477 15192
" />
</g>
<g style="fill:#A000A0; fill-opacity:0.0; 
stroke:#A000A0; stroke-width:35; stroke-opacity:1; 
stroke-linecap:round; stroke-linejoin:round;">
<path d="M26236 12642
L25936 12642
L25936 12713
L25950 12756
L25979 12785
L26008 12799
L26065 12813
L26108 12813
L26165 12799
L26193 12785
L26222 12756
L26236 12713
L26236 12642
" />
<path d="M26236 13099
L26236 12928
" />
<path d="M26236 13013
L25936 13013
L25979 12985
L26008 12956
L26022 12928
" />
<path d="M28179 11113
L28193 11156
L28208 11171
L28236 11185
L28279 11185
L28308 11171
L28322 11156
L28336 11128
L28336 11013
L28036 11013
L28036 11113
L28050 11142
L28065 11156
L28093 11171
L28122 11171
L28150 11156
L28165 11142
L28179 11113
L28179 11013
" />
<path d="M28036 11271
L28036 11442
" />
<path d="M28336 11356
L28036 11356
" />
<path d="M28336 11699
L28336 11528
" />
<path d="M28336 11613
L28036 11613
L28079 11585
L28108 11556
L28122 11528
" />
<path d="M28136 12056
L28436 12056
" />
<path d="M28150 12056
L28136 12085
L28136 12142
L28150 12171
L28165 12185
L28193 12199
L28279 12199
L28308 12185
L28322 12171
L28336 12142
L28336 12085
L28322 12056
" />
<path d="M28336 12456
L28179 12456
L28150 12442
L28136 12413
L28136 12356
L28150 12328
" />
<path d="M28322 12456
L28336 12428
L28336 12356
L28322 12328
L28293 12313
L28265 12313
L28236 12328
L28222 12356
L28222 12428
L28208 12456
" />
<path d="M28336 12599
L28136 12599
" />
<path d="M28036 12599
L28050 12585
L28065 12599
L28050 12613
L28036 12599
L28065 12599
" />
<path d="M28336 12742
L28136 12742
" />
<path d="M28193 12742
L28165 12756
L28150 12771
L28136 12799
L28136 12828
" />
<path d="M28322 13042
L28336 13013
L28336 12956
L28322 12928
L28293 12913
L28179 12913
L28150 12928
L28136 12956
L28136 13013
L28150 13042
L28179 13056
L28208 13056
L28236 12913
" />
<path d="M28336 13313
L28036 13313
" />
<path d="M28322 13313
L28336 13285
L28336 13228
L28322 13199
L28308 13185
L28279 13171
L28193 13171
L28165 13185
L28150 13199
L28136 13228
L28136 13285
L28150 13313
" />
<path d="M19486 12642
L19186 12642
L19186 12713
L19200 12756
L19229 12785
L19258 12799
L19315 12813
L19358 12813
L19415 12799
L19443 12785
L19472 12756
L19486 12713
L19486 12642
" />
<path d="M19186 12913
L19186 13099
L19300 12999
L19300 13042
L19315 13071
L19329 13085
L19358 13099
L19429 13099
L19458 13085
L19472 13071
L19486 13042
L19486 12956
L19472 12928
L19458 12913
" />
<path d="M21429 11113
L21443 11156
L21458 11171
L21486 11185
L21529 11185
L21558 11171
L21572 11156
L21586 11128
L21586 11013
L21286 11013
L21286 11113
L21300 11142
L21315 11156
L21343 11171
L21372 11171
L21400 11156
L21415 11142
L21429 11113
L21429 11013
" />
<path d="M21286 11271
L21286 11442
" />
<path d="M21586 11356
L21286 11356
" />
<path d="M21315 11528
L21300 11542
L21286 11571
L21286 11642
L21300 11671
L21315 11685
L21343 11699
L21372 11699
L21415 11685
L21586 11513
L21586 11699
" />
<path d="M21386 12056
L21686 12056
" />
<path d="M21400 12056
L21386 12085
L21386 12142
L21400 12171
L21415 12185
L21443 12199
L21529 12199
L21558 12185
L21572 12171
L21586 12142
L21586 12085
L21572 12056
" />
<path d="M21586 12456
L21429 12456
L21400 12442
L21386 12413
L21386 12356
L21400 12328
" />
<path d="M21572 12456
L21586 12428
L21586 12356
L21572 12328
L21543 12313
L21515 12313
L21486 12328
L21472 12356
L21472 12428
L21458 12456
" />
<path d="M21586 12599
L21386 12599
" />
<path d="M21286 12599
L21300 12585
L21315 12599
L21300 12613
L21286 12599
L21315 12599
" />
<path d="M21586 12742
L21386 12742
" />
<path d="M21443 12742
L21415 12756
L21400 12771
L21386 12799
L21386 12828
" />
<path d="M21572 13042
L21586 13013
L21586 12956
L21572 12928
L21543 12913
L21429 12913
L21400 12928
L21386 12956
L21386 13013
L21400 13042
L21429 13056
L21458 13056
L21486 12913
" />
<path d="M21586 13313
L21286 13313
" />
<path d="M21572 13313
L21586 13285
L21586 13228
L21572 13199
L21558 13185
L21529 13171
L21443 13171
L21415 13185
L21400 13199
L21386 13228
L21386 13285
L21400 13313
" />
<path d="M24636 12642
L24336 12642
L24336 12713
L24350 12756
L24379 12785
L24408 12799
L24465 12813
L24508 12813
L24565 12799
L24593 12785
L24622 12756
L24636 12713
L24636 12642
" />
<path d="M24365 12928
L24350 12942
L24336 12971
L24336 13042
L24350 13071
L24365 13085
L24393 13099
L24422 13099
L24465 13085
L24636 12913
L24636 13099
" />
<path d="M26736 11635
L26536 11635
" />
<path d="M26565 11635
L26550 11649
L26536 11678
L26536 11721
L26550 11749
L26579 11763
L26736 11763
" />
<path d="M26579 11763
L26550 11778
L26536 11806
L26536 11849
L26550 11878
L26579 11892
L26736 11892
" />
<path d="M26736 12078
L26722 12049
L26708 12035
L26679 12021
L26593 12021
L26565 12035
L26550 12049
L26536 12078
L26536 12121
L26550 12149
L26565 12163
L26593 12178
L26679 12178
L26708 12163
L26722 12149
L26736 12121
L26736 12078
" />
<path d="M26736 12435
L26436 12435
" />
<path d="M26722 12435
L26736 12406
L26736 12349
L26722 12321
L26708 12306
L26679 12292
L26593 12292
L26565 12306
L26550 12321
L26536 12349
L26536 12406
L26550 12435
" />
<path d="M26722 12692
L26736 12663
L26736 12606
L26722 12578
L26693 12563
L26579 12563
L26550 12578
L26536 12606
L26536 12663
L26550 12692
L26579 12706
L26608 12706
L26636 12563
" />
<path d="M17886 12642
L17586 12642
L17586 12713
L17600 12756
L17629 12785
L17658 12799
L17715 12813
L17758 12813
L17815 12799
L17843 12785
L17872 12756
L17886 12713
L17886 12642
" />
<path d="M17686 13071
L17886 13071
" />
<path d="M17572 12999
L17786 12928
L17786 13113
" />
<path d="M19986 11635
L19786 11635
" />
<path d="M19815 11635
L19800 11649
L19786 11678
L19786 11721
L19800 11749
L19829 11763
L19986 11763
" />
<path d="M19829 11763
L19800 11778
L19786 11806
L19786 11849
L19800 11878
L19829 11892
L19986 11892
" />
<path d="M19986 12078
L19972 12049
L19958 12035
L19929 12021
L19843 12021
L19815 12035
L19800 12049
L19786 12078
L19786 12121
L19800 12149
L19815 12163
L19843 12178
L19929 12178
L19958 12163
L19972 12149
L19986 12121
L19986 12078
" />
<path d="M19986 12435
L19686 12435
" />
<path d="M19972 12435
L19986 12406
L19986 12349
L19972 12321
L19958 12306
L19929 12292
L19843 12292
L19815 12306
L19800 12321
L19786 12349
L19786 12406
L19800 12435
" />
<path d="M19972 12692
L19986 12663
L19986 12606
L19972 12578
L19943 12563
L19829 12563
L19800 12578
L19786 12606
L19786 12663
L19800 12692
L19829 12706
L19858 12706
L19886 12563
" />
</g>
<g style="fill:#A000A0; fill-opacity:0.0; 
stroke:#A000A0; stroke-width:120; stroke-opacity:1; 
stroke-linecap:round; stroke-linejoin:round;">
<path d="M34383 20706
L34383 20106
" />
<path d="M33755 20706
L33955 20421
" />
<path d="M34098 20706
L34098 20106
L33869 20106
L33812 20135
L33783 20163
L33755 20221
L33755 20306
L33783 20363
L33812 20392
L33869 20421
L34098 20421
" />
</g>
<g style="fill:#A000A0; fill-opacity:0.0; 
stroke:#A000A0; stroke-width:80; stroke-opacity:1; 
stroke-linecap:round; stroke-linejoin:round;">
<path d="M32436 30136
L32603 29874
" />
<path d="M32722 30136
L32722 29586
L32531 29586
L32484 29612
L32460 29638
L32436 29691
L32436 29769
L32460 29822
L32484 29848
L32531 29874
L32722 29874
" />
<path d="M31960 30136
L32246 30136
" />
<path d="M32103 30136
L32103 29586
L32150 29665
L32198 29717
L32246 29743
" />
<path d="M31531 29586
L31627 29586
L31674 29612
L31698 29638
L31746 29717
L31770 29822
L31770 30031
L31746 30084
L31722 30110
L31674 30136
L31579 30136
L31531 30110
L31508 30084
L31484 30031
L31484 29900
L31508 29848
L31531 29822
L31579 29796
L31674 29796
L31722 29822
L31746 29848
L31770 29900
" />
<path d="M32436 28536
L32603 28274
" />
<path d="M32722 28536
L32722 27986
L32531 27986
L32484 28012
L32460 28038
L32436 28091
L32436 28169
L32460 28222
L32484 28248
L32531 28274
L32722 28274
" />
<path d="M31960 28536
L32246 28536
" />
<path d="M32103 28536
L32103 27986
L32150 28065
L32198 28117
L32246 28143
" />
<path d="M31508 27986
L31746 27986
L31770 28248
L31746 28222
L31698 28196
L31579 28196
L31531 28222
L31508 28248
L31484 28300
L31484 28431
L31508 28484
L31531 28510
L31579 28536
L31698 28536
L31746 28510
L31770 28484
" />
<path d="M32436 29336
L32603 29074
" />
<path d="M32722 29336
L32722 28786
L32531 28786
L32484 28812
L32460 28838
L32436 28891
L32436 28969
L32460 29022
L32484 29048
L32531 29074
L32722 29074
" />
<path d="M31960 29336
L32246 29336
" />
<path d="M32103 29336
L32103 28786
L32150 28865
L32198 28917
L32246 28943
" />
<path d="M31793 28786
L31460 28786
L31674 29336
" />
<path d="M45148 20586
L45315 20324
" />
<path d="M45434 20586
L45434 20036
L45243 20036
L45196 20062
L45172 20088
L45148 20141
L45148 20219
L45172 20272
L45196 20298
L45243 20324
L45434 20324
" />
<path d="M44672 20586
L44958 20586
" />
<path d="M44815 20586
L44815 20036
L44862 20115
L44910 20167
L44958 20193
" />
<path d="M45148 28736
L45315 28474
" />
<path d="M45434 28736
L45434 28186
L45243 28186
L45196 28212
L45172 28238
L45148 28291
L45148 28369
L45172 28422
L45196 28448
L45243 28474
L45434 28474
" />
<path d="M44696 28186
L44934 28186
L44958 28448
L44934 28422
L44886 28396
L44767 28396
L44720 28422
L44696 28448
L44672 28500
L44672 28631
L44696 28684
L44720 28710
L44767 28736
L44886 28736
L44934 28710
L44958 28684
" />
<path d="M45148 22736
L45315 22474
" />
<path d="M45434 22736
L45434 22186
L45243 22186
L45196 22212
L45172 22238
L45148 22291
L45148 22369
L45172 22422
L45196 22448
L45243 22474
L45434 22474
" />
<path d="M44981 22186
L44672 22186
L44839 22396
L44767 22396
L44720 22422
L44696 22448
L44672 22500
L44672 22631
L44696 22684
L44720 22710
L44767 22736
L44910 22736
L44958 22710
L44981 22684
" />
<path d="M45148 25736
L45315 25474
" />
<path d="M45434 25736
L45434 25186
L45243 25186
L45196 25212
L45172 25238
L45148 25291
L45148 25369
L45172 25422
L45196 25448
L45243 25474
L45434 25474
" />
<path d="M44720 25369
L44720 25736
" />
<path d="M44839 25160
L44958 25553
L44648 25553
" />
<path d="M23298 11936
L23465 11674
" />
<path d="M23584 11936
L23584 11386
L23393 11386
L23346 11412
L23322 11438
L23298 11491
L23298 11569
L23322 11622
L23346 11648
L23393 11674
L23584 11674
" />
<path d="M23012 11622
L23060 11596
L23084 11569
L23108 11517
L23108 11491
L23084 11438
L23060 11412
L23012 11386
L22917 11386
L22870 11412
L22846 11438
L22822 11491
L22822 11517
L22846 11569
L22870 11596
L22917 11622
L23012 11622
L23060 11648
L23084 11674
L23108 11727
L23108 11831
L23084 11884
L23060 11910
L23012 11936
L22917 11936
L22870 11910
L22846 11884
L22822 11831
L22822 11727
L22846 11674
L22870 11648
L22917 11622
" />
<path d="M23298 12736
L23465 12474
" />
<path d="M23584 12736
L23584 12186
L23393 12186
L23346 12212
L23322 12238
L23298 12291
L23298 12369
L23322 12422
L23346 12448
L23393 12474
L23584 12474
" />
<path d="M23131 12186
L22798 12186
L23012 12736
" />
<path d="M23298 13536
L23465 13274
" />
<path d="M23584 13536
L23584 12986
L23393 12986
L23346 13012
L23322 13038
L23298 13091
L23298 13169
L23322 13222
L23346 13248
L23393 13274
L23584 13274
" />
<path d="M22870 12986
L22965 12986
L23012 13012
L23036 13038
L23084 13117
L23108 13222
L23108 13431
L23084 13484
L23060 13510
L23012 13536
L22917 13536
L22870 13510
L22846 13484
L22822 13431
L22822 13300
L22846 13248
L22870 13222
L22917 13196
L23012 13196
L23060 13222
L23084 13248
L23108 13300
" />
<path d="M40336 20586
L40503 20324
" />
<path d="M40622 20586
L40622 20036
L40431 20036
L40384 20062
L40360 20088
L40336 20141
L40336 20219
L40360 20272
L40384 20298
L40431 20324
L40622 20324
" />
<path d="M39860 20586
L40146 20586
" />
<path d="M40003 20586
L40003 20036
L40050 20115
L40098 20167
L40146 20193
" />
<path d="M39574 20272
L39622 20246
L39646 20219
L39670 20167
L39670 20141
L39646 20088
L39622 20062
L39574 20036
L39479 20036
L39431 20062
L39408 20088
L39384 20141
L39384 20167
L39408 20219
L39431 20246
L39479 20272
L39574 20272
L39622 20298
L39646 20324
L39670 20377
L39670 20481
L39646 20534
L39622 20560
L39574 20586
L39479 20586
L39431 20560
L39408 20534
L39384 20481
L39384 20377
L39408 20324
L39431 20298
L39479 20272
" />
<path d="M16686 11936
L16853 11674
" />
<path d="M16972 11936
L16972 11386
L16781 11386
L16734 11412
L16710 11438
L16686 11491
L16686 11569
L16710 11622
L16734 11648
L16781 11674
L16972 11674
" />
<path d="M16210 11936
L16496 11936
" />
<path d="M16353 11936
L16353 11386
L16400 11465
L16448 11517
L16496 11543
" />
<path d="M15734 11936
L16020 11936
" />
<path d="M15877 11936
L15877 11386
L15924 11465
L15972 11517
L16020 11543
" />
<path d="M16686 12736
L16853 12474
" />
<path d="M16972 12736
L16972 12186
L16781 12186
L16734 12212
L16710 12238
L16686 12291
L16686 12369
L16710 12422
L16734 12448
L16781 12474
L16972 12474
" />
<path d="M16210 12736
L16496 12736
" />
<path d="M16353 12736
L16353 12186
L16400 12265
L16448 12317
L16496 12343
" />
<path d="M15900 12186
L15853 12186
L15805 12212
L15781 12238
L15758 12291
L15734 12396
L15734 12527
L15758 12631
L15781 12684
L15805 12710
L15853 12736
L15900 12736
L15948 12710
L15972 12684
L15996 12631
L16020 12527
L16020 12396
L15996 12291
L15972 12238
L15948 12212
L15900 12186
" />
<path d="M16448 13536
L16615 13274
" />
<path d="M16734 13536
L16734 12986
L16543 12986
L16496 13012
L16472 13038
L16448 13091
L16448 13169
L16472 13222
L16496 13248
L16543 13274
L16734 13274
" />
<path d="M16210 13536
L16115 13536
L16067 13510
L16043 13484
L15996 13405
L15972 13300
L15972 13091
L15996 13038
L16020 13012
L16067 12986
L16162 12986
L16210 13012
L16234 13038
L16258 13091
L16258 13222
L16234 13274
L16210 13300
L16162 13327
L16067 13327
L16020 13300
L15996 13274
L15972 13222
" />
</g>
<g style="fill:#A000A0; fill-opacity:0.0; 
stroke:#A000A0; stroke-width:59.0551; stroke-opacity:1; 
stroke-linecap:round; stroke-linejoin:round;">
<path d="M32459 18308
L32628 18308
L32628 17954
" />
<path d="M32341 18308
L32341 17954
L32257 17954
L32206 17971
L32173 18004
L32156 18038
L32139 18106
L32139 18156
L32156 18224
L32173 18257
L32206 18291
L32257 18308
L32341 18308
" />
<path d="M31784 18308
L31903 18139
" />
<path d="M31987 18308
L31987 17954
L31852 17954
L31818 17971
L31801 17987
L31784 18021
L31784 18072
L31801 18106
L31818 18122
L31852 18139
L31987 18139
" />
</g>
<g style="fill:#A000A0; fill-opacity:0.0; 
stroke:#A000A0; stroke-width:120; stroke-opacity:1; 
stroke-linecap:round; stroke-linejoin:round;">
<path d="M18286 14814
L18200 14843
L18172 14871
L18143 14928
L18143 15014
L18172 15071
L18200 15100
L18258 15128
L18486 15128
L18486 14528
L18286 14528
L18229 14557
L18200 14585
L18172 14643
L18172 14700
L18200 14757
L18229 14785
L18286 14814
L18486 14814
" />
<path d="M17972 14528
L17629 14528
" />
<path d="M17800 15128
L17800 14528
" />
<path d="M17458 14585
L17429 14557
L17372 14528
L17229 14528
L17172 14557
L17143 14585
L17115 14643
L17115 14700
L17143 14785
L17486 15128
L17115 15128
" />
<path d="M19229 24380
L19229 23780
" />
<path d="M19229 24066
L18886 24066
" />
<path d="M18886 24380
L18886 23780
" />
<path d="M18258 24323
L18286 24352
L18372 24380
L18429 24380
L18515 24352
L18572 24295
L18600 24237
L18629 24123
L18629 24037
L18600 23923
L18572 23866
L18515 23809
L18429 23780
L18372 23780
L18286 23809
L18258 23837
" />
<path d="M18000 24152
L17543 24152
" />
<path d="M17143 23780
L17086 23780
L17029 23809
L17000 23837
L16972 23895
L16943 24009
L16943 24152
L16972 24266
L17000 24323
L17029 24352
L17086 24380
L17143 24380
L17200 24352
L17229 24323
L17258 24266
L17286 24152
L17286 24009
L17258 23895
L17229 23837
L17200 23809
L17143 23780
" />
<path d="M16400 23780
L16686 23780
L16715 24066
L16686 24037
L16629 24009
L16486 24009
L16429 24037
L16400 24066
L16372 24123
L16372 24266
L16400 24323
L16429 24352
L16486 24380
L16629 24380
L16686 24352
L16715 24323
" />
<path d="M25136 14814
L25050 14843
L25022 14871
L24993 14928
L24993 15014
L25022 15071
L25050 15100
L25108 15128
L25336 15128
L25336 14528
L25136 14528
L25079 14557
L25050 14585
L25022 14643
L25022 14700
L25050 14757
L25079 14785
L25136 14814
L25336 14814
" />
<path d="M24822 14528
L24479 14528
" />
<path d="M24650 15128
L24650 14528
" />
<path d="M23965 15128
L24308 15128
" />
<path d="M24136 15128
L24136 14528
L24193 14614
L24250 14671
L24308 14700
" />
<path d="M26079 24380
L26079 23780
" />
<path d="M26079 24066
L25736 24066
" />
<path d="M25736 24380
L25736 23780
" />
<path d="M25108 24323
L25136 24352
L25222 24380
L25279 24380
L25365 24352
L25422 24295
L25450 24237
L25479 24123
L25479 24037
L25450 23923
L25422 23866
L25365 23809
L25279 23780
L25222 23780
L25136 23809
L25108 23837
" />
<path d="M24850 24152
L24393 24152
" />
<path d="M23993 23780
L23936 23780
L23879 23809
L23850 23837
L23822 23895
L23793 24009
L23793 24152
L23822 24266
L23850 24323
L23879 24352
L23936 24380
L23993 24380
L24050 24352
L24079 24323
L24108 24266
L24136 24152
L24136 24009
L24108 23895
L24079 23837
L24050 23809
L23993 23780
" />
<path d="M23250 23780
L23536 23780
L23565 24066
L23536 24037
L23479 24009
L23336 24009
L23279 24037
L23250 24066
L23222 24123
L23222 24266
L23250 24323
L23279 24352
L23336 24380
L23479 24380
L23536 24352
L23565 24323
" />
</g>
<g style="fill:#A000A0; fill-opacity:1.0; 
stroke:#A000A0; stroke-width:1; stroke-opacity:1; 
stroke-linecap:round; stroke-linejoin:round;">
<polyline style="fill-rule:evenodd;"
points="43302,12855
43360,12857
43435,12889
43444,12894
43580,12989
43697,13114
43785,13256
43835,13398
43837,13525
43832,13546
43820,13592
43838,13600
43897,13572
43910,13566
44074,13518
44263,13530
44380,13562
44446,13583
44505,13592
44575,13587
44670,13567
44808,13531
44869,13514
45106,13454
45389,13393
45696,13335
46007,13284
46143,13264
46283,13248
46470,13230
46691,13211
46929,13193
47168,13177
47394,13163
47591,13152
47744,13147
47789,13146
48082,13146
48082,13257
48082,13368
47390,13407
47153,13421
46911,13438
46683,13455
46485,13472
46339,13486
45980,13527
45984,13586
45731,13586
45697,13587
45616,13599
45507,13617
45389,13639
45279,13662
45196,13680
45158,13692
45158,13693
45176,13717
45234,13770
45262,13793
44832,13793
44768,13796
44670,13825
44608,13880
44563,13978
44553,14010
44501,14119
44419,14218
44328,14288
44247,14313
44211,14317
44208,14341
44241,14399
44258,14426
44332,14539
44392,14402
44443,14301
44495,14219
44509,14202
44626,14110
44781,14042
44945,14009
44973,14008
45129,14004
44997,13891
44905,13821
44832,13793
45262,13793
45306,13828
45415,13922
45518,14026
45565,14081
45627,14156
45672,14203
45685,14212
45723,14184
45750,14103
45763,13982
45759,13833
45759,13830
45748,13713
45739,13626
45731,13587
45731,13586
45984,13586
46002,13813
46011,13960
46009,14063
45994,14141
45964,14216
45953,14238
45948,14246
45000,14246
44851,14274
44729,14349
44643,14459
44602,14589
44617,14729
44626,14755
44710,14886
44822,14968
44950,15005
45081,14999
45203,14951
45301,14865
45365,14742
45382,14623
45372,14523
45335,14444
45264,14364
45178,14289
45100,14255
45000,14246
45948,14246
45882,14376
46171,14464
46459,14552
46746,14266
46861,14155
46963,14065
47040,14003
47082,13980
47134,13990
47233,14014
47363,14050
47457,14077
47782,14173
47782,14061
47802,13966
47854,13906
47921,13892
47969,13916
47996,13960
48009,14041
48009,14173
48008,14193
48000,14319
47987,14393
47965,14429
47936,14441
47881,14437
47777,14416
47640,14383
47508,14346
47141,14239
46928,14450
46834,14545
46762,14622
46721,14670
46716,14679
46743,14703
46815,14751
46918,14816
46969,14846
47177,14991
47398,15184
47503,15288
47612,15400
47704,15493
47768,15555
47797,15580
47812,15552
47821,15505
47854,15442
47921,15420
47999,15434
48037,15499
48037,15618
48030,15663
47978,15772
47884,15851
47770,15880
47730,15857
47655,15793
47554,15699
47437,15581
47393,15536
47078,15238
46755,15001
46413,14816
46058,14683
45913,14638
45790,14600
45703,14572
45672,14561
45640,14569
45624,14628
45621,14680
45590,14849
45507,14997
45401,15107
45244,15203
45067,15245
44883,15237
44707,15182
44553,15081
44437,14938
44420,14908
44349,14763
44349,14898
44337,15027
44294,15107
44211,15147
44076,15155
44051,15155
43859,15132
43702,15084
43590,15016
43550,14965
43508,14887
43383,15012
43261,15106
43111,15185
42959,15235
42864,15246
42789,15223
42729,15176
42688,15093
42667,14969
42665,14827
42682,14690
42718,14581
42728,14564
42766,14503
42765,14484
42723,14494
42717,14496
42604,14499
42474,14449
42343,14351
42283,14290
42172,14138
42125,14004
42142,13889
42184,13827
42303,13732
42456,13653
42617,13600
42760,13585
42768,13585
42912,13597
42893,13457
42897,13323
42950,13192
43059,13054
43149,12966
43238,12890
43302,12855
43302,12855
" /> 
</g>
<g style="fill:#A000A0; fill-opacity:1.0; 
stroke:#A000A0; stroke-width:150; stroke-opacity:1; 
stroke-linecap:round; stroke-linejoin:round;">
<path d="M29365 22463
L36665 22463
" />
<path d="M36665 22463
L36665 27963
" />
<path d="M36665 27963
L29365 27963
" />
<path d="M29365 27963
L29365 22463
" />
</g>
<g style="fill:#A000A0; fill-opacity:0.0; 
stroke:#A000A0; stroke-width:150; stroke-opacity:1; 
stroke-linecap:round; stroke-linejoin:round;">
<circle cx="32110.1" cy="13963.9" r="1693.37" /> 
<path d="M41165 11208
L29354 11208
" />
<path d="M29354 16719
L41165 16719
" />
<path d="M29354 12782
L29354 11208
" />
<path d="M29354 15145
L29354 16719
" />
<path d="M29354.2 12782.8 A1181.1 1181.1 0.0 0 0 28173.1 13963.9 " />
<path d="M28173.1 13963.9 A1181.1 1181.1 0.0 0 0 29354.2 15145 " />
<path d="M41165 11208
L41165 16719
" />
</g>
<g style="fill:#A000A0; fill-opacity:0.0; 
stroke:#A000A0; stroke-width:100; stroke-opacity:1; 
stroke-linecap:round; stroke-linejoin:round;">
<path d="M27715 12883
L26715 12883
" />
</g>
<g style="fill:#A000A0; fill-opacity:0.0; 
stroke:#A000A0; stroke-width:60; stroke-opacity:1; 
stroke-linecap:round; stroke-linejoin:round;">
<path d="M27215.2 11663.9 A600 600 0.0 0 0 26831.2 11803 " />
<path d="M27613.1 11815.8 A599.256 599.256 0.0 0 0 27215.2 11664.7 " />
<path d="M26825.3 12718.9 A599.27 599.27 0.0 0 0 27215.2 12863.2 " />
<path d="M27215.2 12863.9 A600 600 0.0 0 0 27599.3 12724.9 " />
<path d="M26615.2 12263.9 A600 600 0.0 0 0 26866 12751.8 " />
<path d="M26855 11784.1 A600 600 0.0 0 0 26615.2 12263.9 " />
<path d="M27583.4 12736.8 A599.294 599.294 0.0 0 0 27814.5 12263.9 " />
<path d="M27815.2 12263.9 A600 600 0.0 0 0 27583.8 11790.5 " />
<path d="M27215.2 12013.9 A250 250 0.0 0 0 26965.2 12263.9 " />
<path d="M27215.2 11863.9 A400 400 0.0 0 0 26815.2 12263.9 " />
<path d="M27215.2 12513.9 A250 250 0.0 0 0 27465.2 12263.9 " />
<path d="M27215.2 12663.9 A400 400 0.0 0 0 27615.2 12263.9 " />
</g>
<g style="fill:#A000A0; fill-opacity:0.0; 
stroke:#A000A0; stroke-width:100; stroke-opacity:1; 
stroke-linecap:round; stroke-linejoin:round;">
<path d="M26415.2 12263.9 A800 800 0.0 0 0 26702.1 12877.7 " />
<path d="M26838.9 11559.1 A799 799 0.0 0 0 26416.2 12263.9 " />
<path d="M27731 12874.2 A798.972 798.972 0.0 0 0 28014.2 12265.3 " />
<path d="M28015.2 12263.9 A800 800 0.0 0 0 27612.8 11569.7 " />
<path d="M27215.2 11463.9 A800 800 0.0 0 0 26836 11559.6 " />
<path d="M27634.2 11582.9 A799.576 799.576 0.0 0 0 27215.2 11464.4 " />
<path d="M20965 12883
L19965 12883
" />
</g>
<g style="fill:#A000A0; fill-opacity:0.0; 
stroke:#A000A0; stroke-width:60; stroke-opacity:1; 
stroke-linecap:round; stroke-linejoin:round;">
<path d="M20465.2 11663.9 A600 600 0.0 0 0 20081.2 11803 " />
<path d="M20863.1 11815.8 A599.256 599.256 0.0 0 0 20465.2 11664.7 " />
<path d="M20075.3 12718.9 A599.27 599.27 0.0 0 0 20465.2 12863.2 " />
<path d="M20465.2 12863.9 A600 600 0.0 0 0 20849.3 12724.9 " />
<path d="M19865.2 12263.9 A600 600 0.0 0 0 20116 12751.8 " />
<path d="M20105 11784.1 A600 600 0.0 0 0 19865.2 12263.9 " />
<path d="M20833.4 12736.8 A599.294 599.294 0.0 0 0 21064.5 12263.9 " />
<path d="M21065.2 12263.9 A600 600 0.0 0 0 20833.8 11790.5 " />
<path d="M20465.2 12013.9 A250 250 0.0 0 0 20215.2 12263.9 " />
<path d="M20465.2 11863.9 A400 400 0.0 0 0 20065.2 12263.9 " />
<path d="M20465.2 12513.9 A250 250 0.0 0 0 20715.2 12263.9 " />
<path d="M20465.2 12663.9 A400 400 0.0 0 0 20865.2 12263.9 " />
</g>
<g style="fill:#A000A0; fill-opacity:0.0; 
stroke:#A000A0; stroke-width:100; stroke-opacity:1; 
stroke-linecap:round; stroke-linejoin:round;">
<path d="M19665.2 12263.9 A800 800 0.0 0 0 19952.1 12877.7 " />
<path d="M20088.9 11559.1 A799 799 0.0 0 0 19666.2 12263.9 " />
<path d="M20981 12874.2 A798.972 798.972 0.0 0 0 21264.2 12265.3 " />
<path d="M21265.2 12263.9 A800 800 0.0 0 0 20862.8 11569.7 " />
<path d="M20465.2 11463.9 A800 800 0.0 0 0 20086 11559.6 " />
<path d="M20884.2 11582.9 A799.576 799.576 0.0 0 0 20465.2 11464.4 " />
<path d="M26115 12883
L25115 12883
" />
</g>
<g style="fill:#A000A0; fill-opacity:0.0; 
stroke:#A000A0; stroke-width:60; stroke-opacity:1; 
stroke-linecap:round; stroke-linejoin:round;">
<path d="M25615.2 11663.9 A600 600 0.0 0 0 25231.2 11803 " />
<path d="M26013.1 11815.8 A599.256 599.256 0.0 0 0 25615.2 11664.7 " />
<path d="M25225.3 12718.9 A599.27 599.27 0.0 0 0 25615.2 12863.2 " />
<path d="M25615.2 12863.9 A600 600 0.0 0 0 25999.3 12724.9 " />
<path d="M25015.2 12263.9 A600 600 0.0 0 0 25266 12751.8 " />
<path d="M25255 11784.1 A600 600 0.0 0 0 25015.2 12263.9 " />
<path d="M25983.4 12736.8 A599.294 599.294 0.0 0 0 26214.5 12263.9 " />
<path d="M26215.2 12263.9 A600 600 0.0 0 0 25983.8 11790.5 " />
<path d="M25615.2 12013.9 A250 250 0.0 0 0 25365.2 12263.9 " />
<path d="M25615.2 11863.9 A400 400 0.0 0 0 25215.2 12263.9 " />
<path d="M25615.2 12513.9 A250 250 0.0 0 0 25865.2 12263.9 " />
<path d="M25615.2 12663.9 A400 400 0.0 0 0 26015.2 12263.9 " />
</g>
<g style="fill:#A000A0; fill-opacity:0.0; 
stroke:#A000A0; stroke-width:100; stroke-opacity:1; 
stroke-linecap:round; stroke-linejoin:round;">
<path d="M24815.2 12263.9 A800 800 0.0 0 0 25102.1 12877.7 " />
<path d="M25238.9 11559.1 A799 799 0.0 0 0 24816.2 12263.9 " />
<path d="M26131 12874.2 A798.972 798.972 0.0 0 0 26414.2 12265.3 " />
<path d="M26415.2 12263.9 A800 800 0.0 0 0 26012.8 11569.7 " />
<path d="M25615.2 11463.9 A800 800 0.0 0 0 25236 11559.6 " />
<path d="M26034.2 11582.9 A799.576 799.576 0.0 0 0 25615.2 11464.4 " />
<path d="M19365 12883
L18365 12883
" />
</g>
<g style="fill:#A000A0; fill-opacity:0.0; 
stroke:#A000A0; stroke-width:60; stroke-opacity:1; 
stroke-linecap:round; stroke-linejoin:round;">
<path d="M18865.2 11663.9 A600 600 0.0 0 0 18481.2 11803 " />
<path d="M19263.1 11815.8 A599.256 599.256 0.0 0 0 18865.2 11664.7 " />
<path d="M18475.3 12718.9 A599.27 599.27 0.0 0 0 18865.2 12863.2 " />
<path d="M18865.2 12863.9 A600 600 0.0 0 0 19249.3 12724.9 " />
<path d="M18265.2 12263.9 A600 600 0.0 0 0 18516 12751.8 " />
<path d="M18505 11784.1 A600 600 0.0 0 0 18265.2 12263.9 " />
<path d="M19233.4 12736.8 A599.294 599.294 0.0 0 0 19464.5 12263.9 " />
<path d="M19465.2 12263.9 A600 600 0.0 0 0 19233.8 11790.5 " />
<path d="M18865.2 12013.9 A250 250 0.0 0 0 18615.2 12263.9 " />
<path d="M18865.2 11863.9 A400 400 0.0 0 0 18465.2 12263.9 " />
<path d="M18865.2 12513.9 A250 250 0.0 0 0 19115.2 12263.9 " />
<path d="M18865.2 12663.9 A400 400 0.0 0 0 19265.2 12263.9 " />
</g>
<g style="fill:#A000A0; fill-opacity:0.0; 
stroke:#A000A0; stroke-width:100; stroke-opacity:1; 
stroke-linecap:round; stroke-linejoin:round;">
<path d="M18065.2 12263.9 A800 800 0.0 0 0 18352.1 12877.7 " />
<path d="M18488.9 11559.1 A799 799 0.0 0 0 18066.2 12263.9 " />
<path d="M19381 12874.2 A798.972 798.972 0.0 0 0 19664.2 12265.3 " />
<path d="M19665.2 12263.9 A800 800 0.0 0 0 19262.8 11569.7 " />
<path d="M18865.2 11463.9 A800 800 0.0 0 0 18486 11559.6 " />
<path d="M19284.2 11582.9 A799.576 799.576 0.0 0 0 18865.2 11464.4 " />
</g>
<g style="fill:#A000A0; fill-opacity:0.0; 
stroke:#A000A0; stroke-width:150; stroke-opacity:1; 
stroke-linecap:round; stroke-linejoin:round;">
<path d="M31721 20463
L32508 20463
" />
<path d="M32115 20070
L32115 20857
" />
<path d="M32115 21448
L35658 21448
" />
<path d="M32115 19479
L35658 19479
" />
<path d="M32115.2 19479.7 A984.252 984.252 0.0 0 0 31131 20463.9 " />
<path d="M31131 20463.9 A984.252 984.252 0.0 0 0 32115.2 21448.2 " />
<path d="M35658 18495
L30737 18495
" />
<path d="M30737 18495
L30737 22432
" />
<path d="M30737 22432
L35658 22432
" />
<path d="M35658 22432
L35658 18495
" />
<circle cx="13399.5" cy="12198.2" r="984.252" /> 
<circle cx="13399.5" cy="29914.7" r="984.252" /> 
<circle cx="50801.1" cy="12198.2" r="984.252" /> 
<circle cx="50801.1" cy="29914.7" r="984.252" /> 
</g>
<g style="fill:#A000A0; fill-opacity:0.0; 
stroke:#A000A0; stroke-width:80; stroke-opacity:1; 
stroke-linecap:round; stroke-linejoin:round;">
<path d="M30615 29963
L30815 29963
" />
<path d="M33615 29963
L33415 29963
" />
<path d="M33415 29963
L33415 30363
" />
<path d="M33415 30363
L30815 30363
" />
<path d="M30815 30363
L30815 29563
" />
<path d="M30815 29563
L33415 29563
" />
<path d="M33415 29563
L33415 29963
" />
<path d="M30815 30163
L31015 30363
" />
<path d="M30615 28363
L30815 28363
" />
<path d="M33615 28363
L33415 28363
" />
<path d="M33415 28363
L33415 28763
" />
<path d="M33415 28763
L30815 28763
" />
<path d="M30815 28763
L30815 27963
" />
<path d="M30815 27963
L33415 27963
" />
<path d="M33415 27963
L33415 28363
" />
<path d="M30815 28563
L31015 28763
" />
<path d="M30615 29163
L30815 29163
" />
<path d="M33615 29163
L33415 29163
" />
<path d="M33415 29163
L33415 29563
" />
<path d="M33415 29563
L30815 29563
" />
<path d="M30815 29563
L30815 28763
" />
<path d="M30815 28763
L33415 28763
" />
<path d="M33415 28763
L33415 29163
" />
<path d="M30815 29363
L31015 29563
" />
<path d="M43565 20413
L43765 20413
" />
<path d="M46565 20413
L46365 20413
" />
<path d="M46365 20413
L46365 20813
" />
<path d="M46365 20813
L43765 20813
" />
<path d="M43765 20813
L43765 20013
" />
<path d="M43765 20013
L46365 20013
" />
<path d="M46365 20013
L46365 20413
" />
<path d="M43765 20613
L43965 20813
" />
<path d="M46565 28463
L46365 28463
" />
<path d="M43565 28463
L43765 28463
" />
<path d="M43765 28463
L43765 28063
" />
<path d="M43765 28063
L46365 28063
" />
<path d="M46365 28063
L46365 28863
" />
<path d="M46365 28863
L43765 28863
" />
<path d="M43765 28863
L43765 28463
" />
<path d="M46365 28263
L46165 28063
" />
<path d="M46565 22463
L46365 22463
" />
<path d="M43565 22463
L43765 22463
" />
<path d="M43765 22463
L43765 22063
" />
<path d="M43765 22063
L46365 22063
" />
<path d="M46365 22063
L46365 22863
" />
<path d="M46365 22863
L43765 22863
" />
<path d="M43765 22863
L43765 22463
" />
<path d="M46365 22263
L46165 22063
" />
<path d="M46565 25463
L46365 25463
" />
<path d="M43565 25463
L43765 25463
" />
<path d="M43765 25463
L43765 25063
" />
<path d="M43765 25063
L46365 25063
" />
<path d="M46365 25063
L46365 25863
" />
<path d="M46365 25863
L43765 25863
" />
<path d="M43765 25863
L43765 25463
" />
<path d="M46365 25263
L46165 25063
" />
<path d="M21715 11763
L21915 11763
" />
<path d="M24715 11763
L24515 11763
" />
<path d="M24515 11763
L24515 12163
" />
<path d="M24515 12163
L21915 12163
" />
<path d="M21915 12163
L21915 11363
" />
<path d="M21915 11363
L24515 11363
" />
<path d="M24515 11363
L24515 11763
" />
<path d="M21915 11963
L22115 12163
" />
<path d="M21715 12563
L21915 12563
" />
<path d="M24715 12563
L24515 12563
" />
<path d="M24515 12563
L24515 12963
" />
<path d="M24515 12963
L21915 12963
" />
<path d="M21915 12963
L21915 12163
" />
<path d="M21915 12163
L24515 12163
" />
<path d="M24515 12163
L24515 12563
" />
<path d="M21915 12763
L22115 12963
" />
<path d="M21715 13363
L21915 13363
" />
<path d="M24715 13363
L24515 13363
" />
<path d="M24515 13363
L24515 13763
" />
<path d="M24515 13763
L21915 13763
" />
<path d="M21915 13763
L21915 12963
" />
<path d="M21915 12963
L24515 12963
" />
<path d="M24515 12963
L24515 13363
" />
<path d="M21915 13563
L22115 13763
" />
<path d="M38515 20413
L38715 20413
" />
<path d="M41515 20413
L41315 20413
" />
<path d="M41315 20413
L41315 20813
" />
<path d="M41315 20813
L38715 20813
" />
<path d="M38715 20813
L38715 20013
" />
<path d="M38715 20013
L41315 20013
" />
<path d="M41315 20013
L41315 20413
" />
<path d="M38715 20613
L38915 20813
" />
<path d="M14865 11763
L15065 11763
" />
<path d="M17865 11763
L17665 11763
" />
<path d="M17665 11763
L17665 12163
" />
<path d="M17665 12163
L15065 12163
" />
<path d="M15065 12163
L15065 11363
" />
<path d="M15065 11363
L17665 11363
" />
<path d="M17665 11363
L17665 11763
" />
<path d="M15065 11963
L15265 12163
" />
<path d="M14865 12563
L15065 12563
" />
<path d="M17865 12563
L17665 12563
" />
<path d="M17665 12563
L17665 12963
" />
<path d="M17665 12963
L15065 12963
" />
<path d="M15065 12963
L15065 12163
" />
<path d="M15065 12163
L17665 12163
" />
<path d="M17665 12163
L17665 12563
" />
<path d="M15065 12763
L15265 12963
" />
<path d="M14865 13363
L15065 13363
" />
<path d="M17865 13363
L17665 13363
" />
<path d="M17665 13363
L17665 13763
" />
<path d="M17665 13763
L15065 13763
" />
<path d="M15065 13763
L15065 12963
" />
<path d="M15065 12963
L17665 12963
" />
<path d="M17665 12963
L17665 13363
" />
<path d="M15065 13563
L15265 13763
" />
</g>
<g style="fill:#A000A0; fill-opacity:0.0; 
stroke:#A000A0; stroke-width:150; stroke-opacity:1; 
stroke-linecap:round; stroke-linejoin:round;">
<path d="M32372 18480
L32057 18480
" />
<path d="M32372 16747
L32057 16747
" />
<path d="M31191.6 17613.9 A866.142 866.142 0.0 0 0 32057.8 18480.1 " />
<path d="M32372.7 18480.1 A866.142 866.142 0.0 0 0 33238.9 17613.9 " />
<path d="M32057.8 16747.8 A866.142 866.142 0.0 0 0 31191.6 17613.9 " />
<path d="M33238.9 17613.9 A866.142 866.142 0.0 0 0 32372.7 16747.8 " />
<path d="M20374 13902
L20374 24925
" />
<path d="M20374 24925
L15256 24925
" />
<path d="M15256 24925
L15256 13902
" />
<path d="M15256 13902
L20374 13902
" />
<path d="M27224 13902
L27224 24925
" />
<path d="M27224 24925
L22106 24925
" />
<path d="M22106 24925
L22106 13902
" />
<path d="M22106 13902
L27224 13902
" />
</g>
<g style="fill:#808000; fill-opacity:0.0; 
stroke:#808000; stroke-width:39.3701; stroke-opacity:1; 
stroke-linecap:round; stroke-linejoin:round;">
</g>
<g style="fill:#808000; fill-opacity:1.0; 
stroke:#808000; stroke-width:39.3701; stroke-opacity:1; 
stroke-linecap:round; stroke-linejoin:round;">
<circle cx="36115.2" cy="23213.9" r="275.591" /> 
<circle cx="36115.2" cy="24213.9" r="275.591" /> 
<circle cx="36115.2" cy="25213.9" r="275.591" /> 
<circle cx="36115.2" cy="26213.9" r="275.591" /> 
<circle cx="36115.2" cy="27213.9" r="275.591" /> 
<circle cx="30115.2" cy="23213.9" r="570.866" /> 
<circle cx="30115.2" cy="27213.9" r="570.866" /> 
<circle cx="29354.2" cy="13963.9" r="787.402" /> 
<circle cx="37165.2" cy="13963.9" r="275.815" /> 
<circle cx="37165.2" cy="12963.9" r="275.815" /> 
<circle cx="37165.2" cy="14963.9" r="275.815" /> 
<circle cx="27215.2" cy="11663.9" r="310.315" /> 
<circle cx="27215.2" cy="12663.9" r="310.315" /> 
<circle cx="20465.2" cy="11663.9" r="310.315" /> 
<circle cx="20465.2" cy="12663.9" r="310.315" /> 
<circle cx="25615.2" cy="11663.9" r="310.315" /> 
<circle cx="25615.2" cy="12663.9" r="310.315" /> 
<circle cx="18865.2" cy="11663.9" r="310.315" /> 
<circle cx="18865.2" cy="12663.9" r="310.315" /> 
<circle cx="36158.6" cy="18963.9" r="275.815" /> 
<circle cx="36158.6" cy="19963.9" r="275.815" /> 
<circle cx="36158.6" cy="21963.9" r="275.815" /> 
<circle cx="13399.5" cy="12198.2" r="572.835" /> 
<circle cx="13399.5" cy="29914.7" r="572.835" /> 
<circle cx="50801.1" cy="12198.2" r="572.835" /> 
<circle cx="50801.1" cy="29914.7" r="572.835" /> 
<circle cx="30615.2" cy="29963.9" r="255.315" /> 
<circle cx="33615.2" cy="29963.9" r="255.315" /> 
<circle cx="30615.2" cy="28363.9" r="255.315" /> 
<circle cx="33615.2" cy="28363.9" r="255.315" /> 
<circle cx="30615.2" cy="29163.9" r="255.315" /> 
<circle cx="33615.2" cy="29163.9" r="255.315" /> 
<circle cx="43565.2" cy="20413.9" r="255.315" /> 
<circle cx="46565.2" cy="20413.9" r="255.315" /> 
<circle cx="46565.2" cy="28463.9" r="255.315" /> 
<circle cx="43565.2" cy="28463.9" r="255.315" /> 
<circle cx="46565.2" cy="22463.9" r="255.315" /> 
<circle cx="43565.2" cy="22463.9" r="255.315" /> 
<circle cx="46565.2" cy="25463.9" r="255.315" /> 
<circle cx="43565.2" cy="25463.9" r="255.315" /> 
<circle cx="21715.2" cy="11763.9" r="255.315" /> 
<circle cx="24715.2" cy="11763.9" r="255.315" /> 
<circle cx="21715.2" cy="12563.9" r="255.315" /> 
<circle cx="24715.2" cy="12563.9" r="255.315" /> 
<circle cx="21715.2" cy="13363.9" r="255.315" /> 
<circle cx="24715.2" cy="13363.9" r="255.315" /> 
<circle cx="38515.2" cy="20413.9" r="255.315" /> 
<circle cx="41515.2" cy="20413.9" r="255.315" /> 
<circle cx="14865.2" cy="11763.9" r="255.315" /> 
<circle cx="17865.2" cy="11763.9" r="255.315" /> 
<circle cx="14865.2" cy="12563.9" r="255.315" /> 
<circle cx="17865.2" cy="12563.9" r="255.315" /> 
<circle cx="14865.2" cy="13363.9" r="255.315" /> 
<circle cx="17865.2" cy="13363.9" r="255.315" /> 
<circle cx="32884.5" cy="17613.9" r="196.85" /> 
<circle cx="31546" cy="17613.9" r="196.85" /> 
</g> 
</svg>
