<?xml version="1.0" standalone="no"?>
 <!DOCTYPE svg PUBLIC "-//W3C//DTD SVG 1.1//EN" 
 "http://www.w3.org/Graphics/SVG/1.1/DTD/svg11.dtd"> 
<svg xmlns="http://www.w3.org/2000/svg" version="1.1" 
    width="31.2268cm" height="7.91718cm" viewBox="0 0 122940 31170 ">
<title>SVG Picture created as woerdclock-B_SilkS.svg date 2014/11/22 22:19:21 </title>
  <desc>Picture generated by PCBNEW </desc>
<g style="fill:#000000; fill-opacity:1;stroke:#000000; stroke-opacity:1;
stroke-linecap:round; stroke-linejoin:round; "
 transform="translate(0 0) scale(1 1)">
</g>
<g style="fill:#A000A0; fill-opacity:0.0; 
stroke:#A000A0; stroke-width:39.3701; stroke-opacity:1; 
stroke-linecap:round; stroke-linejoin:round;">
<path d="M19465 13163
L19265 12963
" />
<path d="M20365 13163
L19465 13163
" />
<path d="M20665 13463
L20365 13163
" />
<path d="M25965 13163
L25815 13013
" />
<path d="M27865 13513
L27365 13013
" />
<path d="M21115 13413
L20715 13013
" />
<path d="M21115 13763
L21115 13413
" />
<path d="M20665 13763
L20665 13463
" />
<path d="M27865 13763
L27865 13513
" />
<path d="M27165 13163
L25965 13163
" />
<path d="M27515 13513
L27165 13163
" />
<path d="M27515 13813
L27515 13513
" />
</g>
<g style="fill:#A000A0; fill-opacity:0.0; 
stroke:#A000A0; stroke-width:59.0551; stroke-opacity:1; 
stroke-linecap:round; stroke-linejoin:round;">
<path d="M49358 13398
L49004 13398
" />
<path d="M49358 13550
L49173 13550
L49139 13533
L49122 13499
L49122 13448
L49139 13415
L49156 13398
" />
<path d="M49122 13668
L49122 13803
" />
<path d="M49004 13718
L49308 13718
L49341 13735
L49358 13769
L49358 13803
" />
<path d="M49122 13870
L49122 14005
" />
<path d="M49004 13921
L49308 13921
L49341 13938
L49358 13971
L49358 14005
" />
<path d="M49122 14123
L49476 14123
" />
<path d="M49139 14123
L49122 14157
L49122 14225
L49139 14258
L49156 14275
L49189 14292
L49291 14292
L49324 14275
L49341 14258
L49358 14225
L49358 14157
L49341 14123
" />
<path d="M49324 14444
L49341 14461
L49358 14444
L49341 14427
L49324 14444
L49358 14444
" />
<path d="M49139 14444
L49156 14461
L49173 14444
L49156 14427
L49139 14444
L49173 14444
" />
<path d="M48987 14866
L49443 14562
" />
<path d="M48987 15237
L49443 14933
" />
<path d="M49341 15338
L49358 15372
L49358 15439
L49341 15473
L49308 15490
L49291 15490
L49257 15473
L49240 15439
L49240 15389
L49223 15355
L49189 15338
L49173 15338
L49139 15355
L49122 15389
L49122 15439
L49139 15473
" />
<path d="M49341 15777
L49358 15743
L49358 15676
L49341 15642
L49308 15625
L49173 15625
L49139 15642
L49122 15676
L49122 15743
L49139 15777
L49173 15794
L49206 15794
L49240 15625
" />
<path d="M49358 15946
L49004 15946
" />
<path d="M49139 15946
L49122 15979
L49122 16047
L49139 16081
L49156 16097
L49189 16114
L49291 16114
L49324 16097
L49341 16081
L49358 16047
L49358 15979
L49341 15946
" />
<path d="M49358 16418
L49173 16418
L49139 16401
L49122 16367
L49122 16300
L49139 16266
" />
<path d="M49341 16418
L49358 16384
L49358 16300
L49341 16266
L49308 16249
L49274 16249
L49240 16266
L49223 16300
L49223 16384
L49206 16418
" />
<path d="M49341 16570
L49358 16604
L49358 16671
L49341 16705
L49308 16722
L49291 16722
L49257 16705
L49240 16671
L49240 16621
L49223 16587
L49189 16570
L49173 16570
L49139 16587
L49122 16621
L49122 16671
L49139 16705
" />
<path d="M49122 16823
L49122 16958
" />
<path d="M49004 16874
L49308 16874
L49341 16890
L49358 16924
L49358 16958
" />
<path d="M49358 17076
L49122 17076
" />
<path d="M49004 17076
L49021 17059
L49038 17076
L49021 17093
L49004 17076
L49038 17076
" />
<path d="M49358 17397
L49173 17397
L49139 17380
L49122 17346
L49122 17279
L49139 17245
" />
<path d="M49341 17397
L49358 17363
L49358 17279
L49341 17245
L49308 17228
L49274 17228
L49240 17245
L49223 17279
L49223 17363
L49206 17397
" />
<path d="M49122 17565
L49358 17565
" />
<path d="M49156 17565
L49139 17582
L49122 17616
L49122 17667
L49139 17700
L49173 17717
L49358 17717
" />
<path d="M49324 17886
L49341 17903
L49358 17886
L49341 17869
L49324 17886
L49358 17886
" />
<path d="M49341 18038
L49358 18072
L49358 18139
L49341 18173
L49308 18190
L49291 18190
L49257 18173
L49240 18139
L49240 18088
L49223 18055
L49189 18038
L49173 18038
L49139 18055
L49122 18088
L49122 18139
L49139 18173
" />
<path d="M49341 18477
L49358 18443
L49358 18375
L49341 18342
L49308 18325
L49173 18325
L49139 18342
L49122 18375
L49122 18443
L49139 18477
L49173 18493
L49206 18493
L49240 18325
" />
<path d="M49122 18595
L49122 18730
" />
<path d="M49004 18645
L49308 18645
L49341 18662
L49358 18696
L49358 18730
" />
<path d="M49122 18814
L49122 19000
L49358 18814
L49358 19000
" />
<path d="M49324 19135
L49341 19151
L49358 19135
L49341 19118
L49324 19135
L49358 19135
" />
<path d="M49122 19303
L49358 19303
" />
<path d="M49156 19303
L49139 19320
L49122 19354
L49122 19405
L49139 19438
L49173 19455
L49358 19455
" />
<path d="M49358 19776
L49173 19776
L49139 19759
L49122 19725
L49122 19658
L49139 19624
" />
<path d="M49341 19776
L49358 19742
L49358 19658
L49341 19624
L49308 19607
L49274 19607
L49240 19624
L49223 19658
L49223 19742
L49206 19776
" />
<path d="M49358 19944
L49122 19944
" />
<path d="M49156 19944
L49139 19961
L49122 19995
L49122 20046
L49139 20079
L49173 20096
L49358 20096
" />
<path d="M49173 20096
L49139 20113
L49122 20147
L49122 20198
L49139 20231
L49173 20248
L49358 20248
" />
<path d="M49341 20552
L49358 20518
L49358 20451
L49341 20417
L49308 20400
L49173 20400
L49139 20417
L49122 20451
L49122 20518
L49139 20552
L49173 20569
L49206 20569
L49240 20400
" />
<path d="M48987 20974
L49443 20670
" />
<path d="M49358 21244
L49173 21244
L49139 21227
L49122 21193
L49122 21126
L49139 21092
" />
<path d="M49341 21244
L49358 21210
L49358 21126
L49341 21092
L49308 21075
L49274 21075
L49240 21092
L49223 21126
L49223 21210
L49206 21244
" />
<path d="M49358 21412
L49122 21412
" />
<path d="M49189 21412
L49156 21429
L49139 21446
L49122 21480
L49122 21514
" />
<path d="M49358 21784
L49004 21784
" />
<path d="M49341 21784
L49358 21750
L49358 21682
L49341 21649
L49324 21632
L49291 21615
L49189 21615
L49156 21632
L49139 21649
L49122 21682
L49122 21750
L49139 21784
" />
<path d="M49122 22104
L49358 22104
" />
<path d="M49122 21952
L49308 21952
L49341 21969
L49358 22003
L49358 22054
L49341 22087
L49324 22104
" />
<path d="M49358 22273
L49122 22273
" />
<path d="M49004 22273
L49021 22256
L49038 22273
L49021 22290
L49004 22273
L49038 22273
" />
<path d="M49122 22442
L49358 22442
" />
<path d="M49156 22442
L49139 22459
L49122 22492
L49122 22543
L49139 22577
L49173 22594
L49358 22594
" />
<path d="M49358 22813
L49341 22779
L49324 22762
L49291 22745
L49189 22745
L49156 22762
L49139 22779
L49122 22813
L49122 22863
L49139 22897
L49156 22914
L49189 22931
L49291 22931
L49324 22914
L49341 22897
L49358 22863
L49358 22813
" />
<path d="M48987 23336
L49443 23032
" />
<path d="M49358 23454
L49122 23454
" />
<path d="M49156 23454
L49139 23471
L49122 23505
L49122 23555
L49139 23589
L49173 23606
L49358 23606
" />
<path d="M49173 23606
L49139 23623
L49122 23657
L49122 23707
L49139 23741
L49173 23758
L49358 23758
" />
<path d="M49122 23893
L49358 23977
" />
<path d="M49122 24061
L49358 23977
L49443 23943
L49459 23926
L49476 23893
" />
<path d="M49223 24196
L49223 24466
" />
<path d="M49122 24635
L49476 24635
" />
<path d="M49139 24635
L49122 24669
L49122 24736
L49139 24770
L49156 24787
L49189 24804
L49291 24804
L49324 24787
L49341 24770
L49358 24736
L49358 24669
L49341 24635
" />
<path d="M49358 24956
L49122 24956
" />
<path d="M49189 24956
L49156 24973
L49139 24989
L49122 25023
L49122 25057
" />
<path d="M49358 25226
L49341 25192
L49324 25175
L49291 25158
L49189 25158
L49156 25175
L49139 25192
L49122 25226
L49122 25276
L49139 25310
L49156 25327
L49189 25344
L49291 25344
L49324 25327
L49341 25310
L49358 25276
L49358 25226
" />
<path d="M49122 25496
L49426 25496
L49459 25479
L49476 25445
L49476 25428
" />
<path d="M49004 25496
L49021 25479
L49038 25496
L49021 25513
L49004 25496
L49038 25496
" />
<path d="M49341 25799
L49358 25766
L49358 25698
L49341 25664
L49308 25648
L49173 25648
L49139 25664
L49122 25698
L49122 25766
L49139 25799
L49173 25816
L49206 25816
L49240 25648
" />
<path d="M49358 25968
L49004 25968
" />
<path d="M49223 26002
L49358 26103
" />
<path d="M49122 26103
L49257 25968
" />
<path d="M49122 26204
L49122 26339
" />
<path d="M49004 26255
L49308 26255
L49341 26272
L49358 26306
L49358 26339
" />
<path d="M49341 26441
L49358 26474
L49358 26542
L49341 26576
L49308 26592
L49291 26592
L49257 26576
L49240 26542
L49240 26491
L49223 26457
L49189 26441
L49173 26441
L49139 26457
L49122 26491
L49122 26542
L49139 26576
" />
<path d="M48987 26997
L49443 26694
" />
<path d="M49122 27082
L49358 27149
L49189 27217
L49358 27284
L49122 27352
" />
<path d="M49358 27537
L49341 27504
L49324 27487
L49291 27470
L49189 27470
L49156 27487
L49139 27504
L49122 27537
L49122 27588
L49139 27622
L49156 27639
L49189 27655
L49291 27655
L49324 27639
L49341 27622
L49358 27588
L49358 27537
" />
<path d="M49341 27942
L49358 27908
L49358 27841
L49341 27807
L49308 27790
L49173 27790
L49139 27807
L49122 27841
L49122 27908
L49139 27942
L49173 27959
L49206 27959
L49240 27790
" />
<path d="M49358 28111
L49122 28111
" />
<path d="M49189 28111
L49156 28128
L49139 28145
L49122 28178
L49122 28212
" />
<path d="M49358 28482
L49004 28482
" />
<path d="M49341 28482
L49358 28448
L49358 28381
L49341 28347
L49324 28330
L49291 28313
L49189 28313
L49156 28330
L49139 28347
L49122 28381
L49122 28448
L49139 28482
" />
<path d="M49341 28803
L49358 28769
L49358 28702
L49341 28668
L49324 28651
L49291 28634
L49189 28634
L49156 28651
L49139 28668
L49122 28702
L49122 28769
L49139 28803
" />
<path d="M49358 29005
L49341 28971
L49308 28955
L49004 28955
" />
<path d="M49358 29191
L49341 29157
L49324 29140
L49291 29123
L49189 29123
L49156 29140
L49139 29157
L49122 29191
L49122 29241
L49139 29275
L49156 29292
L49189 29309
L49291 29309
L49324 29292
L49341 29275
L49358 29241
L49358 29191
" />
<path d="M49341 29613
L49358 29579
L49358 29511
L49341 29478
L49324 29461
L49291 29444
L49189 29444
L49156 29461
L49139 29478
L49122 29511
L49122 29579
L49139 29613
" />
<path d="M49358 29765
L49004 29765
" />
<path d="M49223 29798
L49358 29899
" />
<path d="M49122 29899
L49257 29765
" />
<path d="M48987 30304
L49443 30001
" />
<path d="M49559 13347
L49913 13465
L49559 13583
" />
<path d="M49559 13769
L49559 13803
L49576 13836
L49593 13853
L49626 13870
L49694 13887
L49778 13887
L49846 13870
L49880 13853
L49896 13836
L49913 13803
L49913 13769
L49896 13735
L49880 13718
L49846 13702
L49778 13685
L49694 13685
L49626 13702
L49593 13718
L49576 13735
L49559 13769
" />
<path d="M49593 14022
L49576 14039
L49559 14073
L49559 14157
L49576 14191
L49593 14208
L49626 14225
L49660 14225
L49711 14208
L49913 14005
L49913 14225
" />
<path d="M49778 14646
L49778 14916
" />
<path d="M49593 15338
L49576 15355
L49559 15389
L49559 15473
L49576 15507
L49593 15524
L49626 15541
L49660 15541
L49711 15524
L49913 15321
L49913 15541
" />
<path d="M49593 15676
L49576 15693
L49559 15726
L49559 15811
L49576 15844
L49593 15861
L49626 15878
L49660 15878
L49711 15861
L49913 15659
L49913 15878
" />
<path d="M49880 16030
L49896 16047
L49913 16030
L49896 16013
L49880 16030
L49913 16030
" />
<path d="M49913 16384
L49913 16182
" />
<path d="M49913 16283
L49559 16283
L49610 16249
L49643 16216
L49660 16182
" />
<path d="M49913 16722
L49913 16519
" />
<path d="M49913 16621
L49559 16621
L49610 16587
L49643 16553
L49660 16519
" />
<path d="M49880 16874
L49896 16890
L49913 16874
L49896 16857
L49880 16874
L49913 16874
" />
<path d="M49593 17025
L49576 17042
L49559 17076
L49559 17160
L49576 17194
L49593 17211
L49626 17228
L49660 17228
L49711 17211
L49913 17009
L49913 17228
" />
<path d="M49559 17447
L49559 17481
L49576 17515
L49593 17532
L49626 17549
L49694 17565
L49778 17565
L49846 17549
L49880 17532
L49896 17515
L49913 17481
L49913 17447
L49896 17414
L49880 17397
L49846 17380
L49778 17363
L49694 17363
L49626 17380
L49593 17397
L49576 17414
L49559 17447
" />
<path d="M49913 17903
L49913 17700
" />
<path d="M49913 17802
L49559 17802
L49610 17768
L49643 17734
L49660 17700
" />
<path d="M49677 18207
L49913 18207
" />
<path d="M49542 18122
L49795 18038
L49795 18257
" />
</g>
<g style="fill:#FFFF00; fill-opacity:0.0; 
stroke:#FFFF00; stroke-width:150; stroke-opacity:1; 
stroke-linecap:round; stroke-linejoin:round;">
<path d="M61273 5938
L3202 5938
" />
<path d="M3202 5544
L61273 5544
" />
<path d="M2415 4757
L2415 2001
" />
<path d="M2415 9481
L2415 6725
" />
<path d="M119738 10269
L3202 10269
" />
<path d="M119738 5938
L61667 5938
" />
<path d="M61667 5544
L119738 5544
" />
<path d="M120525 6725
L120525 9481
" />
<path d="M120525 2001
L120525 4757
" />
<path d="M3202 1213
L119738 1213
" />
<path d="M3202.65 5938.35 A787.402 787.402 0.0 0 0 2415.25 6725.75 " />
<path d="M2415.25 9481.65 A787.402 787.402 0.0 0 0 3202.65 10269.1 " />
<path d="M119738 10269.1 A787.402 787.402 0.0 0 0 120525 9481.65 " />
<path d="M120525 6725.75 A787.402 787.402 0.0 0 0 119738 5938.35 " />
<path d="M120525 2001.34 A787.402 787.402 0.0 0 0 119738 1213.94 " />
<path d="M119738 5544.65 A787.402 787.402 0.0 0 0 120525 4757.24 " />
<path d="M2415.25 4757.24 A787.402 787.402 0.0 0 0 3202.65 5544.65 " />
<path d="M3202.65 1213.94 A787.402 787.402 0.0 0 0 2415.25 2001.34 " />
<path d="M12415 29914
L12415 12198
" />
<path d="M50761 30898
L13399 30898
" />
<path d="M51785 12198
L51785 29954
" />
<path d="M13399 11213
L50801 11213
" />
<path d="M50761.5 30899 A985.039 985.039 0.0 0 0 51785.3 29954.3 " />
<path d="M51785.3 12198.2 A984.252 984.252 0.0 0 0 50801.1 11213.9 " />
<path d="M13399.5 11213.9 A984.252 984.252 0.0 0 0 12415.2 12198.2 " />
<path d="M12415.2 29914.7 A984.252 984.252 0.0 0 0 13399.5 30899 " />
<path d="M61667 5544
L61667 5938
" />
<path d="M61273 5938
L61273 5544
" />
</g>
<g style="fill:#A000A0; fill-opacity:0.0; 
stroke:#A000A0; stroke-width:35; stroke-opacity:1; 
stroke-linecap:round; stroke-linejoin:round;">
<path d="M28336 11635
L28336 11335
L28265 11335
L28222 11349
L28193 11378
L28179 11406
L28165 11463
L28165 11506
L28179 11563
L28193 11592
L28222 11621
L28265 11635
L28336 11635
" />
<path d="M27879 11635
L28050 11635
" />
<path d="M27965 11635
L27965 11335
L27993 11378
L28022 11406
L28050 11421
" />
<path d="M27879 13963
L27893 14006
L27908 14021
L27936 14035
L27979 14035
L28008 14021
L28022 14006
L28036 13978
L28036 13863
L27736 13863
L27736 13963
L27750 13992
L27765 14006
L27793 14021
L27822 14021
L27850 14006
L27865 13992
L27879 13963
L27879 13863
" />
<path d="M27736 14121
L27736 14292
" />
<path d="M28036 14206
L27736 14206
" />
<path d="M28036 14549
L28036 14378
" />
<path d="M28036 14463
L27736 14463
L27779 14435
L27808 14406
L27822 14378
" />
<path d="M27836 14906
L28136 14906
" />
<path d="M27850 14906
L27836 14935
L27836 14992
L27850 15021
L27865 15035
L27893 15049
L27979 15049
L28008 15035
L28022 15021
L28036 14992
L28036 14935
L28022 14906
" />
<path d="M28036 15306
L27879 15306
L27850 15292
L27836 15263
L27836 15206
L27850 15178
" />
<path d="M28022 15306
L28036 15278
L28036 15206
L28022 15178
L27993 15163
L27965 15163
L27936 15178
L27922 15206
L27922 15278
L27908 15306
" />
<path d="M28036 15449
L27836 15449
" />
<path d="M27736 15449
L27750 15435
L27765 15449
L27750 15463
L27736 15449
L27765 15449
" />
<path d="M28036 15592
L27836 15592
" />
<path d="M27893 15592
L27865 15606
L27850 15621
L27836 15649
L27836 15678
" />
<path d="M28022 15892
L28036 15863
L28036 15806
L28022 15778
L27993 15763
L27879 15763
L27850 15778
L27836 15806
L27836 15863
L27850 15892
L27879 15906
L27908 15906
L27936 15763
" />
<path d="M28036 16163
L27736 16163
" />
<path d="M28022 16163
L28036 16135
L28036 16078
L28022 16049
L28008 16035
L27979 16021
L27893 16021
L27865 16035
L27850 16049
L27836 16078
L27836 16135
L27850 16163
" />
<path d="M21436 11585
L21436 11285
L21365 11285
L21322 11299
L21293 11328
L21279 11356
L21265 11413
L21265 11456
L21279 11513
L21293 11542
L21322 11571
L21365 11585
L21436 11585
" />
<path d="M21165 11285
L20979 11285
L21079 11399
L21036 11399
L21008 11413
L20993 11428
L20979 11456
L20979 11528
L20993 11556
L21008 11571
L21036 11585
L21122 11585
L21150 11571
L21165 11556
" />
<path d="M21079 14013
L21093 14056
L21108 14071
L21136 14085
L21179 14085
L21208 14071
L21222 14056
L21236 14028
L21236 13913
L20936 13913
L20936 14013
L20950 14042
L20965 14056
L20993 14071
L21022 14071
L21050 14056
L21065 14042
L21079 14013
L21079 13913
" />
<path d="M20936 14171
L20936 14342
" />
<path d="M21236 14256
L20936 14256
" />
<path d="M20965 14428
L20950 14442
L20936 14471
L20936 14542
L20950 14571
L20965 14585
L20993 14599
L21022 14599
L21065 14585
L21236 14413
L21236 14599
" />
<path d="M21036 14956
L21336 14956
" />
<path d="M21050 14956
L21036 14985
L21036 15042
L21050 15071
L21065 15085
L21093 15099
L21179 15099
L21208 15085
L21222 15071
L21236 15042
L21236 14985
L21222 14956
" />
<path d="M21236 15356
L21079 15356
L21050 15342
L21036 15313
L21036 15256
L21050 15228
" />
<path d="M21222 15356
L21236 15328
L21236 15256
L21222 15228
L21193 15213
L21165 15213
L21136 15228
L21122 15256
L21122 15328
L21108 15356
" />
<path d="M21236 15499
L21036 15499
" />
<path d="M20936 15499
L20950 15485
L20965 15499
L20950 15513
L20936 15499
L20965 15499
" />
<path d="M21236 15642
L21036 15642
" />
<path d="M21093 15642
L21065 15656
L21050 15671
L21036 15699
L21036 15728
" />
<path d="M21222 15942
L21236 15913
L21236 15856
L21222 15828
L21193 15813
L21079 15813
L21050 15828
L21036 15856
L21036 15913
L21050 15942
L21079 15956
L21108 15956
L21136 15813
" />
<path d="M21236 16213
L20936 16213
" />
<path d="M21222 16213
L21236 16185
L21236 16128
L21222 16099
L21208 16085
L21179 16071
L21093 16071
L21065 16085
L21050 16099
L21036 16128
L21036 16185
L21050 16213
" />
<path d="M26536 11535
L26536 11235
L26465 11235
L26422 11249
L26393 11278
L26379 11306
L26365 11363
L26365 11406
L26379 11463
L26393 11492
L26422 11521
L26465 11535
L26536 11535
" />
<path d="M26250 11263
L26236 11249
L26208 11235
L26136 11235
L26108 11249
L26093 11263
L26079 11292
L26079 11321
L26093 11363
L26265 11535
L26079 11535
" />
<path d="M27636 13885
L27436 13885
" />
<path d="M27465 13885
L27450 13899
L27436 13928
L27436 13971
L27450 13999
L27479 14013
L27636 14013
" />
<path d="M27479 14013
L27450 14028
L27436 14056
L27436 14099
L27450 14128
L27479 14142
L27636 14142
" />
<path d="M27636 14328
L27622 14299
L27608 14285
L27579 14271
L27493 14271
L27465 14285
L27450 14299
L27436 14328
L27436 14371
L27450 14399
L27465 14413
L27493 14428
L27579 14428
L27608 14413
L27622 14399
L27636 14371
L27636 14328
" />
<path d="M27636 14685
L27336 14685
" />
<path d="M27622 14685
L27636 14656
L27636 14599
L27622 14571
L27608 14556
L27579 14542
L27493 14542
L27465 14556
L27450 14571
L27436 14599
L27436 14656
L27450 14685
" />
<path d="M27622 14942
L27636 14913
L27636 14856
L27622 14828
L27593 14813
L27479 14813
L27450 14828
L27436 14856
L27436 14913
L27450 14942
L27479 14956
L27508 14956
L27536 14813
" />
<path d="M19886 11585
L19886 11285
L19815 11285
L19772 11299
L19743 11328
L19729 11356
L19715 11413
L19715 11456
L19729 11513
L19743 11542
L19772 11571
L19815 11585
L19886 11585
" />
<path d="M19458 11385
L19458 11585
" />
<path d="M19529 11271
L19600 11485
L19415 11485
" />
<path d="M20786 13885
L20586 13885
" />
<path d="M20615 13885
L20600 13899
L20586 13928
L20586 13971
L20600 13999
L20629 14013
L20786 14013
" />
<path d="M20629 14013
L20600 14028
L20586 14056
L20586 14099
L20600 14128
L20629 14142
L20786 14142
" />
<path d="M20786 14328
L20772 14299
L20758 14285
L20729 14271
L20643 14271
L20615 14285
L20600 14299
L20586 14328
L20586 14371
L20600 14399
L20615 14413
L20643 14428
L20729 14428
L20758 14413
L20772 14399
L20786 14371
L20786 14328
" />
<path d="M20786 14685
L20486 14685
" />
<path d="M20772 14685
L20786 14656
L20786 14599
L20772 14571
L20758 14556
L20729 14542
L20643 14542
L20615 14556
L20600 14571
L20586 14599
L20586 14656
L20600 14685
" />
<path d="M20772 14942
L20786 14913
L20786 14856
L20772 14828
L20743 14813
L20629 14813
L20600 14828
L20586 14856
L20586 14913
L20600 14942
L20629 14956
L20658 14956
L20686 14813
" />
</g>
<g style="fill:#A000A0; fill-opacity:0.0; 
stroke:#A000A0; stroke-width:120; stroke-opacity:1; 
stroke-linecap:round; stroke-linejoin:round;">
<path d="M30558 20163
L29958 20163
" />
<path d="M30558 20792
L30272 20592
" />
<path d="M30558 20449
L29958 20449
L29958 20678
L29986 20735
L30015 20763
L30072 20792
L30158 20792
L30215 20763
L30243 20735
L30272 20678
L30272 20449
" />
</g>
<g style="fill:#A000A0; fill-opacity:0.0; 
stroke:#A000A0; stroke-width:80; stroke-opacity:1; 
stroke-linecap:round; stroke-linejoin:round;">
<path d="M32436 30136
L32603 29874
" />
<path d="M32722 30136
L32722 29586
L32531 29586
L32484 29612
L32460 29638
L32436 29691
L32436 29769
L32460 29822
L32484 29848
L32531 29874
L32722 29874
" />
<path d="M31960 30136
L32246 30136
" />
<path d="M32103 30136
L32103 29586
L32150 29665
L32198 29717
L32246 29743
" />
<path d="M31531 29586
L31627 29586
L31674 29612
L31698 29638
L31746 29717
L31770 29822
L31770 30031
L31746 30084
L31722 30110
L31674 30136
L31579 30136
L31531 30110
L31508 30084
L31484 30031
L31484 29900
L31508 29848
L31531 29822
L31579 29796
L31674 29796
L31722 29822
L31746 29848
L31770 29900
" />
<path d="M32436 28536
L32603 28274
" />
<path d="M32722 28536
L32722 27986
L32531 27986
L32484 28012
L32460 28038
L32436 28091
L32436 28169
L32460 28222
L32484 28248
L32531 28274
L32722 28274
" />
<path d="M31960 28536
L32246 28536
" />
<path d="M32103 28536
L32103 27986
L32150 28065
L32198 28117
L32246 28143
" />
<path d="M31508 27986
L31746 27986
L31770 28248
L31746 28222
L31698 28196
L31579 28196
L31531 28222
L31508 28248
L31484 28300
L31484 28431
L31508 28484
L31531 28510
L31579 28536
L31698 28536
L31746 28510
L31770 28484
" />
<path d="M32436 29336
L32603 29074
" />
<path d="M32722 29336
L32722 28786
L32531 28786
L32484 28812
L32460 28838
L32436 28891
L32436 28969
L32460 29022
L32484 29048
L32531 29074
L32722 29074
" />
<path d="M31960 29336
L32246 29336
" />
<path d="M32103 29336
L32103 28786
L32150 28865
L32198 28917
L32246 28943
" />
<path d="M31793 28786
L31460 28786
L31674 29336
" />
<path d="M45148 20586
L45315 20324
" />
<path d="M45434 20586
L45434 20036
L45243 20036
L45196 20062
L45172 20088
L45148 20141
L45148 20219
L45172 20272
L45196 20298
L45243 20324
L45434 20324
" />
<path d="M44672 20586
L44958 20586
" />
<path d="M44815 20586
L44815 20036
L44862 20115
L44910 20167
L44958 20193
" />
<path d="M45148 28736
L45315 28474
" />
<path d="M45434 28736
L45434 28186
L45243 28186
L45196 28212
L45172 28238
L45148 28291
L45148 28369
L45172 28422
L45196 28448
L45243 28474
L45434 28474
" />
<path d="M44696 28186
L44934 28186
L44958 28448
L44934 28422
L44886 28396
L44767 28396
L44720 28422
L44696 28448
L44672 28500
L44672 28631
L44696 28684
L44720 28710
L44767 28736
L44886 28736
L44934 28710
L44958 28684
" />
<path d="M45148 22736
L45315 22474
" />
<path d="M45434 22736
L45434 22186
L45243 22186
L45196 22212
L45172 22238
L45148 22291
L45148 22369
L45172 22422
L45196 22448
L45243 22474
L45434 22474
" />
<path d="M44981 22186
L44672 22186
L44839 22396
L44767 22396
L44720 22422
L44696 22448
L44672 22500
L44672 22631
L44696 22684
L44720 22710
L44767 22736
L44910 22736
L44958 22710
L44981 22684
" />
<path d="M45148 25736
L45315 25474
" />
<path d="M45434 25736
L45434 25186
L45243 25186
L45196 25212
L45172 25238
L45148 25291
L45148 25369
L45172 25422
L45196 25448
L45243 25474
L45434 25474
" />
<path d="M44720 25369
L44720 25736
" />
<path d="M44839 25160
L44958 25553
L44648 25553
" />
<path d="M23298 11936
L23465 11674
" />
<path d="M23584 11936
L23584 11386
L23393 11386
L23346 11412
L23322 11438
L23298 11491
L23298 11569
L23322 11622
L23346 11648
L23393 11674
L23584 11674
" />
<path d="M23012 11622
L23060 11596
L23084 11569
L23108 11517
L23108 11491
L23084 11438
L23060 11412
L23012 11386
L22917 11386
L22870 11412
L22846 11438
L22822 11491
L22822 11517
L22846 11569
L22870 11596
L22917 11622
L23012 11622
L23060 11648
L23084 11674
L23108 11727
L23108 11831
L23084 11884
L23060 11910
L23012 11936
L22917 11936
L22870 11910
L22846 11884
L22822 11831
L22822 11727
L22846 11674
L22870 11648
L22917 11622
" />
<path d="M23298 12736
L23465 12474
" />
<path d="M23584 12736
L23584 12186
L23393 12186
L23346 12212
L23322 12238
L23298 12291
L23298 12369
L23322 12422
L23346 12448
L23393 12474
L23584 12474
" />
<path d="M23131 12186
L22798 12186
L23012 12736
" />
<path d="M23298 13536
L23465 13274
" />
<path d="M23584 13536
L23584 12986
L23393 12986
L23346 13012
L23322 13038
L23298 13091
L23298 13169
L23322 13222
L23346 13248
L23393 13274
L23584 13274
" />
<path d="M22870 12986
L22965 12986
L23012 13012
L23036 13038
L23084 13117
L23108 13222
L23108 13431
L23084 13484
L23060 13510
L23012 13536
L22917 13536
L22870 13510
L22846 13484
L22822 13431
L22822 13300
L22846 13248
L22870 13222
L22917 13196
L23012 13196
L23060 13222
L23084 13248
L23108 13300
" />
<path d="M40336 20586
L40503 20324
" />
<path d="M40622 20586
L40622 20036
L40431 20036
L40384 20062
L40360 20088
L40336 20141
L40336 20219
L40360 20272
L40384 20298
L40431 20324
L40622 20324
" />
<path d="M39860 20586
L40146 20586
" />
<path d="M40003 20586
L40003 20036
L40050 20115
L40098 20167
L40146 20193
" />
<path d="M39574 20272
L39622 20246
L39646 20219
L39670 20167
L39670 20141
L39646 20088
L39622 20062
L39574 20036
L39479 20036
L39431 20062
L39408 20088
L39384 20141
L39384 20167
L39408 20219
L39431 20246
L39479 20272
L39574 20272
L39622 20298
L39646 20324
L39670 20377
L39670 20481
L39646 20534
L39622 20560
L39574 20586
L39479 20586
L39431 20560
L39408 20534
L39384 20481
L39384 20377
L39408 20324
L39431 20298
L39479 20272
" />
<path d="M16686 11936
L16853 11674
" />
<path d="M16972 11936
L16972 11386
L16781 11386
L16734 11412
L16710 11438
L16686 11491
L16686 11569
L16710 11622
L16734 11648
L16781 11674
L16972 11674
" />
<path d="M16210 11936
L16496 11936
" />
<path d="M16353 11936
L16353 11386
L16400 11465
L16448 11517
L16496 11543
" />
<path d="M15734 11936
L16020 11936
" />
<path d="M15877 11936
L15877 11386
L15924 11465
L15972 11517
L16020 11543
" />
<path d="M16686 12736
L16853 12474
" />
<path d="M16972 12736
L16972 12186
L16781 12186
L16734 12212
L16710 12238
L16686 12291
L16686 12369
L16710 12422
L16734 12448
L16781 12474
L16972 12474
" />
<path d="M16210 12736
L16496 12736
" />
<path d="M16353 12736
L16353 12186
L16400 12265
L16448 12317
L16496 12343
" />
<path d="M15900 12186
L15853 12186
L15805 12212
L15781 12238
L15758 12291
L15734 12396
L15734 12527
L15758 12631
L15781 12684
L15805 12710
L15853 12736
L15900 12736
L15948 12710
L15972 12684
L15996 12631
L16020 12527
L16020 12396
L15996 12291
L15972 12238
L15948 12212
L15900 12186
" />
<path d="M16448 13536
L16615 13274
" />
<path d="M16734 13536
L16734 12986
L16543 12986
L16496 13012
L16472 13038
L16448 13091
L16448 13169
L16472 13222
L16496 13248
L16543 13274
L16734 13274
" />
<path d="M16210 13536
L16115 13536
L16067 13510
L16043 13484
L15996 13405
L15972 13300
L15972 13091
L15996 13038
L16020 13012
L16067 12986
L16162 12986
L16210 13012
L16234 13038
L16258 13091
L16258 13222
L16234 13274
L16210 13300
L16162 13327
L16067 13327
L16020 13300
L15996 13274
L15972 13222
" />
</g>
<g style="fill:#A000A0; fill-opacity:0.0; 
stroke:#A000A0; stroke-width:59.0551; stroke-opacity:1; 
stroke-linecap:round; stroke-linejoin:round;">
<path d="M31008 17369
L31008 17200
L30654 17200
" />
<path d="M31008 17487
L30654 17487
L30654 17571
L30671 17622
L30704 17656
L30738 17672
L30806 17689
L30856 17689
L30924 17672
L30958 17656
L30991 17622
L31008 17571
L31008 17487
" />
<path d="M31008 18044
L30839 17926
" />
<path d="M31008 17841
L30654 17841
L30654 17976
L30671 18010
L30688 18027
L30721 18044
L30772 18044
L30806 18027
L30823 18010
L30839 17976
L30839 17841
" />
</g>
<g style="fill:#A000A0; fill-opacity:0.0; 
stroke:#A000A0; stroke-width:120; stroke-opacity:1; 
stroke-linecap:round; stroke-linejoin:round;">
<path d="M14743 19642
L14772 19728
L14800 19756
L14858 19785
L14943 19785
L15000 19756
L15029 19728
L15058 19671
L15058 19442
L14458 19442
L14458 19642
L14486 19699
L14515 19728
L14572 19756
L14629 19756
L14686 19728
L14715 19699
L14743 19642
L14743 19442
" />
<path d="M14458 19956
L14458 20299
" />
<path d="M15058 20128
L14458 20128
" />
<path d="M14515 20471
L14486 20499
L14458 20556
L14458 20699
L14486 20756
L14515 20785
L14572 20813
L14629 20813
L14715 20785
L15058 20442
L15058 20813
" />
<path d="M15058 22049
L14458 22049
" />
<path d="M14743 22049
L14743 22392
" />
<path d="M15058 22392
L14458 22392
" />
<path d="M15000 23021
L15029 22992
L15058 22906
L15058 22849
L15029 22763
L14972 22706
L14915 22678
L14800 22649
L14715 22649
L14600 22678
L14543 22706
L14486 22763
L14458 22849
L14458 22906
L14486 22992
L14515 23021
" />
<path d="M14829 23278
L14829 23735
" />
<path d="M14458 24135
L14458 24192
L14486 24249
L14515 24278
L14572 24306
L14686 24335
L14829 24335
L14943 24306
L15000 24278
L15029 24249
L15058 24192
L15058 24135
L15029 24078
L15000 24049
L14943 24021
L14829 23992
L14686 23992
L14572 24021
L14515 24049
L14486 24078
L14458 24135
" />
<path d="M14458 24878
L14458 24592
L14743 24563
L14715 24592
L14686 24649
L14686 24792
L14715 24849
L14743 24878
L14800 24906
L14943 24906
L15000 24878
L15029 24849
L15058 24792
L15058 24649
L15029 24592
L15000 24563
" />
<path d="M21593 19642
L21622 19728
L21650 19756
L21708 19785
L21793 19785
L21850 19756
L21879 19728
L21908 19671
L21908 19442
L21308 19442
L21308 19642
L21336 19699
L21365 19728
L21422 19756
L21479 19756
L21536 19728
L21565 19699
L21593 19642
L21593 19442
" />
<path d="M21308 19956
L21308 20299
" />
<path d="M21908 20128
L21308 20128
" />
<path d="M21908 20813
L21908 20471
" />
<path d="M21908 20642
L21308 20642
L21393 20585
L21450 20528
L21479 20471
" />
<path d="M21908 22049
L21308 22049
" />
<path d="M21593 22049
L21593 22392
" />
<path d="M21908 22392
L21308 22392
" />
<path d="M21850 23021
L21879 22992
L21908 22906
L21908 22849
L21879 22763
L21822 22706
L21765 22678
L21650 22649
L21565 22649
L21450 22678
L21393 22706
L21336 22763
L21308 22849
L21308 22906
L21336 22992
L21365 23021
" />
<path d="M21679 23278
L21679 23735
" />
<path d="M21308 24135
L21308 24192
L21336 24249
L21365 24278
L21422 24306
L21536 24335
L21679 24335
L21793 24306
L21850 24278
L21879 24249
L21908 24192
L21908 24135
L21879 24078
L21850 24049
L21793 24021
L21679 23992
L21536 23992
L21422 24021
L21365 24049
L21336 24078
L21308 24135
" />
<path d="M21308 24878
L21308 24592
L21593 24563
L21565 24592
L21536 24649
L21536 24792
L21565 24849
L21593 24878
L21650 24906
L21793 24906
L21850 24878
L21879 24849
L21908 24792
L21908 24649
L21879 24592
L21850 24563
" />
<path d="M42029 14156
L42058 14242
L42058 14385
L42029 14442
L42000 14471
L41943 14499
L41886 14499
L41829 14471
L41800 14442
L41772 14385
L41743 14271
L41715 14213
L41686 14185
L41629 14156
L41572 14156
L41515 14185
L41486 14213
L41458 14271
L41458 14413
L41486 14499
" />
<path d="M42058 14842
L42029 14785
L42000 14756
L41943 14728
L41772 14728
L41715 14756
L41686 14785
L41658 14842
L41658 14928
L41686 14985
L41715 15013
L41772 15042
L41943 15042
L42000 15013
L42029 14985
L42058 14928
L42058 14842
" />
<path d="M41658 15556
L42058 15556
" />
<path d="M41658 15299
L41972 15299
L42029 15328
L42058 15385
L42058 15471
L42029 15528
L42000 15556
" />
<path d="M41658 15842
L42058 15842
" />
<path d="M41715 15842
L41686 15871
L41658 15928
L41658 16013
L41686 16071
L41743 16099
L42058 16099
" />
<path d="M42058 16642
L41458 16642
" />
<path d="M42029 16642
L42058 16585
L42058 16471
L42029 16413
L42000 16385
L41943 16356
L41772 16356
L41715 16385
L41686 16413
L41658 16471
L41658 16585
L41686 16642
" />
</g>
<g style="fill:#A000A0; fill-opacity:0.0; 
stroke:#A000A0; stroke-width:59.0551; stroke-opacity:1; 
stroke-linecap:round; stroke-linejoin:round;">
<path d="M37073 23990
L37089 24041
L37106 24058
L37140 24075
L37191 24075
L37224 24058
L37241 24041
L37258 24007
L37258 23872
L36904 23872
L36904 23990
L36921 24024
L36938 24041
L36971 24058
L37005 24058
L37039 24041
L37056 24024
L37073 23990
L37073 23872
" />
<path d="M37258 24226
L36904 24226
" />
<path d="M37073 24226
L37073 24429
" />
<path d="M37258 24429
L36904 24429
" />
<path d="M37258 24783
L37258 24581
" />
<path d="M37258 24682
L36904 24682
L36954 24648
L36988 24614
L37005 24581
" />
<path d="M36904 24901
L36904 25138
L37258 24986
" />
<path d="M36904 25441
L36904 25272
L37073 25256
L37056 25272
L37039 25306
L37039 25391
L37056 25424
L37073 25441
L37106 25458
L37191 25458
L37224 25441
L37241 25424
L37258 25391
L37258 25306
L37241 25272
L37224 25256
" />
<path d="M36904 25677
L36904 25711
L36921 25745
L36938 25762
L36971 25779
L37039 25796
L37123 25796
L37191 25779
L37224 25762
L37241 25745
L37258 25711
L37258 25677
L37241 25644
L37224 25627
L37191 25610
L37123 25593
L37039 25593
L36971 25610
L36938 25627
L36921 25644
L36904 25677
" />
<path d="M37073 26066
L37073 25947
" />
<path d="M37258 25947
L36904 25947
L36904 26116
" />
<path d="M36904 26201
L37258 26319
L36904 26437
" />
<path d="M37258 26555
L36904 26555
" />
</g>
<g style="fill:#A000A0; fill-opacity:1.0; 
stroke:#A000A0; stroke-width:1; stroke-opacity:1; 
stroke-linecap:round; stroke-linejoin:round;">
<polyline style="fill-rule:evenodd;"
points="43852,12155
43910,12157
43985,12189
43994,12194
44130,12289
44247,12414
44335,12556
44385,12698
44387,12825
44382,12846
44370,12892
44388,12900
44447,12872
44460,12866
44624,12818
44813,12830
44930,12862
44996,12883
45055,12892
45125,12887
45220,12867
45358,12831
45419,12814
45656,12754
45939,12693
46246,12635
46557,12584
46693,12564
46833,12548
47020,12530
47241,12511
47479,12493
47718,12477
47944,12463
48141,12452
48294,12447
48339,12446
48632,12446
48632,12557
48632,12668
47940,12707
47703,12721
47461,12738
47233,12755
47035,12772
46889,12786
46530,12827
46534,12886
46281,12886
46247,12887
46166,12899
46057,12917
45939,12939
45829,12962
45746,12980
45708,12992
45708,12993
45726,13017
45784,13070
45812,13093
45382,13093
45318,13096
45220,13125
45158,13180
45113,13278
45103,13310
45051,13419
44969,13518
44878,13588
44797,13613
44761,13617
44758,13641
44791,13699
44808,13726
44882,13839
44942,13702
44993,13601
45045,13519
45059,13502
45176,13410
45331,13342
45495,13309
45523,13308
45679,13304
45547,13191
45455,13121
45382,13093
45812,13093
45856,13128
45965,13222
46068,13326
46115,13381
46177,13456
46222,13503
46235,13512
46273,13484
46300,13403
46313,13282
46309,13133
46309,13130
46298,13013
46289,12926
46281,12887
46281,12886
46534,12886
46552,13113
46561,13260
46559,13363
46544,13441
46514,13516
46503,13538
46498,13546
45550,13546
45401,13574
45279,13649
45193,13759
45152,13889
45167,14029
45176,14055
45260,14186
45372,14268
45500,14305
45631,14299
45753,14251
45851,14165
45915,14042
45932,13923
45922,13823
45885,13744
45814,13664
45728,13589
45650,13555
45550,13546
46498,13546
46432,13676
46721,13764
47009,13852
47296,13566
47411,13455
47513,13365
47590,13303
47632,13280
47684,13290
47783,13314
47913,13350
48007,13377
48332,13473
48332,13361
48352,13266
48404,13206
48471,13192
48519,13216
48546,13260
48559,13341
48559,13473
48558,13493
48550,13619
48537,13693
48515,13729
48486,13741
48431,13737
48327,13716
48190,13683
48058,13646
47691,13539
47478,13750
47384,13845
47312,13922
47271,13970
47266,13979
47293,14003
47365,14051
47468,14116
47519,14146
47727,14291
47948,14484
48053,14588
48162,14700
48254,14793
48318,14855
48347,14880
48362,14852
48371,14805
48404,14742
48471,14720
48549,14734
48587,14799
48587,14918
48580,14963
48528,15072
48434,15151
48320,15180
48280,15157
48205,15093
48104,14999
47987,14881
47943,14836
47628,14538
47305,14301
46963,14116
46608,13983
46463,13938
46340,13900
46253,13872
46222,13861
46190,13869
46174,13928
46171,13980
46140,14149
46057,14297
45951,14407
45794,14503
45617,14545
45433,14537
45257,14482
45103,14381
44987,14238
44970,14208
44899,14063
44899,14198
44887,14327
44844,14407
44761,14447
44626,14455
44601,14455
44409,14432
44252,14384
44140,14316
44100,14265
44058,14187
43933,14312
43811,14406
43661,14485
43509,14535
43414,14546
43339,14523
43279,14476
43238,14393
43217,14269
43215,14127
43232,13990
43268,13881
43278,13864
43316,13803
43315,13784
43273,13794
43267,13796
43154,13799
43024,13749
42893,13651
42833,13590
42722,13438
42675,13304
42692,13189
42734,13127
42853,13032
43006,12953
43167,12900
43310,12885
43318,12885
43462,12897
43443,12757
43447,12623
43500,12492
43609,12354
43699,12266
43788,12190
43852,12155
43852,12155
" /> 
</g>
<g style="fill:#A000A0; fill-opacity:1.0; 
stroke:#A000A0; stroke-width:100; stroke-opacity:1; 
stroke-linecap:round; stroke-linejoin:round;">
<path d="M27715 12883
L26715 12883
" />
</g>
<g style="fill:#A000A0; fill-opacity:0.0; 
stroke:#A000A0; stroke-width:60; stroke-opacity:1; 
stroke-linecap:round; stroke-linejoin:round;">
<path d="M27215.2 11663.9 A600 600 0.0 0 0 26831.2 11803 " />
<path d="M27613.1 11815.8 A599.256 599.256 0.0 0 0 27215.2 11664.7 " />
<path d="M26825.3 12718.9 A599.27 599.27 0.0 0 0 27215.2 12863.2 " />
<path d="M27215.2 12863.9 A600 600 0.0 0 0 27599.3 12724.9 " />
<path d="M26615.2 12263.9 A600 600 0.0 0 0 26866 12751.8 " />
<path d="M26855 11784.1 A600 600 0.0 0 0 26615.2 12263.9 " />
<path d="M27583.4 12736.8 A599.294 599.294 0.0 0 0 27814.5 12263.9 " />
<path d="M27815.2 12263.9 A600 600 0.0 0 0 27583.8 11790.5 " />
<path d="M27215.2 12013.9 A250 250 0.0 0 0 26965.2 12263.9 " />
<path d="M27215.2 11863.9 A400 400 0.0 0 0 26815.2 12263.9 " />
<path d="M27215.2 12513.9 A250 250 0.0 0 0 27465.2 12263.9 " />
<path d="M27215.2 12663.9 A400 400 0.0 0 0 27615.2 12263.9 " />
</g>
<g style="fill:#A000A0; fill-opacity:0.0; 
stroke:#A000A0; stroke-width:100; stroke-opacity:1; 
stroke-linecap:round; stroke-linejoin:round;">
<path d="M26415.2 12263.9 A800 800 0.0 0 0 26702.1 12877.7 " />
<path d="M26838.9 11559.1 A799 799 0.0 0 0 26416.2 12263.9 " />
<path d="M27731 12874.2 A798.972 798.972 0.0 0 0 28014.2 12265.3 " />
<path d="M28015.2 12263.9 A800 800 0.0 0 0 27612.8 11569.7 " />
<path d="M27215.2 11463.9 A800 800 0.0 0 0 26836 11559.6 " />
<path d="M27634.2 11582.9 A799.576 799.576 0.0 0 0 27215.2 11464.4 " />
<path d="M20965 12883
L19965 12883
" />
</g>
<g style="fill:#A000A0; fill-opacity:0.0; 
stroke:#A000A0; stroke-width:60; stroke-opacity:1; 
stroke-linecap:round; stroke-linejoin:round;">
<path d="M20465.2 11663.9 A600 600 0.0 0 0 20081.2 11803 " />
<path d="M20863.1 11815.8 A599.256 599.256 0.0 0 0 20465.2 11664.7 " />
<path d="M20075.3 12718.9 A599.27 599.27 0.0 0 0 20465.2 12863.2 " />
<path d="M20465.2 12863.9 A600 600 0.0 0 0 20849.3 12724.9 " />
<path d="M19865.2 12263.9 A600 600 0.0 0 0 20116 12751.8 " />
<path d="M20105 11784.1 A600 600 0.0 0 0 19865.2 12263.9 " />
<path d="M20833.4 12736.8 A599.294 599.294 0.0 0 0 21064.5 12263.9 " />
<path d="M21065.2 12263.9 A600 600 0.0 0 0 20833.8 11790.5 " />
<path d="M20465.2 12013.9 A250 250 0.0 0 0 20215.2 12263.9 " />
<path d="M20465.2 11863.9 A400 400 0.0 0 0 20065.2 12263.9 " />
<path d="M20465.2 12513.9 A250 250 0.0 0 0 20715.2 12263.9 " />
<path d="M20465.2 12663.9 A400 400 0.0 0 0 20865.2 12263.9 " />
</g>
<g style="fill:#A000A0; fill-opacity:0.0; 
stroke:#A000A0; stroke-width:100; stroke-opacity:1; 
stroke-linecap:round; stroke-linejoin:round;">
<path d="M19665.2 12263.9 A800 800 0.0 0 0 19952.1 12877.7 " />
<path d="M20088.9 11559.1 A799 799 0.0 0 0 19666.2 12263.9 " />
<path d="M20981 12874.2 A798.972 798.972 0.0 0 0 21264.2 12265.3 " />
<path d="M21265.2 12263.9 A800 800 0.0 0 0 20862.8 11569.7 " />
<path d="M20465.2 11463.9 A800 800 0.0 0 0 20086 11559.6 " />
<path d="M20884.2 11582.9 A799.576 799.576 0.0 0 0 20465.2 11464.4 " />
<path d="M26115 12883
L25115 12883
" />
</g>
<g style="fill:#A000A0; fill-opacity:0.0; 
stroke:#A000A0; stroke-width:60; stroke-opacity:1; 
stroke-linecap:round; stroke-linejoin:round;">
<path d="M25615.2 11663.9 A600 600 0.0 0 0 25231.2 11803 " />
<path d="M26013.1 11815.8 A599.256 599.256 0.0 0 0 25615.2 11664.7 " />
<path d="M25225.3 12718.9 A599.27 599.27 0.0 0 0 25615.2 12863.2 " />
<path d="M25615.2 12863.9 A600 600 0.0 0 0 25999.3 12724.9 " />
<path d="M25015.2 12263.9 A600 600 0.0 0 0 25266 12751.8 " />
<path d="M25255 11784.1 A600 600 0.0 0 0 25015.2 12263.9 " />
<path d="M25983.4 12736.8 A599.294 599.294 0.0 0 0 26214.5 12263.9 " />
<path d="M26215.2 12263.9 A600 600 0.0 0 0 25983.8 11790.5 " />
<path d="M25615.2 12013.9 A250 250 0.0 0 0 25365.2 12263.9 " />
<path d="M25615.2 11863.9 A400 400 0.0 0 0 25215.2 12263.9 " />
<path d="M25615.2 12513.9 A250 250 0.0 0 0 25865.2 12263.9 " />
<path d="M25615.2 12663.9 A400 400 0.0 0 0 26015.2 12263.9 " />
</g>
<g style="fill:#A000A0; fill-opacity:0.0; 
stroke:#A000A0; stroke-width:100; stroke-opacity:1; 
stroke-linecap:round; stroke-linejoin:round;">
<path d="M24815.2 12263.9 A800 800 0.0 0 0 25102.1 12877.7 " />
<path d="M25238.9 11559.1 A799 799 0.0 0 0 24816.2 12263.9 " />
<path d="M26131 12874.2 A798.972 798.972 0.0 0 0 26414.2 12265.3 " />
<path d="M26415.2 12263.9 A800 800 0.0 0 0 26012.8 11569.7 " />
<path d="M25615.2 11463.9 A800 800 0.0 0 0 25236 11559.6 " />
<path d="M26034.2 11582.9 A799.576 799.576 0.0 0 0 25615.2 11464.4 " />
<path d="M19365 12883
L18365 12883
" />
</g>
<g style="fill:#A000A0; fill-opacity:0.0; 
stroke:#A000A0; stroke-width:60; stroke-opacity:1; 
stroke-linecap:round; stroke-linejoin:round;">
<path d="M18865.2 11663.9 A600 600 0.0 0 0 18481.2 11803 " />
<path d="M19263.1 11815.8 A599.256 599.256 0.0 0 0 18865.2 11664.7 " />
<path d="M18475.3 12718.9 A599.27 599.27 0.0 0 0 18865.2 12863.2 " />
<path d="M18865.2 12863.9 A600 600 0.0 0 0 19249.3 12724.9 " />
<path d="M18265.2 12263.9 A600 600 0.0 0 0 18516 12751.8 " />
<path d="M18505 11784.1 A600 600 0.0 0 0 18265.2 12263.9 " />
<path d="M19233.4 12736.8 A599.294 599.294 0.0 0 0 19464.5 12263.9 " />
<path d="M19465.2 12263.9 A600 600 0.0 0 0 19233.8 11790.5 " />
<path d="M18865.2 12013.9 A250 250 0.0 0 0 18615.2 12263.9 " />
<path d="M18865.2 11863.9 A400 400 0.0 0 0 18465.2 12263.9 " />
<path d="M18865.2 12513.9 A250 250 0.0 0 0 19115.2 12263.9 " />
<path d="M18865.2 12663.9 A400 400 0.0 0 0 19265.2 12263.9 " />
</g>
<g style="fill:#A000A0; fill-opacity:0.0; 
stroke:#A000A0; stroke-width:100; stroke-opacity:1; 
stroke-linecap:round; stroke-linejoin:round;">
<path d="M18065.2 12263.9 A800 800 0.0 0 0 18352.1 12877.7 " />
<path d="M18488.9 11559.1 A799 799 0.0 0 0 18066.2 12263.9 " />
<path d="M19381 12874.2 A798.972 798.972 0.0 0 0 19664.2 12265.3 " />
<path d="M19665.2 12263.9 A800 800 0.0 0 0 19262.8 11569.7 " />
<path d="M18865.2 11463.9 A800 800 0.0 0 0 18486 11559.6 " />
<path d="M19284.2 11582.9 A799.576 799.576 0.0 0 0 18865.2 11464.4 " />
</g>
<g style="fill:#A000A0; fill-opacity:0.0; 
stroke:#A000A0; stroke-width:150; stroke-opacity:1; 
stroke-linecap:round; stroke-linejoin:round;">
<path d="M31721 20463
L32508 20463
" />
<path d="M32115 20070
L32115 20857
" />
<path d="M32115 21448
L35658 21448
" />
<path d="M32115 19479
L35658 19479
" />
<path d="M32115.2 19479.7 A984.252 984.252 0.0 0 0 31131 20463.9 " />
<path d="M31131 20463.9 A984.252 984.252 0.0 0 0 32115.2 21448.2 " />
<path d="M35658 18495
L30737 18495
" />
<path d="M30737 18495
L30737 22432
" />
<path d="M30737 22432
L35658 22432
" />
<path d="M35658 22432
L35658 18495
" />
<circle cx="13399.5" cy="12198.2" r="984.252" /> 
<circle cx="13399.5" cy="29914.7" r="984.252" /> 
<circle cx="50801.1" cy="12198.2" r="984.252" /> 
<circle cx="50801.1" cy="29914.7" r="984.252" /> 
</g>
<g style="fill:#A000A0; fill-opacity:0.0; 
stroke:#A000A0; stroke-width:80; stroke-opacity:1; 
stroke-linecap:round; stroke-linejoin:round;">
<path d="M30615 29963
L30815 29963
" />
<path d="M33615 29963
L33415 29963
" />
<path d="M33415 29963
L33415 30363
" />
<path d="M33415 30363
L30815 30363
" />
<path d="M30815 30363
L30815 29563
" />
<path d="M30815 29563
L33415 29563
" />
<path d="M33415 29563
L33415 29963
" />
<path d="M30815 30163
L31015 30363
" />
<path d="M30615 28363
L30815 28363
" />
<path d="M33615 28363
L33415 28363
" />
<path d="M33415 28363
L33415 28763
" />
<path d="M33415 28763
L30815 28763
" />
<path d="M30815 28763
L30815 27963
" />
<path d="M30815 27963
L33415 27963
" />
<path d="M33415 27963
L33415 28363
" />
<path d="M30815 28563
L31015 28763
" />
<path d="M30615 29163
L30815 29163
" />
<path d="M33615 29163
L33415 29163
" />
<path d="M33415 29163
L33415 29563
" />
<path d="M33415 29563
L30815 29563
" />
<path d="M30815 29563
L30815 28763
" />
<path d="M30815 28763
L33415 28763
" />
<path d="M33415 28763
L33415 29163
" />
<path d="M30815 29363
L31015 29563
" />
<path d="M43565 20413
L43765 20413
" />
<path d="M46565 20413
L46365 20413
" />
<path d="M46365 20413
L46365 20813
" />
<path d="M46365 20813
L43765 20813
" />
<path d="M43765 20813
L43765 20013
" />
<path d="M43765 20013
L46365 20013
" />
<path d="M46365 20013
L46365 20413
" />
<path d="M43765 20613
L43965 20813
" />
<path d="M46565 28463
L46365 28463
" />
<path d="M43565 28463
L43765 28463
" />
<path d="M43765 28463
L43765 28063
" />
<path d="M43765 28063
L46365 28063
" />
<path d="M46365 28063
L46365 28863
" />
<path d="M46365 28863
L43765 28863
" />
<path d="M43765 28863
L43765 28463
" />
<path d="M46365 28263
L46165 28063
" />
<path d="M46565 22463
L46365 22463
" />
<path d="M43565 22463
L43765 22463
" />
<path d="M43765 22463
L43765 22063
" />
<path d="M43765 22063
L46365 22063
" />
<path d="M46365 22063
L46365 22863
" />
<path d="M46365 22863
L43765 22863
" />
<path d="M43765 22863
L43765 22463
" />
<path d="M46365 22263
L46165 22063
" />
<path d="M46565 25463
L46365 25463
" />
<path d="M43565 25463
L43765 25463
" />
<path d="M43765 25463
L43765 25063
" />
<path d="M43765 25063
L46365 25063
" />
<path d="M46365 25063
L46365 25863
" />
<path d="M46365 25863
L43765 25863
" />
<path d="M43765 25863
L43765 25463
" />
<path d="M46365 25263
L46165 25063
" />
<path d="M21715 11763
L21915 11763
" />
<path d="M24715 11763
L24515 11763
" />
<path d="M24515 11763
L24515 12163
" />
<path d="M24515 12163
L21915 12163
" />
<path d="M21915 12163
L21915 11363
" />
<path d="M21915 11363
L24515 11363
" />
<path d="M24515 11363
L24515 11763
" />
<path d="M21915 11963
L22115 12163
" />
<path d="M21715 12563
L21915 12563
" />
<path d="M24715 12563
L24515 12563
" />
<path d="M24515 12563
L24515 12963
" />
<path d="M24515 12963
L21915 12963
" />
<path d="M21915 12963
L21915 12163
" />
<path d="M21915 12163
L24515 12163
" />
<path d="M24515 12163
L24515 12563
" />
<path d="M21915 12763
L22115 12963
" />
<path d="M21715 13363
L21915 13363
" />
<path d="M24715 13363
L24515 13363
" />
<path d="M24515 13363
L24515 13763
" />
<path d="M24515 13763
L21915 13763
" />
<path d="M21915 13763
L21915 12963
" />
<path d="M21915 12963
L24515 12963
" />
<path d="M24515 12963
L24515 13363
" />
<path d="M21915 13563
L22115 13763
" />
<path d="M38515 20413
L38715 20413
" />
<path d="M41515 20413
L41315 20413
" />
<path d="M41315 20413
L41315 20813
" />
<path d="M41315 20813
L38715 20813
" />
<path d="M38715 20813
L38715 20013
" />
<path d="M38715 20013
L41315 20013
" />
<path d="M41315 20013
L41315 20413
" />
<path d="M38715 20613
L38915 20813
" />
<path d="M14865 11763
L15065 11763
" />
<path d="M17865 11763
L17665 11763
" />
<path d="M17665 11763
L17665 12163
" />
<path d="M17665 12163
L15065 12163
" />
<path d="M15065 12163
L15065 11363
" />
<path d="M15065 11363
L17665 11363
" />
<path d="M17665 11363
L17665 11763
" />
<path d="M15065 11963
L15265 12163
" />
<path d="M14865 12563
L15065 12563
" />
<path d="M17865 12563
L17665 12563
" />
<path d="M17665 12563
L17665 12963
" />
<path d="M17665 12963
L15065 12963
" />
<path d="M15065 12963
L15065 12163
" />
<path d="M15065 12163
L17665 12163
" />
<path d="M17665 12163
L17665 12563
" />
<path d="M15065 12763
L15265 12963
" />
<path d="M14865 13363
L15065 13363
" />
<path d="M17865 13363
L17665 13363
" />
<path d="M17665 13363
L17665 13763
" />
<path d="M17665 13763
L15065 13763
" />
<path d="M15065 13763
L15065 12963
" />
<path d="M15065 12963
L17665 12963
" />
<path d="M17665 12963
L17665 13363
" />
<path d="M15065 13563
L15265 13763
" />
</g>
<g style="fill:#A000A0; fill-opacity:0.0; 
stroke:#A000A0; stroke-width:150; stroke-opacity:1; 
stroke-linecap:round; stroke-linejoin:round;">
<path d="M32372 18480
L32057 18480
" />
<path d="M32372 16747
L32057 16747
" />
<path d="M31191.6 17613.9 A866.142 866.142 0.0 0 0 32057.8 18480.1 " />
<path d="M32372.7 18480.1 A866.142 866.142 0.0 0 0 33238.9 17613.9 " />
<path d="M32057.8 16747.8 A866.142 866.142 0.0 0 0 31191.6 17613.9 " />
<path d="M33238.9 17613.9 A866.142 866.142 0.0 0 0 32372.7 16747.8 " />
<path d="M20374 13902
L20374 24925
" />
<path d="M20374 24925
L15256 24925
" />
<path d="M15256 24925
L15256 13902
" />
<path d="M15256 13902
L20374 13902
" />
<path d="M27224 13902
L27224 24925
" />
<path d="M27224 24925
L22106 24925
" />
<path d="M22106 24925
L22106 13902
" />
<path d="M22106 13902
L27224 13902
" />
<circle cx="32160.1" cy="13963.9" r="1693.37" /> 
<path d="M41215 11208
L29404 11208
" />
<path d="M29404 16719
L41215 16719
" />
<path d="M29404 12782
L29404 11208
" />
<path d="M29404 15145
L29404 16719
" />
<path d="M29404.2 12782.8 A1181.1 1181.1 0.0 0 0 28223.1 13963.9 " />
<path d="M28223.1 13963.9 A1181.1 1181.1 0.0 0 0 29404.2 15145 " />
<path d="M41215 11208
L41215 16719
" />
<path d="M29365 22463
L36665 22463
" />
<path d="M36665 22463
L36665 27963
" />
<path d="M36665 27963
L29365 27963
" />
<path d="M29365 27963
L29365 22463
" />
</g>
<g style="fill:#808000; fill-opacity:0.0; 
stroke:#808000; stroke-width:314.961; stroke-opacity:1; 
stroke-linecap:round; stroke-linejoin:round;">
</g>
<g style="fill:#808000; fill-opacity:1.0; 
stroke:#808000; stroke-width:314.961; stroke-opacity:1; 
stroke-linecap:round; stroke-linejoin:round;">
<circle cx="27215.2" cy="11663.9" r="172.52" /> 
<circle cx="27215.2" cy="12663.9" r="172.52" /> 
<circle cx="20465.2" cy="11663.9" r="172.52" /> 
<circle cx="20465.2" cy="12663.9" r="172.52" /> 
<circle cx="25615.2" cy="11663.9" r="172.52" /> 
<circle cx="25615.2" cy="12663.9" r="172.52" /> 
<circle cx="18865.2" cy="11663.9" r="172.52" /> 
<circle cx="18865.2" cy="12663.9" r="172.52" /> 
<circle cx="36158.6" cy="18963.9" r="138.02" /> 
<circle cx="36158.6" cy="19963.9" r="138.02" /> 
<circle cx="36158.6" cy="21963.9" r="138.02" /> 
<circle cx="13399.5" cy="12198.2" r="435.039" /> 
<circle cx="13399.5" cy="29914.7" r="435.039" /> 
<circle cx="50801.1" cy="12198.2" r="435.039" /> 
<circle cx="50801.1" cy="29914.7" r="435.039" /> 
<circle cx="30615.2" cy="29963.9" r="117.52" /> 
<circle cx="33615.2" cy="29963.9" r="117.52" /> 
<circle cx="30615.2" cy="28363.9" r="117.52" /> 
<circle cx="33615.2" cy="28363.9" r="117.52" /> 
<circle cx="30615.2" cy="29163.9" r="117.52" /> 
<circle cx="33615.2" cy="29163.9" r="117.52" /> 
<circle cx="43565.2" cy="20413.9" r="117.52" /> 
<circle cx="46565.2" cy="20413.9" r="117.52" /> 
<circle cx="46565.2" cy="28463.9" r="117.52" /> 
<circle cx="43565.2" cy="28463.9" r="117.52" /> 
<circle cx="46565.2" cy="22463.9" r="117.52" /> 
<circle cx="43565.2" cy="22463.9" r="117.52" /> 
<circle cx="46565.2" cy="25463.9" r="117.52" /> 
<circle cx="43565.2" cy="25463.9" r="117.52" /> 
<circle cx="21715.2" cy="11763.9" r="117.52" /> 
<circle cx="24715.2" cy="11763.9" r="117.52" /> 
<circle cx="21715.2" cy="12563.9" r="117.52" /> 
<circle cx="24715.2" cy="12563.9" r="117.52" /> 
<circle cx="21715.2" cy="13363.9" r="117.52" /> 
<circle cx="24715.2" cy="13363.9" r="117.52" /> 
<circle cx="38515.2" cy="20413.9" r="117.52" /> 
<circle cx="41515.2" cy="20413.9" r="117.52" /> 
<circle cx="14865.2" cy="11763.9" r="117.52" /> 
<circle cx="17865.2" cy="11763.9" r="117.52" /> 
<circle cx="14865.2" cy="12563.9" r="117.52" /> 
<circle cx="17865.2" cy="12563.9" r="117.52" /> 
<circle cx="14865.2" cy="13363.9" r="117.52" /> 
<circle cx="17865.2" cy="13363.9" r="117.52" /> 
<circle cx="32884.5" cy="17613.9" r="59.0551" /> 
<circle cx="31546" cy="17613.9" r="59.0551" /> 
<circle cx="29404.2" cy="13963.9" r="649.606" /> 
<circle cx="36215.2" cy="13963.9" r="138.02" /> 
<circle cx="36215.2" cy="12963.9" r="138.02" /> 
<circle cx="36215.2" cy="14963.9" r="138.02" /> 
<circle cx="36115.2" cy="23213.9" r="137.795" /> 
<circle cx="36115.2" cy="24213.9" r="137.795" /> 
<circle cx="36115.2" cy="25213.9" r="137.795" /> 
<circle cx="36115.2" cy="26213.9" r="137.795" /> 
<circle cx="36115.2" cy="27213.9" r="137.795" /> 
<circle cx="30365.2" cy="23463.9" r="433.071" /> 
<circle cx="30365.2" cy="26963.9" r="433.071" /> 
</g> 
</svg>
