<?xml version="1.0" standalone="no"?>
 <!DOCTYPE svg PUBLIC "-//W3C//DTD SVG 1.1//EN" 
 "http://www.w3.org/Graphics/SVG/1.1/DTD/svg11.dtd"> 
<svg xmlns="http://www.w3.org/2000/svg" version="1.1" 
    width="41.9989cm" height="29.7002cm" viewBox="0 0 165350 116930 ">
<title>SVG Picture created as woerdclock-B_SilkS.svg date 2014/11/23 21:36:26 </title>
  <desc>Picture generated by PCBNEW </desc>
<g style="fill:#000000; fill-opacity:1;stroke:#000000; stroke-opacity:1;
stroke-linecap:round; stroke-linejoin:round; "
 transform="translate(0 0) scale(1 1)">
</g>
<g style="fill:#000000; fill-opacity:0.0; 
stroke:#000000; stroke-width:39.3701; stroke-opacity:1; 
stroke-linecap:round; stroke-linejoin:round;">
<path d="M17050 11950
L16850 11750
" />
<path d="M17950 11950
L17050 11950
" />
<path d="M18250 12250
L17950 11950
" />
<path d="M23550 11950
L23400 11800
" />
<path d="M25450 12300
L24950 11800
" />
<path d="M18700 12200
L18300 11800
" />
<path d="M18700 12550
L18700 12200
" />
<path d="M18250 12550
L18250 12250
" />
<path d="M25450 12550
L25450 12300
" />
<path d="M24750 11950
L23550 11950
" />
<path d="M25100 12300
L24750 11950
" />
<path d="M25100 12600
L25100 12300
" />
</g>
<g style="fill:#000000; fill-opacity:0.0; 
stroke:#000000; stroke-width:59.0551; stroke-opacity:1; 
stroke-linecap:round; stroke-linejoin:round;">
<path d="M46943 12184
L46589 12184
" />
<path d="M46943 12336
L46757 12336
L46724 12319
L46707 12285
L46707 12234
L46724 12201
L46740 12184
" />
<path d="M46707 12454
L46707 12589
" />
<path d="M46589 12504
L46892 12504
L46926 12521
L46943 12555
L46943 12589
" />
<path d="M46707 12656
L46707 12791
" />
<path d="M46589 12707
L46892 12707
L46926 12724
L46943 12758
L46943 12791
" />
<path d="M46707 12909
L47061 12909
" />
<path d="M46724 12909
L46707 12943
L46707 13011
L46724 13044
L46740 13061
L46774 13078
L46875 13078
L46909 13061
L46926 13044
L46943 13011
L46943 12943
L46926 12909
" />
<path d="M46909 13230
L46926 13247
L46943 13230
L46926 13213
L46909 13230
L46943 13230
" />
<path d="M46724 13230
L46740 13247
L46757 13230
L46740 13213
L46724 13230
L46757 13230
" />
<path d="M46572 13652
L47027 13348
" />
<path d="M46572 14023
L47027 13719
" />
<path d="M46926 14124
L46943 14158
L46943 14225
L46926 14259
L46892 14276
L46875 14276
L46842 14259
L46825 14225
L46825 14175
L46808 14141
L46774 14124
L46757 14124
L46724 14141
L46707 14175
L46707 14225
L46724 14259
" />
<path d="M46926 14563
L46943 14529
L46943 14462
L46926 14428
L46892 14411
L46757 14411
L46724 14428
L46707 14462
L46707 14529
L46724 14563
L46757 14580
L46791 14580
L46825 14411
" />
<path d="M46943 14732
L46589 14732
" />
<path d="M46724 14732
L46707 14765
L46707 14833
L46724 14867
L46740 14884
L46774 14900
L46875 14900
L46909 14884
L46926 14867
L46943 14833
L46943 14765
L46926 14732
" />
<path d="M46943 15204
L46757 15204
L46724 15187
L46707 15153
L46707 15086
L46724 15052
" />
<path d="M46926 15204
L46943 15170
L46943 15086
L46926 15052
L46892 15035
L46859 15035
L46825 15052
L46808 15086
L46808 15170
L46791 15204
" />
<path d="M46926 15356
L46943 15390
L46943 15457
L46926 15491
L46892 15508
L46875 15508
L46842 15491
L46825 15457
L46825 15407
L46808 15373
L46774 15356
L46757 15356
L46724 15373
L46707 15407
L46707 15457
L46724 15491
" />
<path d="M46707 15609
L46707 15744
" />
<path d="M46589 15660
L46892 15660
L46926 15677
L46943 15710
L46943 15744
" />
<path d="M46943 15862
L46707 15862
" />
<path d="M46589 15862
L46605 15845
L46622 15862
L46605 15879
L46589 15862
L46622 15862
" />
<path d="M46943 16183
L46757 16183
L46724 16166
L46707 16132
L46707 16065
L46724 16031
" />
<path d="M46926 16183
L46943 16149
L46943 16065
L46926 16031
L46892 16014
L46859 16014
L46825 16031
L46808 16065
L46808 16149
L46791 16183
" />
<path d="M46707 16351
L46943 16351
" />
<path d="M46740 16351
L46724 16368
L46707 16402
L46707 16453
L46724 16486
L46757 16503
L46943 16503
" />
<path d="M46909 16672
L46926 16689
L46943 16672
L46926 16655
L46909 16672
L46943 16672
" />
<path d="M46926 16824
L46943 16858
L46943 16925
L46926 16959
L46892 16976
L46875 16976
L46842 16959
L46825 16925
L46825 16875
L46808 16841
L46774 16824
L46757 16824
L46724 16841
L46707 16875
L46707 16925
L46724 16959
" />
<path d="M46926 17263
L46943 17229
L46943 17161
L46926 17128
L46892 17111
L46757 17111
L46724 17128
L46707 17161
L46707 17229
L46724 17263
L46757 17279
L46791 17279
L46825 17111
" />
<path d="M46707 17381
L46707 17516
" />
<path d="M46589 17431
L46892 17431
L46926 17448
L46943 17482
L46943 17516
" />
<path d="M46707 17600
L46707 17786
L46943 17600
L46943 17786
" />
<path d="M46909 17921
L46926 17938
L46943 17921
L46926 17904
L46909 17921
L46943 17921
" />
<path d="M46707 18089
L46943 18089
" />
<path d="M46740 18089
L46724 18106
L46707 18140
L46707 18191
L46724 18224
L46757 18241
L46943 18241
" />
<path d="M46943 18562
L46757 18562
L46724 18545
L46707 18511
L46707 18444
L46724 18410
" />
<path d="M46926 18562
L46943 18528
L46943 18444
L46926 18410
L46892 18393
L46859 18393
L46825 18410
L46808 18444
L46808 18528
L46791 18562
" />
<path d="M46943 18731
L46707 18731
" />
<path d="M46740 18731
L46724 18747
L46707 18781
L46707 18832
L46724 18866
L46757 18882
L46943 18882
" />
<path d="M46757 18882
L46724 18899
L46707 18933
L46707 18984
L46724 19017
L46757 19034
L46943 19034
" />
<path d="M46926 19338
L46943 19304
L46943 19237
L46926 19203
L46892 19186
L46757 19186
L46724 19203
L46707 19237
L46707 19304
L46724 19338
L46757 19355
L46791 19355
L46825 19186
" />
<path d="M46572 19760
L47027 19456
" />
<path d="M46943 20030
L46757 20030
L46724 20013
L46707 19979
L46707 19912
L46724 19878
" />
<path d="M46926 20030
L46943 19996
L46943 19912
L46926 19878
L46892 19861
L46859 19861
L46825 19878
L46808 19912
L46808 19996
L46791 20030
" />
<path d="M46943 20198
L46707 20198
" />
<path d="M46774 20198
L46740 20215
L46724 20232
L46707 20266
L46707 20300
" />
<path d="M46943 20570
L46589 20570
" />
<path d="M46926 20570
L46943 20536
L46943 20468
L46926 20435
L46909 20418
L46875 20401
L46774 20401
L46740 20418
L46724 20435
L46707 20468
L46707 20536
L46724 20570
" />
<path d="M46707 20890
L46943 20890
" />
<path d="M46707 20738
L46892 20738
L46926 20755
L46943 20789
L46943 20840
L46926 20873
L46909 20890
" />
<path d="M46943 21059
L46707 21059
" />
<path d="M46589 21059
L46605 21042
L46622 21059
L46605 21076
L46589 21059
L46622 21059
" />
<path d="M46707 21228
L46943 21228
" />
<path d="M46740 21228
L46724 21245
L46707 21278
L46707 21329
L46724 21363
L46757 21380
L46943 21380
" />
<path d="M46943 21599
L46926 21565
L46909 21548
L46875 21531
L46774 21531
L46740 21548
L46724 21565
L46707 21599
L46707 21650
L46724 21683
L46740 21700
L46774 21717
L46875 21717
L46909 21700
L46926 21683
L46943 21650
L46943 21599
" />
<path d="M46572 22122
L47027 21818
" />
<path d="M46943 22240
L46707 22240
" />
<path d="M46740 22240
L46724 22257
L46707 22291
L46707 22341
L46724 22375
L46757 22392
L46943 22392
" />
<path d="M46757 22392
L46724 22409
L46707 22443
L46707 22493
L46724 22527
L46757 22544
L46943 22544
" />
<path d="M46707 22679
L46943 22763
" />
<path d="M46707 22848
L46943 22763
L47027 22729
L47044 22713
L47061 22679
" />
<path d="M46808 22983
L46808 23252
" />
<path d="M46707 23421
L47061 23421
" />
<path d="M46724 23421
L46707 23455
L46707 23522
L46724 23556
L46740 23573
L46774 23590
L46875 23590
L46909 23573
L46926 23556
L46943 23522
L46943 23455
L46926 23421
" />
<path d="M46943 23742
L46707 23742
" />
<path d="M46774 23742
L46740 23759
L46724 23776
L46707 23809
L46707 23843
" />
<path d="M46943 24012
L46926 23978
L46909 23961
L46875 23944
L46774 23944
L46740 23961
L46724 23978
L46707 24012
L46707 24062
L46724 24096
L46740 24113
L46774 24130
L46875 24130
L46909 24113
L46926 24096
L46943 24062
L46943 24012
" />
<path d="M46707 24282
L47010 24282
L47044 24265
L47061 24231
L47061 24214
" />
<path d="M46589 24282
L46605 24265
L46622 24282
L46605 24299
L46589 24282
L46622 24282
" />
<path d="M46926 24585
L46943 24552
L46943 24484
L46926 24450
L46892 24434
L46757 24434
L46724 24450
L46707 24484
L46707 24552
L46724 24585
L46757 24602
L46791 24602
L46825 24434
" />
<path d="M46943 24754
L46589 24754
" />
<path d="M46808 24788
L46943 24889
" />
<path d="M46707 24889
L46842 24754
" />
<path d="M46707 24990
L46707 25125
" />
<path d="M46589 25041
L46892 25041
L46926 25058
L46943 25092
L46943 25125
" />
<path d="M46926 25227
L46943 25260
L46943 25328
L46926 25362
L46892 25378
L46875 25378
L46842 25362
L46825 25328
L46825 25277
L46808 25243
L46774 25227
L46757 25227
L46724 25243
L46707 25277
L46707 25328
L46724 25362
" />
<path d="M46572 25783
L47027 25480
" />
<path d="M46707 25868
L46943 25935
L46774 26003
L46943 26070
L46707 26138
" />
<path d="M46943 26323
L46926 26290
L46909 26273
L46875 26256
L46774 26256
L46740 26273
L46724 26290
L46707 26323
L46707 26374
L46724 26408
L46740 26425
L46774 26441
L46875 26441
L46909 26425
L46926 26408
L46943 26374
L46943 26323
" />
<path d="M46926 26728
L46943 26695
L46943 26627
L46926 26593
L46892 26576
L46757 26576
L46724 26593
L46707 26627
L46707 26695
L46724 26728
L46757 26745
L46791 26745
L46825 26576
" />
<path d="M46943 26897
L46707 26897
" />
<path d="M46774 26897
L46740 26914
L46724 26931
L46707 26965
L46707 26998
" />
<path d="M46943 27268
L46589 27268
" />
<path d="M46926 27268
L46943 27234
L46943 27167
L46926 27133
L46909 27116
L46875 27100
L46774 27100
L46740 27116
L46724 27133
L46707 27167
L46707 27234
L46724 27268
" />
<path d="M46926 27589
L46943 27555
L46943 27488
L46926 27454
L46909 27437
L46875 27420
L46774 27420
L46740 27437
L46724 27454
L46707 27488
L46707 27555
L46724 27589
" />
<path d="M46943 27791
L46926 27758
L46892 27741
L46589 27741
" />
<path d="M46943 27977
L46926 27943
L46909 27926
L46875 27909
L46774 27909
L46740 27926
L46724 27943
L46707 27977
L46707 28028
L46724 28061
L46740 28078
L46774 28095
L46875 28095
L46909 28078
L46926 28061
L46943 28028
L46943 27977
" />
<path d="M46926 28399
L46943 28365
L46943 28297
L46926 28264
L46909 28247
L46875 28230
L46774 28230
L46740 28247
L46724 28264
L46707 28297
L46707 28365
L46724 28399
" />
<path d="M46943 28551
L46589 28551
" />
<path d="M46808 28584
L46943 28686
" />
<path d="M46707 28686
L46842 28551
" />
<path d="M46572 29091
L47027 28787
" />
<path d="M47144 12133
L47498 12251
L47144 12369
" />
<path d="M47144 12555
L47144 12589
L47161 12623
L47177 12639
L47211 12656
L47279 12673
L47363 12673
L47431 12656
L47464 12639
L47481 12623
L47498 12589
L47498 12555
L47481 12521
L47464 12504
L47431 12488
L47363 12471
L47279 12471
L47211 12488
L47177 12504
L47161 12521
L47144 12555
" />
<path d="M47177 12808
L47161 12825
L47144 12859
L47144 12943
L47161 12977
L47177 12994
L47211 13011
L47245 13011
L47296 12994
L47498 12791
L47498 13011
" />
<path d="M47363 13432
L47363 13702
" />
<path d="M47177 14124
L47161 14141
L47144 14175
L47144 14259
L47161 14293
L47177 14310
L47211 14327
L47245 14327
L47296 14310
L47498 14107
L47498 14327
" />
<path d="M47177 14462
L47161 14479
L47144 14512
L47144 14597
L47161 14630
L47177 14647
L47211 14664
L47245 14664
L47296 14647
L47498 14445
L47498 14664
" />
<path d="M47464 14816
L47481 14833
L47498 14816
L47481 14799
L47464 14816
L47498 14816
" />
<path d="M47498 15170
L47498 14968
" />
<path d="M47498 15069
L47144 15069
L47194 15035
L47228 15002
L47245 14968
" />
<path d="M47498 15508
L47498 15305
" />
<path d="M47498 15407
L47144 15407
L47194 15373
L47228 15339
L47245 15305
" />
<path d="M47464 15660
L47481 15677
L47498 15660
L47481 15643
L47464 15660
L47498 15660
" />
<path d="M47177 15812
L47161 15828
L47144 15862
L47144 15947
L47161 15980
L47177 15997
L47211 16014
L47245 16014
L47296 15997
L47498 15795
L47498 16014
" />
<path d="M47144 16233
L47144 16267
L47161 16301
L47177 16318
L47211 16335
L47279 16351
L47363 16351
L47431 16335
L47464 16318
L47481 16301
L47498 16267
L47498 16233
L47481 16200
L47464 16183
L47431 16166
L47363 16149
L47279 16149
L47211 16166
L47177 16183
L47161 16200
L47144 16233
" />
<path d="M47498 16689
L47498 16486
" />
<path d="M47498 16588
L47144 16588
L47194 16554
L47228 16520
L47245 16486
" />
<path d="M47262 16993
L47498 16993
" />
<path d="M47127 16908
L47380 16824
L47380 17043
" />
</g>
<g style="fill:#000000; fill-opacity:0.0; 
stroke:#000000; stroke-width:150; stroke-opacity:1; 
stroke-linecap:round; stroke-linejoin:round;">
<path d="M58858 4724
L787 4724
" />
<path d="M787 4330
L58858 4330
" />
<path d="M0 3543
L0 787
" />
<path d="M0 8267
L0 5511
" />
<path d="M117322 9055
L787 9055
" />
<path d="M117322 4724
L59251 4724
" />
<path d="M59251 4330
L117322 4330
" />
<path d="M118110 5511
L118110 8267
" />
<path d="M118110 787
L118110 3543
" />
<path d="M787 0
L117322 0
" />
<path d="M787.402 4724.41 A787.402 787.402 0.0 0 0 0 5511.81 " />
<path d="M0 8267.72 A787.402 787.402 0.0 0 0 787.402 9055.12 " />
<path d="M117323 9055.12 A787.402 787.402 0.0 0 0 118110 8267.72 " />
<path d="M118110 5511.81 A787.402 787.402 0.0 0 0 117323 4724.41 " />
<path d="M118110 787.402 A787.402 787.402 0.0 0 0 117323 0 " />
<path d="M117323 4330.71 A787.402 787.402 0.0 0 0 118110 3543.31 " />
<path d="M0 3543.31 A787.402 787.402 0.0 0 0 787.402 4330.71 " />
<path d="M787.402 0 A787.402 787.402 0.0 0 0 0 787.402 " />
<path d="M10000 28700
L10000 10984
" />
<path d="M48346 29685
L10984 29685
" />
<path d="M49370 10984
L49370 28740
" />
<path d="M10984 10000
L48385 10000
" />
<path d="M48346.3 29685 A985.039 985.039 0.0 0 0 49370.1 28740.3 " />
<path d="M49370.1 10984.3 A984.252 984.252 0.0 0 0 48385.8 10000 " />
<path d="M10984.3 10000 A984.252 984.252 0.0 0 0 10000 10984.3 " />
<path d="M10000 28700.8 A984.252 984.252 0.0 0 0 10984.3 29685 " />
<path d="M59251 4330
L59251 4724
" />
<path d="M58858 4724
L58858 4330
" />
</g>
<g style="fill:#000000; fill-opacity:0.0; 
stroke:#000000; stroke-width:118.11; stroke-opacity:1; 
stroke-linecap:round; stroke-linejoin:round;">
<circle cx="37965.7" cy="22659.4" r="196.85" /> 
<circle cx="37965.7" cy="23840.6" r="196.85" /> 
<path d="M38950 23250
L38753 22856
" />
<path d="M38950 23250
L38359 23446
" />
<circle cx="38950" cy="23250" r="787.402" /> 
</g>
<g style="fill:#000000; fill-opacity:1.0; 
stroke:#000000; stroke-width:1; stroke-opacity:1; 
stroke-linecap:round; stroke-linejoin:round;">
<polyline style="fill-rule:evenodd;"
points="41437,10942
41495,10944
41570,10976
41579,10981
41715,11076
41832,11201
41920,11343
41970,11485
41972,11612
41967,11633
41955,11679
41973,11687
42032,11659
42045,11653
42209,11605
42398,11617
42515,11649
42581,11670
42640,11679
42710,11674
42805,11654
42943,11618
43004,11601
43241,11541
43524,11480
43831,11422
44142,11371
44278,11351
44418,11335
44605,11317
44826,11298
45064,11280
45303,11264
45529,11250
45726,11239
45879,11234
45924,11233
46217,11233
46217,11344
46217,11455
45525,11494
45288,11508
45046,11525
44818,11542
44620,11559
44474,11573
44115,11614
44119,11673
43866,11673
43832,11674
43751,11686
43642,11704
43524,11726
43414,11749
43331,11767
43293,11779
43293,11780
43311,11804
43369,11857
43397,11880
42967,11880
42903,11883
42805,11912
42743,11967
42698,12065
42688,12097
42636,12206
42554,12305
42463,12375
42382,12400
42346,12404
42343,12428
42376,12486
42393,12513
42467,12626
42527,12489
42578,12388
42630,12306
42644,12289
42761,12197
42916,12129
43080,12096
43108,12095
43264,12091
43132,11978
43040,11908
42967,11880
43397,11880
43441,11915
43550,12009
43653,12113
43700,12168
43762,12243
43807,12290
43820,12299
43858,12271
43885,12190
43898,12069
43894,11920
43894,11917
43883,11800
43874,11713
43866,11674
43866,11673
44119,11673
44137,11900
44146,12047
44144,12150
44129,12228
44099,12303
44088,12325
44083,12333
43135,12333
42986,12361
42864,12436
42778,12546
42737,12676
42752,12816
42761,12842
42845,12973
42957,13055
43085,13092
43216,13086
43338,13038
43436,12952
43500,12829
43517,12710
43507,12610
43470,12531
43399,12451
43313,12376
43235,12342
43135,12333
44083,12333
44017,12463
44306,12551
44594,12639
44881,12353
44996,12242
45098,12152
45175,12090
45217,12067
45269,12077
45368,12101
45498,12137
45592,12164
45917,12260
45917,12148
45937,12053
45989,11993
46056,11979
46104,12003
46131,12047
46144,12128
46144,12260
46143,12280
46135,12406
46122,12480
46100,12516
46071,12528
46016,12524
45912,12503
45775,12470
45643,12433
45276,12326
45063,12537
44969,12632
44897,12709
44856,12757
44851,12766
44878,12790
44950,12838
45053,12903
45104,12933
45312,13078
45533,13271
45638,13375
45747,13487
45839,13580
45903,13642
45932,13667
45947,13639
45956,13592
45989,13529
46056,13507
46134,13521
46172,13586
46172,13705
46165,13750
46113,13859
46019,13938
45905,13967
45865,13944
45790,13880
45689,13786
45572,13668
45528,13623
45213,13325
44890,13088
44548,12903
44193,12770
44048,12725
43925,12687
43838,12659
43807,12648
43775,12656
43759,12715
43756,12767
43725,12936
43642,13084
43536,13194
43379,13290
43202,13332
43018,13324
42842,13269
42688,13168
42572,13025
42555,12995
42484,12850
42484,12985
42472,13114
42429,13194
42346,13234
42211,13242
42186,13242
41994,13219
41837,13171
41725,13103
41685,13052
41643,12974
41518,13099
41396,13193
41246,13272
41094,13322
40999,13333
40924,13310
40864,13263
40823,13180
40802,13056
40800,12914
40817,12777
40853,12668
40863,12651
40901,12590
40900,12571
40858,12581
40852,12583
40739,12586
40609,12536
40478,12438
40418,12377
40307,12225
40260,12091
40277,11976
40319,11914
40438,11819
40591,11740
40752,11687
40895,11672
40903,11672
41047,11684
41028,11544
41032,11410
41085,11279
41194,11141
41284,11053
41373,10977
41437,10942
41437,10942
" /> 
</g>
<g style="fill:#000000; fill-opacity:1.0; 
stroke:#000000; stroke-width:100; stroke-opacity:1; 
stroke-linecap:round; stroke-linejoin:round;">
<path d="M25300 11670
L24300 11670
" />
</g>
<g style="fill:#000000; fill-opacity:0.0; 
stroke:#000000; stroke-width:60; stroke-opacity:1; 
stroke-linecap:round; stroke-linejoin:round;">
<path d="M24800 10450 A600 600 0.0 0 0 24415.9 10589 " />
<path d="M25197.9 10601.9 A599.256 599.256 0.0 0 0 24800 10450.7 " />
<path d="M24410 11505 A599.27 599.27 0.0 0 0 24800 11649.3 " />
<path d="M24800 11650 A600 600 0.0 0 0 25184.1 11511 " />
<path d="M24200 11050 A600 600 0.0 0 0 24450.7 11537.9 " />
<path d="M24439.7 10570.2 A600 600 0.0 0 0 24200 11050 " />
<path d="M25168.1 11522.9 A599.294 599.294 0.0 0 0 25399.3 11050 " />
<path d="M25400 11050 A600 600 0.0 0 0 25168.6 10576.5 " />
<path d="M24800 10800 A250 250 0.0 0 0 24550 11050 " />
<path d="M24800 10650 A400 400 0.0 0 0 24400 11050 " />
<path d="M24800 11300 A250 250 0.0 0 0 25050 11050 " />
<path d="M24800 11450 A400 400 0.0 0 0 25200 11050 " />
</g>
<g style="fill:#000000; fill-opacity:0.0; 
stroke:#000000; stroke-width:100; stroke-opacity:1; 
stroke-linecap:round; stroke-linejoin:round;">
<path d="M24000 11050 A800 800 0.0 0 0 24286.8 11663.7 " />
<path d="M24423.7 10345.2 A799 799 0.0 0 0 24001 11050 " />
<path d="M25315.7 11660.3 A798.972 798.972 0.0 0 0 25599 11051.4 " />
<path d="M25600 11050 A800 800 0.0 0 0 25197.6 10355.8 " />
<path d="M24800 10250 A800 800 0.0 0 0 24420.7 10345.6 " />
<path d="M25219 10369 A799.576 799.576 0.0 0 0 24800 10250.4 " />
<path d="M18550 11670
L17550 11670
" />
</g>
<g style="fill:#000000; fill-opacity:0.0; 
stroke:#000000; stroke-width:60; stroke-opacity:1; 
stroke-linecap:round; stroke-linejoin:round;">
<path d="M18050 10450 A600 600 0.0 0 0 17665.9 10589 " />
<path d="M18447.9 10601.9 A599.256 599.256 0.0 0 0 18050 10450.7 " />
<path d="M17660 11505 A599.27 599.27 0.0 0 0 18050 11649.3 " />
<path d="M18050 11650 A600 600 0.0 0 0 18434.1 11511 " />
<path d="M17450 11050 A600 600 0.0 0 0 17700.7 11537.9 " />
<path d="M17689.7 10570.2 A600 600 0.0 0 0 17450 11050 " />
<path d="M18418.1 11522.9 A599.294 599.294 0.0 0 0 18649.3 11050 " />
<path d="M18650 11050 A600 600 0.0 0 0 18418.6 10576.5 " />
<path d="M18050 10800 A250 250 0.0 0 0 17800 11050 " />
<path d="M18050 10650 A400 400 0.0 0 0 17650 11050 " />
<path d="M18050 11300 A250 250 0.0 0 0 18300 11050 " />
<path d="M18050 11450 A400 400 0.0 0 0 18450 11050 " />
</g>
<g style="fill:#000000; fill-opacity:0.0; 
stroke:#000000; stroke-width:100; stroke-opacity:1; 
stroke-linecap:round; stroke-linejoin:round;">
<path d="M17250 11050 A800 800 0.0 0 0 17536.8 11663.7 " />
<path d="M17673.7 10345.2 A799 799 0.0 0 0 17251 11050 " />
<path d="M18565.7 11660.3 A798.972 798.972 0.0 0 0 18849 11051.4 " />
<path d="M18850 11050 A800 800 0.0 0 0 18447.6 10355.8 " />
<path d="M18050 10250 A800 800 0.0 0 0 17670.7 10345.6 " />
<path d="M18469 10369 A799.576 799.576 0.0 0 0 18050 10250.4 " />
<path d="M23700 11670
L22700 11670
" />
</g>
<g style="fill:#000000; fill-opacity:0.0; 
stroke:#000000; stroke-width:60; stroke-opacity:1; 
stroke-linecap:round; stroke-linejoin:round;">
<path d="M23200 10450 A600 600 0.0 0 0 22815.9 10589 " />
<path d="M23597.9 10601.9 A599.256 599.256 0.0 0 0 23200 10450.7 " />
<path d="M22810 11505 A599.27 599.27 0.0 0 0 23200 11649.3 " />
<path d="M23200 11650 A600 600 0.0 0 0 23584.1 11511 " />
<path d="M22600 11050 A600 600 0.0 0 0 22850.7 11537.9 " />
<path d="M22839.7 10570.2 A600 600 0.0 0 0 22600 11050 " />
<path d="M23568.1 11522.9 A599.294 599.294 0.0 0 0 23799.3 11050 " />
<path d="M23800 11050 A600 600 0.0 0 0 23568.6 10576.5 " />
<path d="M23200 10800 A250 250 0.0 0 0 22950 11050 " />
<path d="M23200 10650 A400 400 0.0 0 0 22800 11050 " />
<path d="M23200 11300 A250 250 0.0 0 0 23450 11050 " />
<path d="M23200 11450 A400 400 0.0 0 0 23600 11050 " />
</g>
<g style="fill:#000000; fill-opacity:0.0; 
stroke:#000000; stroke-width:100; stroke-opacity:1; 
stroke-linecap:round; stroke-linejoin:round;">
<path d="M22400 11050 A800 800 0.0 0 0 22686.8 11663.7 " />
<path d="M22823.7 10345.2 A799 799 0.0 0 0 22401 11050 " />
<path d="M23715.7 11660.3 A798.972 798.972 0.0 0 0 23999 11051.4 " />
<path d="M24000 11050 A800 800 0.0 0 0 23597.6 10355.8 " />
<path d="M23200 10250 A800 800 0.0 0 0 22820.7 10345.6 " />
<path d="M23619 10369 A799.576 799.576 0.0 0 0 23200 10250.4 " />
<path d="M16950 11670
L15950 11670
" />
</g>
<g style="fill:#000000; fill-opacity:0.0; 
stroke:#000000; stroke-width:60; stroke-opacity:1; 
stroke-linecap:round; stroke-linejoin:round;">
<path d="M16450 10450 A600 600 0.0 0 0 16065.9 10589 " />
<path d="M16847.9 10601.9 A599.256 599.256 0.0 0 0 16450 10450.7 " />
<path d="M16060 11505 A599.27 599.27 0.0 0 0 16450 11649.3 " />
<path d="M16450 11650 A600 600 0.0 0 0 16834.1 11511 " />
<path d="M15850 11050 A600 600 0.0 0 0 16100.7 11537.9 " />
<path d="M16089.7 10570.2 A600 600 0.0 0 0 15850 11050 " />
<path d="M16818.1 11522.9 A599.294 599.294 0.0 0 0 17049.3 11050 " />
<path d="M17050 11050 A600 600 0.0 0 0 16818.6 10576.5 " />
<path d="M16450 10800 A250 250 0.0 0 0 16200 11050 " />
<path d="M16450 10650 A400 400 0.0 0 0 16050 11050 " />
<path d="M16450 11300 A250 250 0.0 0 0 16700 11050 " />
<path d="M16450 11450 A400 400 0.0 0 0 16850 11050 " />
</g>
<g style="fill:#000000; fill-opacity:0.0; 
stroke:#000000; stroke-width:100; stroke-opacity:1; 
stroke-linecap:round; stroke-linejoin:round;">
<path d="M15650 11050 A800 800 0.0 0 0 15936.8 11663.7 " />
<path d="M16073.7 10345.2 A799 799 0.0 0 0 15651 11050 " />
<path d="M16965.7 11660.3 A798.972 798.972 0.0 0 0 17249 11051.4 " />
<path d="M17250 11050 A800 800 0.0 0 0 16847.6 10355.8 " />
<path d="M16450 10250 A800 800 0.0 0 0 16070.7 10345.6 " />
<path d="M16869 10369 A799.576 799.576 0.0 0 0 16450 10250.4 " />
</g>
<g style="fill:#000000; fill-opacity:0.0; 
stroke:#000000; stroke-width:150; stroke-opacity:1; 
stroke-linecap:round; stroke-linejoin:round;">
<path d="M29306 19250
L30093 19250
" />
<path d="M29700 18856
L29700 19643
" />
<path d="M29700 20234
L33243 20234
" />
<path d="M29700 18265
L33243 18265
" />
<path d="M29700 18265.7 A984.252 984.252 0.0 0 0 28715.7 19250 " />
<path d="M28715.7 19250 A984.252 984.252 0.0 0 0 29700 20234.3 " />
<path d="M33243 17281
L28322 17281
" />
<path d="M28322 17281
L28322 21218
" />
<path d="M28322 21218
L33243 21218
" />
<path d="M33243 21218
L33243 17281
" />
<circle cx="10984.3" cy="10984.3" r="984.252" /> 
<circle cx="10984.3" cy="28700.8" r="984.252" /> 
<circle cx="48385.8" cy="10984.3" r="984.252" /> 
<circle cx="48385.8" cy="28700.8" r="984.252" /> 
</g>
<g style="fill:#000000; fill-opacity:0.0; 
stroke:#000000; stroke-width:80; stroke-opacity:1; 
stroke-linecap:round; stroke-linejoin:round;">
<path d="M28200 28750
L28400 28750
" />
<path d="M31200 28750
L31000 28750
" />
<path d="M31000 28750
L31000 29150
" />
<path d="M31000 29150
L28400 29150
" />
<path d="M28400 29150
L28400 28350
" />
<path d="M28400 28350
L31000 28350
" />
<path d="M31000 28350
L31000 28750
" />
<path d="M28400 28950
L28600 29150
" />
<path d="M28200 27150
L28400 27150
" />
<path d="M31200 27150
L31000 27150
" />
<path d="M31000 27150
L31000 27550
" />
<path d="M31000 27550
L28400 27550
" />
<path d="M28400 27550
L28400 26750
" />
<path d="M28400 26750
L31000 26750
" />
<path d="M31000 26750
L31000 27150
" />
<path d="M28400 27350
L28600 27550
" />
<path d="M28200 27950
L28400 27950
" />
<path d="M31200 27950
L31000 27950
" />
<path d="M31000 27950
L31000 28350
" />
<path d="M31000 28350
L28400 28350
" />
<path d="M28400 28350
L28400 27550
" />
<path d="M28400 27550
L31000 27550
" />
<path d="M31000 27550
L31000 27950
" />
<path d="M28400 28150
L28600 28350
" />
<path d="M41150 19200
L41350 19200
" />
<path d="M44150 19200
L43950 19200
" />
<path d="M43950 19200
L43950 19600
" />
<path d="M43950 19600
L41350 19600
" />
<path d="M41350 19600
L41350 18800
" />
<path d="M41350 18800
L43950 18800
" />
<path d="M43950 18800
L43950 19200
" />
<path d="M41350 19400
L41550 19600
" />
<path d="M44150 27250
L43950 27250
" />
<path d="M41150 27250
L41350 27250
" />
<path d="M41350 27250
L41350 26850
" />
<path d="M41350 26850
L43950 26850
" />
<path d="M43950 26850
L43950 27650
" />
<path d="M43950 27650
L41350 27650
" />
<path d="M41350 27650
L41350 27250
" />
<path d="M43950 27050
L43750 26850
" />
<path d="M44150 21250
L43950 21250
" />
<path d="M41150 21250
L41350 21250
" />
<path d="M41350 21250
L41350 20850
" />
<path d="M41350 20850
L43950 20850
" />
<path d="M43950 20850
L43950 21650
" />
<path d="M43950 21650
L41350 21650
" />
<path d="M41350 21650
L41350 21250
" />
<path d="M43950 21050
L43750 20850
" />
<path d="M44150 24250
L43950 24250
" />
<path d="M41150 24250
L41350 24250
" />
<path d="M41350 24250
L41350 23850
" />
<path d="M41350 23850
L43950 23850
" />
<path d="M43950 23850
L43950 24650
" />
<path d="M43950 24650
L41350 24650
" />
<path d="M41350 24650
L41350 24250
" />
<path d="M43950 24050
L43750 23850
" />
<path d="M19300 10550
L19500 10550
" />
<path d="M22300 10550
L22100 10550
" />
<path d="M22100 10550
L22100 10950
" />
<path d="M22100 10950
L19500 10950
" />
<path d="M19500 10950
L19500 10150
" />
<path d="M19500 10150
L22100 10150
" />
<path d="M22100 10150
L22100 10550
" />
<path d="M19500 10750
L19700 10950
" />
<path d="M19300 11350
L19500 11350
" />
<path d="M22300 11350
L22100 11350
" />
<path d="M22100 11350
L22100 11750
" />
<path d="M22100 11750
L19500 11750
" />
<path d="M19500 11750
L19500 10950
" />
<path d="M19500 10950
L22100 10950
" />
<path d="M22100 10950
L22100 11350
" />
<path d="M19500 11550
L19700 11750
" />
<path d="M19300 12150
L19500 12150
" />
<path d="M22300 12150
L22100 12150
" />
<path d="M22100 12150
L22100 12550
" />
<path d="M22100 12550
L19500 12550
" />
<path d="M19500 12550
L19500 11750
" />
<path d="M19500 11750
L22100 11750
" />
<path d="M22100 11750
L22100 12150
" />
<path d="M19500 12350
L19700 12550
" />
<path d="M36100 19200
L36300 19200
" />
<path d="M39100 19200
L38900 19200
" />
<path d="M38900 19200
L38900 19600
" />
<path d="M38900 19600
L36300 19600
" />
<path d="M36300 19600
L36300 18800
" />
<path d="M36300 18800
L38900 18800
" />
<path d="M38900 18800
L38900 19200
" />
<path d="M36300 19400
L36500 19600
" />
<path d="M12450 10550
L12650 10550
" />
<path d="M15450 10550
L15250 10550
" />
<path d="M15250 10550
L15250 10950
" />
<path d="M15250 10950
L12650 10950
" />
<path d="M12650 10950
L12650 10150
" />
<path d="M12650 10150
L15250 10150
" />
<path d="M15250 10150
L15250 10550
" />
<path d="M12650 10750
L12850 10950
" />
<path d="M12450 11350
L12650 11350
" />
<path d="M15450 11350
L15250 11350
" />
<path d="M15250 11350
L15250 11750
" />
<path d="M15250 11750
L12650 11750
" />
<path d="M12650 11750
L12650 10950
" />
<path d="M12650 10950
L15250 10950
" />
<path d="M15250 10950
L15250 11350
" />
<path d="M12650 11550
L12850 11750
" />
<path d="M12450 12150
L12650 12150
" />
<path d="M15450 12150
L15250 12150
" />
<path d="M15250 12150
L15250 12550
" />
<path d="M15250 12550
L12650 12550
" />
<path d="M12650 12550
L12650 11750
" />
<path d="M12650 11750
L15250 11750
" />
<path d="M15250 11750
L15250 12150
" />
<path d="M12650 12350
L12850 12550
" />
</g>
<g style="fill:#000000; fill-opacity:0.0; 
stroke:#000000; stroke-width:150; stroke-opacity:1; 
stroke-linecap:round; stroke-linejoin:round;">
<path d="M29957 17266
L29642 17266
" />
<path d="M29957 15533
L29642 15533
" />
<path d="M28776.4 16400 A866.142 866.142 0.0 0 0 29642.5 17266.1 " />
<path d="M29957.5 17266.1 A866.142 866.142 0.0 0 0 30823.6 16400 " />
<path d="M29642.5 15533.9 A866.142 866.142 0.0 0 0 28776.4 16400 " />
<path d="M30823.6 16400 A866.142 866.142 0.0 0 0 29957.5 15533.9 " />
<path d="M17959 12688
L17959 23711
" />
<path d="M17959 23711
L12840 23711
" />
<path d="M12840 23711
L12840 12688
" />
<path d="M12840 12688
L17959 12688
" />
<path d="M24809 12688
L24809 23711
" />
<path d="M24809 23711
L19690 23711
" />
<path d="M19690 23711
L19690 12688
" />
<path d="M19690 12688
L24809 12688
" />
<circle cx="29744.9" cy="12750" r="1693.37" /> 
<path d="M38800 9994
L26988 9994
" />
<path d="M26988 15505
L38800 15505
" />
<path d="M26988 11568
L26988 9994
" />
<path d="M26988 13931
L26988 15505
" />
<path d="M26989 11568.9 A1181.1 1181.1 0.0 0 0 25807.9 12750 " />
<path d="M25807.9 12750 A1181.1 1181.1 0.0 0 0 26989 13931.1 " />
<path d="M38800 9994
L38800 15505
" />
<path d="M26950 21250
L34250 21250
" />
<path d="M34250 21250
L34250 26750
" />
<path d="M34250 26750
L26950 26750
" />
<path d="M26950 26750
L26950 21250
" />
</g>
<g style="fill:#000000; fill-opacity:0.0; 
stroke:#000000; stroke-width:59.0551; stroke-opacity:1; 
stroke-linecap:round; stroke-linejoin:round;">
<path d="M39943 22110
L40258 22185
L40033 22245
L40258 22305
L39943 22380
" />
<path d="M40258 22545
L40243 22515
L40228 22500
L40198 22485
L40108 22485
L40078 22500
L40063 22515
L40048 22545
L40048 22590
L40063 22620
L40078 22635
L40108 22650
L40198 22650
L40228 22635
L40243 22620
L40258 22590
L40258 22545
" />
<path d="M39943 22515
L39958 22530
L39973 22515
L39958 22500
L39943 22515
L39973 22515
" />
<path d="M39943 22635
L39958 22650
L39973 22635
L39958 22620
L39943 22635
L39973 22635
" />
<path d="M40258 22785
L40048 22785
" />
<path d="M40108 22785
L40078 22800
L40063 22815
L40048 22845
L40048 22875
" />
<path d="M40258 23115
L39943 23115
" />
<path d="M40243 23115
L40258 23085
L40258 23025
L40243 22995
L40228 22980
L40198 22965
L40108 22965
L40078 22980
L40063 22995
L40048 23025
L40048 23085
L40063 23115
" />
<path d="M40243 23399
L40258 23369
L40258 23309
L40243 23279
L40228 23264
L40198 23250
L40108 23250
L40078 23264
L40063 23279
L40048 23309
L40048 23369
L40063 23399
" />
<path d="M40258 23579
L40243 23549
L40213 23534
L39943 23534
" />
<path d="M40258 23744
L40243 23714
L40228 23699
L40198 23684
L40108 23684
L40078 23699
L40063 23714
L40048 23744
L40048 23789
L40063 23819
L40078 23834
L40108 23849
L40198 23849
L40228 23834
L40243 23819
L40258 23789
L40258 23744
" />
<path d="M40243 24119
L40258 24089
L40258 24029
L40243 23999
L40228 23984
L40198 23969
L40108 23969
L40078 23984
L40063 23999
L40048 24029
L40048 24089
L40063 24119
" />
<path d="M40258 24254
L39943 24254
" />
<path d="M40138 24284
L40258 24374
" />
<path d="M40048 24374
L40168 24254
" />
</g>
<g style="fill:#000000; fill-opacity:0.0; 
stroke:#000000; stroke-width:35; stroke-opacity:1; 
stroke-linecap:round; stroke-linejoin:round;">
<path d="M25921 10421
L25921 10121
L25850 10121
L25807 10135
L25778 10164
L25764 10192
L25750 10250
L25750 10292
L25764 10350
L25778 10378
L25807 10407
L25850 10421
L25921 10421
" />
<path d="M25464 10421
L25635 10421
" />
<path d="M25550 10421
L25550 10121
L25578 10164
L25607 10192
L25635 10207
" />
<path d="M25464 12750
L25478 12792
L25492 12807
L25521 12821
L25564 12821
L25592 12807
L25607 12792
L25621 12764
L25621 12650
L25321 12650
L25321 12750
L25335 12778
L25350 12792
L25378 12807
L25407 12807
L25435 12792
L25450 12778
L25464 12750
L25464 12650
" />
<path d="M25321 12907
L25321 13078
" />
<path d="M25621 12992
L25321 12992
" />
<path d="M25621 13335
L25621 13164
" />
<path d="M25621 13250
L25321 13250
L25364 13221
L25392 13192
L25407 13164
" />
<path d="M25421 13692
L25721 13692
" />
<path d="M25435 13692
L25421 13721
L25421 13778
L25435 13807
L25450 13821
L25478 13835
L25564 13835
L25592 13821
L25607 13807
L25621 13778
L25621 13721
L25607 13692
" />
<path d="M25621 14092
L25464 14092
L25435 14078
L25421 14050
L25421 13992
L25435 13964
" />
<path d="M25607 14092
L25621 14064
L25621 13992
L25607 13964
L25578 13950
L25550 13950
L25521 13964
L25507 13992
L25507 14064
L25492 14092
" />
<path d="M25621 14235
L25421 14235
" />
<path d="M25321 14235
L25335 14221
L25350 14235
L25335 14250
L25321 14235
L25350 14235
" />
<path d="M25621 14378
L25421 14378
" />
<path d="M25478 14378
L25450 14392
L25435 14407
L25421 14435
L25421 14464
" />
<path d="M25607 14678
L25621 14650
L25621 14592
L25607 14564
L25578 14550
L25464 14550
L25435 14564
L25421 14592
L25421 14650
L25435 14678
L25464 14692
L25492 14692
L25521 14550
" />
<path d="M25621 14950
L25321 14950
" />
<path d="M25607 14950
L25621 14921
L25621 14864
L25607 14835
L25592 14821
L25564 14807
L25478 14807
L25450 14821
L25435 14835
L25421 14864
L25421 14921
L25435 14950
" />
<path d="M19021 10371
L19021 10071
L18950 10071
L18907 10085
L18878 10114
L18864 10142
L18850 10200
L18850 10242
L18864 10300
L18878 10328
L18907 10357
L18950 10371
L19021 10371
" />
<path d="M18750 10071
L18564 10071
L18664 10185
L18621 10185
L18592 10200
L18578 10214
L18564 10242
L18564 10314
L18578 10342
L18592 10357
L18621 10371
L18707 10371
L18735 10357
L18750 10342
" />
<path d="M18664 12800
L18678 12842
L18692 12857
L18721 12871
L18764 12871
L18792 12857
L18807 12842
L18821 12814
L18821 12700
L18521 12700
L18521 12800
L18535 12828
L18550 12842
L18578 12857
L18607 12857
L18635 12842
L18650 12828
L18664 12800
L18664 12700
" />
<path d="M18521 12957
L18521 13128
" />
<path d="M18821 13042
L18521 13042
" />
<path d="M18550 13214
L18535 13228
L18521 13257
L18521 13328
L18535 13357
L18550 13371
L18578 13385
L18607 13385
L18650 13371
L18821 13200
L18821 13385
" />
<path d="M18621 13742
L18921 13742
" />
<path d="M18635 13742
L18621 13771
L18621 13828
L18635 13857
L18650 13871
L18678 13885
L18764 13885
L18792 13871
L18807 13857
L18821 13828
L18821 13771
L18807 13742
" />
<path d="M18821 14142
L18664 14142
L18635 14128
L18621 14100
L18621 14042
L18635 14014
" />
<path d="M18807 14142
L18821 14114
L18821 14042
L18807 14014
L18778 14000
L18750 14000
L18721 14014
L18707 14042
L18707 14114
L18692 14142
" />
<path d="M18821 14285
L18621 14285
" />
<path d="M18521 14285
L18535 14271
L18550 14285
L18535 14300
L18521 14285
L18550 14285
" />
<path d="M18821 14428
L18621 14428
" />
<path d="M18678 14428
L18650 14442
L18635 14457
L18621 14485
L18621 14514
" />
<path d="M18807 14728
L18821 14700
L18821 14642
L18807 14614
L18778 14600
L18664 14600
L18635 14614
L18621 14642
L18621 14700
L18635 14728
L18664 14742
L18692 14742
L18721 14600
" />
<path d="M18821 15000
L18521 15000
" />
<path d="M18807 15000
L18821 14971
L18821 14914
L18807 14885
L18792 14871
L18764 14857
L18678 14857
L18650 14871
L18635 14885
L18621 14914
L18621 14971
L18635 15000
" />
<path d="M24121 10321
L24121 10021
L24050 10021
L24007 10035
L23978 10064
L23964 10092
L23950 10150
L23950 10192
L23964 10250
L23978 10278
L24007 10307
L24050 10321
L24121 10321
" />
<path d="M23835 10050
L23821 10035
L23792 10021
L23721 10021
L23692 10035
L23678 10050
L23664 10078
L23664 10107
L23678 10150
L23850 10321
L23664 10321
" />
<path d="M25221 12671
L25021 12671
" />
<path d="M25050 12671
L25035 12685
L25021 12714
L25021 12757
L25035 12785
L25064 12800
L25221 12800
" />
<path d="M25064 12800
L25035 12814
L25021 12842
L25021 12885
L25035 12914
L25064 12928
L25221 12928
" />
<path d="M25221 13114
L25207 13085
L25192 13071
L25164 13057
L25078 13057
L25050 13071
L25035 13085
L25021 13114
L25021 13157
L25035 13185
L25050 13200
L25078 13214
L25164 13214
L25192 13200
L25207 13185
L25221 13157
L25221 13114
" />
<path d="M25221 13471
L24921 13471
" />
<path d="M25207 13471
L25221 13442
L25221 13385
L25207 13357
L25192 13342
L25164 13328
L25078 13328
L25050 13342
L25035 13357
L25021 13385
L25021 13442
L25035 13471
" />
<path d="M25207 13728
L25221 13700
L25221 13642
L25207 13614
L25178 13600
L25064 13600
L25035 13614
L25021 13642
L25021 13700
L25035 13728
L25064 13742
L25092 13742
L25121 13600
" />
<path d="M17471 10371
L17471 10071
L17400 10071
L17357 10085
L17328 10114
L17314 10142
L17300 10200
L17300 10242
L17314 10300
L17328 10328
L17357 10357
L17400 10371
L17471 10371
" />
<path d="M17042 10171
L17042 10371
" />
<path d="M17114 10057
L17185 10271
L17000 10271
" />
<path d="M18371 12671
L18171 12671
" />
<path d="M18200 12671
L18185 12685
L18171 12714
L18171 12757
L18185 12785
L18214 12800
L18371 12800
" />
<path d="M18214 12800
L18185 12814
L18171 12842
L18171 12885
L18185 12914
L18214 12928
L18371 12928
" />
<path d="M18371 13114
L18357 13085
L18342 13071
L18314 13057
L18228 13057
L18200 13071
L18185 13085
L18171 13114
L18171 13157
L18185 13185
L18200 13200
L18228 13214
L18314 13214
L18342 13200
L18357 13185
L18371 13157
L18371 13114
" />
<path d="M18371 13471
L18071 13471
" />
<path d="M18357 13471
L18371 13442
L18371 13385
L18357 13357
L18342 13342
L18314 13328
L18228 13328
L18200 13342
L18185 13357
L18171 13385
L18171 13442
L18185 13471
" />
<path d="M18357 13728
L18371 13700
L18371 13642
L18357 13614
L18328 13600
L18214 13600
L18185 13614
L18171 13642
L18171 13700
L18185 13728
L18214 13742
L18242 13742
L18271 13600
" />
</g>
<g style="fill:#000000; fill-opacity:0.0; 
stroke:#000000; stroke-width:120; stroke-opacity:1; 
stroke-linecap:round; stroke-linejoin:round;">
<path d="M28142 18950
L27542 18950
" />
<path d="M28142 19578
L27857 19378
" />
<path d="M28142 19235
L27542 19235
L27542 19464
L27571 19521
L27600 19550
L27657 19578
L27742 19578
L27800 19550
L27828 19521
L27857 19464
L27857 19235
" />
</g>
<g style="fill:#000000; fill-opacity:0.0; 
stroke:#000000; stroke-width:80; stroke-opacity:1; 
stroke-linecap:round; stroke-linejoin:round;">
<path d="M30021 28922
L30188 28660
" />
<path d="M30307 28922
L30307 28372
L30116 28372
L30069 28398
L30045 28425
L30021 28477
L30021 28555
L30045 28608
L30069 28634
L30116 28660
L30307 28660
" />
<path d="M29545 28922
L29830 28922
" />
<path d="M29688 28922
L29688 28372
L29735 28451
L29783 28503
L29830 28529
" />
<path d="M29116 28372
L29211 28372
L29259 28398
L29283 28425
L29330 28503
L29354 28608
L29354 28817
L29330 28870
L29307 28896
L29259 28922
L29164 28922
L29116 28896
L29092 28870
L29069 28817
L29069 28686
L29092 28634
L29116 28608
L29164 28582
L29259 28582
L29307 28608
L29330 28634
L29354 28686
" />
<path d="M30021 27322
L30188 27060
" />
<path d="M30307 27322
L30307 26772
L30116 26772
L30069 26798
L30045 26825
L30021 26877
L30021 26955
L30045 27008
L30069 27034
L30116 27060
L30307 27060
" />
<path d="M29545 27322
L29830 27322
" />
<path d="M29688 27322
L29688 26772
L29735 26851
L29783 26903
L29830 26929
" />
<path d="M29092 26772
L29330 26772
L29354 27034
L29330 27008
L29283 26982
L29164 26982
L29116 27008
L29092 27034
L29069 27086
L29069 27217
L29092 27270
L29116 27296
L29164 27322
L29283 27322
L29330 27296
L29354 27270
" />
<path d="M30021 28122
L30188 27860
" />
<path d="M30307 28122
L30307 27572
L30116 27572
L30069 27598
L30045 27625
L30021 27677
L30021 27755
L30045 27808
L30069 27834
L30116 27860
L30307 27860
" />
<path d="M29545 28122
L29830 28122
" />
<path d="M29688 28122
L29688 27572
L29735 27651
L29783 27703
L29830 27729
" />
<path d="M29378 27572
L29045 27572
L29259 28122
" />
<path d="M42733 19372
L42900 19110
" />
<path d="M43019 19372
L43019 18822
L42828 18822
L42780 18848
L42757 18875
L42733 18927
L42733 19005
L42757 19058
L42780 19084
L42828 19110
L43019 19110
" />
<path d="M42257 19372
L42542 19372
" />
<path d="M42400 19372
L42400 18822
L42447 18901
L42495 18953
L42542 18979
" />
<path d="M42733 27522
L42900 27260
" />
<path d="M43019 27522
L43019 26972
L42828 26972
L42780 26998
L42757 27025
L42733 27077
L42733 27155
L42757 27208
L42780 27234
L42828 27260
L43019 27260
" />
<path d="M42280 26972
L42519 26972
L42542 27234
L42519 27208
L42471 27182
L42352 27182
L42304 27208
L42280 27234
L42257 27286
L42257 27417
L42280 27470
L42304 27496
L42352 27522
L42471 27522
L42519 27496
L42542 27470
" />
<path d="M42733 21522
L42900 21260
" />
<path d="M43019 21522
L43019 20972
L42828 20972
L42780 20998
L42757 21025
L42733 21077
L42733 21155
L42757 21208
L42780 21234
L42828 21260
L43019 21260
" />
<path d="M42566 20972
L42257 20972
L42423 21182
L42352 21182
L42304 21208
L42280 21234
L42257 21286
L42257 21417
L42280 21470
L42304 21496
L42352 21522
L42495 21522
L42542 21496
L42566 21470
" />
<path d="M42733 24522
L42900 24260
" />
<path d="M43019 24522
L43019 23972
L42828 23972
L42780 23998
L42757 24025
L42733 24077
L42733 24155
L42757 24208
L42780 24234
L42828 24260
L43019 24260
" />
<path d="M42304 24155
L42304 24522
" />
<path d="M42423 23946
L42542 24339
L42233 24339
" />
<path d="M20883 10722
L21050 10460
" />
<path d="M21169 10722
L21169 10172
L20978 10172
L20930 10198
L20907 10225
L20883 10277
L20883 10355
L20907 10408
L20930 10434
L20978 10460
L21169 10460
" />
<path d="M20597 10408
L20645 10382
L20669 10355
L20692 10303
L20692 10277
L20669 10225
L20645 10198
L20597 10172
L20502 10172
L20454 10198
L20430 10225
L20407 10277
L20407 10303
L20430 10355
L20454 10382
L20502 10408
L20597 10408
L20645 10434
L20669 10460
L20692 10513
L20692 10617
L20669 10670
L20645 10696
L20597 10722
L20502 10722
L20454 10696
L20430 10670
L20407 10617
L20407 10513
L20430 10460
L20454 10434
L20502 10408
" />
<path d="M20883 11522
L21050 11260
" />
<path d="M21169 11522
L21169 10972
L20978 10972
L20930 10998
L20907 11025
L20883 11077
L20883 11155
L20907 11208
L20930 11234
L20978 11260
L21169 11260
" />
<path d="M20716 10972
L20383 10972
L20597 11522
" />
<path d="M20883 12322
L21050 12060
" />
<path d="M21169 12322
L21169 11772
L20978 11772
L20930 11798
L20907 11825
L20883 11877
L20883 11955
L20907 12008
L20930 12034
L20978 12060
L21169 12060
" />
<path d="M20454 11772
L20550 11772
L20597 11798
L20621 11825
L20669 11903
L20692 12008
L20692 12217
L20669 12270
L20645 12296
L20597 12322
L20502 12322
L20454 12296
L20430 12270
L20407 12217
L20407 12086
L20430 12034
L20454 12008
L20502 11982
L20597 11982
L20645 12008
L20669 12034
L20692 12086
" />
<path d="M37921 19372
L38088 19110
" />
<path d="M38207 19372
L38207 18822
L38016 18822
L37969 18848
L37945 18875
L37921 18927
L37921 19005
L37945 19058
L37969 19084
L38016 19110
L38207 19110
" />
<path d="M37445 19372
L37730 19372
" />
<path d="M37588 19372
L37588 18822
L37635 18901
L37683 18953
L37730 18979
" />
<path d="M37159 19058
L37207 19032
L37230 19005
L37254 18953
L37254 18927
L37230 18875
L37207 18848
L37159 18822
L37064 18822
L37016 18848
L36992 18875
L36969 18927
L36969 18953
L36992 19005
L37016 19032
L37064 19058
L37159 19058
L37207 19084
L37230 19110
L37254 19163
L37254 19267
L37230 19320
L37207 19346
L37159 19372
L37064 19372
L37016 19346
L36992 19320
L36969 19267
L36969 19163
L36992 19110
L37016 19084
L37064 19058
" />
<path d="M14271 10722
L14438 10460
" />
<path d="M14557 10722
L14557 10172
L14366 10172
L14319 10198
L14295 10225
L14271 10277
L14271 10355
L14295 10408
L14319 10434
L14366 10460
L14557 10460
" />
<path d="M13795 10722
L14080 10722
" />
<path d="M13938 10722
L13938 10172
L13985 10251
L14033 10303
L14080 10329
" />
<path d="M13319 10722
L13604 10722
" />
<path d="M13461 10722
L13461 10172
L13509 10251
L13557 10303
L13604 10329
" />
<path d="M14271 11522
L14438 11260
" />
<path d="M14557 11522
L14557 10972
L14366 10972
L14319 10998
L14295 11025
L14271 11077
L14271 11155
L14295 11208
L14319 11234
L14366 11260
L14557 11260
" />
<path d="M13795 11522
L14080 11522
" />
<path d="M13938 11522
L13938 10972
L13985 11051
L14033 11103
L14080 11129
" />
<path d="M13485 10972
L13438 10972
L13390 10998
L13366 11025
L13342 11077
L13319 11182
L13319 11313
L13342 11417
L13366 11470
L13390 11496
L13438 11522
L13485 11522
L13533 11496
L13557 11470
L13580 11417
L13604 11313
L13604 11182
L13580 11077
L13557 11025
L13533 10998
L13485 10972
" />
<path d="M14033 12322
L14200 12060
" />
<path d="M14319 12322
L14319 11772
L14128 11772
L14080 11798
L14057 11825
L14033 11877
L14033 11955
L14057 12008
L14080 12034
L14128 12060
L14319 12060
" />
<path d="M13795 12322
L13700 12322
L13652 12296
L13628 12270
L13580 12191
L13557 12086
L13557 11877
L13580 11825
L13604 11798
L13652 11772
L13747 11772
L13795 11798
L13819 11825
L13842 11877
L13842 12008
L13819 12060
L13795 12086
L13747 12113
L13652 12113
L13604 12086
L13580 12060
L13557 12008
" />
</g>
<g style="fill:#000000; fill-opacity:0.0; 
stroke:#000000; stroke-width:59.0551; stroke-opacity:1; 
stroke-linecap:round; stroke-linejoin:round;">
<path d="M28593 16155
L28593 15986
L28239 15986
" />
<path d="M28593 16273
L28239 16273
L28239 16357
L28255 16408
L28289 16442
L28323 16459
L28390 16475
L28441 16475
L28509 16459
L28542 16442
L28576 16408
L28593 16357
L28593 16273
" />
<path d="M28593 16830
L28424 16712
" />
<path d="M28593 16627
L28239 16627
L28239 16762
L28255 16796
L28272 16813
L28306 16830
L28357 16830
L28390 16813
L28407 16796
L28424 16762
L28424 16627
" />
</g>
<g style="fill:#000000; fill-opacity:0.0; 
stroke:#000000; stroke-width:120; stroke-opacity:1; 
stroke-linecap:round; stroke-linejoin:round;">
<path d="M12328 18428
L12357 18514
L12385 18542
L12442 18571
L12528 18571
L12585 18542
L12614 18514
L12642 18457
L12642 18228
L12042 18228
L12042 18428
L12071 18485
L12100 18514
L12157 18542
L12214 18542
L12271 18514
L12300 18485
L12328 18428
L12328 18228
" />
<path d="M12042 18742
L12042 19085
" />
<path d="M12642 18914
L12042 18914
" />
<path d="M12100 19257
L12071 19285
L12042 19342
L12042 19485
L12071 19542
L12100 19571
L12157 19600
L12214 19600
L12300 19571
L12642 19228
L12642 19600
" />
<path d="M12642 20835
L12042 20835
" />
<path d="M12328 20835
L12328 21178
" />
<path d="M12642 21178
L12042 21178
" />
<path d="M12585 21807
L12614 21778
L12642 21692
L12642 21635
L12614 21549
L12557 21492
L12500 21464
L12385 21435
L12300 21435
L12185 21464
L12128 21492
L12071 21549
L12042 21635
L12042 21692
L12071 21778
L12100 21807
" />
<path d="M12414 22064
L12414 22521
" />
<path d="M12042 22921
L12042 22978
L12071 23035
L12100 23064
L12157 23092
L12271 23121
L12414 23121
L12528 23092
L12585 23064
L12614 23035
L12642 22978
L12642 22921
L12614 22864
L12585 22835
L12528 22807
L12414 22778
L12271 22778
L12157 22807
L12100 22835
L12071 22864
L12042 22921
" />
<path d="M12042 23664
L12042 23378
L12328 23350
L12300 23378
L12271 23435
L12271 23578
L12300 23635
L12328 23664
L12385 23692
L12528 23692
L12585 23664
L12614 23635
L12642 23578
L12642 23435
L12614 23378
L12585 23350
" />
<path d="M19178 18428
L19207 18514
L19235 18542
L19292 18571
L19378 18571
L19435 18542
L19464 18514
L19492 18457
L19492 18228
L18892 18228
L18892 18428
L18921 18485
L18950 18514
L19007 18542
L19064 18542
L19121 18514
L19150 18485
L19178 18428
L19178 18228
" />
<path d="M18892 18742
L18892 19085
" />
<path d="M19492 18914
L18892 18914
" />
<path d="M19492 19600
L19492 19257
" />
<path d="M19492 19428
L18892 19428
L18978 19371
L19035 19314
L19064 19257
" />
<path d="M19492 20835
L18892 20835
" />
<path d="M19178 20835
L19178 21178
" />
<path d="M19492 21178
L18892 21178
" />
<path d="M19435 21807
L19464 21778
L19492 21692
L19492 21635
L19464 21549
L19407 21492
L19350 21464
L19235 21435
L19150 21435
L19035 21464
L18978 21492
L18921 21549
L18892 21635
L18892 21692
L18921 21778
L18950 21807
" />
<path d="M19264 22064
L19264 22521
" />
<path d="M18892 22921
L18892 22978
L18921 23035
L18950 23064
L19007 23092
L19121 23121
L19264 23121
L19378 23092
L19435 23064
L19464 23035
L19492 22978
L19492 22921
L19464 22864
L19435 22835
L19378 22807
L19264 22778
L19121 22778
L19007 22807
L18950 22835
L18921 22864
L18892 22921
" />
<path d="M18892 23664
L18892 23378
L19178 23350
L19150 23378
L19121 23435
L19121 23578
L19150 23635
L19178 23664
L19235 23692
L19378 23692
L19435 23664
L19464 23635
L19492 23578
L19492 23435
L19464 23378
L19435 23350
" />
<path d="M39614 12942
L39642 13028
L39642 13171
L39614 13228
L39585 13257
L39528 13285
L39471 13285
L39414 13257
L39385 13228
L39357 13171
L39328 13057
L39300 13000
L39271 12971
L39214 12942
L39157 12942
L39100 12971
L39071 13000
L39042 13057
L39042 13200
L39071 13285
" />
<path d="M39642 13628
L39614 13571
L39585 13542
L39528 13514
L39357 13514
L39300 13542
L39271 13571
L39242 13628
L39242 13714
L39271 13771
L39300 13800
L39357 13828
L39528 13828
L39585 13800
L39614 13771
L39642 13714
L39642 13628
" />
<path d="M39242 14342
L39642 14342
" />
<path d="M39242 14085
L39557 14085
L39614 14114
L39642 14171
L39642 14257
L39614 14314
L39585 14342
" />
<path d="M39242 14628
L39642 14628
" />
<path d="M39300 14628
L39271 14657
L39242 14714
L39242 14800
L39271 14857
L39328 14885
L39642 14885
" />
<path d="M39642 15428
L39042 15428
" />
<path d="M39614 15428
L39642 15371
L39642 15257
L39614 15200
L39585 15171
L39528 15142
L39357 15142
L39300 15171
L39271 15200
L39242 15257
L39242 15371
L39271 15428
" />
</g>
<g style="fill:#000000; fill-opacity:0.0; 
stroke:#000000; stroke-width:59.0551; stroke-opacity:1; 
stroke-linecap:round; stroke-linejoin:round;">
<path d="M34657 22776
L34674 22827
L34691 22844
L34725 22861
L34775 22861
L34809 22844
L34826 22827
L34843 22793
L34843 22658
L34489 22658
L34489 22776
L34505 22810
L34522 22827
L34556 22844
L34590 22844
L34624 22827
L34640 22810
L34657 22776
L34657 22658
" />
<path d="M34843 23012
L34489 23012
" />
<path d="M34657 23012
L34657 23215
" />
<path d="M34843 23215
L34489 23215
" />
<path d="M34843 23569
L34843 23367
" />
<path d="M34843 23468
L34489 23468
L34539 23434
L34573 23401
L34590 23367
" />
<path d="M34489 23687
L34489 23924
L34843 23772
" />
<path d="M34489 24227
L34489 24059
L34657 24042
L34640 24059
L34624 24092
L34624 24177
L34640 24210
L34657 24227
L34691 24244
L34775 24244
L34809 24227
L34826 24210
L34843 24177
L34843 24092
L34826 24059
L34809 24042
" />
<path d="M34489 24464
L34489 24497
L34505 24531
L34522 24548
L34556 24565
L34624 24582
L34708 24582
L34775 24565
L34809 24548
L34826 24531
L34843 24497
L34843 24464
L34826 24430
L34809 24413
L34775 24396
L34708 24379
L34624 24379
L34556 24396
L34522 24413
L34505 24430
L34489 24464
" />
<path d="M34657 24852
L34657 24733
" />
<path d="M34843 24733
L34489 24733
L34489 24902
" />
<path d="M34489 24987
L34843 25105
L34489 25223
" />
<path d="M34843 25341
L34489 25341
" />
</g> 
</svg>
