<?xml version="1.0" standalone="no"?>
 <!DOCTYPE svg PUBLIC "-//W3C//DTD SVG 1.1//EN" 
 "http://www.w3.org/Graphics/SVG/1.1/DTD/svg11.dtd"> 
<svg xmlns="http://www.w3.org/2000/svg" version="1.1" 
    width="31.2268cm" height="7.91718cm" viewBox="0 0 122940 31170 ">
<title>SVG Picture created as woerdclock-F_SilkS.svg date 2014/11/22 11:49:06 </title>
  <desc>Picture generated by PCBNEW </desc>
<g style="fill:#000000; fill-opacity:1;stroke:#000000; stroke-opacity:1;
stroke-linecap:round; stroke-linejoin:round; "
 transform="translate(0 0) scale(1 1)">
</g>
<g style="fill:#FFFF00; fill-opacity:0.0; 
stroke:#FFFF00; stroke-width:150; stroke-opacity:1; 
stroke-linecap:round; stroke-linejoin:round;">
<path d="M61273 5938
L3202 5938
" />
<path d="M3202 5544
L61273 5544
" />
<path d="M2415 4757
L2415 2001
" />
<path d="M2415 9481
L2415 6725
" />
<path d="M119738 10269
L3202 10269
" />
<path d="M119738 5938
L61667 5938
" />
<path d="M61667 5544
L119738 5544
" />
<path d="M120525 6725
L120525 9481
" />
<path d="M120525 2001
L120525 4757
" />
<path d="M3202 1213
L119738 1213
" />
<path d="M3202.65 5938.35 A787.402 787.402 0.0 0 0 2415.25 6725.75 " />
<path d="M2415.25 9481.65 A787.402 787.402 0.0 0 0 3202.65 10269.1 " />
<path d="M119738 10269.1 A787.402 787.402 0.0 0 0 120525 9481.65 " />
<path d="M120525 6725.75 A787.402 787.402 0.0 0 0 119738 5938.35 " />
<path d="M120525 2001.34 A787.402 787.402 0.0 0 0 119738 1213.94 " />
<path d="M119738 5544.65 A787.402 787.402 0.0 0 0 120525 4757.24 " />
<path d="M2415.25 4757.24 A787.402 787.402 0.0 0 0 3202.65 5544.65 " />
<path d="M3202.65 1213.94 A787.402 787.402 0.0 0 0 2415.25 2001.34 " />
<path d="M12415 29914
L12415 12198
" />
<path d="M50761 30898
L13399 30898
" />
<path d="M51785 12198
L51785 29954
" />
<path d="M13399 11213
L50801 11213
" />
<path d="M50761.5 30899 A985.039 985.039 0.0 0 0 51785.3 29954.3 " />
<path d="M51785.3 12198.2 A984.252 984.252 0.0 0 0 50801.1 11213.9 " />
<path d="M13399.5 11213.9 A984.252 984.252 0.0 0 0 12415.2 12198.2 " />
<path d="M12415.2 29914.7 A984.252 984.252 0.0 0 0 13399.5 30899 " />
<path d="M61667 5544
L61667 5938
" />
<path d="M61273 5938
L61273 5544
" />
</g>
<g style="fill:#00A0A0; fill-opacity:0.0; 
stroke:#00A0A0; stroke-width:100; stroke-opacity:1; 
stroke-linecap:round; stroke-linejoin:round;">
<path d="M101558 8075
L101558 8399
L101577 8437
L101596 8456
L101634 8475
L101710 8475
L101748 8456
L101768 8437
L101787 8399
L101787 8075
" />
<path d="M102168 8075
L101977 8075
L101958 8266
L101977 8247
L102015 8228
L102110 8228
L102148 8247
L102168 8266
L102187 8304
L102187 8399
L102168 8437
L102148 8456
L102110 8475
L102015 8475
L101977 8456
L101958 8437
" />
<path d="M99225 9582
L99225 9773
L99415 9792
L99396 9773
L99377 9735
L99377 9640
L99396 9602
L99415 9582
L99453 9563
L99548 9563
L99587 9582
L99606 9602
L99625 9640
L99625 9735
L99606 9773
L99587 9792
" />
<path d="M99225 9449
L99625 9316
L99225 9182
" />
<path d="M99396 8687
L99377 8725
L99358 8744
L99320 8763
L99301 8763
L99263 8744
L99244 8725
L99225 8687
L99225 8611
L99244 8573
L99263 8554
L99301 8535
L99320 8535
L99358 8554
L99377 8573
L99396 8611
L99396 8687
L99415 8725
L99434 8744
L99472 8763
L99548 8763
L99587 8744
L99606 8725
L99625 8687
L99625 8611
L99606 8573
L99587 8554
L99548 8535
L99472 8535
L99434 8554
L99415 8573
L99396 8611
" />
<path d="M99510 8382
L99510 8192
" />
<path d="M99625 8421
L99225 8287
L99625 8154
" />
<path d="M99472 7716
L99472 7411
" />
<path d="M99587 6992
L99606 7011
L99625 7068
L99625 7106
L99606 7163
L99568 7202
L99529 7221
L99453 7240
L99396 7240
L99320 7221
L99282 7202
L99244 7163
L99225 7106
L99225 7068
L99244 7011
L99263 6992
" />
<path d="M99625 6763
L99606 6802
L99587 6821
L99548 6840
L99434 6840
L99396 6821
L99377 6802
L99358 6763
L99358 6706
L99377 6668
L99396 6649
L99434 6630
L99548 6630
L99587 6649
L99606 6668
L99625 6706
L99625 6763
" />
<path d="M99472 6459
L99472 6154
" />
<path d="M99625 6306
L99320 6306
" />
</g>
<g style="fill:#00A0A0; fill-opacity:0.0; 
stroke:#00A0A0; stroke-width:120; stroke-opacity:1; 
stroke-linecap:round; stroke-linejoin:round;">
<path d="M23729 20394
L23758 20308
L23758 20166
L23729 20108
L23700 20080
L23643 20051
L23586 20051
L23529 20080
L23500 20108
L23472 20166
L23443 20280
L23415 20337
L23386 20366
L23329 20394
L23272 20394
L23215 20366
L23186 20337
L23158 20280
L23158 20137
L23186 20051
" />
<path d="M23758 19794
L23158 19794
L23158 19651
L23186 19566
L23243 19508
L23300 19480
L23415 19451
L23500 19451
L23615 19480
L23672 19508
L23729 19566
L23758 19651
L23758 19794
" />
<path d="M23529 19194
L23529 18737
" />
<path d="M23700 18108
L23729 18137
L23758 18223
L23758 18280
L23729 18366
L23672 18423
L23615 18451
L23500 18480
L23415 18480
L23300 18451
L23243 18423
L23186 18366
L23158 18280
L23158 18223
L23186 18137
L23215 18108
" />
<path d="M23586 17880
L23586 17594
" />
<path d="M23758 17937
L23158 17737
L23758 17537
" />
<path d="M23758 16994
L23472 17194
" />
<path d="M23758 17337
L23158 17337
L23158 17108
L23186 17051
L23215 17023
L23272 16994
L23358 16994
L23415 17023
L23443 17051
L23472 17108
L23472 17337
" />
<path d="M23758 16737
L23158 16737
L23158 16594
L23186 16508
L23243 16451
L23300 16423
L23415 16394
L23500 16394
L23615 16423
L23672 16451
L23729 16508
L23758 16594
L23758 16737
" />
<path d="M31236 27563
L31236 27278
" />
<path d="M31408 27621
L30808 27421
L31408 27221
" />
<path d="M31408 26678
L31122 26878
" />
<path d="M31408 27021
L30808 27021
L30808 26792
L30836 26735
L30865 26706
L30922 26678
L31008 26678
L31065 26706
L31093 26735
L31122 26792
L31122 27021
" />
<path d="M31408 26421
L30808 26421
L30808 26278
L30836 26192
L30893 26135
L30950 26106
L31065 26078
L31150 26078
L31265 26106
L31322 26135
L31379 26192
L31408 26278
L31408 26421
" />
<path d="M30808 25821
L31293 25821
L31350 25792
L31379 25763
L31408 25706
L31408 25592
L31379 25535
L31350 25506
L31293 25478
L30808 25478
" />
<path d="M31408 25192
L30808 25192
" />
<path d="M31408 24906
L30808 24906
L31408 24563
L30808 24563
" />
<path d="M30808 24163
L30808 24049
L30836 23992
L30893 23935
L31008 23906
L31208 23906
L31322 23935
L31379 23992
L31408 24049
L31408 24163
L31379 24221
L31322 24278
L31208 24306
L31008 24306
L30893 24278
L30836 24221
L30808 24163
" />
<path d="M31465 23792
L31465 23335
" />
<path d="M31408 23192
L30808 23192
L30808 22963
L30836 22906
L30865 22878
L30922 22849
L31008 22849
L31065 22878
L31093 22906
L31122 22963
L31122 23192
" />
<path d="M31408 22249
L31122 22449
" />
<path d="M31408 22592
L30808 22592
L30808 22363
L30836 22306
L30865 22278
L30922 22249
L31008 22249
L31065 22278
L31093 22306
L31122 22363
L31122 22592
" />
<path d="M30808 21878
L30808 21763
L30836 21706
L30893 21649
L31008 21621
L31208 21621
L31322 21649
L31379 21706
L31408 21763
L31408 21878
L31379 21935
L31322 21992
L31208 22021
L31008 22021
L30893 21992
L30836 21935
L30808 21878
" />
<path d="M31465 21506
L31465 21049
" />
<path d="M31408 20906
L30808 20906
L31236 20706
L30808 20506
L31408 20506
" />
<path d="M31408 20221
L30808 20221
" />
<path d="M31350 19592
L31379 19621
L31408 19706
L31408 19763
L31379 19849
L31322 19906
L31265 19935
L31150 19963
L31065 19963
L30950 19935
L30893 19906
L30836 19849
L30808 19763
L30808 19706
L30836 19621
L30865 19592
" />
<path d="M31408 18992
L31122 19192
" />
<path d="M31408 19335
L30808 19335
L30808 19106
L30836 19049
L30865 19021
L30922 18992
L31008 18992
L31065 19021
L31093 19049
L31122 19106
L31122 19335
" />
<path d="M30808 18621
L30808 18506
L30836 18449
L30893 18392
L31008 18363
L31208 18363
L31322 18392
L31379 18449
L31408 18506
L31408 18621
L31379 18678
L31322 18735
L31208 18763
L31008 18763
L30893 18735
L30836 18678
L30808 18621
" />
<path d="M24058 22092
L24258 22092
" />
<path d="M24343 22406
L24058 22406
L24058 21806
L24343 21806
" />
<path d="M24572 22378
L24658 22406
L24800 22406
L24858 22378
L24886 22349
L24915 22292
L24915 22235
L24886 22178
L24858 22149
L24800 22121
L24686 22092
L24629 22063
L24600 22035
L24572 21978
L24572 21921
L24600 21863
L24629 21835
L24686 21806
L24829 21806
L24915 21835
" />
<path d="M25172 22406
L25172 21806
L25400 21806
L25458 21835
L25486 21863
L25515 21921
L25515 22006
L25486 22063
L25458 22092
L25400 22121
L25172 22121
" />
<path d="M25858 22063
L25800 22035
L25772 22006
L25743 21949
L25743 21921
L25772 21863
L25800 21835
L25858 21806
L25972 21806
L26029 21835
L26058 21863
L26086 21921
L26086 21949
L26058 22006
L26029 22035
L25972 22063
L25858 22063
L25800 22092
L25772 22121
L25743 22178
L25743 22292
L25772 22349
L25800 22378
L25858 22406
L25972 22406
L26029 22378
L26058 22349
L26086 22292
L26086 22178
L26058 22121
L26029 22092
L25972 22063
" />
<path d="M26315 21863
L26343 21835
L26400 21806
L26543 21806
L26600 21835
L26629 21863
L26658 21921
L26658 21978
L26629 22063
L26286 22406
L26658 22406
" />
<path d="M27172 21806
L27058 21806
L27000 21835
L26972 21863
L26915 21949
L26886 22063
L26886 22292
L26915 22349
L26943 22378
L27000 22406
L27115 22406
L27172 22378
L27200 22349
L27229 22292
L27229 22149
L27200 22092
L27172 22063
L27115 22035
L27000 22035
L26943 22063
L26915 22092
L26886 22149
" />
<path d="M27743 21806
L27629 21806
L27572 21835
L27543 21863
L27486 21949
L27458 22063
L27458 22292
L27486 22349
L27515 22378
L27572 22406
L27686 22406
L27743 22378
L27772 22349
L27800 22292
L27800 22149
L27772 22092
L27743 22063
L27686 22035
L27572 22035
L27515 22063
L27486 22092
L27458 22149
" />
</g>
<g style="fill:#00A0A0; fill-opacity:0.0; 
stroke:#00A0A0; stroke-width:80; stroke-opacity:1; 
stroke-linecap:round; stroke-linejoin:round;">
<path d="M21520 30275
L21767 30275
L21634 30428
L21691 30428
L21729 30447
L21748 30466
L21767 30504
L21767 30599
L21748 30637
L21729 30656
L21691 30675
L21577 30675
L21539 30656
L21520 30637
" />
<path d="M21881 30275
L22015 30675
L22148 30275
" />
<path d="M22243 30275
L22491 30275
L22358 30428
L22415 30428
L22453 30447
L22472 30466
L22491 30504
L22491 30599
L22472 30637
L22453 30656
L22415 30675
L22300 30675
L22262 30656
L22243 30637
" />
</g>
<g style="fill:#00A0A0; fill-opacity:0.0; 
stroke:#00A0A0; stroke-width:120; stroke-opacity:1; 
stroke-linecap:round; stroke-linejoin:round;">
<path d="M41043 27118
L40758 27318
" />
<path d="M41043 27461
L40443 27461
L40443 27232
L40472 27175
L40501 27147
L40558 27118
L40643 27118
L40701 27147
L40729 27175
L40758 27232
L40758 27461
" />
<path d="M40443 26947
L40443 26604
" />
<path d="M41043 26775
L40443 26775
" />
<path d="M40986 26061
L41015 26089
L41043 26175
L41043 26232
L41015 26318
L40958 26375
L40901 26404
L40786 26432
L40701 26432
L40586 26404
L40529 26375
L40472 26318
L40443 26232
L40443 26175
L40472 26089
L40501 26061
" />
<path d="M41101 25947
L41101 25489
" />
<path d="M41043 25347
L40443 25347
L40872 25147
L40443 24947
L41043 24947
" />
<path d="M40443 24547
L40443 24432
L40472 24375
L40529 24318
L40643 24289
L40843 24289
L40958 24318
L41015 24375
L41043 24432
L41043 24547
L41015 24604
L40958 24661
L40843 24689
L40643 24689
L40529 24661
L40472 24604
L40443 24547
" />
<path d="M41043 24032
L40443 24032
L40443 23889
L40472 23804
L40529 23747
L40586 23718
L40701 23689
L40786 23689
L40901 23718
L40958 23747
L41015 23804
L41043 23889
L41043 24032
" />
<path d="M40443 23432
L40929 23432
L40986 23404
L41015 23375
L41043 23318
L41043 23204
L41015 23147
L40986 23118
L40929 23089
L40443 23089
" />
<path d="M41043 22518
L41043 22804
L40443 22804
" />
<path d="M37315 16706
L37315 16106
L37458 16106
L37543 16135
L37600 16192
L37629 16249
L37658 16363
L37658 16449
L37629 16563
L37600 16621
L37543 16678
L37458 16706
L37315 16706
" />
<path d="M37915 16706
L37915 16106
" />
<path d="M37915 16392
L38258 16392
" />
<path d="M38258 16706
L38258 16106
" />
<path d="M38458 16106
L38800 16106
" />
<path d="M38629 16706
L38629 16106
" />
<path d="M45058 15549
L45058 15892
" />
<path d="M45058 15721
L44458 15721
L44543 15778
L44600 15835
L44629 15892
" />
<path d="M44458 15178
L44458 15121
L44486 15063
L44515 15035
L44572 15006
L44686 14978
L44829 14978
L44943 15006
L45000 15035
L45029 15063
L45058 15121
L45058 15178
L45029 15235
L45000 15263
L44943 15292
L44829 15321
L44686 15321
L44572 15292
L44515 15263
L44486 15235
L44458 15178
" />
<path d="M45058 14721
L44458 14721
L44458 14578
L44486 14492
L44543 14435
L44600 14406
L44715 14378
L44800 14378
L44915 14406
L44972 14435
L45029 14492
L45058 14578
L45058 14721
" />
<path d="M44458 14006
L44458 13892
L44486 13835
L44543 13778
L44658 13749
L44858 13749
L44972 13778
L45029 13835
L45058 13892
L45058 14006
L45029 14063
L44972 14121
L44858 14149
L44658 14149
L44543 14121
L44486 14063
L44458 14006
" />
<path d="M44743 13292
L44743 13492
" />
<path d="M45058 13492
L44458 13492
L44458 13206
" />
<path d="M14879 28487
L14879 27887
L15022 27887
L15108 27916
L15165 27973
L15193 28030
L15222 28144
L15222 28230
L15193 28344
L15165 28401
L15108 28458
L15022 28487
L14879 28487
" />
<path d="M15822 28430
L15793 28458
L15708 28487
L15650 28487
L15565 28458
L15508 28401
L15479 28344
L15450 28230
L15450 28144
L15479 28030
L15508 27973
L15565 27916
L15650 27887
L15708 27887
L15793 27916
L15822 27944
" />
<path d="M16279 28173
L16079 28173
" />
<path d="M16079 28487
L16079 27887
L16365 27887
" />
<path d="M16536 27887
L16936 27887
L16679 28487
" />
<path d="M17108 27887
L17508 27887
L17250 28487
" />
</g>
<g style="fill:#00A0A0; fill-opacity:0.0; 
stroke:#00A0A0; stroke-width:80; stroke-opacity:1; 
stroke-linecap:round; stroke-linejoin:round;">
<path d="M48381 24637
L48439 24656
L48534 24656
L48572 24637
L48591 24618
L48610 24580
L48610 24542
L48591 24504
L48572 24485
L48534 24466
L48458 24447
L48420 24427
L48400 24408
L48381 24370
L48381 24332
L48400 24294
L48420 24275
L48458 24256
L48553 24256
L48610 24275
" />
<path d="M48743 24256
L48839 24656
L48915 24370
L48991 24656
L49086 24256
" />
<path d="M49220 24294
L49239 24275
L49277 24256
L49372 24256
L49410 24275
L49429 24294
L49448 24332
L49448 24370
L49429 24427
L49200 24656
L49448 24656
" />
<path d="M51227 24635
L51208 24673
L51189 24692
L51150 24711
L51036 24711
L50998 24692
L50979 24673
L50960 24635
L50960 24577
L50979 24539
L50998 24520
L51036 24501
L51150 24501
L51189 24520
L51208 24539
L51227 24577
L51227 24635
" />
<path d="M51227 24330
L50827 24330
" />
<path d="M51074 24292
L51227 24177
" />
<path d="M50960 24177
L51112 24330
" />
<path d="M48381 27637
L48439 27656
L48534 27656
L48572 27637
L48591 27618
L48610 27580
L48610 27542
L48591 27504
L48572 27485
L48534 27466
L48458 27447
L48420 27427
L48400 27408
L48381 27370
L48381 27332
L48400 27294
L48420 27275
L48458 27256
L48553 27256
L48610 27275
" />
<path d="M48743 27256
L48839 27656
L48915 27370
L48991 27656
L49086 27256
" />
<path d="M49200 27256
L49448 27256
L49315 27408
L49372 27408
L49410 27427
L49429 27447
L49448 27485
L49448 27580
L49429 27618
L49410 27637
L49372 27656
L49258 27656
L49220 27637
L49200 27618
" />
<path d="M51227 27930
L50827 27930
" />
<path d="M51208 27930
L51227 27968
L51227 28044
L51208 28082
L51189 28101
L51150 28120
L51036 28120
L50998 28101
L50979 28082
L50960 28044
L50960 27968
L50979 27930
" />
<path d="M51227 27682
L51208 27720
L51189 27739
L51150 27758
L51036 27758
L50998 27739
L50979 27720
L50960 27682
L50960 27625
L50979 27587
L50998 27568
L51036 27549
L51150 27549
L51189 27568
L51208 27587
L51227 27625
L51227 27682
" />
<path d="M50960 27416
L51227 27339
L51036 27263
L51227 27187
L50960 27111
" />
<path d="M50960 26958
L51227 26958
" />
<path d="M50998 26958
L50979 26939
L50960 26901
L50960 26844
L50979 26806
L51017 26787
L51227 26787
" />
<path d="M48381 21587
L48439 21606
L48534 21606
L48572 21587
L48591 21568
L48610 21530
L48610 21492
L48591 21454
L48572 21435
L48534 21416
L48458 21397
L48420 21377
L48400 21358
L48381 21320
L48381 21282
L48400 21244
L48420 21225
L48458 21206
L48553 21206
L48610 21225
" />
<path d="M48743 21206
L48839 21606
L48915 21320
L48991 21606
L49086 21206
" />
<path d="M49448 21606
L49220 21606
" />
<path d="M49334 21606
L49334 21206
L49296 21263
L49258 21301
L49220 21320
" />
<path d="M50910 21539
L51177 21539
" />
<path d="M50910 21711
L51120 21711
L51158 21692
L51177 21654
L51177 21597
L51158 21558
L51139 21539
" />
<path d="M50910 21349
L51310 21349
" />
<path d="M50929 21349
L50910 21311
L50910 21235
L50929 21197
L50948 21177
L50986 21158
L51100 21158
L51139 21177
L51158 21197
L51177 21235
L51177 21311
L51158 21349
" />
<path d="M37498 19968
L37479 19987
L37422 20006
L37384 20006
L37327 19987
L37289 19949
L37270 19911
L37250 19835
L37250 19777
L37270 19701
L37289 19663
L37327 19625
L37384 19606
L37422 19606
L37479 19625
L37498 19644
" />
<path d="M37879 20006
L37650 20006
" />
<path d="M37765 20006
L37765 19606
L37727 19663
L37689 19701
L37650 19720
" />
<path d="M21748 26987
L21729 27006
L21672 27025
L21634 27025
L21577 27006
L21539 26968
L21520 26930
L21500 26854
L21500 26797
L21520 26721
L21539 26682
L21577 26644
L21634 26625
L21672 26625
L21729 26644
L21748 26663
" />
<path d="M21900 26663
L21920 26644
L21958 26625
L22053 26625
L22091 26644
L22110 26663
L22129 26702
L22129 26740
L22110 26797
L21881 27025
L22129 27025
" />
<path d="M39598 19968
L39579 19987
L39522 20006
L39484 20006
L39427 19987
L39389 19949
L39370 19911
L39350 19835
L39350 19777
L39370 19701
L39389 19663
L39427 19625
L39484 19606
L39522 19606
L39579 19625
L39598 19644
" />
<path d="M39731 19606
L39979 19606
L39846 19758
L39903 19758
L39941 19777
L39960 19797
L39979 19835
L39979 19930
L39960 19968
L39941 19987
L39903 20006
L39789 20006
L39750 19987
L39731 19968
" />
</g>
<g style="fill:#00A0A0; fill-opacity:0.0; 
stroke:#00A0A0; stroke-width:59.0551; stroke-opacity:1; 
stroke-linecap:round; stroke-linejoin:round;">
<path d="M18774 21657
L18587 21788
" />
<path d="M18774 21882
L18380 21882
L18380 21732
L18399 21695
L18418 21676
L18455 21657
L18512 21657
L18549 21676
L18568 21695
L18587 21732
L18587 21882
" />
<path d="M18568 21357
L18568 21488
" />
<path d="M18774 21488
L18380 21488
L18380 21301
" />
<path d="M18774 21151
L18380 21151
L18662 21020
L18380 20888
L18774 20888
" />
<path d="M18774 20495
L18774 20720
" />
<path d="M18774 20607
L18380 20607
L18437 20645
L18474 20682
L18493 20720
" />
<path d="M18418 20345
L18399 20326
L18380 20289
L18380 20195
L18399 20157
L18418 20139
L18455 20120
L18493 20120
L18549 20139
L18774 20363
L18774 20120
" />
<path d="M18568 19820
L18587 19764
L18605 19745
L18643 19726
L18699 19726
L18737 19745
L18755 19764
L18774 19801
L18774 19951
L18380 19951
L18380 19820
L18399 19782
L18418 19764
L18455 19745
L18493 19745
L18530 19764
L18549 19782
L18568 19820
L18568 19951
" />
</g>
<g style="fill:#00A0A0; fill-opacity:0.0; 
stroke:#00A0A0; stroke-width:80; stroke-opacity:1; 
stroke-linecap:round; stroke-linejoin:round;">
<path d="M31820 15025
L31820 14625
L31972 14625
L32010 14644
L32029 14663
L32048 14702
L32048 14759
L32029 14797
L32010 14816
L31972 14835
L31820 14835
" />
<path d="M32277 14797
L32239 14778
L32220 14759
L32200 14721
L32200 14702
L32220 14663
L32239 14644
L32277 14625
L32353 14625
L32391 14644
L32410 14663
L32429 14702
L32429 14721
L32410 14759
L32391 14778
L32353 14797
L32277 14797
L32239 14816
L32220 14835
L32200 14873
L32200 14949
L32220 14987
L32239 15006
L32277 15025
L32353 15025
L32391 15006
L32410 14987
L32429 14949
L32429 14873
L32410 14835
L32391 14816
L32353 14797
" />
<path d="M57441 9765
L57441 9365
L57593 9365
L57631 9384
L57650 9403
L57669 9441
L57669 9498
L57650 9537
L57631 9556
L57593 9575
L57441 9575
" />
<path d="M58050 9765
L57822 9765
" />
<path d="M57936 9765
L57936 9365
L57898 9422
L57860 9460
L57822 9479
" />
<path d="M58431 9765
L58203 9765
" />
<path d="M58317 9765
L58317 9365
L58279 9422
L58241 9460
L58203 9479
" />
<path d="M25993 26486
L25827 26224
" />
<path d="M25708 26486
L25708 25936
L25898 25936
L25946 25962
L25970 25988
L25993 26041
L25993 26119
L25970 26172
L25946 26198
L25898 26224
L25708 26224
" />
<path d="M26470 26486
L26184 26486
" />
<path d="M26327 26486
L26327 25936
L26279 26015
L26231 26067
L26184 26093
" />
<path d="M26708 26486
L26803 26486
L26850 26460
L26874 26434
L26922 26355
L26946 26250
L26946 26041
L26922 25988
L26898 25962
L26850 25936
L26755 25936
L26708 25962
L26684 25988
L26660 26041
L26660 26172
L26684 26224
L26708 26250
L26755 26277
L26850 26277
L26898 26250
L26922 26224
L26946 26172
" />
<path d="M25993 25586
L25827 25324
" />
<path d="M25708 25586
L25708 25036
L25898 25036
L25946 25062
L25970 25088
L25993 25141
L25993 25219
L25970 25272
L25946 25298
L25898 25324
L25708 25324
" />
<path d="M26470 25586
L26184 25586
" />
<path d="M26327 25586
L26327 25036
L26279 25115
L26231 25167
L26184 25193
" />
<path d="M26898 25219
L26898 25586
" />
<path d="M26779 25010
L26660 25403
L26970 25403
" />
<path d="M25993 27986
L25827 27724
" />
<path d="M25708 27986
L25708 27436
L25898 27436
L25946 27462
L25970 27488
L25993 27541
L25993 27619
L25970 27672
L25946 27698
L25898 27724
L25708 27724
" />
<path d="M26470 27986
L26184 27986
" />
<path d="M26327 27986
L26327 27436
L26279 27515
L26231 27567
L26184 27593
" />
<path d="M26636 27436
L26946 27436
L26779 27646
L26850 27646
L26898 27672
L26922 27698
L26946 27750
L26946 27881
L26922 27934
L26898 27960
L26850 27986
L26708 27986
L26660 27960
L26636 27934
" />
<path d="M25993 27186
L25827 26924
" />
<path d="M25708 27186
L25708 26636
L25898 26636
L25946 26662
L25970 26688
L25993 26741
L25993 26819
L25970 26872
L25946 26898
L25898 26924
L25708 26924
" />
<path d="M26470 27186
L26184 27186
" />
<path d="M26327 27186
L26327 26636
L26279 26715
L26231 26767
L26184 26793
" />
<path d="M26660 26688
L26684 26662
L26731 26636
L26850 26636
L26898 26662
L26922 26688
L26946 26741
L26946 26793
L26922 26872
L26636 27186
L26946 27186
" />
<path d="M33343 16786
L33177 16524
" />
<path d="M33058 16786
L33058 16236
L33248 16236
L33296 16262
L33320 16288
L33343 16341
L33343 16419
L33320 16472
L33296 16498
L33248 16524
L33058 16524
" />
<path d="M33534 16288
L33558 16262
L33605 16236
L33724 16236
L33772 16262
L33796 16288
L33820 16341
L33820 16393
L33796 16472
L33510 16786
L33820 16786
" />
<path d="M34129 16236
L34177 16236
L34224 16262
L34248 16288
L34272 16341
L34296 16446
L34296 16577
L34272 16681
L34248 16734
L34224 16760
L34177 16786
L34129 16786
L34081 16760
L34058 16734
L34034 16681
L34010 16577
L34010 16446
L34034 16341
L34058 16288
L34081 16262
L34129 16236
" />
</g>
<g style="fill:#00A0A0; fill-opacity:0.0; 
stroke:#00A0A0; stroke-width:60; stroke-opacity:1; 
stroke-linecap:round; stroke-linejoin:round;">
<path d="M29369 15405
L29369 15619
L29355 15662
L29327 15691
L29284 15705
L29255 15705
" />
<path d="M29512 15705
L29512 15405
L29627 15405
L29655 15419
L29669 15434
L29684 15462
L29684 15505
L29669 15534
L29655 15548
L29627 15562
L29512 15562
" />
<path d="M29784 15405
L29969 15405
L29869 15519
L29912 15519
L29941 15534
L29955 15548
L29969 15576
L29969 15648
L29955 15676
L29941 15691
L29912 15705
L29827 15705
L29798 15691
L29784 15676
" />
<path d="M27236 13763
L27450 13763
L27493 13778
L27522 13806
L27536 13849
L27536 13878
" />
<path d="M27536 13621
L27236 13621
L27236 13506
L27250 13478
L27265 13463
L27293 13449
L27336 13449
L27365 13463
L27379 13478
L27393 13506
L27393 13621
" />
<path d="M27536 13163
L27536 13335
" />
<path d="M27536 13249
L27236 13249
L27279 13278
L27308 13306
L27322 13335
" />
<path d="M20486 13813
L20700 13813
L20743 13828
L20772 13856
L20786 13899
L20786 13928
" />
<path d="M20786 13671
L20486 13671
L20486 13556
L20500 13528
L20515 13513
L20543 13499
L20586 13499
L20615 13513
L20629 13528
L20643 13556
L20643 13671
" />
<path d="M20515 13385
L20500 13371
L20486 13342
L20486 13271
L20500 13242
L20515 13228
L20543 13213
L20572 13213
L20615 13228
L20786 13399
L20786 13213
" />
<path d="M117236 2054
L117450 2054
L117493 2068
L117522 2097
L117536 2140
L117536 2168
" />
<path d="M117536 1911
L117236 1911
L117236 1797
L117250 1768
L117265 1754
L117293 1740
L117336 1740
L117365 1754
L117379 1768
L117393 1797
L117393 1911
" />
<path d="M117336 1483
L117536 1483
" />
<path d="M117222 1554
L117436 1625
L117436 1440
" />
<path d="M34415 14735
L34415 14949
L34400 14992
L34372 15021
L34329 15035
L34300 15035
" />
<path d="M34558 15035
L34558 14735
L34672 14735
L34700 14749
L34715 14763
L34729 14792
L34729 14835
L34715 14863
L34700 14878
L34672 14892
L34558 14892
" />
<path d="M35000 14735
L34858 14735
L34843 14878
L34858 14863
L34886 14849
L34958 14849
L34986 14863
L35000 14878
L35015 14906
L35015 14978
L35000 15006
L34986 15021
L34958 15035
L34886 15035
L34858 15021
L34843 15006
" />
<path d="M20477 27397
L20762 27397
L20820 27416
L20858 27454
L20877 27511
L20877 27549
" />
<path d="M20877 27206
L20477 27206
L20477 27054
L20496 27016
L20515 26997
L20553 26978
L20610 26978
L20648 26997
L20667 27016
L20686 27054
L20686 27206
" />
<path d="M20477 26635
L20477 26711
L20496 26749
L20515 26768
L20572 26806
L20648 26825
L20800 26825
L20839 26806
L20858 26787
L20877 26749
L20877 26673
L20858 26635
L20839 26616
L20800 26597
L20705 26597
L20667 26616
L20648 26635
L20629 26673
L20629 26749
L20648 26787
L20667 26806
L20705 26825
" />
</g>
<g style="fill:#00A0A0; fill-opacity:0.0; 
stroke:#00A0A0; stroke-width:150; stroke-opacity:1; 
stroke-linecap:round; stroke-linejoin:round;">
<path d="M100144 12281
L100144 12581
" />
<path d="M100144 12581
L103544 12581
" />
<path d="M103544 12581
L103544 12281
" />
<path d="M100144 11081
L103544 11081
" />
<path d="M100144 7281
L103544 7281
" />
<path d="M103544 12281
L103544 7281
" />
<path d="M100144 12281
L100144 7281
" />
<path d="M14321 14213
L14321 25394
" />
<path d="M14321 25394
L24164 25394
" />
<path d="M24164 25394
L24164 14213
" />
<path d="M24164 14213
L14321 14213
" />
<path d="M30665 30963
L30665 29963
" />
<path d="M33665 30963
L30665 30963
" />
<path d="M33665 30963
L33665 29963
" />
<path d="M28665 29963
L28665 16963
" />
<path d="M35665 29963
L35665 16963
" />
<path d="M28665 29963
L35665 29963
" />
<path d="M35665 16963
L28665 16963
" />
<path d="M28665 21163
L28665 30913
" />
<path d="M28665 30913
L22915 30913
" />
<path d="M22915 30913
L22915 21163
" />
<path d="M22915 21163
L28665 21163
" />
</g>
<g style="fill:#00A0A0; fill-opacity:0.0; 
stroke:#00A0A0; stroke-width:120; stroke-opacity:1; 
stroke-linecap:round; stroke-linejoin:round;">
<path d="M21215 30363
L22715 28863
" />
<path d="M22715 28863
L22715 28363
" />
<path d="M22715 28363
L22215 27863
" />
<path d="M22215 27863
L21215 27863
" />
<path d="M21215 27863
L20215 28863
" />
<path d="M20215 28863
L20215 29863
" />
<path d="M20215 29863
L20715 30363
" />
<path d="M20715 30363
L21215 30363
" />
</g>
<g style="fill:#00A0A0; fill-opacity:0.0; 
stroke:#00A0A0; stroke-width:150; stroke-opacity:1; 
stroke-linecap:round; stroke-linejoin:round;">
<path d="M47123 19455
L47123 30872
" />
<path d="M47123 30872
L35706 30872
" />
<path d="M35706 30872
L35706 19455
" />
<path d="M35706 19455
L47123 19455
" />
<path d="M35653 17463
L35653 11361
" />
<path d="M35653 11361
L40377 11361
" />
<path d="M40377 11361
L40377 17463
" />
<path d="M40377 17463
L35653 17463
" />
<path d="M40534 18010
L40534 11317
" />
<path d="M40534 11317
L49195 11317
" />
<path d="M49195 11317
L49195 18010
" />
<path d="M49195 18010
L40534 18010
" />
<path d="M13665 27213
L13665 30213
" />
<path d="M19118 26548
L19118 30879
" />
<path d="M19118 30879
L13212 30879
" />
<path d="M13212 30879
L13212 26548
" />
<path d="M13212 26548
L19118 26548
" />
</g>
<g style="fill:#00A0A0; fill-opacity:0.0; 
stroke:#00A0A0; stroke-width:50; stroke-opacity:1; 
stroke-linecap:round; stroke-linejoin:round;">
<circle cx="48915.2" cy="24463.9" r="1000" /> 
<path d="M47415 22963
L50415 22963
" />
<path d="M50415 22963
L50415 25963
" />
<path d="M50415 25963
L47415 25963
" />
<path d="M47415 22963
L47415 25963
" />
<circle cx="48915.2" cy="27463.9" r="1000" /> 
<path d="M47415 25963
L50415 25963
" />
<path d="M50415 25963
L50415 28963
" />
<path d="M50415 28963
L47415 28963
" />
<path d="M47415 25963
L47415 28963
" />
<circle cx="48915.2" cy="21463.9" r="1000" /> 
<path d="M47415 19963
L50415 19963
" />
<path d="M50415 19963
L50415 22963
" />
<path d="M50415 22963
L47415 22963
" />
<path d="M47415 19963
L47415 22963
" />
</g>
<g style="fill:#00A0A0; fill-opacity:0.0; 
stroke:#00A0A0; stroke-width:120; stroke-opacity:1; 
stroke-linecap:round; stroke-linejoin:round;">
<path d="M36585 18363
L38565 18363
" />
<path d="M38565 18363
L38565 19363
" />
<path d="M38565 19363
L36565 19363
" />
<path d="M36565 19363
L36565 18363
" />
<path d="M36565 18613
L36815 18363
" />
<path d="M22895 26463
L20915 26463
" />
<path d="M20915 26463
L20915 25463
" />
<path d="M20915 25463
L22915 25463
" />
<path d="M22915 25463
L22915 26463
" />
<path d="M22915 26213
L22665 26463
" />
<path d="M38685 18363
L40665 18363
" />
<path d="M40665 18363
L40665 19363
" />
<path d="M40665 19363
L38665 19363
" />
<path d="M38665 19363
L38665 18363
" />
<path d="M38665 18613
L38915 18363
" />
</g>
<g style="fill:#00A0A0; fill-opacity:0.0; 
stroke:#00A0A0; stroke-width:59.0551; stroke-opacity:1; 
stroke-linecap:round; stroke-linejoin:round;">
<circle cx="16409" cy="21995" r="1244.99" /> 
<path d="M19164 17664
L19164 23963
" />
<path d="M19164 23963
L12865 23963
" />
<path d="M12865 23963
L12865 17664
" />
<path d="M12865 17664
L19164 17664
" />
</g>
<g style="fill:#00A0A0; fill-opacity:0.0; 
stroke:#00A0A0; stroke-width:80; stroke-opacity:1; 
stroke-linecap:round; stroke-linejoin:round;">
<path d="M30615 12363
L33615 12363
" />
<path d="M33615 14363
L30615 14363
" />
<path d="M30615 14363
L30615 12363
" />
<path d="M33615 12363
L33615 14363
" />
<path d="M56427 7103
L59427 7103
" />
<path d="M59427 9103
L56427 9103
" />
<path d="M56427 9103
L56427 7103
" />
<path d="M59427 7103
L59427 9103
" />
</g>
<g style="fill:#00A0A0; fill-opacity:0.0; 
stroke:#00A0A0; stroke-width:150; stroke-opacity:1; 
stroke-linecap:round; stroke-linejoin:round;">
<circle cx="9560.92" cy="3379.29" r="984.252" /> 
<circle cx="113380" cy="3379.29" r="984.252" /> 
<circle cx="113380" cy="8103.7" r="984.252" /> 
<circle cx="44167.2" cy="8103.7" r="984.252" /> 
<circle cx="44167.2" cy="3379.29" r="984.252" /> 
<circle cx="9560.92" cy="8103.7" r="984.252" /> 
<circle cx="78773.5" cy="3379.29" r="984.252" /> 
<circle cx="78773.5" cy="8103.7" r="984.252" /> 
<path d="M14777 14914
L15171 15308
" />
<path d="M15171 15308
L14777 15702
" />
<path d="M12415 13339
L14383 13339
" />
<path d="M14383 13339
L14383 17276
" />
<path d="M14383 17276
L12415 17276
" />
<path d="M14934 6725
L15328 6332
" />
<path d="M15328 6332
L15722 6725
" />
<path d="M13360 9087
L13360 7119
" />
<path d="M13360 7119
L17297 7119
" />
<path d="M17297 7119
L17297 9087
" />
<path d="M38005 6725
L38399 6332
" />
<path d="M38399 6332
L38793 6725
" />
<path d="M36430 9087
L36430 7119
" />
<path d="M36430 7119
L40368 7119
" />
<path d="M40368 7119
L40368 9087
" />
<path d="M61076 6725
L61470 6332
" />
<path d="M61470 6332
L61864 6725
" />
<path d="M59501 9087
L59501 7119
" />
<path d="M59501 7119
L63438 7119
" />
<path d="M63438 7119
L63438 9087
" />
<path d="M84147 6725
L84541 6332
" />
<path d="M84541 6332
L84934 6725
" />
<path d="M82572 9087
L82572 7119
" />
<path d="M82572 7119
L86509 7119
" />
<path d="M86509 7119
L86509 9087
" />
<path d="M107218 6725
L107612 6332
" />
<path d="M107612 6332
L108005 6725
" />
<path d="M105643 9087
L105643 7119
" />
<path d="M105643 7119
L109580 7119
" />
<path d="M109580 7119
L109580 9087
" />
<path d="M96470 4757
L96076 5150
" />
<path d="M96076 5150
L95682 4757
" />
<path d="M98045 2395
L98045 4363
" />
<path d="M98045 4363
L94108 4363
" />
<path d="M94108 4363
L94108 2395
" />
<path d="M73399 4757
L73005 5150
" />
<path d="M73005 5150
L72612 4757
" />
<path d="M74974 2395
L74974 4363
" />
<path d="M74974 4363
L71037 4363
" />
<path d="M71037 4363
L71037 2395
" />
<path d="M50328 4757
L49934 5150
" />
<path d="M49934 5150
L49541 4757
" />
<path d="M51903 2395
L51903 4363
" />
<path d="M51903 4363
L47966 4363
" />
<path d="M47966 4363
L47966 2395
" />
<path d="M27257 4757
L26864 5150
" />
<path d="M26864 5150
L26470 4757
" />
<path d="M28832 2395
L28832 4363
" />
<path d="M28832 4363
L24895 4363
" />
<path d="M24895 4363
L24895 2395
" />
<path d="M4186 4757
L3793 5150
" />
<path d="M3793 5150
L3399 4757
" />
<path d="M5761 2395
L5761 4363
" />
<path d="M5761 4363
L1824 4363
" />
<path d="M1824 4363
L1824 2395
" />
<path d="M119541 4757
L119147 5150
" />
<path d="M119147 5150
L118753 4757
" />
<path d="M121116 2395
L121116 4363
" />
<path d="M121116 4363
L117179 4363
" />
<path d="M117179 4363
L117179 2395
" />
<path d="M108005 5150
L107612 4757
" />
<path d="M107612 4757
L107218 5150
" />
<path d="M109580 2395
L109580 4363
" />
<path d="M109580 4363
L105643 4363
" />
<path d="M105643 4363
L105643 2395
" />
<path d="M118753 6332
L119147 6725
" />
<path d="M119147 6725
L119541 6332
" />
<path d="M117179 9087
L117179 7119
" />
<path d="M117179 7119
L121116 7119
" />
<path d="M121116 7119
L121116 9087
" />
<path d="M95682 6332
L96076 6725
" />
<path d="M96076 6725
L96470 6332
" />
<path d="M94108 9087
L94108 7119
" />
<path d="M94108 7119
L98045 7119
" />
<path d="M98045 7119
L98045 9087
" />
<path d="M72612 6332
L73005 6725
" />
<path d="M73005 6725
L73399 6332
" />
<path d="M71037 9087
L71037 7119
" />
<path d="M71037 7119
L74974 7119
" />
<path d="M74974 7119
L74974 9087
" />
<path d="M49541 6332
L49934 6725
" />
<path d="M49934 6725
L50328 6332
" />
<path d="M47966 9087
L47966 7119
" />
<path d="M47966 7119
L51903 7119
" />
<path d="M51903 7119
L51903 9087
" />
<path d="M26470 6332
L26864 6725
" />
<path d="M26864 6725
L27257 6332
" />
<path d="M24895 9087
L24895 7119
" />
<path d="M24895 7119
L28832 7119
" />
<path d="M28832 7119
L28832 9087
" />
<path d="M3399 6332
L3793 6725
" />
<path d="M3793 6725
L4186 6332
" />
<path d="M1824 9087
L1824 7119
" />
<path d="M1824 7119
L5761 7119
" />
<path d="M5761 7119
L5761 9087
" />
<path d="M84934 5150
L84541 4757
" />
<path d="M84541 4757
L84147 5150
" />
<path d="M86509 2395
L86509 4363
" />
<path d="M86509 4363
L82572 4363
" />
<path d="M82572 4363
L82572 2395
" />
<path d="M38793 5150
L38399 4757
" />
<path d="M38399 4757
L38005 5150
" />
<path d="M40368 2395
L40368 4363
" />
<path d="M40368 4363
L36430 4363
" />
<path d="M36430 4363
L36430 2395
" />
<path d="M15722 5150
L15328 4757
" />
<path d="M15328 4757
L14934 5150
" />
<path d="M17297 2395
L17297 4363
" />
<path d="M17297 4363
L13360 4363
" />
<path d="M13360 4363
L13360 2395
" />
<path d="M49029 15702
L49423 15308
" />
<path d="M49423 15308
L49029 14914
" />
<path d="M51785 17276
L49816 17276
" />
<path d="M49816 17276
L49816 13339
" />
<path d="M49816 13339
L51785 13339
" />
<path d="M61864 5150
L61470 4757
" />
<path d="M61470 4757
L61076 5150
" />
<path d="M63438 2395
L63438 4363
" />
<path d="M63438 4363
L59501 4363
" />
<path d="M59501 4363
L59501 2395
" />
</g>
<g style="fill:#00A0A0; fill-opacity:0.0; 
stroke:#00A0A0; stroke-width:80; stroke-opacity:1; 
stroke-linecap:round; stroke-linejoin:round;">
<path d="M24815 26213
L25015 26213
" />
<path d="M27815 26213
L27615 26213
" />
<path d="M27615 26213
L27615 25813
" />
<path d="M27615 25813
L25015 25813
" />
<path d="M25015 25813
L25015 26613
" />
<path d="M25015 26613
L27615 26613
" />
<path d="M27615 26613
L27615 26213
" />
<path d="M25015 26013
L25215 25813
" />
<path d="M27815 25413
L27615 25413
" />
<path d="M24815 25413
L25015 25413
" />
<path d="M25015 25413
L25015 25813
" />
<path d="M25015 25813
L27615 25813
" />
<path d="M27615 25813
L27615 25013
" />
<path d="M27615 25013
L25015 25013
" />
<path d="M25015 25013
L25015 25413
" />
<path d="M27615 25613
L27415 25813
" />
<path d="M27815 27813
L27615 27813
" />
<path d="M24815 27813
L25015 27813
" />
<path d="M25015 27813
L25015 28213
" />
<path d="M25015 28213
L27615 28213
" />
<path d="M27615 28213
L27615 27413
" />
<path d="M27615 27413
L25015 27413
" />
<path d="M25015 27413
L25015 27813
" />
<path d="M27615 28013
L27415 28213
" />
<path d="M27815 27013
L27615 27013
" />
<path d="M24815 27013
L25015 27013
" />
<path d="M25015 27013
L25015 27413
" />
<path d="M25015 27413
L27615 27413
" />
<path d="M27615 27413
L27615 26613
" />
<path d="M27615 26613
L25015 26613
" />
<path d="M25015 26613
L25015 27013
" />
<path d="M27615 27213
L27415 27413
" />
<path d="M32165 16513
L32365 16513
" />
<path d="M35165 16513
L34965 16513
" />
<path d="M34965 16513
L34965 16113
" />
<path d="M34965 16113
L32365 16113
" />
<path d="M32365 16113
L32365 16913
" />
<path d="M32365 16913
L34965 16913
" />
<path d="M34965 16913
L34965 16513
" />
<path d="M32365 16313
L32565 16113
" />
</g>
<g style="fill:#00A0A0; fill-opacity:0.0; 
stroke:#00A0A0; stroke-width:60; stroke-opacity:1; 
stroke-linecap:round; stroke-linejoin:round;">
<path d="M30615 15813
L30615 16813
" />
<path d="M30615 16813
L28615 16813
" />
<path d="M28615 16813
L28615 15813
" />
<path d="M28615 15813
L30615 15813
" />
<path d="M27115 13063
L27115 14063
" />
<path d="M27115 14063
L25115 14063
" />
<path d="M25115 14063
L25115 13063
" />
<path d="M25115 13063
L27115 13063
" />
<path d="M20365 13063
L20365 14063
" />
<path d="M20365 14063
L18365 14063
" />
<path d="M18365 14063
L18365 13063
" />
<path d="M18365 13063
L20365 13063
" />
<path d="M117635 2304
L117635 1304
" />
<path d="M117635 1304
L119635 1304
" />
<path d="M119635 1304
L119635 2304
" />
<path d="M119635 2304
L117635 2304
" />
<path d="M33665 16113
L33665 15113
" />
<path d="M33665 15113
L35665 15113
" />
<path d="M35665 15113
L35665 16113
" />
<path d="M35665 16113
L33665 16113
" />
<path d="M19365 25563
L20365 25563
" />
<path d="M20365 25563
L20365 28563
" />
<path d="M20365 28563
L19365 28563
" />
<path d="M19365 28563
L19365 25563
" />
<path d="M20365 26563
L19365 26563
" />
</g>
<g style="fill:#808000; fill-opacity:0.0; 
stroke:#808000; stroke-width:39.3701; stroke-opacity:1; 
stroke-linecap:round; stroke-linejoin:round;">
</g>
<g style="fill:#808000; fill-opacity:1.0; 
stroke:#808000; stroke-width:39.3701; stroke-opacity:1; 
stroke-linecap:round; stroke-linejoin:round;">
<polyline style="fill-rule:evenodd;"
points="102710,9855
100978,9855
100978,8713
102710,8713
102710,9855
" /> 
<polyline style="fill-rule:evenodd;"
points="102710,7652
100978,7652
100978,6510
102710,6510
102710,7652
" /> 
</g>
<g style="fill:#808000; fill-opacity:1.0; 
stroke:#808000; stroke-width:519.685; stroke-opacity:1; 
stroke-linecap:round; stroke-linejoin:round;">
<path d="M103844 8880
L103844 8282
" />
</g>
<g style="fill:#808000; fill-opacity:1.0; 
stroke:#808000; stroke-width:39.3701; stroke-opacity:1; 
stroke-linecap:round; stroke-linejoin:round;">
<circle cx="23337.2" cy="15355.9" r="196.815" /> 
<circle cx="23337.2" cy="23622.9" r="295.315" /> 
<circle cx="35165.2" cy="28463.9" r="275.815" /> 
<circle cx="35165.2" cy="27463.9" r="275.815" /> 
<circle cx="35165.2" cy="26463.9" r="275.815" /> 
<circle cx="35165.2" cy="25463.9" r="275.815" /> 
<circle cx="35165.2" cy="24463.9" r="275.815" /> 
<circle cx="35165.2" cy="23463.9" r="275.815" /> 
<circle cx="35165.2" cy="22463.9" r="275.815" /> 
<circle cx="35165.2" cy="21463.9" r="275.815" /> 
<circle cx="35165.2" cy="20463.9" r="275.815" /> 
<circle cx="35165.2" cy="19463.9" r="275.815" /> 
<circle cx="35165.2" cy="18463.9" r="275.815" /> 
<circle cx="35165.2" cy="17463.9" r="275.815" /> 
<circle cx="29165.2" cy="17463.9" r="275.815" /> 
<circle cx="29165.2" cy="18463.9" r="275.815" /> 
<circle cx="29165.2" cy="19463.9" r="275.815" /> 
<circle cx="29165.2" cy="20463.9" r="275.815" /> 
<circle cx="29165.2" cy="21463.9" r="275.815" /> 
<circle cx="29165.2" cy="22463.9" r="275.815" /> 
<circle cx="29165.2" cy="23463.9" r="275.815" /> 
<circle cx="29165.2" cy="24463.9" r="275.815" /> 
<circle cx="29165.2" cy="25463.9" r="275.815" /> 
<circle cx="29165.2" cy="26463.9" r="275.815" /> 
<circle cx="29165.2" cy="27463.9" r="275.815" /> 
<circle cx="29165.2" cy="28463.9" r="275.815" /> 
<circle cx="24415.2" cy="30163.9" r="275.815" /> 
<circle cx="24415.2" cy="29163.9" r="275.815" /> 
<circle cx="25415.2" cy="30163.9" r="275.815" /> 
<circle cx="25415.2" cy="29163.9" r="275.815" /> 
<circle cx="26415.2" cy="30163.9" r="275.815" /> 
<circle cx="26415.2" cy="29163.9" r="275.815" /> 
<circle cx="27415.2" cy="30163.9" r="275.815" /> 
<circle cx="27415.2" cy="29163.9" r="275.815" /> 
<polyline style="fill-rule:evenodd;"
points="21959,29119
21959,28608
22470,28608
22470,29119
21959,29119
" /> 
<circle cx="21215.2" cy="28863.9" r="255.315" /> 
<circle cx="21215.2" cy="29863.9" r="255.315" /> 
<circle cx="39308.9" cy="30313.5" r="280.315" /> 
<circle cx="40308.9" cy="30313.5" r="280.315" /> 
<circle cx="41308.9" cy="30313.5" r="280.315" /> 
<circle cx="42308.9" cy="30313.5" r="280.315" /> 
<circle cx="43308.9" cy="30313.5" r="280.315" /> 
<circle cx="36887.7" cy="20636.4" r="590.551" /> 
<circle cx="36887.7" cy="29691.5" r="590.551" /> 
<circle cx="36515.2" cy="17963.9" r="275.815" /> 
<circle cx="37515.2" cy="17963.9" r="275.815" /> 
<circle cx="38515.2" cy="17963.9" r="275.815" /> 
<circle cx="39515.2" cy="17963.9" r="275.815" /> 
<circle cx="41365.2" cy="17163.9" r="275.815" /> 
<circle cx="42365.2" cy="17163.9" r="275.815" /> 
<circle cx="43365.2" cy="17163.9" r="275.815" /> 
<circle cx="44365.2" cy="17163.9" r="275.815" /> 
<circle cx="45365.2" cy="17163.9" r="275.815" /> 
<circle cx="46365.2" cy="17163.9" r="275.815" /> 
<circle cx="47365.2" cy="17163.9" r="275.815" /> 
<circle cx="48365.2" cy="17163.9" r="275.815" /> 
<circle cx="41615.2" cy="12413.9" r="570.866" /> 
<circle cx="18165.2" cy="30213.9" r="279.528" /> 
<circle cx="17165.2" cy="30213.9" r="279.528" /> 
<circle cx="16165.2" cy="30213.9" r="279.528" /> 
<circle cx="15165.2" cy="30213.9" r="279.528" /> 
<circle cx="50415.2" cy="23463.9" r="255.315" /> 
<circle cx="50415.2" cy="25463.9" r="255.315" /> 
<circle cx="47415.2" cy="23463.9" r="255.315" /> 
<circle cx="47415.2" cy="25463.9" r="255.315" /> 
<circle cx="50415.2" cy="26463.9" r="255.315" /> 
<circle cx="50415.2" cy="28463.9" r="255.315" /> 
<circle cx="47415.2" cy="26463.9" r="255.315" /> 
<circle cx="47415.2" cy="28463.9" r="255.315" /> 
<circle cx="50415.2" cy="20463.9" r="255.315" /> 
<circle cx="50415.2" cy="22463.9" r="255.315" /> 
<circle cx="47415.2" cy="20463.9" r="255.315" /> 
<circle cx="47415.2" cy="22463.9" r="255.315" /> 
<circle cx="37065.2" cy="18863.9" r="255.315" /> 
<circle cx="38065.2" cy="18863.9" r="255.315" /> 
<circle cx="22415.2" cy="25963.9" r="255.315" /> 
<circle cx="21415.2" cy="25963.9" r="255.315" /> 
<circle cx="39165.2" cy="18863.9" r="255.315" /> 
<circle cx="40165.2" cy="18863.9" r="255.315" /> 
<circle cx="13653" cy="23963.5" r="275.591" /> 
<polyline style="fill-rule:evenodd;"
points="33395,12583
33395,13144
32834,13144
32834,12583
33395,12583
" /> 
<circle cx="33115.2" cy="13863.9" r="280.315" /> 
<circle cx="32115.2" cy="12863.9" r="280.315" /> 
<circle cx="32115.2" cy="13863.9" r="280.315" /> 
<circle cx="31115.2" cy="12863.9" r="280.315" /> 
<circle cx="31115.2" cy="13863.9" r="280.315" /> 
<polyline style="fill-rule:evenodd;"
points="59207,7323
59207,7884
58646,7884
58646,7323
59207,7323
" /> 
<circle cx="58927.1" cy="8603.7" r="280.315" /> 
<circle cx="57927.1" cy="7603.7" r="280.315" /> 
<circle cx="57927.1" cy="8603.7" r="280.315" /> 
<circle cx="56927.1" cy="7603.7" r="280.315" /> 
<circle cx="56927.1" cy="8603.7" r="280.315" /> 
<circle cx="9560.92" cy="3379.29" r="572.835" /> 
<circle cx="113380" cy="3379.29" r="572.835" /> 
<circle cx="113380" cy="8103.7" r="572.835" /> 
<circle cx="44167.2" cy="8103.7" r="572.835" /> 
<circle cx="44167.2" cy="3379.29" r="572.835" /> 
<circle cx="9560.92" cy="8103.7" r="572.835" /> 
<circle cx="78773.5" cy="3379.29" r="572.835" /> 
<circle cx="78773.5" cy="8103.7" r="572.835" /> 
<circle cx="24815.2" cy="26213.9" r="255.315" /> 
<circle cx="27815.2" cy="26213.9" r="255.315" /> 
<circle cx="27815.2" cy="25413.9" r="255.315" /> 
<circle cx="24815.2" cy="25413.9" r="255.315" /> 
<circle cx="27815.2" cy="27813.9" r="255.315" /> 
<circle cx="24815.2" cy="27813.9" r="255.315" /> 
<circle cx="27815.2" cy="27013.9" r="255.315" /> 
<circle cx="24815.2" cy="27013.9" r="255.315" /> 
<circle cx="32165.2" cy="16513.9" r="255.315" /> 
<circle cx="35165.2" cy="16513.9" r="255.315" /> 
<polyline style="fill-rule:evenodd;"
points="30395,16033
30395,16594
29834,16594
29834,16033
30395,16033
" /> 
<circle cx="29115.2" cy="16313.9" r="280.315" /> 
<polyline style="fill-rule:evenodd;"
points="26895,13283
26895,13844
26334,13844
26334,13283
26895,13283
" /> 
<circle cx="25615.2" cy="13563.9" r="280.315" /> 
<polyline style="fill-rule:evenodd;"
points="20145,13283
20145,13844
19584,13844
19584,13283
20145,13283
" /> 
<circle cx="18865.2" cy="13563.9" r="280.315" /> 
<polyline style="fill-rule:evenodd;"
points="117855,2084
117855,1524
118416,1524
118416,2084
117855,2084
" /> 
<circle cx="119136" cy="1804.49" r="280.315" /> 
<polyline style="fill-rule:evenodd;"
points="33884,15894
33884,15333
34445,15333
34445,15894
33884,15894
" /> 
<circle cx="35165.2" cy="15613.9" r="280.315" /> 
<polyline style="fill-rule:evenodd;"
points="19584,25783
20145,25783
20145,26344
19584,26344
19584,25783
" /> 
<circle cx="19865.2" cy="27063.9" r="280.315" /> 
<circle cx="19865.2" cy="28063.9" r="280.315" /> 
</g> 
</svg>
