<?xml version="1.0" standalone="no"?>
 <!DOCTYPE svg PUBLIC "-//W3C//DTD SVG 1.1//EN" 
 "http://www.w3.org/Graphics/SVG/1.1/DTD/svg11.dtd"> 
<svg xmlns="http://www.w3.org/2000/svg" version="1.1" 
    width="41.9989cm" height="29.7002cm" viewBox="0 0 165350 116930 ">
<title>SVG Picture created as woerdclock-F_SilkS.svg date 2014/11/23 21:36:26 </title>
  <desc>Picture generated by PCBNEW </desc>
<g style="fill:#000000; fill-opacity:1;stroke:#000000; stroke-opacity:1;
stroke-linecap:round; stroke-linejoin:round; "
 transform="translate(0 0) scale(1 1)">
</g>
<g style="fill:#000000; fill-opacity:0.0; 
stroke:#000000; stroke-width:59.0551; stroke-opacity:1; 
stroke-linecap:round; stroke-linejoin:round;">
<path d="M79465 593
L79465 239
" />
<path d="M79617 593
L79617 407
L79600 374
L79566 357
L79516 357
L79482 374
L79465 390
" />
<path d="M79735 357
L79870 357
" />
<path d="M79786 239
L79786 542
L79803 576
L79836 593
L79870 593
" />
<path d="M79938 357
L80073 357
" />
<path d="M79988 239
L79988 542
L80005 576
L80039 593
L80073 593
" />
<path d="M80191 357
L80191 711
" />
<path d="M80191 374
L80224 357
L80292 357
L80326 374
L80343 390
L80359 424
L80359 525
L80343 559
L80326 576
L80292 593
L80224 593
L80191 576
" />
<path d="M80511 559
L80528 576
L80511 593
L80494 576
L80511 559
L80511 593
" />
<path d="M80511 374
L80528 390
L80511 407
L80494 390
L80511 374
L80511 407
" />
<path d="M80933 222
L80629 677
" />
<path d="M81304 222
L81001 677
" />
<path d="M81406 576
L81439 593
L81507 593
L81541 576
L81557 542
L81557 525
L81541 492
L81507 475
L81456 475
L81422 458
L81406 424
L81406 407
L81422 374
L81456 357
L81507 357
L81541 374
" />
<path d="M81844 576
L81811 593
L81743 593
L81709 576
L81692 542
L81692 407
L81709 374
L81743 357
L81811 357
L81844 374
L81861 407
L81861 441
L81692 475
" />
<path d="M82013 593
L82013 239
" />
<path d="M82013 374
L82047 357
L82114 357
L82148 374
L82165 390
L82182 424
L82182 525
L82165 559
L82148 576
L82114 593
L82047 593
L82013 576
" />
<path d="M82485 593
L82485 407
L82469 374
L82435 357
L82367 357
L82334 374
" />
<path d="M82485 576
L82452 593
L82367 593
L82334 576
L82317 542
L82317 509
L82334 475
L82367 458
L82452 458
L82485 441
" />
<path d="M82637 576
L82671 593
L82739 593
L82772 576
L82789 542
L82789 525
L82772 492
L82739 475
L82688 475
L82654 458
L82637 424
L82637 407
L82654 374
L82688 357
L82739 357
L82772 374
" />
<path d="M82890 357
L83025 357
" />
<path d="M82941 239
L82941 542
L82958 576
L82992 593
L83025 593
" />
<path d="M83143 593
L83143 357
" />
<path d="M83143 239
L83127 255
L83143 272
L83160 255
L83143 239
L83143 272
" />
<path d="M83464 593
L83464 407
L83447 374
L83413 357
L83346 357
L83312 374
" />
<path d="M83464 576
L83430 593
L83346 593
L83312 576
L83295 542
L83295 509
L83312 475
L83346 458
L83430 458
L83464 441
" />
<path d="M83633 357
L83633 593
" />
<path d="M83633 390
L83650 374
L83683 357
L83734 357
L83768 374
L83785 407
L83785 593
" />
<path d="M83953 559
L83970 576
L83953 593
L83937 576
L83953 559
L83953 593
" />
<path d="M84105 576
L84139 593
L84206 593
L84240 576
L84257 542
L84257 525
L84240 492
L84206 475
L84156 475
L84122 458
L84105 424
L84105 407
L84122 374
L84156 357
L84206 357
L84240 374
" />
<path d="M84544 576
L84510 593
L84443 593
L84409 576
L84392 542
L84392 407
L84409 374
L84443 357
L84510 357
L84544 374
L84561 407
L84561 441
L84392 475
" />
<path d="M84662 357
L84797 357
" />
<path d="M84713 239
L84713 542
L84730 576
L84763 593
L84797 593
" />
<path d="M84881 357
L85067 357
L84881 593
L85067 593
" />
<path d="M85202 559
L85219 576
L85202 593
L85185 576
L85202 559
L85202 593
" />
<path d="M85371 357
L85371 593
" />
<path d="M85371 390
L85388 374
L85421 357
L85472 357
L85506 374
L85523 407
L85523 593
" />
<path d="M85843 593
L85843 407
L85826 374
L85793 357
L85725 357
L85691 374
" />
<path d="M85843 576
L85809 593
L85725 593
L85691 576
L85674 542
L85674 509
L85691 475
L85725 458
L85809 458
L85843 441
" />
<path d="M86012 593
L86012 357
" />
<path d="M86012 390
L86029 374
L86062 357
L86113 357
L86147 374
L86164 407
L86164 593
" />
<path d="M86164 407
L86181 374
L86214 357
L86265 357
L86299 374
L86316 407
L86316 593
" />
<path d="M86619 576
L86586 593
L86518 593
L86484 576
L86467 542
L86467 407
L86484 374
L86518 357
L86586 357
L86619 374
L86636 407
L86636 441
L86467 475
" />
<path d="M87041 222
L86737 677
" />
<path d="M87311 593
L87311 407
L87294 374
L87260 357
L87193 357
L87159 374
" />
<path d="M87311 576
L87277 593
L87193 593
L87159 576
L87142 542
L87142 509
L87159 475
L87193 458
L87277 458
L87311 441
" />
<path d="M87480 593
L87480 357
" />
<path d="M87480 424
L87497 390
L87514 374
L87547 357
L87581 357
" />
<path d="M87851 593
L87851 239
" />
<path d="M87851 576
L87817 593
L87750 593
L87716 576
L87699 559
L87682 525
L87682 424
L87699 390
L87716 374
L87750 357
L87817 357
L87851 374
" />
<path d="M88172 357
L88172 593
" />
<path d="M88020 357
L88020 542
L88037 576
L88070 593
L88121 593
L88155 576
L88172 559
" />
<path d="M88340 593
L88340 357
" />
<path d="M88340 239
L88323 255
L88340 272
L88357 255
L88340 239
L88340 272
" />
<path d="M88509 357
L88509 593
" />
<path d="M88509 390
L88526 374
L88560 357
L88610 357
L88644 374
L88661 407
L88661 593
" />
<path d="M88880 593
L88847 576
L88830 559
L88813 525
L88813 424
L88830 390
L88847 374
L88880 357
L88931 357
L88965 374
L88982 390
L88998 424
L88998 525
L88982 559
L88965 576
L88931 593
L88880 593
" />
<path d="M89403 222
L89100 677
" />
<path d="M89521 593
L89521 357
" />
<path d="M89521 390
L89538 374
L89572 357
L89623 357
L89656 374
L89673 407
L89673 593
" />
<path d="M89673 407
L89690 374
L89724 357
L89775 357
L89808 374
L89825 407
L89825 593
" />
<path d="M89960 357
L90044 593
" />
<path d="M90129 357
L90044 593
L90011 677
L89994 694
L89960 711
" />
<path d="M90264 458
L90534 458
" />
<path d="M90703 357
L90703 711
" />
<path d="M90703 374
L90736 357
L90804 357
L90838 374
L90854 390
L90871 424
L90871 525
L90854 559
L90838 576
L90804 593
L90736 593
L90703 576
" />
<path d="M91023 593
L91023 357
" />
<path d="M91023 424
L91040 390
L91057 374
L91091 357
L91124 357
" />
<path d="M91293 593
L91259 576
L91242 559
L91226 525
L91226 424
L91242 390
L91259 374
L91293 357
L91344 357
L91377 374
L91394 390
L91411 424
L91411 525
L91394 559
L91377 576
L91344 593
L91293 593
" />
<path d="M91563 357
L91563 660
L91546 694
L91512 711
L91496 711
" />
<path d="M91563 239
L91546 255
L91563 272
L91580 255
L91563 239
L91563 272
" />
<path d="M91867 576
L91833 593
L91766 593
L91732 576
L91715 542
L91715 407
L91732 374
L91766 357
L91833 357
L91867 374
L91884 407
L91884 441
L91715 475
" />
<path d="M92035 593
L92035 239
" />
<path d="M92069 458
L92170 593
" />
<path d="M92170 357
L92035 492
" />
<path d="M92272 357
L92407 357
" />
<path d="M92322 239
L92322 542
L92339 576
L92373 593
L92407 593
" />
<path d="M92508 576
L92542 593
L92609 593
L92643 576
L92660 542
L92660 525
L92643 492
L92609 475
L92559 475
L92525 458
L92508 424
L92508 407
L92525 374
L92559 357
L92609 357
L92643 374
" />
<path d="M93065 222
L92761 677
" />
<path d="M93149 357
L93217 593
L93284 424
L93352 593
L93419 357
" />
<path d="M93605 593
L93571 576
L93554 559
L93537 525
L93537 424
L93554 390
L93571 374
L93605 357
L93655 357
L93689 374
L93706 390
L93723 424
L93723 525
L93706 559
L93689 576
L93655 593
L93605 593
" />
<path d="M94010 576
L93976 593
L93908 593
L93875 576
L93858 542
L93858 407
L93875 374
L93908 357
L93976 357
L94010 374
L94026 407
L94026 441
L93858 475
" />
<path d="M94178 593
L94178 357
" />
<path d="M94178 424
L94195 390
L94212 374
L94246 357
L94280 357
" />
<path d="M94550 593
L94550 239
" />
<path d="M94550 576
L94516 593
L94448 593
L94415 576
L94398 559
L94381 525
L94381 424
L94398 390
L94415 374
L94448 357
L94516 357
L94550 374
" />
<path d="M94870 576
L94836 593
L94769 593
L94735 576
L94718 559
L94701 525
L94701 424
L94718 390
L94735 374
L94769 357
L94836 357
L94870 374
" />
<path d="M95073 593
L95039 576
L95022 542
L95022 239
" />
<path d="M95258 593
L95224 576
L95208 559
L95191 525
L95191 424
L95208 390
L95224 374
L95258 357
L95309 357
L95343 374
L95359 390
L95376 424
L95376 525
L95359 559
L95343 576
L95309 593
L95258 593
" />
<path d="M95680 576
L95646 593
L95579 593
L95545 576
L95528 559
L95511 525
L95511 424
L95528 390
L95545 374
L95579 357
L95646 357
L95680 374
" />
<path d="M95832 593
L95832 239
" />
<path d="M95866 458
L95967 593
" />
<path d="M95967 357
L95832 492
" />
<path d="M96372 222
L96068 677
" />
<path d="M79465 8743
L79465 8389
" />
<path d="M79617 8743
L79617 8557
L79600 8524
L79566 8507
L79516 8507
L79482 8524
L79465 8540
" />
<path d="M79735 8507
L79870 8507
" />
<path d="M79786 8389
L79786 8692
L79803 8726
L79836 8743
L79870 8743
" />
<path d="M79938 8507
L80073 8507
" />
<path d="M79988 8389
L79988 8692
L80005 8726
L80039 8743
L80073 8743
" />
<path d="M80191 8507
L80191 8861
" />
<path d="M80191 8524
L80224 8507
L80292 8507
L80326 8524
L80343 8540
L80359 8574
L80359 8675
L80343 8709
L80326 8726
L80292 8743
L80224 8743
L80191 8726
" />
<path d="M80511 8709
L80528 8726
L80511 8743
L80494 8726
L80511 8709
L80511 8743
" />
<path d="M80511 8524
L80528 8540
L80511 8557
L80494 8540
L80511 8524
L80511 8557
" />
<path d="M80933 8372
L80629 8827
" />
<path d="M81304 8372
L81001 8827
" />
<path d="M81406 8726
L81439 8743
L81507 8743
L81541 8726
L81557 8692
L81557 8675
L81541 8642
L81507 8625
L81456 8625
L81422 8608
L81406 8574
L81406 8557
L81422 8524
L81456 8507
L81507 8507
L81541 8524
" />
<path d="M81844 8726
L81811 8743
L81743 8743
L81709 8726
L81692 8692
L81692 8557
L81709 8524
L81743 8507
L81811 8507
L81844 8524
L81861 8557
L81861 8591
L81692 8625
" />
<path d="M82013 8743
L82013 8389
" />
<path d="M82013 8524
L82047 8507
L82114 8507
L82148 8524
L82165 8540
L82182 8574
L82182 8675
L82165 8709
L82148 8726
L82114 8743
L82047 8743
L82013 8726
" />
<path d="M82485 8743
L82485 8557
L82469 8524
L82435 8507
L82367 8507
L82334 8524
" />
<path d="M82485 8726
L82452 8743
L82367 8743
L82334 8726
L82317 8692
L82317 8659
L82334 8625
L82367 8608
L82452 8608
L82485 8591
" />
<path d="M82637 8726
L82671 8743
L82739 8743
L82772 8726
L82789 8692
L82789 8675
L82772 8642
L82739 8625
L82688 8625
L82654 8608
L82637 8574
L82637 8557
L82654 8524
L82688 8507
L82739 8507
L82772 8524
" />
<path d="M82890 8507
L83025 8507
" />
<path d="M82941 8389
L82941 8692
L82958 8726
L82992 8743
L83025 8743
" />
<path d="M83143 8743
L83143 8507
" />
<path d="M83143 8389
L83127 8405
L83143 8422
L83160 8405
L83143 8389
L83143 8422
" />
<path d="M83464 8743
L83464 8557
L83447 8524
L83413 8507
L83346 8507
L83312 8524
" />
<path d="M83464 8726
L83430 8743
L83346 8743
L83312 8726
L83295 8692
L83295 8659
L83312 8625
L83346 8608
L83430 8608
L83464 8591
" />
<path d="M83633 8507
L83633 8743
" />
<path d="M83633 8540
L83650 8524
L83683 8507
L83734 8507
L83768 8524
L83785 8557
L83785 8743
" />
<path d="M83953 8709
L83970 8726
L83953 8743
L83937 8726
L83953 8709
L83953 8743
" />
<path d="M84105 8726
L84139 8743
L84206 8743
L84240 8726
L84257 8692
L84257 8675
L84240 8642
L84206 8625
L84156 8625
L84122 8608
L84105 8574
L84105 8557
L84122 8524
L84156 8507
L84206 8507
L84240 8524
" />
<path d="M84544 8726
L84510 8743
L84443 8743
L84409 8726
L84392 8692
L84392 8557
L84409 8524
L84443 8507
L84510 8507
L84544 8524
L84561 8557
L84561 8591
L84392 8625
" />
<path d="M84662 8507
L84797 8507
" />
<path d="M84713 8389
L84713 8692
L84730 8726
L84763 8743
L84797 8743
" />
<path d="M84881 8507
L85067 8507
L84881 8743
L85067 8743
" />
<path d="M85202 8709
L85219 8726
L85202 8743
L85185 8726
L85202 8709
L85202 8743
" />
<path d="M85371 8507
L85371 8743
" />
<path d="M85371 8540
L85388 8524
L85421 8507
L85472 8507
L85506 8524
L85523 8557
L85523 8743
" />
<path d="M85843 8743
L85843 8557
L85826 8524
L85793 8507
L85725 8507
L85691 8524
" />
<path d="M85843 8726
L85809 8743
L85725 8743
L85691 8726
L85674 8692
L85674 8659
L85691 8625
L85725 8608
L85809 8608
L85843 8591
" />
<path d="M86012 8743
L86012 8507
" />
<path d="M86012 8540
L86029 8524
L86062 8507
L86113 8507
L86147 8524
L86164 8557
L86164 8743
" />
<path d="M86164 8557
L86181 8524
L86214 8507
L86265 8507
L86299 8524
L86316 8557
L86316 8743
" />
<path d="M86619 8726
L86586 8743
L86518 8743
L86484 8726
L86467 8692
L86467 8557
L86484 8524
L86518 8507
L86586 8507
L86619 8524
L86636 8557
L86636 8591
L86467 8625
" />
<path d="M87041 8372
L86737 8827
" />
<path d="M87311 8743
L87311 8557
L87294 8524
L87260 8507
L87193 8507
L87159 8524
" />
<path d="M87311 8726
L87277 8743
L87193 8743
L87159 8726
L87142 8692
L87142 8659
L87159 8625
L87193 8608
L87277 8608
L87311 8591
" />
<path d="M87480 8743
L87480 8507
" />
<path d="M87480 8574
L87497 8540
L87514 8524
L87547 8507
L87581 8507
" />
<path d="M87851 8743
L87851 8389
" />
<path d="M87851 8726
L87817 8743
L87750 8743
L87716 8726
L87699 8709
L87682 8675
L87682 8574
L87699 8540
L87716 8524
L87750 8507
L87817 8507
L87851 8524
" />
<path d="M88172 8507
L88172 8743
" />
<path d="M88020 8507
L88020 8692
L88037 8726
L88070 8743
L88121 8743
L88155 8726
L88172 8709
" />
<path d="M88340 8743
L88340 8507
" />
<path d="M88340 8389
L88323 8405
L88340 8422
L88357 8405
L88340 8389
L88340 8422
" />
<path d="M88509 8507
L88509 8743
" />
<path d="M88509 8540
L88526 8524
L88560 8507
L88610 8507
L88644 8524
L88661 8557
L88661 8743
" />
<path d="M88880 8743
L88847 8726
L88830 8709
L88813 8675
L88813 8574
L88830 8540
L88847 8524
L88880 8507
L88931 8507
L88965 8524
L88982 8540
L88998 8574
L88998 8675
L88982 8709
L88965 8726
L88931 8743
L88880 8743
" />
<path d="M89403 8372
L89100 8827
" />
<path d="M89521 8743
L89521 8507
" />
<path d="M89521 8540
L89538 8524
L89572 8507
L89623 8507
L89656 8524
L89673 8557
L89673 8743
" />
<path d="M89673 8557
L89690 8524
L89724 8507
L89775 8507
L89808 8524
L89825 8557
L89825 8743
" />
<path d="M89960 8507
L90044 8743
" />
<path d="M90129 8507
L90044 8743
L90011 8827
L89994 8844
L89960 8861
" />
<path d="M90264 8608
L90534 8608
" />
<path d="M90703 8507
L90703 8861
" />
<path d="M90703 8524
L90736 8507
L90804 8507
L90838 8524
L90854 8540
L90871 8574
L90871 8675
L90854 8709
L90838 8726
L90804 8743
L90736 8743
L90703 8726
" />
<path d="M91023 8743
L91023 8507
" />
<path d="M91023 8574
L91040 8540
L91057 8524
L91091 8507
L91124 8507
" />
<path d="M91293 8743
L91259 8726
L91242 8709
L91226 8675
L91226 8574
L91242 8540
L91259 8524
L91293 8507
L91344 8507
L91377 8524
L91394 8540
L91411 8574
L91411 8675
L91394 8709
L91377 8726
L91344 8743
L91293 8743
" />
<path d="M91563 8507
L91563 8810
L91546 8844
L91512 8861
L91496 8861
" />
<path d="M91563 8389
L91546 8405
L91563 8422
L91580 8405
L91563 8389
L91563 8422
" />
<path d="M91867 8726
L91833 8743
L91766 8743
L91732 8726
L91715 8692
L91715 8557
L91732 8524
L91766 8507
L91833 8507
L91867 8524
L91884 8557
L91884 8591
L91715 8625
" />
<path d="M92035 8743
L92035 8389
" />
<path d="M92069 8608
L92170 8743
" />
<path d="M92170 8507
L92035 8642
" />
<path d="M92272 8507
L92407 8507
" />
<path d="M92322 8389
L92322 8692
L92339 8726
L92373 8743
L92407 8743
" />
<path d="M92508 8726
L92542 8743
L92609 8743
L92643 8726
L92660 8692
L92660 8675
L92643 8642
L92609 8625
L92559 8625
L92525 8608
L92508 8574
L92508 8557
L92525 8524
L92559 8507
L92609 8507
L92643 8524
" />
<path d="M93065 8372
L92761 8827
" />
<path d="M93149 8507
L93217 8743
L93284 8574
L93352 8743
L93419 8507
" />
<path d="M93605 8743
L93571 8726
L93554 8709
L93537 8675
L93537 8574
L93554 8540
L93571 8524
L93605 8507
L93655 8507
L93689 8524
L93706 8540
L93723 8574
L93723 8675
L93706 8709
L93689 8726
L93655 8743
L93605 8743
" />
<path d="M94010 8726
L93976 8743
L93908 8743
L93875 8726
L93858 8692
L93858 8557
L93875 8524
L93908 8507
L93976 8507
L94010 8524
L94026 8557
L94026 8591
L93858 8625
" />
<path d="M94178 8743
L94178 8507
" />
<path d="M94178 8574
L94195 8540
L94212 8524
L94246 8507
L94280 8507
" />
<path d="M94550 8743
L94550 8389
" />
<path d="M94550 8726
L94516 8743
L94448 8743
L94415 8726
L94398 8709
L94381 8675
L94381 8574
L94398 8540
L94415 8524
L94448 8507
L94516 8507
L94550 8524
" />
<path d="M94870 8726
L94836 8743
L94769 8743
L94735 8726
L94718 8709
L94701 8675
L94701 8574
L94718 8540
L94735 8524
L94769 8507
L94836 8507
L94870 8524
" />
<path d="M95073 8743
L95039 8726
L95022 8692
L95022 8389
" />
<path d="M95258 8743
L95224 8726
L95208 8709
L95191 8675
L95191 8574
L95208 8540
L95224 8524
L95258 8507
L95309 8507
L95343 8524
L95359 8540
L95376 8574
L95376 8675
L95359 8709
L95343 8726
L95309 8743
L95258 8743
" />
<path d="M95680 8726
L95646 8743
L95579 8743
L95545 8726
L95528 8709
L95511 8675
L95511 8574
L95528 8540
L95545 8524
L95579 8507
L95646 8507
L95680 8524
" />
<path d="M95832 8743
L95832 8389
" />
<path d="M95866 8608
L95967 8743
" />
<path d="M95967 8507
L95832 8642
" />
<path d="M96372 8372
L96068 8827
" />
</g>
<g style="fill:#000000; fill-opacity:0.0; 
stroke:#000000; stroke-width:150; stroke-opacity:1; 
stroke-linecap:round; stroke-linejoin:round;">
<path d="M58858 4724
L787 4724
" />
<path d="M787 4330
L58858 4330
" />
<path d="M0 3543
L0 787
" />
<path d="M0 8267
L0 5511
" />
<path d="M117322 9055
L787 9055
" />
<path d="M117322 4724
L59251 4724
" />
<path d="M59251 4330
L117322 4330
" />
<path d="M118110 5511
L118110 8267
" />
<path d="M118110 787
L118110 3543
" />
<path d="M787 0
L117322 0
" />
<path d="M787.402 4724.41 A787.402 787.402 0.0 0 0 0 5511.81 " />
<path d="M0 8267.72 A787.402 787.402 0.0 0 0 787.402 9055.12 " />
<path d="M117323 9055.12 A787.402 787.402 0.0 0 0 118110 8267.72 " />
<path d="M118110 5511.81 A787.402 787.402 0.0 0 0 117323 4724.41 " />
<path d="M118110 787.402 A787.402 787.402 0.0 0 0 117323 0 " />
<path d="M117323 4330.71 A787.402 787.402 0.0 0 0 118110 3543.31 " />
<path d="M0 3543.31 A787.402 787.402 0.0 0 0 787.402 4330.71 " />
<path d="M787.402 0 A787.402 787.402 0.0 0 0 0 787.402 " />
<path d="M10000 28700
L10000 10984
" />
<path d="M48346 29685
L10984 29685
" />
<path d="M49370 10984
L49370 28740
" />
<path d="M10984 10000
L48385 10000
" />
<path d="M48346.3 29685 A985.039 985.039 0.0 0 0 49370.1 28740.3 " />
<path d="M49370.1 10984.3 A984.252 984.252 0.0 0 0 48385.8 10000 " />
<path d="M10984.3 10000 A984.252 984.252 0.0 0 0 10000 10984.3 " />
<path d="M10000 28700.8 A984.252 984.252 0.0 0 0 10984.3 29685 " />
<path d="M59251 4330
L59251 4724
" />
<path d="M58858 4724
L58858 4330
" />
</g>
<g style="fill:#000000; fill-opacity:1.0; 
stroke:#000000; stroke-width:1; stroke-opacity:1; 
stroke-linecap:round; stroke-linejoin:round;">
<polyline style="fill-rule:evenodd;"
points="19606,5724
19604,5763
19583,5813
19580,5819
19516,5909
19433,5988
19338,6046
19243,6080
19159,6081
19145,6078
19114,6070
19109,6082
19127,6121
19131,6130
19163,6239
19155,6365
19134,6443
19120,6487
19114,6527
19117,6573
19131,6637
19155,6729
19166,6770
19206,6928
19247,7116
19285,7320
19319,7528
19333,7619
19343,7712
19355,7837
19368,7984
19380,8143
19391,8303
19400,8454
19407,8585
19411,8687
19411,8717
19411,8913
19337,8913
19263,8913
19237,8451
19228,8293
19217,8131
19205,7979
19194,7847
19185,7750
19157,7510
19118,7513
19118,7344
19117,7321
19109,7267
19097,7194
19083,7116
19067,7042
19055,6988
19047,6962
19046,6962
19030,6974
18995,7012
18980,7031
18980,6745
18978,6702
18958,6637
18922,6595
18856,6565
18835,6559
18762,6524
18697,6469
18650,6409
18634,6355
18631,6331
18615,6329
18576,6351
18558,6362
18483,6411
18574,6451
18642,6485
18696,6520
18707,6529
18768,6607
18814,6711
18836,6820
18836,6839
18839,6943
18914,6855
18961,6794
18980,6745
18980,7031
18956,7060
18894,7133
18824,7202
18788,7233
18738,7274
18706,7304
18700,7313
18719,7338
18773,7356
18854,7365
18953,7363
18955,7363
19033,7355
19091,7349
19117,7344
19118,7344
19118,7513
18966,7525
18868,7531
18800,7529
18748,7519
18698,7499
18684,7492
18678,7489
18678,6857
18660,6758
18610,6676
18536,6619
18450,6591
18356,6601
18339,6607
18251,6664
18197,6738
18172,6824
18176,6911
18208,6992
18265,7057
18348,7100
18427,7111
18494,7104
18546,7080
18600,7032
18650,6976
18672,6924
18678,6857
18678,7489
18592,7445
18533,7637
18474,7830
18665,8021
18738,8098
18798,8166
18840,8217
18855,8245
18848,8280
18832,8346
18808,8433
18790,8496
18726,8712
18801,8712
18864,8726
18904,8760
18914,8805
18898,8837
18868,8855
18814,8864
18726,8864
18713,8863
18630,8858
18580,8849
18556,8835
18548,8815
18551,8778
18565,8709
18587,8618
18612,8530
18683,8285
18542,8143
18479,8080
18428,8032
18396,8004
18390,8001
18374,8019
18341,8067
18298,8136
18278,8170
18181,8309
18053,8456
17983,8526
17908,8599
17846,8660
17805,8703
17788,8722
17807,8732
17838,8738
17880,8760
17895,8805
17886,8857
17842,8883
17763,8883
17733,8878
17660,8843
17607,8780
17588,8704
17603,8678
17646,8628
17709,8560
17788,8482
17818,8453
18017,8243
18175,8027
18298,7799
18387,7562
18417,7465
18442,7383
18461,7325
18468,7304
18463,7283
18424,7272
18389,7270
18276,7250
18177,7194
18104,7124
18040,7019
18012,6902
18017,6779
18054,6662
18121,6559
18217,6481
18237,6470
18333,6423
18243,6423
18157,6415
18104,6386
18077,6331
18072,6240
18072,6224
18087,6096
18119,5991
18165,5916
18199,5889
18251,5861
18167,5778
18105,5697
18052,5597
18019,5495
18011,5432
18027,5382
18058,5342
18113,5314
18196,5300
18291,5299
18382,5310
18455,5334
18466,5341
18507,5366
18520,5366
18513,5338
18512,5334
18510,5258
18543,5171
18608,5084
18649,5044
18750,4970
18839,4939
18916,4950
18957,4978
19020,5057
19073,5159
19109,5267
19119,5362
19119,5368
19111,5464
19204,5451
19293,5454
19381,5489
19473,5562
19532,5622
19582,5681
19606,5724
19606,5724
" /> 
<polyline style="fill-rule:evenodd;"
points="19606,1024
19604,1063
19583,1113
19580,1119
19516,1209
19433,1288
19338,1346
19243,1380
19159,1381
19145,1378
19114,1370
19109,1382
19127,1421
19131,1430
19163,1539
19155,1665
19134,1743
19120,1787
19114,1827
19117,1873
19131,1937
19155,2029
19166,2070
19206,2228
19247,2416
19285,2620
19319,2828
19333,2919
19343,3012
19355,3137
19368,3284
19380,3443
19391,3603
19400,3754
19407,3885
19411,3987
19411,4017
19411,4213
19337,4213
19263,4213
19237,3751
19228,3593
19217,3431
19205,3279
19194,3147
19185,3050
19157,2810
19118,2813
19118,2644
19117,2621
19109,2567
19097,2494
19083,2416
19067,2342
19055,2288
19047,2262
19046,2262
19030,2274
18995,2312
18980,2331
18980,2045
18978,2002
18958,1937
18922,1895
18856,1865
18835,1859
18762,1824
18697,1769
18650,1709
18634,1655
18631,1631
18615,1629
18576,1651
18558,1662
18483,1711
18574,1751
18642,1785
18696,1820
18707,1829
18768,1907
18814,2011
18836,2120
18836,2139
18839,2243
18914,2155
18961,2094
18980,2045
18980,2331
18956,2360
18894,2433
18824,2502
18788,2533
18738,2574
18706,2604
18700,2613
18719,2638
18773,2656
18854,2665
18953,2663
18955,2663
19033,2655
19091,2649
19117,2644
19118,2644
19118,2813
18966,2825
18868,2831
18800,2829
18748,2819
18698,2799
18684,2792
18678,2789
18678,2157
18660,2058
18610,1976
18536,1919
18450,1891
18356,1901
18339,1907
18251,1964
18197,2038
18172,2124
18176,2211
18208,2292
18265,2357
18348,2400
18427,2411
18494,2404
18546,2380
18600,2332
18650,2276
18672,2224
18678,2157
18678,2789
18592,2745
18533,2937
18474,3130
18665,3321
18738,3398
18798,3466
18840,3517
18855,3545
18848,3580
18832,3646
18808,3733
18790,3796
18726,4012
18801,4012
18864,4026
18904,4060
18914,4105
18898,4137
18868,4155
18814,4164
18726,4164
18713,4163
18630,4158
18580,4149
18556,4135
18548,4115
18551,4078
18565,4009
18587,3918
18612,3830
18683,3585
18542,3443
18479,3380
18428,3332
18396,3304
18390,3301
18374,3319
18341,3367
18298,3436
18278,3470
18181,3609
18053,3756
17983,3826
17908,3899
17846,3960
17805,4003
17788,4022
17807,4032
17838,4038
17880,4060
17895,4105
17886,4157
17842,4183
17763,4183
17733,4178
17660,4143
17607,4080
17588,4004
17603,3978
17646,3928
17709,3860
17788,3782
17818,3753
18017,3543
18175,3327
18298,3099
18387,2862
18417,2765
18442,2683
18461,2625
18468,2604
18463,2583
18424,2572
18389,2570
18276,2550
18177,2494
18104,2424
18040,2319
18012,2202
18017,2079
18054,1962
18121,1859
18217,1781
18237,1770
18333,1723
18243,1723
18157,1715
18104,1686
18077,1631
18072,1540
18072,1524
18087,1396
18119,1291
18165,1216
18199,1189
18251,1161
18167,1078
18105,997
18052,897
18019,795
18011,732
18027,682
18058,642
18113,614
18196,600
18291,599
18382,610
18455,634
18466,641
18507,666
18520,666
18513,638
18512,634
18510,558
18543,471
18608,384
18649,344
18750,270
18839,239
18916,250
18957,278
19020,357
19073,459
19109,567
19119,662
19119,668
19111,764
19204,751
19293,754
19381,789
19473,862
19532,922
19582,981
19606,1024
19606,1024
" /> 
</g>
<g style="fill:#000000; fill-opacity:1.0; 
stroke:#000000; stroke-width:150; stroke-opacity:1; 
stroke-linecap:round; stroke-linejoin:round;">
<path d="M97729 11067
L97729 11367
" />
<path d="M97729 11367
L101129 11367
" />
<path d="M101129 11367
L101129 11067
" />
<path d="M97729 9867
L101129 9867
" />
<path d="M97729 6067
L101129 6067
" />
<path d="M101129 11067
L101129 6067
" />
<path d="M97729 11067
L97729 6067
" />
<path d="M11906 13000
L11906 24181
" />
<path d="M11906 24181
L21749 24181
" />
<path d="M21749 24181
L21749 13000
" />
<path d="M21749 13000
L11906 13000
" />
<path d="M28250 29750
L28250 28750
" />
<path d="M31250 29750
L28250 29750
" />
<path d="M31250 29750
L31250 28750
" />
<path d="M26250 28750
L26250 15750
" />
<path d="M33250 28750
L33250 15750
" />
<path d="M26250 28750
L33250 28750
" />
<path d="M33250 15750
L26250 15750
" />
<path d="M26250 19950
L26250 29700
" />
<path d="M26250 29700
L20500 29700
" />
<path d="M20500 29700
L20500 19950
" />
<path d="M20500 19950
L26250 19950
" />
</g>
<g style="fill:#000000; fill-opacity:1.0; 
stroke:#000000; stroke-width:120; stroke-opacity:1; 
stroke-linecap:round; stroke-linejoin:round;">
<path d="M18800 29150
L20300 27650
" />
<path d="M20300 27650
L20300 27150
" />
<path d="M20300 27150
L19800 26650
" />
<path d="M19800 26650
L18800 26650
" />
<path d="M18800 26650
L17800 27650
" />
<path d="M17800 27650
L17800 28650
" />
<path d="M17800 28650
L18300 29150
" />
<path d="M18300 29150
L18800 29150
" />
</g>
<g style="fill:#000000; fill-opacity:1.0; 
stroke:#000000; stroke-width:150; stroke-opacity:1; 
stroke-linecap:round; stroke-linejoin:round;">
<path d="M44708 18241
L44708 29658
" />
<path d="M44708 29658
L33291 29658
" />
<path d="M33291 29658
L33291 18241
" />
<path d="M33291 18241
L44708 18241
" />
<path d="M33237 16250
L33237 10147
" />
<path d="M33237 10147
L37962 10147
" />
<path d="M37962 10147
L37962 16250
" />
<path d="M37962 16250
L33237 16250
" />
<path d="M38119 16796
L38119 10103
" />
<path d="M38119 10103
L46780 10103
" />
<path d="M46780 10103
L46780 16796
" />
<path d="M46780 16796
L38119 16796
" />
<path d="M11250 26000
L11250 29000
" />
<path d="M16702 25334
L16702 29665
" />
<path d="M16702 29665
L10797 29665
" />
<path d="M10797 29665
L10797 25334
" />
<path d="M10797 25334
L16702 25334
" />
</g>
<g style="fill:#000000; fill-opacity:0.0; 
stroke:#000000; stroke-width:50; stroke-opacity:1; 
stroke-linecap:round; stroke-linejoin:round;">
<circle cx="46500" cy="23250" r="1000" /> 
<path d="M45000 21750
L48000 21750
" />
<path d="M48000 21750
L48000 24750
" />
<path d="M48000 24750
L45000 24750
" />
<path d="M45000 21750
L45000 24750
" />
<circle cx="46500" cy="26250" r="1000" /> 
<path d="M45000 24750
L48000 24750
" />
<path d="M48000 24750
L48000 27750
" />
<path d="M48000 27750
L45000 27750
" />
<path d="M45000 24750
L45000 27750
" />
<circle cx="46500" cy="20250" r="1000" /> 
<path d="M45000 18750
L48000 18750
" />
<path d="M48000 18750
L48000 21750
" />
<path d="M48000 21750
L45000 21750
" />
<path d="M45000 18750
L45000 21750
" />
</g>
<g style="fill:#000000; fill-opacity:0.0; 
stroke:#000000; stroke-width:120; stroke-opacity:1; 
stroke-linecap:round; stroke-linejoin:round;">
<path d="M34170 17150
L36150 17150
" />
<path d="M36150 17150
L36150 18150
" />
<path d="M36150 18150
L34150 18150
" />
<path d="M34150 18150
L34150 17150
" />
<path d="M34150 17400
L34400 17150
" />
<path d="M20480 25250
L18500 25250
" />
<path d="M18500 25250
L18500 24250
" />
<path d="M18500 24250
L20500 24250
" />
<path d="M20500 24250
L20500 25250
" />
<path d="M20500 25000
L20250 25250
" />
<path d="M36270 17150
L38250 17150
" />
<path d="M38250 17150
L38250 18150
" />
<path d="M38250 18150
L36250 18150
" />
<path d="M36250 18150
L36250 17150
" />
<path d="M36250 17400
L36500 17150
" />
</g>
<g style="fill:#000000; fill-opacity:0.0; 
stroke:#000000; stroke-width:59.0551; stroke-opacity:1; 
stroke-linecap:round; stroke-linejoin:round;">
<circle cx="13993.7" cy="20781.1" r="1244.99" /> 
<path d="M16749 16450
L16749 22749
" />
<path d="M16749 22749
L10450 22749
" />
<path d="M10450 22749
L10450 16450
" />
<path d="M10450 16450
L16749 16450
" />
</g>
<g style="fill:#000000; fill-opacity:0.0; 
stroke:#000000; stroke-width:150; stroke-opacity:1; 
stroke-linecap:round; stroke-linejoin:round;">
<circle cx="7145.67" cy="2165.35" r="984.252" /> 
<circle cx="110965" cy="2165.35" r="984.252" /> 
<circle cx="110965" cy="6889.76" r="984.252" /> 
<circle cx="41752" cy="6889.76" r="984.252" /> 
<circle cx="41752" cy="2165.35" r="984.252" /> 
<circle cx="7145.67" cy="6889.76" r="984.252" /> 
<circle cx="76358.3" cy="2165.35" r="984.252" /> 
<circle cx="76358.3" cy="6889.76" r="984.252" /> 
</g>
<g style="fill:#000000; fill-opacity:0.0; 
stroke:#000000; stroke-width:80; stroke-opacity:1; 
stroke-linecap:round; stroke-linejoin:round;">
<path d="M22400 25000
L22600 25000
" />
<path d="M25400 25000
L25200 25000
" />
<path d="M25200 25000
L25200 24600
" />
<path d="M25200 24600
L22600 24600
" />
<path d="M22600 24600
L22600 25400
" />
<path d="M22600 25400
L25200 25400
" />
<path d="M25200 25400
L25200 25000
" />
<path d="M22600 24800
L22800 24600
" />
<path d="M25400 24200
L25200 24200
" />
<path d="M22400 24200
L22600 24200
" />
<path d="M22600 24200
L22600 24600
" />
<path d="M22600 24600
L25200 24600
" />
<path d="M25200 24600
L25200 23800
" />
<path d="M25200 23800
L22600 23800
" />
<path d="M22600 23800
L22600 24200
" />
<path d="M25200 24400
L25000 24600
" />
<path d="M25400 26600
L25200 26600
" />
<path d="M22400 26600
L22600 26600
" />
<path d="M22600 26600
L22600 27000
" />
<path d="M22600 27000
L25200 27000
" />
<path d="M25200 27000
L25200 26200
" />
<path d="M25200 26200
L22600 26200
" />
<path d="M22600 26200
L22600 26600
" />
<path d="M25200 26800
L25000 27000
" />
<path d="M25400 25800
L25200 25800
" />
<path d="M22400 25800
L22600 25800
" />
<path d="M22600 25800
L22600 26200
" />
<path d="M22600 26200
L25200 26200
" />
<path d="M25200 26200
L25200 25400
" />
<path d="M25200 25400
L22600 25400
" />
<path d="M22600 25400
L22600 25800
" />
<path d="M25200 26000
L25000 26200
" />
<path d="M29750 15300
L29950 15300
" />
<path d="M32750 15300
L32550 15300
" />
<path d="M32550 15300
L32550 14900
" />
<path d="M32550 14900
L29950 14900
" />
<path d="M29950 14900
L29950 15700
" />
<path d="M29950 15700
L32550 15700
" />
<path d="M32550 15700
L32550 15300
" />
<path d="M29950 15100
L30150 14900
" />
</g>
<g style="fill:#000000; fill-opacity:0.0; 
stroke:#000000; stroke-width:60; stroke-opacity:1; 
stroke-linecap:round; stroke-linejoin:round;">
<path d="M24700 11850
L24700 12850
" />
<path d="M24700 12850
L22700 12850
" />
<path d="M22700 12850
L22700 11850
" />
<path d="M22700 11850
L24700 11850
" />
<path d="M17950 11850
L17950 12850
" />
<path d="M17950 12850
L15950 12850
" />
<path d="M15950 12850
L15950 11850
" />
<path d="M15950 11850
L17950 11850
" />
<path d="M115220 1090
L115220 90
" />
<path d="M115220 90
L117220 90
" />
<path d="M117220 90
L117220 1090
" />
<path d="M117220 1090
L115220 1090
" />
<path d="M31250 14900
L31250 13900
" />
<path d="M31250 13900
L33250 13900
" />
<path d="M33250 13900
L33250 14900
" />
<path d="M33250 14900
L31250 14900
" />
<path d="M16950 24350
L17950 24350
" />
<path d="M17950 24350
L17950 27350
" />
<path d="M17950 27350
L16950 27350
" />
<path d="M16950 27350
L16950 24350
" />
<path d="M17950 25350
L16950 25350
" />
</g>
<g style="fill:#000000; fill-opacity:0.0; 
stroke:#000000; stroke-width:150; stroke-opacity:1; 
stroke-linecap:round; stroke-linejoin:round;">
<path d="M59448 3937
L59055 3543
" />
<path d="M59055 3543
L58661 3937
" />
<path d="M61023 1181
L61023 3149
" />
<path d="M61023 3149
L57086 3149
" />
<path d="M57086 3149
L57086 1181
" />
<path d="M46614 14488
L47007 14094
" />
<path d="M47007 14094
L46614 13700
" />
<path d="M49370 16062
L47401 16062
" />
<path d="M47401 16062
L47401 12125
" />
<path d="M47401 12125
L49370 12125
" />
<path d="M13307 3937
L12913 3543
" />
<path d="M12913 3543
L12519 3937
" />
<path d="M14881 1181
L14881 3149
" />
<path d="M14881 3149
L10944 3149
" />
<path d="M10944 3149
L10944 1181
" />
<path d="M36377 3937
L35984 3543
" />
<path d="M35984 3543
L35590 3937
" />
<path d="M37952 1181
L37952 3149
" />
<path d="M37952 3149
L34015 3149
" />
<path d="M34015 3149
L34015 1181
" />
<path d="M82519 3937
L82125 3543
" />
<path d="M82125 3543
L81732 3937
" />
<path d="M84094 1181
L84094 3149
" />
<path d="M84094 3149
L80157 3149
" />
<path d="M80157 3149
L80157 1181
" />
<path d="M984 5118
L1377 5511
" />
<path d="M1377 5511
L1771 5118
" />
<path d="M-590 7874
L-590 5905
" />
<path d="M-590 5905
L3346 5905
" />
<path d="M3346 5905
L3346 7874
" />
<path d="M24055 5118
L24448 5511
" />
<path d="M24448 5511
L24842 5118
" />
<path d="M22480 7874
L22480 5905
" />
<path d="M22480 5905
L26417 5905
" />
<path d="M26417 5905
L26417 7874
" />
<path d="M47125 5118
L47519 5511
" />
<path d="M47519 5511
L47913 5118
" />
<path d="M45551 7874
L45551 5905
" />
<path d="M45551 5905
L49488 5905
" />
<path d="M49488 5905
L49488 7874
" />
<path d="M70196 5118
L70590 5511
" />
<path d="M70590 5511
L70984 5118
" />
<path d="M68622 7874
L68622 5905
" />
<path d="M68622 5905
L72559 5905
" />
<path d="M72559 5905
L72559 7874
" />
<path d="M93267 5118
L93661 5511
" />
<path d="M93661 5511
L94055 5118
" />
<path d="M91692 7874
L91692 5905
" />
<path d="M91692 5905
L95629 5905
" />
<path d="M95629 5905
L95629 7874
" />
<path d="M116338 5118
L116732 5511
" />
<path d="M116732 5511
L117125 5118
" />
<path d="M114763 7874
L114763 5905
" />
<path d="M114763 5905
L118700 5905
" />
<path d="M118700 5905
L118700 7874
" />
<path d="M105590 3937
L105196 3543
" />
<path d="M105196 3543
L104803 3937
" />
<path d="M107165 1181
L107165 3149
" />
<path d="M107165 3149
L103228 3149
" />
<path d="M103228 3149
L103228 1181
" />
<path d="M12362 13700
L12755 14094
" />
<path d="M12755 14094
L12362 14488
" />
<path d="M10000 12125
L11968 12125
" />
<path d="M11968 12125
L11968 16062
" />
<path d="M11968 16062
L10000 16062
" />
<path d="M12519 5511
L12913 5118
" />
<path d="M12913 5118
L13307 5511
" />
<path d="M10944 7874
L10944 5905
" />
<path d="M10944 5905
L14881 5905
" />
<path d="M14881 5905
L14881 7874
" />
<path d="M35590 5511
L35984 5118
" />
<path d="M35984 5118
L36377 5511
" />
<path d="M34015 7874
L34015 5905
" />
<path d="M34015 5905
L37952 5905
" />
<path d="M37952 5905
L37952 7874
" />
<path d="M58661 5511
L59055 5118
" />
<path d="M59055 5118
L59448 5511
" />
<path d="M57086 7874
L57086 5905
" />
<path d="M57086 5905
L61023 5905
" />
<path d="M61023 5905
L61023 7874
" />
<path d="M81732 5511
L82125 5118
" />
<path d="M82125 5118
L82519 5511
" />
<path d="M80157 7874
L80157 5905
" />
<path d="M80157 5905
L84094 5905
" />
<path d="M84094 5905
L84094 7874
" />
<path d="M104803 5511
L105196 5118
" />
<path d="M105196 5118
L105590 5511
" />
<path d="M103228 7874
L103228 5905
" />
<path d="M103228 5905
L107165 5905
" />
<path d="M107165 5905
L107165 7874
" />
<path d="M94055 3543
L93661 3937
" />
<path d="M93661 3937
L93267 3543
" />
<path d="M95629 1181
L95629 3149
" />
<path d="M95629 3149
L91692 3149
" />
<path d="M91692 3149
L91692 1181
" />
<path d="M70984 3543
L70590 3937
" />
<path d="M70590 3937
L70196 3543
" />
<path d="M72559 1181
L72559 3149
" />
<path d="M72559 3149
L68622 3149
" />
<path d="M68622 3149
L68622 1181
" />
<path d="M47913 3543
L47519 3937
" />
<path d="M47519 3937
L47125 3543
" />
<path d="M49488 1181
L49488 3149
" />
<path d="M49488 3149
L45551 3149
" />
<path d="M45551 3149
L45551 1181
" />
<path d="M24842 3543
L24448 3937
" />
<path d="M24448 3937
L24055 3543
" />
<path d="M26417 1181
L26417 3149
" />
<path d="M26417 3149
L22480 3149
" />
<path d="M22480 3149
L22480 1181
" />
<path d="M1771 3543
L1377 3937
" />
<path d="M1377 3937
L984 3543
" />
<path d="M3346 1181
L3346 3149
" />
<path d="M3346 3149
L-590 3149
" />
<path d="M-590 3149
L-590 1181
" />
<path d="M117125 3543
L116732 3937
" />
<path d="M116732 3937
L116338 3543
" />
<path d="M118700 1181
L118700 3149
" />
<path d="M118700 3149
L114763 3149
" />
<path d="M114763 3149
L114763 1181
" />
</g>
<g style="fill:#000000; fill-opacity:0.0; 
stroke:#000000; stroke-width:60; stroke-opacity:1; 
stroke-linecap:round; stroke-linejoin:round;">
<path d="M28200 14600
L28200 15600
" />
<path d="M28200 15600
L26200 15600
" />
<path d="M26200 15600
L26200 14600
" />
<path d="M26200 14600
L28200 14600
" />
</g>
<g style="fill:#000000; fill-opacity:0.0; 
stroke:#000000; stroke-width:59.0551; stroke-opacity:1; 
stroke-linecap:round; stroke-linejoin:round;">
<path d="M30600 10400
L30600 10550
" />
<path d="M30600 10550
L28800 10550
" />
<path d="M28800 10550
L28800 10400
" />
<path d="M26700 13900
L26700 10400
" />
<path d="M32700 13900
L32700 10400
" />
<path d="M26700 10400
L32700 10400
" />
<path d="M32700 13900
L26700 13900
" />
<path d="M54187 5139
L54187 5289
" />
<path d="M54187 5289
L52387 5289
" />
<path d="M52387 5289
L52387 5139
" />
<path d="M50287 8639
L50287 5139
" />
<path d="M56287 8639
L56287 5139
" />
<path d="M50287 5139
L56287 5139
" />
<path d="M56287 8639
L50287 8639
" />
</g>
<g style="fill:#000000; fill-opacity:0.0; 
stroke:#000000; stroke-width:118.11; stroke-opacity:1; 
stroke-linecap:round; stroke-linejoin:round;">
<circle cx="87303.1" cy="5415.75" r="196.85" /> 
<circle cx="88484.3" cy="5415.75" r="196.85" /> 
<path d="M87893 6400
L87500 6203
" />
<path d="M87893 6400
L88090 5809
" />
<circle cx="87893.7" cy="6400" r="787.402" /> 
<circle cx="87303.1" cy="1615.75" r="196.85" /> 
<circle cx="88484.3" cy="1615.75" r="196.85" /> 
<path d="M87893 2600
L87500 2403
" />
<path d="M87893 2600
L88090 2009
" />
<circle cx="87893.7" cy="2600" r="787.402" /> 
</g>
<g style="fill:#000000; fill-opacity:0.0; 
stroke:#000000; stroke-width:100; stroke-opacity:1; 
stroke-linecap:round; stroke-linejoin:round;">
<path d="M99143 6861
L99143 7185
L99162 7223
L99181 7242
L99219 7261
L99295 7261
L99333 7242
L99352 7223
L99371 7185
L99371 6861
" />
<path d="M99752 6861
L99562 6861
L99543 7052
L99562 7033
L99600 7014
L99695 7014
L99733 7033
L99752 7052
L99771 7090
L99771 7185
L99752 7223
L99733 7242
L99695 7261
L99600 7261
L99562 7242
L99543 7223
" />
<path d="M96809 8369
L96809 8559
L97000 8578
L96981 8559
L96962 8521
L96962 8426
L96981 8388
L97000 8369
L97038 8350
L97133 8350
L97171 8369
L97190 8388
L97209 8426
L97209 8521
L97190 8559
L97171 8578
" />
<path d="M96809 8235
L97209 8102
L96809 7969
" />
<path d="M96981 7473
L96962 7511
L96943 7530
L96905 7550
L96886 7550
L96848 7530
L96828 7511
L96809 7473
L96809 7397
L96828 7359
L96848 7340
L96886 7321
L96905 7321
L96943 7340
L96962 7359
L96981 7397
L96981 7473
L97000 7511
L97019 7530
L97057 7550
L97133 7550
L97171 7530
L97190 7511
L97209 7473
L97209 7397
L97190 7359
L97171 7340
L97133 7321
L97057 7321
L97019 7340
L97000 7359
L96981 7397
" />
<path d="M97095 7169
L97095 6978
" />
<path d="M97209 7207
L96809 7073
L97209 6940
" />
<path d="M97057 6502
L97057 6197
" />
<path d="M97171 5778
L97190 5797
L97209 5854
L97209 5892
L97190 5950
L97152 5988
L97114 6007
L97038 6026
L96981 6026
L96905 6007
L96867 5988
L96828 5950
L96809 5892
L96809 5854
L96828 5797
L96848 5778
" />
<path d="M97209 5550
L97190 5588
L97171 5607
L97133 5626
L97019 5626
L96981 5607
L96962 5588
L96943 5550
L96943 5492
L96962 5454
L96981 5435
L97019 5416
L97133 5416
L97171 5435
L97190 5454
L97209 5492
L97209 5550
" />
<path d="M97057 5245
L97057 4940
" />
<path d="M97209 5092
L96905 5092
" />
</g>
<g style="fill:#000000; fill-opacity:0.0; 
stroke:#000000; stroke-width:120; stroke-opacity:1; 
stroke-linecap:round; stroke-linejoin:round;">
<path d="M23064 17100
L23092 17014
L23092 16871
L23064 16814
L23035 16785
L22978 16757
L22921 16757
L22864 16785
L22835 16814
L22807 16871
L22778 16985
L22750 17042
L22721 17071
L22664 17100
L22607 17100
L22550 17071
L22521 17042
L22492 16985
L22492 16842
L22521 16757
" />
<path d="M23092 16500
L22492 16500
L22492 16357
L22521 16271
L22578 16214
L22635 16185
L22750 16157
L22835 16157
L22950 16185
L23007 16214
L23064 16271
L23092 16357
L23092 16500
" />
<path d="M22864 15900
L22864 15442
" />
<path d="M23035 14814
L23064 14842
L23092 14928
L23092 14985
L23064 15071
L23007 15128
L22950 15157
L22835 15185
L22750 15185
L22635 15157
L22578 15128
L22521 15071
L22492 14985
L22492 14928
L22521 14842
L22550 14814
" />
<path d="M22921 14585
L22921 14300
" />
<path d="M23092 14642
L22492 14442
L23092 14242
" />
<path d="M23092 13700
L22807 13900
" />
<path d="M23092 14042
L22492 14042
L22492 13814
L22521 13757
L22550 13728
L22607 13700
L22692 13700
L22750 13728
L22778 13757
L22807 13814
L22807 14042
" />
<path d="M23092 13442
L22492 13442
L22492 13300
L22521 13214
L22578 13157
L22635 13128
L22750 13100
L22835 13100
L22950 13128
L23007 13157
L23064 13214
L23092 13300
L23092 13442
" />
<path d="M29271 25750
L29271 25464
" />
<path d="M29442 25807
L28842 25607
L29442 25407
" />
<path d="M29442 25207
L29042 25207
" />
<path d="M29157 25207
L29100 25178
L29071 25150
L29042 25092
L29042 25035
" />
<path d="M29442 24578
L28842 24578
" />
<path d="M29414 24578
L29442 24635
L29442 24750
L29414 24807
L29385 24835
L29328 24864
L29157 24864
L29100 24835
L29071 24807
L29042 24750
L29042 24635
L29071 24578
" />
<path d="M29042 24035
L29442 24035
" />
<path d="M29042 24292
L29357 24292
L29414 24264
L29442 24207
L29442 24121
L29414 24064
L29385 24035
" />
<path d="M29442 23750
L29042 23750
" />
<path d="M28842 23750
L28871 23778
L28900 23750
L28871 23721
L28842 23750
L28900 23750
" />
<path d="M29042 23464
L29442 23464
" />
<path d="M29100 23464
L29071 23435
L29042 23378
L29042 23292
L29071 23235
L29128 23207
L29442 23207
" />
<path d="M29442 22835
L29414 22892
L29385 22921
L29328 22950
L29157 22950
L29100 22921
L29071 22892
L29042 22835
L29042 22750
L29071 22692
L29100 22664
L29157 22635
L29328 22635
L29385 22664
L29414 22692
L29442 22750
L29442 22835
" />
<path d="M29042 21921
L29642 21921
" />
<path d="M29071 21921
L29042 21864
L29042 21750
L29071 21692
L29100 21664
L29157 21635
L29328 21635
L29385 21664
L29414 21692
L29442 21750
L29442 21864
L29414 21921
" />
<path d="M29442 21378
L29042 21378
" />
<path d="M29157 21378
L29100 21350
L29071 21321
L29042 21264
L29042 21207
" />
<path d="M29442 20921
L29414 20978
L29385 21007
L29328 21035
L29157 21035
L29100 21007
L29071 20978
L29042 20921
L29042 20835
L29071 20778
L29100 20750
L29157 20721
L29328 20721
L29385 20750
L29414 20778
L29442 20835
L29442 20921
" />
<path d="M29442 20007
L29042 20007
" />
<path d="M29100 20007
L29071 19978
L29042 19921
L29042 19835
L29071 19778
L29128 19750
L29442 19750
" />
<path d="M29128 19750
L29071 19721
L29042 19664
L29042 19578
L29071 19521
L29128 19492
L29442 19492
" />
<path d="M29442 19207
L29042 19207
" />
<path d="M28842 19207
L28871 19235
L28900 19207
L28871 19178
L28842 19207
L28900 19207
" />
<path d="M29414 18664
L29442 18721
L29442 18835
L29414 18892
L29385 18921
L29328 18950
L29157 18950
L29100 18921
L29071 18892
L29042 18835
L29042 18721
L29071 18664
" />
<path d="M29442 18407
L29042 18407
" />
<path d="M29157 18407
L29100 18378
L29071 18350
L29042 18292
L29042 18235
" />
<path d="M29442 17950
L29414 18007
L29385 18035
L29328 18064
L29157 18064
L29100 18035
L29071 18007
L29042 17950
L29042 17864
L29071 17807
L29100 17778
L29157 17750
L29328 17750
L29385 17778
L29414 17807
L29442 17864
L29442 17950
" />
<path d="M22142 19428
L22342 19428
" />
<path d="M22428 19742
L22142 19742
L22142 19142
L22428 19142
" />
<path d="M22657 19714
L22742 19742
L22885 19742
L22942 19714
L22971 19685
L22999 19628
L22999 19571
L22971 19514
L22942 19485
L22885 19457
L22771 19428
L22714 19400
L22685 19371
L22657 19314
L22657 19257
L22685 19200
L22714 19171
L22771 19142
L22914 19142
L22999 19171
" />
<path d="M23257 19742
L23257 19142
L23485 19142
L23542 19171
L23571 19200
L23599 19257
L23599 19342
L23571 19400
L23542 19428
L23485 19457
L23257 19457
" />
<path d="M23942 19400
L23885 19371
L23857 19342
L23828 19285
L23828 19257
L23857 19200
L23885 19171
L23942 19142
L24057 19142
L24114 19171
L24142 19200
L24171 19257
L24171 19285
L24142 19342
L24114 19371
L24057 19400
L23942 19400
L23885 19428
L23857 19457
L23828 19514
L23828 19628
L23857 19685
L23885 19714
L23942 19742
L24057 19742
L24114 19714
L24142 19685
L24171 19628
L24171 19514
L24142 19457
L24114 19428
L24057 19400
" />
<path d="M24400 19200
L24428 19171
L24485 19142
L24628 19142
L24685 19171
L24714 19200
L24742 19257
L24742 19314
L24714 19400
L24371 19742
L24742 19742
" />
<path d="M25257 19142
L25142 19142
L25085 19171
L25057 19200
L25000 19285
L24971 19400
L24971 19628
L25000 19685
L25028 19714
L25085 19742
L25200 19742
L25257 19714
L25285 19685
L25314 19628
L25314 19485
L25285 19428
L25257 19400
L25200 19371
L25085 19371
L25028 19400
L25000 19428
L24971 19485
" />
<path d="M25828 19142
L25714 19142
L25657 19171
L25628 19200
L25571 19285
L25542 19400
L25542 19628
L25571 19685
L25600 19714
L25657 19742
L25771 19742
L25828 19714
L25857 19685
L25885 19628
L25885 19485
L25857 19428
L25828 19400
L25771 19371
L25657 19371
L25600 19400
L25571 19428
L25542 19485
" />
</g>
<g style="fill:#000000; fill-opacity:0.0; 
stroke:#000000; stroke-width:80; stroke-opacity:1; 
stroke-linecap:round; stroke-linejoin:round;">
<path d="M19104 29061
L19352 29061
L19219 29214
L19276 29214
L19314 29233
L19333 29252
L19352 29290
L19352 29385
L19333 29423
L19314 29442
L19276 29461
L19161 29461
L19123 29442
L19104 29423
" />
<path d="M19466 29061
L19600 29461
L19733 29061
" />
<path d="M19828 29061
L20076 29061
L19942 29214
L20000 29214
L20038 29233
L20057 29252
L20076 29290
L20076 29385
L20057 29423
L20038 29442
L20000 29461
L19885 29461
L19847 29442
L19828 29423
" />
</g>
<g style="fill:#000000; fill-opacity:0.0; 
stroke:#000000; stroke-width:120; stroke-opacity:1; 
stroke-linecap:round; stroke-linejoin:round;">
<path d="M40657 18092
L40457 17807
" />
<path d="M40314 18092
L40314 17492
L40542 17492
L40600 17521
L40628 17550
L40657 17607
L40657 17692
L40628 17750
L40600 17778
L40542 17807
L40314 17807
" />
<path d="M40828 17492
L41171 17492
" />
<path d="M41000 18092
L41000 17492
" />
<path d="M41714 18035
L41685 18064
L41600 18092
L41542 18092
L41457 18064
L41400 18007
L41371 17950
L41342 17835
L41342 17750
L41371 17635
L41400 17578
L41457 17521
L41542 17492
L41600 17492
L41685 17521
L41714 17550
" />
</g>
<g style="fill:#000000; fill-opacity:0.0; 
stroke:#000000; stroke-width:78.7402; stroke-opacity:1; 
stroke-linecap:round; stroke-linejoin:round;">
<path d="M33143 11950
L32789 11950
L32789 11866
L32805 11815
L32839 11782
L32873 11765
L32940 11748
L32991 11748
L33059 11765
L33092 11782
L33126 11815
L33143 11866
L33143 11950
" />
<path d="M33143 11596
L32789 11596
" />
<path d="M32957 11596
L32957 11394
" />
<path d="M33143 11394
L32789 11394
" />
<path d="M32789 11275
L32789 11073
" />
<path d="M33143 11174
L32789 11174
" />
<path d="M33143 10769
L33143 10972
" />
<path d="M33143 10870
L32789 10870
L32839 10904
L32873 10938
L32890 10972
" />
<path d="M33143 10432
L33143 10634
" />
<path d="M33143 10533
L32789 10533
L32839 10567
L32873 10601
L32890 10634
" />
</g>
<g style="fill:#000000; fill-opacity:0.0; 
stroke:#000000; stroke-width:120; stroke-opacity:1; 
stroke-linecap:round; stroke-linejoin:round;">
<path d="M44314 17542
L43971 17542
" />
<path d="M44142 17542
L44142 16942
L44085 17028
L44028 17085
L43971 17114
" />
<path d="M44685 16942
L44742 16942
L44800 16971
L44828 17000
L44857 17057
L44885 17171
L44885 17314
L44857 17428
L44828 17485
L44800 17514
L44742 17542
L44685 17542
L44628 17514
L44600 17485
L44571 17428
L44542 17314
L44542 17171
L44571 17057
L44600 17000
L44628 16971
L44685 16942
" />
<path d="M45142 17542
L45142 16942
L45285 16942
L45371 16971
L45428 17028
L45457 17085
L45485 17200
L45485 17285
L45457 17400
L45428 17457
L45371 17514
L45285 17542
L45142 17542
" />
<path d="M45857 16942
L45971 16942
L46028 16971
L46085 17028
L46114 17142
L46114 17342
L46085 17457
L46028 17514
L45971 17542
L45857 17542
L45800 17514
L45742 17457
L45714 17342
L45714 17142
L45742 17028
L45800 16971
L45857 16942
" />
<path d="M46571 17228
L46371 17228
" />
<path d="M46371 17542
L46371 16942
L46657 16942
" />
<path d="M10814 25142
L10814 24542
L10957 24542
L11042 24571
L11099 24628
L11128 24685
L11157 24800
L11157 24885
L11128 25000
L11099 25057
L11042 25114
L10957 25142
L10814 25142
" />
<path d="M11757 25085
L11728 25114
L11642 25142
L11585 25142
L11499 25114
L11442 25057
L11414 25000
L11385 24885
L11385 24800
L11414 24685
L11442 24628
L11499 24571
L11585 24542
L11642 24542
L11728 24571
L11757 24600
" />
<path d="M12214 24828
L12014 24828
" />
<path d="M12014 25142
L12014 24542
L12299 24542
" />
<path d="M12471 24542
L12871 24542
L12614 25142
" />
<path d="M13042 24542
L13442 24542
L13185 25142
" />
</g>
<g style="fill:#000000; fill-opacity:0.0; 
stroke:#000000; stroke-width:80; stroke-opacity:1; 
stroke-linecap:round; stroke-linejoin:round;">
<path d="M45966 23423
L46023 23442
L46119 23442
L46157 23423
L46176 23404
L46195 23366
L46195 23328
L46176 23290
L46157 23271
L46119 23252
L46042 23233
L46004 23214
L45985 23194
L45966 23156
L45966 23118
L45985 23080
L46004 23061
L46042 23042
L46138 23042
L46195 23061
" />
<path d="M46328 23042
L46423 23442
L46500 23156
L46576 23442
L46671 23042
" />
<path d="M46804 23080
L46823 23061
L46861 23042
L46957 23042
L46995 23061
L47014 23080
L47033 23118
L47033 23156
L47014 23214
L46785 23442
L47033 23442
" />
</g>
<g style="fill:#000000; fill-opacity:0.0; 
stroke:#000000; stroke-width:196.85; stroke-opacity:1; 
stroke-linecap:round; stroke-linejoin:round;">
<path d="M48275 23549
L48200 23511
L48162 23474
L48125 23399
L48125 23174
L48162 23099
L48200 23061
L48275 23024
L48387 23024
L48462 23061
L48500 23099
L48537 23174
L48537 23399
L48500 23474
L48462 23511
L48387 23549
L48275 23549
" />
<path d="M48874 23549
L48874 22762
" />
<path d="M48949 23249
L49174 23549
" />
<path d="M49174 23024
L48874 23324
" />
</g>
<g style="fill:#000000; fill-opacity:0.0; 
stroke:#000000; stroke-width:80; stroke-opacity:1; 
stroke-linecap:round; stroke-linejoin:round;">
<path d="M45966 26423
L46023 26442
L46119 26442
L46157 26423
L46176 26404
L46195 26366
L46195 26328
L46176 26290
L46157 26271
L46119 26252
L46042 26233
L46004 26214
L45985 26194
L45966 26156
L45966 26118
L45985 26080
L46004 26061
L46042 26042
L46138 26042
L46195 26061
" />
<path d="M46328 26042
L46423 26442
L46500 26156
L46576 26442
L46671 26042
" />
<path d="M46785 26042
L47033 26042
L46900 26194
L46957 26194
L46995 26214
L47014 26233
L47033 26271
L47033 26366
L47014 26404
L46995 26423
L46957 26442
L46842 26442
L46804 26423
L46785 26404
" />
</g>
<g style="fill:#000000; fill-opacity:0.0; 
stroke:#000000; stroke-width:196.85; stroke-opacity:1; 
stroke-linecap:round; stroke-linejoin:round;">
<path d="M48443 25930
L48668 26530
L48893 25930
" />
</g>
<g style="fill:#000000; fill-opacity:0.0; 
stroke:#000000; stroke-width:80; stroke-opacity:1; 
stroke-linecap:round; stroke-linejoin:round;">
<path d="M45966 20373
L46023 20392
L46119 20392
L46157 20373
L46176 20354
L46195 20316
L46195 20278
L46176 20240
L46157 20221
L46119 20202
L46042 20183
L46004 20164
L45985 20144
L45966 20106
L45966 20068
L45985 20030
L46004 20011
L46042 19992
L46138 19992
L46195 20011
" />
<path d="M46328 19992
L46423 20392
L46500 20106
L46576 20392
L46671 19992
" />
<path d="M47033 20392
L46804 20392
" />
<path d="M46919 20392
L46919 19992
L46880 20049
L46842 20087
L46804 20106
" />
</g>
<g style="fill:#000000; fill-opacity:0.0; 
stroke:#000000; stroke-width:196.85; stroke-opacity:1; 
stroke-linecap:round; stroke-linejoin:round;">
<path d="M48393 20530
L48618 19930
L48843 20530
" />
</g>
<g style="fill:#000000; fill-opacity:0.0; 
stroke:#000000; stroke-width:80; stroke-opacity:1; 
stroke-linecap:round; stroke-linejoin:round;">
<path d="M35083 18754
L35064 18773
L35007 18792
L34969 18792
L34911 18773
L34873 18735
L34854 18697
L34835 18621
L34835 18564
L34854 18487
L34873 18449
L34911 18411
L34969 18392
L35007 18392
L35064 18411
L35083 18430
" />
<path d="M35464 18792
L35235 18792
" />
<path d="M35350 18792
L35350 18392
L35311 18449
L35273 18487
L35235 18506
" />
<path d="M19333 25773
L19314 25792
L19257 25811
L19219 25811
L19161 25792
L19123 25754
L19104 25716
L19085 25640
L19085 25583
L19104 25507
L19123 25469
L19161 25430
L19219 25411
L19257 25411
L19314 25430
L19333 25450
" />
<path d="M19485 25450
L19504 25430
L19542 25411
L19638 25411
L19676 25430
L19695 25450
L19714 25488
L19714 25526
L19695 25583
L19466 25811
L19714 25811
" />
<path d="M37183 18754
L37164 18773
L37107 18792
L37069 18792
L37011 18773
L36973 18735
L36954 18697
L36935 18621
L36935 18564
L36954 18487
L36973 18449
L37011 18411
L37069 18392
L37107 18392
L37164 18411
L37183 18430
" />
<path d="M37316 18392
L37564 18392
L37430 18544
L37488 18544
L37526 18564
L37545 18583
L37564 18621
L37564 18716
L37545 18754
L37526 18773
L37488 18792
L37373 18792
L37335 18773
L37316 18754
" />
</g>
<g style="fill:#000000; fill-opacity:0.0; 
stroke:#000000; stroke-width:59.0551; stroke-opacity:1; 
stroke-linecap:round; stroke-linejoin:round;">
<path d="M17309 20443
L17121 20574
" />
<path d="M17309 20668
L16915 20668
L16915 20518
L16934 20481
L16953 20462
L16990 20443
L17046 20443
L17084 20462
L17103 20481
L17121 20518
L17121 20668
" />
<path d="M17103 20143
L17103 20274
" />
<path d="M17309 20274
L16915 20274
L16915 20087
" />
<path d="M17309 19937
L16915 19937
L17196 19806
L16915 19674
L17309 19674
" />
<path d="M17309 19281
L17309 19506
" />
<path d="M17309 19393
L16915 19393
L16971 19431
L17009 19468
L17028 19506
" />
<path d="M16953 19131
L16934 19112
L16915 19075
L16915 18981
L16934 18943
L16953 18925
L16990 18906
L17028 18906
L17084 18925
L17309 19150
L17309 18906
" />
<path d="M17103 18606
L17121 18550
L17140 18531
L17178 18512
L17234 18512
L17271 18531
L17290 18550
L17309 18587
L17309 18737
L16915 18737
L16915 18606
L16934 18568
L16953 18550
L16990 18531
L17028 18531
L17065 18550
L17084 18568
L17103 18606
L17103 18737
" />
</g>
<g style="fill:#000000; fill-opacity:0.0; 
stroke:#000000; stroke-width:80; stroke-opacity:1; 
stroke-linecap:round; stroke-linejoin:round;">
<path d="M23578 25272
L23411 25010
" />
<path d="M23292 25272
L23292 24722
L23483 24722
L23530 24748
L23554 24775
L23578 24827
L23578 24905
L23554 24958
L23530 24984
L23483 25010
L23292 25010
" />
<path d="M24054 25272
L23769 25272
" />
<path d="M23911 25272
L23911 24722
L23864 24801
L23816 24853
L23769 24879
" />
<path d="M24292 25272
L24388 25272
L24435 25246
L24459 25220
L24507 25141
L24530 25036
L24530 24827
L24507 24775
L24483 24748
L24435 24722
L24340 24722
L24292 24748
L24269 24775
L24245 24827
L24245 24958
L24269 25010
L24292 25036
L24340 25063
L24435 25063
L24483 25036
L24507 25010
L24530 24958
" />
<path d="M23578 24372
L23411 24110
" />
<path d="M23292 24372
L23292 23822
L23483 23822
L23530 23848
L23554 23875
L23578 23927
L23578 24005
L23554 24058
L23530 24084
L23483 24110
L23292 24110
" />
<path d="M24054 24372
L23769 24372
" />
<path d="M23911 24372
L23911 23822
L23864 23901
L23816 23953
L23769 23979
" />
<path d="M24483 24005
L24483 24372
" />
<path d="M24364 23796
L24245 24189
L24554 24189
" />
<path d="M23578 26772
L23411 26510
" />
<path d="M23292 26772
L23292 26222
L23483 26222
L23530 26248
L23554 26275
L23578 26327
L23578 26405
L23554 26458
L23530 26484
L23483 26510
L23292 26510
" />
<path d="M24054 26772
L23769 26772
" />
<path d="M23911 26772
L23911 26222
L23864 26301
L23816 26353
L23769 26379
" />
<path d="M24221 26222
L24530 26222
L24364 26432
L24435 26432
L24483 26458
L24507 26484
L24530 26536
L24530 26667
L24507 26720
L24483 26746
L24435 26772
L24292 26772
L24245 26746
L24221 26720
" />
<path d="M23578 25972
L23411 25710
" />
<path d="M23292 25972
L23292 25422
L23483 25422
L23530 25448
L23554 25475
L23578 25527
L23578 25605
L23554 25658
L23530 25684
L23483 25710
L23292 25710
" />
<path d="M24054 25972
L23769 25972
" />
<path d="M23911 25972
L23911 25422
L23864 25501
L23816 25553
L23769 25579
" />
<path d="M24245 25475
L24269 25448
L24316 25422
L24435 25422
L24483 25448
L24507 25475
L24530 25527
L24530 25579
L24507 25658
L24221 25972
L24530 25972
" />
<path d="M30928 15572
L30761 15310
" />
<path d="M30642 15572
L30642 15022
L30833 15022
L30880 15048
L30904 15075
L30928 15127
L30928 15205
L30904 15258
L30880 15284
L30833 15310
L30642 15310
" />
<path d="M31119 15075
L31142 15048
L31190 15022
L31309 15022
L31357 15048
L31380 15075
L31404 15127
L31404 15179
L31380 15258
L31095 15572
L31404 15572
" />
<path d="M31714 15022
L31761 15022
L31809 15048
L31833 15075
L31857 15127
L31880 15232
L31880 15363
L31857 15467
L31833 15520
L31809 15546
L31761 15572
L31714 15572
L31666 15546
L31642 15520
L31619 15467
L31595 15363
L31595 15232
L31619 15127
L31642 15075
L31666 15048
L31714 15022
" />
</g>
<g style="fill:#000000; fill-opacity:0.0; 
stroke:#000000; stroke-width:60; stroke-opacity:1; 
stroke-linecap:round; stroke-linejoin:round;">
<path d="M24821 12549
L25035 12549
L25078 12564
L25107 12592
L25121 12635
L25121 12664
" />
<path d="M25121 12407
L24821 12407
L24821 12292
L24835 12264
L24850 12250
L24878 12235
L24921 12235
L24950 12250
L24964 12264
L24978 12292
L24978 12407
" />
<path d="M25121 11950
L25121 12121
" />
<path d="M25121 12035
L24821 12035
L24864 12064
L24892 12092
L24907 12121
" />
<path d="M18071 12599
L18285 12599
L18328 12614
L18357 12642
L18371 12685
L18371 12714
" />
<path d="M18371 12457
L18071 12457
L18071 12342
L18085 12314
L18100 12300
L18128 12285
L18171 12285
L18200 12300
L18214 12314
L18228 12342
L18228 12457
" />
<path d="M18100 12171
L18085 12157
L18071 12128
L18071 12057
L18085 12028
L18100 12014
L18128 12000
L18157 12000
L18200 12014
L18371 12185
L18371 12000
" />
<path d="M114821 840
L115035 840
L115078 854
L115107 883
L115121 926
L115121 954
" />
<path d="M115121 697
L114821 697
L114821 583
L114835 554
L114850 540
L114878 526
L114921 526
L114950 540
L114964 554
L114978 583
L114978 697
" />
<path d="M114921 269
L115121 269
" />
<path d="M114807 340
L115021 411
L115021 226
" />
<path d="M32000 13521
L32000 13735
L31985 13778
L31957 13807
L31914 13821
L31885 13821
" />
<path d="M32142 13821
L32142 13521
L32257 13521
L32285 13535
L32300 13550
L32314 13578
L32314 13621
L32300 13650
L32285 13664
L32257 13678
L32142 13678
" />
<path d="M32585 13521
L32442 13521
L32428 13664
L32442 13650
L32471 13635
L32542 13635
L32571 13650
L32585 13664
L32600 13692
L32600 13764
L32585 13792
L32571 13807
L32542 13821
L32471 13821
L32442 13807
L32428 13792
" />
<path d="M18061 26183
L18347 26183
L18404 26202
L18442 26240
L18461 26297
L18461 26335
" />
<path d="M18461 25992
L18061 25992
L18061 25840
L18080 25802
L18100 25783
L18138 25764
L18195 25764
L18233 25783
L18252 25802
L18271 25840
L18271 25992
" />
<path d="M18061 25421
L18061 25497
L18080 25535
L18100 25554
L18157 25592
L18233 25611
L18385 25611
L18423 25592
L18442 25573
L18461 25535
L18461 25459
L18442 25421
L18423 25402
L18385 25383
L18290 25383
L18252 25402
L18233 25421
L18214 25459
L18214 25535
L18233 25573
L18252 25592
L18290 25611
" />
</g>
<g style="fill:#000000; fill-opacity:0.0; 
stroke:#000000; stroke-width:59.0551; stroke-opacity:1; 
stroke-linecap:round; stroke-linejoin:round;">
<path d="M59979 3355
L59829 3355
L59814 3505
L59829 3490
L59859 3475
L59934 3475
L59964 3490
L59979 3505
L59994 3535
L59994 3610
L59979 3640
L59964 3655
L59934 3670
L59859 3670
L59829 3655
L59814 3640
" />
<path d="M60084 3355
L60189 3670
L60294 3355
" />
<path d="M57830 3370
L57800 3355
L57755 3355
L57710 3370
L57680 3400
L57665 3430
L57650 3490
L57650 3535
L57665 3595
L57680 3625
L57710 3655
L57755 3670
L57785 3670
L57830 3655
L57845 3640
L57845 3535
L57785 3535
" />
<path d="M57980 3670
L57980 3355
L58160 3670
L58160 3355
" />
<path d="M58310 3670
L58310 3355
L58385 3355
L58430 3370
L58460 3400
L58475 3430
L58490 3490
L58490 3535
L58475 3595
L58460 3625
L58430 3655
L58385 3670
L58310 3670
" />
<path d="M46962 15159
L46962 15309
L47112 15324
L47097 15309
L47082 15279
L47082 15204
L47097 15174
L47112 15159
L47142 15144
L47217 15144
L47247 15159
L47262 15174
L47277 15204
L47277 15279
L47262 15309
L47247 15324
" />
<path d="M46962 15055
L47277 14950
L46962 14845
" />
<path d="M46977 13339
L46962 13369
L46962 13414
L46977 13459
L47007 13489
L47037 13504
L47097 13519
L47142 13519
L47202 13504
L47232 13489
L47262 13459
L47277 13414
L47277 13384
L47262 13339
L47247 13324
L47142 13324
L47142 13384
" />
<path d="M47277 13189
L46962 13189
L47277 13010
L46962 13010
" />
<path d="M47277 12860
L46962 12860
L46962 12785
L46977 12740
L47007 12710
L47037 12695
L47097 12680
L47142 12680
L47202 12695
L47232 12710
L47262 12740
L47277 12785
L47277 12860
" />
<path d="M13837 3355
L13687 3355
L13672 3505
L13687 3490
L13717 3475
L13792 3475
L13822 3490
L13837 3505
L13852 3535
L13852 3610
L13837 3640
L13822 3655
L13792 3670
L13717 3670
L13687 3655
L13672 3640
" />
<path d="M13942 3355
L14047 3670
L14152 3355
" />
<path d="M11689 3370
L11659 3355
L11614 3355
L11569 3370
L11539 3400
L11524 3430
L11509 3490
L11509 3535
L11524 3595
L11539 3625
L11569 3655
L11614 3670
L11644 3670
L11689 3655
L11704 3640
L11704 3535
L11644 3535
" />
<path d="M11839 3670
L11839 3355
L12019 3670
L12019 3355
" />
<path d="M12169 3670
L12169 3355
L12244 3355
L12289 3370
L12319 3400
L12334 3430
L12349 3490
L12349 3535
L12334 3595
L12319 3625
L12289 3655
L12244 3670
L12169 3670
" />
<path d="M36908 3355
L36758 3355
L36743 3505
L36758 3490
L36788 3475
L36863 3475
L36893 3490
L36908 3505
L36923 3535
L36923 3610
L36908 3640
L36893 3655
L36863 3670
L36788 3670
L36758 3655
L36743 3640
" />
<path d="M37013 3355
L37118 3670
L37223 3355
" />
<path d="M34760 3370
L34730 3355
L34685 3355
L34640 3370
L34610 3400
L34595 3430
L34580 3490
L34580 3535
L34595 3595
L34610 3625
L34640 3655
L34685 3670
L34715 3670
L34760 3655
L34775 3640
L34775 3535
L34715 3535
" />
<path d="M34910 3670
L34910 3355
L35089 3670
L35089 3355
" />
<path d="M35239 3670
L35239 3355
L35314 3355
L35359 3370
L35389 3400
L35404 3430
L35419 3490
L35419 3535
L35404 3595
L35389 3625
L35359 3655
L35314 3670
L35239 3670
" />
<path d="M83050 3355
L82900 3355
L82885 3505
L82900 3490
L82930 3475
L83005 3475
L83035 3490
L83050 3505
L83065 3535
L83065 3610
L83050 3640
L83035 3655
L83005 3670
L82930 3670
L82900 3655
L82885 3640
" />
<path d="M83155 3355
L83260 3670
L83365 3355
" />
<path d="M80901 3370
L80871 3355
L80826 3355
L80781 3370
L80751 3400
L80736 3430
L80721 3490
L80721 3535
L80736 3595
L80751 3625
L80781 3655
L80826 3670
L80856 3670
L80901 3655
L80916 3640
L80916 3535
L80856 3535
" />
<path d="M81051 3670
L81051 3355
L81231 3670
L81231 3355
" />
<path d="M81381 3670
L81381 3355
L81456 3355
L81501 3370
L81531 3400
L81546 3430
L81561 3490
L81561 3535
L81546 3595
L81531 3625
L81501 3655
L81456 3670
L81381 3670
" />
<path d="M333 5324
L183 5324
L168 5474
L183 5459
L213 5444
L288 5444
L318 5459
L333 5474
L348 5504
L348 5579
L333 5609
L318 5624
L288 5639
L213 5639
L183 5624
L168 5609
" />
<path d="M438 5324
L543 5639
L648 5324
" />
<path d="M2122 5339
L2092 5324
L2047 5324
L2002 5339
L1972 5369
L1957 5399
L1942 5459
L1942 5504
L1957 5564
L1972 5594
L2002 5624
L2047 5639
L2077 5639
L2122 5624
L2137 5609
L2137 5504
L2077 5504
" />
<path d="M2272 5639
L2272 5324
L2452 5639
L2452 5324
" />
<path d="M2602 5639
L2602 5324
L2677 5324
L2722 5339
L2752 5369
L2767 5399
L2782 5459
L2782 5504
L2767 5564
L2752 5594
L2722 5624
L2677 5639
L2602 5639
" />
<path d="M23404 5324
L23254 5324
L23239 5474
L23254 5459
L23284 5444
L23359 5444
L23389 5459
L23404 5474
L23419 5504
L23419 5579
L23404 5609
L23389 5624
L23359 5639
L23284 5639
L23254 5624
L23239 5609
" />
<path d="M23509 5324
L23614 5639
L23719 5324
" />
<path d="M25193 5339
L25163 5324
L25118 5324
L25073 5339
L25043 5369
L25028 5399
L25013 5459
L25013 5504
L25028 5564
L25043 5594
L25073 5624
L25118 5639
L25148 5639
L25193 5624
L25208 5609
L25208 5504
L25148 5504
" />
<path d="M25343 5639
L25343 5324
L25523 5639
L25523 5324
" />
<path d="M25673 5639
L25673 5324
L25748 5324
L25793 5339
L25823 5369
L25838 5399
L25853 5459
L25853 5504
L25838 5564
L25823 5594
L25793 5624
L25748 5639
L25673 5639
" />
<path d="M46475 5324
L46325 5324
L46310 5474
L46325 5459
L46355 5444
L46430 5444
L46460 5459
L46475 5474
L46490 5504
L46490 5579
L46475 5609
L46460 5624
L46430 5639
L46355 5639
L46325 5624
L46310 5609
" />
<path d="M46580 5324
L46685 5639
L46790 5324
" />
<path d="M48263 5339
L48233 5324
L48188 5324
L48143 5339
L48113 5369
L48098 5399
L48083 5459
L48083 5504
L48098 5564
L48113 5594
L48143 5624
L48188 5639
L48218 5639
L48263 5624
L48278 5609
L48278 5504
L48218 5504
" />
<path d="M48413 5639
L48413 5324
L48593 5639
L48593 5324
" />
<path d="M48743 5639
L48743 5324
L48818 5324
L48863 5339
L48893 5369
L48908 5399
L48923 5459
L48923 5504
L48908 5564
L48893 5594
L48863 5624
L48818 5639
L48743 5639
" />
<path d="M69546 5324
L69396 5324
L69381 5474
L69396 5459
L69426 5444
L69501 5444
L69531 5459
L69546 5474
L69561 5504
L69561 5579
L69546 5609
L69531 5624
L69501 5639
L69426 5639
L69396 5624
L69381 5609
" />
<path d="M69651 5324
L69756 5639
L69861 5324
" />
<path d="M71334 5339
L71304 5324
L71259 5324
L71214 5339
L71184 5369
L71169 5399
L71154 5459
L71154 5504
L71169 5564
L71184 5594
L71214 5624
L71259 5639
L71289 5639
L71334 5624
L71349 5609
L71349 5504
L71289 5504
" />
<path d="M71484 5639
L71484 5324
L71664 5639
L71664 5324
" />
<path d="M71814 5639
L71814 5324
L71889 5324
L71934 5339
L71964 5369
L71979 5399
L71994 5459
L71994 5504
L71979 5564
L71964 5594
L71934 5624
L71889 5639
L71814 5639
" />
<path d="M92617 5324
L92467 5324
L92452 5474
L92467 5459
L92497 5444
L92572 5444
L92602 5459
L92617 5474
L92632 5504
L92632 5579
L92617 5609
L92602 5624
L92572 5639
L92497 5639
L92467 5624
L92452 5609
" />
<path d="M92722 5324
L92827 5639
L92932 5324
" />
<path d="M94405 5339
L94375 5324
L94330 5324
L94285 5339
L94255 5369
L94240 5399
L94225 5459
L94225 5504
L94240 5564
L94255 5594
L94285 5624
L94330 5639
L94360 5639
L94405 5624
L94420 5609
L94420 5504
L94360 5504
" />
<path d="M94555 5639
L94555 5324
L94735 5639
L94735 5324
" />
<path d="M94885 5639
L94885 5324
L94960 5324
L95005 5339
L95035 5369
L95050 5399
L95065 5459
L95065 5504
L95050 5564
L95035 5594
L95005 5624
L94960 5639
L94885 5639
" />
<path d="M115688 5324
L115538 5324
L115523 5474
L115538 5459
L115568 5444
L115643 5444
L115673 5459
L115688 5474
L115703 5504
L115703 5579
L115688 5609
L115673 5624
L115643 5639
L115568 5639
L115538 5624
L115523 5609
" />
<path d="M115793 5324
L115898 5639
L116003 5324
" />
<path d="M117476 5339
L117446 5324
L117401 5324
L117356 5339
L117326 5369
L117311 5399
L117296 5459
L117296 5504
L117311 5564
L117326 5594
L117356 5624
L117401 5639
L117431 5639
L117476 5624
L117491 5609
L117491 5504
L117431 5504
" />
<path d="M117626 5639
L117626 5324
L117806 5639
L117806 5324
" />
<path d="M117956 5639
L117956 5324
L118031 5324
L118076 5339
L118106 5369
L118121 5399
L118136 5459
L118136 5504
L118121 5564
L118106 5594
L118076 5624
L118031 5639
L117956 5639
" />
<path d="M106121 3355
L105971 3355
L105956 3505
L105971 3490
L106001 3475
L106076 3475
L106106 3490
L106121 3505
L106136 3535
L106136 3610
L106121 3640
L106106 3655
L106076 3670
L106001 3670
L105971 3655
L105956 3640
" />
<path d="M106226 3355
L106331 3670
L106436 3355
" />
<path d="M103972 3370
L103942 3355
L103897 3355
L103852 3370
L103822 3400
L103807 3430
L103792 3490
L103792 3535
L103807 3595
L103822 3625
L103852 3655
L103897 3670
L103927 3670
L103972 3655
L103987 3640
L103987 3535
L103927 3535
" />
<path d="M104122 3670
L104122 3355
L104302 3670
L104302 3355
" />
<path d="M104452 3670
L104452 3355
L104527 3355
L104572 3370
L104602 3400
L104617 3430
L104632 3490
L104632 3535
L104617 3595
L104602 3625
L104572 3655
L104527 3670
L104452 3670
" />
<path d="M10890 15512
L10740 15512
L10725 15662
L10740 15647
L10770 15632
L10845 15632
L10875 15647
L10890 15662
L10905 15692
L10905 15767
L10890 15797
L10875 15812
L10845 15827
L10770 15827
L10740 15812
L10725 15797
" />
<path d="M10994 15512
L11099 15827
L11204 15512
" />
<path d="M10710 12327
L10680 12312
L10635 12312
L10590 12327
L10560 12357
L10545 12387
L10530 12447
L10530 12492
L10545 12552
L10560 12582
L10590 12612
L10635 12627
L10665 12627
L10710 12612
L10725 12597
L10725 12492
L10665 12492
" />
<path d="M10860 12627
L10860 12312
L11039 12627
L11039 12312
" />
<path d="M11189 12627
L11189 12312
L11264 12312
L11309 12327
L11339 12357
L11354 12387
L11369 12447
L11369 12492
L11354 12552
L11339 12582
L11309 12612
L11264 12627
L11189 12627
" />
<path d="M13837 5324
L13687 5324
L13672 5474
L13687 5459
L13717 5444
L13792 5444
L13822 5459
L13837 5474
L13852 5504
L13852 5579
L13837 5609
L13822 5624
L13792 5639
L13717 5639
L13687 5624
L13672 5609
" />
<path d="M13942 5324
L14047 5639
L14152 5324
" />
<path d="M11689 5339
L11659 5324
L11614 5324
L11569 5339
L11539 5369
L11524 5399
L11509 5459
L11509 5504
L11524 5564
L11539 5594
L11569 5624
L11614 5639
L11644 5639
L11689 5624
L11704 5609
L11704 5504
L11644 5504
" />
<path d="M11839 5639
L11839 5324
L12019 5639
L12019 5324
" />
<path d="M12169 5639
L12169 5324
L12244 5324
L12289 5339
L12319 5369
L12334 5399
L12349 5459
L12349 5504
L12334 5564
L12319 5594
L12289 5624
L12244 5639
L12169 5639
" />
<path d="M36908 5324
L36758 5324
L36743 5474
L36758 5459
L36788 5444
L36863 5444
L36893 5459
L36908 5474
L36923 5504
L36923 5579
L36908 5609
L36893 5624
L36863 5639
L36788 5639
L36758 5624
L36743 5609
" />
<path d="M37013 5324
L37118 5639
L37223 5324
" />
<path d="M34760 5339
L34730 5324
L34685 5324
L34640 5339
L34610 5369
L34595 5399
L34580 5459
L34580 5504
L34595 5564
L34610 5594
L34640 5624
L34685 5639
L34715 5639
L34760 5624
L34775 5609
L34775 5504
L34715 5504
" />
<path d="M34910 5639
L34910 5324
L35089 5639
L35089 5324
" />
<path d="M35239 5639
L35239 5324
L35314 5324
L35359 5339
L35389 5369
L35404 5399
L35419 5459
L35419 5504
L35404 5564
L35389 5594
L35359 5624
L35314 5639
L35239 5639
" />
<path d="M59979 5324
L59829 5324
L59814 5474
L59829 5459
L59859 5444
L59934 5444
L59964 5459
L59979 5474
L59994 5504
L59994 5579
L59979 5609
L59964 5624
L59934 5639
L59859 5639
L59829 5624
L59814 5609
" />
<path d="M60084 5324
L60189 5639
L60294 5324
" />
<path d="M57830 5339
L57800 5324
L57755 5324
L57710 5339
L57680 5369
L57665 5399
L57650 5459
L57650 5504
L57665 5564
L57680 5594
L57710 5624
L57755 5639
L57785 5639
L57830 5624
L57845 5609
L57845 5504
L57785 5504
" />
<path d="M57980 5639
L57980 5324
L58160 5639
L58160 5324
" />
<path d="M58310 5639
L58310 5324
L58385 5324
L58430 5339
L58460 5369
L58475 5399
L58490 5459
L58490 5504
L58475 5564
L58460 5594
L58430 5624
L58385 5639
L58310 5639
" />
<path d="M83050 5324
L82900 5324
L82885 5474
L82900 5459
L82930 5444
L83005 5444
L83035 5459
L83050 5474
L83065 5504
L83065 5579
L83050 5609
L83035 5624
L83005 5639
L82930 5639
L82900 5624
L82885 5609
" />
<path d="M83155 5324
L83260 5639
L83365 5324
" />
<path d="M80901 5339
L80871 5324
L80826 5324
L80781 5339
L80751 5369
L80736 5399
L80721 5459
L80721 5504
L80736 5564
L80751 5594
L80781 5624
L80826 5639
L80856 5639
L80901 5624
L80916 5609
L80916 5504
L80856 5504
" />
<path d="M81051 5639
L81051 5324
L81231 5639
L81231 5324
" />
<path d="M81381 5639
L81381 5324
L81456 5324
L81501 5339
L81531 5369
L81546 5399
L81561 5459
L81561 5504
L81546 5564
L81531 5594
L81501 5624
L81456 5639
L81381 5639
" />
<path d="M106121 5324
L105971 5324
L105956 5474
L105971 5459
L106001 5444
L106076 5444
L106106 5459
L106121 5474
L106136 5504
L106136 5579
L106121 5609
L106106 5624
L106076 5639
L106001 5639
L105971 5624
L105956 5609
" />
<path d="M106226 5324
L106331 5639
L106436 5324
" />
<path d="M103972 5339
L103942 5324
L103897 5324
L103852 5339
L103822 5369
L103807 5399
L103792 5459
L103792 5504
L103807 5564
L103822 5594
L103852 5624
L103897 5639
L103927 5639
L103972 5624
L103987 5609
L103987 5504
L103927 5504
" />
<path d="M104122 5639
L104122 5324
L104302 5639
L104302 5324
" />
<path d="M104452 5639
L104452 5324
L104527 5324
L104572 5339
L104602 5369
L104617 5399
L104632 5459
L104632 5504
L104617 5564
L104602 5594
L104572 5624
L104527 5639
L104452 5639
" />
<path d="M92617 3355
L92467 3355
L92452 3505
L92467 3490
L92497 3475
L92572 3475
L92602 3490
L92617 3505
L92632 3535
L92632 3610
L92617 3640
L92602 3655
L92572 3670
L92497 3670
L92467 3655
L92452 3640
" />
<path d="M92722 3355
L92827 3670
L92932 3355
" />
<path d="M94405 3370
L94375 3355
L94330 3355
L94285 3370
L94255 3400
L94240 3430
L94225 3490
L94225 3535
L94240 3595
L94255 3625
L94285 3655
L94330 3670
L94360 3670
L94405 3655
L94420 3640
L94420 3535
L94360 3535
" />
<path d="M94555 3670
L94555 3355
L94735 3670
L94735 3355
" />
<path d="M94885 3670
L94885 3355
L94960 3355
L95005 3370
L95035 3400
L95050 3430
L95065 3490
L95065 3535
L95050 3595
L95035 3625
L95005 3655
L94960 3670
L94885 3670
" />
<path d="M69546 3355
L69396 3355
L69381 3505
L69396 3490
L69426 3475
L69501 3475
L69531 3490
L69546 3505
L69561 3535
L69561 3610
L69546 3640
L69531 3655
L69501 3670
L69426 3670
L69396 3655
L69381 3640
" />
<path d="M69651 3355
L69756 3670
L69861 3355
" />
<path d="M71334 3370
L71304 3355
L71259 3355
L71214 3370
L71184 3400
L71169 3430
L71154 3490
L71154 3535
L71169 3595
L71184 3625
L71214 3655
L71259 3670
L71289 3670
L71334 3655
L71349 3640
L71349 3535
L71289 3535
" />
<path d="M71484 3670
L71484 3355
L71664 3670
L71664 3355
" />
<path d="M71814 3670
L71814 3355
L71889 3355
L71934 3370
L71964 3400
L71979 3430
L71994 3490
L71994 3535
L71979 3595
L71964 3625
L71934 3655
L71889 3670
L71814 3670
" />
<path d="M46475 3355
L46325 3355
L46310 3505
L46325 3490
L46355 3475
L46430 3475
L46460 3490
L46475 3505
L46490 3535
L46490 3610
L46475 3640
L46460 3655
L46430 3670
L46355 3670
L46325 3655
L46310 3640
" />
<path d="M46580 3355
L46685 3670
L46790 3355
" />
<path d="M48263 3370
L48233 3355
L48188 3355
L48143 3370
L48113 3400
L48098 3430
L48083 3490
L48083 3535
L48098 3595
L48113 3625
L48143 3655
L48188 3670
L48218 3670
L48263 3655
L48278 3640
L48278 3535
L48218 3535
" />
<path d="M48413 3670
L48413 3355
L48593 3670
L48593 3355
" />
<path d="M48743 3670
L48743 3355
L48818 3355
L48863 3370
L48893 3400
L48908 3430
L48923 3490
L48923 3535
L48908 3595
L48893 3625
L48863 3655
L48818 3670
L48743 3670
" />
<path d="M23404 3355
L23254 3355
L23239 3505
L23254 3490
L23284 3475
L23359 3475
L23389 3490
L23404 3505
L23419 3535
L23419 3610
L23404 3640
L23389 3655
L23359 3670
L23284 3670
L23254 3655
L23239 3640
" />
<path d="M23509 3355
L23614 3670
L23719 3355
" />
<path d="M25193 3370
L25163 3355
L25118 3355
L25073 3370
L25043 3400
L25028 3430
L25013 3490
L25013 3535
L25028 3595
L25043 3625
L25073 3655
L25118 3670
L25148 3670
L25193 3655
L25208 3640
L25208 3535
L25148 3535
" />
<path d="M25343 3670
L25343 3355
L25523 3670
L25523 3355
" />
<path d="M25673 3670
L25673 3355
L25748 3355
L25793 3370
L25823 3400
L25838 3430
L25853 3490
L25853 3535
L25838 3595
L25823 3625
L25793 3655
L25748 3670
L25673 3670
" />
<path d="M333 3355
L183 3355
L168 3505
L183 3490
L213 3475
L288 3475
L318 3490
L333 3505
L348 3535
L348 3610
L333 3640
L318 3655
L288 3670
L213 3670
L183 3655
L168 3640
" />
<path d="M438 3355
L543 3670
L648 3355
" />
<path d="M2122 3370
L2092 3355
L2047 3355
L2002 3370
L1972 3400
L1957 3430
L1942 3490
L1942 3535
L1957 3595
L1972 3625
L2002 3655
L2047 3670
L2077 3670
L2122 3655
L2137 3640
L2137 3535
L2077 3535
" />
<path d="M2272 3670
L2272 3355
L2452 3670
L2452 3355
" />
<path d="M2602 3670
L2602 3355
L2677 3355
L2722 3370
L2752 3400
L2767 3430
L2782 3490
L2782 3535
L2767 3595
L2752 3625
L2722 3655
L2677 3670
L2602 3670
" />
<path d="M115688 3355
L115538 3355
L115523 3505
L115538 3490
L115568 3475
L115643 3475
L115673 3490
L115688 3505
L115703 3535
L115703 3610
L115688 3640
L115673 3655
L115643 3670
L115568 3670
L115538 3655
L115523 3640
" />
<path d="M115793 3355
L115898 3670
L116003 3355
" />
<path d="M117476 3370
L117446 3355
L117401 3355
L117356 3370
L117326 3400
L117311 3430
L117296 3490
L117296 3535
L117311 3595
L117326 3625
L117356 3655
L117401 3670
L117431 3670
L117476 3655
L117491 3640
L117491 3535
L117431 3535
" />
<path d="M117626 3670
L117626 3355
L117806 3670
L117806 3355
" />
<path d="M117956 3670
L117956 3355
L118031 3355
L118076 3370
L118106 3400
L118121 3430
L118136 3490
L118136 3535
L118121 3595
L118106 3625
L118076 3655
L118031 3670
L117956 3670
" />
</g>
<g style="fill:#000000; fill-opacity:0.0; 
stroke:#000000; stroke-width:60; stroke-opacity:1; 
stroke-linecap:round; stroke-linejoin:round;">
<path d="M26200 14221
L26200 14435
L26185 14478
L26157 14507
L26114 14521
L26085 14521
" />
<path d="M26342 14521
L26342 14221
L26457 14221
L26485 14235
L26500 14250
L26514 14278
L26514 14321
L26500 14350
L26485 14364
L26457 14378
L26342 14378
" />
<path d="M26614 14221
L26800 14221
L26700 14335
L26742 14335
L26771 14350
L26785 14364
L26800 14392
L26800 14464
L26785 14492
L26771 14507
L26742 14521
L26657 14521
L26628 14507
L26614 14492
" />
<path d="M27085 14585
L27071 14571
L27042 14528
L27028 14500
L27014 14457
L27000 14385
L27000 14328
L27014 14257
L27028 14214
L27042 14185
L27071 14142
L27085 14128
" />
<path d="M27200 14271
L27200 14571
" />
<path d="M27200 14285
L27228 14271
L27285 14271
L27314 14285
L27328 14300
L27342 14328
L27342 14414
L27328 14442
L27314 14457
L27285 14471
L27228 14471
L27200 14457
" />
<path d="M27471 14471
L27471 14271
" />
<path d="M27471 14328
L27485 14300
L27500 14285
L27528 14271
L27557 14271
" />
<path d="M27700 14471
L27671 14457
L27657 14442
L27642 14414
L27642 14328
L27657 14300
L27671 14285
L27700 14271
L27742 14271
L27771 14285
L27785 14300
L27800 14328
L27800 14414
L27785 14442
L27771 14457
L27742 14471
L27700 14471
" />
<path d="M28057 14271
L28057 14514
L28042 14542
L28028 14557
L28000 14571
L27957 14571
L27928 14557
" />
<path d="M28057 14457
L28028 14471
L27971 14471
L27942 14457
L27928 14442
L27914 14414
L27914 14328
L27928 14300
L27942 14285
L27971 14271
L28028 14271
L28057 14285
" />
<path d="M28200 14442
L28214 14457
L28200 14471
L28185 14457
L28200 14442
L28200 14471
" />
<path d="M28314 14585
L28328 14571
L28357 14528
L28371 14500
L28385 14457
L28400 14385
L28400 14328
L28385 14257
L28371 14214
L28357 14185
L28328 14142
L28314 14128
" />
</g>
<g style="fill:#000000; fill-opacity:0.0; 
stroke:#000000; stroke-width:80; stroke-opacity:1; 
stroke-linecap:round; stroke-linejoin:round;">
<path d="M29404 13561
L29404 13161
L29557 13161
L29595 13180
L29614 13200
L29633 13238
L29633 13295
L29614 13333
L29595 13352
L29557 13371
L29404 13371
" />
<path d="M29861 13333
L29823 13314
L29804 13295
L29785 13257
L29785 13238
L29804 13200
L29823 13180
L29861 13161
L29938 13161
L29976 13180
L29995 13200
L30014 13238
L30014 13257
L29995 13295
L29976 13314
L29938 13333
L29861 13333
L29823 13352
L29804 13371
L29785 13409
L29785 13485
L29804 13523
L29823 13542
L29861 13561
L29938 13561
L29976 13542
L29995 13523
L30014 13485
L30014 13409
L29995 13371
L29976 13352
L29938 13333
" />
<path d="M52801 8301
L52801 7901
L52954 7901
L52992 7920
L53011 7939
L53030 7977
L53030 8035
L53011 8073
L52992 8092
L52954 8111
L52801 8111
" />
<path d="M53411 8301
L53182 8301
" />
<path d="M53296 8301
L53296 7901
L53258 7958
L53220 7996
L53182 8015
" />
<path d="M53792 8301
L53563 8301
" />
<path d="M53677 8301
L53677 7901
L53639 7958
L53601 7996
L53563 8015
" />
</g>
<g style="fill:#000000; fill-opacity:0.0; 
stroke:#000000; stroke-width:59.0551; stroke-opacity:1; 
stroke-linecap:round; stroke-linejoin:round;">
<path d="M86753 7393
L86828 7708
L86888 7483
L86948 7708
L87023 7393
" />
<path d="M87188 7708
L87158 7693
L87143 7678
L87128 7648
L87128 7558
L87143 7528
L87158 7513
L87188 7498
L87233 7498
L87263 7513
L87278 7528
L87293 7558
L87293 7648
L87278 7678
L87263 7693
L87233 7708
L87188 7708
" />
<path d="M87158 7393
L87173 7408
L87158 7423
L87143 7408
L87158 7393
L87158 7423
" />
<path d="M87278 7393
L87293 7408
L87278 7423
L87263 7408
L87278 7393
L87278 7423
" />
<path d="M87428 7708
L87428 7498
" />
<path d="M87428 7558
L87443 7528
L87458 7513
L87488 7498
L87518 7498
" />
<path d="M87758 7708
L87758 7393
" />
<path d="M87758 7693
L87728 7708
L87668 7708
L87638 7693
L87623 7678
L87608 7648
L87608 7558
L87623 7528
L87638 7513
L87668 7498
L87728 7498
L87758 7513
" />
<path d="M88043 7693
L88013 7708
L87953 7708
L87923 7693
L87908 7678
L87893 7648
L87893 7558
L87908 7528
L87923 7513
L87953 7498
L88013 7498
L88043 7513
" />
<path d="M88223 7708
L88193 7693
L88178 7663
L88178 7393
" />
<path d="M88388 7708
L88358 7693
L88343 7678
L88328 7648
L88328 7558
L88343 7528
L88358 7513
L88388 7498
L88433 7498
L88463 7513
L88478 7528
L88493 7558
L88493 7648
L88478 7678
L88463 7693
L88433 7708
L88388 7708
" />
<path d="M88763 7693
L88733 7708
L88673 7708
L88643 7693
L88628 7678
L88613 7648
L88613 7558
L88628 7528
L88643 7513
L88673 7498
L88733 7498
L88763 7513
" />
<path d="M88898 7708
L88898 7393
" />
<path d="M88928 7588
L89018 7708
" />
<path d="M89018 7498
L88898 7618
" />
<path d="M86753 3593
L86828 3908
L86888 3683
L86948 3908
L87023 3593
" />
<path d="M87188 3908
L87158 3893
L87143 3878
L87128 3848
L87128 3758
L87143 3728
L87158 3713
L87188 3698
L87233 3698
L87263 3713
L87278 3728
L87293 3758
L87293 3848
L87278 3878
L87263 3893
L87233 3908
L87188 3908
" />
<path d="M87158 3593
L87173 3608
L87158 3623
L87143 3608
L87158 3593
L87158 3623
" />
<path d="M87278 3593
L87293 3608
L87278 3623
L87263 3608
L87278 3593
L87278 3623
" />
<path d="M87428 3908
L87428 3698
" />
<path d="M87428 3758
L87443 3728
L87458 3713
L87488 3698
L87518 3698
" />
<path d="M87758 3908
L87758 3593
" />
<path d="M87758 3893
L87728 3908
L87668 3908
L87638 3893
L87623 3878
L87608 3848
L87608 3758
L87623 3728
L87638 3713
L87668 3698
L87728 3698
L87758 3713
" />
<path d="M88043 3893
L88013 3908
L87953 3908
L87923 3893
L87908 3878
L87893 3848
L87893 3758
L87908 3728
L87923 3713
L87953 3698
L88013 3698
L88043 3713
" />
<path d="M88223 3908
L88193 3893
L88178 3863
L88178 3593
" />
<path d="M88388 3908
L88358 3893
L88343 3878
L88328 3848
L88328 3758
L88343 3728
L88358 3713
L88388 3698
L88433 3698
L88463 3713
L88478 3728
L88493 3758
L88493 3848
L88478 3878
L88463 3893
L88433 3908
L88388 3908
" />
<path d="M88763 3893
L88733 3908
L88673 3908
L88643 3893
L88628 3878
L88613 3848
L88613 3758
L88628 3728
L88643 3713
L88673 3698
L88733 3698
L88763 3713
" />
<path d="M88898 3908
L88898 3593
" />
<path d="M88928 3788
L89018 3908
" />
<path d="M89018 3698
L88898 3818
" />
</g> 
</svg>
