<?xml version="1.0" standalone="no"?>
 <!DOCTYPE svg PUBLIC "-//W3C//DTD SVG 1.1//EN" 
 "http://www.w3.org/Graphics/SVG/1.1/DTD/svg11.dtd"> 
<svg xmlns="http://www.w3.org/2000/svg" version="1.1" 
    width="31.2268cm" height="7.91718cm" viewBox="0 0 122940 31170 ">
<title>SVG Picture created as woerdclock-F_SilkS.svg date 2014/11/22 22:19:21 </title>
  <desc>Picture generated by PCBNEW </desc>
<g style="fill:#000000; fill-opacity:1;stroke:#000000; stroke-opacity:1;
stroke-linecap:round; stroke-linejoin:round; "
 transform="translate(0 0) scale(1 1)">
</g>
<g style="fill:#FFFF00; fill-opacity:0.0; 
stroke:#FFFF00; stroke-width:150; stroke-opacity:1; 
stroke-linecap:round; stroke-linejoin:round;">
<path d="M61273 5938
L3202 5938
" />
<path d="M3202 5544
L61273 5544
" />
<path d="M2415 4757
L2415 2001
" />
<path d="M2415 9481
L2415 6725
" />
<path d="M119738 10269
L3202 10269
" />
<path d="M119738 5938
L61667 5938
" />
<path d="M61667 5544
L119738 5544
" />
<path d="M120525 6725
L120525 9481
" />
<path d="M120525 2001
L120525 4757
" />
<path d="M3202 1213
L119738 1213
" />
<path d="M3202.65 5938.35 A787.402 787.402 0.0 0 0 2415.25 6725.75 " />
<path d="M2415.25 9481.65 A787.402 787.402 0.0 0 0 3202.65 10269.1 " />
<path d="M119738 10269.1 A787.402 787.402 0.0 0 0 120525 9481.65 " />
<path d="M120525 6725.75 A787.402 787.402 0.0 0 0 119738 5938.35 " />
<path d="M120525 2001.34 A787.402 787.402 0.0 0 0 119738 1213.94 " />
<path d="M119738 5544.65 A787.402 787.402 0.0 0 0 120525 4757.24 " />
<path d="M2415.25 4757.24 A787.402 787.402 0.0 0 0 3202.65 5544.65 " />
<path d="M3202.65 1213.94 A787.402 787.402 0.0 0 0 2415.25 2001.34 " />
<path d="M12415 29914
L12415 12198
" />
<path d="M50761 30898
L13399 30898
" />
<path d="M51785 12198
L51785 29954
" />
<path d="M13399 11213
L50801 11213
" />
<path d="M50761.5 30899 A985.039 985.039 0.0 0 0 51785.3 29954.3 " />
<path d="M51785.3 12198.2 A984.252 984.252 0.0 0 0 50801.1 11213.9 " />
<path d="M13399.5 11213.9 A984.252 984.252 0.0 0 0 12415.2 12198.2 " />
<path d="M12415.2 29914.7 A984.252 984.252 0.0 0 0 13399.5 30899 " />
<path d="M61667 5544
L61667 5938
" />
<path d="M61273 5938
L61273 5544
" />
</g>
<g style="fill:#00A0A0; fill-opacity:0.0; 
stroke:#00A0A0; stroke-width:100; stroke-opacity:1; 
stroke-linecap:round; stroke-linejoin:round;">
<path d="M101558 8075
L101558 8399
L101577 8437
L101596 8456
L101634 8475
L101710 8475
L101748 8456
L101768 8437
L101787 8399
L101787 8075
" />
<path d="M102168 8075
L101977 8075
L101958 8266
L101977 8247
L102015 8228
L102110 8228
L102148 8247
L102168 8266
L102187 8304
L102187 8399
L102168 8437
L102148 8456
L102110 8475
L102015 8475
L101977 8456
L101958 8437
" />
<path d="M99225 9582
L99225 9773
L99415 9792
L99396 9773
L99377 9735
L99377 9640
L99396 9602
L99415 9582
L99453 9563
L99548 9563
L99587 9582
L99606 9602
L99625 9640
L99625 9735
L99606 9773
L99587 9792
" />
<path d="M99225 9449
L99625 9316
L99225 9182
" />
<path d="M99396 8687
L99377 8725
L99358 8744
L99320 8763
L99301 8763
L99263 8744
L99244 8725
L99225 8687
L99225 8611
L99244 8573
L99263 8554
L99301 8535
L99320 8535
L99358 8554
L99377 8573
L99396 8611
L99396 8687
L99415 8725
L99434 8744
L99472 8763
L99548 8763
L99587 8744
L99606 8725
L99625 8687
L99625 8611
L99606 8573
L99587 8554
L99548 8535
L99472 8535
L99434 8554
L99415 8573
L99396 8611
" />
<path d="M99510 8382
L99510 8192
" />
<path d="M99625 8421
L99225 8287
L99625 8154
" />
<path d="M99472 7716
L99472 7411
" />
<path d="M99587 6992
L99606 7011
L99625 7068
L99625 7106
L99606 7163
L99568 7202
L99529 7221
L99453 7240
L99396 7240
L99320 7221
L99282 7202
L99244 7163
L99225 7106
L99225 7068
L99244 7011
L99263 6992
" />
<path d="M99625 6763
L99606 6802
L99587 6821
L99548 6840
L99434 6840
L99396 6821
L99377 6802
L99358 6763
L99358 6706
L99377 6668
L99396 6649
L99434 6630
L99548 6630
L99587 6649
L99606 6668
L99625 6706
L99625 6763
" />
<path d="M99472 6459
L99472 6154
" />
<path d="M99625 6306
L99320 6306
" />
</g>
<g style="fill:#00A0A0; fill-opacity:0.0; 
stroke:#00A0A0; stroke-width:120; stroke-opacity:1; 
stroke-linecap:round; stroke-linejoin:round;">
<path d="M14029 22913
L14058 22828
L14058 22685
L14029 22628
L14000 22599
L13943 22571
L13886 22571
L13829 22599
L13800 22628
L13772 22685
L13743 22799
L13715 22856
L13686 22885
L13629 22913
L13572 22913
L13515 22885
L13486 22856
L13458 22799
L13458 22656
L13486 22571
" />
<path d="M14058 22313
L13458 22313
L13458 22171
L13486 22085
L13543 22028
L13600 21999
L13715 21971
L13800 21971
L13915 21999
L13972 22028
L14029 22085
L14058 22171
L14058 22313
" />
<path d="M13829 21713
L13829 21256
" />
<path d="M14000 20628
L14029 20656
L14058 20742
L14058 20799
L14029 20885
L13972 20942
L13915 20971
L13800 20999
L13715 20999
L13600 20971
L13543 20942
L13486 20885
L13458 20799
L13458 20742
L13486 20656
L13515 20628
" />
<path d="M13886 20399
L13886 20113
" />
<path d="M14058 20456
L13458 20256
L14058 20056
" />
<path d="M14058 19513
L13772 19713
" />
<path d="M14058 19856
L13458 19856
L13458 19628
L13486 19571
L13515 19542
L13572 19513
L13658 19513
L13715 19542
L13743 19571
L13772 19628
L13772 19856
" />
<path d="M14058 19256
L13458 19256
L13458 19113
L13486 19028
L13543 18971
L13600 18942
L13715 18913
L13800 18913
L13915 18942
L13972 18971
L14029 19028
L14058 19113
L14058 19256
" />
<path d="M31236 26963
L31236 26678
" />
<path d="M31408 27021
L30808 26821
L31408 26621
" />
<path d="M31408 26421
L31008 26421
" />
<path d="M31122 26421
L31065 26392
L31036 26363
L31008 26306
L31008 26249
" />
<path d="M31408 25792
L30808 25792
" />
<path d="M31379 25792
L31408 25849
L31408 25963
L31379 26021
L31350 26049
L31293 26078
L31122 26078
L31065 26049
L31036 26021
L31008 25963
L31008 25849
L31036 25792
" />
<path d="M31008 25249
L31408 25249
" />
<path d="M31008 25506
L31322 25506
L31379 25478
L31408 25421
L31408 25335
L31379 25278
L31350 25249
" />
<path d="M31408 24963
L31008 24963
" />
<path d="M30808 24963
L30836 24992
L30865 24963
L30836 24935
L30808 24963
L30865 24963
" />
<path d="M31008 24678
L31408 24678
" />
<path d="M31065 24678
L31036 24649
L31008 24592
L31008 24506
L31036 24449
L31093 24421
L31408 24421
" />
<path d="M31408 24049
L31379 24106
L31350 24135
L31293 24163
L31122 24163
L31065 24135
L31036 24106
L31008 24049
L31008 23963
L31036 23906
L31065 23878
L31122 23849
L31293 23849
L31350 23878
L31379 23906
L31408 23963
L31408 24049
" />
<path d="M31008 23135
L31608 23135
" />
<path d="M31036 23135
L31008 23078
L31008 22963
L31036 22906
L31065 22878
L31122 22849
L31293 22849
L31350 22878
L31379 22906
L31408 22963
L31408 23078
L31379 23135
" />
<path d="M31408 22592
L31008 22592
" />
<path d="M31122 22592
L31065 22563
L31036 22535
L31008 22478
L31008 22421
" />
<path d="M31408 22135
L31379 22192
L31350 22221
L31293 22249
L31122 22249
L31065 22221
L31036 22192
L31008 22135
L31008 22049
L31036 21992
L31065 21963
L31122 21935
L31293 21935
L31350 21963
L31379 21992
L31408 22049
L31408 22135
" />
<path d="M31408 21221
L31008 21221
" />
<path d="M31065 21221
L31036 21192
L31008 21135
L31008 21049
L31036 20992
L31093 20963
L31408 20963
" />
<path d="M31093 20963
L31036 20935
L31008 20878
L31008 20792
L31036 20735
L31093 20706
L31408 20706
" />
<path d="M31408 20421
L31008 20421
" />
<path d="M30808 20421
L30836 20449
L30865 20421
L30836 20392
L30808 20421
L30865 20421
" />
<path d="M31379 19878
L31408 19935
L31408 20049
L31379 20106
L31350 20135
L31293 20163
L31122 20163
L31065 20135
L31036 20106
L31008 20049
L31008 19935
L31036 19878
" />
<path d="M31408 19621
L31008 19621
" />
<path d="M31122 19621
L31065 19592
L31036 19563
L31008 19506
L31008 19449
" />
<path d="M31408 19163
L31379 19221
L31350 19249
L31293 19278
L31122 19278
L31065 19249
L31036 19221
L31008 19163
L31008 19078
L31036 19021
L31065 18992
L31122 18963
L31293 18963
L31350 18992
L31379 19021
L31408 19078
L31408 19163
" />
<path d="M24558 20642
L24758 20642
" />
<path d="M24843 20956
L24558 20956
L24558 20356
L24843 20356
" />
<path d="M25072 20928
L25158 20956
L25300 20956
L25358 20928
L25386 20899
L25415 20842
L25415 20785
L25386 20728
L25358 20699
L25300 20671
L25186 20642
L25129 20613
L25100 20585
L25072 20528
L25072 20471
L25100 20413
L25129 20385
L25186 20356
L25329 20356
L25415 20385
" />
<path d="M25672 20956
L25672 20356
L25900 20356
L25958 20385
L25986 20413
L26015 20471
L26015 20556
L25986 20613
L25958 20642
L25900 20671
L25672 20671
" />
<path d="M26358 20613
L26300 20585
L26272 20556
L26243 20499
L26243 20471
L26272 20413
L26300 20385
L26358 20356
L26472 20356
L26529 20385
L26558 20413
L26586 20471
L26586 20499
L26558 20556
L26529 20585
L26472 20613
L26358 20613
L26300 20642
L26272 20671
L26243 20728
L26243 20842
L26272 20899
L26300 20928
L26358 20956
L26472 20956
L26529 20928
L26558 20899
L26586 20842
L26586 20728
L26558 20671
L26529 20642
L26472 20613
" />
<path d="M26815 20413
L26843 20385
L26900 20356
L27043 20356
L27100 20385
L27129 20413
L27158 20471
L27158 20528
L27129 20613
L26786 20956
L27158 20956
" />
<path d="M27672 20356
L27558 20356
L27500 20385
L27472 20413
L27415 20499
L27386 20613
L27386 20842
L27415 20899
L27443 20928
L27500 20956
L27615 20956
L27672 20928
L27700 20899
L27729 20842
L27729 20699
L27700 20642
L27672 20613
L27615 20585
L27500 20585
L27443 20613
L27415 20642
L27386 20699
" />
<path d="M28243 20356
L28129 20356
L28072 20385
L28043 20413
L27986 20499
L27958 20613
L27958 20842
L27986 20899
L28015 20928
L28072 20956
L28186 20956
L28243 20928
L28272 20899
L28300 20842
L28300 20699
L28272 20642
L28243 20613
L28186 20585
L28072 20585
L28015 20613
L27986 20642
L27958 20699
" />
</g>
<g style="fill:#00A0A0; fill-opacity:0.0; 
stroke:#00A0A0; stroke-width:80; stroke-opacity:1; 
stroke-linecap:round; stroke-linejoin:round;">
<path d="M21520 30275
L21767 30275
L21634 30428
L21691 30428
L21729 30447
L21748 30466
L21767 30504
L21767 30599
L21748 30637
L21729 30656
L21691 30675
L21577 30675
L21539 30656
L21520 30637
" />
<path d="M21881 30275
L22015 30675
L22148 30275
" />
<path d="M22243 30275
L22491 30275
L22358 30428
L22415 30428
L22453 30447
L22472 30466
L22491 30504
L22491 30599
L22472 30637
L22453 30656
L22415 30675
L22300 30675
L22262 30656
L22243 30637
" />
</g>
<g style="fill:#00A0A0; fill-opacity:0.0; 
stroke:#00A0A0; stroke-width:120; stroke-opacity:1; 
stroke-linecap:round; stroke-linejoin:round;">
<path d="M43072 19306
L42872 19021
" />
<path d="M42729 19306
L42729 18706
L42958 18706
L43015 18735
L43043 18763
L43072 18821
L43072 18906
L43043 18963
L43015 18992
L42958 19021
L42729 19021
" />
<path d="M43243 18706
L43586 18706
" />
<path d="M43415 19306
L43415 18706
" />
<path d="M44129 19249
L44100 19278
L44015 19306
L43958 19306
L43872 19278
L43815 19221
L43786 19163
L43758 19049
L43758 18963
L43786 18849
L43815 18792
L43872 18735
L43958 18706
L44015 18706
L44100 18735
L44129 18763
" />
<path d="M35508 13985
L34908 13985
L34908 13842
L34936 13756
L34993 13699
L35050 13671
L35165 13642
L35250 13642
L35365 13671
L35422 13699
L35479 13756
L35508 13842
L35508 13985
" />
<path d="M35508 13385
L34908 13385
" />
<path d="M35193 13385
L35193 13042
" />
<path d="M35508 13042
L34908 13042
" />
<path d="M34908 12842
L34908 12499
" />
<path d="M35508 12671
L34908 12671
" />
<path d="M35508 11985
L35508 12328
" />
<path d="M35508 12156
L34908 12156
L34993 12213
L35050 12271
L35079 12328
" />
<path d="M35508 11413
L35508 11756
" />
<path d="M35508 11585
L34908 11585
L34993 11642
L35050 11699
L35079 11756
" />
<path d="M46729 18756
L46386 18756
" />
<path d="M46558 18756
L46558 18156
L46500 18242
L46443 18299
L46386 18328
" />
<path d="M47100 18156
L47158 18156
L47215 18185
L47243 18213
L47272 18271
L47300 18385
L47300 18528
L47272 18642
L47243 18699
L47215 18728
L47158 18756
L47100 18756
L47043 18728
L47015 18699
L46986 18642
L46958 18528
L46958 18385
L46986 18271
L47015 18213
L47043 18185
L47100 18156
" />
<path d="M47558 18756
L47558 18156
L47700 18156
L47786 18185
L47843 18242
L47872 18299
L47900 18413
L47900 18499
L47872 18613
L47843 18671
L47786 18728
L47700 18756
L47558 18756
" />
<path d="M48272 18156
L48386 18156
L48443 18185
L48500 18242
L48529 18356
L48529 18556
L48500 18671
L48443 18728
L48386 18756
L48272 18756
L48215 18728
L48158 18671
L48129 18556
L48129 18356
L48158 18242
L48215 18185
L48272 18156
" />
<path d="M48986 18442
L48786 18442
" />
<path d="M48786 18756
L48786 18156
L49072 18156
" />
<path d="M13229 26356
L13229 25756
L13372 25756
L13458 25785
L13515 25842
L13543 25899
L13572 26013
L13572 26099
L13543 26213
L13515 26271
L13458 26328
L13372 26356
L13229 26356
" />
<path d="M14172 26299
L14143 26328
L14058 26356
L14000 26356
L13915 26328
L13858 26271
L13829 26213
L13800 26099
L13800 26013
L13829 25899
L13858 25842
L13915 25785
L14000 25756
L14058 25756
L14143 25785
L14172 25813
" />
<path d="M14629 26042
L14429 26042
" />
<path d="M14429 26356
L14429 25756
L14715 25756
" />
<path d="M14886 25756
L15286 25756
L15029 26356
" />
<path d="M15458 25756
L15858 25756
L15600 26356
" />
</g>
<g style="fill:#00A0A0; fill-opacity:0.0; 
stroke:#00A0A0; stroke-width:80; stroke-opacity:1; 
stroke-linecap:round; stroke-linejoin:round;">
<path d="M48381 24637
L48439 24656
L48534 24656
L48572 24637
L48591 24618
L48610 24580
L48610 24542
L48591 24504
L48572 24485
L48534 24466
L48458 24447
L48420 24427
L48400 24408
L48381 24370
L48381 24332
L48400 24294
L48420 24275
L48458 24256
L48553 24256
L48610 24275
" />
<path d="M48743 24256
L48839 24656
L48915 24370
L48991 24656
L49086 24256
" />
<path d="M49220 24294
L49239 24275
L49277 24256
L49372 24256
L49410 24275
L49429 24294
L49448 24332
L49448 24370
L49429 24427
L49200 24656
L49448 24656
" />
</g>
<g style="fill:#00A0A0; fill-opacity:0.0; 
stroke:#00A0A0; stroke-width:196.85; stroke-opacity:1; 
stroke-linecap:round; stroke-linejoin:round;">
<path d="M50690 24763
L50615 24725
L50577 24688
L50540 24613
L50540 24388
L50577 24313
L50615 24275
L50690 24238
L50802 24238
L50877 24275
L50915 24313
L50952 24388
L50952 24613
L50915 24688
L50877 24725
L50802 24763
L50690 24763
" />
<path d="M51290 24763
L51290 23975
" />
<path d="M51365 24463
L51590 24763
" />
<path d="M51590 24238
L51290 24538
" />
</g>
<g style="fill:#00A0A0; fill-opacity:0.0; 
stroke:#00A0A0; stroke-width:80; stroke-opacity:1; 
stroke-linecap:round; stroke-linejoin:round;">
<path d="M48381 27637
L48439 27656
L48534 27656
L48572 27637
L48591 27618
L48610 27580
L48610 27542
L48591 27504
L48572 27485
L48534 27466
L48458 27447
L48420 27427
L48400 27408
L48381 27370
L48381 27332
L48400 27294
L48420 27275
L48458 27256
L48553 27256
L48610 27275
" />
<path d="M48743 27256
L48839 27656
L48915 27370
L48991 27656
L49086 27256
" />
<path d="M49200 27256
L49448 27256
L49315 27408
L49372 27408
L49410 27427
L49429 27447
L49448 27485
L49448 27580
L49429 27618
L49410 27637
L49372 27656
L49258 27656
L49220 27637
L49200 27618
" />
</g>
<g style="fill:#00A0A0; fill-opacity:0.0; 
stroke:#00A0A0; stroke-width:196.85; stroke-opacity:1; 
stroke-linecap:round; stroke-linejoin:round;">
<path d="M50859 27144
L51083 27744
L51308 27144
" />
</g>
<g style="fill:#00A0A0; fill-opacity:0.0; 
stroke:#00A0A0; stroke-width:80; stroke-opacity:1; 
stroke-linecap:round; stroke-linejoin:round;">
<path d="M48381 21587
L48439 21606
L48534 21606
L48572 21587
L48591 21568
L48610 21530
L48610 21492
L48591 21454
L48572 21435
L48534 21416
L48458 21397
L48420 21377
L48400 21358
L48381 21320
L48381 21282
L48400 21244
L48420 21225
L48458 21206
L48553 21206
L48610 21225
" />
<path d="M48743 21206
L48839 21606
L48915 21320
L48991 21606
L49086 21206
" />
<path d="M49448 21606
L49220 21606
" />
<path d="M49334 21606
L49334 21206
L49296 21263
L49258 21301
L49220 21320
" />
</g>
<g style="fill:#00A0A0; fill-opacity:0.0; 
stroke:#00A0A0; stroke-width:196.85; stroke-opacity:1; 
stroke-linecap:round; stroke-linejoin:round;">
<path d="M50809 21744
L51033 21144
L51258 21744
" />
</g>
<g style="fill:#00A0A0; fill-opacity:0.0; 
stroke:#00A0A0; stroke-width:80; stroke-opacity:1; 
stroke-linecap:round; stroke-linejoin:round;">
<path d="M37498 19968
L37479 19987
L37422 20006
L37384 20006
L37327 19987
L37289 19949
L37270 19911
L37250 19835
L37250 19777
L37270 19701
L37289 19663
L37327 19625
L37384 19606
L37422 19606
L37479 19625
L37498 19644
" />
<path d="M37879 20006
L37650 20006
" />
<path d="M37765 20006
L37765 19606
L37727 19663
L37689 19701
L37650 19720
" />
<path d="M21748 26987
L21729 27006
L21672 27025
L21634 27025
L21577 27006
L21539 26968
L21520 26930
L21500 26854
L21500 26797
L21520 26721
L21539 26682
L21577 26644
L21634 26625
L21672 26625
L21729 26644
L21748 26663
" />
<path d="M21900 26663
L21920 26644
L21958 26625
L22053 26625
L22091 26644
L22110 26663
L22129 26702
L22129 26740
L22110 26797
L21881 27025
L22129 27025
" />
<path d="M39598 19968
L39579 19987
L39522 20006
L39484 20006
L39427 19987
L39389 19949
L39370 19911
L39350 19835
L39350 19777
L39370 19701
L39389 19663
L39427 19625
L39484 19606
L39522 19606
L39579 19625
L39598 19644
" />
<path d="M39731 19606
L39979 19606
L39846 19758
L39903 19758
L39941 19777
L39960 19797
L39979 19835
L39979 19930
L39960 19968
L39941 19987
L39903 20006
L39789 20006
L39750 19987
L39731 19968
" />
</g>
<g style="fill:#00A0A0; fill-opacity:0.0; 
stroke:#00A0A0; stroke-width:59.0551; stroke-opacity:1; 
stroke-linecap:round; stroke-linejoin:round;">
<path d="M19724 21657
L19537 21788
" />
<path d="M19724 21882
L19330 21882
L19330 21732
L19349 21695
L19368 21676
L19405 21657
L19462 21657
L19499 21676
L19518 21695
L19537 21732
L19537 21882
" />
<path d="M19518 21357
L19518 21488
" />
<path d="M19724 21488
L19330 21488
L19330 21301
" />
<path d="M19724 21151
L19330 21151
L19612 21020
L19330 20888
L19724 20888
" />
<path d="M19724 20495
L19724 20720
" />
<path d="M19724 20607
L19330 20607
L19387 20645
L19424 20682
L19443 20720
" />
<path d="M19368 20345
L19349 20326
L19330 20289
L19330 20195
L19349 20157
L19368 20139
L19405 20120
L19443 20120
L19499 20139
L19724 20363
L19724 20120
" />
<path d="M19518 19820
L19537 19764
L19555 19745
L19593 19726
L19649 19726
L19687 19745
L19705 19764
L19724 19801
L19724 19951
L19330 19951
L19330 19820
L19349 19782
L19368 19764
L19405 19745
L19443 19745
L19480 19764
L19499 19782
L19518 19820
L19518 19951
" />
</g>
<g style="fill:#00A0A0; fill-opacity:0.0; 
stroke:#00A0A0; stroke-width:80; stroke-opacity:1; 
stroke-linecap:round; stroke-linejoin:round;">
<path d="M31820 15025
L31820 14625
L31972 14625
L32010 14644
L32029 14663
L32048 14702
L32048 14759
L32029 14797
L32010 14816
L31972 14835
L31820 14835
" />
<path d="M32277 14797
L32239 14778
L32220 14759
L32200 14721
L32200 14702
L32220 14663
L32239 14644
L32277 14625
L32353 14625
L32391 14644
L32410 14663
L32429 14702
L32429 14721
L32410 14759
L32391 14778
L32353 14797
L32277 14797
L32239 14816
L32220 14835
L32200 14873
L32200 14949
L32220 14987
L32239 15006
L32277 15025
L32353 15025
L32391 15006
L32410 14987
L32429 14949
L32429 14873
L32410 14835
L32391 14816
L32353 14797
" />
<path d="M57441 9765
L57441 9365
L57593 9365
L57631 9384
L57650 9403
L57669 9441
L57669 9498
L57650 9537
L57631 9556
L57593 9575
L57441 9575
" />
<path d="M58050 9765
L57822 9765
" />
<path d="M57936 9765
L57936 9365
L57898 9422
L57860 9460
L57822 9479
" />
<path d="M58431 9765
L58203 9765
" />
<path d="M58317 9765
L58317 9365
L58279 9422
L58241 9460
L58203 9479
" />
<path d="M25993 26486
L25827 26224
" />
<path d="M25708 26486
L25708 25936
L25898 25936
L25946 25962
L25970 25988
L25993 26041
L25993 26119
L25970 26172
L25946 26198
L25898 26224
L25708 26224
" />
<path d="M26470 26486
L26184 26486
" />
<path d="M26327 26486
L26327 25936
L26279 26015
L26231 26067
L26184 26093
" />
<path d="M26708 26486
L26803 26486
L26850 26460
L26874 26434
L26922 26355
L26946 26250
L26946 26041
L26922 25988
L26898 25962
L26850 25936
L26755 25936
L26708 25962
L26684 25988
L26660 26041
L26660 26172
L26684 26224
L26708 26250
L26755 26277
L26850 26277
L26898 26250
L26922 26224
L26946 26172
" />
<path d="M25993 25586
L25827 25324
" />
<path d="M25708 25586
L25708 25036
L25898 25036
L25946 25062
L25970 25088
L25993 25141
L25993 25219
L25970 25272
L25946 25298
L25898 25324
L25708 25324
" />
<path d="M26470 25586
L26184 25586
" />
<path d="M26327 25586
L26327 25036
L26279 25115
L26231 25167
L26184 25193
" />
<path d="M26898 25219
L26898 25586
" />
<path d="M26779 25010
L26660 25403
L26970 25403
" />
<path d="M25993 27986
L25827 27724
" />
<path d="M25708 27986
L25708 27436
L25898 27436
L25946 27462
L25970 27488
L25993 27541
L25993 27619
L25970 27672
L25946 27698
L25898 27724
L25708 27724
" />
<path d="M26470 27986
L26184 27986
" />
<path d="M26327 27986
L26327 27436
L26279 27515
L26231 27567
L26184 27593
" />
<path d="M26636 27436
L26946 27436
L26779 27646
L26850 27646
L26898 27672
L26922 27698
L26946 27750
L26946 27881
L26922 27934
L26898 27960
L26850 27986
L26708 27986
L26660 27960
L26636 27934
" />
<path d="M25993 27186
L25827 26924
" />
<path d="M25708 27186
L25708 26636
L25898 26636
L25946 26662
L25970 26688
L25993 26741
L25993 26819
L25970 26872
L25946 26898
L25898 26924
L25708 26924
" />
<path d="M26470 27186
L26184 27186
" />
<path d="M26327 27186
L26327 26636
L26279 26715
L26231 26767
L26184 26793
" />
<path d="M26660 26688
L26684 26662
L26731 26636
L26850 26636
L26898 26662
L26922 26688
L26946 26741
L26946 26793
L26922 26872
L26636 27186
L26946 27186
" />
<path d="M33343 16786
L33177 16524
" />
<path d="M33058 16786
L33058 16236
L33248 16236
L33296 16262
L33320 16288
L33343 16341
L33343 16419
L33320 16472
L33296 16498
L33248 16524
L33058 16524
" />
<path d="M33534 16288
L33558 16262
L33605 16236
L33724 16236
L33772 16262
L33796 16288
L33820 16341
L33820 16393
L33796 16472
L33510 16786
L33820 16786
" />
<path d="M34129 16236
L34177 16236
L34224 16262
L34248 16288
L34272 16341
L34296 16446
L34296 16577
L34272 16681
L34248 16734
L34224 16760
L34177 16786
L34129 16786
L34081 16760
L34058 16734
L34034 16681
L34010 16577
L34010 16446
L34034 16341
L34058 16288
L34081 16262
L34129 16236
" />
</g>
<g style="fill:#00A0A0; fill-opacity:0.0; 
stroke:#00A0A0; stroke-width:60; stroke-opacity:1; 
stroke-linecap:round; stroke-linejoin:round;">
<path d="M28479 15285
L28479 15499
L28465 15542
L28436 15571
L28393 15585
L28365 15585
" />
<path d="M28622 15585
L28622 15285
L28736 15285
L28765 15299
L28779 15313
L28793 15342
L28793 15385
L28779 15413
L28765 15428
L28736 15442
L28622 15442
" />
<path d="M28893 15285
L29079 15285
L28979 15399
L29022 15399
L29050 15413
L29065 15428
L29079 15456
L29079 15528
L29065 15556
L29050 15571
L29022 15585
L28936 15585
L28908 15571
L28893 15556
" />
<path d="M29522 15699
L29508 15685
L29479 15642
L29465 15613
L29450 15571
L29436 15499
L29436 15442
L29450 15371
L29465 15328
L29479 15299
L29508 15256
L29522 15242
" />
<path d="M29636 15385
L29636 15685
" />
<path d="M29636 15399
L29665 15385
L29722 15385
L29750 15399
L29765 15413
L29779 15442
L29779 15528
L29765 15556
L29750 15571
L29722 15585
L29665 15585
L29636 15571
" />
<path d="M29908 15585
L29908 15385
" />
<path d="M29908 15442
L29922 15413
L29936 15399
L29965 15385
L29993 15385
" />
<path d="M30136 15585
L30108 15571
L30093 15556
L30079 15528
L30079 15442
L30093 15413
L30108 15399
L30136 15385
L30179 15385
L30208 15399
L30222 15413
L30236 15442
L30236 15528
L30222 15556
L30208 15571
L30179 15585
L30136 15585
" />
<path d="M30493 15385
L30493 15628
L30479 15656
L30465 15671
L30436 15685
L30393 15685
L30365 15671
" />
<path d="M30493 15571
L30465 15585
L30408 15585
L30379 15571
L30365 15556
L30350 15528
L30350 15442
L30365 15413
L30379 15399
L30408 15385
L30465 15385
L30493 15399
" />
<path d="M30636 15556
L30650 15571
L30636 15585
L30622 15571
L30636 15556
L30636 15585
" />
<path d="M30750 15699
L30765 15685
L30793 15642
L30808 15613
L30822 15571
L30836 15499
L30836 15442
L30822 15371
L30808 15328
L30793 15299
L30765 15256
L30750 15242
" />
<path d="M27236 13763
L27450 13763
L27493 13778
L27522 13806
L27536 13849
L27536 13878
" />
<path d="M27536 13621
L27236 13621
L27236 13506
L27250 13478
L27265 13463
L27293 13449
L27336 13449
L27365 13463
L27379 13478
L27393 13506
L27393 13621
" />
<path d="M27536 13163
L27536 13335
" />
<path d="M27536 13249
L27236 13249
L27279 13278
L27308 13306
L27322 13335
" />
<path d="M20486 13813
L20700 13813
L20743 13828
L20772 13856
L20786 13899
L20786 13928
" />
<path d="M20786 13671
L20486 13671
L20486 13556
L20500 13528
L20515 13513
L20543 13499
L20586 13499
L20615 13513
L20629 13528
L20643 13556
L20643 13671
" />
<path d="M20515 13385
L20500 13371
L20486 13342
L20486 13271
L20500 13242
L20515 13228
L20543 13213
L20572 13213
L20615 13228
L20786 13399
L20786 13213
" />
<path d="M117236 2054
L117450 2054
L117493 2068
L117522 2097
L117536 2140
L117536 2168
" />
<path d="M117536 1911
L117236 1911
L117236 1797
L117250 1768
L117265 1754
L117293 1740
L117336 1740
L117365 1754
L117379 1768
L117393 1797
L117393 1911
" />
<path d="M117336 1483
L117536 1483
" />
<path d="M117222 1554
L117436 1625
L117436 1440
" />
<path d="M34415 14735
L34415 14949
L34400 14992
L34372 15021
L34329 15035
L34300 15035
" />
<path d="M34558 15035
L34558 14735
L34672 14735
L34700 14749
L34715 14763
L34729 14792
L34729 14835
L34715 14863
L34700 14878
L34672 14892
L34558 14892
" />
<path d="M35000 14735
L34858 14735
L34843 14878
L34858 14863
L34886 14849
L34958 14849
L34986 14863
L35000 14878
L35015 14906
L35015 14978
L35000 15006
L34986 15021
L34958 15035
L34886 15035
L34858 15021
L34843 15006
" />
<path d="M20477 27397
L20762 27397
L20820 27416
L20858 27454
L20877 27511
L20877 27549
" />
<path d="M20877 27206
L20477 27206
L20477 27054
L20496 27016
L20515 26997
L20553 26978
L20610 26978
L20648 26997
L20667 27016
L20686 27054
L20686 27206
" />
<path d="M20477 26635
L20477 26711
L20496 26749
L20515 26768
L20572 26806
L20648 26825
L20800 26825
L20839 26806
L20858 26787
L20877 26749
L20877 26673
L20858 26635
L20839 26616
L20800 26597
L20705 26597
L20667 26616
L20648 26635
L20629 26673
L20629 26749
L20648 26787
L20667 26806
L20705 26825
" />
</g>
<g style="fill:#00A0A0; fill-opacity:0.0; 
stroke:#00A0A0; stroke-width:59.0551; stroke-opacity:1; 
stroke-linecap:round; stroke-linejoin:round;">
<path d="M62394 4569
L62244 4569
L62229 4719
L62244 4704
L62274 4689
L62349 4689
L62379 4704
L62394 4719
L62409 4749
L62409 4824
L62394 4854
L62379 4869
L62349 4884
L62274 4884
L62244 4869
L62229 4854
" />
<path d="M62499 4569
L62604 4884
L62709 4569
" />
<path d="M60246 4584
L60216 4569
L60171 4569
L60126 4584
L60096 4614
L60081 4644
L60066 4704
L60066 4749
L60081 4809
L60096 4839
L60126 4869
L60171 4884
L60201 4884
L60246 4869
L60261 4854
L60261 4749
L60201 4749
" />
<path d="M60396 4884
L60396 4569
L60576 4884
L60576 4569
" />
<path d="M60726 4884
L60726 4569
L60801 4569
L60846 4584
L60876 4614
L60891 4644
L60906 4704
L60906 4749
L60891 4809
L60876 4839
L60846 4869
L60801 4884
L60726 4884
" />
<path d="M49377 16373
L49377 16523
L49527 16538
L49512 16523
L49497 16493
L49497 16418
L49512 16388
L49527 16373
L49557 16358
L49632 16358
L49662 16373
L49677 16388
L49692 16418
L49692 16493
L49677 16523
L49662 16538
" />
<path d="M49377 16268
L49692 16163
L49377 16058
" />
<path d="M49392 14553
L49377 14583
L49377 14628
L49392 14673
L49422 14703
L49452 14718
L49512 14733
L49557 14733
L49617 14718
L49647 14703
L49677 14673
L49692 14628
L49692 14598
L49677 14553
L49662 14538
L49557 14538
L49557 14598
" />
<path d="M49692 14403
L49377 14403
L49692 14223
L49377 14223
" />
<path d="M49692 14073
L49377 14073
L49377 13998
L49392 13953
L49422 13923
L49452 13908
L49512 13893
L49557 13893
L49617 13908
L49647 13923
L49677 13953
L49692 13998
L49692 14073
" />
<path d="M16252 4569
L16102 4569
L16087 4719
L16102 4704
L16132 4689
L16207 4689
L16237 4704
L16252 4719
L16267 4749
L16267 4824
L16252 4854
L16237 4869
L16207 4884
L16132 4884
L16102 4869
L16087 4854
" />
<path d="M16357 4569
L16462 4884
L16567 4569
" />
<path d="M14104 4584
L14074 4569
L14029 4569
L13984 4584
L13954 4614
L13939 4644
L13924 4704
L13924 4749
L13939 4809
L13954 4839
L13984 4869
L14029 4884
L14059 4884
L14104 4869
L14119 4854
L14119 4749
L14059 4749
" />
<path d="M14254 4884
L14254 4569
L14434 4884
L14434 4569
" />
<path d="M14584 4884
L14584 4569
L14659 4569
L14704 4584
L14734 4614
L14749 4644
L14764 4704
L14764 4749
L14749 4809
L14734 4839
L14704 4869
L14659 4884
L14584 4884
" />
<path d="M39323 4569
L39173 4569
L39158 4719
L39173 4704
L39203 4689
L39278 4689
L39308 4704
L39323 4719
L39338 4749
L39338 4824
L39323 4854
L39308 4869
L39278 4884
L39203 4884
L39173 4869
L39158 4854
" />
<path d="M39428 4569
L39533 4884
L39638 4569
" />
<path d="M37175 4584
L37145 4569
L37100 4569
L37055 4584
L37025 4614
L37010 4644
L36995 4704
L36995 4749
L37010 4809
L37025 4839
L37055 4869
L37100 4884
L37130 4884
L37175 4869
L37190 4854
L37190 4749
L37130 4749
" />
<path d="M37325 4884
L37325 4569
L37505 4884
L37505 4569
" />
<path d="M37655 4884
L37655 4569
L37730 4569
L37775 4584
L37805 4614
L37820 4644
L37835 4704
L37835 4749
L37820 4809
L37805 4839
L37775 4869
L37730 4884
L37655 4884
" />
<path d="M85465 4569
L85315 4569
L85300 4719
L85315 4704
L85345 4689
L85420 4689
L85450 4704
L85465 4719
L85480 4749
L85480 4824
L85465 4854
L85450 4869
L85420 4884
L85345 4884
L85315 4869
L85300 4854
" />
<path d="M85570 4569
L85675 4884
L85780 4569
" />
<path d="M83317 4584
L83287 4569
L83242 4569
L83197 4584
L83167 4614
L83152 4644
L83137 4704
L83137 4749
L83152 4809
L83167 4839
L83197 4869
L83242 4884
L83272 4884
L83317 4869
L83332 4854
L83332 4749
L83272 4749
" />
<path d="M83466 4884
L83466 4569
L83646 4884
L83646 4569
" />
<path d="M83796 4884
L83796 4569
L83871 4569
L83916 4584
L83946 4614
L83961 4644
L83976 4704
L83976 4749
L83961 4809
L83946 4839
L83916 4869
L83871 4884
L83796 4884
" />
<path d="M2748 6538
L2598 6538
L2583 6688
L2598 6673
L2628 6658
L2703 6658
L2733 6673
L2748 6688
L2763 6718
L2763 6793
L2748 6823
L2733 6838
L2703 6853
L2628 6853
L2598 6838
L2583 6823
" />
<path d="M2853 6538
L2958 6853
L3063 6538
" />
<path d="M4537 6553
L4507 6538
L4462 6538
L4417 6553
L4387 6583
L4372 6613
L4357 6673
L4357 6718
L4372 6778
L4387 6808
L4417 6838
L4462 6853
L4492 6853
L4537 6838
L4552 6823
L4552 6718
L4492 6718
" />
<path d="M4687 6853
L4687 6538
L4867 6853
L4867 6538
" />
<path d="M5017 6853
L5017 6538
L5092 6538
L5137 6553
L5167 6583
L5182 6613
L5197 6673
L5197 6718
L5182 6778
L5167 6808
L5137 6838
L5092 6853
L5017 6853
" />
<path d="M25819 6538
L25669 6538
L25654 6688
L25669 6673
L25699 6658
L25774 6658
L25804 6673
L25819 6688
L25834 6718
L25834 6793
L25819 6823
L25804 6838
L25774 6853
L25699 6853
L25669 6838
L25654 6823
" />
<path d="M25924 6538
L26029 6853
L26134 6538
" />
<path d="M27608 6553
L27578 6538
L27533 6538
L27488 6553
L27458 6583
L27443 6613
L27428 6673
L27428 6718
L27443 6778
L27458 6808
L27488 6838
L27533 6853
L27563 6853
L27608 6838
L27623 6823
L27623 6718
L27563 6718
" />
<path d="M27758 6853
L27758 6538
L27938 6853
L27938 6538
" />
<path d="M28088 6853
L28088 6538
L28163 6538
L28208 6553
L28238 6583
L28253 6613
L28268 6673
L28268 6718
L28253 6778
L28238 6808
L28208 6838
L28163 6853
L28088 6853
" />
<path d="M48890 6538
L48740 6538
L48725 6688
L48740 6673
L48770 6658
L48845 6658
L48875 6673
L48890 6688
L48905 6718
L48905 6793
L48890 6823
L48875 6838
L48845 6853
L48770 6853
L48740 6838
L48725 6823
" />
<path d="M48995 6538
L49100 6853
L49205 6538
" />
<path d="M50679 6553
L50649 6538
L50604 6538
L50559 6553
L50529 6583
L50514 6613
L50499 6673
L50499 6718
L50514 6778
L50529 6808
L50559 6838
L50604 6853
L50634 6853
L50679 6838
L50694 6823
L50694 6718
L50634 6718
" />
<path d="M50829 6853
L50829 6538
L51009 6853
L51009 6538
" />
<path d="M51159 6853
L51159 6538
L51234 6538
L51279 6553
L51309 6583
L51324 6613
L51339 6673
L51339 6718
L51324 6778
L51309 6808
L51279 6838
L51234 6853
L51159 6853
" />
<path d="M71961 6538
L71811 6538
L71796 6688
L71811 6673
L71841 6658
L71916 6658
L71946 6673
L71961 6688
L71976 6718
L71976 6793
L71961 6823
L71946 6838
L71916 6853
L71841 6853
L71811 6838
L71796 6823
" />
<path d="M72066 6538
L72171 6853
L72276 6538
" />
<path d="M73750 6553
L73720 6538
L73675 6538
L73630 6553
L73600 6583
L73585 6613
L73570 6673
L73570 6718
L73585 6778
L73600 6808
L73630 6838
L73675 6853
L73705 6853
L73750 6838
L73765 6823
L73765 6718
L73705 6718
" />
<path d="M73900 6853
L73900 6538
L74080 6853
L74080 6538
" />
<path d="M74230 6853
L74230 6538
L74305 6538
L74350 6553
L74380 6583
L74395 6613
L74410 6673
L74410 6718
L74395 6778
L74380 6808
L74350 6838
L74305 6853
L74230 6853
" />
<path d="M95032 6538
L94882 6538
L94867 6688
L94882 6673
L94912 6658
L94987 6658
L95017 6673
L95032 6688
L95047 6718
L95047 6793
L95032 6823
L95017 6838
L94987 6853
L94912 6853
L94882 6838
L94867 6823
" />
<path d="M95137 6538
L95242 6853
L95347 6538
" />
<path d="M96820 6553
L96790 6538
L96745 6538
L96700 6553
L96670 6583
L96655 6613
L96640 6673
L96640 6718
L96655 6778
L96670 6808
L96700 6838
L96745 6853
L96775 6853
L96820 6838
L96835 6823
L96835 6718
L96775 6718
" />
<path d="M96970 6853
L96970 6538
L97150 6853
L97150 6538
" />
<path d="M97300 6853
L97300 6538
L97375 6538
L97420 6553
L97450 6583
L97465 6613
L97480 6673
L97480 6718
L97465 6778
L97450 6808
L97420 6838
L97375 6853
L97300 6853
" />
<path d="M118103 6538
L117953 6538
L117938 6688
L117953 6673
L117983 6658
L118058 6658
L118088 6673
L118103 6688
L118118 6718
L118118 6793
L118103 6823
L118088 6838
L118058 6853
L117983 6853
L117953 6838
L117938 6823
" />
<path d="M118208 6538
L118313 6853
L118418 6538
" />
<path d="M119891 6553
L119861 6538
L119816 6538
L119771 6553
L119741 6583
L119726 6613
L119711 6673
L119711 6718
L119726 6778
L119741 6808
L119771 6838
L119816 6853
L119846 6853
L119891 6838
L119906 6823
L119906 6718
L119846 6718
" />
<path d="M120041 6853
L120041 6538
L120221 6853
L120221 6538
" />
<path d="M120371 6853
L120371 6538
L120446 6538
L120491 6553
L120521 6583
L120536 6613
L120551 6673
L120551 6718
L120536 6778
L120521 6808
L120491 6838
L120446 6853
L120371 6853
" />
<path d="M108536 4569
L108386 4569
L108371 4719
L108386 4704
L108416 4689
L108491 4689
L108521 4704
L108536 4719
L108551 4749
L108551 4824
L108536 4854
L108521 4869
L108491 4884
L108416 4884
L108386 4869
L108371 4854
" />
<path d="M108641 4569
L108746 4884
L108851 4569
" />
<path d="M106387 4584
L106357 4569
L106312 4569
L106267 4584
L106237 4614
L106222 4644
L106207 4704
L106207 4749
L106222 4809
L106237 4839
L106267 4869
L106312 4884
L106342 4884
L106387 4869
L106402 4854
L106402 4749
L106342 4749
" />
<path d="M106537 4884
L106537 4569
L106717 4884
L106717 4569
" />
<path d="M106867 4884
L106867 4569
L106942 4569
L106987 4584
L107017 4614
L107032 4644
L107047 4704
L107047 4749
L107032 4809
L107017 4839
L106987 4869
L106942 4884
L106867 4884
" />
<path d="M13305 16726
L13155 16726
L13140 16876
L13155 16861
L13185 16846
L13260 16846
L13290 16861
L13305 16876
L13320 16906
L13320 16981
L13305 17011
L13290 17026
L13260 17041
L13185 17041
L13155 17026
L13140 17011
" />
<path d="M13410 16726
L13515 17041
L13620 16726
" />
<path d="M13125 13541
L13095 13526
L13050 13526
L13005 13541
L12975 13571
L12960 13601
L12945 13661
L12945 13706
L12960 13766
L12975 13796
L13005 13826
L13050 13841
L13080 13841
L13125 13826
L13140 13811
L13140 13706
L13080 13706
" />
<path d="M13275 13841
L13275 13526
L13455 13841
L13455 13526
" />
<path d="M13605 13841
L13605 13526
L13680 13526
L13725 13541
L13755 13571
L13770 13601
L13785 13661
L13785 13706
L13770 13766
L13755 13796
L13725 13826
L13680 13841
L13605 13841
" />
<path d="M16252 6538
L16102 6538
L16087 6688
L16102 6673
L16132 6658
L16207 6658
L16237 6673
L16252 6688
L16267 6718
L16267 6793
L16252 6823
L16237 6838
L16207 6853
L16132 6853
L16102 6838
L16087 6823
" />
<path d="M16357 6538
L16462 6853
L16567 6538
" />
<path d="M14104 6553
L14074 6538
L14029 6538
L13984 6553
L13954 6583
L13939 6613
L13924 6673
L13924 6718
L13939 6778
L13954 6808
L13984 6838
L14029 6853
L14059 6853
L14104 6838
L14119 6823
L14119 6718
L14059 6718
" />
<path d="M14254 6853
L14254 6538
L14434 6853
L14434 6538
" />
<path d="M14584 6853
L14584 6538
L14659 6538
L14704 6553
L14734 6583
L14749 6613
L14764 6673
L14764 6718
L14749 6778
L14734 6808
L14704 6838
L14659 6853
L14584 6853
" />
<path d="M39323 6538
L39173 6538
L39158 6688
L39173 6673
L39203 6658
L39278 6658
L39308 6673
L39323 6688
L39338 6718
L39338 6793
L39323 6823
L39308 6838
L39278 6853
L39203 6853
L39173 6838
L39158 6823
" />
<path d="M39428 6538
L39533 6853
L39638 6538
" />
<path d="M37175 6553
L37145 6538
L37100 6538
L37055 6553
L37025 6583
L37010 6613
L36995 6673
L36995 6718
L37010 6778
L37025 6808
L37055 6838
L37100 6853
L37130 6853
L37175 6838
L37190 6823
L37190 6718
L37130 6718
" />
<path d="M37325 6853
L37325 6538
L37505 6853
L37505 6538
" />
<path d="M37655 6853
L37655 6538
L37730 6538
L37775 6553
L37805 6583
L37820 6613
L37835 6673
L37835 6718
L37820 6778
L37805 6808
L37775 6838
L37730 6853
L37655 6853
" />
<path d="M62394 6538
L62244 6538
L62229 6688
L62244 6673
L62274 6658
L62349 6658
L62379 6673
L62394 6688
L62409 6718
L62409 6793
L62394 6823
L62379 6838
L62349 6853
L62274 6853
L62244 6838
L62229 6823
" />
<path d="M62499 6538
L62604 6853
L62709 6538
" />
<path d="M60246 6553
L60216 6538
L60171 6538
L60126 6553
L60096 6583
L60081 6613
L60066 6673
L60066 6718
L60081 6778
L60096 6808
L60126 6838
L60171 6853
L60201 6853
L60246 6838
L60261 6823
L60261 6718
L60201 6718
" />
<path d="M60396 6853
L60396 6538
L60576 6853
L60576 6538
" />
<path d="M60726 6853
L60726 6538
L60801 6538
L60846 6553
L60876 6583
L60891 6613
L60906 6673
L60906 6718
L60891 6778
L60876 6808
L60846 6838
L60801 6853
L60726 6853
" />
<path d="M85465 6538
L85315 6538
L85300 6688
L85315 6673
L85345 6658
L85420 6658
L85450 6673
L85465 6688
L85480 6718
L85480 6793
L85465 6823
L85450 6838
L85420 6853
L85345 6853
L85315 6838
L85300 6823
" />
<path d="M85570 6538
L85675 6853
L85780 6538
" />
<path d="M83317 6553
L83287 6538
L83242 6538
L83197 6553
L83167 6583
L83152 6613
L83137 6673
L83137 6718
L83152 6778
L83167 6808
L83197 6838
L83242 6853
L83272 6853
L83317 6838
L83332 6823
L83332 6718
L83272 6718
" />
<path d="M83466 6853
L83466 6538
L83646 6853
L83646 6538
" />
<path d="M83796 6853
L83796 6538
L83871 6538
L83916 6553
L83946 6583
L83961 6613
L83976 6673
L83976 6718
L83961 6778
L83946 6808
L83916 6838
L83871 6853
L83796 6853
" />
<path d="M108536 6538
L108386 6538
L108371 6688
L108386 6673
L108416 6658
L108491 6658
L108521 6673
L108536 6688
L108551 6718
L108551 6793
L108536 6823
L108521 6838
L108491 6853
L108416 6853
L108386 6838
L108371 6823
" />
<path d="M108641 6538
L108746 6853
L108851 6538
" />
<path d="M106387 6553
L106357 6538
L106312 6538
L106267 6553
L106237 6583
L106222 6613
L106207 6673
L106207 6718
L106222 6778
L106237 6808
L106267 6838
L106312 6853
L106342 6853
L106387 6838
L106402 6823
L106402 6718
L106342 6718
" />
<path d="M106537 6853
L106537 6538
L106717 6853
L106717 6538
" />
<path d="M106867 6853
L106867 6538
L106942 6538
L106987 6553
L107017 6583
L107032 6613
L107047 6673
L107047 6718
L107032 6778
L107017 6808
L106987 6838
L106942 6853
L106867 6853
" />
<path d="M95032 4569
L94882 4569
L94867 4719
L94882 4704
L94912 4689
L94987 4689
L95017 4704
L95032 4719
L95047 4749
L95047 4824
L95032 4854
L95017 4869
L94987 4884
L94912 4884
L94882 4869
L94867 4854
" />
<path d="M95137 4569
L95242 4884
L95347 4569
" />
<path d="M96820 4584
L96790 4569
L96745 4569
L96700 4584
L96670 4614
L96655 4644
L96640 4704
L96640 4749
L96655 4809
L96670 4839
L96700 4869
L96745 4884
L96775 4884
L96820 4869
L96835 4854
L96835 4749
L96775 4749
" />
<path d="M96970 4884
L96970 4569
L97150 4884
L97150 4569
" />
<path d="M97300 4884
L97300 4569
L97375 4569
L97420 4584
L97450 4614
L97465 4644
L97480 4704
L97480 4749
L97465 4809
L97450 4839
L97420 4869
L97375 4884
L97300 4884
" />
<path d="M71961 4569
L71811 4569
L71796 4719
L71811 4704
L71841 4689
L71916 4689
L71946 4704
L71961 4719
L71976 4749
L71976 4824
L71961 4854
L71946 4869
L71916 4884
L71841 4884
L71811 4869
L71796 4854
" />
<path d="M72066 4569
L72171 4884
L72276 4569
" />
<path d="M73750 4584
L73720 4569
L73675 4569
L73630 4584
L73600 4614
L73585 4644
L73570 4704
L73570 4749
L73585 4809
L73600 4839
L73630 4869
L73675 4884
L73705 4884
L73750 4869
L73765 4854
L73765 4749
L73705 4749
" />
<path d="M73900 4884
L73900 4569
L74080 4884
L74080 4569
" />
<path d="M74230 4884
L74230 4569
L74305 4569
L74350 4584
L74380 4614
L74395 4644
L74410 4704
L74410 4749
L74395 4809
L74380 4839
L74350 4869
L74305 4884
L74230 4884
" />
<path d="M48890 4569
L48740 4569
L48725 4719
L48740 4704
L48770 4689
L48845 4689
L48875 4704
L48890 4719
L48905 4749
L48905 4824
L48890 4854
L48875 4869
L48845 4884
L48770 4884
L48740 4869
L48725 4854
" />
<path d="M48995 4569
L49100 4884
L49205 4569
" />
<path d="M50679 4584
L50649 4569
L50604 4569
L50559 4584
L50529 4614
L50514 4644
L50499 4704
L50499 4749
L50514 4809
L50529 4839
L50559 4869
L50604 4884
L50634 4884
L50679 4869
L50694 4854
L50694 4749
L50634 4749
" />
<path d="M50829 4884
L50829 4569
L51009 4884
L51009 4569
" />
<path d="M51159 4884
L51159 4569
L51234 4569
L51279 4584
L51309 4614
L51324 4644
L51339 4704
L51339 4749
L51324 4809
L51309 4839
L51279 4869
L51234 4884
L51159 4884
" />
<path d="M25819 4569
L25669 4569
L25654 4719
L25669 4704
L25699 4689
L25774 4689
L25804 4704
L25819 4719
L25834 4749
L25834 4824
L25819 4854
L25804 4869
L25774 4884
L25699 4884
L25669 4869
L25654 4854
" />
<path d="M25924 4569
L26029 4884
L26134 4569
" />
<path d="M27608 4584
L27578 4569
L27533 4569
L27488 4584
L27458 4614
L27443 4644
L27428 4704
L27428 4749
L27443 4809
L27458 4839
L27488 4869
L27533 4884
L27563 4884
L27608 4869
L27623 4854
L27623 4749
L27563 4749
" />
<path d="M27758 4884
L27758 4569
L27938 4884
L27938 4569
" />
<path d="M28088 4884
L28088 4569
L28163 4569
L28208 4584
L28238 4614
L28253 4644
L28268 4704
L28268 4749
L28253 4809
L28238 4839
L28208 4869
L28163 4884
L28088 4884
" />
<path d="M2748 4569
L2598 4569
L2583 4719
L2598 4704
L2628 4689
L2703 4689
L2733 4704
L2748 4719
L2763 4749
L2763 4824
L2748 4854
L2733 4869
L2703 4884
L2628 4884
L2598 4869
L2583 4854
" />
<path d="M2853 4569
L2958 4884
L3063 4569
" />
<path d="M4537 4584
L4507 4569
L4462 4569
L4417 4584
L4387 4614
L4372 4644
L4357 4704
L4357 4749
L4372 4809
L4387 4839
L4417 4869
L4462 4884
L4492 4884
L4537 4869
L4552 4854
L4552 4749
L4492 4749
" />
<path d="M4687 4884
L4687 4569
L4867 4884
L4867 4569
" />
<path d="M5017 4884
L5017 4569
L5092 4569
L5137 4584
L5167 4614
L5182 4644
L5197 4704
L5197 4749
L5182 4809
L5167 4839
L5137 4869
L5092 4884
L5017 4884
" />
<path d="M118103 4569
L117953 4569
L117938 4719
L117953 4704
L117983 4689
L118058 4689
L118088 4704
L118103 4719
L118118 4749
L118118 4824
L118103 4854
L118088 4869
L118058 4884
L117983 4884
L117953 4869
L117938 4854
" />
<path d="M118208 4569
L118313 4884
L118418 4569
" />
<path d="M119891 4584
L119861 4569
L119816 4569
L119771 4584
L119741 4614
L119726 4644
L119711 4704
L119711 4749
L119726 4809
L119741 4839
L119771 4869
L119816 4884
L119846 4884
L119891 4869
L119906 4854
L119906 4749
L119846 4749
" />
<path d="M120041 4884
L120041 4569
L120221 4884
L120221 4569
" />
<path d="M120371 4884
L120371 4569
L120446 4569
L120491 4584
L120521 4614
L120536 4644
L120551 4704
L120551 4749
L120536 4809
L120521 4839
L120491 4869
L120446 4884
L120371 4884
" />
</g>
<g style="fill:#00A0A0; fill-opacity:0.0; 
stroke:#00A0A0; stroke-width:150; stroke-opacity:1; 
stroke-linecap:round; stroke-linejoin:round;">
<path d="M100144 12281
L100144 12581
" />
<path d="M100144 12581
L103544 12581
" />
<path d="M103544 12581
L103544 12281
" />
<path d="M100144 11081
L103544 11081
" />
<path d="M100144 7281
L103544 7281
" />
<path d="M103544 12281
L103544 7281
" />
<path d="M100144 12281
L100144 7281
" />
<path d="M14321 14213
L14321 25394
" />
<path d="M14321 25394
L24164 25394
" />
<path d="M24164 25394
L24164 14213
" />
<path d="M24164 14213
L14321 14213
" />
<path d="M30665 30963
L30665 29963
" />
<path d="M33665 30963
L30665 30963
" />
<path d="M33665 30963
L33665 29963
" />
<path d="M28665 29963
L28665 16963
" />
<path d="M35665 29963
L35665 16963
" />
<path d="M28665 29963
L35665 29963
" />
<path d="M35665 16963
L28665 16963
" />
<path d="M28665 21163
L28665 30913
" />
<path d="M28665 30913
L22915 30913
" />
<path d="M22915 30913
L22915 21163
" />
<path d="M22915 21163
L28665 21163
" />
</g>
<g style="fill:#00A0A0; fill-opacity:0.0; 
stroke:#00A0A0; stroke-width:120; stroke-opacity:1; 
stroke-linecap:round; stroke-linejoin:round;">
<path d="M21215 30363
L22715 28863
" />
<path d="M22715 28863
L22715 28363
" />
<path d="M22715 28363
L22215 27863
" />
<path d="M22215 27863
L21215 27863
" />
<path d="M21215 27863
L20215 28863
" />
<path d="M20215 28863
L20215 29863
" />
<path d="M20215 29863
L20715 30363
" />
<path d="M20715 30363
L21215 30363
" />
</g>
<g style="fill:#00A0A0; fill-opacity:0.0; 
stroke:#00A0A0; stroke-width:150; stroke-opacity:1; 
stroke-linecap:round; stroke-linejoin:round;">
<path d="M47123 19455
L47123 30872
" />
<path d="M47123 30872
L35706 30872
" />
<path d="M35706 30872
L35706 19455
" />
<path d="M35706 19455
L47123 19455
" />
<path d="M35653 17463
L35653 11361
" />
<path d="M35653 11361
L40377 11361
" />
<path d="M40377 11361
L40377 17463
" />
<path d="M40377 17463
L35653 17463
" />
<path d="M40534 18010
L40534 11317
" />
<path d="M40534 11317
L49195 11317
" />
<path d="M49195 11317
L49195 18010
" />
<path d="M49195 18010
L40534 18010
" />
<path d="M13665 27213
L13665 30213
" />
<path d="M19118 26548
L19118 30879
" />
<path d="M19118 30879
L13212 30879
" />
<path d="M13212 30879
L13212 26548
" />
<path d="M13212 26548
L19118 26548
" />
</g>
<g style="fill:#00A0A0; fill-opacity:0.0; 
stroke:#00A0A0; stroke-width:50; stroke-opacity:1; 
stroke-linecap:round; stroke-linejoin:round;">
<circle cx="48915.2" cy="24463.9" r="1000" /> 
<path d="M47415 22963
L50415 22963
" />
<path d="M50415 22963
L50415 25963
" />
<path d="M50415 25963
L47415 25963
" />
<path d="M47415 22963
L47415 25963
" />
<circle cx="48915.2" cy="27463.9" r="1000" /> 
<path d="M47415 25963
L50415 25963
" />
<path d="M50415 25963
L50415 28963
" />
<path d="M50415 28963
L47415 28963
" />
<path d="M47415 25963
L47415 28963
" />
<circle cx="48915.2" cy="21463.9" r="1000" /> 
<path d="M47415 19963
L50415 19963
" />
<path d="M50415 19963
L50415 22963
" />
<path d="M50415 22963
L47415 22963
" />
<path d="M47415 19963
L47415 22963
" />
</g>
<g style="fill:#00A0A0; fill-opacity:0.0; 
stroke:#00A0A0; stroke-width:120; stroke-opacity:1; 
stroke-linecap:round; stroke-linejoin:round;">
<path d="M36585 18363
L38565 18363
" />
<path d="M38565 18363
L38565 19363
" />
<path d="M38565 19363
L36565 19363
" />
<path d="M36565 19363
L36565 18363
" />
<path d="M36565 18613
L36815 18363
" />
<path d="M22895 26463
L20915 26463
" />
<path d="M20915 26463
L20915 25463
" />
<path d="M20915 25463
L22915 25463
" />
<path d="M22915 25463
L22915 26463
" />
<path d="M22915 26213
L22665 26463
" />
<path d="M38685 18363
L40665 18363
" />
<path d="M40665 18363
L40665 19363
" />
<path d="M40665 19363
L38665 19363
" />
<path d="M38665 19363
L38665 18363
" />
<path d="M38665 18613
L38915 18363
" />
</g>
<g style="fill:#00A0A0; fill-opacity:0.0; 
stroke:#00A0A0; stroke-width:59.0551; stroke-opacity:1; 
stroke-linecap:round; stroke-linejoin:round;">
<circle cx="16409" cy="21995" r="1244.99" /> 
<path d="M19164 17664
L19164 23963
" />
<path d="M19164 23963
L12865 23963
" />
<path d="M12865 23963
L12865 17664
" />
<path d="M12865 17664
L19164 17664
" />
</g>
<g style="fill:#00A0A0; fill-opacity:0.0; 
stroke:#00A0A0; stroke-width:80; stroke-opacity:1; 
stroke-linecap:round; stroke-linejoin:round;">
<path d="M30615 12363
L33615 12363
" />
<path d="M33615 14363
L30615 14363
" />
<path d="M30615 14363
L30615 12363
" />
<path d="M33615 12363
L33615 14363
" />
<path d="M56427 7103
L59427 7103
" />
<path d="M59427 9103
L56427 9103
" />
<path d="M56427 9103
L56427 7103
" />
<path d="M59427 7103
L59427 9103
" />
</g>
<g style="fill:#00A0A0; fill-opacity:0.0; 
stroke:#00A0A0; stroke-width:150; stroke-opacity:1; 
stroke-linecap:round; stroke-linejoin:round;">
<circle cx="9560.92" cy="3379.29" r="984.252" /> 
<circle cx="113380" cy="3379.29" r="984.252" /> 
<circle cx="113380" cy="8103.7" r="984.252" /> 
<circle cx="44167.2" cy="8103.7" r="984.252" /> 
<circle cx="44167.2" cy="3379.29" r="984.252" /> 
<circle cx="9560.92" cy="8103.7" r="984.252" /> 
<circle cx="78773.5" cy="3379.29" r="984.252" /> 
<circle cx="78773.5" cy="8103.7" r="984.252" /> 
</g>
<g style="fill:#00A0A0; fill-opacity:0.0; 
stroke:#00A0A0; stroke-width:80; stroke-opacity:1; 
stroke-linecap:round; stroke-linejoin:round;">
<path d="M24815 26213
L25015 26213
" />
<path d="M27815 26213
L27615 26213
" />
<path d="M27615 26213
L27615 25813
" />
<path d="M27615 25813
L25015 25813
" />
<path d="M25015 25813
L25015 26613
" />
<path d="M25015 26613
L27615 26613
" />
<path d="M27615 26613
L27615 26213
" />
<path d="M25015 26013
L25215 25813
" />
<path d="M27815 25413
L27615 25413
" />
<path d="M24815 25413
L25015 25413
" />
<path d="M25015 25413
L25015 25813
" />
<path d="M25015 25813
L27615 25813
" />
<path d="M27615 25813
L27615 25013
" />
<path d="M27615 25013
L25015 25013
" />
<path d="M25015 25013
L25015 25413
" />
<path d="M27615 25613
L27415 25813
" />
<path d="M27815 27813
L27615 27813
" />
<path d="M24815 27813
L25015 27813
" />
<path d="M25015 27813
L25015 28213
" />
<path d="M25015 28213
L27615 28213
" />
<path d="M27615 28213
L27615 27413
" />
<path d="M27615 27413
L25015 27413
" />
<path d="M25015 27413
L25015 27813
" />
<path d="M27615 28013
L27415 28213
" />
<path d="M27815 27013
L27615 27013
" />
<path d="M24815 27013
L25015 27013
" />
<path d="M25015 27013
L25015 27413
" />
<path d="M25015 27413
L27615 27413
" />
<path d="M27615 27413
L27615 26613
" />
<path d="M27615 26613
L25015 26613
" />
<path d="M25015 26613
L25015 27013
" />
<path d="M27615 27213
L27415 27413
" />
<path d="M32165 16513
L32365 16513
" />
<path d="M35165 16513
L34965 16513
" />
<path d="M34965 16513
L34965 16113
" />
<path d="M34965 16113
L32365 16113
" />
<path d="M32365 16113
L32365 16913
" />
<path d="M32365 16913
L34965 16913
" />
<path d="M34965 16913
L34965 16513
" />
<path d="M32365 16313
L32565 16113
" />
</g>
<g style="fill:#00A0A0; fill-opacity:0.0; 
stroke:#00A0A0; stroke-width:60; stroke-opacity:1; 
stroke-linecap:round; stroke-linejoin:round;">
<path d="M30615 15813
L30615 16813
" />
<path d="M30615 16813
L28615 16813
" />
<path d="M28615 16813
L28615 15813
" />
<path d="M28615 15813
L30615 15813
" />
<path d="M27115 13063
L27115 14063
" />
<path d="M27115 14063
L25115 14063
" />
<path d="M25115 14063
L25115 13063
" />
<path d="M25115 13063
L27115 13063
" />
<path d="M20365 13063
L20365 14063
" />
<path d="M20365 14063
L18365 14063
" />
<path d="M18365 14063
L18365 13063
" />
<path d="M18365 13063
L20365 13063
" />
<path d="M117635 2304
L117635 1304
" />
<path d="M117635 1304
L119635 1304
" />
<path d="M119635 1304
L119635 2304
" />
<path d="M119635 2304
L117635 2304
" />
<path d="M33665 16113
L33665 15113
" />
<path d="M33665 15113
L35665 15113
" />
<path d="M35665 15113
L35665 16113
" />
<path d="M35665 16113
L33665 16113
" />
<path d="M19365 25563
L20365 25563
" />
<path d="M20365 25563
L20365 28563
" />
<path d="M20365 28563
L19365 28563
" />
<path d="M19365 28563
L19365 25563
" />
<path d="M20365 26563
L19365 26563
" />
</g>
<g style="fill:#00A0A0; fill-opacity:0.0; 
stroke:#00A0A0; stroke-width:150; stroke-opacity:1; 
stroke-linecap:round; stroke-linejoin:round;">
<path d="M61864 5150
L61470 4757
" />
<path d="M61470 4757
L61076 5150
" />
<path d="M63438 2395
L63438 4363
" />
<path d="M63438 4363
L59501 4363
" />
<path d="M59501 4363
L59501 2395
" />
<path d="M49029 15702
L49423 15308
" />
<path d="M49423 15308
L49029 14914
" />
<path d="M51785 17276
L49816 17276
" />
<path d="M49816 17276
L49816 13339
" />
<path d="M49816 13339
L51785 13339
" />
<path d="M15722 5150
L15328 4757
" />
<path d="M15328 4757
L14934 5150
" />
<path d="M17297 2395
L17297 4363
" />
<path d="M17297 4363
L13360 4363
" />
<path d="M13360 4363
L13360 2395
" />
<path d="M38793 5150
L38399 4757
" />
<path d="M38399 4757
L38005 5150
" />
<path d="M40368 2395
L40368 4363
" />
<path d="M40368 4363
L36430 4363
" />
<path d="M36430 4363
L36430 2395
" />
<path d="M84934 5150
L84541 4757
" />
<path d="M84541 4757
L84147 5150
" />
<path d="M86509 2395
L86509 4363
" />
<path d="M86509 4363
L82572 4363
" />
<path d="M82572 4363
L82572 2395
" />
<path d="M3399 6332
L3793 6725
" />
<path d="M3793 6725
L4186 6332
" />
<path d="M1824 9087
L1824 7119
" />
<path d="M1824 7119
L5761 7119
" />
<path d="M5761 7119
L5761 9087
" />
<path d="M26470 6332
L26864 6725
" />
<path d="M26864 6725
L27257 6332
" />
<path d="M24895 9087
L24895 7119
" />
<path d="M24895 7119
L28832 7119
" />
<path d="M28832 7119
L28832 9087
" />
<path d="M49541 6332
L49934 6725
" />
<path d="M49934 6725
L50328 6332
" />
<path d="M47966 9087
L47966 7119
" />
<path d="M47966 7119
L51903 7119
" />
<path d="M51903 7119
L51903 9087
" />
<path d="M72612 6332
L73005 6725
" />
<path d="M73005 6725
L73399 6332
" />
<path d="M71037 9087
L71037 7119
" />
<path d="M71037 7119
L74974 7119
" />
<path d="M74974 7119
L74974 9087
" />
<path d="M95682 6332
L96076 6725
" />
<path d="M96076 6725
L96470 6332
" />
<path d="M94108 9087
L94108 7119
" />
<path d="M94108 7119
L98045 7119
" />
<path d="M98045 7119
L98045 9087
" />
<path d="M118753 6332
L119147 6725
" />
<path d="M119147 6725
L119541 6332
" />
<path d="M117179 9087
L117179 7119
" />
<path d="M117179 7119
L121116 7119
" />
<path d="M121116 7119
L121116 9087
" />
<path d="M108005 5150
L107612 4757
" />
<path d="M107612 4757
L107218 5150
" />
<path d="M109580 2395
L109580 4363
" />
<path d="M109580 4363
L105643 4363
" />
<path d="M105643 4363
L105643 2395
" />
<path d="M14777 14914
L15171 15308
" />
<path d="M15171 15308
L14777 15702
" />
<path d="M12415 13339
L14383 13339
" />
<path d="M14383 13339
L14383 17276
" />
<path d="M14383 17276
L12415 17276
" />
<path d="M14934 6725
L15328 6332
" />
<path d="M15328 6332
L15722 6725
" />
<path d="M13360 9087
L13360 7119
" />
<path d="M13360 7119
L17297 7119
" />
<path d="M17297 7119
L17297 9087
" />
<path d="M38005 6725
L38399 6332
" />
<path d="M38399 6332
L38793 6725
" />
<path d="M36430 9087
L36430 7119
" />
<path d="M36430 7119
L40368 7119
" />
<path d="M40368 7119
L40368 9087
" />
<path d="M61076 6725
L61470 6332
" />
<path d="M61470 6332
L61864 6725
" />
<path d="M59501 9087
L59501 7119
" />
<path d="M59501 7119
L63438 7119
" />
<path d="M63438 7119
L63438 9087
" />
<path d="M84147 6725
L84541 6332
" />
<path d="M84541 6332
L84934 6725
" />
<path d="M82572 9087
L82572 7119
" />
<path d="M82572 7119
L86509 7119
" />
<path d="M86509 7119
L86509 9087
" />
<path d="M107218 6725
L107612 6332
" />
<path d="M107612 6332
L108005 6725
" />
<path d="M105643 9087
L105643 7119
" />
<path d="M105643 7119
L109580 7119
" />
<path d="M109580 7119
L109580 9087
" />
<path d="M96470 4757
L96076 5150
" />
<path d="M96076 5150
L95682 4757
" />
<path d="M98045 2395
L98045 4363
" />
<path d="M98045 4363
L94108 4363
" />
<path d="M94108 4363
L94108 2395
" />
<path d="M73399 4757
L73005 5150
" />
<path d="M73005 5150
L72612 4757
" />
<path d="M74974 2395
L74974 4363
" />
<path d="M74974 4363
L71037 4363
" />
<path d="M71037 4363
L71037 2395
" />
<path d="M50328 4757
L49934 5150
" />
<path d="M49934 5150
L49541 4757
" />
<path d="M51903 2395
L51903 4363
" />
<path d="M51903 4363
L47966 4363
" />
<path d="M47966 4363
L47966 2395
" />
<path d="M27257 4757
L26864 5150
" />
<path d="M26864 5150
L26470 4757
" />
<path d="M28832 2395
L28832 4363
" />
<path d="M28832 4363
L24895 4363
" />
<path d="M24895 4363
L24895 2395
" />
<path d="M4186 4757
L3793 5150
" />
<path d="M3793 5150
L3399 4757
" />
<path d="M5761 2395
L5761 4363
" />
<path d="M5761 4363
L1824 4363
" />
<path d="M1824 4363
L1824 2395
" />
<path d="M119541 4757
L119147 5150
" />
<path d="M119147 5150
L118753 4757
" />
<path d="M121116 2395
L121116 4363
" />
<path d="M121116 4363
L117179 4363
" />
<path d="M117179 4363
L117179 2395
" />
</g>
<g style="fill:#808000; fill-opacity:0.0; 
stroke:#808000; stroke-width:314.961; stroke-opacity:1; 
stroke-linecap:round; stroke-linejoin:round;">
</g>
<g style="fill:#808000; fill-opacity:1.0; 
stroke:#808000; stroke-width:314.961; stroke-opacity:1; 
stroke-linecap:round; stroke-linejoin:round;">
<polyline style="fill-rule:evenodd;"
points="102572,9717
101116,9717
101116,8851
102572,8851
102572,9717
" /> 
<polyline style="fill-rule:evenodd;"
points="102572,7514
101116,7514
101116,6648
102572,6648
102572,7514
" /> 
</g>
<g style="fill:#808000; fill-opacity:1.0; 
stroke:#808000; stroke-width:519.685; stroke-opacity:1; 
stroke-linecap:round; stroke-linejoin:round;">
<path d="M103844 8880
L103844 8282
" />
</g>
<g style="fill:#808000; fill-opacity:1.0; 
stroke:#808000; stroke-width:314.961; stroke-opacity:1; 
stroke-linecap:round; stroke-linejoin:round;">
<circle cx="23337.2" cy="15355.9" r="59.0197" /> 
<circle cx="23337.2" cy="23622.9" r="157.52" /> 
<circle cx="35165.2" cy="28463.9" r="138.02" /> 
<circle cx="35165.2" cy="27463.9" r="138.02" /> 
<circle cx="35165.2" cy="26463.9" r="138.02" /> 
<circle cx="35165.2" cy="25463.9" r="138.02" /> 
<circle cx="35165.2" cy="24463.9" r="138.02" /> 
<circle cx="35165.2" cy="23463.9" r="138.02" /> 
<circle cx="35165.2" cy="22463.9" r="138.02" /> 
<circle cx="35165.2" cy="21463.9" r="138.02" /> 
<circle cx="35165.2" cy="20463.9" r="138.02" /> 
<circle cx="35165.2" cy="19463.9" r="138.02" /> 
<circle cx="35165.2" cy="18463.9" r="138.02" /> 
<circle cx="35165.2" cy="17463.9" r="138.02" /> 
<circle cx="29165.2" cy="17463.9" r="138.02" /> 
<circle cx="29165.2" cy="18463.9" r="138.02" /> 
<circle cx="29165.2" cy="19463.9" r="138.02" /> 
<circle cx="29165.2" cy="20463.9" r="138.02" /> 
<circle cx="29165.2" cy="21463.9" r="138.02" /> 
<circle cx="29165.2" cy="22463.9" r="138.02" /> 
<circle cx="29165.2" cy="23463.9" r="138.02" /> 
<circle cx="29165.2" cy="24463.9" r="138.02" /> 
<circle cx="29165.2" cy="25463.9" r="138.02" /> 
<circle cx="29165.2" cy="26463.9" r="138.02" /> 
<circle cx="29165.2" cy="27463.9" r="138.02" /> 
<circle cx="29165.2" cy="28463.9" r="138.02" /> 
<circle cx="24415.2" cy="30163.9" r="138.02" /> 
<circle cx="24415.2" cy="29163.9" r="138.02" /> 
<circle cx="25415.2" cy="30163.9" r="138.02" /> 
<circle cx="25415.2" cy="29163.9" r="138.02" /> 
<circle cx="26415.2" cy="30163.9" r="138.02" /> 
<circle cx="26415.2" cy="29163.9" r="138.02" /> 
<circle cx="27415.2" cy="30163.9" r="138.02" /> 
<circle cx="27415.2" cy="29163.9" r="138.02" /> 
<polyline style="fill-rule:evenodd;"
points="22097,28981
22097,28746
22332,28746
22332,28981
22097,28981
" /> 
<circle cx="21215.2" cy="28863.9" r="117.52" /> 
<circle cx="21215.2" cy="29863.9" r="117.52" /> 
<circle cx="39308.9" cy="30313.5" r="142.52" /> 
<circle cx="40308.9" cy="30313.5" r="142.52" /> 
<circle cx="41308.9" cy="30313.5" r="142.52" /> 
<circle cx="42308.9" cy="30313.5" r="142.52" /> 
<circle cx="43308.9" cy="30313.5" r="142.52" /> 
<circle cx="36887.7" cy="20636.4" r="452.756" /> 
<circle cx="36887.7" cy="29691.5" r="452.756" /> 
<circle cx="36515.2" cy="17963.9" r="138.02" /> 
<circle cx="37515.2" cy="17963.9" r="138.02" /> 
<circle cx="38515.2" cy="17963.9" r="138.02" /> 
<circle cx="39515.2" cy="17963.9" r="138.02" /> 
<circle cx="41365.2" cy="17163.9" r="138.02" /> 
<circle cx="42365.2" cy="17163.9" r="138.02" /> 
<circle cx="43365.2" cy="17163.9" r="138.02" /> 
<circle cx="44365.2" cy="17163.9" r="138.02" /> 
<circle cx="45365.2" cy="17163.9" r="138.02" /> 
<circle cx="46365.2" cy="17163.9" r="138.02" /> 
<circle cx="47365.2" cy="17163.9" r="138.02" /> 
<circle cx="48365.2" cy="17163.9" r="138.02" /> 
<circle cx="41615.2" cy="12413.9" r="433.071" /> 
<circle cx="18165.2" cy="30213.9" r="141.732" /> 
<circle cx="17165.2" cy="30213.9" r="141.732" /> 
<circle cx="16165.2" cy="30213.9" r="141.732" /> 
<circle cx="15165.2" cy="30213.9" r="141.732" /> 
<circle cx="50415.2" cy="23463.9" r="117.52" /> 
<circle cx="50415.2" cy="25463.9" r="117.52" /> 
<circle cx="47415.2" cy="23463.9" r="117.52" /> 
<circle cx="47415.2" cy="25463.9" r="117.52" /> 
<circle cx="50415.2" cy="26463.9" r="117.52" /> 
<circle cx="50415.2" cy="28463.9" r="117.52" /> 
<circle cx="47415.2" cy="26463.9" r="117.52" /> 
<circle cx="47415.2" cy="28463.9" r="117.52" /> 
<circle cx="50415.2" cy="20463.9" r="117.52" /> 
<circle cx="50415.2" cy="22463.9" r="117.52" /> 
<circle cx="47415.2" cy="20463.9" r="117.52" /> 
<circle cx="47415.2" cy="22463.9" r="117.52" /> 
<circle cx="37065.2" cy="18863.9" r="117.52" /> 
<circle cx="38065.2" cy="18863.9" r="117.52" /> 
<circle cx="22415.2" cy="25963.9" r="117.52" /> 
<circle cx="21415.2" cy="25963.9" r="117.52" /> 
<circle cx="39165.2" cy="18863.9" r="117.52" /> 
<circle cx="40165.2" cy="18863.9" r="117.52" /> 
<circle cx="13653" cy="23963.5" r="137.795" /> 
<polyline style="fill-rule:evenodd;"
points="33257,12721
33257,13006
32972,13006
32972,12721
33257,12721
" /> 
<circle cx="33115.2" cy="13863.9" r="142.52" /> 
<circle cx="32115.2" cy="12863.9" r="142.52" /> 
<circle cx="32115.2" cy="13863.9" r="142.52" /> 
<circle cx="31115.2" cy="12863.9" r="142.52" /> 
<circle cx="31115.2" cy="13863.9" r="142.52" /> 
<polyline style="fill-rule:evenodd;"
points="59069,7461
59069,7746
58784,7746
58784,7461
59069,7461
" /> 
<circle cx="58927.1" cy="8603.7" r="142.52" /> 
<circle cx="57927.1" cy="7603.7" r="142.52" /> 
<circle cx="57927.1" cy="8603.7" r="142.52" /> 
<circle cx="56927.1" cy="7603.7" r="142.52" /> 
<circle cx="56927.1" cy="8603.7" r="142.52" /> 
<circle cx="9560.92" cy="3379.29" r="435.039" /> 
<circle cx="113380" cy="3379.29" r="435.039" /> 
<circle cx="113380" cy="8103.7" r="435.039" /> 
<circle cx="44167.2" cy="8103.7" r="435.039" /> 
<circle cx="44167.2" cy="3379.29" r="435.039" /> 
<circle cx="9560.92" cy="8103.7" r="435.039" /> 
<circle cx="78773.5" cy="3379.29" r="435.039" /> 
<circle cx="78773.5" cy="8103.7" r="435.039" /> 
<circle cx="24815.2" cy="26213.9" r="117.52" /> 
<circle cx="27815.2" cy="26213.9" r="117.52" /> 
<circle cx="27815.2" cy="25413.9" r="117.52" /> 
<circle cx="24815.2" cy="25413.9" r="117.52" /> 
<circle cx="27815.2" cy="27813.9" r="117.52" /> 
<circle cx="24815.2" cy="27813.9" r="117.52" /> 
<circle cx="27815.2" cy="27013.9" r="117.52" /> 
<circle cx="24815.2" cy="27013.9" r="117.52" /> 
<circle cx="32165.2" cy="16513.9" r="117.52" /> 
<circle cx="35165.2" cy="16513.9" r="117.52" /> 
<polyline style="fill-rule:evenodd;"
points="30257,16171
30257,16456
29972,16456
29972,16171
30257,16171
" /> 
<circle cx="29115.2" cy="16313.9" r="142.52" /> 
<polyline style="fill-rule:evenodd;"
points="26757,13421
26757,13706
26472,13706
26472,13421
26757,13421
" /> 
<circle cx="25615.2" cy="13563.9" r="142.52" /> 
<polyline style="fill-rule:evenodd;"
points="20007,13421
20007,13706
19722,13706
19722,13421
20007,13421
" /> 
<circle cx="18865.2" cy="13563.9" r="142.52" /> 
<polyline style="fill-rule:evenodd;"
points="117993,1947
117993,1661
118278,1661
118278,1947
117993,1947
" /> 
<circle cx="119136" cy="1804.49" r="142.52" /> 
<polyline style="fill-rule:evenodd;"
points="34022,15756
34022,15471
34307,15471
34307,15756
34022,15756
" /> 
<circle cx="35165.2" cy="15613.9" r="142.52" /> 
<polyline style="fill-rule:evenodd;"
points="19722,25921
20007,25921
20007,26206
19722,26206
19722,25921
" /> 
<circle cx="19865.2" cy="27063.9" r="142.52" /> 
<circle cx="19865.2" cy="28063.9" r="142.52" /> 
</g> 
</svg>
