M48
;DRILL file {Pcbnew (2013-jul-07)-stable} date So 23 Nov 2014 23:38:21 CET
;FORMAT={-:-/ absolute / metric / decimal}
FMAT,2
METRIC,TZ
T1C0.300
T2C0.600
T3C0.800
T4C0.800
T5C0.813
T6C1.016
T7C1.020
T8C1.051
T9C1.100
T10C1.600
T11C3.000
T12C3.010
T13C3.100
T14C4.100
%
G90
G05
M71
T1
X50.927Y-46.99
X51.816Y-46.355
X52.705Y-45.72
X62.357Y-46.99
X63.754Y-46.355
X64.516Y-45.72
T2
X73.992Y-41.656
X77.392Y-41.656
T3
X28.544Y-57.784
T4
X67.945Y-41.275
X67.945Y-43.815
X67.945Y-46.355
X67.945Y-48.895
X67.945Y-51.435
X67.945Y-53.975
X67.945Y-56.515
X67.945Y-59.055
X67.945Y-61.595
X67.945Y-64.135
X67.945Y-66.675
X67.945Y-69.215
X83.185Y-41.275
X83.185Y-43.815
X83.185Y-46.355
X83.185Y-48.895
X83.185Y-51.435
X83.185Y-53.975
X83.185Y-56.515
X83.185Y-59.055
X83.185Y-61.595
X83.185Y-64.135
X83.185Y-66.675
X83.185Y-69.215
T5
X31.623Y-26.797
X31.623Y-28.829
X31.623Y-30.861
X39.243Y-26.797
X39.243Y-28.829
X39.243Y-30.861
X41.783Y-26.543
X41.783Y-29.083
X45.847Y-26.543
X45.847Y-29.083
X47.752Y-70.231
X47.752Y-72.771
X48.26Y-62.865
X49.022Y-26.797
X49.022Y-28.829
X49.022Y-30.861
X50.292Y-70.231
X50.8Y-62.865
X56.642Y-26.797
X56.642Y-28.829
X56.642Y-30.861
X56.896Y-61.468
X56.896Y-63.5
X56.896Y-65.532
X56.896Y-67.564
X58.928Y-26.543
X58.928Y-29.083
X62.992Y-26.543
X62.992Y-29.083
X64.516Y-61.468
X64.516Y-63.5
X64.516Y-65.532
X64.516Y-67.564
X71.628Y-68.961
X71.628Y-70.993
X71.628Y-73.025
X75.565Y-38.862
X79.248Y-68.961
X79.248Y-70.993
X79.248Y-73.025
X83.185Y-38.862
X88.011Y-44.831
X90.551Y-44.831
X91.694Y-48.768
X93.345Y-44.831
X95.885Y-44.831
X99.314Y-48.768
X104.521Y-48.768
X104.521Y-53.975
X104.521Y-61.595
X104.521Y-69.215
X112.141Y-48.768
X112.141Y-53.975
X112.141Y-61.595
X112.141Y-69.215
X114.3Y-48.895
X114.3Y-53.975
X114.3Y-56.515
X114.3Y-61.595
X114.3Y-64.135
X114.3Y-69.215
X121.92Y-48.895
X121.92Y-53.975
X121.92Y-56.515
X121.92Y-61.595
X121.92Y-64.135
X121.92Y-69.215
T6
X41.783Y-31.369
X44.323Y-31.369
X44.323Y-63.119
X44.323Y-65.659
X44.323Y-68.199
X58.928Y-31.369
X61.468Y-31.369
X67.818Y-38.354
X70.358Y-38.354
X72.898Y-29.591
X72.898Y-32.131
X75.438Y-29.591
X75.438Y-32.131
X77.978Y-29.591
X77.978Y-32.131
X80.645Y-36.576
X83.185Y-36.576
T7
X32.385Y-73.66
X34.925Y-73.66
X37.465Y-73.66
X40.005Y-73.66
X55.88Y-70.993
X55.88Y-73.533
X58.42Y-70.993
X58.42Y-73.533
X60.96Y-70.993
X60.96Y-73.533
X63.5Y-70.993
X63.5Y-73.533
X85.598Y-55.88
X85.598Y-58.42
X85.598Y-60.96
X85.598Y-63.5
X85.598Y-66.04
X85.708Y-45.085
X85.708Y-47.625
X85.708Y-52.705
X85.852Y-29.845
X85.852Y-32.385
X85.852Y-34.925
X86.614Y-42.545
X89.154Y-42.545
X91.694Y-42.545
X94.234Y-42.545
X98.933Y-40.513
X101.473Y-40.513
X104.013Y-40.513
X106.553Y-40.513
X109.093Y-40.513
X111.633Y-40.513
X114.173Y-40.513
X116.713Y-40.513
T8
X93.71Y-73.913
X96.25Y-73.913
X98.79Y-73.913
X101.33Y-73.913
X103.87Y-73.913
T9
X53.142Y-35.921
T10
X53.142Y-56.919
T11
X70.993Y-56.515
X70.993Y-65.405
X99.568Y-28.448
T12
X27.9Y-27.9
X27.9Y-72.9
X122.9Y-27.9
X122.9Y-72.9
T13
X87.56Y-49.333
X87.56Y-72.333
T14
X68.552Y-32.385
T0
M30
