G04 (created by PCBNEW (2013-jul-07)-stable) date So 23 Nov 2014 23:25:05 CET*
%MOIN*%
G04 Gerber Fmt 3.4, Leading zero omitted, Abs format*
%FSLAX34Y34*%
G01*
G70*
G90*
G04 APERTURE LIST*
%ADD10C,0.00590551*%
%ADD11C,0.015*%
%ADD12C,0.012*%
%ADD13C,0.005*%
%ADD14C,0.008*%
%ADD15C,0.006*%
%ADD16C,0.00787402*%
%ADD17C,0.019685*%
G04 APERTURE END LIST*
G54D10*
G54D11*
X10000Y-28700D02*
X10000Y-10984D01*
X48346Y-29685D02*
X10984Y-29685D01*
X49370Y-10984D02*
X49370Y-28740D01*
X10984Y-10000D02*
X48385Y-10000D01*
X48346Y-29685D02*
G75*
G03X49370Y-28740I39J984D01*
G74*
G01*
X49370Y-10984D02*
G75*
G03X48385Y-10000I-984J0D01*
G74*
G01*
X10984Y-10000D02*
G75*
G03X10000Y-10984I0J-984D01*
G74*
G01*
X10000Y-28700D02*
G75*
G03X10984Y-29685I984J0D01*
G74*
G01*
X11906Y-13000D02*
X11906Y-24181D01*
X11906Y-24181D02*
X21749Y-24181D01*
X21749Y-24181D02*
X21749Y-13000D01*
X21749Y-13000D02*
X11906Y-13000D01*
X28250Y-29750D02*
X28250Y-28750D01*
X31250Y-29750D02*
X28250Y-29750D01*
X31250Y-29750D02*
X31250Y-28750D01*
X26250Y-28750D02*
X26250Y-15750D01*
X33250Y-28750D02*
X33250Y-15750D01*
X26250Y-28750D02*
X33250Y-28750D01*
X33250Y-15750D02*
X26250Y-15750D01*
X26250Y-19950D02*
X26250Y-29700D01*
X26250Y-29700D02*
X20500Y-29700D01*
X20500Y-29700D02*
X20500Y-19950D01*
X20500Y-19950D02*
X26250Y-19950D01*
G54D12*
X18800Y-29150D02*
X20300Y-27650D01*
X20300Y-27650D02*
X20300Y-27150D01*
X20300Y-27150D02*
X19800Y-26650D01*
X19800Y-26650D02*
X18800Y-26650D01*
X18800Y-26650D02*
X17800Y-27650D01*
X17800Y-27650D02*
X17800Y-28650D01*
X17800Y-28650D02*
X18300Y-29150D01*
X18300Y-29150D02*
X18800Y-29150D01*
G54D11*
X44708Y-18241D02*
X44708Y-29658D01*
X44708Y-29658D02*
X33291Y-29658D01*
X33291Y-29658D02*
X33291Y-18241D01*
X33291Y-18241D02*
X44708Y-18241D01*
X33237Y-16250D02*
X33237Y-10147D01*
X33237Y-10147D02*
X37962Y-10147D01*
X37962Y-10147D02*
X37962Y-16250D01*
X37962Y-16250D02*
X33237Y-16250D01*
X38119Y-16796D02*
X38119Y-10103D01*
X38119Y-10103D02*
X46780Y-10103D01*
X46780Y-10103D02*
X46780Y-16796D01*
X46780Y-16796D02*
X38119Y-16796D01*
X11250Y-26000D02*
X11250Y-29000D01*
X16702Y-25334D02*
X16702Y-29665D01*
X16702Y-29665D02*
X10797Y-29665D01*
X10797Y-29665D02*
X10797Y-25334D01*
X10797Y-25334D02*
X16702Y-25334D01*
G54D13*
X47500Y-23250D02*
G75*
G03X47500Y-23250I-1000J0D01*
G74*
G01*
X45000Y-21750D02*
X48000Y-21750D01*
X48000Y-21750D02*
X48000Y-24750D01*
X48000Y-24750D02*
X45000Y-24750D01*
X45000Y-21750D02*
X45000Y-24750D01*
X47500Y-26250D02*
G75*
G03X47500Y-26250I-1000J0D01*
G74*
G01*
X45000Y-24750D02*
X48000Y-24750D01*
X48000Y-24750D02*
X48000Y-27750D01*
X48000Y-27750D02*
X45000Y-27750D01*
X45000Y-24750D02*
X45000Y-27750D01*
X47500Y-20250D02*
G75*
G03X47500Y-20250I-1000J0D01*
G74*
G01*
X45000Y-18750D02*
X48000Y-18750D01*
X48000Y-18750D02*
X48000Y-21750D01*
X48000Y-21750D02*
X45000Y-21750D01*
X45000Y-18750D02*
X45000Y-21750D01*
G54D12*
X34170Y-17150D02*
X36150Y-17150D01*
X36150Y-17150D02*
X36150Y-18150D01*
X36150Y-18150D02*
X34150Y-18150D01*
X34150Y-18150D02*
X34150Y-17150D01*
X34150Y-17400D02*
X34400Y-17150D01*
X20480Y-25250D02*
X18500Y-25250D01*
X18500Y-25250D02*
X18500Y-24250D01*
X18500Y-24250D02*
X20500Y-24250D01*
X20500Y-24250D02*
X20500Y-25250D01*
X20500Y-25000D02*
X20250Y-25250D01*
X36270Y-17150D02*
X38250Y-17150D01*
X38250Y-17150D02*
X38250Y-18150D01*
X38250Y-18150D02*
X36250Y-18150D01*
X36250Y-18150D02*
X36250Y-17150D01*
X36250Y-17400D02*
X36500Y-17150D01*
G54D10*
X15238Y-20781D02*
G75*
G03X15238Y-20781I-1244J0D01*
G74*
G01*
X16749Y-16450D02*
X16749Y-22749D01*
X16749Y-22749D02*
X10450Y-22749D01*
X10450Y-22749D02*
X10450Y-16450D01*
X10450Y-16450D02*
X16749Y-16450D01*
G54D14*
X22400Y-25000D02*
X22600Y-25000D01*
X25400Y-25000D02*
X25200Y-25000D01*
X25200Y-25000D02*
X25200Y-24600D01*
X25200Y-24600D02*
X22600Y-24600D01*
X22600Y-24600D02*
X22600Y-25400D01*
X22600Y-25400D02*
X25200Y-25400D01*
X25200Y-25400D02*
X25200Y-25000D01*
X22600Y-24800D02*
X22800Y-24600D01*
X25400Y-24200D02*
X25200Y-24200D01*
X22400Y-24200D02*
X22600Y-24200D01*
X22600Y-24200D02*
X22600Y-24600D01*
X22600Y-24600D02*
X25200Y-24600D01*
X25200Y-24600D02*
X25200Y-23800D01*
X25200Y-23800D02*
X22600Y-23800D01*
X22600Y-23800D02*
X22600Y-24200D01*
X25200Y-24400D02*
X25000Y-24600D01*
X25400Y-26600D02*
X25200Y-26600D01*
X22400Y-26600D02*
X22600Y-26600D01*
X22600Y-26600D02*
X22600Y-27000D01*
X22600Y-27000D02*
X25200Y-27000D01*
X25200Y-27000D02*
X25200Y-26200D01*
X25200Y-26200D02*
X22600Y-26200D01*
X22600Y-26200D02*
X22600Y-26600D01*
X25200Y-26800D02*
X25000Y-27000D01*
X25400Y-25800D02*
X25200Y-25800D01*
X22400Y-25800D02*
X22600Y-25800D01*
X22600Y-25800D02*
X22600Y-26200D01*
X22600Y-26200D02*
X25200Y-26200D01*
X25200Y-26200D02*
X25200Y-25400D01*
X25200Y-25400D02*
X22600Y-25400D01*
X22600Y-25400D02*
X22600Y-25800D01*
X25200Y-26000D02*
X25000Y-26200D01*
X29750Y-15300D02*
X29950Y-15300D01*
X32750Y-15300D02*
X32550Y-15300D01*
X32550Y-15300D02*
X32550Y-14900D01*
X32550Y-14900D02*
X29950Y-14900D01*
X29950Y-14900D02*
X29950Y-15700D01*
X29950Y-15700D02*
X32550Y-15700D01*
X32550Y-15700D02*
X32550Y-15300D01*
X29950Y-15100D02*
X30150Y-14900D01*
G54D15*
X24700Y-11850D02*
X24700Y-12850D01*
X24700Y-12850D02*
X22700Y-12850D01*
X22700Y-12850D02*
X22700Y-11850D01*
X22700Y-11850D02*
X24700Y-11850D01*
X17950Y-11850D02*
X17950Y-12850D01*
X17950Y-12850D02*
X15950Y-12850D01*
X15950Y-12850D02*
X15950Y-11850D01*
X15950Y-11850D02*
X17950Y-11850D01*
X31250Y-14900D02*
X31250Y-13900D01*
X31250Y-13900D02*
X33250Y-13900D01*
X33250Y-13900D02*
X33250Y-14900D01*
X33250Y-14900D02*
X31250Y-14900D01*
X16950Y-24350D02*
X17950Y-24350D01*
X17950Y-24350D02*
X17950Y-27350D01*
X17950Y-27350D02*
X16950Y-27350D01*
X16950Y-27350D02*
X16950Y-24350D01*
X17950Y-25350D02*
X16950Y-25350D01*
G54D11*
X46614Y-14488D02*
X47007Y-14094D01*
X47007Y-14094D02*
X46614Y-13700D01*
X49370Y-16062D02*
X47401Y-16062D01*
X47401Y-16062D02*
X47401Y-12125D01*
X47401Y-12125D02*
X49370Y-12125D01*
X12362Y-13700D02*
X12755Y-14094D01*
X12755Y-14094D02*
X12362Y-14488D01*
X10000Y-12125D02*
X11968Y-12125D01*
X11968Y-12125D02*
X11968Y-16062D01*
X11968Y-16062D02*
X10000Y-16062D01*
G54D15*
X28200Y-14600D02*
X28200Y-15600D01*
X28200Y-15600D02*
X26200Y-15600D01*
X26200Y-15600D02*
X26200Y-14600D01*
X26200Y-14600D02*
X28200Y-14600D01*
G54D10*
X30600Y-10400D02*
X30600Y-10550D01*
X30600Y-10550D02*
X28800Y-10550D01*
X28800Y-10550D02*
X28800Y-10400D01*
X26700Y-13900D02*
X26700Y-10400D01*
X32700Y-13900D02*
X32700Y-10400D01*
X26700Y-10400D02*
X32700Y-10400D01*
X32700Y-13900D02*
X26700Y-13900D01*
G54D12*
X23064Y-17100D02*
X23092Y-17014D01*
X23092Y-16871D01*
X23064Y-16814D01*
X23035Y-16785D01*
X22978Y-16757D01*
X22921Y-16757D01*
X22864Y-16785D01*
X22835Y-16814D01*
X22807Y-16871D01*
X22778Y-16985D01*
X22750Y-17042D01*
X22721Y-17071D01*
X22664Y-17100D01*
X22607Y-17100D01*
X22550Y-17071D01*
X22521Y-17042D01*
X22492Y-16985D01*
X22492Y-16842D01*
X22521Y-16757D01*
X23092Y-16500D02*
X22492Y-16500D01*
X22492Y-16357D01*
X22521Y-16271D01*
X22578Y-16214D01*
X22635Y-16185D01*
X22750Y-16157D01*
X22835Y-16157D01*
X22950Y-16185D01*
X23007Y-16214D01*
X23064Y-16271D01*
X23092Y-16357D01*
X23092Y-16500D01*
X22864Y-15900D02*
X22864Y-15442D01*
X23035Y-14814D02*
X23064Y-14842D01*
X23092Y-14928D01*
X23092Y-14985D01*
X23064Y-15071D01*
X23007Y-15128D01*
X22950Y-15157D01*
X22835Y-15185D01*
X22750Y-15185D01*
X22635Y-15157D01*
X22578Y-15128D01*
X22521Y-15071D01*
X22492Y-14985D01*
X22492Y-14928D01*
X22521Y-14842D01*
X22550Y-14814D01*
X22921Y-14585D02*
X22921Y-14300D01*
X23092Y-14642D02*
X22492Y-14442D01*
X23092Y-14242D01*
X23092Y-13700D02*
X22807Y-13900D01*
X23092Y-14042D02*
X22492Y-14042D01*
X22492Y-13814D01*
X22521Y-13757D01*
X22550Y-13728D01*
X22607Y-13700D01*
X22692Y-13700D01*
X22750Y-13728D01*
X22778Y-13757D01*
X22807Y-13814D01*
X22807Y-14042D01*
X23092Y-13442D02*
X22492Y-13442D01*
X22492Y-13300D01*
X22521Y-13214D01*
X22578Y-13157D01*
X22635Y-13128D01*
X22750Y-13100D01*
X22835Y-13100D01*
X22950Y-13128D01*
X23007Y-13157D01*
X23064Y-13214D01*
X23092Y-13300D01*
X23092Y-13442D01*
X29271Y-25750D02*
X29271Y-25464D01*
X29442Y-25807D02*
X28842Y-25607D01*
X29442Y-25407D01*
X29442Y-25207D02*
X29042Y-25207D01*
X29157Y-25207D02*
X29100Y-25178D01*
X29071Y-25150D01*
X29042Y-25092D01*
X29042Y-25035D01*
X29442Y-24578D02*
X28842Y-24578D01*
X29414Y-24578D02*
X29442Y-24635D01*
X29442Y-24750D01*
X29414Y-24807D01*
X29385Y-24835D01*
X29328Y-24864D01*
X29157Y-24864D01*
X29100Y-24835D01*
X29071Y-24807D01*
X29042Y-24750D01*
X29042Y-24635D01*
X29071Y-24578D01*
X29042Y-24035D02*
X29442Y-24035D01*
X29042Y-24292D02*
X29357Y-24292D01*
X29414Y-24264D01*
X29442Y-24207D01*
X29442Y-24121D01*
X29414Y-24064D01*
X29385Y-24035D01*
X29442Y-23750D02*
X29042Y-23750D01*
X28842Y-23750D02*
X28871Y-23778D01*
X28900Y-23750D01*
X28871Y-23721D01*
X28842Y-23750D01*
X28900Y-23750D01*
X29042Y-23464D02*
X29442Y-23464D01*
X29100Y-23464D02*
X29071Y-23435D01*
X29042Y-23378D01*
X29042Y-23292D01*
X29071Y-23235D01*
X29128Y-23207D01*
X29442Y-23207D01*
X29442Y-22835D02*
X29414Y-22892D01*
X29385Y-22921D01*
X29328Y-22950D01*
X29157Y-22950D01*
X29100Y-22921D01*
X29071Y-22892D01*
X29042Y-22835D01*
X29042Y-22750D01*
X29071Y-22692D01*
X29100Y-22664D01*
X29157Y-22635D01*
X29328Y-22635D01*
X29385Y-22664D01*
X29414Y-22692D01*
X29442Y-22750D01*
X29442Y-22835D01*
X29042Y-21921D02*
X29642Y-21921D01*
X29071Y-21921D02*
X29042Y-21864D01*
X29042Y-21750D01*
X29071Y-21692D01*
X29100Y-21664D01*
X29157Y-21635D01*
X29328Y-21635D01*
X29385Y-21664D01*
X29414Y-21692D01*
X29442Y-21750D01*
X29442Y-21864D01*
X29414Y-21921D01*
X29442Y-21378D02*
X29042Y-21378D01*
X29157Y-21378D02*
X29100Y-21350D01*
X29071Y-21321D01*
X29042Y-21264D01*
X29042Y-21207D01*
X29442Y-20921D02*
X29414Y-20978D01*
X29385Y-21007D01*
X29328Y-21035D01*
X29157Y-21035D01*
X29100Y-21007D01*
X29071Y-20978D01*
X29042Y-20921D01*
X29042Y-20835D01*
X29071Y-20778D01*
X29100Y-20750D01*
X29157Y-20721D01*
X29328Y-20721D01*
X29385Y-20750D01*
X29414Y-20778D01*
X29442Y-20835D01*
X29442Y-20921D01*
X29442Y-20007D02*
X29042Y-20007D01*
X29100Y-20007D02*
X29071Y-19978D01*
X29042Y-19921D01*
X29042Y-19835D01*
X29071Y-19778D01*
X29128Y-19750D01*
X29442Y-19750D01*
X29128Y-19750D02*
X29071Y-19721D01*
X29042Y-19664D01*
X29042Y-19578D01*
X29071Y-19521D01*
X29128Y-19492D01*
X29442Y-19492D01*
X29442Y-19207D02*
X29042Y-19207D01*
X28842Y-19207D02*
X28871Y-19235D01*
X28900Y-19207D01*
X28871Y-19178D01*
X28842Y-19207D01*
X28900Y-19207D01*
X29414Y-18664D02*
X29442Y-18721D01*
X29442Y-18835D01*
X29414Y-18892D01*
X29385Y-18921D01*
X29328Y-18950D01*
X29157Y-18950D01*
X29100Y-18921D01*
X29071Y-18892D01*
X29042Y-18835D01*
X29042Y-18721D01*
X29071Y-18664D01*
X29442Y-18407D02*
X29042Y-18407D01*
X29157Y-18407D02*
X29100Y-18378D01*
X29071Y-18350D01*
X29042Y-18292D01*
X29042Y-18235D01*
X29442Y-17950D02*
X29414Y-18007D01*
X29385Y-18035D01*
X29328Y-18064D01*
X29157Y-18064D01*
X29100Y-18035D01*
X29071Y-18007D01*
X29042Y-17950D01*
X29042Y-17864D01*
X29071Y-17807D01*
X29100Y-17778D01*
X29157Y-17750D01*
X29328Y-17750D01*
X29385Y-17778D01*
X29414Y-17807D01*
X29442Y-17864D01*
X29442Y-17950D01*
X22142Y-19428D02*
X22342Y-19428D01*
X22428Y-19742D02*
X22142Y-19742D01*
X22142Y-19142D01*
X22428Y-19142D01*
X22657Y-19714D02*
X22742Y-19742D01*
X22885Y-19742D01*
X22942Y-19714D01*
X22971Y-19685D01*
X22999Y-19628D01*
X22999Y-19571D01*
X22971Y-19514D01*
X22942Y-19485D01*
X22885Y-19457D01*
X22771Y-19428D01*
X22714Y-19400D01*
X22685Y-19371D01*
X22657Y-19314D01*
X22657Y-19257D01*
X22685Y-19200D01*
X22714Y-19171D01*
X22771Y-19142D01*
X22914Y-19142D01*
X22999Y-19171D01*
X23257Y-19742D02*
X23257Y-19142D01*
X23485Y-19142D01*
X23542Y-19171D01*
X23571Y-19200D01*
X23599Y-19257D01*
X23599Y-19342D01*
X23571Y-19400D01*
X23542Y-19428D01*
X23485Y-19457D01*
X23257Y-19457D01*
X23942Y-19400D02*
X23885Y-19371D01*
X23857Y-19342D01*
X23828Y-19285D01*
X23828Y-19257D01*
X23857Y-19200D01*
X23885Y-19171D01*
X23942Y-19142D01*
X24057Y-19142D01*
X24114Y-19171D01*
X24142Y-19200D01*
X24171Y-19257D01*
X24171Y-19285D01*
X24142Y-19342D01*
X24114Y-19371D01*
X24057Y-19400D01*
X23942Y-19400D01*
X23885Y-19428D01*
X23857Y-19457D01*
X23828Y-19514D01*
X23828Y-19628D01*
X23857Y-19685D01*
X23885Y-19714D01*
X23942Y-19742D01*
X24057Y-19742D01*
X24114Y-19714D01*
X24142Y-19685D01*
X24171Y-19628D01*
X24171Y-19514D01*
X24142Y-19457D01*
X24114Y-19428D01*
X24057Y-19400D01*
X24400Y-19200D02*
X24428Y-19171D01*
X24485Y-19142D01*
X24628Y-19142D01*
X24685Y-19171D01*
X24714Y-19200D01*
X24742Y-19257D01*
X24742Y-19314D01*
X24714Y-19400D01*
X24371Y-19742D01*
X24742Y-19742D01*
X25257Y-19142D02*
X25142Y-19142D01*
X25085Y-19171D01*
X25057Y-19200D01*
X25000Y-19285D01*
X24971Y-19400D01*
X24971Y-19628D01*
X25000Y-19685D01*
X25028Y-19714D01*
X25085Y-19742D01*
X25200Y-19742D01*
X25257Y-19714D01*
X25285Y-19685D01*
X25314Y-19628D01*
X25314Y-19485D01*
X25285Y-19428D01*
X25257Y-19400D01*
X25200Y-19371D01*
X25085Y-19371D01*
X25028Y-19400D01*
X25000Y-19428D01*
X24971Y-19485D01*
X25828Y-19142D02*
X25714Y-19142D01*
X25657Y-19171D01*
X25628Y-19200D01*
X25571Y-19285D01*
X25542Y-19400D01*
X25542Y-19628D01*
X25571Y-19685D01*
X25600Y-19714D01*
X25657Y-19742D01*
X25771Y-19742D01*
X25828Y-19714D01*
X25857Y-19685D01*
X25885Y-19628D01*
X25885Y-19485D01*
X25857Y-19428D01*
X25828Y-19400D01*
X25771Y-19371D01*
X25657Y-19371D01*
X25600Y-19400D01*
X25571Y-19428D01*
X25542Y-19485D01*
G54D14*
X19104Y-29061D02*
X19352Y-29061D01*
X19219Y-29214D01*
X19276Y-29214D01*
X19314Y-29233D01*
X19333Y-29252D01*
X19352Y-29290D01*
X19352Y-29385D01*
X19333Y-29423D01*
X19314Y-29442D01*
X19276Y-29461D01*
X19161Y-29461D01*
X19123Y-29442D01*
X19104Y-29423D01*
X19466Y-29061D02*
X19600Y-29461D01*
X19733Y-29061D01*
X19828Y-29061D02*
X20076Y-29061D01*
X19942Y-29214D01*
X20000Y-29214D01*
X20038Y-29233D01*
X20057Y-29252D01*
X20076Y-29290D01*
X20076Y-29385D01*
X20057Y-29423D01*
X20038Y-29442D01*
X20000Y-29461D01*
X19885Y-29461D01*
X19847Y-29442D01*
X19828Y-29423D01*
G54D12*
X40657Y-18092D02*
X40457Y-17807D01*
X40314Y-18092D02*
X40314Y-17492D01*
X40542Y-17492D01*
X40600Y-17521D01*
X40628Y-17550D01*
X40657Y-17607D01*
X40657Y-17692D01*
X40628Y-17750D01*
X40600Y-17778D01*
X40542Y-17807D01*
X40314Y-17807D01*
X40828Y-17492D02*
X41171Y-17492D01*
X41000Y-18092D02*
X41000Y-17492D01*
X41714Y-18035D02*
X41685Y-18064D01*
X41600Y-18092D01*
X41542Y-18092D01*
X41457Y-18064D01*
X41400Y-18007D01*
X41371Y-17950D01*
X41342Y-17835D01*
X41342Y-17750D01*
X41371Y-17635D01*
X41400Y-17578D01*
X41457Y-17521D01*
X41542Y-17492D01*
X41600Y-17492D01*
X41685Y-17521D01*
X41714Y-17550D01*
G54D16*
X33143Y-11950D02*
X32789Y-11950D01*
X32789Y-11866D01*
X32805Y-11815D01*
X32839Y-11782D01*
X32873Y-11765D01*
X32940Y-11748D01*
X32991Y-11748D01*
X33059Y-11765D01*
X33092Y-11782D01*
X33126Y-11815D01*
X33143Y-11866D01*
X33143Y-11950D01*
X33143Y-11596D02*
X32789Y-11596D01*
X32957Y-11596D02*
X32957Y-11394D01*
X33143Y-11394D02*
X32789Y-11394D01*
X32789Y-11275D02*
X32789Y-11073D01*
X33143Y-11174D02*
X32789Y-11174D01*
X33143Y-10769D02*
X33143Y-10972D01*
X33143Y-10870D02*
X32789Y-10870D01*
X32839Y-10904D01*
X32873Y-10938D01*
X32890Y-10972D01*
X33143Y-10432D02*
X33143Y-10634D01*
X33143Y-10533D02*
X32789Y-10533D01*
X32839Y-10567D01*
X32873Y-10601D01*
X32890Y-10634D01*
G54D12*
X44314Y-17542D02*
X43971Y-17542D01*
X44142Y-17542D02*
X44142Y-16942D01*
X44085Y-17028D01*
X44028Y-17085D01*
X43971Y-17114D01*
X44685Y-16942D02*
X44742Y-16942D01*
X44800Y-16971D01*
X44828Y-17000D01*
X44857Y-17057D01*
X44885Y-17171D01*
X44885Y-17314D01*
X44857Y-17428D01*
X44828Y-17485D01*
X44800Y-17514D01*
X44742Y-17542D01*
X44685Y-17542D01*
X44628Y-17514D01*
X44600Y-17485D01*
X44571Y-17428D01*
X44542Y-17314D01*
X44542Y-17171D01*
X44571Y-17057D01*
X44600Y-17000D01*
X44628Y-16971D01*
X44685Y-16942D01*
X45142Y-17542D02*
X45142Y-16942D01*
X45285Y-16942D01*
X45371Y-16971D01*
X45428Y-17028D01*
X45457Y-17085D01*
X45485Y-17200D01*
X45485Y-17285D01*
X45457Y-17400D01*
X45428Y-17457D01*
X45371Y-17514D01*
X45285Y-17542D01*
X45142Y-17542D01*
X45857Y-16942D02*
X45971Y-16942D01*
X46028Y-16971D01*
X46085Y-17028D01*
X46114Y-17142D01*
X46114Y-17342D01*
X46085Y-17457D01*
X46028Y-17514D01*
X45971Y-17542D01*
X45857Y-17542D01*
X45800Y-17514D01*
X45742Y-17457D01*
X45714Y-17342D01*
X45714Y-17142D01*
X45742Y-17028D01*
X45800Y-16971D01*
X45857Y-16942D01*
X46571Y-17228D02*
X46371Y-17228D01*
X46371Y-17542D02*
X46371Y-16942D01*
X46657Y-16942D01*
X10814Y-25142D02*
X10814Y-24542D01*
X10957Y-24542D01*
X11042Y-24571D01*
X11099Y-24628D01*
X11128Y-24685D01*
X11157Y-24800D01*
X11157Y-24885D01*
X11128Y-25000D01*
X11099Y-25057D01*
X11042Y-25114D01*
X10957Y-25142D01*
X10814Y-25142D01*
X11757Y-25085D02*
X11728Y-25114D01*
X11642Y-25142D01*
X11585Y-25142D01*
X11499Y-25114D01*
X11442Y-25057D01*
X11414Y-25000D01*
X11385Y-24885D01*
X11385Y-24800D01*
X11414Y-24685D01*
X11442Y-24628D01*
X11499Y-24571D01*
X11585Y-24542D01*
X11642Y-24542D01*
X11728Y-24571D01*
X11757Y-24600D01*
X12214Y-24828D02*
X12014Y-24828D01*
X12014Y-25142D02*
X12014Y-24542D01*
X12299Y-24542D01*
X12471Y-24542D02*
X12871Y-24542D01*
X12614Y-25142D01*
X13042Y-24542D02*
X13442Y-24542D01*
X13185Y-25142D01*
G54D14*
X45966Y-23423D02*
X46023Y-23442D01*
X46119Y-23442D01*
X46157Y-23423D01*
X46176Y-23404D01*
X46195Y-23366D01*
X46195Y-23328D01*
X46176Y-23290D01*
X46157Y-23271D01*
X46119Y-23252D01*
X46042Y-23233D01*
X46004Y-23214D01*
X45985Y-23194D01*
X45966Y-23156D01*
X45966Y-23118D01*
X45985Y-23080D01*
X46004Y-23061D01*
X46042Y-23042D01*
X46138Y-23042D01*
X46195Y-23061D01*
X46328Y-23042D02*
X46423Y-23442D01*
X46500Y-23156D01*
X46576Y-23442D01*
X46671Y-23042D01*
X46804Y-23080D02*
X46823Y-23061D01*
X46861Y-23042D01*
X46957Y-23042D01*
X46995Y-23061D01*
X47014Y-23080D01*
X47033Y-23118D01*
X47033Y-23156D01*
X47014Y-23214D01*
X46785Y-23442D01*
X47033Y-23442D01*
G54D17*
X48275Y-23549D02*
X48200Y-23511D01*
X48162Y-23474D01*
X48125Y-23399D01*
X48125Y-23174D01*
X48162Y-23099D01*
X48200Y-23061D01*
X48275Y-23024D01*
X48387Y-23024D01*
X48462Y-23061D01*
X48500Y-23099D01*
X48537Y-23174D01*
X48537Y-23399D01*
X48500Y-23474D01*
X48462Y-23511D01*
X48387Y-23549D01*
X48275Y-23549D01*
X48874Y-23549D02*
X48874Y-22762D01*
X48949Y-23249D02*
X49174Y-23549D01*
X49174Y-23024D02*
X48874Y-23324D01*
G54D14*
X45966Y-26423D02*
X46023Y-26442D01*
X46119Y-26442D01*
X46157Y-26423D01*
X46176Y-26404D01*
X46195Y-26366D01*
X46195Y-26328D01*
X46176Y-26290D01*
X46157Y-26271D01*
X46119Y-26252D01*
X46042Y-26233D01*
X46004Y-26214D01*
X45985Y-26194D01*
X45966Y-26156D01*
X45966Y-26118D01*
X45985Y-26080D01*
X46004Y-26061D01*
X46042Y-26042D01*
X46138Y-26042D01*
X46195Y-26061D01*
X46328Y-26042D02*
X46423Y-26442D01*
X46500Y-26156D01*
X46576Y-26442D01*
X46671Y-26042D01*
X46785Y-26042D02*
X47033Y-26042D01*
X46900Y-26194D01*
X46957Y-26194D01*
X46995Y-26214D01*
X47014Y-26233D01*
X47033Y-26271D01*
X47033Y-26366D01*
X47014Y-26404D01*
X46995Y-26423D01*
X46957Y-26442D01*
X46842Y-26442D01*
X46804Y-26423D01*
X46785Y-26404D01*
G54D17*
X48443Y-25930D02*
X48668Y-26530D01*
X48893Y-25930D01*
G54D14*
X45966Y-20373D02*
X46023Y-20392D01*
X46119Y-20392D01*
X46157Y-20373D01*
X46176Y-20354D01*
X46195Y-20316D01*
X46195Y-20278D01*
X46176Y-20240D01*
X46157Y-20221D01*
X46119Y-20202D01*
X46042Y-20183D01*
X46004Y-20164D01*
X45985Y-20144D01*
X45966Y-20106D01*
X45966Y-20068D01*
X45985Y-20030D01*
X46004Y-20011D01*
X46042Y-19992D01*
X46138Y-19992D01*
X46195Y-20011D01*
X46328Y-19992D02*
X46423Y-20392D01*
X46500Y-20106D01*
X46576Y-20392D01*
X46671Y-19992D01*
X47033Y-20392D02*
X46804Y-20392D01*
X46919Y-20392D02*
X46919Y-19992D01*
X46880Y-20049D01*
X46842Y-20087D01*
X46804Y-20106D01*
G54D17*
X48393Y-20530D02*
X48618Y-19930D01*
X48843Y-20530D01*
G54D14*
X35083Y-18754D02*
X35064Y-18773D01*
X35007Y-18792D01*
X34969Y-18792D01*
X34911Y-18773D01*
X34873Y-18735D01*
X34854Y-18697D01*
X34835Y-18621D01*
X34835Y-18564D01*
X34854Y-18487D01*
X34873Y-18449D01*
X34911Y-18411D01*
X34969Y-18392D01*
X35007Y-18392D01*
X35064Y-18411D01*
X35083Y-18430D01*
X35464Y-18792D02*
X35235Y-18792D01*
X35350Y-18792D02*
X35350Y-18392D01*
X35311Y-18449D01*
X35273Y-18487D01*
X35235Y-18506D01*
X19333Y-25773D02*
X19314Y-25792D01*
X19257Y-25811D01*
X19219Y-25811D01*
X19161Y-25792D01*
X19123Y-25754D01*
X19104Y-25716D01*
X19085Y-25640D01*
X19085Y-25583D01*
X19104Y-25507D01*
X19123Y-25469D01*
X19161Y-25430D01*
X19219Y-25411D01*
X19257Y-25411D01*
X19314Y-25430D01*
X19333Y-25450D01*
X19485Y-25450D02*
X19504Y-25430D01*
X19542Y-25411D01*
X19638Y-25411D01*
X19676Y-25430D01*
X19695Y-25450D01*
X19714Y-25488D01*
X19714Y-25526D01*
X19695Y-25583D01*
X19466Y-25811D01*
X19714Y-25811D01*
X37183Y-18754D02*
X37164Y-18773D01*
X37107Y-18792D01*
X37069Y-18792D01*
X37011Y-18773D01*
X36973Y-18735D01*
X36954Y-18697D01*
X36935Y-18621D01*
X36935Y-18564D01*
X36954Y-18487D01*
X36973Y-18449D01*
X37011Y-18411D01*
X37069Y-18392D01*
X37107Y-18392D01*
X37164Y-18411D01*
X37183Y-18430D01*
X37316Y-18392D02*
X37564Y-18392D01*
X37430Y-18544D01*
X37488Y-18544D01*
X37526Y-18564D01*
X37545Y-18583D01*
X37564Y-18621D01*
X37564Y-18716D01*
X37545Y-18754D01*
X37526Y-18773D01*
X37488Y-18792D01*
X37373Y-18792D01*
X37335Y-18773D01*
X37316Y-18754D01*
G54D10*
X17309Y-20443D02*
X17121Y-20574D01*
X17309Y-20668D02*
X16915Y-20668D01*
X16915Y-20518D01*
X16934Y-20481D01*
X16953Y-20462D01*
X16990Y-20443D01*
X17046Y-20443D01*
X17084Y-20462D01*
X17103Y-20481D01*
X17121Y-20518D01*
X17121Y-20668D01*
X17103Y-20143D02*
X17103Y-20274D01*
X17309Y-20274D02*
X16915Y-20274D01*
X16915Y-20087D01*
X17309Y-19937D02*
X16915Y-19937D01*
X17196Y-19806D01*
X16915Y-19674D01*
X17309Y-19674D01*
X17309Y-19281D02*
X17309Y-19506D01*
X17309Y-19393D02*
X16915Y-19393D01*
X16971Y-19431D01*
X17009Y-19468D01*
X17028Y-19506D01*
X16953Y-19131D02*
X16934Y-19112D01*
X16915Y-19075D01*
X16915Y-18981D01*
X16934Y-18943D01*
X16953Y-18925D01*
X16990Y-18906D01*
X17028Y-18906D01*
X17084Y-18925D01*
X17309Y-19150D01*
X17309Y-18906D01*
X17103Y-18606D02*
X17121Y-18550D01*
X17140Y-18531D01*
X17178Y-18512D01*
X17234Y-18512D01*
X17271Y-18531D01*
X17290Y-18550D01*
X17309Y-18587D01*
X17309Y-18737D01*
X16915Y-18737D01*
X16915Y-18606D01*
X16934Y-18568D01*
X16953Y-18550D01*
X16990Y-18531D01*
X17028Y-18531D01*
X17065Y-18550D01*
X17084Y-18568D01*
X17103Y-18606D01*
X17103Y-18737D01*
G54D14*
X23578Y-25272D02*
X23411Y-25010D01*
X23292Y-25272D02*
X23292Y-24722D01*
X23483Y-24722D01*
X23530Y-24748D01*
X23554Y-24775D01*
X23578Y-24827D01*
X23578Y-24905D01*
X23554Y-24958D01*
X23530Y-24984D01*
X23483Y-25010D01*
X23292Y-25010D01*
X24054Y-25272D02*
X23769Y-25272D01*
X23911Y-25272D02*
X23911Y-24722D01*
X23864Y-24801D01*
X23816Y-24853D01*
X23769Y-24879D01*
X24292Y-25272D02*
X24388Y-25272D01*
X24435Y-25246D01*
X24459Y-25220D01*
X24507Y-25141D01*
X24530Y-25036D01*
X24530Y-24827D01*
X24507Y-24775D01*
X24483Y-24748D01*
X24435Y-24722D01*
X24340Y-24722D01*
X24292Y-24748D01*
X24269Y-24775D01*
X24245Y-24827D01*
X24245Y-24958D01*
X24269Y-25010D01*
X24292Y-25036D01*
X24340Y-25063D01*
X24435Y-25063D01*
X24483Y-25036D01*
X24507Y-25010D01*
X24530Y-24958D01*
X23578Y-24372D02*
X23411Y-24110D01*
X23292Y-24372D02*
X23292Y-23822D01*
X23483Y-23822D01*
X23530Y-23848D01*
X23554Y-23875D01*
X23578Y-23927D01*
X23578Y-24005D01*
X23554Y-24058D01*
X23530Y-24084D01*
X23483Y-24110D01*
X23292Y-24110D01*
X24054Y-24372D02*
X23769Y-24372D01*
X23911Y-24372D02*
X23911Y-23822D01*
X23864Y-23901D01*
X23816Y-23953D01*
X23769Y-23979D01*
X24483Y-24005D02*
X24483Y-24372D01*
X24364Y-23796D02*
X24245Y-24189D01*
X24554Y-24189D01*
X23578Y-26772D02*
X23411Y-26510D01*
X23292Y-26772D02*
X23292Y-26222D01*
X23483Y-26222D01*
X23530Y-26248D01*
X23554Y-26275D01*
X23578Y-26327D01*
X23578Y-26405D01*
X23554Y-26458D01*
X23530Y-26484D01*
X23483Y-26510D01*
X23292Y-26510D01*
X24054Y-26772D02*
X23769Y-26772D01*
X23911Y-26772D02*
X23911Y-26222D01*
X23864Y-26301D01*
X23816Y-26353D01*
X23769Y-26379D01*
X24221Y-26222D02*
X24530Y-26222D01*
X24364Y-26432D01*
X24435Y-26432D01*
X24483Y-26458D01*
X24507Y-26484D01*
X24530Y-26536D01*
X24530Y-26667D01*
X24507Y-26720D01*
X24483Y-26746D01*
X24435Y-26772D01*
X24292Y-26772D01*
X24245Y-26746D01*
X24221Y-26720D01*
X23578Y-25972D02*
X23411Y-25710D01*
X23292Y-25972D02*
X23292Y-25422D01*
X23483Y-25422D01*
X23530Y-25448D01*
X23554Y-25475D01*
X23578Y-25527D01*
X23578Y-25605D01*
X23554Y-25658D01*
X23530Y-25684D01*
X23483Y-25710D01*
X23292Y-25710D01*
X24054Y-25972D02*
X23769Y-25972D01*
X23911Y-25972D02*
X23911Y-25422D01*
X23864Y-25501D01*
X23816Y-25553D01*
X23769Y-25579D01*
X24245Y-25475D02*
X24269Y-25448D01*
X24316Y-25422D01*
X24435Y-25422D01*
X24483Y-25448D01*
X24507Y-25475D01*
X24530Y-25527D01*
X24530Y-25579D01*
X24507Y-25658D01*
X24221Y-25972D01*
X24530Y-25972D01*
X30928Y-15572D02*
X30761Y-15310D01*
X30642Y-15572D02*
X30642Y-15022D01*
X30833Y-15022D01*
X30880Y-15048D01*
X30904Y-15075D01*
X30928Y-15127D01*
X30928Y-15205D01*
X30904Y-15258D01*
X30880Y-15284D01*
X30833Y-15310D01*
X30642Y-15310D01*
X31119Y-15075D02*
X31142Y-15048D01*
X31190Y-15022D01*
X31309Y-15022D01*
X31357Y-15048D01*
X31380Y-15075D01*
X31404Y-15127D01*
X31404Y-15179D01*
X31380Y-15258D01*
X31095Y-15572D01*
X31404Y-15572D01*
X31714Y-15022D02*
X31761Y-15022D01*
X31809Y-15048D01*
X31833Y-15075D01*
X31857Y-15127D01*
X31880Y-15232D01*
X31880Y-15363D01*
X31857Y-15467D01*
X31833Y-15520D01*
X31809Y-15546D01*
X31761Y-15572D01*
X31714Y-15572D01*
X31666Y-15546D01*
X31642Y-15520D01*
X31619Y-15467D01*
X31595Y-15363D01*
X31595Y-15232D01*
X31619Y-15127D01*
X31642Y-15075D01*
X31666Y-15048D01*
X31714Y-15022D01*
G54D15*
X24821Y-12549D02*
X25035Y-12549D01*
X25078Y-12564D01*
X25107Y-12592D01*
X25121Y-12635D01*
X25121Y-12664D01*
X25121Y-12407D02*
X24821Y-12407D01*
X24821Y-12292D01*
X24835Y-12264D01*
X24850Y-12250D01*
X24878Y-12235D01*
X24921Y-12235D01*
X24950Y-12250D01*
X24964Y-12264D01*
X24978Y-12292D01*
X24978Y-12407D01*
X25121Y-11950D02*
X25121Y-12121D01*
X25121Y-12035D02*
X24821Y-12035D01*
X24864Y-12064D01*
X24892Y-12092D01*
X24907Y-12121D01*
X18071Y-12599D02*
X18285Y-12599D01*
X18328Y-12614D01*
X18357Y-12642D01*
X18371Y-12685D01*
X18371Y-12714D01*
X18371Y-12457D02*
X18071Y-12457D01*
X18071Y-12342D01*
X18085Y-12314D01*
X18100Y-12300D01*
X18128Y-12285D01*
X18171Y-12285D01*
X18200Y-12300D01*
X18214Y-12314D01*
X18228Y-12342D01*
X18228Y-12457D01*
X18100Y-12171D02*
X18085Y-12157D01*
X18071Y-12128D01*
X18071Y-12057D01*
X18085Y-12028D01*
X18100Y-12014D01*
X18128Y-12000D01*
X18157Y-12000D01*
X18200Y-12014D01*
X18371Y-12185D01*
X18371Y-12000D01*
X32000Y-13521D02*
X32000Y-13735D01*
X31985Y-13778D01*
X31957Y-13807D01*
X31914Y-13821D01*
X31885Y-13821D01*
X32142Y-13821D02*
X32142Y-13521D01*
X32257Y-13521D01*
X32285Y-13535D01*
X32300Y-13550D01*
X32314Y-13578D01*
X32314Y-13621D01*
X32300Y-13650D01*
X32285Y-13664D01*
X32257Y-13678D01*
X32142Y-13678D01*
X32585Y-13521D02*
X32442Y-13521D01*
X32428Y-13664D01*
X32442Y-13650D01*
X32471Y-13635D01*
X32542Y-13635D01*
X32571Y-13650D01*
X32585Y-13664D01*
X32600Y-13692D01*
X32600Y-13764D01*
X32585Y-13792D01*
X32571Y-13807D01*
X32542Y-13821D01*
X32471Y-13821D01*
X32442Y-13807D01*
X32428Y-13792D01*
X18061Y-26183D02*
X18347Y-26183D01*
X18404Y-26202D01*
X18442Y-26240D01*
X18461Y-26297D01*
X18461Y-26335D01*
X18461Y-25992D02*
X18061Y-25992D01*
X18061Y-25840D01*
X18080Y-25802D01*
X18100Y-25783D01*
X18138Y-25764D01*
X18195Y-25764D01*
X18233Y-25783D01*
X18252Y-25802D01*
X18271Y-25840D01*
X18271Y-25992D01*
X18061Y-25421D02*
X18061Y-25497D01*
X18080Y-25535D01*
X18100Y-25554D01*
X18157Y-25592D01*
X18233Y-25611D01*
X18385Y-25611D01*
X18423Y-25592D01*
X18442Y-25573D01*
X18461Y-25535D01*
X18461Y-25459D01*
X18442Y-25421D01*
X18423Y-25402D01*
X18385Y-25383D01*
X18290Y-25383D01*
X18252Y-25402D01*
X18233Y-25421D01*
X18214Y-25459D01*
X18214Y-25535D01*
X18233Y-25573D01*
X18252Y-25592D01*
X18290Y-25611D01*
G54D10*
X46962Y-15159D02*
X46962Y-15309D01*
X47112Y-15324D01*
X47097Y-15309D01*
X47082Y-15279D01*
X47082Y-15204D01*
X47097Y-15174D01*
X47112Y-15159D01*
X47142Y-15144D01*
X47217Y-15144D01*
X47247Y-15159D01*
X47262Y-15174D01*
X47277Y-15204D01*
X47277Y-15279D01*
X47262Y-15309D01*
X47247Y-15324D01*
X46962Y-15055D02*
X47277Y-14950D01*
X46962Y-14845D01*
X46977Y-13339D02*
X46962Y-13369D01*
X46962Y-13414D01*
X46977Y-13459D01*
X47007Y-13489D01*
X47037Y-13504D01*
X47097Y-13519D01*
X47142Y-13519D01*
X47202Y-13504D01*
X47232Y-13489D01*
X47262Y-13459D01*
X47277Y-13414D01*
X47277Y-13384D01*
X47262Y-13339D01*
X47247Y-13324D01*
X47142Y-13324D01*
X47142Y-13384D01*
X47277Y-13189D02*
X46962Y-13189D01*
X47277Y-13010D01*
X46962Y-13010D01*
X47277Y-12860D02*
X46962Y-12860D01*
X46962Y-12785D01*
X46977Y-12740D01*
X47007Y-12710D01*
X47037Y-12695D01*
X47097Y-12680D01*
X47142Y-12680D01*
X47202Y-12695D01*
X47232Y-12710D01*
X47262Y-12740D01*
X47277Y-12785D01*
X47277Y-12860D01*
X10890Y-15512D02*
X10740Y-15512D01*
X10725Y-15662D01*
X10740Y-15647D01*
X10770Y-15632D01*
X10845Y-15632D01*
X10875Y-15647D01*
X10890Y-15662D01*
X10905Y-15692D01*
X10905Y-15767D01*
X10890Y-15797D01*
X10875Y-15812D01*
X10845Y-15827D01*
X10770Y-15827D01*
X10740Y-15812D01*
X10725Y-15797D01*
X10994Y-15512D02*
X11099Y-15827D01*
X11204Y-15512D01*
X10710Y-12327D02*
X10680Y-12312D01*
X10635Y-12312D01*
X10590Y-12327D01*
X10560Y-12357D01*
X10545Y-12387D01*
X10530Y-12447D01*
X10530Y-12492D01*
X10545Y-12552D01*
X10560Y-12582D01*
X10590Y-12612D01*
X10635Y-12627D01*
X10665Y-12627D01*
X10710Y-12612D01*
X10725Y-12597D01*
X10725Y-12492D01*
X10665Y-12492D01*
X10860Y-12627D02*
X10860Y-12312D01*
X11039Y-12627D01*
X11039Y-12312D01*
X11189Y-12627D02*
X11189Y-12312D01*
X11264Y-12312D01*
X11309Y-12327D01*
X11339Y-12357D01*
X11354Y-12387D01*
X11369Y-12447D01*
X11369Y-12492D01*
X11354Y-12552D01*
X11339Y-12582D01*
X11309Y-12612D01*
X11264Y-12627D01*
X11189Y-12627D01*
G54D15*
X26200Y-14221D02*
X26200Y-14435D01*
X26185Y-14478D01*
X26157Y-14507D01*
X26114Y-14521D01*
X26085Y-14521D01*
X26342Y-14521D02*
X26342Y-14221D01*
X26457Y-14221D01*
X26485Y-14235D01*
X26500Y-14250D01*
X26514Y-14278D01*
X26514Y-14321D01*
X26500Y-14350D01*
X26485Y-14364D01*
X26457Y-14378D01*
X26342Y-14378D01*
X26614Y-14221D02*
X26800Y-14221D01*
X26700Y-14335D01*
X26742Y-14335D01*
X26771Y-14350D01*
X26785Y-14364D01*
X26800Y-14392D01*
X26800Y-14464D01*
X26785Y-14492D01*
X26771Y-14507D01*
X26742Y-14521D01*
X26657Y-14521D01*
X26628Y-14507D01*
X26614Y-14492D01*
X27085Y-14585D02*
X27071Y-14571D01*
X27042Y-14528D01*
X27028Y-14500D01*
X27014Y-14457D01*
X27000Y-14385D01*
X27000Y-14328D01*
X27014Y-14257D01*
X27028Y-14214D01*
X27042Y-14185D01*
X27071Y-14142D01*
X27085Y-14128D01*
X27200Y-14271D02*
X27200Y-14571D01*
X27200Y-14285D02*
X27228Y-14271D01*
X27285Y-14271D01*
X27314Y-14285D01*
X27328Y-14300D01*
X27342Y-14328D01*
X27342Y-14414D01*
X27328Y-14442D01*
X27314Y-14457D01*
X27285Y-14471D01*
X27228Y-14471D01*
X27200Y-14457D01*
X27471Y-14471D02*
X27471Y-14271D01*
X27471Y-14328D02*
X27485Y-14300D01*
X27500Y-14285D01*
X27528Y-14271D01*
X27557Y-14271D01*
X27700Y-14471D02*
X27671Y-14457D01*
X27657Y-14442D01*
X27642Y-14414D01*
X27642Y-14328D01*
X27657Y-14300D01*
X27671Y-14285D01*
X27700Y-14271D01*
X27742Y-14271D01*
X27771Y-14285D01*
X27785Y-14300D01*
X27800Y-14328D01*
X27800Y-14414D01*
X27785Y-14442D01*
X27771Y-14457D01*
X27742Y-14471D01*
X27700Y-14471D01*
X28057Y-14271D02*
X28057Y-14514D01*
X28042Y-14542D01*
X28028Y-14557D01*
X28000Y-14571D01*
X27957Y-14571D01*
X27928Y-14557D01*
X28057Y-14457D02*
X28028Y-14471D01*
X27971Y-14471D01*
X27942Y-14457D01*
X27928Y-14442D01*
X27914Y-14414D01*
X27914Y-14328D01*
X27928Y-14300D01*
X27942Y-14285D01*
X27971Y-14271D01*
X28028Y-14271D01*
X28057Y-14285D01*
X28200Y-14442D02*
X28214Y-14457D01*
X28200Y-14471D01*
X28185Y-14457D01*
X28200Y-14442D01*
X28200Y-14471D01*
X28314Y-14585D02*
X28328Y-14571D01*
X28357Y-14528D01*
X28371Y-14500D01*
X28385Y-14457D01*
X28400Y-14385D01*
X28400Y-14328D01*
X28385Y-14257D01*
X28371Y-14214D01*
X28357Y-14185D01*
X28328Y-14142D01*
X28314Y-14128D01*
G54D14*
X29404Y-13561D02*
X29404Y-13161D01*
X29557Y-13161D01*
X29595Y-13180D01*
X29614Y-13200D01*
X29633Y-13238D01*
X29633Y-13295D01*
X29614Y-13333D01*
X29595Y-13352D01*
X29557Y-13371D01*
X29404Y-13371D01*
X29861Y-13333D02*
X29823Y-13314D01*
X29804Y-13295D01*
X29785Y-13257D01*
X29785Y-13238D01*
X29804Y-13200D01*
X29823Y-13180D01*
X29861Y-13161D01*
X29938Y-13161D01*
X29976Y-13180D01*
X29995Y-13200D01*
X30014Y-13238D01*
X30014Y-13257D01*
X29995Y-13295D01*
X29976Y-13314D01*
X29938Y-13333D01*
X29861Y-13333D01*
X29823Y-13352D01*
X29804Y-13371D01*
X29785Y-13409D01*
X29785Y-13485D01*
X29804Y-13523D01*
X29823Y-13542D01*
X29861Y-13561D01*
X29938Y-13561D01*
X29976Y-13542D01*
X29995Y-13523D01*
X30014Y-13485D01*
X30014Y-13409D01*
X29995Y-13371D01*
X29976Y-13352D01*
X29938Y-13333D01*
M02*
