G04 (created by PCBNEW (2013-jul-07)-stable) date So 23 Nov 2014 23:25:05 CET*
%MOIN*%
G04 Gerber Fmt 3.4, Leading zero omitted, Abs format*
%FSLAX34Y34*%
G01*
G70*
G90*
G04 APERTURE LIST*
%ADD10C,0.00590551*%
%ADD11C,0.00393701*%
%ADD12C,0.00787402*%
%ADD13C,0.015*%
%ADD14C,0.011811*%
%ADD15C,0.0001*%
%ADD16C,0.01*%
%ADD17C,0.006*%
%ADD18C,0.008*%
%ADD19C,0.0035*%
%ADD20C,0.012*%
G04 APERTURE END LIST*
G54D10*
G54D11*
X17050Y-11950D02*
X16850Y-11750D01*
X17950Y-11950D02*
X17050Y-11950D01*
X18250Y-12250D02*
X17950Y-11950D01*
X23550Y-11950D02*
X23400Y-11800D01*
X25450Y-12300D02*
X24950Y-11800D01*
X18700Y-12200D02*
X18300Y-11800D01*
X18700Y-12550D02*
X18700Y-12200D01*
X18250Y-12550D02*
X18250Y-12250D01*
X25450Y-12550D02*
X25450Y-12300D01*
X24750Y-11950D02*
X23550Y-11950D01*
X25100Y-12300D02*
X24750Y-11950D01*
X25100Y-12600D02*
X25100Y-12300D01*
G54D12*
X46991Y-12212D02*
X46518Y-12212D01*
X46991Y-12414D02*
X46743Y-12414D01*
X46698Y-12392D01*
X46676Y-12347D01*
X46676Y-12279D01*
X46698Y-12234D01*
X46721Y-12212D01*
X46676Y-12572D02*
X46676Y-12752D01*
X46518Y-12639D02*
X46923Y-12639D01*
X46968Y-12662D01*
X46991Y-12707D01*
X46991Y-12752D01*
X46676Y-12842D02*
X46676Y-13022D01*
X46518Y-12909D02*
X46923Y-12909D01*
X46968Y-12932D01*
X46991Y-12977D01*
X46991Y-13022D01*
X46676Y-13179D02*
X47148Y-13179D01*
X46698Y-13179D02*
X46676Y-13224D01*
X46676Y-13314D01*
X46698Y-13359D01*
X46721Y-13382D01*
X46766Y-13404D01*
X46901Y-13404D01*
X46946Y-13382D01*
X46968Y-13359D01*
X46991Y-13314D01*
X46991Y-13224D01*
X46968Y-13179D01*
X46968Y-13584D02*
X46991Y-13629D01*
X46991Y-13719D01*
X46968Y-13764D01*
X46923Y-13787D01*
X46901Y-13787D01*
X46856Y-13764D01*
X46833Y-13719D01*
X46833Y-13652D01*
X46811Y-13607D01*
X46766Y-13584D01*
X46743Y-13584D01*
X46698Y-13607D01*
X46676Y-13652D01*
X46676Y-13719D01*
X46698Y-13764D01*
X46946Y-13989D02*
X46968Y-14012D01*
X46991Y-13989D01*
X46968Y-13967D01*
X46946Y-13989D01*
X46991Y-13989D01*
X46698Y-13989D02*
X46721Y-14012D01*
X46743Y-13989D01*
X46721Y-13967D01*
X46698Y-13989D01*
X46743Y-13989D01*
X46496Y-14552D02*
X47103Y-14147D01*
X46496Y-15047D02*
X47103Y-14642D01*
X46676Y-15407D02*
X47058Y-15407D01*
X47103Y-15384D01*
X47126Y-15362D01*
X47148Y-15317D01*
X47148Y-15249D01*
X47126Y-15204D01*
X46968Y-15407D02*
X46991Y-15362D01*
X46991Y-15272D01*
X46968Y-15227D01*
X46946Y-15204D01*
X46901Y-15182D01*
X46766Y-15182D01*
X46721Y-15204D01*
X46698Y-15227D01*
X46676Y-15272D01*
X46676Y-15362D01*
X46698Y-15407D01*
X46991Y-15632D02*
X46676Y-15632D01*
X46518Y-15632D02*
X46541Y-15609D01*
X46563Y-15632D01*
X46541Y-15654D01*
X46518Y-15632D01*
X46563Y-15632D01*
X46676Y-15789D02*
X46676Y-15969D01*
X46518Y-15857D02*
X46923Y-15857D01*
X46968Y-15879D01*
X46991Y-15924D01*
X46991Y-15969D01*
X46991Y-16126D02*
X46518Y-16126D01*
X46991Y-16329D02*
X46743Y-16329D01*
X46698Y-16306D01*
X46676Y-16261D01*
X46676Y-16194D01*
X46698Y-16149D01*
X46721Y-16126D01*
X46676Y-16756D02*
X46991Y-16756D01*
X46676Y-16554D02*
X46923Y-16554D01*
X46968Y-16576D01*
X46991Y-16621D01*
X46991Y-16689D01*
X46968Y-16734D01*
X46946Y-16756D01*
X46991Y-16981D02*
X46518Y-16981D01*
X46698Y-16981D02*
X46676Y-17026D01*
X46676Y-17116D01*
X46698Y-17161D01*
X46721Y-17184D01*
X46766Y-17206D01*
X46901Y-17206D01*
X46946Y-17184D01*
X46968Y-17161D01*
X46991Y-17116D01*
X46991Y-17026D01*
X46968Y-16981D01*
X46946Y-17409D02*
X46968Y-17431D01*
X46991Y-17409D01*
X46968Y-17386D01*
X46946Y-17409D01*
X46991Y-17409D01*
X46968Y-17836D02*
X46991Y-17791D01*
X46991Y-17701D01*
X46968Y-17656D01*
X46946Y-17634D01*
X46901Y-17611D01*
X46766Y-17611D01*
X46721Y-17634D01*
X46698Y-17656D01*
X46676Y-17701D01*
X46676Y-17791D01*
X46698Y-17836D01*
X46991Y-18106D02*
X46968Y-18061D01*
X46946Y-18039D01*
X46901Y-18016D01*
X46766Y-18016D01*
X46721Y-18039D01*
X46698Y-18061D01*
X46676Y-18106D01*
X46676Y-18174D01*
X46698Y-18219D01*
X46721Y-18241D01*
X46766Y-18264D01*
X46901Y-18264D01*
X46946Y-18241D01*
X46968Y-18219D01*
X46991Y-18174D01*
X46991Y-18106D01*
X46991Y-18466D02*
X46676Y-18466D01*
X46721Y-18466D02*
X46698Y-18489D01*
X46676Y-18534D01*
X46676Y-18601D01*
X46698Y-18646D01*
X46743Y-18669D01*
X46991Y-18669D01*
X46743Y-18669D02*
X46698Y-18691D01*
X46676Y-18736D01*
X46676Y-18804D01*
X46698Y-18849D01*
X46743Y-18871D01*
X46991Y-18871D01*
X46496Y-19434D02*
X47103Y-19029D01*
X46968Y-19569D02*
X46991Y-19614D01*
X46991Y-19704D01*
X46968Y-19749D01*
X46923Y-19771D01*
X46901Y-19771D01*
X46856Y-19749D01*
X46833Y-19704D01*
X46833Y-19636D01*
X46811Y-19591D01*
X46766Y-19569D01*
X46743Y-19569D01*
X46698Y-19591D01*
X46676Y-19636D01*
X46676Y-19704D01*
X46698Y-19749D01*
X46676Y-19906D02*
X46676Y-20086D01*
X46518Y-19974D02*
X46923Y-19974D01*
X46968Y-19996D01*
X46991Y-20041D01*
X46991Y-20086D01*
X46676Y-20446D02*
X46991Y-20446D01*
X46676Y-20243D02*
X46923Y-20243D01*
X46968Y-20266D01*
X46991Y-20311D01*
X46991Y-20378D01*
X46968Y-20423D01*
X46946Y-20446D01*
X46676Y-20671D02*
X46991Y-20671D01*
X46721Y-20671D02*
X46698Y-20693D01*
X46676Y-20738D01*
X46676Y-20806D01*
X46698Y-20851D01*
X46743Y-20873D01*
X46991Y-20873D01*
X46991Y-21301D02*
X46518Y-21301D01*
X46968Y-21301D02*
X46991Y-21256D01*
X46991Y-21166D01*
X46968Y-21121D01*
X46946Y-21098D01*
X46901Y-21076D01*
X46766Y-21076D01*
X46721Y-21098D01*
X46698Y-21121D01*
X46676Y-21166D01*
X46676Y-21256D01*
X46698Y-21301D01*
X46968Y-21706D02*
X46991Y-21661D01*
X46991Y-21571D01*
X46968Y-21526D01*
X46923Y-21503D01*
X46743Y-21503D01*
X46698Y-21526D01*
X46676Y-21571D01*
X46676Y-21661D01*
X46698Y-21706D01*
X46743Y-21728D01*
X46788Y-21728D01*
X46833Y-21503D01*
X46676Y-21931D02*
X46991Y-21931D01*
X46721Y-21931D02*
X46698Y-21953D01*
X46676Y-21998D01*
X46676Y-22066D01*
X46698Y-22111D01*
X46743Y-22133D01*
X46991Y-22133D01*
X46991Y-22358D02*
X46518Y-22358D01*
X46698Y-22358D02*
X46676Y-22403D01*
X46676Y-22493D01*
X46698Y-22538D01*
X46721Y-22561D01*
X46766Y-22583D01*
X46901Y-22583D01*
X46946Y-22561D01*
X46968Y-22538D01*
X46991Y-22493D01*
X46991Y-22403D01*
X46968Y-22358D01*
X46991Y-22853D02*
X46968Y-22808D01*
X46923Y-22786D01*
X46518Y-22786D01*
X46676Y-23236D02*
X46991Y-23236D01*
X46676Y-23033D02*
X46923Y-23033D01*
X46968Y-23056D01*
X46991Y-23101D01*
X46991Y-23168D01*
X46968Y-23213D01*
X46946Y-23236D01*
X46991Y-23461D02*
X46676Y-23461D01*
X46721Y-23461D02*
X46698Y-23483D01*
X46676Y-23528D01*
X46676Y-23596D01*
X46698Y-23641D01*
X46743Y-23663D01*
X46991Y-23663D01*
X46743Y-23663D02*
X46698Y-23686D01*
X46676Y-23731D01*
X46676Y-23798D01*
X46698Y-23843D01*
X46743Y-23866D01*
X46991Y-23866D01*
X46968Y-24270D02*
X46991Y-24225D01*
X46991Y-24135D01*
X46968Y-24090D01*
X46923Y-24068D01*
X46743Y-24068D01*
X46698Y-24090D01*
X46676Y-24135D01*
X46676Y-24225D01*
X46698Y-24270D01*
X46743Y-24293D01*
X46788Y-24293D01*
X46833Y-24068D01*
X46496Y-24833D02*
X47103Y-24428D01*
X46676Y-24945D02*
X46991Y-25035D01*
X46766Y-25125D01*
X46991Y-25215D01*
X46676Y-25305D01*
X46991Y-25553D02*
X46968Y-25508D01*
X46946Y-25485D01*
X46901Y-25463D01*
X46766Y-25463D01*
X46721Y-25485D01*
X46698Y-25508D01*
X46676Y-25553D01*
X46676Y-25620D01*
X46698Y-25665D01*
X46721Y-25688D01*
X46766Y-25710D01*
X46901Y-25710D01*
X46946Y-25688D01*
X46968Y-25665D01*
X46991Y-25620D01*
X46991Y-25553D01*
X46968Y-26093D02*
X46991Y-26048D01*
X46991Y-25958D01*
X46968Y-25913D01*
X46923Y-25890D01*
X46743Y-25890D01*
X46698Y-25913D01*
X46676Y-25958D01*
X46676Y-26048D01*
X46698Y-26093D01*
X46743Y-26115D01*
X46788Y-26115D01*
X46833Y-25890D01*
X46991Y-26318D02*
X46676Y-26318D01*
X46766Y-26318D02*
X46721Y-26340D01*
X46698Y-26363D01*
X46676Y-26408D01*
X46676Y-26453D01*
X46991Y-26813D02*
X46518Y-26813D01*
X46968Y-26813D02*
X46991Y-26768D01*
X46991Y-26678D01*
X46968Y-26633D01*
X46946Y-26610D01*
X46901Y-26588D01*
X46766Y-26588D01*
X46721Y-26610D01*
X46698Y-26633D01*
X46676Y-26678D01*
X46676Y-26768D01*
X46698Y-26813D01*
X46968Y-27240D02*
X46991Y-27195D01*
X46991Y-27105D01*
X46968Y-27060D01*
X46946Y-27038D01*
X46901Y-27015D01*
X46766Y-27015D01*
X46721Y-27038D01*
X46698Y-27060D01*
X46676Y-27105D01*
X46676Y-27195D01*
X46698Y-27240D01*
X46991Y-27510D02*
X46968Y-27465D01*
X46923Y-27443D01*
X46518Y-27443D01*
X46991Y-27758D02*
X46968Y-27713D01*
X46946Y-27690D01*
X46901Y-27668D01*
X46766Y-27668D01*
X46721Y-27690D01*
X46698Y-27713D01*
X46676Y-27758D01*
X46676Y-27825D01*
X46698Y-27870D01*
X46721Y-27893D01*
X46766Y-27915D01*
X46901Y-27915D01*
X46946Y-27893D01*
X46968Y-27870D01*
X46991Y-27825D01*
X46991Y-27758D01*
X46968Y-28320D02*
X46991Y-28275D01*
X46991Y-28185D01*
X46968Y-28140D01*
X46946Y-28117D01*
X46901Y-28095D01*
X46766Y-28095D01*
X46721Y-28117D01*
X46698Y-28140D01*
X46676Y-28185D01*
X46676Y-28275D01*
X46698Y-28320D01*
X46991Y-28522D02*
X46518Y-28522D01*
X46811Y-28567D02*
X46991Y-28702D01*
X46676Y-28702D02*
X46856Y-28522D01*
X47258Y-12144D02*
X47731Y-12302D01*
X47258Y-12459D01*
X47258Y-12707D02*
X47258Y-12752D01*
X47281Y-12797D01*
X47303Y-12819D01*
X47348Y-12842D01*
X47438Y-12864D01*
X47551Y-12864D01*
X47641Y-12842D01*
X47686Y-12819D01*
X47708Y-12797D01*
X47731Y-12752D01*
X47731Y-12707D01*
X47708Y-12662D01*
X47686Y-12639D01*
X47641Y-12617D01*
X47551Y-12594D01*
X47438Y-12594D01*
X47348Y-12617D01*
X47303Y-12639D01*
X47281Y-12662D01*
X47258Y-12707D01*
X47303Y-13044D02*
X47281Y-13067D01*
X47258Y-13112D01*
X47258Y-13224D01*
X47281Y-13269D01*
X47303Y-13292D01*
X47348Y-13314D01*
X47393Y-13314D01*
X47461Y-13292D01*
X47731Y-13022D01*
X47731Y-13314D01*
X47551Y-13877D02*
X47551Y-14237D01*
X47303Y-14799D02*
X47281Y-14822D01*
X47258Y-14867D01*
X47258Y-14979D01*
X47281Y-15024D01*
X47303Y-15047D01*
X47348Y-15069D01*
X47393Y-15069D01*
X47461Y-15047D01*
X47731Y-14777D01*
X47731Y-15069D01*
X47258Y-15227D02*
X47258Y-15519D01*
X47438Y-15362D01*
X47438Y-15429D01*
X47461Y-15474D01*
X47483Y-15497D01*
X47528Y-15519D01*
X47641Y-15519D01*
X47686Y-15497D01*
X47708Y-15474D01*
X47731Y-15429D01*
X47731Y-15294D01*
X47708Y-15249D01*
X47686Y-15227D01*
X47686Y-15722D02*
X47708Y-15744D01*
X47731Y-15722D01*
X47708Y-15699D01*
X47686Y-15722D01*
X47731Y-15722D01*
X47731Y-16194D02*
X47731Y-15924D01*
X47731Y-16059D02*
X47258Y-16059D01*
X47326Y-16014D01*
X47371Y-15969D01*
X47393Y-15924D01*
X47731Y-16644D02*
X47731Y-16374D01*
X47731Y-16509D02*
X47258Y-16509D01*
X47326Y-16464D01*
X47371Y-16419D01*
X47393Y-16374D01*
X47686Y-16846D02*
X47708Y-16869D01*
X47731Y-16846D01*
X47708Y-16824D01*
X47686Y-16846D01*
X47731Y-16846D01*
X47303Y-17049D02*
X47281Y-17071D01*
X47258Y-17116D01*
X47258Y-17229D01*
X47281Y-17274D01*
X47303Y-17296D01*
X47348Y-17319D01*
X47393Y-17319D01*
X47461Y-17296D01*
X47731Y-17026D01*
X47731Y-17319D01*
X47258Y-17611D02*
X47258Y-17656D01*
X47281Y-17701D01*
X47303Y-17724D01*
X47348Y-17746D01*
X47438Y-17769D01*
X47551Y-17769D01*
X47641Y-17746D01*
X47686Y-17724D01*
X47708Y-17701D01*
X47731Y-17656D01*
X47731Y-17611D01*
X47708Y-17566D01*
X47686Y-17544D01*
X47641Y-17521D01*
X47551Y-17499D01*
X47438Y-17499D01*
X47348Y-17521D01*
X47303Y-17544D01*
X47281Y-17566D01*
X47258Y-17611D01*
X47731Y-18219D02*
X47731Y-17949D01*
X47731Y-18084D02*
X47258Y-18084D01*
X47326Y-18039D01*
X47371Y-17994D01*
X47393Y-17949D01*
X47416Y-18624D02*
X47731Y-18624D01*
X47236Y-18511D02*
X47573Y-18399D01*
X47573Y-18691D01*
G54D13*
X10000Y-28700D02*
X10000Y-10984D01*
X48346Y-29685D02*
X10984Y-29685D01*
X49370Y-10984D02*
X49370Y-28740D01*
X10984Y-10000D02*
X48385Y-10000D01*
X48346Y-29685D02*
G75*
G03X49370Y-28740I39J984D01*
G74*
G01*
X49370Y-10984D02*
G75*
G03X48385Y-10000I-984J0D01*
G74*
G01*
X10984Y-10000D02*
G75*
G03X10000Y-10984I0J-984D01*
G74*
G01*
X10000Y-28700D02*
G75*
G03X10984Y-29685I984J0D01*
G74*
G01*
G54D14*
X29200Y-23000D02*
X30200Y-23000D01*
X30200Y-23000D02*
X30200Y-25000D01*
X30200Y-25000D02*
X29200Y-25000D01*
X29200Y-25000D02*
X29200Y-23000D01*
G54D13*
X26950Y-21250D02*
X34250Y-21250D01*
X34250Y-21250D02*
X34250Y-26750D01*
X34250Y-26750D02*
X26950Y-26750D01*
X26950Y-26750D02*
X26950Y-21250D01*
G54D14*
X38162Y-22659D02*
G75*
G03X38162Y-22659I-196J0D01*
G74*
G01*
X38162Y-23840D02*
G75*
G03X38162Y-23840I-196J0D01*
G74*
G01*
X38950Y-23250D02*
X38753Y-22856D01*
X38950Y-23250D02*
X38359Y-23446D01*
X39737Y-23250D02*
G75*
G03X39737Y-23250I-787J0D01*
G74*
G01*
G54D15*
G36*
X41437Y-10942D02*
X41495Y-10944D01*
X41570Y-10976D01*
X41579Y-10981D01*
X41715Y-11076D01*
X41832Y-11201D01*
X41920Y-11343D01*
X41970Y-11485D01*
X41972Y-11612D01*
X41967Y-11633D01*
X41955Y-11679D01*
X41973Y-11687D01*
X42032Y-11659D01*
X42045Y-11653D01*
X42209Y-11605D01*
X42398Y-11617D01*
X42515Y-11649D01*
X42581Y-11670D01*
X42640Y-11679D01*
X42710Y-11674D01*
X42805Y-11654D01*
X42943Y-11618D01*
X43004Y-11601D01*
X43241Y-11541D01*
X43524Y-11480D01*
X43831Y-11422D01*
X44142Y-11371D01*
X44278Y-11351D01*
X44418Y-11335D01*
X44605Y-11317D01*
X44826Y-11298D01*
X45064Y-11280D01*
X45303Y-11264D01*
X45529Y-11250D01*
X45726Y-11239D01*
X45879Y-11234D01*
X45924Y-11233D01*
X46217Y-11233D01*
X46217Y-11344D01*
X46217Y-11455D01*
X45525Y-11494D01*
X45288Y-11508D01*
X45046Y-11525D01*
X44818Y-11542D01*
X44620Y-11559D01*
X44474Y-11573D01*
X44115Y-11614D01*
X44119Y-11673D01*
X43866Y-11673D01*
X43832Y-11674D01*
X43751Y-11686D01*
X43642Y-11704D01*
X43524Y-11726D01*
X43414Y-11749D01*
X43331Y-11767D01*
X43293Y-11779D01*
X43293Y-11780D01*
X43311Y-11804D01*
X43369Y-11857D01*
X43397Y-11880D01*
X42967Y-11880D01*
X42903Y-11883D01*
X42805Y-11912D01*
X42743Y-11967D01*
X42698Y-12065D01*
X42688Y-12097D01*
X42636Y-12206D01*
X42554Y-12305D01*
X42463Y-12375D01*
X42382Y-12400D01*
X42346Y-12404D01*
X42343Y-12428D01*
X42376Y-12486D01*
X42393Y-12513D01*
X42467Y-12626D01*
X42527Y-12489D01*
X42578Y-12388D01*
X42630Y-12306D01*
X42644Y-12289D01*
X42761Y-12197D01*
X42916Y-12129D01*
X43080Y-12096D01*
X43108Y-12095D01*
X43264Y-12091D01*
X43132Y-11978D01*
X43040Y-11908D01*
X42967Y-11880D01*
X43397Y-11880D01*
X43441Y-11915D01*
X43550Y-12009D01*
X43653Y-12113D01*
X43700Y-12168D01*
X43762Y-12243D01*
X43807Y-12290D01*
X43820Y-12299D01*
X43858Y-12271D01*
X43885Y-12190D01*
X43898Y-12069D01*
X43894Y-11920D01*
X43894Y-11917D01*
X43883Y-11800D01*
X43874Y-11713D01*
X43866Y-11674D01*
X43866Y-11673D01*
X44119Y-11673D01*
X44137Y-11900D01*
X44146Y-12047D01*
X44144Y-12150D01*
X44129Y-12228D01*
X44099Y-12303D01*
X44088Y-12325D01*
X44083Y-12333D01*
X43135Y-12333D01*
X42986Y-12361D01*
X42864Y-12436D01*
X42778Y-12546D01*
X42737Y-12676D01*
X42752Y-12816D01*
X42761Y-12842D01*
X42845Y-12973D01*
X42957Y-13055D01*
X43085Y-13092D01*
X43216Y-13086D01*
X43338Y-13038D01*
X43436Y-12952D01*
X43500Y-12829D01*
X43517Y-12710D01*
X43507Y-12610D01*
X43470Y-12531D01*
X43399Y-12451D01*
X43313Y-12376D01*
X43235Y-12342D01*
X43135Y-12333D01*
X44083Y-12333D01*
X44017Y-12463D01*
X44306Y-12551D01*
X44594Y-12639D01*
X44881Y-12353D01*
X44996Y-12242D01*
X45098Y-12152D01*
X45175Y-12090D01*
X45217Y-12067D01*
X45269Y-12077D01*
X45368Y-12101D01*
X45498Y-12137D01*
X45592Y-12164D01*
X45917Y-12260D01*
X45917Y-12148D01*
X45937Y-12053D01*
X45989Y-11993D01*
X46056Y-11979D01*
X46104Y-12003D01*
X46131Y-12047D01*
X46144Y-12128D01*
X46144Y-12260D01*
X46143Y-12280D01*
X46135Y-12406D01*
X46122Y-12480D01*
X46100Y-12516D01*
X46071Y-12528D01*
X46016Y-12524D01*
X45912Y-12503D01*
X45775Y-12470D01*
X45643Y-12433D01*
X45276Y-12326D01*
X45063Y-12537D01*
X44969Y-12632D01*
X44897Y-12709D01*
X44856Y-12757D01*
X44851Y-12766D01*
X44878Y-12790D01*
X44950Y-12838D01*
X45053Y-12903D01*
X45104Y-12933D01*
X45312Y-13078D01*
X45533Y-13271D01*
X45638Y-13375D01*
X45747Y-13487D01*
X45839Y-13580D01*
X45903Y-13642D01*
X45932Y-13667D01*
X45947Y-13639D01*
X45956Y-13592D01*
X45989Y-13529D01*
X46056Y-13507D01*
X46134Y-13521D01*
X46172Y-13586D01*
X46172Y-13705D01*
X46165Y-13750D01*
X46113Y-13859D01*
X46019Y-13938D01*
X45905Y-13967D01*
X45865Y-13944D01*
X45790Y-13880D01*
X45689Y-13786D01*
X45572Y-13668D01*
X45528Y-13623D01*
X45213Y-13325D01*
X44890Y-13088D01*
X44548Y-12903D01*
X44193Y-12770D01*
X44048Y-12725D01*
X43925Y-12687D01*
X43838Y-12659D01*
X43807Y-12648D01*
X43775Y-12656D01*
X43759Y-12715D01*
X43756Y-12767D01*
X43725Y-12936D01*
X43642Y-13084D01*
X43536Y-13194D01*
X43379Y-13290D01*
X43202Y-13332D01*
X43018Y-13324D01*
X42842Y-13269D01*
X42688Y-13168D01*
X42572Y-13025D01*
X42555Y-12995D01*
X42484Y-12850D01*
X42484Y-12985D01*
X42472Y-13114D01*
X42429Y-13194D01*
X42346Y-13234D01*
X42211Y-13242D01*
X42186Y-13242D01*
X41994Y-13219D01*
X41837Y-13171D01*
X41725Y-13103D01*
X41685Y-13052D01*
X41643Y-12974D01*
X41518Y-13099D01*
X41396Y-13193D01*
X41246Y-13272D01*
X41094Y-13322D01*
X40999Y-13333D01*
X40924Y-13310D01*
X40864Y-13263D01*
X40823Y-13180D01*
X40802Y-13056D01*
X40800Y-12914D01*
X40817Y-12777D01*
X40853Y-12668D01*
X40863Y-12651D01*
X40901Y-12590D01*
X40900Y-12571D01*
X40858Y-12581D01*
X40852Y-12583D01*
X40739Y-12586D01*
X40609Y-12536D01*
X40478Y-12438D01*
X40418Y-12377D01*
X40307Y-12225D01*
X40260Y-12091D01*
X40277Y-11976D01*
X40319Y-11914D01*
X40438Y-11819D01*
X40591Y-11740D01*
X40752Y-11687D01*
X40895Y-11672D01*
X40903Y-11672D01*
X41047Y-11684D01*
X41028Y-11544D01*
X41032Y-11410D01*
X41085Y-11279D01*
X41194Y-11141D01*
X41284Y-11053D01*
X41373Y-10977D01*
X41437Y-10942D01*
X41437Y-10942D01*
X41437Y-10942D01*
G37*
G54D16*
X25300Y-11670D02*
X24300Y-11670D01*
G54D17*
X24415Y-10589D02*
G75*
G02X24800Y-10450I384J-460D01*
G74*
G01*
X24800Y-10450D02*
G75*
G02X25197Y-10601I0J-599D01*
G74*
G01*
X24800Y-11649D02*
G75*
G02X24410Y-11505I0J599D01*
G74*
G01*
X25184Y-11510D02*
G75*
G02X24800Y-11650I-384J460D01*
G74*
G01*
X24450Y-11537D02*
G75*
G02X24200Y-11050I349J487D01*
G74*
G01*
X24200Y-11050D02*
G75*
G02X24439Y-10570I600J0D01*
G74*
G01*
X25399Y-11050D02*
G75*
G02X25168Y-11522I-599J0D01*
G74*
G01*
X25168Y-10576D02*
G75*
G02X25400Y-11050I-368J-473D01*
G74*
G01*
X24550Y-11050D02*
G75*
G02X24800Y-10800I250J0D01*
G74*
G01*
X24400Y-11050D02*
G75*
G02X24800Y-10650I400J0D01*
G74*
G01*
X25050Y-11050D02*
G75*
G02X24800Y-11300I-250J0D01*
G74*
G01*
X25200Y-11050D02*
G75*
G02X24800Y-11450I-400J0D01*
G74*
G01*
G54D16*
X24286Y-11663D02*
G75*
G02X24000Y-11050I513J613D01*
G74*
G01*
X24001Y-11050D02*
G75*
G02X24423Y-10345I799J0D01*
G74*
G01*
X25598Y-11051D02*
G75*
G02X25315Y-11660I-798J1D01*
G74*
G01*
X25197Y-10355D02*
G75*
G02X25600Y-11050I-397J-694D01*
G74*
G01*
X24420Y-10345D02*
G75*
G02X24800Y-10250I379J-704D01*
G74*
G01*
X24800Y-10250D02*
G75*
G02X25218Y-10368I0J-799D01*
G74*
G01*
X18550Y-11670D02*
X17550Y-11670D01*
G54D17*
X17665Y-10589D02*
G75*
G02X18050Y-10450I384J-460D01*
G74*
G01*
X18050Y-10450D02*
G75*
G02X18447Y-10601I0J-599D01*
G74*
G01*
X18050Y-11649D02*
G75*
G02X17660Y-11505I0J599D01*
G74*
G01*
X18434Y-11510D02*
G75*
G02X18050Y-11650I-384J460D01*
G74*
G01*
X17700Y-11537D02*
G75*
G02X17450Y-11050I349J487D01*
G74*
G01*
X17450Y-11050D02*
G75*
G02X17689Y-10570I600J0D01*
G74*
G01*
X18649Y-11050D02*
G75*
G02X18418Y-11522I-599J0D01*
G74*
G01*
X18418Y-10576D02*
G75*
G02X18650Y-11050I-368J-473D01*
G74*
G01*
X17800Y-11050D02*
G75*
G02X18050Y-10800I250J0D01*
G74*
G01*
X17650Y-11050D02*
G75*
G02X18050Y-10650I400J0D01*
G74*
G01*
X18300Y-11050D02*
G75*
G02X18050Y-11300I-250J0D01*
G74*
G01*
X18450Y-11050D02*
G75*
G02X18050Y-11450I-400J0D01*
G74*
G01*
G54D16*
X17536Y-11663D02*
G75*
G02X17250Y-11050I513J613D01*
G74*
G01*
X17251Y-11050D02*
G75*
G02X17673Y-10345I799J0D01*
G74*
G01*
X18848Y-11051D02*
G75*
G02X18565Y-11660I-798J1D01*
G74*
G01*
X18447Y-10355D02*
G75*
G02X18850Y-11050I-397J-694D01*
G74*
G01*
X17670Y-10345D02*
G75*
G02X18050Y-10250I379J-704D01*
G74*
G01*
X18050Y-10250D02*
G75*
G02X18468Y-10368I0J-799D01*
G74*
G01*
X23700Y-11670D02*
X22700Y-11670D01*
G54D17*
X22815Y-10589D02*
G75*
G02X23200Y-10450I384J-460D01*
G74*
G01*
X23200Y-10450D02*
G75*
G02X23597Y-10601I0J-599D01*
G74*
G01*
X23200Y-11649D02*
G75*
G02X22810Y-11505I0J599D01*
G74*
G01*
X23584Y-11510D02*
G75*
G02X23200Y-11650I-384J460D01*
G74*
G01*
X22850Y-11537D02*
G75*
G02X22600Y-11050I349J487D01*
G74*
G01*
X22600Y-11050D02*
G75*
G02X22839Y-10570I600J0D01*
G74*
G01*
X23799Y-11050D02*
G75*
G02X23568Y-11522I-599J0D01*
G74*
G01*
X23568Y-10576D02*
G75*
G02X23800Y-11050I-368J-473D01*
G74*
G01*
X22950Y-11050D02*
G75*
G02X23200Y-10800I250J0D01*
G74*
G01*
X22800Y-11050D02*
G75*
G02X23200Y-10650I400J0D01*
G74*
G01*
X23450Y-11050D02*
G75*
G02X23200Y-11300I-250J0D01*
G74*
G01*
X23600Y-11050D02*
G75*
G02X23200Y-11450I-400J0D01*
G74*
G01*
G54D16*
X22686Y-11663D02*
G75*
G02X22400Y-11050I513J613D01*
G74*
G01*
X22401Y-11050D02*
G75*
G02X22823Y-10345I799J0D01*
G74*
G01*
X23998Y-11051D02*
G75*
G02X23715Y-11660I-798J1D01*
G74*
G01*
X23597Y-10355D02*
G75*
G02X24000Y-11050I-397J-694D01*
G74*
G01*
X22820Y-10345D02*
G75*
G02X23200Y-10250I379J-704D01*
G74*
G01*
X23200Y-10250D02*
G75*
G02X23618Y-10368I0J-799D01*
G74*
G01*
X16950Y-11670D02*
X15950Y-11670D01*
G54D17*
X16065Y-10589D02*
G75*
G02X16450Y-10450I384J-460D01*
G74*
G01*
X16450Y-10450D02*
G75*
G02X16847Y-10601I0J-599D01*
G74*
G01*
X16450Y-11649D02*
G75*
G02X16060Y-11505I0J599D01*
G74*
G01*
X16834Y-11510D02*
G75*
G02X16450Y-11650I-384J460D01*
G74*
G01*
X16100Y-11537D02*
G75*
G02X15850Y-11050I349J487D01*
G74*
G01*
X15850Y-11050D02*
G75*
G02X16089Y-10570I600J0D01*
G74*
G01*
X17049Y-11050D02*
G75*
G02X16818Y-11522I-599J0D01*
G74*
G01*
X16818Y-10576D02*
G75*
G02X17050Y-11050I-368J-473D01*
G74*
G01*
X16200Y-11050D02*
G75*
G02X16450Y-10800I250J0D01*
G74*
G01*
X16050Y-11050D02*
G75*
G02X16450Y-10650I400J0D01*
G74*
G01*
X16700Y-11050D02*
G75*
G02X16450Y-11300I-250J0D01*
G74*
G01*
X16850Y-11050D02*
G75*
G02X16450Y-11450I-400J0D01*
G74*
G01*
G54D16*
X15936Y-11663D02*
G75*
G02X15650Y-11050I513J613D01*
G74*
G01*
X15651Y-11050D02*
G75*
G02X16073Y-10345I799J0D01*
G74*
G01*
X17248Y-11051D02*
G75*
G02X16965Y-11660I-798J1D01*
G74*
G01*
X16847Y-10355D02*
G75*
G02X17250Y-11050I-397J-694D01*
G74*
G01*
X16070Y-10345D02*
G75*
G02X16450Y-10250I379J-704D01*
G74*
G01*
X16450Y-10250D02*
G75*
G02X16868Y-10368I0J-799D01*
G74*
G01*
G54D13*
X29306Y-19250D02*
X30093Y-19250D01*
X29700Y-18856D02*
X29700Y-19643D01*
X29700Y-20234D02*
X33243Y-20234D01*
X29700Y-18265D02*
X33243Y-18265D01*
X28715Y-19250D02*
G75*
G02X29700Y-18265I984J0D01*
G74*
G01*
X29700Y-20234D02*
G75*
G02X28715Y-19250I0J984D01*
G74*
G01*
X33243Y-17281D02*
X28322Y-17281D01*
X28322Y-17281D02*
X28322Y-21218D01*
X28322Y-21218D02*
X33243Y-21218D01*
X33243Y-21218D02*
X33243Y-17281D01*
X11968Y-10984D02*
G75*
G03X11968Y-10984I-984J0D01*
G74*
G01*
X11968Y-28700D02*
G75*
G03X11968Y-28700I-984J0D01*
G74*
G01*
X49370Y-10984D02*
G75*
G03X49370Y-10984I-984J0D01*
G74*
G01*
X49370Y-28700D02*
G75*
G03X49370Y-28700I-984J0D01*
G74*
G01*
G54D18*
X28200Y-28750D02*
X28400Y-28750D01*
X31200Y-28750D02*
X31000Y-28750D01*
X31000Y-28750D02*
X31000Y-29150D01*
X31000Y-29150D02*
X28400Y-29150D01*
X28400Y-29150D02*
X28400Y-28350D01*
X28400Y-28350D02*
X31000Y-28350D01*
X31000Y-28350D02*
X31000Y-28750D01*
X28400Y-28950D02*
X28600Y-29150D01*
X28200Y-27150D02*
X28400Y-27150D01*
X31200Y-27150D02*
X31000Y-27150D01*
X31000Y-27150D02*
X31000Y-27550D01*
X31000Y-27550D02*
X28400Y-27550D01*
X28400Y-27550D02*
X28400Y-26750D01*
X28400Y-26750D02*
X31000Y-26750D01*
X31000Y-26750D02*
X31000Y-27150D01*
X28400Y-27350D02*
X28600Y-27550D01*
X28200Y-27950D02*
X28400Y-27950D01*
X31200Y-27950D02*
X31000Y-27950D01*
X31000Y-27950D02*
X31000Y-28350D01*
X31000Y-28350D02*
X28400Y-28350D01*
X28400Y-28350D02*
X28400Y-27550D01*
X28400Y-27550D02*
X31000Y-27550D01*
X31000Y-27550D02*
X31000Y-27950D01*
X28400Y-28150D02*
X28600Y-28350D01*
X41150Y-19200D02*
X41350Y-19200D01*
X44150Y-19200D02*
X43950Y-19200D01*
X43950Y-19200D02*
X43950Y-19600D01*
X43950Y-19600D02*
X41350Y-19600D01*
X41350Y-19600D02*
X41350Y-18800D01*
X41350Y-18800D02*
X43950Y-18800D01*
X43950Y-18800D02*
X43950Y-19200D01*
X41350Y-19400D02*
X41550Y-19600D01*
X44150Y-27250D02*
X43950Y-27250D01*
X41150Y-27250D02*
X41350Y-27250D01*
X41350Y-27250D02*
X41350Y-26850D01*
X41350Y-26850D02*
X43950Y-26850D01*
X43950Y-26850D02*
X43950Y-27650D01*
X43950Y-27650D02*
X41350Y-27650D01*
X41350Y-27650D02*
X41350Y-27250D01*
X43950Y-27050D02*
X43750Y-26850D01*
X44150Y-21250D02*
X43950Y-21250D01*
X41150Y-21250D02*
X41350Y-21250D01*
X41350Y-21250D02*
X41350Y-20850D01*
X41350Y-20850D02*
X43950Y-20850D01*
X43950Y-20850D02*
X43950Y-21650D01*
X43950Y-21650D02*
X41350Y-21650D01*
X41350Y-21650D02*
X41350Y-21250D01*
X43950Y-21050D02*
X43750Y-20850D01*
X44150Y-24250D02*
X43950Y-24250D01*
X41150Y-24250D02*
X41350Y-24250D01*
X41350Y-24250D02*
X41350Y-23850D01*
X41350Y-23850D02*
X43950Y-23850D01*
X43950Y-23850D02*
X43950Y-24650D01*
X43950Y-24650D02*
X41350Y-24650D01*
X41350Y-24650D02*
X41350Y-24250D01*
X43950Y-24050D02*
X43750Y-23850D01*
X19300Y-10550D02*
X19500Y-10550D01*
X22300Y-10550D02*
X22100Y-10550D01*
X22100Y-10550D02*
X22100Y-10950D01*
X22100Y-10950D02*
X19500Y-10950D01*
X19500Y-10950D02*
X19500Y-10150D01*
X19500Y-10150D02*
X22100Y-10150D01*
X22100Y-10150D02*
X22100Y-10550D01*
X19500Y-10750D02*
X19700Y-10950D01*
X19300Y-11350D02*
X19500Y-11350D01*
X22300Y-11350D02*
X22100Y-11350D01*
X22100Y-11350D02*
X22100Y-11750D01*
X22100Y-11750D02*
X19500Y-11750D01*
X19500Y-11750D02*
X19500Y-10950D01*
X19500Y-10950D02*
X22100Y-10950D01*
X22100Y-10950D02*
X22100Y-11350D01*
X19500Y-11550D02*
X19700Y-11750D01*
X19300Y-12150D02*
X19500Y-12150D01*
X22300Y-12150D02*
X22100Y-12150D01*
X22100Y-12150D02*
X22100Y-12550D01*
X22100Y-12550D02*
X19500Y-12550D01*
X19500Y-12550D02*
X19500Y-11750D01*
X19500Y-11750D02*
X22100Y-11750D01*
X22100Y-11750D02*
X22100Y-12150D01*
X19500Y-12350D02*
X19700Y-12550D01*
X36100Y-19200D02*
X36300Y-19200D01*
X39100Y-19200D02*
X38900Y-19200D01*
X38900Y-19200D02*
X38900Y-19600D01*
X38900Y-19600D02*
X36300Y-19600D01*
X36300Y-19600D02*
X36300Y-18800D01*
X36300Y-18800D02*
X38900Y-18800D01*
X38900Y-18800D02*
X38900Y-19200D01*
X36300Y-19400D02*
X36500Y-19600D01*
X12450Y-10550D02*
X12650Y-10550D01*
X15450Y-10550D02*
X15250Y-10550D01*
X15250Y-10550D02*
X15250Y-10950D01*
X15250Y-10950D02*
X12650Y-10950D01*
X12650Y-10950D02*
X12650Y-10150D01*
X12650Y-10150D02*
X15250Y-10150D01*
X15250Y-10150D02*
X15250Y-10550D01*
X12650Y-10750D02*
X12850Y-10950D01*
X12450Y-11350D02*
X12650Y-11350D01*
X15450Y-11350D02*
X15250Y-11350D01*
X15250Y-11350D02*
X15250Y-11750D01*
X15250Y-11750D02*
X12650Y-11750D01*
X12650Y-11750D02*
X12650Y-10950D01*
X12650Y-10950D02*
X15250Y-10950D01*
X15250Y-10950D02*
X15250Y-11350D01*
X12650Y-11550D02*
X12850Y-11750D01*
X12450Y-12150D02*
X12650Y-12150D01*
X15450Y-12150D02*
X15250Y-12150D01*
X15250Y-12150D02*
X15250Y-12550D01*
X15250Y-12550D02*
X12650Y-12550D01*
X12650Y-12550D02*
X12650Y-11750D01*
X12650Y-11750D02*
X15250Y-11750D01*
X15250Y-11750D02*
X15250Y-12150D01*
X12650Y-12350D02*
X12850Y-12550D01*
G54D13*
X29957Y-17266D02*
X29642Y-17266D01*
X29957Y-15533D02*
X29642Y-15533D01*
X29642Y-17266D02*
G75*
G02X28776Y-16400I0J866D01*
G74*
G01*
X30823Y-16400D02*
G75*
G02X29957Y-17266I-866J0D01*
G74*
G01*
X28776Y-16400D02*
G75*
G02X29642Y-15533I866J0D01*
G74*
G01*
X29957Y-15533D02*
G75*
G02X30823Y-16400I0J-866D01*
G74*
G01*
X17959Y-12688D02*
X17959Y-23711D01*
X17959Y-23711D02*
X12840Y-23711D01*
X12840Y-23711D02*
X12840Y-12688D01*
X12840Y-12688D02*
X17959Y-12688D01*
X24809Y-12688D02*
X24809Y-23711D01*
X24809Y-23711D02*
X19690Y-23711D01*
X19690Y-23711D02*
X19690Y-12688D01*
X19690Y-12688D02*
X24809Y-12688D01*
X31438Y-12750D02*
G75*
G03X31438Y-12750I-1693J0D01*
G74*
G01*
X38800Y-9994D02*
X26988Y-9994D01*
X26988Y-15505D02*
X38800Y-15505D01*
X26988Y-11568D02*
X26988Y-9994D01*
X26988Y-13931D02*
X26988Y-15505D01*
X25807Y-12750D02*
G75*
G02X26988Y-11568I1181J0D01*
G74*
G01*
X26988Y-13931D02*
G75*
G02X25807Y-12750I0J1181D01*
G74*
G01*
X38800Y-9994D02*
X38800Y-15505D01*
G54D10*
X34657Y-22776D02*
X34674Y-22827D01*
X34691Y-22844D01*
X34725Y-22861D01*
X34775Y-22861D01*
X34809Y-22844D01*
X34826Y-22827D01*
X34843Y-22793D01*
X34843Y-22658D01*
X34489Y-22658D01*
X34489Y-22776D01*
X34505Y-22810D01*
X34522Y-22827D01*
X34556Y-22844D01*
X34590Y-22844D01*
X34624Y-22827D01*
X34640Y-22810D01*
X34657Y-22776D01*
X34657Y-22658D01*
X34843Y-23012D02*
X34489Y-23012D01*
X34657Y-23012D02*
X34657Y-23215D01*
X34843Y-23215D02*
X34489Y-23215D01*
X34843Y-23569D02*
X34843Y-23367D01*
X34843Y-23468D02*
X34489Y-23468D01*
X34539Y-23434D01*
X34573Y-23401D01*
X34590Y-23367D01*
X34489Y-23687D02*
X34489Y-23924D01*
X34843Y-23772D01*
X34489Y-24227D02*
X34489Y-24059D01*
X34657Y-24042D01*
X34640Y-24059D01*
X34624Y-24092D01*
X34624Y-24177D01*
X34640Y-24210D01*
X34657Y-24227D01*
X34691Y-24244D01*
X34775Y-24244D01*
X34809Y-24227D01*
X34826Y-24210D01*
X34843Y-24177D01*
X34843Y-24092D01*
X34826Y-24059D01*
X34809Y-24042D01*
X34489Y-24464D02*
X34489Y-24497D01*
X34505Y-24531D01*
X34522Y-24548D01*
X34556Y-24565D01*
X34624Y-24582D01*
X34708Y-24582D01*
X34775Y-24565D01*
X34809Y-24548D01*
X34826Y-24531D01*
X34843Y-24497D01*
X34843Y-24464D01*
X34826Y-24430D01*
X34809Y-24413D01*
X34775Y-24396D01*
X34708Y-24379D01*
X34624Y-24379D01*
X34556Y-24396D01*
X34522Y-24413D01*
X34505Y-24430D01*
X34489Y-24464D01*
X34657Y-24852D02*
X34657Y-24733D01*
X34843Y-24733D02*
X34489Y-24733D01*
X34489Y-24902D01*
X34489Y-24987D02*
X34843Y-25105D01*
X34489Y-25223D01*
X34843Y-25341D02*
X34489Y-25341D01*
X39943Y-22110D02*
X40258Y-22185D01*
X40033Y-22245D01*
X40258Y-22305D01*
X39943Y-22380D01*
X40258Y-22545D02*
X40243Y-22515D01*
X40228Y-22500D01*
X40198Y-22485D01*
X40108Y-22485D01*
X40078Y-22500D01*
X40063Y-22515D01*
X40048Y-22545D01*
X40048Y-22590D01*
X40063Y-22620D01*
X40078Y-22635D01*
X40108Y-22650D01*
X40198Y-22650D01*
X40228Y-22635D01*
X40243Y-22620D01*
X40258Y-22590D01*
X40258Y-22545D01*
X39943Y-22515D02*
X39958Y-22530D01*
X39973Y-22515D01*
X39958Y-22500D01*
X39943Y-22515D01*
X39973Y-22515D01*
X39943Y-22635D02*
X39958Y-22650D01*
X39973Y-22635D01*
X39958Y-22620D01*
X39943Y-22635D01*
X39973Y-22635D01*
X40258Y-22785D02*
X40048Y-22785D01*
X40108Y-22785D02*
X40078Y-22800D01*
X40063Y-22815D01*
X40048Y-22845D01*
X40048Y-22875D01*
X40258Y-23115D02*
X39943Y-23115D01*
X40243Y-23115D02*
X40258Y-23085D01*
X40258Y-23025D01*
X40243Y-22995D01*
X40228Y-22980D01*
X40198Y-22965D01*
X40108Y-22965D01*
X40078Y-22980D01*
X40063Y-22995D01*
X40048Y-23025D01*
X40048Y-23085D01*
X40063Y-23115D01*
X40243Y-23399D02*
X40258Y-23369D01*
X40258Y-23309D01*
X40243Y-23279D01*
X40228Y-23264D01*
X40198Y-23250D01*
X40108Y-23250D01*
X40078Y-23264D01*
X40063Y-23279D01*
X40048Y-23309D01*
X40048Y-23369D01*
X40063Y-23399D01*
X40258Y-23579D02*
X40243Y-23549D01*
X40213Y-23534D01*
X39943Y-23534D01*
X40258Y-23744D02*
X40243Y-23714D01*
X40228Y-23699D01*
X40198Y-23684D01*
X40108Y-23684D01*
X40078Y-23699D01*
X40063Y-23714D01*
X40048Y-23744D01*
X40048Y-23789D01*
X40063Y-23819D01*
X40078Y-23834D01*
X40108Y-23849D01*
X40198Y-23849D01*
X40228Y-23834D01*
X40243Y-23819D01*
X40258Y-23789D01*
X40258Y-23744D01*
X40243Y-24119D02*
X40258Y-24089D01*
X40258Y-24029D01*
X40243Y-23999D01*
X40228Y-23984D01*
X40198Y-23969D01*
X40108Y-23969D01*
X40078Y-23984D01*
X40063Y-23999D01*
X40048Y-24029D01*
X40048Y-24089D01*
X40063Y-24119D01*
X40258Y-24254D02*
X39943Y-24254D01*
X40138Y-24284D02*
X40258Y-24374D01*
X40048Y-24374D02*
X40168Y-24254D01*
G54D19*
X25921Y-10421D02*
X25921Y-10121D01*
X25850Y-10121D01*
X25807Y-10135D01*
X25778Y-10164D01*
X25764Y-10192D01*
X25750Y-10250D01*
X25750Y-10292D01*
X25764Y-10350D01*
X25778Y-10378D01*
X25807Y-10407D01*
X25850Y-10421D01*
X25921Y-10421D01*
X25464Y-10421D02*
X25635Y-10421D01*
X25550Y-10421D02*
X25550Y-10121D01*
X25578Y-10164D01*
X25607Y-10192D01*
X25635Y-10207D01*
X25464Y-12750D02*
X25478Y-12792D01*
X25492Y-12807D01*
X25521Y-12821D01*
X25564Y-12821D01*
X25592Y-12807D01*
X25607Y-12792D01*
X25621Y-12764D01*
X25621Y-12650D01*
X25321Y-12650D01*
X25321Y-12750D01*
X25335Y-12778D01*
X25350Y-12792D01*
X25378Y-12807D01*
X25407Y-12807D01*
X25435Y-12792D01*
X25450Y-12778D01*
X25464Y-12750D01*
X25464Y-12650D01*
X25321Y-12907D02*
X25321Y-13078D01*
X25621Y-12992D02*
X25321Y-12992D01*
X25621Y-13335D02*
X25621Y-13164D01*
X25621Y-13250D02*
X25321Y-13250D01*
X25364Y-13221D01*
X25392Y-13192D01*
X25407Y-13164D01*
X25421Y-13692D02*
X25721Y-13692D01*
X25435Y-13692D02*
X25421Y-13721D01*
X25421Y-13778D01*
X25435Y-13807D01*
X25450Y-13821D01*
X25478Y-13835D01*
X25564Y-13835D01*
X25592Y-13821D01*
X25607Y-13807D01*
X25621Y-13778D01*
X25621Y-13721D01*
X25607Y-13692D01*
X25621Y-14092D02*
X25464Y-14092D01*
X25435Y-14078D01*
X25421Y-14050D01*
X25421Y-13992D01*
X25435Y-13964D01*
X25607Y-14092D02*
X25621Y-14064D01*
X25621Y-13992D01*
X25607Y-13964D01*
X25578Y-13950D01*
X25550Y-13950D01*
X25521Y-13964D01*
X25507Y-13992D01*
X25507Y-14064D01*
X25492Y-14092D01*
X25621Y-14235D02*
X25421Y-14235D01*
X25321Y-14235D02*
X25335Y-14221D01*
X25350Y-14235D01*
X25335Y-14250D01*
X25321Y-14235D01*
X25350Y-14235D01*
X25621Y-14378D02*
X25421Y-14378D01*
X25478Y-14378D02*
X25450Y-14392D01*
X25435Y-14407D01*
X25421Y-14435D01*
X25421Y-14464D01*
X25607Y-14678D02*
X25621Y-14650D01*
X25621Y-14592D01*
X25607Y-14564D01*
X25578Y-14550D01*
X25464Y-14550D01*
X25435Y-14564D01*
X25421Y-14592D01*
X25421Y-14650D01*
X25435Y-14678D01*
X25464Y-14692D01*
X25492Y-14692D01*
X25521Y-14550D01*
X25621Y-14950D02*
X25321Y-14950D01*
X25607Y-14950D02*
X25621Y-14921D01*
X25621Y-14864D01*
X25607Y-14835D01*
X25592Y-14821D01*
X25564Y-14807D01*
X25478Y-14807D01*
X25450Y-14821D01*
X25435Y-14835D01*
X25421Y-14864D01*
X25421Y-14921D01*
X25435Y-14950D01*
X19021Y-10371D02*
X19021Y-10071D01*
X18950Y-10071D01*
X18907Y-10085D01*
X18878Y-10114D01*
X18864Y-10142D01*
X18850Y-10200D01*
X18850Y-10242D01*
X18864Y-10300D01*
X18878Y-10328D01*
X18907Y-10357D01*
X18950Y-10371D01*
X19021Y-10371D01*
X18750Y-10071D02*
X18564Y-10071D01*
X18664Y-10185D01*
X18621Y-10185D01*
X18592Y-10200D01*
X18578Y-10214D01*
X18564Y-10242D01*
X18564Y-10314D01*
X18578Y-10342D01*
X18592Y-10357D01*
X18621Y-10371D01*
X18707Y-10371D01*
X18735Y-10357D01*
X18750Y-10342D01*
X18664Y-12800D02*
X18678Y-12842D01*
X18692Y-12857D01*
X18721Y-12871D01*
X18764Y-12871D01*
X18792Y-12857D01*
X18807Y-12842D01*
X18821Y-12814D01*
X18821Y-12700D01*
X18521Y-12700D01*
X18521Y-12800D01*
X18535Y-12828D01*
X18550Y-12842D01*
X18578Y-12857D01*
X18607Y-12857D01*
X18635Y-12842D01*
X18650Y-12828D01*
X18664Y-12800D01*
X18664Y-12700D01*
X18521Y-12957D02*
X18521Y-13128D01*
X18821Y-13042D02*
X18521Y-13042D01*
X18550Y-13214D02*
X18535Y-13228D01*
X18521Y-13257D01*
X18521Y-13328D01*
X18535Y-13357D01*
X18550Y-13371D01*
X18578Y-13385D01*
X18607Y-13385D01*
X18650Y-13371D01*
X18821Y-13200D01*
X18821Y-13385D01*
X18621Y-13742D02*
X18921Y-13742D01*
X18635Y-13742D02*
X18621Y-13771D01*
X18621Y-13828D01*
X18635Y-13857D01*
X18650Y-13871D01*
X18678Y-13885D01*
X18764Y-13885D01*
X18792Y-13871D01*
X18807Y-13857D01*
X18821Y-13828D01*
X18821Y-13771D01*
X18807Y-13742D01*
X18821Y-14142D02*
X18664Y-14142D01*
X18635Y-14128D01*
X18621Y-14100D01*
X18621Y-14042D01*
X18635Y-14014D01*
X18807Y-14142D02*
X18821Y-14114D01*
X18821Y-14042D01*
X18807Y-14014D01*
X18778Y-14000D01*
X18750Y-14000D01*
X18721Y-14014D01*
X18707Y-14042D01*
X18707Y-14114D01*
X18692Y-14142D01*
X18821Y-14285D02*
X18621Y-14285D01*
X18521Y-14285D02*
X18535Y-14271D01*
X18550Y-14285D01*
X18535Y-14300D01*
X18521Y-14285D01*
X18550Y-14285D01*
X18821Y-14428D02*
X18621Y-14428D01*
X18678Y-14428D02*
X18650Y-14442D01*
X18635Y-14457D01*
X18621Y-14485D01*
X18621Y-14514D01*
X18807Y-14728D02*
X18821Y-14700D01*
X18821Y-14642D01*
X18807Y-14614D01*
X18778Y-14600D01*
X18664Y-14600D01*
X18635Y-14614D01*
X18621Y-14642D01*
X18621Y-14700D01*
X18635Y-14728D01*
X18664Y-14742D01*
X18692Y-14742D01*
X18721Y-14600D01*
X18821Y-15000D02*
X18521Y-15000D01*
X18807Y-15000D02*
X18821Y-14971D01*
X18821Y-14914D01*
X18807Y-14885D01*
X18792Y-14871D01*
X18764Y-14857D01*
X18678Y-14857D01*
X18650Y-14871D01*
X18635Y-14885D01*
X18621Y-14914D01*
X18621Y-14971D01*
X18635Y-15000D01*
X24121Y-10321D02*
X24121Y-10021D01*
X24050Y-10021D01*
X24007Y-10035D01*
X23978Y-10064D01*
X23964Y-10092D01*
X23950Y-10150D01*
X23950Y-10192D01*
X23964Y-10250D01*
X23978Y-10278D01*
X24007Y-10307D01*
X24050Y-10321D01*
X24121Y-10321D01*
X23835Y-10050D02*
X23821Y-10035D01*
X23792Y-10021D01*
X23721Y-10021D01*
X23692Y-10035D01*
X23678Y-10050D01*
X23664Y-10078D01*
X23664Y-10107D01*
X23678Y-10150D01*
X23850Y-10321D01*
X23664Y-10321D01*
X25221Y-12671D02*
X25021Y-12671D01*
X25050Y-12671D02*
X25035Y-12685D01*
X25021Y-12714D01*
X25021Y-12757D01*
X25035Y-12785D01*
X25064Y-12800D01*
X25221Y-12800D01*
X25064Y-12800D02*
X25035Y-12814D01*
X25021Y-12842D01*
X25021Y-12885D01*
X25035Y-12914D01*
X25064Y-12928D01*
X25221Y-12928D01*
X25221Y-13114D02*
X25207Y-13085D01*
X25192Y-13071D01*
X25164Y-13057D01*
X25078Y-13057D01*
X25050Y-13071D01*
X25035Y-13085D01*
X25021Y-13114D01*
X25021Y-13157D01*
X25035Y-13185D01*
X25050Y-13200D01*
X25078Y-13214D01*
X25164Y-13214D01*
X25192Y-13200D01*
X25207Y-13185D01*
X25221Y-13157D01*
X25221Y-13114D01*
X25221Y-13471D02*
X24921Y-13471D01*
X25207Y-13471D02*
X25221Y-13442D01*
X25221Y-13385D01*
X25207Y-13357D01*
X25192Y-13342D01*
X25164Y-13328D01*
X25078Y-13328D01*
X25050Y-13342D01*
X25035Y-13357D01*
X25021Y-13385D01*
X25021Y-13442D01*
X25035Y-13471D01*
X25207Y-13728D02*
X25221Y-13700D01*
X25221Y-13642D01*
X25207Y-13614D01*
X25178Y-13600D01*
X25064Y-13600D01*
X25035Y-13614D01*
X25021Y-13642D01*
X25021Y-13700D01*
X25035Y-13728D01*
X25064Y-13742D01*
X25092Y-13742D01*
X25121Y-13600D01*
X17471Y-10371D02*
X17471Y-10071D01*
X17400Y-10071D01*
X17357Y-10085D01*
X17328Y-10114D01*
X17314Y-10142D01*
X17300Y-10200D01*
X17300Y-10242D01*
X17314Y-10300D01*
X17328Y-10328D01*
X17357Y-10357D01*
X17400Y-10371D01*
X17471Y-10371D01*
X17042Y-10171D02*
X17042Y-10371D01*
X17114Y-10057D02*
X17185Y-10271D01*
X17000Y-10271D01*
X18371Y-12671D02*
X18171Y-12671D01*
X18200Y-12671D02*
X18185Y-12685D01*
X18171Y-12714D01*
X18171Y-12757D01*
X18185Y-12785D01*
X18214Y-12800D01*
X18371Y-12800D01*
X18214Y-12800D02*
X18185Y-12814D01*
X18171Y-12842D01*
X18171Y-12885D01*
X18185Y-12914D01*
X18214Y-12928D01*
X18371Y-12928D01*
X18371Y-13114D02*
X18357Y-13085D01*
X18342Y-13071D01*
X18314Y-13057D01*
X18228Y-13057D01*
X18200Y-13071D01*
X18185Y-13085D01*
X18171Y-13114D01*
X18171Y-13157D01*
X18185Y-13185D01*
X18200Y-13200D01*
X18228Y-13214D01*
X18314Y-13214D01*
X18342Y-13200D01*
X18357Y-13185D01*
X18371Y-13157D01*
X18371Y-13114D01*
X18371Y-13471D02*
X18071Y-13471D01*
X18357Y-13471D02*
X18371Y-13442D01*
X18371Y-13385D01*
X18357Y-13357D01*
X18342Y-13342D01*
X18314Y-13328D01*
X18228Y-13328D01*
X18200Y-13342D01*
X18185Y-13357D01*
X18171Y-13385D01*
X18171Y-13442D01*
X18185Y-13471D01*
X18357Y-13728D02*
X18371Y-13700D01*
X18371Y-13642D01*
X18357Y-13614D01*
X18328Y-13600D01*
X18214Y-13600D01*
X18185Y-13614D01*
X18171Y-13642D01*
X18171Y-13700D01*
X18185Y-13728D01*
X18214Y-13742D01*
X18242Y-13742D01*
X18271Y-13600D01*
G54D20*
X28142Y-18950D02*
X27542Y-18950D01*
X28142Y-19578D02*
X27857Y-19378D01*
X28142Y-19235D02*
X27542Y-19235D01*
X27542Y-19464D01*
X27571Y-19521D01*
X27600Y-19550D01*
X27657Y-19578D01*
X27742Y-19578D01*
X27800Y-19550D01*
X27828Y-19521D01*
X27857Y-19464D01*
X27857Y-19235D01*
G54D18*
X30021Y-28922D02*
X30188Y-28660D01*
X30307Y-28922D02*
X30307Y-28372D01*
X30116Y-28372D01*
X30069Y-28398D01*
X30045Y-28425D01*
X30021Y-28477D01*
X30021Y-28555D01*
X30045Y-28608D01*
X30069Y-28634D01*
X30116Y-28660D01*
X30307Y-28660D01*
X29545Y-28922D02*
X29830Y-28922D01*
X29688Y-28922D02*
X29688Y-28372D01*
X29735Y-28451D01*
X29783Y-28503D01*
X29830Y-28529D01*
X29116Y-28372D02*
X29211Y-28372D01*
X29259Y-28398D01*
X29283Y-28425D01*
X29330Y-28503D01*
X29354Y-28608D01*
X29354Y-28817D01*
X29330Y-28870D01*
X29307Y-28896D01*
X29259Y-28922D01*
X29164Y-28922D01*
X29116Y-28896D01*
X29092Y-28870D01*
X29069Y-28817D01*
X29069Y-28686D01*
X29092Y-28634D01*
X29116Y-28608D01*
X29164Y-28582D01*
X29259Y-28582D01*
X29307Y-28608D01*
X29330Y-28634D01*
X29354Y-28686D01*
X30021Y-27322D02*
X30188Y-27060D01*
X30307Y-27322D02*
X30307Y-26772D01*
X30116Y-26772D01*
X30069Y-26798D01*
X30045Y-26825D01*
X30021Y-26877D01*
X30021Y-26955D01*
X30045Y-27008D01*
X30069Y-27034D01*
X30116Y-27060D01*
X30307Y-27060D01*
X29545Y-27322D02*
X29830Y-27322D01*
X29688Y-27322D02*
X29688Y-26772D01*
X29735Y-26851D01*
X29783Y-26903D01*
X29830Y-26929D01*
X29092Y-26772D02*
X29330Y-26772D01*
X29354Y-27034D01*
X29330Y-27008D01*
X29283Y-26982D01*
X29164Y-26982D01*
X29116Y-27008D01*
X29092Y-27034D01*
X29069Y-27086D01*
X29069Y-27217D01*
X29092Y-27270D01*
X29116Y-27296D01*
X29164Y-27322D01*
X29283Y-27322D01*
X29330Y-27296D01*
X29354Y-27270D01*
X30021Y-28122D02*
X30188Y-27860D01*
X30307Y-28122D02*
X30307Y-27572D01*
X30116Y-27572D01*
X30069Y-27598D01*
X30045Y-27625D01*
X30021Y-27677D01*
X30021Y-27755D01*
X30045Y-27808D01*
X30069Y-27834D01*
X30116Y-27860D01*
X30307Y-27860D01*
X29545Y-28122D02*
X29830Y-28122D01*
X29688Y-28122D02*
X29688Y-27572D01*
X29735Y-27651D01*
X29783Y-27703D01*
X29830Y-27729D01*
X29378Y-27572D02*
X29045Y-27572D01*
X29259Y-28122D01*
X42733Y-19372D02*
X42900Y-19110D01*
X43019Y-19372D02*
X43019Y-18822D01*
X42828Y-18822D01*
X42780Y-18848D01*
X42757Y-18875D01*
X42733Y-18927D01*
X42733Y-19005D01*
X42757Y-19058D01*
X42780Y-19084D01*
X42828Y-19110D01*
X43019Y-19110D01*
X42257Y-19372D02*
X42542Y-19372D01*
X42400Y-19372D02*
X42400Y-18822D01*
X42447Y-18901D01*
X42495Y-18953D01*
X42542Y-18979D01*
X42733Y-27522D02*
X42900Y-27260D01*
X43019Y-27522D02*
X43019Y-26972D01*
X42828Y-26972D01*
X42780Y-26998D01*
X42757Y-27025D01*
X42733Y-27077D01*
X42733Y-27155D01*
X42757Y-27208D01*
X42780Y-27234D01*
X42828Y-27260D01*
X43019Y-27260D01*
X42280Y-26972D02*
X42519Y-26972D01*
X42542Y-27234D01*
X42519Y-27208D01*
X42471Y-27182D01*
X42352Y-27182D01*
X42304Y-27208D01*
X42280Y-27234D01*
X42257Y-27286D01*
X42257Y-27417D01*
X42280Y-27470D01*
X42304Y-27496D01*
X42352Y-27522D01*
X42471Y-27522D01*
X42519Y-27496D01*
X42542Y-27470D01*
X42733Y-21522D02*
X42900Y-21260D01*
X43019Y-21522D02*
X43019Y-20972D01*
X42828Y-20972D01*
X42780Y-20998D01*
X42757Y-21025D01*
X42733Y-21077D01*
X42733Y-21155D01*
X42757Y-21208D01*
X42780Y-21234D01*
X42828Y-21260D01*
X43019Y-21260D01*
X42566Y-20972D02*
X42257Y-20972D01*
X42423Y-21182D01*
X42352Y-21182D01*
X42304Y-21208D01*
X42280Y-21234D01*
X42257Y-21286D01*
X42257Y-21417D01*
X42280Y-21470D01*
X42304Y-21496D01*
X42352Y-21522D01*
X42495Y-21522D01*
X42542Y-21496D01*
X42566Y-21470D01*
X42733Y-24522D02*
X42900Y-24260D01*
X43019Y-24522D02*
X43019Y-23972D01*
X42828Y-23972D01*
X42780Y-23998D01*
X42757Y-24025D01*
X42733Y-24077D01*
X42733Y-24155D01*
X42757Y-24208D01*
X42780Y-24234D01*
X42828Y-24260D01*
X43019Y-24260D01*
X42304Y-24155D02*
X42304Y-24522D01*
X42423Y-23946D02*
X42542Y-24339D01*
X42233Y-24339D01*
X20883Y-10722D02*
X21050Y-10460D01*
X21169Y-10722D02*
X21169Y-10172D01*
X20978Y-10172D01*
X20930Y-10198D01*
X20907Y-10225D01*
X20883Y-10277D01*
X20883Y-10355D01*
X20907Y-10408D01*
X20930Y-10434D01*
X20978Y-10460D01*
X21169Y-10460D01*
X20597Y-10408D02*
X20645Y-10382D01*
X20669Y-10355D01*
X20692Y-10303D01*
X20692Y-10277D01*
X20669Y-10225D01*
X20645Y-10198D01*
X20597Y-10172D01*
X20502Y-10172D01*
X20454Y-10198D01*
X20430Y-10225D01*
X20407Y-10277D01*
X20407Y-10303D01*
X20430Y-10355D01*
X20454Y-10382D01*
X20502Y-10408D01*
X20597Y-10408D01*
X20645Y-10434D01*
X20669Y-10460D01*
X20692Y-10513D01*
X20692Y-10617D01*
X20669Y-10670D01*
X20645Y-10696D01*
X20597Y-10722D01*
X20502Y-10722D01*
X20454Y-10696D01*
X20430Y-10670D01*
X20407Y-10617D01*
X20407Y-10513D01*
X20430Y-10460D01*
X20454Y-10434D01*
X20502Y-10408D01*
X20883Y-11522D02*
X21050Y-11260D01*
X21169Y-11522D02*
X21169Y-10972D01*
X20978Y-10972D01*
X20930Y-10998D01*
X20907Y-11025D01*
X20883Y-11077D01*
X20883Y-11155D01*
X20907Y-11208D01*
X20930Y-11234D01*
X20978Y-11260D01*
X21169Y-11260D01*
X20716Y-10972D02*
X20383Y-10972D01*
X20597Y-11522D01*
X20883Y-12322D02*
X21050Y-12060D01*
X21169Y-12322D02*
X21169Y-11772D01*
X20978Y-11772D01*
X20930Y-11798D01*
X20907Y-11825D01*
X20883Y-11877D01*
X20883Y-11955D01*
X20907Y-12008D01*
X20930Y-12034D01*
X20978Y-12060D01*
X21169Y-12060D01*
X20454Y-11772D02*
X20550Y-11772D01*
X20597Y-11798D01*
X20621Y-11825D01*
X20669Y-11903D01*
X20692Y-12008D01*
X20692Y-12217D01*
X20669Y-12270D01*
X20645Y-12296D01*
X20597Y-12322D01*
X20502Y-12322D01*
X20454Y-12296D01*
X20430Y-12270D01*
X20407Y-12217D01*
X20407Y-12086D01*
X20430Y-12034D01*
X20454Y-12008D01*
X20502Y-11982D01*
X20597Y-11982D01*
X20645Y-12008D01*
X20669Y-12034D01*
X20692Y-12086D01*
X37921Y-19372D02*
X38088Y-19110D01*
X38207Y-19372D02*
X38207Y-18822D01*
X38016Y-18822D01*
X37969Y-18848D01*
X37945Y-18875D01*
X37921Y-18927D01*
X37921Y-19005D01*
X37945Y-19058D01*
X37969Y-19084D01*
X38016Y-19110D01*
X38207Y-19110D01*
X37445Y-19372D02*
X37730Y-19372D01*
X37588Y-19372D02*
X37588Y-18822D01*
X37635Y-18901D01*
X37683Y-18953D01*
X37730Y-18979D01*
X37159Y-19058D02*
X37207Y-19032D01*
X37230Y-19005D01*
X37254Y-18953D01*
X37254Y-18927D01*
X37230Y-18875D01*
X37207Y-18848D01*
X37159Y-18822D01*
X37064Y-18822D01*
X37016Y-18848D01*
X36992Y-18875D01*
X36969Y-18927D01*
X36969Y-18953D01*
X36992Y-19005D01*
X37016Y-19032D01*
X37064Y-19058D01*
X37159Y-19058D01*
X37207Y-19084D01*
X37230Y-19110D01*
X37254Y-19163D01*
X37254Y-19267D01*
X37230Y-19320D01*
X37207Y-19346D01*
X37159Y-19372D01*
X37064Y-19372D01*
X37016Y-19346D01*
X36992Y-19320D01*
X36969Y-19267D01*
X36969Y-19163D01*
X36992Y-19110D01*
X37016Y-19084D01*
X37064Y-19058D01*
X14271Y-10722D02*
X14438Y-10460D01*
X14557Y-10722D02*
X14557Y-10172D01*
X14366Y-10172D01*
X14319Y-10198D01*
X14295Y-10225D01*
X14271Y-10277D01*
X14271Y-10355D01*
X14295Y-10408D01*
X14319Y-10434D01*
X14366Y-10460D01*
X14557Y-10460D01*
X13795Y-10722D02*
X14080Y-10722D01*
X13938Y-10722D02*
X13938Y-10172D01*
X13985Y-10251D01*
X14033Y-10303D01*
X14080Y-10329D01*
X13319Y-10722D02*
X13604Y-10722D01*
X13461Y-10722D02*
X13461Y-10172D01*
X13509Y-10251D01*
X13557Y-10303D01*
X13604Y-10329D01*
X14271Y-11522D02*
X14438Y-11260D01*
X14557Y-11522D02*
X14557Y-10972D01*
X14366Y-10972D01*
X14319Y-10998D01*
X14295Y-11025D01*
X14271Y-11077D01*
X14271Y-11155D01*
X14295Y-11208D01*
X14319Y-11234D01*
X14366Y-11260D01*
X14557Y-11260D01*
X13795Y-11522D02*
X14080Y-11522D01*
X13938Y-11522D02*
X13938Y-10972D01*
X13985Y-11051D01*
X14033Y-11103D01*
X14080Y-11129D01*
X13485Y-10972D02*
X13438Y-10972D01*
X13390Y-10998D01*
X13366Y-11025D01*
X13342Y-11077D01*
X13319Y-11182D01*
X13319Y-11313D01*
X13342Y-11417D01*
X13366Y-11470D01*
X13390Y-11496D01*
X13438Y-11522D01*
X13485Y-11522D01*
X13533Y-11496D01*
X13557Y-11470D01*
X13580Y-11417D01*
X13604Y-11313D01*
X13604Y-11182D01*
X13580Y-11077D01*
X13557Y-11025D01*
X13533Y-10998D01*
X13485Y-10972D01*
X14033Y-12322D02*
X14200Y-12060D01*
X14319Y-12322D02*
X14319Y-11772D01*
X14128Y-11772D01*
X14080Y-11798D01*
X14057Y-11825D01*
X14033Y-11877D01*
X14033Y-11955D01*
X14057Y-12008D01*
X14080Y-12034D01*
X14128Y-12060D01*
X14319Y-12060D01*
X13795Y-12322D02*
X13700Y-12322D01*
X13652Y-12296D01*
X13628Y-12270D01*
X13580Y-12191D01*
X13557Y-12086D01*
X13557Y-11877D01*
X13580Y-11825D01*
X13604Y-11798D01*
X13652Y-11772D01*
X13747Y-11772D01*
X13795Y-11798D01*
X13819Y-11825D01*
X13842Y-11877D01*
X13842Y-12008D01*
X13819Y-12060D01*
X13795Y-12086D01*
X13747Y-12113D01*
X13652Y-12113D01*
X13604Y-12086D01*
X13580Y-12060D01*
X13557Y-12008D01*
G54D10*
X28593Y-16155D02*
X28593Y-15986D01*
X28239Y-15986D01*
X28593Y-16273D02*
X28239Y-16273D01*
X28239Y-16357D01*
X28255Y-16408D01*
X28289Y-16442D01*
X28323Y-16459D01*
X28390Y-16475D01*
X28441Y-16475D01*
X28509Y-16459D01*
X28542Y-16442D01*
X28576Y-16408D01*
X28593Y-16357D01*
X28593Y-16273D01*
X28593Y-16830D02*
X28424Y-16712D01*
X28593Y-16627D02*
X28239Y-16627D01*
X28239Y-16762D01*
X28255Y-16796D01*
X28272Y-16813D01*
X28306Y-16830D01*
X28357Y-16830D01*
X28390Y-16813D01*
X28407Y-16796D01*
X28424Y-16762D01*
X28424Y-16627D01*
G54D20*
X12328Y-18428D02*
X12357Y-18514D01*
X12385Y-18542D01*
X12442Y-18571D01*
X12528Y-18571D01*
X12585Y-18542D01*
X12614Y-18514D01*
X12642Y-18457D01*
X12642Y-18228D01*
X12042Y-18228D01*
X12042Y-18428D01*
X12071Y-18485D01*
X12100Y-18514D01*
X12157Y-18542D01*
X12214Y-18542D01*
X12271Y-18514D01*
X12300Y-18485D01*
X12328Y-18428D01*
X12328Y-18228D01*
X12042Y-18742D02*
X12042Y-19085D01*
X12642Y-18914D02*
X12042Y-18914D01*
X12100Y-19257D02*
X12071Y-19285D01*
X12042Y-19342D01*
X12042Y-19485D01*
X12071Y-19542D01*
X12100Y-19571D01*
X12157Y-19600D01*
X12214Y-19600D01*
X12300Y-19571D01*
X12642Y-19228D01*
X12642Y-19600D01*
X12642Y-20835D02*
X12042Y-20835D01*
X12328Y-20835D02*
X12328Y-21178D01*
X12642Y-21178D02*
X12042Y-21178D01*
X12585Y-21807D02*
X12614Y-21778D01*
X12642Y-21692D01*
X12642Y-21635D01*
X12614Y-21549D01*
X12557Y-21492D01*
X12500Y-21464D01*
X12385Y-21435D01*
X12300Y-21435D01*
X12185Y-21464D01*
X12128Y-21492D01*
X12071Y-21549D01*
X12042Y-21635D01*
X12042Y-21692D01*
X12071Y-21778D01*
X12100Y-21807D01*
X12414Y-22064D02*
X12414Y-22521D01*
X12042Y-22921D02*
X12042Y-22978D01*
X12071Y-23035D01*
X12100Y-23064D01*
X12157Y-23092D01*
X12271Y-23121D01*
X12414Y-23121D01*
X12528Y-23092D01*
X12585Y-23064D01*
X12614Y-23035D01*
X12642Y-22978D01*
X12642Y-22921D01*
X12614Y-22864D01*
X12585Y-22835D01*
X12528Y-22807D01*
X12414Y-22778D01*
X12271Y-22778D01*
X12157Y-22807D01*
X12100Y-22835D01*
X12071Y-22864D01*
X12042Y-22921D01*
X12042Y-23664D02*
X12042Y-23378D01*
X12328Y-23350D01*
X12300Y-23378D01*
X12271Y-23435D01*
X12271Y-23578D01*
X12300Y-23635D01*
X12328Y-23664D01*
X12385Y-23692D01*
X12528Y-23692D01*
X12585Y-23664D01*
X12614Y-23635D01*
X12642Y-23578D01*
X12642Y-23435D01*
X12614Y-23378D01*
X12585Y-23350D01*
X19178Y-18428D02*
X19207Y-18514D01*
X19235Y-18542D01*
X19292Y-18571D01*
X19378Y-18571D01*
X19435Y-18542D01*
X19464Y-18514D01*
X19492Y-18457D01*
X19492Y-18228D01*
X18892Y-18228D01*
X18892Y-18428D01*
X18921Y-18485D01*
X18950Y-18514D01*
X19007Y-18542D01*
X19064Y-18542D01*
X19121Y-18514D01*
X19150Y-18485D01*
X19178Y-18428D01*
X19178Y-18228D01*
X18892Y-18742D02*
X18892Y-19085D01*
X19492Y-18914D02*
X18892Y-18914D01*
X19492Y-19600D02*
X19492Y-19257D01*
X19492Y-19428D02*
X18892Y-19428D01*
X18978Y-19371D01*
X19035Y-19314D01*
X19064Y-19257D01*
X19492Y-20835D02*
X18892Y-20835D01*
X19178Y-20835D02*
X19178Y-21178D01*
X19492Y-21178D02*
X18892Y-21178D01*
X19435Y-21807D02*
X19464Y-21778D01*
X19492Y-21692D01*
X19492Y-21635D01*
X19464Y-21549D01*
X19407Y-21492D01*
X19350Y-21464D01*
X19235Y-21435D01*
X19150Y-21435D01*
X19035Y-21464D01*
X18978Y-21492D01*
X18921Y-21549D01*
X18892Y-21635D01*
X18892Y-21692D01*
X18921Y-21778D01*
X18950Y-21807D01*
X19264Y-22064D02*
X19264Y-22521D01*
X18892Y-22921D02*
X18892Y-22978D01*
X18921Y-23035D01*
X18950Y-23064D01*
X19007Y-23092D01*
X19121Y-23121D01*
X19264Y-23121D01*
X19378Y-23092D01*
X19435Y-23064D01*
X19464Y-23035D01*
X19492Y-22978D01*
X19492Y-22921D01*
X19464Y-22864D01*
X19435Y-22835D01*
X19378Y-22807D01*
X19264Y-22778D01*
X19121Y-22778D01*
X19007Y-22807D01*
X18950Y-22835D01*
X18921Y-22864D01*
X18892Y-22921D01*
X18892Y-23664D02*
X18892Y-23378D01*
X19178Y-23350D01*
X19150Y-23378D01*
X19121Y-23435D01*
X19121Y-23578D01*
X19150Y-23635D01*
X19178Y-23664D01*
X19235Y-23692D01*
X19378Y-23692D01*
X19435Y-23664D01*
X19464Y-23635D01*
X19492Y-23578D01*
X19492Y-23435D01*
X19464Y-23378D01*
X19435Y-23350D01*
X39614Y-12942D02*
X39642Y-13028D01*
X39642Y-13171D01*
X39614Y-13228D01*
X39585Y-13257D01*
X39528Y-13285D01*
X39471Y-13285D01*
X39414Y-13257D01*
X39385Y-13228D01*
X39357Y-13171D01*
X39328Y-13057D01*
X39300Y-13000D01*
X39271Y-12971D01*
X39214Y-12942D01*
X39157Y-12942D01*
X39100Y-12971D01*
X39071Y-13000D01*
X39042Y-13057D01*
X39042Y-13200D01*
X39071Y-13285D01*
X39642Y-13628D02*
X39614Y-13571D01*
X39585Y-13542D01*
X39528Y-13514D01*
X39357Y-13514D01*
X39300Y-13542D01*
X39271Y-13571D01*
X39242Y-13628D01*
X39242Y-13714D01*
X39271Y-13771D01*
X39300Y-13800D01*
X39357Y-13828D01*
X39528Y-13828D01*
X39585Y-13800D01*
X39614Y-13771D01*
X39642Y-13714D01*
X39642Y-13628D01*
X39242Y-14342D02*
X39642Y-14342D01*
X39242Y-14085D02*
X39557Y-14085D01*
X39614Y-14114D01*
X39642Y-14171D01*
X39642Y-14257D01*
X39614Y-14314D01*
X39585Y-14342D01*
X39242Y-14628D02*
X39642Y-14628D01*
X39300Y-14628D02*
X39271Y-14657D01*
X39242Y-14714D01*
X39242Y-14800D01*
X39271Y-14857D01*
X39328Y-14885D01*
X39642Y-14885D01*
X39642Y-15428D02*
X39042Y-15428D01*
X39614Y-15428D02*
X39642Y-15371D01*
X39642Y-15257D01*
X39614Y-15200D01*
X39585Y-15171D01*
X39528Y-15142D01*
X39357Y-15142D01*
X39300Y-15171D01*
X39271Y-15200D01*
X39242Y-15257D01*
X39242Y-15371D01*
X39271Y-15428D01*
M02*
