G04 (created by PCBNEW (2013-jul-07)-stable) date So 23 Nov 2014 23:25:05 CET*
%MOIN*%
G04 Gerber Fmt 3.4, Leading zero omitted, Abs format*
%FSLAX34Y34*%
G01*
G70*
G90*
G04 APERTURE LIST*
%ADD10C,0.00590551*%
%ADD11C,0.015*%
%ADD12C,0.0590551*%
%ADD13C,0.11811*%
%ADD14C,0.0433*%
%ADD15C,0.063*%
%ADD16C,0.0591*%
%ADD17R,0.055X0.055*%
%ADD18C,0.055*%
%ADD19C,0.06*%
%ADD20C,0.122047*%
%ADD21C,0.0598425*%
%ADD22C,0.066*%
%ADD23C,0.118504*%
%ADD24R,0.06X0.06*%
%ADD25C,0.0433071*%
%ADD26R,0.0591X0.0394*%
%ADD27C,0.161417*%
%ADD28C,0.0220472*%
%ADD29C,0.01*%
%ADD30C,0.00669291*%
%ADD31C,0.008*%
G04 APERTURE END LIST*
G54D10*
G54D11*
X10000Y-28700D02*
X10000Y-10984D01*
X48346Y-29685D02*
X10984Y-29685D01*
X49370Y-10984D02*
X49370Y-28740D01*
X10984Y-10000D02*
X48385Y-10000D01*
X48346Y-29685D02*
G75*
G03X49370Y-28740I39J984D01*
G74*
G01*
X49370Y-10984D02*
G75*
G03X48385Y-10000I-984J0D01*
G74*
G01*
X10984Y-10000D02*
G75*
G03X10000Y-10984I0J-984D01*
G74*
G01*
X10000Y-28700D02*
G75*
G03X10984Y-29685I984J0D01*
G74*
G01*
G54D12*
X33700Y-26000D03*
X33700Y-25000D03*
X33700Y-24000D03*
X33700Y-23000D03*
X33700Y-22000D03*
G54D13*
X27950Y-22250D03*
X27950Y-25750D03*
G54D14*
X20922Y-14142D03*
G54D15*
X20922Y-22409D03*
G54D16*
X32750Y-27250D03*
X32750Y-26250D03*
X32750Y-25250D03*
X32750Y-24250D03*
X32750Y-23250D03*
X32750Y-22250D03*
X32750Y-21250D03*
X32750Y-20250D03*
X32750Y-19250D03*
X32750Y-18250D03*
X32750Y-17250D03*
X32750Y-16250D03*
X26750Y-16250D03*
X26750Y-17250D03*
X26750Y-18250D03*
X26750Y-19250D03*
X26750Y-20250D03*
X26750Y-21250D03*
X26750Y-22250D03*
X26750Y-23250D03*
X26750Y-24250D03*
X26750Y-25250D03*
X26750Y-26250D03*
X26750Y-27250D03*
X22000Y-28950D03*
X22000Y-27950D03*
X23000Y-28950D03*
X23000Y-27950D03*
X24000Y-28950D03*
X24000Y-27950D03*
X25000Y-28950D03*
X25000Y-27950D03*
G54D17*
X19800Y-27650D03*
G54D18*
X18800Y-27650D03*
X18800Y-28650D03*
G54D19*
X36893Y-29099D03*
X37893Y-29099D03*
X38893Y-29099D03*
X39893Y-29099D03*
X40893Y-29099D03*
G54D20*
X34472Y-19422D03*
X34472Y-28477D03*
G54D16*
X34100Y-16750D03*
X35100Y-16750D03*
X36100Y-16750D03*
X37100Y-16750D03*
X38950Y-15950D03*
X39950Y-15950D03*
X40950Y-15950D03*
X41950Y-15950D03*
X42950Y-15950D03*
X43950Y-15950D03*
X44950Y-15950D03*
X45950Y-15950D03*
G54D13*
X39200Y-11200D03*
G54D21*
X15750Y-29000D03*
X14750Y-29000D03*
X13750Y-29000D03*
X12750Y-29000D03*
G54D18*
X48000Y-22250D03*
X48000Y-24250D03*
X45000Y-22250D03*
X45000Y-24250D03*
X48000Y-25250D03*
X48000Y-27250D03*
X45000Y-25250D03*
X45000Y-27250D03*
X48000Y-19250D03*
X48000Y-21250D03*
X45000Y-19250D03*
X45000Y-21250D03*
G54D22*
X24800Y-10450D03*
X24800Y-11450D03*
X18050Y-10450D03*
X18050Y-11450D03*
X23200Y-10450D03*
X23200Y-11450D03*
X16450Y-10450D03*
X16450Y-11450D03*
G54D18*
X34650Y-17650D03*
X35650Y-17650D03*
X20000Y-24750D03*
X19000Y-24750D03*
X36750Y-17650D03*
X37750Y-17650D03*
G54D16*
X33743Y-17750D03*
X33743Y-18750D03*
X33743Y-20750D03*
G54D23*
X10984Y-10984D03*
X10984Y-28700D03*
X48385Y-10984D03*
X48385Y-28700D03*
G54D12*
X11237Y-22749D03*
G54D18*
X22400Y-25000D03*
X25400Y-25000D03*
X25400Y-24200D03*
X22400Y-24200D03*
X25400Y-26600D03*
X22400Y-26600D03*
X25400Y-25800D03*
X22400Y-25800D03*
X28200Y-28750D03*
X31200Y-28750D03*
X28200Y-27150D03*
X31200Y-27150D03*
X28200Y-27950D03*
X31200Y-27950D03*
X41150Y-19200D03*
X44150Y-19200D03*
X44150Y-27250D03*
X41150Y-27250D03*
X44150Y-21250D03*
X41150Y-21250D03*
X44150Y-24250D03*
X41150Y-24250D03*
X19300Y-10550D03*
X22300Y-10550D03*
X19300Y-11350D03*
X22300Y-11350D03*
X19300Y-12150D03*
X22300Y-12150D03*
X36100Y-19200D03*
X39100Y-19200D03*
X12450Y-10550D03*
X15450Y-10550D03*
X12450Y-11350D03*
X15450Y-11350D03*
X12450Y-12150D03*
X15450Y-12150D03*
X29750Y-15300D03*
X32750Y-15300D03*
G54D24*
X24200Y-12350D03*
G54D19*
X23200Y-12350D03*
G54D24*
X17450Y-12350D03*
G54D19*
X16450Y-12350D03*
G54D24*
X31750Y-14400D03*
G54D19*
X32750Y-14400D03*
G54D25*
X30469Y-16400D03*
X29130Y-16400D03*
G54D26*
X17959Y-23121D03*
X17959Y-22531D03*
X17959Y-16626D03*
X17959Y-16035D03*
X12840Y-16035D03*
X12840Y-17807D03*
X12840Y-17216D03*
X24809Y-23121D03*
X24809Y-22531D03*
X24809Y-16626D03*
X24809Y-16035D03*
X19690Y-16035D03*
X19690Y-17807D03*
X19690Y-17216D03*
G54D24*
X17450Y-24850D03*
G54D19*
X17450Y-25850D03*
X17450Y-26850D03*
G54D27*
X26988Y-12750D03*
G54D16*
X33800Y-12750D03*
X33800Y-11750D03*
X33800Y-13750D03*
G54D24*
X27700Y-15100D03*
G54D19*
X26700Y-15100D03*
G54D24*
X30700Y-11650D03*
G54D19*
X30700Y-12650D03*
X29700Y-11650D03*
X29700Y-12650D03*
X28700Y-11650D03*
X28700Y-12650D03*
G54D28*
X25400Y-18000D03*
X20750Y-18000D03*
X25100Y-18250D03*
X20400Y-18250D03*
X24550Y-18500D03*
X20050Y-18500D03*
G54D29*
X17959Y-22531D02*
X17959Y-22290D01*
X18350Y-21900D02*
X21350Y-21900D01*
X17959Y-22290D02*
X18350Y-21900D01*
X17450Y-12350D02*
X17300Y-12350D01*
X17631Y-22531D02*
X17959Y-22531D01*
X17200Y-22100D02*
X17631Y-22531D01*
X17200Y-12450D02*
X17200Y-22100D01*
X17300Y-12350D02*
X17200Y-12450D01*
X24809Y-22531D02*
X21981Y-22531D01*
X21981Y-22531D02*
X21350Y-21900D01*
X20000Y-24750D02*
X20000Y-24500D01*
X20000Y-24500D02*
X18031Y-22531D01*
G54D30*
X44150Y-19200D02*
X44950Y-19200D01*
X44950Y-19200D02*
X45000Y-19250D01*
X17450Y-26850D02*
X16500Y-26850D01*
X14750Y-28600D02*
X14750Y-29000D01*
X16500Y-26850D02*
X14750Y-28600D01*
X26750Y-18250D02*
X27200Y-18700D01*
X27200Y-23450D02*
X26900Y-23750D01*
X27200Y-18700D02*
X27200Y-23450D01*
X22400Y-25000D02*
X22750Y-25000D01*
X26900Y-23750D02*
X24000Y-23750D01*
X22750Y-25000D02*
X24000Y-23750D01*
X20750Y-18000D02*
X25400Y-18000D01*
X25000Y-27950D02*
X25000Y-28250D01*
X25100Y-28350D02*
X32200Y-28350D01*
X25000Y-28250D02*
X25100Y-28350D01*
X32750Y-27250D02*
X32750Y-27800D01*
X32750Y-27800D02*
X32200Y-28350D01*
X20400Y-18250D02*
X25100Y-18250D01*
X42950Y-15950D02*
X42950Y-26350D01*
X41500Y-27800D02*
X40193Y-27800D01*
X40193Y-27800D02*
X38893Y-29099D01*
X42950Y-26350D02*
X41500Y-27800D01*
X20050Y-18500D02*
X24550Y-18500D01*
X24809Y-16626D02*
X25926Y-16626D01*
X25926Y-16626D02*
X25950Y-16650D01*
X26150Y-16850D02*
X26150Y-20650D01*
X26150Y-20650D02*
X26750Y-21250D01*
X25203Y-16626D02*
X25926Y-16626D01*
X25926Y-16626D02*
X25950Y-16650D01*
X25950Y-16650D02*
X26150Y-16850D01*
X17959Y-16626D02*
X17959Y-18309D01*
X17959Y-18309D02*
X21200Y-21550D01*
X26750Y-22250D02*
X25800Y-22250D01*
X25800Y-22250D02*
X25100Y-21550D01*
X25100Y-21550D02*
X21200Y-21550D01*
X24809Y-16035D02*
X25535Y-16035D01*
X26300Y-16800D02*
X26300Y-19800D01*
X26300Y-19800D02*
X26750Y-20250D01*
X25203Y-16035D02*
X25535Y-16035D01*
X25535Y-16035D02*
X26300Y-16800D01*
X17959Y-16035D02*
X17615Y-16035D01*
X17550Y-18100D02*
X21150Y-21700D01*
X17550Y-16100D02*
X17550Y-18100D01*
X17615Y-16035D02*
X17550Y-16100D01*
X26750Y-23250D02*
X26600Y-23250D01*
X26600Y-23250D02*
X25050Y-21700D01*
X26750Y-23250D02*
X26733Y-23250D01*
X25050Y-21700D02*
X21150Y-21700D01*
X18900Y-11750D02*
X18900Y-16800D01*
X19316Y-17216D02*
X19690Y-17216D01*
X18900Y-16800D02*
X19316Y-17216D01*
X18900Y-11750D02*
X19300Y-11350D01*
X18900Y-14700D02*
X18900Y-11750D01*
X18900Y-14700D02*
X18900Y-14700D01*
X44150Y-24250D02*
X45000Y-24250D01*
X12840Y-17216D02*
X13184Y-17216D01*
X12750Y-11350D02*
X13250Y-11850D01*
X13250Y-11850D02*
X13250Y-17150D01*
X12750Y-11350D02*
X12450Y-11350D01*
X13184Y-17216D02*
X13250Y-17150D01*
X12840Y-17216D02*
X13084Y-17216D01*
X12450Y-10550D02*
X12750Y-10550D01*
X13193Y-17807D02*
X12840Y-17807D01*
X13400Y-17600D02*
X13193Y-17807D01*
X13400Y-11200D02*
X13400Y-17600D01*
X12750Y-10550D02*
X13400Y-11200D01*
X17450Y-25850D02*
X17800Y-25850D01*
X19300Y-28100D02*
X20700Y-29500D01*
X19300Y-27350D02*
X19300Y-28100D01*
X17800Y-25850D02*
X19300Y-27350D01*
X31300Y-29500D02*
X20700Y-29500D01*
X32750Y-18250D02*
X33000Y-18250D01*
X33250Y-18500D02*
X33250Y-27550D01*
X33000Y-18250D02*
X33250Y-18500D01*
X33250Y-27550D02*
X31300Y-29500D01*
X44150Y-21250D02*
X45000Y-21250D01*
X44150Y-27250D02*
X45000Y-27250D01*
G54D31*
X23100Y-10550D02*
X23200Y-10450D01*
X22300Y-10550D02*
X23100Y-10550D01*
G54D30*
X24800Y-10450D02*
X23850Y-10450D01*
X23850Y-10450D02*
X23400Y-10900D01*
G54D31*
X22750Y-10900D02*
X23400Y-10900D01*
X22300Y-11350D02*
X22750Y-10900D01*
X22300Y-11350D02*
X22300Y-11350D01*
X16350Y-10550D02*
X16450Y-10450D01*
X16350Y-10550D02*
X16450Y-10450D01*
X16350Y-10550D02*
X16450Y-10450D01*
X15450Y-10550D02*
X16350Y-10550D01*
G54D30*
X15450Y-11350D02*
X15450Y-11150D01*
X17100Y-10450D02*
X18050Y-10450D01*
X16650Y-10900D02*
X17100Y-10450D01*
X15700Y-10900D02*
X16650Y-10900D01*
X15450Y-11150D02*
X15700Y-10900D01*
X19300Y-12150D02*
X21400Y-12150D01*
X22800Y-12750D02*
X23200Y-12350D01*
X22000Y-12750D02*
X22800Y-12750D01*
X21400Y-12150D02*
X22000Y-12750D01*
X19300Y-12150D02*
X19300Y-12283D01*
X19335Y-16035D02*
X19690Y-16035D01*
X19050Y-15750D02*
X19335Y-16035D01*
X19050Y-12533D02*
X19050Y-15750D01*
X19300Y-12283D02*
X19050Y-12533D01*
X12450Y-12150D02*
X12750Y-12150D01*
X12750Y-12150D02*
X13110Y-12510D01*
X13110Y-12510D02*
X13110Y-15765D01*
X13110Y-15765D02*
X12840Y-16035D01*
X19690Y-17807D02*
X19307Y-17807D01*
X19307Y-17807D02*
X18750Y-17250D01*
X19300Y-10550D02*
X18750Y-11100D01*
X18750Y-11100D02*
X18750Y-17250D01*
G54D29*
X36750Y-21400D02*
X36750Y-19400D01*
X33700Y-26000D02*
X33750Y-26000D01*
X33750Y-26000D02*
X36750Y-23000D01*
X34100Y-16750D02*
X34100Y-16650D01*
X34100Y-16650D02*
X34300Y-16450D01*
X33800Y-12750D02*
X34100Y-12750D01*
X34100Y-12750D02*
X34300Y-12950D01*
X34300Y-12950D02*
X34300Y-16450D01*
X34300Y-16550D02*
X34100Y-16750D01*
X30250Y-12150D02*
X33200Y-12150D01*
X33200Y-12150D02*
X33800Y-12750D01*
X41150Y-24250D02*
X41150Y-27250D01*
X41150Y-21250D02*
X41150Y-24250D01*
X39100Y-19200D02*
X41150Y-21250D01*
X38950Y-15950D02*
X38950Y-19050D01*
X38950Y-19050D02*
X39100Y-19200D01*
X24750Y-27500D02*
X19950Y-27500D01*
X19950Y-27500D02*
X19800Y-27650D01*
X29700Y-11650D02*
X29750Y-11650D01*
X29750Y-11650D02*
X30250Y-12150D01*
X28700Y-11650D02*
X29700Y-11650D01*
X36750Y-17650D02*
X36750Y-23000D01*
X36750Y-23000D02*
X36750Y-27955D01*
X36750Y-27955D02*
X37893Y-29099D01*
X38950Y-15950D02*
X34900Y-15950D01*
X34900Y-15950D02*
X34100Y-16750D01*
X36750Y-17650D02*
X36950Y-17650D01*
X38650Y-15950D02*
X38950Y-15950D01*
X36950Y-17650D02*
X38650Y-15950D01*
X25000Y-28950D02*
X24800Y-28950D01*
X24500Y-27750D02*
X24750Y-27500D01*
X24500Y-28650D02*
X24500Y-27750D01*
X24800Y-28950D02*
X24500Y-28650D01*
X26250Y-24750D02*
X26250Y-26750D01*
X26250Y-24650D02*
X26250Y-24750D01*
X26650Y-24250D02*
X26250Y-24650D01*
X26750Y-24250D02*
X26650Y-24250D01*
X24750Y-27500D02*
X24800Y-27500D01*
X26250Y-26750D02*
X25500Y-27500D01*
X25500Y-27500D02*
X24800Y-27500D01*
X36750Y-17650D02*
X36750Y-21400D01*
G54D10*
G36*
X32107Y-28491D02*
X31241Y-29358D01*
X24403Y-29358D01*
X24403Y-28870D01*
X24342Y-28721D01*
X24229Y-28607D01*
X24080Y-28546D01*
X23920Y-28546D01*
X23771Y-28607D01*
X23657Y-28720D01*
X23596Y-28869D01*
X23596Y-29029D01*
X23657Y-29178D01*
X23770Y-29292D01*
X23919Y-29353D01*
X24079Y-29353D01*
X24228Y-29292D01*
X24342Y-29179D01*
X24403Y-29030D01*
X24403Y-28870D01*
X24403Y-29358D01*
X23403Y-29358D01*
X23403Y-28870D01*
X23342Y-28721D01*
X23229Y-28607D01*
X23080Y-28546D01*
X22920Y-28546D01*
X22771Y-28607D01*
X22657Y-28720D01*
X22596Y-28869D01*
X22596Y-29029D01*
X22657Y-29178D01*
X22770Y-29292D01*
X22919Y-29353D01*
X23079Y-29353D01*
X23228Y-29292D01*
X23342Y-29179D01*
X23403Y-29030D01*
X23403Y-28870D01*
X23403Y-29358D01*
X22453Y-29358D01*
X22403Y-29358D01*
X22403Y-28870D01*
X22342Y-28721D01*
X22229Y-28607D01*
X22171Y-28584D01*
X22171Y-28330D01*
X22000Y-28158D01*
X21828Y-28330D01*
X21866Y-28385D01*
X22043Y-28403D01*
X22133Y-28385D01*
X22171Y-28330D01*
X22171Y-28584D01*
X22080Y-28546D01*
X21920Y-28546D01*
X21791Y-28599D01*
X21771Y-28607D01*
X21657Y-28720D01*
X21596Y-28869D01*
X21596Y-29029D01*
X21657Y-29178D01*
X21770Y-29292D01*
X21919Y-29353D01*
X22079Y-29353D01*
X22228Y-29292D01*
X22342Y-29179D01*
X22403Y-29030D01*
X22403Y-28870D01*
X22403Y-29358D01*
X20758Y-29358D01*
X19441Y-28041D01*
X19441Y-27994D01*
X19463Y-28016D01*
X19503Y-28033D01*
X19546Y-28033D01*
X20096Y-28033D01*
X20136Y-28016D01*
X20166Y-27986D01*
X20183Y-27946D01*
X20183Y-27903D01*
X20183Y-27658D01*
X21648Y-27658D01*
X21562Y-27743D01*
X21606Y-27787D01*
X21564Y-27816D01*
X21546Y-27993D01*
X21564Y-28083D01*
X21619Y-28121D01*
X21791Y-27950D01*
X21774Y-27933D01*
X21983Y-27724D01*
X22000Y-27741D01*
X22016Y-27724D01*
X22225Y-27933D01*
X22208Y-27950D01*
X22380Y-28121D01*
X22435Y-28083D01*
X22453Y-27906D01*
X22435Y-27816D01*
X22393Y-27787D01*
X22437Y-27743D01*
X22351Y-27658D01*
X22720Y-27658D01*
X22657Y-27720D01*
X22596Y-27869D01*
X22596Y-28029D01*
X22657Y-28178D01*
X22770Y-28292D01*
X22919Y-28353D01*
X23079Y-28353D01*
X23228Y-28292D01*
X23342Y-28179D01*
X23403Y-28030D01*
X23403Y-27870D01*
X23342Y-27721D01*
X23279Y-27658D01*
X23720Y-27658D01*
X23657Y-27720D01*
X23596Y-27869D01*
X23596Y-28029D01*
X23657Y-28178D01*
X23770Y-28292D01*
X23919Y-28353D01*
X24079Y-28353D01*
X24228Y-28292D01*
X24341Y-28179D01*
X24341Y-28650D01*
X24353Y-28710D01*
X24388Y-28761D01*
X24596Y-28970D01*
X24596Y-29029D01*
X24657Y-29178D01*
X24770Y-29292D01*
X24919Y-29353D01*
X25079Y-29353D01*
X25228Y-29292D01*
X25342Y-29179D01*
X25403Y-29030D01*
X25403Y-28870D01*
X25342Y-28721D01*
X25229Y-28607D01*
X25080Y-28546D01*
X24920Y-28546D01*
X24771Y-28607D01*
X24726Y-28652D01*
X24658Y-28584D01*
X24658Y-28179D01*
X24770Y-28292D01*
X24895Y-28343D01*
X24899Y-28350D01*
X24999Y-28450D01*
X24999Y-28450D01*
X25045Y-28480D01*
X25100Y-28491D01*
X27916Y-28491D01*
X27875Y-28532D01*
X27816Y-28673D01*
X27816Y-28825D01*
X27874Y-28966D01*
X27982Y-29074D01*
X28123Y-29133D01*
X28275Y-29133D01*
X28416Y-29075D01*
X28524Y-28967D01*
X28583Y-28826D01*
X28583Y-28674D01*
X28525Y-28533D01*
X28483Y-28491D01*
X30916Y-28491D01*
X30875Y-28532D01*
X30816Y-28673D01*
X30816Y-28825D01*
X30874Y-28966D01*
X30982Y-29074D01*
X31123Y-29133D01*
X31275Y-29133D01*
X31416Y-29075D01*
X31524Y-28967D01*
X31583Y-28826D01*
X31583Y-28674D01*
X31525Y-28533D01*
X31483Y-28491D01*
X32107Y-28491D01*
X32107Y-28491D01*
G37*
G54D30*
X32107Y-28491D02*
X31241Y-29358D01*
X24403Y-29358D01*
X24403Y-28870D01*
X24342Y-28721D01*
X24229Y-28607D01*
X24080Y-28546D01*
X23920Y-28546D01*
X23771Y-28607D01*
X23657Y-28720D01*
X23596Y-28869D01*
X23596Y-29029D01*
X23657Y-29178D01*
X23770Y-29292D01*
X23919Y-29353D01*
X24079Y-29353D01*
X24228Y-29292D01*
X24342Y-29179D01*
X24403Y-29030D01*
X24403Y-28870D01*
X24403Y-29358D01*
X23403Y-29358D01*
X23403Y-28870D01*
X23342Y-28721D01*
X23229Y-28607D01*
X23080Y-28546D01*
X22920Y-28546D01*
X22771Y-28607D01*
X22657Y-28720D01*
X22596Y-28869D01*
X22596Y-29029D01*
X22657Y-29178D01*
X22770Y-29292D01*
X22919Y-29353D01*
X23079Y-29353D01*
X23228Y-29292D01*
X23342Y-29179D01*
X23403Y-29030D01*
X23403Y-28870D01*
X23403Y-29358D01*
X22453Y-29358D01*
X22403Y-29358D01*
X22403Y-28870D01*
X22342Y-28721D01*
X22229Y-28607D01*
X22171Y-28584D01*
X22171Y-28330D01*
X22000Y-28158D01*
X21828Y-28330D01*
X21866Y-28385D01*
X22043Y-28403D01*
X22133Y-28385D01*
X22171Y-28330D01*
X22171Y-28584D01*
X22080Y-28546D01*
X21920Y-28546D01*
X21791Y-28599D01*
X21771Y-28607D01*
X21657Y-28720D01*
X21596Y-28869D01*
X21596Y-29029D01*
X21657Y-29178D01*
X21770Y-29292D01*
X21919Y-29353D01*
X22079Y-29353D01*
X22228Y-29292D01*
X22342Y-29179D01*
X22403Y-29030D01*
X22403Y-28870D01*
X22403Y-29358D01*
X20758Y-29358D01*
X19441Y-28041D01*
X19441Y-27994D01*
X19463Y-28016D01*
X19503Y-28033D01*
X19546Y-28033D01*
X20096Y-28033D01*
X20136Y-28016D01*
X20166Y-27986D01*
X20183Y-27946D01*
X20183Y-27903D01*
X20183Y-27658D01*
X21648Y-27658D01*
X21562Y-27743D01*
X21606Y-27787D01*
X21564Y-27816D01*
X21546Y-27993D01*
X21564Y-28083D01*
X21619Y-28121D01*
X21791Y-27950D01*
X21774Y-27933D01*
X21983Y-27724D01*
X22000Y-27741D01*
X22016Y-27724D01*
X22225Y-27933D01*
X22208Y-27950D01*
X22380Y-28121D01*
X22435Y-28083D01*
X22453Y-27906D01*
X22435Y-27816D01*
X22393Y-27787D01*
X22437Y-27743D01*
X22351Y-27658D01*
X22720Y-27658D01*
X22657Y-27720D01*
X22596Y-27869D01*
X22596Y-28029D01*
X22657Y-28178D01*
X22770Y-28292D01*
X22919Y-28353D01*
X23079Y-28353D01*
X23228Y-28292D01*
X23342Y-28179D01*
X23403Y-28030D01*
X23403Y-27870D01*
X23342Y-27721D01*
X23279Y-27658D01*
X23720Y-27658D01*
X23657Y-27720D01*
X23596Y-27869D01*
X23596Y-28029D01*
X23657Y-28178D01*
X23770Y-28292D01*
X23919Y-28353D01*
X24079Y-28353D01*
X24228Y-28292D01*
X24341Y-28179D01*
X24341Y-28650D01*
X24353Y-28710D01*
X24388Y-28761D01*
X24596Y-28970D01*
X24596Y-29029D01*
X24657Y-29178D01*
X24770Y-29292D01*
X24919Y-29353D01*
X25079Y-29353D01*
X25228Y-29292D01*
X25342Y-29179D01*
X25403Y-29030D01*
X25403Y-28870D01*
X25342Y-28721D01*
X25229Y-28607D01*
X25080Y-28546D01*
X24920Y-28546D01*
X24771Y-28607D01*
X24726Y-28652D01*
X24658Y-28584D01*
X24658Y-28179D01*
X24770Y-28292D01*
X24895Y-28343D01*
X24899Y-28350D01*
X24999Y-28450D01*
X24999Y-28450D01*
X25045Y-28480D01*
X25100Y-28491D01*
X27916Y-28491D01*
X27875Y-28532D01*
X27816Y-28673D01*
X27816Y-28825D01*
X27874Y-28966D01*
X27982Y-29074D01*
X28123Y-29133D01*
X28275Y-29133D01*
X28416Y-29075D01*
X28524Y-28967D01*
X28583Y-28826D01*
X28583Y-28674D01*
X28525Y-28533D01*
X28483Y-28491D01*
X30916Y-28491D01*
X30875Y-28532D01*
X30816Y-28673D01*
X30816Y-28825D01*
X30874Y-28966D01*
X30982Y-29074D01*
X31123Y-29133D01*
X31275Y-29133D01*
X31416Y-29075D01*
X31524Y-28967D01*
X31583Y-28826D01*
X31583Y-28674D01*
X31525Y-28533D01*
X31483Y-28491D01*
X32107Y-28491D01*
G54D10*
G36*
X37797Y-29501D02*
X37351Y-29501D01*
X37351Y-29055D01*
X37333Y-28965D01*
X37279Y-28926D01*
X37105Y-29099D01*
X37279Y-29272D01*
X37333Y-29234D01*
X37351Y-29055D01*
X37351Y-29501D01*
X37054Y-29501D01*
X37066Y-29484D01*
X37066Y-28714D01*
X37028Y-28659D01*
X36849Y-28641D01*
X36759Y-28659D01*
X36720Y-28714D01*
X36893Y-28887D01*
X37066Y-28714D01*
X37066Y-29484D01*
X36893Y-29311D01*
X36720Y-29484D01*
X36732Y-29501D01*
X36681Y-29501D01*
X36681Y-29099D01*
X36508Y-28926D01*
X36453Y-28965D01*
X36435Y-29143D01*
X36453Y-29234D01*
X36508Y-29272D01*
X36681Y-29099D01*
X36681Y-29501D01*
X35191Y-29501D01*
X35191Y-28335D01*
X35081Y-28071D01*
X34879Y-27868D01*
X34615Y-27759D01*
X34330Y-27758D01*
X34065Y-27868D01*
X33863Y-28070D01*
X33754Y-28334D01*
X33753Y-28619D01*
X33862Y-28884D01*
X34064Y-29086D01*
X34328Y-29195D01*
X34614Y-29196D01*
X34878Y-29087D01*
X35081Y-28885D01*
X35190Y-28621D01*
X35191Y-28335D01*
X35191Y-29501D01*
X31498Y-29501D01*
X33350Y-27650D01*
X33350Y-27650D01*
X33370Y-27619D01*
X33380Y-27604D01*
X33380Y-27604D01*
X33391Y-27550D01*
X33391Y-27550D01*
X33391Y-26262D01*
X33471Y-26341D01*
X33619Y-26403D01*
X33779Y-26403D01*
X33928Y-26342D01*
X34041Y-26228D01*
X34103Y-26080D01*
X34103Y-25920D01*
X34089Y-25884D01*
X36591Y-23382D01*
X36591Y-27955D01*
X36603Y-28016D01*
X36638Y-28067D01*
X37515Y-28945D01*
X37485Y-29018D01*
X37485Y-29180D01*
X37547Y-29330D01*
X37662Y-29445D01*
X37797Y-29501D01*
X37797Y-29501D01*
G37*
G54D30*
X37797Y-29501D02*
X37351Y-29501D01*
X37351Y-29055D01*
X37333Y-28965D01*
X37279Y-28926D01*
X37105Y-29099D01*
X37279Y-29272D01*
X37333Y-29234D01*
X37351Y-29055D01*
X37351Y-29501D01*
X37054Y-29501D01*
X37066Y-29484D01*
X37066Y-28714D01*
X37028Y-28659D01*
X36849Y-28641D01*
X36759Y-28659D01*
X36720Y-28714D01*
X36893Y-28887D01*
X37066Y-28714D01*
X37066Y-29484D01*
X36893Y-29311D01*
X36720Y-29484D01*
X36732Y-29501D01*
X36681Y-29501D01*
X36681Y-29099D01*
X36508Y-28926D01*
X36453Y-28965D01*
X36435Y-29143D01*
X36453Y-29234D01*
X36508Y-29272D01*
X36681Y-29099D01*
X36681Y-29501D01*
X35191Y-29501D01*
X35191Y-28335D01*
X35081Y-28071D01*
X34879Y-27868D01*
X34615Y-27759D01*
X34330Y-27758D01*
X34065Y-27868D01*
X33863Y-28070D01*
X33754Y-28334D01*
X33753Y-28619D01*
X33862Y-28884D01*
X34064Y-29086D01*
X34328Y-29195D01*
X34614Y-29196D01*
X34878Y-29087D01*
X35081Y-28885D01*
X35190Y-28621D01*
X35191Y-28335D01*
X35191Y-29501D01*
X31498Y-29501D01*
X33350Y-27650D01*
X33350Y-27650D01*
X33370Y-27619D01*
X33380Y-27604D01*
X33380Y-27604D01*
X33391Y-27550D01*
X33391Y-27550D01*
X33391Y-26262D01*
X33471Y-26341D01*
X33619Y-26403D01*
X33779Y-26403D01*
X33928Y-26342D01*
X34041Y-26228D01*
X34103Y-26080D01*
X34103Y-25920D01*
X34089Y-25884D01*
X36591Y-23382D01*
X36591Y-27955D01*
X36603Y-28016D01*
X36638Y-28067D01*
X37515Y-28945D01*
X37485Y-29018D01*
X37485Y-29180D01*
X37547Y-29330D01*
X37662Y-29445D01*
X37797Y-29501D01*
G54D10*
G36*
X49186Y-28717D02*
X49110Y-29034D01*
X49086Y-29067D01*
X49086Y-28562D01*
X49086Y-10845D01*
X48980Y-10587D01*
X48783Y-10390D01*
X48525Y-10283D01*
X48247Y-10283D01*
X47989Y-10389D01*
X47792Y-10586D01*
X47685Y-10844D01*
X47684Y-11123D01*
X47791Y-11380D01*
X47988Y-11578D01*
X48245Y-11684D01*
X48524Y-11685D01*
X48782Y-11578D01*
X48979Y-11381D01*
X49086Y-11124D01*
X49086Y-10845D01*
X49086Y-28562D01*
X48980Y-28304D01*
X48783Y-28107D01*
X48525Y-28000D01*
X48383Y-27999D01*
X48383Y-27174D01*
X48383Y-25174D01*
X48383Y-24174D01*
X48383Y-22174D01*
X48383Y-21174D01*
X48383Y-19174D01*
X48325Y-19033D01*
X48217Y-18925D01*
X48076Y-18866D01*
X47924Y-18866D01*
X47783Y-18924D01*
X47675Y-19032D01*
X47616Y-19173D01*
X47616Y-19325D01*
X47674Y-19466D01*
X47782Y-19574D01*
X47923Y-19633D01*
X48075Y-19633D01*
X48216Y-19575D01*
X48324Y-19467D01*
X48383Y-19326D01*
X48383Y-19174D01*
X48383Y-21174D01*
X48325Y-21033D01*
X48217Y-20925D01*
X48076Y-20866D01*
X47924Y-20866D01*
X47783Y-20924D01*
X47675Y-21032D01*
X47616Y-21173D01*
X47616Y-21325D01*
X47674Y-21466D01*
X47782Y-21574D01*
X47923Y-21633D01*
X48075Y-21633D01*
X48216Y-21575D01*
X48324Y-21467D01*
X48383Y-21326D01*
X48383Y-21174D01*
X48383Y-22174D01*
X48325Y-22033D01*
X48217Y-21925D01*
X48076Y-21866D01*
X47924Y-21866D01*
X47783Y-21924D01*
X47675Y-22032D01*
X47616Y-22173D01*
X47616Y-22325D01*
X47674Y-22466D01*
X47782Y-22574D01*
X47923Y-22633D01*
X48075Y-22633D01*
X48216Y-22575D01*
X48324Y-22467D01*
X48383Y-22326D01*
X48383Y-22174D01*
X48383Y-24174D01*
X48325Y-24033D01*
X48217Y-23925D01*
X48076Y-23866D01*
X47924Y-23866D01*
X47783Y-23924D01*
X47675Y-24032D01*
X47616Y-24173D01*
X47616Y-24325D01*
X47674Y-24466D01*
X47782Y-24574D01*
X47923Y-24633D01*
X48075Y-24633D01*
X48216Y-24575D01*
X48324Y-24467D01*
X48383Y-24326D01*
X48383Y-24174D01*
X48383Y-25174D01*
X48325Y-25033D01*
X48217Y-24925D01*
X48076Y-24866D01*
X47924Y-24866D01*
X47783Y-24924D01*
X47675Y-25032D01*
X47616Y-25173D01*
X47616Y-25325D01*
X47674Y-25466D01*
X47782Y-25574D01*
X47923Y-25633D01*
X48075Y-25633D01*
X48216Y-25575D01*
X48324Y-25467D01*
X48383Y-25326D01*
X48383Y-25174D01*
X48383Y-27174D01*
X48325Y-27033D01*
X48217Y-26925D01*
X48076Y-26866D01*
X47924Y-26866D01*
X47783Y-26924D01*
X47675Y-27032D01*
X47616Y-27173D01*
X47616Y-27325D01*
X47674Y-27466D01*
X47782Y-27574D01*
X47923Y-27633D01*
X48075Y-27633D01*
X48216Y-27575D01*
X48324Y-27467D01*
X48383Y-27326D01*
X48383Y-27174D01*
X48383Y-27999D01*
X48247Y-27999D01*
X47989Y-28106D01*
X47792Y-28303D01*
X47685Y-28560D01*
X47684Y-28839D01*
X47791Y-29097D01*
X47988Y-29294D01*
X48245Y-29401D01*
X48524Y-29401D01*
X48782Y-29295D01*
X48979Y-29098D01*
X49086Y-28840D01*
X49086Y-28562D01*
X49086Y-29067D01*
X48927Y-29286D01*
X48662Y-29449D01*
X48332Y-29501D01*
X46353Y-29501D01*
X46353Y-15870D01*
X46292Y-15721D01*
X46179Y-15607D01*
X46030Y-15546D01*
X45870Y-15546D01*
X45721Y-15607D01*
X45607Y-15720D01*
X45546Y-15869D01*
X45546Y-16029D01*
X45607Y-16178D01*
X45720Y-16292D01*
X45869Y-16353D01*
X46029Y-16353D01*
X46178Y-16292D01*
X46292Y-16179D01*
X46353Y-16030D01*
X46353Y-15870D01*
X46353Y-29501D01*
X45383Y-29501D01*
X45383Y-27174D01*
X45383Y-25174D01*
X45383Y-24174D01*
X45383Y-22174D01*
X45383Y-21174D01*
X45383Y-19174D01*
X45353Y-19102D01*
X45353Y-15870D01*
X45292Y-15721D01*
X45179Y-15607D01*
X45030Y-15546D01*
X44870Y-15546D01*
X44721Y-15607D01*
X44607Y-15720D01*
X44546Y-15869D01*
X44546Y-16029D01*
X44607Y-16178D01*
X44720Y-16292D01*
X44869Y-16353D01*
X45029Y-16353D01*
X45178Y-16292D01*
X45292Y-16179D01*
X45353Y-16030D01*
X45353Y-15870D01*
X45353Y-19102D01*
X45325Y-19033D01*
X45217Y-18925D01*
X45076Y-18866D01*
X44924Y-18866D01*
X44783Y-18924D01*
X44675Y-19032D01*
X44664Y-19058D01*
X44506Y-19058D01*
X44475Y-18983D01*
X44367Y-18875D01*
X44353Y-18869D01*
X44353Y-15870D01*
X44292Y-15721D01*
X44179Y-15607D01*
X44030Y-15546D01*
X43870Y-15546D01*
X43721Y-15607D01*
X43607Y-15720D01*
X43546Y-15869D01*
X43546Y-16029D01*
X43607Y-16178D01*
X43720Y-16292D01*
X43869Y-16353D01*
X44029Y-16353D01*
X44178Y-16292D01*
X44292Y-16179D01*
X44353Y-16030D01*
X44353Y-15870D01*
X44353Y-18869D01*
X44226Y-18816D01*
X44074Y-18816D01*
X43933Y-18874D01*
X43825Y-18982D01*
X43766Y-19123D01*
X43766Y-19275D01*
X43824Y-19416D01*
X43932Y-19524D01*
X44073Y-19583D01*
X44225Y-19583D01*
X44366Y-19525D01*
X44474Y-19417D01*
X44506Y-19341D01*
X44623Y-19341D01*
X44674Y-19466D01*
X44782Y-19574D01*
X44923Y-19633D01*
X45075Y-19633D01*
X45216Y-19575D01*
X45324Y-19467D01*
X45383Y-19326D01*
X45383Y-19174D01*
X45383Y-21174D01*
X45325Y-21033D01*
X45217Y-20925D01*
X45076Y-20866D01*
X44924Y-20866D01*
X44783Y-20924D01*
X44675Y-21032D01*
X44643Y-21108D01*
X44506Y-21108D01*
X44475Y-21033D01*
X44367Y-20925D01*
X44226Y-20866D01*
X44074Y-20866D01*
X43933Y-20924D01*
X43825Y-21032D01*
X43766Y-21173D01*
X43766Y-21325D01*
X43824Y-21466D01*
X43932Y-21574D01*
X44073Y-21633D01*
X44225Y-21633D01*
X44366Y-21575D01*
X44474Y-21467D01*
X44506Y-21391D01*
X44643Y-21391D01*
X44674Y-21466D01*
X44782Y-21574D01*
X44923Y-21633D01*
X45075Y-21633D01*
X45216Y-21575D01*
X45324Y-21467D01*
X45383Y-21326D01*
X45383Y-21174D01*
X45383Y-22174D01*
X45325Y-22033D01*
X45217Y-21925D01*
X45076Y-21866D01*
X44924Y-21866D01*
X44783Y-21924D01*
X44675Y-22032D01*
X44616Y-22173D01*
X44616Y-22325D01*
X44674Y-22466D01*
X44782Y-22574D01*
X44923Y-22633D01*
X45075Y-22633D01*
X45216Y-22575D01*
X45324Y-22467D01*
X45383Y-22326D01*
X45383Y-22174D01*
X45383Y-24174D01*
X45325Y-24033D01*
X45217Y-23925D01*
X45076Y-23866D01*
X44924Y-23866D01*
X44783Y-23924D01*
X44675Y-24032D01*
X44643Y-24108D01*
X44506Y-24108D01*
X44475Y-24033D01*
X44367Y-23925D01*
X44226Y-23866D01*
X44074Y-23866D01*
X43933Y-23924D01*
X43825Y-24032D01*
X43766Y-24173D01*
X43766Y-24325D01*
X43824Y-24466D01*
X43932Y-24574D01*
X44073Y-24633D01*
X44225Y-24633D01*
X44366Y-24575D01*
X44474Y-24467D01*
X44506Y-24391D01*
X44643Y-24391D01*
X44674Y-24466D01*
X44782Y-24574D01*
X44923Y-24633D01*
X45075Y-24633D01*
X45216Y-24575D01*
X45324Y-24467D01*
X45383Y-24326D01*
X45383Y-24174D01*
X45383Y-25174D01*
X45325Y-25033D01*
X45217Y-24925D01*
X45076Y-24866D01*
X44924Y-24866D01*
X44783Y-24924D01*
X44675Y-25032D01*
X44616Y-25173D01*
X44616Y-25325D01*
X44674Y-25466D01*
X44782Y-25574D01*
X44923Y-25633D01*
X45075Y-25633D01*
X45216Y-25575D01*
X45324Y-25467D01*
X45383Y-25326D01*
X45383Y-25174D01*
X45383Y-27174D01*
X45325Y-27033D01*
X45217Y-26925D01*
X45076Y-26866D01*
X44924Y-26866D01*
X44783Y-26924D01*
X44675Y-27032D01*
X44643Y-27108D01*
X44506Y-27108D01*
X44475Y-27033D01*
X44367Y-26925D01*
X44226Y-26866D01*
X44074Y-26866D01*
X43933Y-26924D01*
X43825Y-27032D01*
X43766Y-27173D01*
X43766Y-27325D01*
X43824Y-27466D01*
X43932Y-27574D01*
X44073Y-27633D01*
X44225Y-27633D01*
X44366Y-27575D01*
X44474Y-27467D01*
X44506Y-27391D01*
X44643Y-27391D01*
X44674Y-27466D01*
X44782Y-27574D01*
X44923Y-27633D01*
X45075Y-27633D01*
X45216Y-27575D01*
X45324Y-27467D01*
X45383Y-27326D01*
X45383Y-27174D01*
X45383Y-29501D01*
X40989Y-29501D01*
X41124Y-29445D01*
X41239Y-29331D01*
X41301Y-29181D01*
X41302Y-29018D01*
X41240Y-28868D01*
X41125Y-28753D01*
X40975Y-28691D01*
X40812Y-28691D01*
X40662Y-28753D01*
X40547Y-28868D01*
X40485Y-29018D01*
X40485Y-29180D01*
X40547Y-29330D01*
X40662Y-29445D01*
X40797Y-29501D01*
X39989Y-29501D01*
X40124Y-29445D01*
X40239Y-29331D01*
X40301Y-29181D01*
X40302Y-29018D01*
X40240Y-28868D01*
X40125Y-28753D01*
X39975Y-28691D01*
X39812Y-28691D01*
X39662Y-28753D01*
X39547Y-28868D01*
X39485Y-29018D01*
X39485Y-29180D01*
X39547Y-29330D01*
X39662Y-29445D01*
X39797Y-29501D01*
X38989Y-29501D01*
X39124Y-29445D01*
X39239Y-29331D01*
X39301Y-29181D01*
X39302Y-29018D01*
X39264Y-28928D01*
X40252Y-27941D01*
X41500Y-27941D01*
X41500Y-27941D01*
X41554Y-27930D01*
X41600Y-27900D01*
X43050Y-26450D01*
X43050Y-26450D01*
X43070Y-26419D01*
X43080Y-26404D01*
X43080Y-26404D01*
X43091Y-26350D01*
X43091Y-26350D01*
X43091Y-16328D01*
X43178Y-16292D01*
X43292Y-16179D01*
X43353Y-16030D01*
X43353Y-15870D01*
X43292Y-15721D01*
X43179Y-15607D01*
X43030Y-15546D01*
X42870Y-15546D01*
X42721Y-15607D01*
X42607Y-15720D01*
X42546Y-15869D01*
X42546Y-16029D01*
X42607Y-16178D01*
X42720Y-16292D01*
X42808Y-16328D01*
X42808Y-26291D01*
X42353Y-26745D01*
X42353Y-15870D01*
X42292Y-15721D01*
X42179Y-15607D01*
X42030Y-15546D01*
X41870Y-15546D01*
X41721Y-15607D01*
X41607Y-15720D01*
X41546Y-15869D01*
X41546Y-16029D01*
X41607Y-16178D01*
X41720Y-16292D01*
X41869Y-16353D01*
X42029Y-16353D01*
X42178Y-16292D01*
X42292Y-16179D01*
X42353Y-16030D01*
X42353Y-15870D01*
X42353Y-26745D01*
X41583Y-27516D01*
X41583Y-19162D01*
X41564Y-19068D01*
X41510Y-19033D01*
X41403Y-19140D01*
X41403Y-15906D01*
X41385Y-15816D01*
X41330Y-15778D01*
X41158Y-15950D01*
X41330Y-16121D01*
X41385Y-16083D01*
X41403Y-15906D01*
X41403Y-19140D01*
X41344Y-19200D01*
X41510Y-19366D01*
X41564Y-19331D01*
X41583Y-19162D01*
X41583Y-27516D01*
X41441Y-27658D01*
X40193Y-27658D01*
X40139Y-27669D01*
X40123Y-27679D01*
X40093Y-27699D01*
X39064Y-28728D01*
X38975Y-28691D01*
X38812Y-28691D01*
X38662Y-28753D01*
X38547Y-28868D01*
X38485Y-29018D01*
X38485Y-29180D01*
X38547Y-29330D01*
X38662Y-29445D01*
X38797Y-29501D01*
X37989Y-29501D01*
X38124Y-29445D01*
X38239Y-29331D01*
X38301Y-29181D01*
X38302Y-29018D01*
X38240Y-28868D01*
X38183Y-28811D01*
X38183Y-17612D01*
X38164Y-17518D01*
X38110Y-17483D01*
X37944Y-17650D01*
X38110Y-17816D01*
X38164Y-17781D01*
X38183Y-17612D01*
X38183Y-28811D01*
X38125Y-28753D01*
X37975Y-28691D01*
X37916Y-28691D01*
X37916Y-18010D01*
X37750Y-17844D01*
X37583Y-18010D01*
X37618Y-18064D01*
X37787Y-18083D01*
X37881Y-18064D01*
X37916Y-18010D01*
X37916Y-28691D01*
X37812Y-28691D01*
X37739Y-28721D01*
X37555Y-28537D01*
X36908Y-27890D01*
X36908Y-23000D01*
X36908Y-21400D01*
X36908Y-19400D01*
X36908Y-17999D01*
X36966Y-17975D01*
X37074Y-17867D01*
X37133Y-17726D01*
X37133Y-17690D01*
X37346Y-17477D01*
X37367Y-17498D01*
X37335Y-17518D01*
X37316Y-17687D01*
X37335Y-17781D01*
X37389Y-17816D01*
X37555Y-17650D01*
X37531Y-17626D01*
X37726Y-17431D01*
X37750Y-17455D01*
X37916Y-17289D01*
X37881Y-17235D01*
X37712Y-17216D01*
X37618Y-17235D01*
X37598Y-17267D01*
X37577Y-17246D01*
X38626Y-16197D01*
X38720Y-16292D01*
X38791Y-16321D01*
X38791Y-18966D01*
X38775Y-18982D01*
X38716Y-19123D01*
X38716Y-19275D01*
X38774Y-19416D01*
X38882Y-19524D01*
X39023Y-19583D01*
X39175Y-19583D01*
X39235Y-19558D01*
X40791Y-21114D01*
X40766Y-21173D01*
X40766Y-21325D01*
X40824Y-21466D01*
X40932Y-21574D01*
X40991Y-21599D01*
X40991Y-23900D01*
X40933Y-23924D01*
X40825Y-24032D01*
X40766Y-24173D01*
X40766Y-24325D01*
X40824Y-24466D01*
X40932Y-24574D01*
X40991Y-24599D01*
X40991Y-26900D01*
X40933Y-26924D01*
X40825Y-27032D01*
X40766Y-27173D01*
X40766Y-27325D01*
X40824Y-27466D01*
X40932Y-27574D01*
X41073Y-27633D01*
X41225Y-27633D01*
X41366Y-27575D01*
X41474Y-27467D01*
X41533Y-27326D01*
X41533Y-27174D01*
X41475Y-27033D01*
X41367Y-26925D01*
X41308Y-26900D01*
X41308Y-24599D01*
X41366Y-24575D01*
X41474Y-24467D01*
X41533Y-24326D01*
X41533Y-24174D01*
X41475Y-24033D01*
X41367Y-23925D01*
X41308Y-23900D01*
X41308Y-21599D01*
X41366Y-21575D01*
X41474Y-21467D01*
X41533Y-21326D01*
X41533Y-21174D01*
X41475Y-21033D01*
X41367Y-20925D01*
X41316Y-20903D01*
X41316Y-19560D01*
X41316Y-18839D01*
X41281Y-18785D01*
X41121Y-18767D01*
X41121Y-16330D01*
X41121Y-15569D01*
X41083Y-15514D01*
X40906Y-15496D01*
X40816Y-15514D01*
X40778Y-15569D01*
X40950Y-15741D01*
X41121Y-15569D01*
X41121Y-16330D01*
X40950Y-16158D01*
X40778Y-16330D01*
X40816Y-16385D01*
X40993Y-16403D01*
X41083Y-16385D01*
X41121Y-16330D01*
X41121Y-18767D01*
X41112Y-18766D01*
X41018Y-18785D01*
X40983Y-18839D01*
X41150Y-19005D01*
X41316Y-18839D01*
X41316Y-19560D01*
X41150Y-19394D01*
X40983Y-19560D01*
X41018Y-19614D01*
X41187Y-19633D01*
X41281Y-19614D01*
X41316Y-19560D01*
X41316Y-20903D01*
X41226Y-20866D01*
X41074Y-20866D01*
X41014Y-20891D01*
X40955Y-20831D01*
X40955Y-19200D01*
X40789Y-19033D01*
X40741Y-19065D01*
X40741Y-15950D01*
X40569Y-15778D01*
X40514Y-15816D01*
X40496Y-15993D01*
X40514Y-16083D01*
X40569Y-16121D01*
X40741Y-15950D01*
X40741Y-19065D01*
X40735Y-19068D01*
X40716Y-19237D01*
X40735Y-19331D01*
X40789Y-19366D01*
X40955Y-19200D01*
X40955Y-20831D01*
X40353Y-20230D01*
X40353Y-15870D01*
X40292Y-15721D01*
X40179Y-15607D01*
X40030Y-15546D01*
X39898Y-15546D01*
X39898Y-11061D01*
X39792Y-10804D01*
X39596Y-10607D01*
X39339Y-10501D01*
X39061Y-10501D01*
X38804Y-10607D01*
X38607Y-10803D01*
X38501Y-11060D01*
X38501Y-11338D01*
X38607Y-11595D01*
X38803Y-11792D01*
X39060Y-11898D01*
X39338Y-11898D01*
X39595Y-11792D01*
X39792Y-11596D01*
X39898Y-11339D01*
X39898Y-11061D01*
X39898Y-15546D01*
X39870Y-15546D01*
X39721Y-15607D01*
X39607Y-15720D01*
X39546Y-15869D01*
X39546Y-16029D01*
X39607Y-16178D01*
X39720Y-16292D01*
X39869Y-16353D01*
X40029Y-16353D01*
X40178Y-16292D01*
X40292Y-16179D01*
X40353Y-16030D01*
X40353Y-15870D01*
X40353Y-20230D01*
X39458Y-19335D01*
X39483Y-19276D01*
X39483Y-19124D01*
X39425Y-18983D01*
X39317Y-18875D01*
X39176Y-18816D01*
X39108Y-18816D01*
X39108Y-16321D01*
X39178Y-16292D01*
X39292Y-16179D01*
X39353Y-16030D01*
X39353Y-15870D01*
X39292Y-15721D01*
X39179Y-15607D01*
X39030Y-15546D01*
X38870Y-15546D01*
X38721Y-15607D01*
X38607Y-15720D01*
X38578Y-15791D01*
X34900Y-15791D01*
X34839Y-15803D01*
X34788Y-15838D01*
X34788Y-15838D01*
X34788Y-15838D01*
X34458Y-16167D01*
X34458Y-12950D01*
X34446Y-12889D01*
X34411Y-12838D01*
X34253Y-12679D01*
X34253Y-11706D01*
X34235Y-11616D01*
X34180Y-11578D01*
X34008Y-11750D01*
X34180Y-11921D01*
X34235Y-11883D01*
X34253Y-11706D01*
X34253Y-12679D01*
X34211Y-12638D01*
X34182Y-12618D01*
X34142Y-12521D01*
X34029Y-12407D01*
X33971Y-12384D01*
X33971Y-12130D01*
X33971Y-11369D01*
X33933Y-11314D01*
X33756Y-11296D01*
X33666Y-11314D01*
X33628Y-11369D01*
X33800Y-11541D01*
X33971Y-11369D01*
X33971Y-12130D01*
X33800Y-11958D01*
X33628Y-12130D01*
X33666Y-12185D01*
X33843Y-12203D01*
X33933Y-12185D01*
X33971Y-12130D01*
X33971Y-12384D01*
X33880Y-12346D01*
X33720Y-12346D01*
X33649Y-12375D01*
X33591Y-12317D01*
X33591Y-11750D01*
X33419Y-11578D01*
X33364Y-11616D01*
X33346Y-11793D01*
X33364Y-11883D01*
X33419Y-11921D01*
X33591Y-11750D01*
X33591Y-12317D01*
X33311Y-12038D01*
X33260Y-12003D01*
X33200Y-11991D01*
X31099Y-11991D01*
X31108Y-11971D01*
X31108Y-11928D01*
X31108Y-11328D01*
X31091Y-11288D01*
X31061Y-11258D01*
X31021Y-11241D01*
X30978Y-11241D01*
X30378Y-11241D01*
X30338Y-11258D01*
X30308Y-11288D01*
X30291Y-11328D01*
X30291Y-11371D01*
X30291Y-11967D01*
X30092Y-11768D01*
X30108Y-11731D01*
X30108Y-11569D01*
X30046Y-11419D01*
X29931Y-11304D01*
X29781Y-11241D01*
X29619Y-11241D01*
X29469Y-11303D01*
X29354Y-11418D01*
X29323Y-11491D01*
X29076Y-11491D01*
X29046Y-11419D01*
X28931Y-11304D01*
X28781Y-11241D01*
X28619Y-11241D01*
X28469Y-11303D01*
X28354Y-11418D01*
X28291Y-11568D01*
X28291Y-11730D01*
X28353Y-11880D01*
X28468Y-11995D01*
X28618Y-12058D01*
X28780Y-12058D01*
X28930Y-11996D01*
X29045Y-11881D01*
X29076Y-11808D01*
X29323Y-11808D01*
X29353Y-11880D01*
X29468Y-11995D01*
X29618Y-12058D01*
X29780Y-12058D01*
X29889Y-12013D01*
X30138Y-12261D01*
X30189Y-12296D01*
X30250Y-12308D01*
X30464Y-12308D01*
X30354Y-12418D01*
X30291Y-12568D01*
X30291Y-12730D01*
X30353Y-12880D01*
X30468Y-12995D01*
X30618Y-13058D01*
X30780Y-13058D01*
X30930Y-12996D01*
X31045Y-12881D01*
X31108Y-12731D01*
X31108Y-12569D01*
X31046Y-12419D01*
X30935Y-12308D01*
X33134Y-12308D01*
X33425Y-12599D01*
X33396Y-12669D01*
X33396Y-12829D01*
X33457Y-12978D01*
X33570Y-13092D01*
X33719Y-13153D01*
X33879Y-13153D01*
X34028Y-13092D01*
X34123Y-12997D01*
X34141Y-13015D01*
X34141Y-13520D01*
X34029Y-13407D01*
X33880Y-13346D01*
X33720Y-13346D01*
X33571Y-13407D01*
X33457Y-13520D01*
X33396Y-13669D01*
X33396Y-13829D01*
X33457Y-13978D01*
X33570Y-14092D01*
X33719Y-14153D01*
X33879Y-14153D01*
X34028Y-14092D01*
X34141Y-13979D01*
X34141Y-16346D01*
X34020Y-16346D01*
X33871Y-16407D01*
X33757Y-16520D01*
X33696Y-16669D01*
X33696Y-16829D01*
X33757Y-16978D01*
X33870Y-17092D01*
X34019Y-17153D01*
X34179Y-17153D01*
X34328Y-17092D01*
X34442Y-16979D01*
X34503Y-16830D01*
X34503Y-16670D01*
X34474Y-16599D01*
X34965Y-16108D01*
X38267Y-16108D01*
X37540Y-16835D01*
X37553Y-16706D01*
X37535Y-16616D01*
X37480Y-16578D01*
X37308Y-16750D01*
X37325Y-16766D01*
X37271Y-16820D01*
X37271Y-16369D01*
X37233Y-16314D01*
X37056Y-16296D01*
X36966Y-16314D01*
X36928Y-16369D01*
X37100Y-16541D01*
X37271Y-16369D01*
X37271Y-16820D01*
X37116Y-16975D01*
X37100Y-16958D01*
X36928Y-17130D01*
X36966Y-17185D01*
X37143Y-17203D01*
X37179Y-17196D01*
X37009Y-17367D01*
X36967Y-17325D01*
X36891Y-17293D01*
X36891Y-16750D01*
X36719Y-16578D01*
X36664Y-16616D01*
X36646Y-16793D01*
X36664Y-16883D01*
X36719Y-16921D01*
X36891Y-16750D01*
X36891Y-17293D01*
X36826Y-17266D01*
X36674Y-17266D01*
X36533Y-17324D01*
X36503Y-17354D01*
X36503Y-16670D01*
X36442Y-16521D01*
X36329Y-16407D01*
X36180Y-16346D01*
X36020Y-16346D01*
X35871Y-16407D01*
X35757Y-16520D01*
X35696Y-16669D01*
X35696Y-16829D01*
X35757Y-16978D01*
X35870Y-17092D01*
X36019Y-17153D01*
X36179Y-17153D01*
X36328Y-17092D01*
X36442Y-16979D01*
X36503Y-16830D01*
X36503Y-16670D01*
X36503Y-17354D01*
X36425Y-17432D01*
X36366Y-17573D01*
X36366Y-17725D01*
X36424Y-17866D01*
X36532Y-17974D01*
X36591Y-17999D01*
X36591Y-19400D01*
X36591Y-21400D01*
X36591Y-22934D01*
X36483Y-23042D01*
X36483Y-19124D01*
X36425Y-18983D01*
X36317Y-18875D01*
X36176Y-18816D01*
X36083Y-18816D01*
X36083Y-17612D01*
X36064Y-17518D01*
X36010Y-17483D01*
X35844Y-17650D01*
X36010Y-17816D01*
X36064Y-17781D01*
X36083Y-17612D01*
X36083Y-18816D01*
X36024Y-18816D01*
X35883Y-18874D01*
X35816Y-18941D01*
X35816Y-18010D01*
X35816Y-17289D01*
X35781Y-17235D01*
X35612Y-17216D01*
X35518Y-17235D01*
X35503Y-17258D01*
X35503Y-16670D01*
X35442Y-16521D01*
X35329Y-16407D01*
X35180Y-16346D01*
X35020Y-16346D01*
X34871Y-16407D01*
X34757Y-16520D01*
X34696Y-16669D01*
X34696Y-16829D01*
X34757Y-16978D01*
X34870Y-17092D01*
X35019Y-17153D01*
X35179Y-17153D01*
X35328Y-17092D01*
X35442Y-16979D01*
X35503Y-16830D01*
X35503Y-16670D01*
X35503Y-17258D01*
X35483Y-17289D01*
X35650Y-17455D01*
X35816Y-17289D01*
X35816Y-18010D01*
X35650Y-17844D01*
X35483Y-18010D01*
X35518Y-18064D01*
X35687Y-18083D01*
X35781Y-18064D01*
X35816Y-18010D01*
X35816Y-18941D01*
X35775Y-18982D01*
X35716Y-19123D01*
X35716Y-19275D01*
X35774Y-19416D01*
X35882Y-19524D01*
X36023Y-19583D01*
X36175Y-19583D01*
X36316Y-19525D01*
X36424Y-19417D01*
X36483Y-19276D01*
X36483Y-19124D01*
X36483Y-23042D01*
X35455Y-24070D01*
X35455Y-17650D01*
X35289Y-17483D01*
X35235Y-17518D01*
X35216Y-17687D01*
X35235Y-17781D01*
X35289Y-17816D01*
X35455Y-17650D01*
X35455Y-24070D01*
X34153Y-25372D01*
X34153Y-24957D01*
X34153Y-21957D01*
X34135Y-21866D01*
X34080Y-21828D01*
X33908Y-22000D01*
X34080Y-22171D01*
X34135Y-22133D01*
X34153Y-21957D01*
X34153Y-24957D01*
X34135Y-24866D01*
X34080Y-24828D01*
X33908Y-25000D01*
X34080Y-25171D01*
X34135Y-25133D01*
X34153Y-24957D01*
X34153Y-25372D01*
X33885Y-25640D01*
X33871Y-25634D01*
X33780Y-25596D01*
X33620Y-25596D01*
X33471Y-25657D01*
X33391Y-25737D01*
X33391Y-25334D01*
X33493Y-25437D01*
X33537Y-25393D01*
X33566Y-25435D01*
X33742Y-25453D01*
X33833Y-25435D01*
X33871Y-25380D01*
X33700Y-25208D01*
X33683Y-25225D01*
X33474Y-25016D01*
X33491Y-25000D01*
X33474Y-24983D01*
X33683Y-24774D01*
X33700Y-24791D01*
X33871Y-24619D01*
X33833Y-24564D01*
X33657Y-24546D01*
X33566Y-24564D01*
X33537Y-24606D01*
X33493Y-24562D01*
X33391Y-24665D01*
X33391Y-24262D01*
X33471Y-24341D01*
X33619Y-24403D01*
X33779Y-24403D01*
X33928Y-24342D01*
X34041Y-24228D01*
X34103Y-24080D01*
X34103Y-23920D01*
X34042Y-23771D01*
X33928Y-23658D01*
X33780Y-23596D01*
X33620Y-23596D01*
X33471Y-23657D01*
X33391Y-23737D01*
X33391Y-23262D01*
X33471Y-23341D01*
X33619Y-23403D01*
X33779Y-23403D01*
X33928Y-23342D01*
X34041Y-23228D01*
X34103Y-23080D01*
X34103Y-22920D01*
X34042Y-22771D01*
X33928Y-22658D01*
X33871Y-22634D01*
X33780Y-22596D01*
X33620Y-22596D01*
X33471Y-22657D01*
X33391Y-22737D01*
X33391Y-22334D01*
X33493Y-22437D01*
X33537Y-22393D01*
X33566Y-22435D01*
X33742Y-22453D01*
X33833Y-22435D01*
X33871Y-22380D01*
X33700Y-22208D01*
X33683Y-22225D01*
X33474Y-22016D01*
X33491Y-22000D01*
X33474Y-21983D01*
X33683Y-21774D01*
X33700Y-21791D01*
X33871Y-21619D01*
X33833Y-21564D01*
X33657Y-21546D01*
X33566Y-21564D01*
X33537Y-21606D01*
X33493Y-21562D01*
X33391Y-21665D01*
X33391Y-20956D01*
X33400Y-20978D01*
X33514Y-21092D01*
X33662Y-21153D01*
X33823Y-21153D01*
X33971Y-21092D01*
X34085Y-20979D01*
X34147Y-20830D01*
X34147Y-20670D01*
X34085Y-20521D01*
X33972Y-20407D01*
X33823Y-20346D01*
X33663Y-20346D01*
X33514Y-20407D01*
X33401Y-20520D01*
X33391Y-20543D01*
X33391Y-18956D01*
X33400Y-18978D01*
X33514Y-19092D01*
X33662Y-19153D01*
X33805Y-19153D01*
X33754Y-19278D01*
X33753Y-19564D01*
X33862Y-19828D01*
X34064Y-20031D01*
X34328Y-20140D01*
X34614Y-20141D01*
X34878Y-20031D01*
X35081Y-19829D01*
X35190Y-19565D01*
X35191Y-19280D01*
X35081Y-19015D01*
X35033Y-18967D01*
X35033Y-17574D01*
X34975Y-17433D01*
X34867Y-17325D01*
X34726Y-17266D01*
X34574Y-17266D01*
X34433Y-17324D01*
X34325Y-17432D01*
X34266Y-17573D01*
X34266Y-17725D01*
X34324Y-17866D01*
X34432Y-17974D01*
X34573Y-18033D01*
X34725Y-18033D01*
X34866Y-17975D01*
X34974Y-17867D01*
X35033Y-17726D01*
X35033Y-17574D01*
X35033Y-18967D01*
X34879Y-18813D01*
X34615Y-18704D01*
X34330Y-18703D01*
X34196Y-18758D01*
X34196Y-17706D01*
X34178Y-17616D01*
X34124Y-17578D01*
X33952Y-17750D01*
X34124Y-17921D01*
X34178Y-17883D01*
X34196Y-17706D01*
X34196Y-18758D01*
X34147Y-18779D01*
X34147Y-18670D01*
X34085Y-18521D01*
X33972Y-18407D01*
X33915Y-18384D01*
X33915Y-18130D01*
X33915Y-17369D01*
X33877Y-17314D01*
X33700Y-17296D01*
X33609Y-17314D01*
X33571Y-17369D01*
X33743Y-17541D01*
X33915Y-17369D01*
X33915Y-18130D01*
X33743Y-17958D01*
X33571Y-18130D01*
X33609Y-18185D01*
X33786Y-18203D01*
X33877Y-18185D01*
X33915Y-18130D01*
X33915Y-18384D01*
X33823Y-18346D01*
X33663Y-18346D01*
X33534Y-18399D01*
X33534Y-17750D01*
X33362Y-17578D01*
X33307Y-17616D01*
X33289Y-17793D01*
X33307Y-17883D01*
X33362Y-17921D01*
X33534Y-17750D01*
X33534Y-18399D01*
X33514Y-18407D01*
X33401Y-18520D01*
X33391Y-18543D01*
X33391Y-18500D01*
X33380Y-18445D01*
X33380Y-18445D01*
X33370Y-18430D01*
X33350Y-18399D01*
X33350Y-18399D01*
X33158Y-18207D01*
X33158Y-14319D01*
X33096Y-14169D01*
X32981Y-14054D01*
X32831Y-13991D01*
X32669Y-13991D01*
X32519Y-14053D01*
X32404Y-14168D01*
X32341Y-14318D01*
X32341Y-14480D01*
X32403Y-14630D01*
X32518Y-14745D01*
X32668Y-14808D01*
X32830Y-14808D01*
X32980Y-14746D01*
X33095Y-14631D01*
X33158Y-14481D01*
X33158Y-14319D01*
X33158Y-18207D01*
X33153Y-18203D01*
X33153Y-18170D01*
X33153Y-17170D01*
X33153Y-16170D01*
X33133Y-16120D01*
X33133Y-15224D01*
X33075Y-15083D01*
X32967Y-14975D01*
X32826Y-14916D01*
X32674Y-14916D01*
X32533Y-14974D01*
X32425Y-15082D01*
X32366Y-15223D01*
X32366Y-15375D01*
X32424Y-15516D01*
X32532Y-15624D01*
X32673Y-15683D01*
X32825Y-15683D01*
X32966Y-15625D01*
X33074Y-15517D01*
X33133Y-15376D01*
X33133Y-15224D01*
X33133Y-16120D01*
X33092Y-16021D01*
X32979Y-15907D01*
X32830Y-15846D01*
X32670Y-15846D01*
X32521Y-15907D01*
X32407Y-16020D01*
X32346Y-16169D01*
X32346Y-16329D01*
X32407Y-16478D01*
X32520Y-16592D01*
X32669Y-16653D01*
X32829Y-16653D01*
X32978Y-16592D01*
X33092Y-16479D01*
X33153Y-16330D01*
X33153Y-16170D01*
X33153Y-17170D01*
X33092Y-17021D01*
X32979Y-16907D01*
X32830Y-16846D01*
X32670Y-16846D01*
X32521Y-16907D01*
X32407Y-17020D01*
X32346Y-17169D01*
X32346Y-17329D01*
X32407Y-17478D01*
X32520Y-17592D01*
X32669Y-17653D01*
X32829Y-17653D01*
X32978Y-17592D01*
X33092Y-17479D01*
X33153Y-17330D01*
X33153Y-17170D01*
X33153Y-18170D01*
X33092Y-18021D01*
X32979Y-17907D01*
X32830Y-17846D01*
X32670Y-17846D01*
X32521Y-17907D01*
X32407Y-18020D01*
X32346Y-18169D01*
X32346Y-18329D01*
X32407Y-18478D01*
X32520Y-18592D01*
X32669Y-18653D01*
X32829Y-18653D01*
X32978Y-18592D01*
X33060Y-18510D01*
X33108Y-18558D01*
X33108Y-19059D01*
X33092Y-19021D01*
X32979Y-18907D01*
X32830Y-18846D01*
X32670Y-18846D01*
X32521Y-18907D01*
X32407Y-19020D01*
X32346Y-19169D01*
X32346Y-19329D01*
X32407Y-19478D01*
X32520Y-19592D01*
X32669Y-19653D01*
X32829Y-19653D01*
X32978Y-19592D01*
X33092Y-19479D01*
X33108Y-19440D01*
X33108Y-20059D01*
X33092Y-20021D01*
X32979Y-19907D01*
X32830Y-19846D01*
X32670Y-19846D01*
X32521Y-19907D01*
X32407Y-20020D01*
X32346Y-20169D01*
X32346Y-20329D01*
X32407Y-20478D01*
X32520Y-20592D01*
X32669Y-20653D01*
X32829Y-20653D01*
X32978Y-20592D01*
X33092Y-20479D01*
X33108Y-20440D01*
X33108Y-21059D01*
X33092Y-21021D01*
X32979Y-20907D01*
X32830Y-20846D01*
X32670Y-20846D01*
X32521Y-20907D01*
X32407Y-21020D01*
X32346Y-21169D01*
X32346Y-21329D01*
X32407Y-21478D01*
X32520Y-21592D01*
X32669Y-21653D01*
X32829Y-21653D01*
X32978Y-21592D01*
X33092Y-21479D01*
X33108Y-21440D01*
X33108Y-22059D01*
X33092Y-22021D01*
X32979Y-21907D01*
X32830Y-21846D01*
X32670Y-21846D01*
X32521Y-21907D01*
X32407Y-22020D01*
X32346Y-22169D01*
X32346Y-22329D01*
X32407Y-22478D01*
X32520Y-22592D01*
X32669Y-22653D01*
X32829Y-22653D01*
X32978Y-22592D01*
X33092Y-22479D01*
X33108Y-22440D01*
X33108Y-23059D01*
X33092Y-23021D01*
X32979Y-22907D01*
X32830Y-22846D01*
X32670Y-22846D01*
X32521Y-22907D01*
X32407Y-23020D01*
X32346Y-23169D01*
X32346Y-23329D01*
X32407Y-23478D01*
X32520Y-23592D01*
X32669Y-23653D01*
X32829Y-23653D01*
X32978Y-23592D01*
X33092Y-23479D01*
X33108Y-23440D01*
X33108Y-24100D01*
X32958Y-24250D01*
X33108Y-24399D01*
X33108Y-25100D01*
X32958Y-25250D01*
X33108Y-25399D01*
X33108Y-26059D01*
X33092Y-26021D01*
X32979Y-25907D01*
X32921Y-25884D01*
X32921Y-25630D01*
X32921Y-24869D01*
X32921Y-24630D01*
X32921Y-23869D01*
X32883Y-23814D01*
X32706Y-23796D01*
X32616Y-23814D01*
X32578Y-23869D01*
X32750Y-24041D01*
X32921Y-23869D01*
X32921Y-24630D01*
X32750Y-24458D01*
X32578Y-24630D01*
X32616Y-24685D01*
X32793Y-24703D01*
X32883Y-24685D01*
X32921Y-24630D01*
X32921Y-24869D01*
X32883Y-24814D01*
X32706Y-24796D01*
X32616Y-24814D01*
X32578Y-24869D01*
X32750Y-25041D01*
X32921Y-24869D01*
X32921Y-25630D01*
X32750Y-25458D01*
X32578Y-25630D01*
X32616Y-25685D01*
X32793Y-25703D01*
X32883Y-25685D01*
X32921Y-25630D01*
X32921Y-25884D01*
X32830Y-25846D01*
X32670Y-25846D01*
X32541Y-25899D01*
X32541Y-25250D01*
X32541Y-24250D01*
X32369Y-24078D01*
X32314Y-24116D01*
X32296Y-24293D01*
X32314Y-24383D01*
X32369Y-24421D01*
X32541Y-24250D01*
X32541Y-25250D01*
X32369Y-25078D01*
X32314Y-25116D01*
X32296Y-25293D01*
X32314Y-25383D01*
X32369Y-25421D01*
X32541Y-25250D01*
X32541Y-25899D01*
X32521Y-25907D01*
X32407Y-26020D01*
X32346Y-26169D01*
X32346Y-26329D01*
X32407Y-26478D01*
X32520Y-26592D01*
X32669Y-26653D01*
X32829Y-26653D01*
X32978Y-26592D01*
X33092Y-26479D01*
X33108Y-26440D01*
X33108Y-27059D01*
X33092Y-27021D01*
X32979Y-26907D01*
X32830Y-26846D01*
X32670Y-26846D01*
X32521Y-26907D01*
X32407Y-27020D01*
X32346Y-27169D01*
X32346Y-27329D01*
X32407Y-27478D01*
X32520Y-27592D01*
X32608Y-27628D01*
X32608Y-27741D01*
X32158Y-28191D01*
X32158Y-14678D01*
X32158Y-14078D01*
X32141Y-14038D01*
X32111Y-14008D01*
X32071Y-13991D01*
X32028Y-13991D01*
X31428Y-13991D01*
X31388Y-14008D01*
X31358Y-14038D01*
X31341Y-14078D01*
X31341Y-14121D01*
X31341Y-14721D01*
X31358Y-14761D01*
X31388Y-14791D01*
X31428Y-14808D01*
X31471Y-14808D01*
X32071Y-14808D01*
X32111Y-14791D01*
X32141Y-14761D01*
X32158Y-14721D01*
X32158Y-14678D01*
X32158Y-28191D01*
X32141Y-28208D01*
X31483Y-28208D01*
X31524Y-28167D01*
X31583Y-28026D01*
X31583Y-27874D01*
X31583Y-27074D01*
X31525Y-26933D01*
X31417Y-26825D01*
X31276Y-26766D01*
X31124Y-26766D01*
X30983Y-26824D01*
X30875Y-26932D01*
X30816Y-27073D01*
X30816Y-27225D01*
X30874Y-27366D01*
X30982Y-27474D01*
X31123Y-27533D01*
X31275Y-27533D01*
X31416Y-27475D01*
X31524Y-27367D01*
X31583Y-27226D01*
X31583Y-27074D01*
X31583Y-27874D01*
X31525Y-27733D01*
X31417Y-27625D01*
X31276Y-27566D01*
X31124Y-27566D01*
X30983Y-27624D01*
X30875Y-27732D01*
X30816Y-27873D01*
X30816Y-28025D01*
X30874Y-28166D01*
X30916Y-28208D01*
X30794Y-28208D01*
X30794Y-16335D01*
X30744Y-16216D01*
X30653Y-16124D01*
X30534Y-16075D01*
X30404Y-16075D01*
X30285Y-16124D01*
X30194Y-16215D01*
X30158Y-16302D01*
X30158Y-12605D01*
X30140Y-12515D01*
X30085Y-12476D01*
X29912Y-12650D01*
X30085Y-12823D01*
X30140Y-12784D01*
X30158Y-12605D01*
X30158Y-16302D01*
X30144Y-16335D01*
X30144Y-16464D01*
X30193Y-16583D01*
X30285Y-16675D01*
X30404Y-16724D01*
X30533Y-16724D01*
X30653Y-16675D01*
X30744Y-16584D01*
X30794Y-16464D01*
X30794Y-16335D01*
X30794Y-28208D01*
X30133Y-28208D01*
X30133Y-15224D01*
X30075Y-15083D01*
X29967Y-14975D01*
X29873Y-14936D01*
X29873Y-13035D01*
X29873Y-12264D01*
X29834Y-12209D01*
X29655Y-12191D01*
X29565Y-12209D01*
X29526Y-12264D01*
X29700Y-12437D01*
X29873Y-12264D01*
X29873Y-13035D01*
X29700Y-12862D01*
X29526Y-13035D01*
X29565Y-13090D01*
X29744Y-13108D01*
X29834Y-13090D01*
X29873Y-13035D01*
X29873Y-14936D01*
X29826Y-14916D01*
X29674Y-14916D01*
X29533Y-14974D01*
X29487Y-15020D01*
X29487Y-12650D01*
X29314Y-12476D01*
X29259Y-12515D01*
X29241Y-12694D01*
X29259Y-12784D01*
X29314Y-12823D01*
X29487Y-12650D01*
X29487Y-15020D01*
X29425Y-15082D01*
X29366Y-15223D01*
X29366Y-15375D01*
X29424Y-15516D01*
X29532Y-15624D01*
X29673Y-15683D01*
X29825Y-15683D01*
X29966Y-15625D01*
X30074Y-15517D01*
X30133Y-15376D01*
X30133Y-15224D01*
X30133Y-28208D01*
X29455Y-28208D01*
X29455Y-16335D01*
X29406Y-16216D01*
X29314Y-16124D01*
X29195Y-16075D01*
X29158Y-16075D01*
X29158Y-12605D01*
X29140Y-12515D01*
X29085Y-12476D01*
X28912Y-12650D01*
X29085Y-12823D01*
X29140Y-12784D01*
X29158Y-12605D01*
X29158Y-16075D01*
X29066Y-16075D01*
X28946Y-16124D01*
X28873Y-16198D01*
X28873Y-13035D01*
X28873Y-12264D01*
X28834Y-12209D01*
X28655Y-12191D01*
X28565Y-12209D01*
X28526Y-12264D01*
X28700Y-12437D01*
X28873Y-12264D01*
X28873Y-13035D01*
X28700Y-12862D01*
X28526Y-13035D01*
X28565Y-13090D01*
X28744Y-13108D01*
X28834Y-13090D01*
X28873Y-13035D01*
X28873Y-16198D01*
X28855Y-16215D01*
X28805Y-16335D01*
X28805Y-16464D01*
X28855Y-16583D01*
X28946Y-16675D01*
X29065Y-16724D01*
X29195Y-16724D01*
X29314Y-16675D01*
X29405Y-16584D01*
X29455Y-16464D01*
X29455Y-16335D01*
X29455Y-28208D01*
X28648Y-28208D01*
X28648Y-25611D01*
X28542Y-25354D01*
X28346Y-25157D01*
X28089Y-25051D01*
X27811Y-25051D01*
X27554Y-25157D01*
X27357Y-25353D01*
X27251Y-25610D01*
X27251Y-25888D01*
X27357Y-26145D01*
X27553Y-26342D01*
X27810Y-26448D01*
X28088Y-26448D01*
X28345Y-26342D01*
X28542Y-26146D01*
X28648Y-25889D01*
X28648Y-25611D01*
X28648Y-28208D01*
X28483Y-28208D01*
X28524Y-28167D01*
X28583Y-28026D01*
X28583Y-27874D01*
X28583Y-27074D01*
X28525Y-26933D01*
X28417Y-26825D01*
X28276Y-26766D01*
X28124Y-26766D01*
X27983Y-26824D01*
X27875Y-26932D01*
X27816Y-27073D01*
X27816Y-27225D01*
X27874Y-27366D01*
X27982Y-27474D01*
X28123Y-27533D01*
X28275Y-27533D01*
X28416Y-27475D01*
X28524Y-27367D01*
X28583Y-27226D01*
X28583Y-27074D01*
X28583Y-27874D01*
X28525Y-27733D01*
X28417Y-27625D01*
X28276Y-27566D01*
X28124Y-27566D01*
X27983Y-27624D01*
X27875Y-27732D01*
X27816Y-27873D01*
X27816Y-28025D01*
X27874Y-28166D01*
X27916Y-28208D01*
X27203Y-28208D01*
X27203Y-26206D01*
X27185Y-26116D01*
X27130Y-26078D01*
X26958Y-26250D01*
X27130Y-26421D01*
X27185Y-26383D01*
X27203Y-26206D01*
X27203Y-28208D01*
X27153Y-28208D01*
X27153Y-27170D01*
X27092Y-27021D01*
X26979Y-26907D01*
X26921Y-26884D01*
X26921Y-26630D01*
X26921Y-25869D01*
X26883Y-25814D01*
X26706Y-25796D01*
X26616Y-25814D01*
X26578Y-25869D01*
X26750Y-26041D01*
X26921Y-25869D01*
X26921Y-26630D01*
X26750Y-26458D01*
X26578Y-26630D01*
X26616Y-26685D01*
X26793Y-26703D01*
X26883Y-26685D01*
X26921Y-26630D01*
X26921Y-26884D01*
X26830Y-26846D01*
X26670Y-26846D01*
X26521Y-26907D01*
X26407Y-27020D01*
X26346Y-27169D01*
X26346Y-27329D01*
X26407Y-27478D01*
X26520Y-27592D01*
X26669Y-27653D01*
X26829Y-27653D01*
X26978Y-27592D01*
X27092Y-27479D01*
X27153Y-27330D01*
X27153Y-27170D01*
X27153Y-28208D01*
X25312Y-28208D01*
X25342Y-28179D01*
X25403Y-28030D01*
X25403Y-27870D01*
X25342Y-27721D01*
X25279Y-27658D01*
X25500Y-27658D01*
X25560Y-27646D01*
X25611Y-27611D01*
X26361Y-26861D01*
X26361Y-26861D01*
X26361Y-26861D01*
X26396Y-26810D01*
X26396Y-26810D01*
X26406Y-26760D01*
X26408Y-26750D01*
X26408Y-26750D01*
X26408Y-26750D01*
X26408Y-26382D01*
X26541Y-26250D01*
X26408Y-26117D01*
X26408Y-25479D01*
X26520Y-25592D01*
X26669Y-25653D01*
X26829Y-25653D01*
X26978Y-25592D01*
X27092Y-25479D01*
X27153Y-25330D01*
X27153Y-25170D01*
X27092Y-25021D01*
X26979Y-24907D01*
X26830Y-24846D01*
X26670Y-24846D01*
X26521Y-24907D01*
X26408Y-25020D01*
X26408Y-24750D01*
X26408Y-24715D01*
X26528Y-24595D01*
X26669Y-24653D01*
X26829Y-24653D01*
X26978Y-24592D01*
X27092Y-24479D01*
X27153Y-24330D01*
X27153Y-24170D01*
X27092Y-24021D01*
X26979Y-23907D01*
X26927Y-23886D01*
X26954Y-23880D01*
X27000Y-23850D01*
X27300Y-23550D01*
X27300Y-23550D01*
X27320Y-23519D01*
X27330Y-23504D01*
X27330Y-23504D01*
X27341Y-23450D01*
X27341Y-23450D01*
X27341Y-22607D01*
X27357Y-22645D01*
X27553Y-22842D01*
X27810Y-22948D01*
X28088Y-22948D01*
X28345Y-22842D01*
X28542Y-22646D01*
X28648Y-22389D01*
X28648Y-22111D01*
X28542Y-21854D01*
X28487Y-21799D01*
X28487Y-12650D01*
X28314Y-12476D01*
X28259Y-12515D01*
X28241Y-12694D01*
X28259Y-12784D01*
X28314Y-12823D01*
X28487Y-12650D01*
X28487Y-21799D01*
X28346Y-21657D01*
X28108Y-21559D01*
X28108Y-15378D01*
X28108Y-14778D01*
X28091Y-14738D01*
X28061Y-14708D01*
X28021Y-14691D01*
X27978Y-14691D01*
X27904Y-14691D01*
X27904Y-12568D01*
X27765Y-12232D01*
X27508Y-11974D01*
X27171Y-11834D01*
X26807Y-11834D01*
X26471Y-11973D01*
X26213Y-12230D01*
X26073Y-12567D01*
X26073Y-12931D01*
X26212Y-13267D01*
X26469Y-13525D01*
X26806Y-13665D01*
X27170Y-13665D01*
X27506Y-13526D01*
X27764Y-13269D01*
X27904Y-12932D01*
X27904Y-12568D01*
X27904Y-14691D01*
X27378Y-14691D01*
X27338Y-14708D01*
X27308Y-14738D01*
X27291Y-14778D01*
X27291Y-14821D01*
X27291Y-15421D01*
X27308Y-15461D01*
X27338Y-15491D01*
X27378Y-15508D01*
X27421Y-15508D01*
X28021Y-15508D01*
X28061Y-15491D01*
X28091Y-15461D01*
X28108Y-15421D01*
X28108Y-15378D01*
X28108Y-21559D01*
X28089Y-21551D01*
X27811Y-21551D01*
X27554Y-21657D01*
X27357Y-21853D01*
X27341Y-21892D01*
X27341Y-18700D01*
X27330Y-18645D01*
X27300Y-18599D01*
X27300Y-18599D01*
X27117Y-18417D01*
X27153Y-18330D01*
X27153Y-18170D01*
X27092Y-18021D01*
X26979Y-17907D01*
X26830Y-17846D01*
X26670Y-17846D01*
X26521Y-17907D01*
X26441Y-17987D01*
X26441Y-17512D01*
X26520Y-17592D01*
X26669Y-17653D01*
X26829Y-17653D01*
X26978Y-17592D01*
X27092Y-17479D01*
X27153Y-17330D01*
X27153Y-17170D01*
X27153Y-16170D01*
X27108Y-16059D01*
X27108Y-15019D01*
X27046Y-14869D01*
X26931Y-14754D01*
X26781Y-14691D01*
X26619Y-14691D01*
X26469Y-14753D01*
X26354Y-14868D01*
X26291Y-15018D01*
X26291Y-15180D01*
X26353Y-15330D01*
X26468Y-15445D01*
X26618Y-15508D01*
X26780Y-15508D01*
X26930Y-15446D01*
X27045Y-15331D01*
X27108Y-15181D01*
X27108Y-15019D01*
X27108Y-16059D01*
X27092Y-16021D01*
X26979Y-15907D01*
X26830Y-15846D01*
X26670Y-15846D01*
X26521Y-15907D01*
X26407Y-16020D01*
X26346Y-16169D01*
X26346Y-16329D01*
X26407Y-16478D01*
X26520Y-16592D01*
X26669Y-16653D01*
X26829Y-16653D01*
X26978Y-16592D01*
X27092Y-16479D01*
X27153Y-16330D01*
X27153Y-16170D01*
X27153Y-17170D01*
X27092Y-17021D01*
X26979Y-16907D01*
X26830Y-16846D01*
X26670Y-16846D01*
X26521Y-16907D01*
X26441Y-16987D01*
X26441Y-16800D01*
X26432Y-16754D01*
X26430Y-16745D01*
X26430Y-16745D01*
X26400Y-16699D01*
X26400Y-16699D01*
X25635Y-15934D01*
X25589Y-15904D01*
X25535Y-15893D01*
X25288Y-15893D01*
X25288Y-11399D01*
X25270Y-11310D01*
X25214Y-11266D01*
X25031Y-11450D01*
X25214Y-11633D01*
X25270Y-11589D01*
X25288Y-11399D01*
X25288Y-15893D01*
X25212Y-15893D01*
X25212Y-15816D01*
X25196Y-15776D01*
X25165Y-15746D01*
X25126Y-15729D01*
X25083Y-15729D01*
X24983Y-15729D01*
X24983Y-11864D01*
X24983Y-11035D01*
X24939Y-10979D01*
X24749Y-10961D01*
X24660Y-10979D01*
X24616Y-11035D01*
X24800Y-11218D01*
X24983Y-11035D01*
X24983Y-11864D01*
X24800Y-11681D01*
X24616Y-11864D01*
X24660Y-11920D01*
X24850Y-11938D01*
X24939Y-11920D01*
X24983Y-11864D01*
X24983Y-15729D01*
X24608Y-15729D01*
X24608Y-12628D01*
X24608Y-12028D01*
X24591Y-11988D01*
X24568Y-11965D01*
X24568Y-11450D01*
X24385Y-11266D01*
X24329Y-11310D01*
X24311Y-11500D01*
X24329Y-11589D01*
X24385Y-11633D01*
X24568Y-11450D01*
X24568Y-11965D01*
X24561Y-11958D01*
X24521Y-11941D01*
X24478Y-11941D01*
X23878Y-11941D01*
X23838Y-11958D01*
X23808Y-11988D01*
X23791Y-12028D01*
X23791Y-12071D01*
X23791Y-12671D01*
X23808Y-12711D01*
X23838Y-12741D01*
X23878Y-12758D01*
X23921Y-12758D01*
X24521Y-12758D01*
X24561Y-12741D01*
X24591Y-12711D01*
X24608Y-12671D01*
X24608Y-12628D01*
X24608Y-15729D01*
X24492Y-15729D01*
X24452Y-15746D01*
X24421Y-15776D01*
X24405Y-15816D01*
X24405Y-15859D01*
X24405Y-16253D01*
X24421Y-16293D01*
X24452Y-16323D01*
X24468Y-16330D01*
X24452Y-16337D01*
X24421Y-16367D01*
X24405Y-16407D01*
X24405Y-16450D01*
X24405Y-16844D01*
X24421Y-16884D01*
X24452Y-16914D01*
X24491Y-16931D01*
X24534Y-16931D01*
X25125Y-16931D01*
X25165Y-16914D01*
X25196Y-16884D01*
X25212Y-16844D01*
X25212Y-16801D01*
X25212Y-16767D01*
X25867Y-16767D01*
X26008Y-16908D01*
X26008Y-20650D01*
X26019Y-20704D01*
X26049Y-20750D01*
X26382Y-21082D01*
X26346Y-21169D01*
X26346Y-21329D01*
X26407Y-21478D01*
X26520Y-21592D01*
X26669Y-21653D01*
X26829Y-21653D01*
X26978Y-21592D01*
X27058Y-21512D01*
X27058Y-21987D01*
X26979Y-21907D01*
X26830Y-21846D01*
X26670Y-21846D01*
X26521Y-21907D01*
X26407Y-22020D01*
X26371Y-22108D01*
X25858Y-22108D01*
X25618Y-21868D01*
X25618Y-17956D01*
X25585Y-17876D01*
X25523Y-17814D01*
X25443Y-17781D01*
X25356Y-17781D01*
X25276Y-17814D01*
X25232Y-17858D01*
X23688Y-17858D01*
X23688Y-11399D01*
X23670Y-11310D01*
X23614Y-11266D01*
X23431Y-11450D01*
X23614Y-11633D01*
X23670Y-11589D01*
X23688Y-11399D01*
X23688Y-17858D01*
X21246Y-17858D01*
X21246Y-14077D01*
X21197Y-13958D01*
X21106Y-13866D01*
X20986Y-13817D01*
X20857Y-13817D01*
X20738Y-13866D01*
X20646Y-13957D01*
X20597Y-14077D01*
X20597Y-14206D01*
X20646Y-14325D01*
X20737Y-14417D01*
X20857Y-14466D01*
X20986Y-14466D01*
X21105Y-14417D01*
X21197Y-14326D01*
X21246Y-14206D01*
X21246Y-14077D01*
X21246Y-17858D01*
X20917Y-17858D01*
X20873Y-17814D01*
X20793Y-17781D01*
X20706Y-17781D01*
X20626Y-17814D01*
X20564Y-17876D01*
X20531Y-17956D01*
X20531Y-18043D01*
X20551Y-18092D01*
X20523Y-18064D01*
X20443Y-18031D01*
X20356Y-18031D01*
X20276Y-18064D01*
X20214Y-18126D01*
X20181Y-18206D01*
X20181Y-18293D01*
X20201Y-18342D01*
X20173Y-18314D01*
X20093Y-18281D01*
X20006Y-18281D01*
X19926Y-18314D01*
X19864Y-18376D01*
X19831Y-18456D01*
X19831Y-18543D01*
X19864Y-18623D01*
X19926Y-18685D01*
X20006Y-18718D01*
X20093Y-18718D01*
X20173Y-18685D01*
X20217Y-18641D01*
X24382Y-18641D01*
X24426Y-18685D01*
X24506Y-18718D01*
X24593Y-18718D01*
X24673Y-18685D01*
X24735Y-18623D01*
X24768Y-18543D01*
X24768Y-18456D01*
X24741Y-18391D01*
X24932Y-18391D01*
X24976Y-18435D01*
X25056Y-18468D01*
X25143Y-18468D01*
X25223Y-18435D01*
X25285Y-18373D01*
X25318Y-18293D01*
X25318Y-18206D01*
X25316Y-18201D01*
X25356Y-18218D01*
X25443Y-18218D01*
X25523Y-18185D01*
X25585Y-18123D01*
X25618Y-18043D01*
X25618Y-17956D01*
X25618Y-21868D01*
X25200Y-21449D01*
X25154Y-21419D01*
X25100Y-21408D01*
X21258Y-21408D01*
X18538Y-18687D01*
X18538Y-11399D01*
X18520Y-11310D01*
X18464Y-11266D01*
X18281Y-11450D01*
X18464Y-11633D01*
X18520Y-11589D01*
X18538Y-11399D01*
X18538Y-18687D01*
X18100Y-18250D01*
X18100Y-16931D01*
X18275Y-16931D01*
X18315Y-16914D01*
X18346Y-16884D01*
X18362Y-16844D01*
X18362Y-16801D01*
X18362Y-16407D01*
X18346Y-16367D01*
X18315Y-16337D01*
X18299Y-16330D01*
X18315Y-16323D01*
X18346Y-16293D01*
X18362Y-16253D01*
X18362Y-16210D01*
X18362Y-15816D01*
X18346Y-15776D01*
X18315Y-15746D01*
X18276Y-15729D01*
X18233Y-15729D01*
X18233Y-11864D01*
X18233Y-11035D01*
X18189Y-10979D01*
X17999Y-10961D01*
X17910Y-10979D01*
X17866Y-11035D01*
X18050Y-11218D01*
X18233Y-11035D01*
X18233Y-11864D01*
X18050Y-11681D01*
X17866Y-11864D01*
X17910Y-11920D01*
X18100Y-11938D01*
X18189Y-11920D01*
X18233Y-11864D01*
X18233Y-15729D01*
X18233Y-15729D01*
X17642Y-15729D01*
X17602Y-15746D01*
X17571Y-15776D01*
X17555Y-15816D01*
X17555Y-15859D01*
X17555Y-15907D01*
X17545Y-15914D01*
X17514Y-15934D01*
X17449Y-15999D01*
X17419Y-16045D01*
X17408Y-16100D01*
X17408Y-18100D01*
X17419Y-18154D01*
X17449Y-18200D01*
X20991Y-21741D01*
X18350Y-21741D01*
X18289Y-21753D01*
X18238Y-21788D01*
X17847Y-22179D01*
X17815Y-22225D01*
X17642Y-22225D01*
X17602Y-22242D01*
X17584Y-22260D01*
X17358Y-22034D01*
X17358Y-12758D01*
X17771Y-12758D01*
X17811Y-12741D01*
X17841Y-12711D01*
X17858Y-12671D01*
X17858Y-12628D01*
X17858Y-12028D01*
X17841Y-11988D01*
X17818Y-11965D01*
X17818Y-11450D01*
X17635Y-11266D01*
X17579Y-11310D01*
X17561Y-11500D01*
X17579Y-11589D01*
X17635Y-11633D01*
X17818Y-11450D01*
X17818Y-11965D01*
X17811Y-11958D01*
X17771Y-11941D01*
X17728Y-11941D01*
X17128Y-11941D01*
X17088Y-11958D01*
X17058Y-11988D01*
X17041Y-12028D01*
X17041Y-12071D01*
X17041Y-12671D01*
X17041Y-12671D01*
X17041Y-22100D01*
X17053Y-22160D01*
X17088Y-22211D01*
X17519Y-22642D01*
X17555Y-22667D01*
X17555Y-22749D01*
X17571Y-22789D01*
X17577Y-22795D01*
X17577Y-22795D01*
X17535Y-22838D01*
X17512Y-22893D01*
X17512Y-22953D01*
X17512Y-22984D01*
X17549Y-23022D01*
X17811Y-23022D01*
X17811Y-22949D01*
X18106Y-22949D01*
X18106Y-23022D01*
X18130Y-23022D01*
X18130Y-23219D01*
X18106Y-23219D01*
X18106Y-23431D01*
X18144Y-23469D01*
X18284Y-23469D01*
X18340Y-23446D01*
X18382Y-23403D01*
X18405Y-23348D01*
X18406Y-23288D01*
X18406Y-23257D01*
X18406Y-23129D01*
X19742Y-24465D01*
X19675Y-24532D01*
X19616Y-24673D01*
X19616Y-24825D01*
X19674Y-24966D01*
X19782Y-25074D01*
X19923Y-25133D01*
X20075Y-25133D01*
X20216Y-25075D01*
X20324Y-24967D01*
X20383Y-24826D01*
X20383Y-24674D01*
X20325Y-24533D01*
X20217Y-24425D01*
X20100Y-24376D01*
X18362Y-22639D01*
X18362Y-22312D01*
X18346Y-22272D01*
X18315Y-22242D01*
X18276Y-22225D01*
X18248Y-22225D01*
X18415Y-22058D01*
X20674Y-22058D01*
X20563Y-22168D01*
X20498Y-22324D01*
X20498Y-22492D01*
X20562Y-22648D01*
X20681Y-22767D01*
X20837Y-22832D01*
X21005Y-22832D01*
X21161Y-22768D01*
X21280Y-22649D01*
X21345Y-22493D01*
X21345Y-22325D01*
X21281Y-22169D01*
X21169Y-22058D01*
X21284Y-22058D01*
X21869Y-22642D01*
X21869Y-22642D01*
X21920Y-22677D01*
X21981Y-22689D01*
X24405Y-22689D01*
X24405Y-22749D01*
X24421Y-22789D01*
X24427Y-22795D01*
X24427Y-22795D01*
X24385Y-22838D01*
X24362Y-22893D01*
X24362Y-22953D01*
X24362Y-22984D01*
X24399Y-23022D01*
X24661Y-23022D01*
X24661Y-22949D01*
X24956Y-22949D01*
X24956Y-23022D01*
X25218Y-23022D01*
X25256Y-22984D01*
X25256Y-22953D01*
X25255Y-22893D01*
X25232Y-22838D01*
X25190Y-22795D01*
X25190Y-22795D01*
X25196Y-22789D01*
X25212Y-22749D01*
X25212Y-22706D01*
X25212Y-22312D01*
X25196Y-22272D01*
X25165Y-22242D01*
X25126Y-22225D01*
X25083Y-22225D01*
X24492Y-22225D01*
X24452Y-22242D01*
X24421Y-22272D01*
X24405Y-22312D01*
X24405Y-22355D01*
X24405Y-22372D01*
X22046Y-22372D01*
X21515Y-21841D01*
X24991Y-21841D01*
X26346Y-23196D01*
X26346Y-23329D01*
X26407Y-23478D01*
X26520Y-23592D01*
X26559Y-23608D01*
X25256Y-23608D01*
X25256Y-23288D01*
X25256Y-23257D01*
X25218Y-23219D01*
X24956Y-23219D01*
X24956Y-23431D01*
X24994Y-23469D01*
X25134Y-23469D01*
X25190Y-23446D01*
X25232Y-23403D01*
X25255Y-23348D01*
X25256Y-23288D01*
X25256Y-23608D01*
X24661Y-23608D01*
X24661Y-23431D01*
X24661Y-23219D01*
X24399Y-23219D01*
X24362Y-23257D01*
X24362Y-23288D01*
X24362Y-23348D01*
X24385Y-23403D01*
X24427Y-23446D01*
X24483Y-23469D01*
X24623Y-23469D01*
X24661Y-23431D01*
X24661Y-23608D01*
X24000Y-23608D01*
X23945Y-23619D01*
X23899Y-23649D01*
X22783Y-24766D01*
X22783Y-24124D01*
X22725Y-23983D01*
X22617Y-23875D01*
X22476Y-23816D01*
X22324Y-23816D01*
X22183Y-23874D01*
X22075Y-23982D01*
X22016Y-24123D01*
X22016Y-24275D01*
X22074Y-24416D01*
X22182Y-24524D01*
X22323Y-24583D01*
X22475Y-24583D01*
X22616Y-24525D01*
X22724Y-24417D01*
X22783Y-24276D01*
X22783Y-24124D01*
X22783Y-24766D01*
X22737Y-24812D01*
X22725Y-24783D01*
X22617Y-24675D01*
X22476Y-24616D01*
X22324Y-24616D01*
X22183Y-24674D01*
X22075Y-24782D01*
X22016Y-24923D01*
X22016Y-25075D01*
X22074Y-25216D01*
X22182Y-25324D01*
X22323Y-25383D01*
X22475Y-25383D01*
X22616Y-25325D01*
X22724Y-25217D01*
X22756Y-25140D01*
X22804Y-25130D01*
X22850Y-25100D01*
X24058Y-23891D01*
X25286Y-23891D01*
X25400Y-24005D01*
X25513Y-23891D01*
X26559Y-23891D01*
X26521Y-23907D01*
X26407Y-24020D01*
X26346Y-24169D01*
X26346Y-24329D01*
X26346Y-24329D01*
X26138Y-24538D01*
X26103Y-24589D01*
X26091Y-24650D01*
X26091Y-24750D01*
X26091Y-26684D01*
X25833Y-26942D01*
X25833Y-26562D01*
X25833Y-25762D01*
X25833Y-24962D01*
X25833Y-24162D01*
X25814Y-24068D01*
X25760Y-24033D01*
X25594Y-24200D01*
X25760Y-24366D01*
X25814Y-24331D01*
X25833Y-24162D01*
X25833Y-24962D01*
X25814Y-24868D01*
X25760Y-24833D01*
X25594Y-25000D01*
X25760Y-25166D01*
X25814Y-25131D01*
X25833Y-24962D01*
X25833Y-25762D01*
X25814Y-25668D01*
X25760Y-25633D01*
X25594Y-25800D01*
X25760Y-25966D01*
X25814Y-25931D01*
X25833Y-25762D01*
X25833Y-26562D01*
X25814Y-26468D01*
X25760Y-26433D01*
X25594Y-26600D01*
X25760Y-26766D01*
X25814Y-26731D01*
X25833Y-26562D01*
X25833Y-26942D01*
X25566Y-27210D01*
X25566Y-26960D01*
X25566Y-26239D01*
X25540Y-26200D01*
X25566Y-26160D01*
X25566Y-25439D01*
X25540Y-25400D01*
X25566Y-25360D01*
X25566Y-24639D01*
X25540Y-24600D01*
X25566Y-24560D01*
X25400Y-24394D01*
X25233Y-24560D01*
X25259Y-24600D01*
X25233Y-24639D01*
X25400Y-24805D01*
X25566Y-24639D01*
X25566Y-25360D01*
X25400Y-25194D01*
X25233Y-25360D01*
X25259Y-25400D01*
X25233Y-25439D01*
X25400Y-25605D01*
X25566Y-25439D01*
X25566Y-26160D01*
X25400Y-25994D01*
X25233Y-26160D01*
X25259Y-26200D01*
X25233Y-26239D01*
X25400Y-26405D01*
X25566Y-26239D01*
X25566Y-26960D01*
X25400Y-26794D01*
X25233Y-26960D01*
X25268Y-27014D01*
X25437Y-27033D01*
X25531Y-27014D01*
X25566Y-26960D01*
X25566Y-27210D01*
X25434Y-27341D01*
X25205Y-27341D01*
X25205Y-26600D01*
X25205Y-25800D01*
X25205Y-25000D01*
X25205Y-24200D01*
X25039Y-24033D01*
X24985Y-24068D01*
X24966Y-24237D01*
X24985Y-24331D01*
X25039Y-24366D01*
X25205Y-24200D01*
X25205Y-25000D01*
X25039Y-24833D01*
X24985Y-24868D01*
X24966Y-25037D01*
X24985Y-25131D01*
X25039Y-25166D01*
X25205Y-25000D01*
X25205Y-25800D01*
X25039Y-25633D01*
X24985Y-25668D01*
X24966Y-25837D01*
X24985Y-25931D01*
X25039Y-25966D01*
X25205Y-25800D01*
X25205Y-26600D01*
X25039Y-26433D01*
X24985Y-26468D01*
X24966Y-26637D01*
X24985Y-26731D01*
X25039Y-26766D01*
X25205Y-26600D01*
X25205Y-27341D01*
X24800Y-27341D01*
X24750Y-27341D01*
X22783Y-27341D01*
X22783Y-26524D01*
X22783Y-25724D01*
X22725Y-25583D01*
X22617Y-25475D01*
X22476Y-25416D01*
X22324Y-25416D01*
X22183Y-25474D01*
X22075Y-25582D01*
X22016Y-25723D01*
X22016Y-25875D01*
X22074Y-26016D01*
X22182Y-26124D01*
X22323Y-26183D01*
X22475Y-26183D01*
X22616Y-26125D01*
X22724Y-26017D01*
X22783Y-25876D01*
X22783Y-25724D01*
X22783Y-26524D01*
X22725Y-26383D01*
X22617Y-26275D01*
X22476Y-26216D01*
X22324Y-26216D01*
X22183Y-26274D01*
X22075Y-26382D01*
X22016Y-26523D01*
X22016Y-26675D01*
X22074Y-26816D01*
X22182Y-26924D01*
X22323Y-26983D01*
X22475Y-26983D01*
X22616Y-26925D01*
X22724Y-26817D01*
X22783Y-26676D01*
X22783Y-26524D01*
X22783Y-27341D01*
X20178Y-27341D01*
X20166Y-27313D01*
X20136Y-27283D01*
X20096Y-27266D01*
X20053Y-27266D01*
X19503Y-27266D01*
X19463Y-27283D01*
X19434Y-27312D01*
X19433Y-27307D01*
X19433Y-24712D01*
X19414Y-24618D01*
X19360Y-24583D01*
X19194Y-24750D01*
X19360Y-24916D01*
X19414Y-24881D01*
X19433Y-24712D01*
X19433Y-27307D01*
X19430Y-27295D01*
X19430Y-27295D01*
X19420Y-27280D01*
X19400Y-27249D01*
X19400Y-27249D01*
X19166Y-27015D01*
X19166Y-25110D01*
X19166Y-24389D01*
X19131Y-24335D01*
X18962Y-24316D01*
X18868Y-24335D01*
X18833Y-24389D01*
X19000Y-24555D01*
X19166Y-24389D01*
X19166Y-25110D01*
X19000Y-24944D01*
X18833Y-25110D01*
X18868Y-25164D01*
X19037Y-25183D01*
X19131Y-25164D01*
X19166Y-25110D01*
X19166Y-27015D01*
X18805Y-26655D01*
X18805Y-24750D01*
X18639Y-24583D01*
X18585Y-24618D01*
X18566Y-24787D01*
X18585Y-24881D01*
X18639Y-24916D01*
X18805Y-24750D01*
X18805Y-26655D01*
X18406Y-26255D01*
X17900Y-25749D01*
X17858Y-25721D01*
X17858Y-25128D01*
X17858Y-24528D01*
X17841Y-24488D01*
X17811Y-24458D01*
X17811Y-24458D01*
X17811Y-23431D01*
X17811Y-23219D01*
X17549Y-23219D01*
X17512Y-23257D01*
X17512Y-23288D01*
X17512Y-23348D01*
X17535Y-23403D01*
X17577Y-23446D01*
X17633Y-23469D01*
X17773Y-23469D01*
X17811Y-23431D01*
X17811Y-24458D01*
X17771Y-24441D01*
X17728Y-24441D01*
X17128Y-24441D01*
X17088Y-24458D01*
X17058Y-24488D01*
X17041Y-24528D01*
X17041Y-24571D01*
X17041Y-25171D01*
X17058Y-25211D01*
X17088Y-25241D01*
X17128Y-25258D01*
X17171Y-25258D01*
X17771Y-25258D01*
X17811Y-25241D01*
X17841Y-25211D01*
X17858Y-25171D01*
X17858Y-25128D01*
X17858Y-25721D01*
X17854Y-25719D01*
X17836Y-25715D01*
X17796Y-25619D01*
X17681Y-25504D01*
X17531Y-25441D01*
X17369Y-25441D01*
X17219Y-25503D01*
X17104Y-25618D01*
X17041Y-25768D01*
X17041Y-25930D01*
X17103Y-26080D01*
X17218Y-26195D01*
X17368Y-26258D01*
X17530Y-26258D01*
X17680Y-26196D01*
X17795Y-26081D01*
X17806Y-26056D01*
X18984Y-27234D01*
X18951Y-27267D01*
X18931Y-27235D01*
X18762Y-27216D01*
X18668Y-27235D01*
X18633Y-27289D01*
X18800Y-27455D01*
X18823Y-27431D01*
X18966Y-27573D01*
X19018Y-27626D01*
X18994Y-27650D01*
X19158Y-27813D01*
X19158Y-28100D01*
X19169Y-28154D01*
X19199Y-28200D01*
X20501Y-29501D01*
X19183Y-29501D01*
X19183Y-28574D01*
X19125Y-28433D01*
X19017Y-28325D01*
X18966Y-28303D01*
X18966Y-28010D01*
X18800Y-27844D01*
X18633Y-28010D01*
X18668Y-28064D01*
X18837Y-28083D01*
X18931Y-28064D01*
X18966Y-28010D01*
X18966Y-28303D01*
X18876Y-28266D01*
X18724Y-28266D01*
X18605Y-28315D01*
X18605Y-27650D01*
X18439Y-27483D01*
X18385Y-27518D01*
X18366Y-27687D01*
X18385Y-27781D01*
X18439Y-27816D01*
X18605Y-27650D01*
X18605Y-28315D01*
X18583Y-28324D01*
X18475Y-28432D01*
X18416Y-28573D01*
X18416Y-28725D01*
X18474Y-28866D01*
X18582Y-28974D01*
X18723Y-29033D01*
X18875Y-29033D01*
X19016Y-28975D01*
X19124Y-28867D01*
X19183Y-28726D01*
X19183Y-28574D01*
X19183Y-29501D01*
X17858Y-29501D01*
X17858Y-26769D01*
X17796Y-26619D01*
X17681Y-26504D01*
X17531Y-26441D01*
X17369Y-26441D01*
X17219Y-26503D01*
X17104Y-26618D01*
X17066Y-26708D01*
X16938Y-26708D01*
X16938Y-11399D01*
X16920Y-11310D01*
X16864Y-11266D01*
X16681Y-11450D01*
X16864Y-11633D01*
X16920Y-11589D01*
X16938Y-11399D01*
X16938Y-26708D01*
X16858Y-26708D01*
X16858Y-12269D01*
X16796Y-12119D01*
X16681Y-12004D01*
X16633Y-11984D01*
X16633Y-11864D01*
X16450Y-11681D01*
X16266Y-11864D01*
X16310Y-11920D01*
X16500Y-11938D01*
X16589Y-11920D01*
X16633Y-11864D01*
X16633Y-11984D01*
X16531Y-11941D01*
X16369Y-11941D01*
X16219Y-12003D01*
X16218Y-12003D01*
X16218Y-11450D01*
X16035Y-11266D01*
X15979Y-11310D01*
X15961Y-11500D01*
X15979Y-11589D01*
X16035Y-11633D01*
X16218Y-11450D01*
X16218Y-12003D01*
X16104Y-12118D01*
X16041Y-12268D01*
X16041Y-12430D01*
X16103Y-12580D01*
X16218Y-12695D01*
X16368Y-12758D01*
X16530Y-12758D01*
X16680Y-12696D01*
X16795Y-12581D01*
X16858Y-12431D01*
X16858Y-12269D01*
X16858Y-26708D01*
X16500Y-26708D01*
X16454Y-26717D01*
X16445Y-26719D01*
X16399Y-26749D01*
X15883Y-27266D01*
X15883Y-12112D01*
X15864Y-12018D01*
X15810Y-11983D01*
X15644Y-12150D01*
X15810Y-12316D01*
X15864Y-12281D01*
X15883Y-12112D01*
X15883Y-27266D01*
X15616Y-27533D01*
X15616Y-12510D01*
X15450Y-12344D01*
X15283Y-12510D01*
X15318Y-12564D01*
X15487Y-12583D01*
X15581Y-12564D01*
X15616Y-12510D01*
X15616Y-27533D01*
X15255Y-27894D01*
X15255Y-12150D01*
X15089Y-11983D01*
X15035Y-12018D01*
X15016Y-12187D01*
X15035Y-12281D01*
X15089Y-12316D01*
X15255Y-12150D01*
X15255Y-27894D01*
X14649Y-28499D01*
X14619Y-28545D01*
X14608Y-28600D01*
X14608Y-28617D01*
X14519Y-28654D01*
X14404Y-28768D01*
X14342Y-28918D01*
X14342Y-29080D01*
X14404Y-29230D01*
X14518Y-29345D01*
X14668Y-29407D01*
X14830Y-29407D01*
X14980Y-29345D01*
X15095Y-29231D01*
X15157Y-29081D01*
X15157Y-28919D01*
X15095Y-28769D01*
X14981Y-28654D01*
X14920Y-28629D01*
X16558Y-26991D01*
X17066Y-26991D01*
X17103Y-27080D01*
X17218Y-27195D01*
X17368Y-27258D01*
X17530Y-27258D01*
X17680Y-27196D01*
X17795Y-27081D01*
X17858Y-26931D01*
X17858Y-26769D01*
X17858Y-29501D01*
X16157Y-29501D01*
X16157Y-28919D01*
X16095Y-28769D01*
X15981Y-28654D01*
X15831Y-28592D01*
X15669Y-28592D01*
X15519Y-28654D01*
X15404Y-28768D01*
X15342Y-28918D01*
X15342Y-29080D01*
X15404Y-29230D01*
X15518Y-29345D01*
X15668Y-29407D01*
X15830Y-29407D01*
X15980Y-29345D01*
X16095Y-29231D01*
X16157Y-29081D01*
X16157Y-28919D01*
X16157Y-29501D01*
X14207Y-29501D01*
X14207Y-28955D01*
X14189Y-28865D01*
X14134Y-28827D01*
X13961Y-29000D01*
X14134Y-29172D01*
X14189Y-29134D01*
X14207Y-28955D01*
X14207Y-29501D01*
X13922Y-29501D01*
X13922Y-29384D01*
X13922Y-28615D01*
X13884Y-28560D01*
X13705Y-28542D01*
X13615Y-28560D01*
X13577Y-28615D01*
X13750Y-28788D01*
X13922Y-28615D01*
X13922Y-29384D01*
X13750Y-29211D01*
X13577Y-29384D01*
X13615Y-29439D01*
X13794Y-29457D01*
X13884Y-29439D01*
X13922Y-29384D01*
X13922Y-29501D01*
X13538Y-29501D01*
X13538Y-29000D01*
X13365Y-28827D01*
X13310Y-28865D01*
X13292Y-29044D01*
X13310Y-29134D01*
X13365Y-29172D01*
X13538Y-29000D01*
X13538Y-29501D01*
X13157Y-29501D01*
X13157Y-28919D01*
X13095Y-28769D01*
X12981Y-28654D01*
X12831Y-28592D01*
X12669Y-28592D01*
X12519Y-28654D01*
X12404Y-28768D01*
X12342Y-28918D01*
X12342Y-29080D01*
X12404Y-29230D01*
X12518Y-29345D01*
X12668Y-29407D01*
X12830Y-29407D01*
X12980Y-29345D01*
X13095Y-29231D01*
X13157Y-29081D01*
X13157Y-28919D01*
X13157Y-29501D01*
X11685Y-29501D01*
X11685Y-28562D01*
X11685Y-10845D01*
X11578Y-10587D01*
X11381Y-10390D01*
X11124Y-10283D01*
X10845Y-10283D01*
X10587Y-10389D01*
X10390Y-10586D01*
X10283Y-10844D01*
X10283Y-11123D01*
X10389Y-11380D01*
X10586Y-11578D01*
X10844Y-11684D01*
X11123Y-11685D01*
X11380Y-11578D01*
X11578Y-11381D01*
X11684Y-11124D01*
X11685Y-10845D01*
X11685Y-28562D01*
X11641Y-28456D01*
X11641Y-22669D01*
X11580Y-22521D01*
X11466Y-22407D01*
X11318Y-22346D01*
X11157Y-22345D01*
X11009Y-22407D01*
X10895Y-22520D01*
X10834Y-22668D01*
X10834Y-22829D01*
X10895Y-22977D01*
X11008Y-23091D01*
X11157Y-23153D01*
X11317Y-23153D01*
X11466Y-23091D01*
X11579Y-22978D01*
X11641Y-22830D01*
X11641Y-22669D01*
X11641Y-28456D01*
X11578Y-28304D01*
X11381Y-28107D01*
X11124Y-28000D01*
X10845Y-27999D01*
X10587Y-28106D01*
X10390Y-28303D01*
X10283Y-28560D01*
X10283Y-28839D01*
X10389Y-29097D01*
X10586Y-29294D01*
X10844Y-29401D01*
X11123Y-29401D01*
X11380Y-29295D01*
X11578Y-29098D01*
X11684Y-28840D01*
X11685Y-28562D01*
X11685Y-29501D01*
X11003Y-29501D01*
X10678Y-29437D01*
X10421Y-29265D01*
X10247Y-29005D01*
X10183Y-28682D01*
X10183Y-11002D01*
X10247Y-10679D01*
X10421Y-10419D01*
X10678Y-10247D01*
X11003Y-10183D01*
X12333Y-10183D01*
X12233Y-10224D01*
X12125Y-10332D01*
X12066Y-10473D01*
X12066Y-10625D01*
X12124Y-10766D01*
X12232Y-10874D01*
X12373Y-10933D01*
X12525Y-10933D01*
X12666Y-10875D01*
X12770Y-10771D01*
X13258Y-11258D01*
X13258Y-11657D01*
X12850Y-11249D01*
X12813Y-11224D01*
X12775Y-11133D01*
X12667Y-11025D01*
X12526Y-10966D01*
X12374Y-10966D01*
X12233Y-11024D01*
X12125Y-11132D01*
X12066Y-11273D01*
X12066Y-11425D01*
X12124Y-11566D01*
X12232Y-11674D01*
X12373Y-11733D01*
X12525Y-11733D01*
X12666Y-11675D01*
X12770Y-11571D01*
X13108Y-11908D01*
X13108Y-12307D01*
X12850Y-12049D01*
X12813Y-12024D01*
X12775Y-11933D01*
X12667Y-11825D01*
X12526Y-11766D01*
X12374Y-11766D01*
X12233Y-11824D01*
X12125Y-11932D01*
X12066Y-12073D01*
X12066Y-12225D01*
X12124Y-12366D01*
X12232Y-12474D01*
X12373Y-12533D01*
X12525Y-12533D01*
X12666Y-12475D01*
X12770Y-12371D01*
X12968Y-12568D01*
X12968Y-15707D01*
X12945Y-15729D01*
X12524Y-15729D01*
X12484Y-15746D01*
X12453Y-15776D01*
X12437Y-15816D01*
X12437Y-15859D01*
X12437Y-16253D01*
X12453Y-16293D01*
X12484Y-16323D01*
X12523Y-16340D01*
X12566Y-16340D01*
X13108Y-16340D01*
X13108Y-16910D01*
X12524Y-16910D01*
X12484Y-16927D01*
X12453Y-16957D01*
X12437Y-16997D01*
X12437Y-17040D01*
X12437Y-17434D01*
X12453Y-17474D01*
X12484Y-17504D01*
X12500Y-17511D01*
X12484Y-17518D01*
X12453Y-17548D01*
X12437Y-17588D01*
X12437Y-17631D01*
X12437Y-18025D01*
X12453Y-18065D01*
X12484Y-18095D01*
X12523Y-18112D01*
X12566Y-18112D01*
X13157Y-18112D01*
X13197Y-18095D01*
X13228Y-18065D01*
X13244Y-18025D01*
X13244Y-17982D01*
X13244Y-17938D01*
X13247Y-17937D01*
X13293Y-17907D01*
X13500Y-17700D01*
X13500Y-17700D01*
X13530Y-17654D01*
X13541Y-17600D01*
X13541Y-17600D01*
X13541Y-11200D01*
X13530Y-11145D01*
X13530Y-11145D01*
X13520Y-11130D01*
X13500Y-11099D01*
X13500Y-11099D01*
X12850Y-10449D01*
X12813Y-10424D01*
X12775Y-10333D01*
X12667Y-10225D01*
X12566Y-10183D01*
X15333Y-10183D01*
X15233Y-10224D01*
X15125Y-10332D01*
X15066Y-10473D01*
X15066Y-10625D01*
X15124Y-10766D01*
X15232Y-10874D01*
X15373Y-10933D01*
X15466Y-10933D01*
X15432Y-10966D01*
X15374Y-10966D01*
X15233Y-11024D01*
X15125Y-11132D01*
X15066Y-11273D01*
X15066Y-11425D01*
X15124Y-11566D01*
X15232Y-11674D01*
X15359Y-11727D01*
X15318Y-11735D01*
X15283Y-11789D01*
X15450Y-11955D01*
X15616Y-11789D01*
X15581Y-11735D01*
X15533Y-11730D01*
X15666Y-11675D01*
X15774Y-11567D01*
X15833Y-11426D01*
X15833Y-11274D01*
X15775Y-11133D01*
X15721Y-11079D01*
X15758Y-11041D01*
X16272Y-11041D01*
X16450Y-11218D01*
X16627Y-11041D01*
X16650Y-11041D01*
X16650Y-11041D01*
X16704Y-11030D01*
X16750Y-11000D01*
X17158Y-10591D01*
X17634Y-10591D01*
X17678Y-10697D01*
X17801Y-10821D01*
X17962Y-10888D01*
X18136Y-10888D01*
X18297Y-10821D01*
X18421Y-10698D01*
X18488Y-10537D01*
X18488Y-10363D01*
X18421Y-10202D01*
X18402Y-10183D01*
X19183Y-10183D01*
X19083Y-10224D01*
X18975Y-10332D01*
X18916Y-10473D01*
X18916Y-10625D01*
X18947Y-10701D01*
X18649Y-10999D01*
X18619Y-11045D01*
X18608Y-11100D01*
X18608Y-17250D01*
X18619Y-17304D01*
X18649Y-17350D01*
X19206Y-17907D01*
X19252Y-17937D01*
X19287Y-17944D01*
X19287Y-18025D01*
X19303Y-18065D01*
X19334Y-18095D01*
X19373Y-18112D01*
X19416Y-18112D01*
X20007Y-18112D01*
X20047Y-18095D01*
X20078Y-18065D01*
X20094Y-18025D01*
X20094Y-17982D01*
X20094Y-17588D01*
X20078Y-17548D01*
X20047Y-17518D01*
X20031Y-17511D01*
X20047Y-17504D01*
X20078Y-17474D01*
X20094Y-17434D01*
X20094Y-17391D01*
X20094Y-16997D01*
X20078Y-16957D01*
X20047Y-16927D01*
X20008Y-16910D01*
X19965Y-16910D01*
X19374Y-16910D01*
X19334Y-16927D01*
X19303Y-16957D01*
X19290Y-16989D01*
X19041Y-16741D01*
X19041Y-15942D01*
X19234Y-16135D01*
X19234Y-16135D01*
X19280Y-16165D01*
X19287Y-16167D01*
X19287Y-16253D01*
X19303Y-16293D01*
X19334Y-16323D01*
X19373Y-16340D01*
X19416Y-16340D01*
X20007Y-16340D01*
X20047Y-16323D01*
X20078Y-16293D01*
X20094Y-16253D01*
X20094Y-16210D01*
X20094Y-15816D01*
X20078Y-15776D01*
X20047Y-15746D01*
X20008Y-15729D01*
X19965Y-15729D01*
X19374Y-15729D01*
X19334Y-15746D01*
X19303Y-15776D01*
X19295Y-15795D01*
X19191Y-15691D01*
X19191Y-12592D01*
X19250Y-12533D01*
X19375Y-12533D01*
X19516Y-12475D01*
X19624Y-12367D01*
X19656Y-12291D01*
X21341Y-12291D01*
X21899Y-12850D01*
X21899Y-12850D01*
X21945Y-12880D01*
X21945Y-12880D01*
X21954Y-12882D01*
X22000Y-12891D01*
X22800Y-12891D01*
X22800Y-12891D01*
X22854Y-12880D01*
X22900Y-12850D01*
X23029Y-12721D01*
X23118Y-12758D01*
X23280Y-12758D01*
X23430Y-12696D01*
X23545Y-12581D01*
X23608Y-12431D01*
X23608Y-12269D01*
X23546Y-12119D01*
X23431Y-12004D01*
X23383Y-11984D01*
X23383Y-11864D01*
X23200Y-11681D01*
X23016Y-11864D01*
X23060Y-11920D01*
X23250Y-11938D01*
X23339Y-11920D01*
X23383Y-11864D01*
X23383Y-11984D01*
X23281Y-11941D01*
X23119Y-11941D01*
X22969Y-12003D01*
X22968Y-12003D01*
X22968Y-11450D01*
X22785Y-11266D01*
X22729Y-11310D01*
X22711Y-11500D01*
X22729Y-11589D01*
X22785Y-11633D01*
X22968Y-11450D01*
X22968Y-12003D01*
X22854Y-12118D01*
X22791Y-12268D01*
X22791Y-12430D01*
X22828Y-12520D01*
X22741Y-12608D01*
X22733Y-12608D01*
X22733Y-12112D01*
X22714Y-12018D01*
X22660Y-11983D01*
X22494Y-12150D01*
X22660Y-12316D01*
X22714Y-12281D01*
X22733Y-12112D01*
X22733Y-12608D01*
X22466Y-12608D01*
X22466Y-12510D01*
X22300Y-12344D01*
X22133Y-12510D01*
X22168Y-12564D01*
X22337Y-12583D01*
X22431Y-12564D01*
X22466Y-12510D01*
X22466Y-12608D01*
X22105Y-12608D01*
X22105Y-12150D01*
X21939Y-11983D01*
X21885Y-12018D01*
X21866Y-12187D01*
X21885Y-12281D01*
X21939Y-12316D01*
X22105Y-12150D01*
X22105Y-12608D01*
X22058Y-12608D01*
X21500Y-12049D01*
X21454Y-12019D01*
X21400Y-12008D01*
X19656Y-12008D01*
X19625Y-11933D01*
X19517Y-11825D01*
X19376Y-11766D01*
X19224Y-11766D01*
X19083Y-11824D01*
X19041Y-11866D01*
X19041Y-11808D01*
X19148Y-11702D01*
X19223Y-11733D01*
X19375Y-11733D01*
X19516Y-11675D01*
X19624Y-11567D01*
X19683Y-11426D01*
X19683Y-11274D01*
X19625Y-11133D01*
X19517Y-11025D01*
X19376Y-10966D01*
X19224Y-10966D01*
X19083Y-11024D01*
X18975Y-11132D01*
X18916Y-11273D01*
X18916Y-11425D01*
X18947Y-11501D01*
X18891Y-11557D01*
X18891Y-11158D01*
X19148Y-10902D01*
X19223Y-10933D01*
X19375Y-10933D01*
X19516Y-10875D01*
X19624Y-10767D01*
X19683Y-10626D01*
X19683Y-10474D01*
X19625Y-10333D01*
X19517Y-10225D01*
X19416Y-10183D01*
X22183Y-10183D01*
X22083Y-10224D01*
X21975Y-10332D01*
X21916Y-10473D01*
X21916Y-10625D01*
X21974Y-10766D01*
X22082Y-10874D01*
X22223Y-10933D01*
X22375Y-10933D01*
X22516Y-10875D01*
X22624Y-10767D01*
X22653Y-10698D01*
X22828Y-10698D01*
X22881Y-10751D01*
X22750Y-10751D01*
X22693Y-10763D01*
X22645Y-10795D01*
X22445Y-10995D01*
X22376Y-10966D01*
X22224Y-10966D01*
X22083Y-11024D01*
X21975Y-11132D01*
X21916Y-11273D01*
X21916Y-11425D01*
X21974Y-11566D01*
X22082Y-11674D01*
X22209Y-11727D01*
X22168Y-11735D01*
X22133Y-11789D01*
X22300Y-11955D01*
X22466Y-11789D01*
X22431Y-11735D01*
X22383Y-11730D01*
X22516Y-11675D01*
X22624Y-11567D01*
X22683Y-11426D01*
X22683Y-11274D01*
X22654Y-11204D01*
X22811Y-11048D01*
X23029Y-11048D01*
X23200Y-11218D01*
X23370Y-11048D01*
X23400Y-11048D01*
X23456Y-11036D01*
X23504Y-11004D01*
X23523Y-10976D01*
X23908Y-10591D01*
X24384Y-10591D01*
X24428Y-10697D01*
X24551Y-10821D01*
X24712Y-10888D01*
X24886Y-10888D01*
X25047Y-10821D01*
X25171Y-10698D01*
X25238Y-10537D01*
X25238Y-10363D01*
X25171Y-10202D01*
X25152Y-10183D01*
X48367Y-10183D01*
X48690Y-10247D01*
X48950Y-10421D01*
X49122Y-10678D01*
X49186Y-11003D01*
X49186Y-28717D01*
X49186Y-28717D01*
G37*
G54D30*
X49186Y-28717D02*
X49110Y-29034D01*
X49086Y-29067D01*
X49086Y-28562D01*
X49086Y-10845D01*
X48980Y-10587D01*
X48783Y-10390D01*
X48525Y-10283D01*
X48247Y-10283D01*
X47989Y-10389D01*
X47792Y-10586D01*
X47685Y-10844D01*
X47684Y-11123D01*
X47791Y-11380D01*
X47988Y-11578D01*
X48245Y-11684D01*
X48524Y-11685D01*
X48782Y-11578D01*
X48979Y-11381D01*
X49086Y-11124D01*
X49086Y-10845D01*
X49086Y-28562D01*
X48980Y-28304D01*
X48783Y-28107D01*
X48525Y-28000D01*
X48383Y-27999D01*
X48383Y-27174D01*
X48383Y-25174D01*
X48383Y-24174D01*
X48383Y-22174D01*
X48383Y-21174D01*
X48383Y-19174D01*
X48325Y-19033D01*
X48217Y-18925D01*
X48076Y-18866D01*
X47924Y-18866D01*
X47783Y-18924D01*
X47675Y-19032D01*
X47616Y-19173D01*
X47616Y-19325D01*
X47674Y-19466D01*
X47782Y-19574D01*
X47923Y-19633D01*
X48075Y-19633D01*
X48216Y-19575D01*
X48324Y-19467D01*
X48383Y-19326D01*
X48383Y-19174D01*
X48383Y-21174D01*
X48325Y-21033D01*
X48217Y-20925D01*
X48076Y-20866D01*
X47924Y-20866D01*
X47783Y-20924D01*
X47675Y-21032D01*
X47616Y-21173D01*
X47616Y-21325D01*
X47674Y-21466D01*
X47782Y-21574D01*
X47923Y-21633D01*
X48075Y-21633D01*
X48216Y-21575D01*
X48324Y-21467D01*
X48383Y-21326D01*
X48383Y-21174D01*
X48383Y-22174D01*
X48325Y-22033D01*
X48217Y-21925D01*
X48076Y-21866D01*
X47924Y-21866D01*
X47783Y-21924D01*
X47675Y-22032D01*
X47616Y-22173D01*
X47616Y-22325D01*
X47674Y-22466D01*
X47782Y-22574D01*
X47923Y-22633D01*
X48075Y-22633D01*
X48216Y-22575D01*
X48324Y-22467D01*
X48383Y-22326D01*
X48383Y-22174D01*
X48383Y-24174D01*
X48325Y-24033D01*
X48217Y-23925D01*
X48076Y-23866D01*
X47924Y-23866D01*
X47783Y-23924D01*
X47675Y-24032D01*
X47616Y-24173D01*
X47616Y-24325D01*
X47674Y-24466D01*
X47782Y-24574D01*
X47923Y-24633D01*
X48075Y-24633D01*
X48216Y-24575D01*
X48324Y-24467D01*
X48383Y-24326D01*
X48383Y-24174D01*
X48383Y-25174D01*
X48325Y-25033D01*
X48217Y-24925D01*
X48076Y-24866D01*
X47924Y-24866D01*
X47783Y-24924D01*
X47675Y-25032D01*
X47616Y-25173D01*
X47616Y-25325D01*
X47674Y-25466D01*
X47782Y-25574D01*
X47923Y-25633D01*
X48075Y-25633D01*
X48216Y-25575D01*
X48324Y-25467D01*
X48383Y-25326D01*
X48383Y-25174D01*
X48383Y-27174D01*
X48325Y-27033D01*
X48217Y-26925D01*
X48076Y-26866D01*
X47924Y-26866D01*
X47783Y-26924D01*
X47675Y-27032D01*
X47616Y-27173D01*
X47616Y-27325D01*
X47674Y-27466D01*
X47782Y-27574D01*
X47923Y-27633D01*
X48075Y-27633D01*
X48216Y-27575D01*
X48324Y-27467D01*
X48383Y-27326D01*
X48383Y-27174D01*
X48383Y-27999D01*
X48247Y-27999D01*
X47989Y-28106D01*
X47792Y-28303D01*
X47685Y-28560D01*
X47684Y-28839D01*
X47791Y-29097D01*
X47988Y-29294D01*
X48245Y-29401D01*
X48524Y-29401D01*
X48782Y-29295D01*
X48979Y-29098D01*
X49086Y-28840D01*
X49086Y-28562D01*
X49086Y-29067D01*
X48927Y-29286D01*
X48662Y-29449D01*
X48332Y-29501D01*
X46353Y-29501D01*
X46353Y-15870D01*
X46292Y-15721D01*
X46179Y-15607D01*
X46030Y-15546D01*
X45870Y-15546D01*
X45721Y-15607D01*
X45607Y-15720D01*
X45546Y-15869D01*
X45546Y-16029D01*
X45607Y-16178D01*
X45720Y-16292D01*
X45869Y-16353D01*
X46029Y-16353D01*
X46178Y-16292D01*
X46292Y-16179D01*
X46353Y-16030D01*
X46353Y-15870D01*
X46353Y-29501D01*
X45383Y-29501D01*
X45383Y-27174D01*
X45383Y-25174D01*
X45383Y-24174D01*
X45383Y-22174D01*
X45383Y-21174D01*
X45383Y-19174D01*
X45353Y-19102D01*
X45353Y-15870D01*
X45292Y-15721D01*
X45179Y-15607D01*
X45030Y-15546D01*
X44870Y-15546D01*
X44721Y-15607D01*
X44607Y-15720D01*
X44546Y-15869D01*
X44546Y-16029D01*
X44607Y-16178D01*
X44720Y-16292D01*
X44869Y-16353D01*
X45029Y-16353D01*
X45178Y-16292D01*
X45292Y-16179D01*
X45353Y-16030D01*
X45353Y-15870D01*
X45353Y-19102D01*
X45325Y-19033D01*
X45217Y-18925D01*
X45076Y-18866D01*
X44924Y-18866D01*
X44783Y-18924D01*
X44675Y-19032D01*
X44664Y-19058D01*
X44506Y-19058D01*
X44475Y-18983D01*
X44367Y-18875D01*
X44353Y-18869D01*
X44353Y-15870D01*
X44292Y-15721D01*
X44179Y-15607D01*
X44030Y-15546D01*
X43870Y-15546D01*
X43721Y-15607D01*
X43607Y-15720D01*
X43546Y-15869D01*
X43546Y-16029D01*
X43607Y-16178D01*
X43720Y-16292D01*
X43869Y-16353D01*
X44029Y-16353D01*
X44178Y-16292D01*
X44292Y-16179D01*
X44353Y-16030D01*
X44353Y-15870D01*
X44353Y-18869D01*
X44226Y-18816D01*
X44074Y-18816D01*
X43933Y-18874D01*
X43825Y-18982D01*
X43766Y-19123D01*
X43766Y-19275D01*
X43824Y-19416D01*
X43932Y-19524D01*
X44073Y-19583D01*
X44225Y-19583D01*
X44366Y-19525D01*
X44474Y-19417D01*
X44506Y-19341D01*
X44623Y-19341D01*
X44674Y-19466D01*
X44782Y-19574D01*
X44923Y-19633D01*
X45075Y-19633D01*
X45216Y-19575D01*
X45324Y-19467D01*
X45383Y-19326D01*
X45383Y-19174D01*
X45383Y-21174D01*
X45325Y-21033D01*
X45217Y-20925D01*
X45076Y-20866D01*
X44924Y-20866D01*
X44783Y-20924D01*
X44675Y-21032D01*
X44643Y-21108D01*
X44506Y-21108D01*
X44475Y-21033D01*
X44367Y-20925D01*
X44226Y-20866D01*
X44074Y-20866D01*
X43933Y-20924D01*
X43825Y-21032D01*
X43766Y-21173D01*
X43766Y-21325D01*
X43824Y-21466D01*
X43932Y-21574D01*
X44073Y-21633D01*
X44225Y-21633D01*
X44366Y-21575D01*
X44474Y-21467D01*
X44506Y-21391D01*
X44643Y-21391D01*
X44674Y-21466D01*
X44782Y-21574D01*
X44923Y-21633D01*
X45075Y-21633D01*
X45216Y-21575D01*
X45324Y-21467D01*
X45383Y-21326D01*
X45383Y-21174D01*
X45383Y-22174D01*
X45325Y-22033D01*
X45217Y-21925D01*
X45076Y-21866D01*
X44924Y-21866D01*
X44783Y-21924D01*
X44675Y-22032D01*
X44616Y-22173D01*
X44616Y-22325D01*
X44674Y-22466D01*
X44782Y-22574D01*
X44923Y-22633D01*
X45075Y-22633D01*
X45216Y-22575D01*
X45324Y-22467D01*
X45383Y-22326D01*
X45383Y-22174D01*
X45383Y-24174D01*
X45325Y-24033D01*
X45217Y-23925D01*
X45076Y-23866D01*
X44924Y-23866D01*
X44783Y-23924D01*
X44675Y-24032D01*
X44643Y-24108D01*
X44506Y-24108D01*
X44475Y-24033D01*
X44367Y-23925D01*
X44226Y-23866D01*
X44074Y-23866D01*
X43933Y-23924D01*
X43825Y-24032D01*
X43766Y-24173D01*
X43766Y-24325D01*
X43824Y-24466D01*
X43932Y-24574D01*
X44073Y-24633D01*
X44225Y-24633D01*
X44366Y-24575D01*
X44474Y-24467D01*
X44506Y-24391D01*
X44643Y-24391D01*
X44674Y-24466D01*
X44782Y-24574D01*
X44923Y-24633D01*
X45075Y-24633D01*
X45216Y-24575D01*
X45324Y-24467D01*
X45383Y-24326D01*
X45383Y-24174D01*
X45383Y-25174D01*
X45325Y-25033D01*
X45217Y-24925D01*
X45076Y-24866D01*
X44924Y-24866D01*
X44783Y-24924D01*
X44675Y-25032D01*
X44616Y-25173D01*
X44616Y-25325D01*
X44674Y-25466D01*
X44782Y-25574D01*
X44923Y-25633D01*
X45075Y-25633D01*
X45216Y-25575D01*
X45324Y-25467D01*
X45383Y-25326D01*
X45383Y-25174D01*
X45383Y-27174D01*
X45325Y-27033D01*
X45217Y-26925D01*
X45076Y-26866D01*
X44924Y-26866D01*
X44783Y-26924D01*
X44675Y-27032D01*
X44643Y-27108D01*
X44506Y-27108D01*
X44475Y-27033D01*
X44367Y-26925D01*
X44226Y-26866D01*
X44074Y-26866D01*
X43933Y-26924D01*
X43825Y-27032D01*
X43766Y-27173D01*
X43766Y-27325D01*
X43824Y-27466D01*
X43932Y-27574D01*
X44073Y-27633D01*
X44225Y-27633D01*
X44366Y-27575D01*
X44474Y-27467D01*
X44506Y-27391D01*
X44643Y-27391D01*
X44674Y-27466D01*
X44782Y-27574D01*
X44923Y-27633D01*
X45075Y-27633D01*
X45216Y-27575D01*
X45324Y-27467D01*
X45383Y-27326D01*
X45383Y-27174D01*
X45383Y-29501D01*
X40989Y-29501D01*
X41124Y-29445D01*
X41239Y-29331D01*
X41301Y-29181D01*
X41302Y-29018D01*
X41240Y-28868D01*
X41125Y-28753D01*
X40975Y-28691D01*
X40812Y-28691D01*
X40662Y-28753D01*
X40547Y-28868D01*
X40485Y-29018D01*
X40485Y-29180D01*
X40547Y-29330D01*
X40662Y-29445D01*
X40797Y-29501D01*
X39989Y-29501D01*
X40124Y-29445D01*
X40239Y-29331D01*
X40301Y-29181D01*
X40302Y-29018D01*
X40240Y-28868D01*
X40125Y-28753D01*
X39975Y-28691D01*
X39812Y-28691D01*
X39662Y-28753D01*
X39547Y-28868D01*
X39485Y-29018D01*
X39485Y-29180D01*
X39547Y-29330D01*
X39662Y-29445D01*
X39797Y-29501D01*
X38989Y-29501D01*
X39124Y-29445D01*
X39239Y-29331D01*
X39301Y-29181D01*
X39302Y-29018D01*
X39264Y-28928D01*
X40252Y-27941D01*
X41500Y-27941D01*
X41500Y-27941D01*
X41554Y-27930D01*
X41600Y-27900D01*
X43050Y-26450D01*
X43050Y-26450D01*
X43070Y-26419D01*
X43080Y-26404D01*
X43080Y-26404D01*
X43091Y-26350D01*
X43091Y-26350D01*
X43091Y-16328D01*
X43178Y-16292D01*
X43292Y-16179D01*
X43353Y-16030D01*
X43353Y-15870D01*
X43292Y-15721D01*
X43179Y-15607D01*
X43030Y-15546D01*
X42870Y-15546D01*
X42721Y-15607D01*
X42607Y-15720D01*
X42546Y-15869D01*
X42546Y-16029D01*
X42607Y-16178D01*
X42720Y-16292D01*
X42808Y-16328D01*
X42808Y-26291D01*
X42353Y-26745D01*
X42353Y-15870D01*
X42292Y-15721D01*
X42179Y-15607D01*
X42030Y-15546D01*
X41870Y-15546D01*
X41721Y-15607D01*
X41607Y-15720D01*
X41546Y-15869D01*
X41546Y-16029D01*
X41607Y-16178D01*
X41720Y-16292D01*
X41869Y-16353D01*
X42029Y-16353D01*
X42178Y-16292D01*
X42292Y-16179D01*
X42353Y-16030D01*
X42353Y-15870D01*
X42353Y-26745D01*
X41583Y-27516D01*
X41583Y-19162D01*
X41564Y-19068D01*
X41510Y-19033D01*
X41403Y-19140D01*
X41403Y-15906D01*
X41385Y-15816D01*
X41330Y-15778D01*
X41158Y-15950D01*
X41330Y-16121D01*
X41385Y-16083D01*
X41403Y-15906D01*
X41403Y-19140D01*
X41344Y-19200D01*
X41510Y-19366D01*
X41564Y-19331D01*
X41583Y-19162D01*
X41583Y-27516D01*
X41441Y-27658D01*
X40193Y-27658D01*
X40139Y-27669D01*
X40123Y-27679D01*
X40093Y-27699D01*
X39064Y-28728D01*
X38975Y-28691D01*
X38812Y-28691D01*
X38662Y-28753D01*
X38547Y-28868D01*
X38485Y-29018D01*
X38485Y-29180D01*
X38547Y-29330D01*
X38662Y-29445D01*
X38797Y-29501D01*
X37989Y-29501D01*
X38124Y-29445D01*
X38239Y-29331D01*
X38301Y-29181D01*
X38302Y-29018D01*
X38240Y-28868D01*
X38183Y-28811D01*
X38183Y-17612D01*
X38164Y-17518D01*
X38110Y-17483D01*
X37944Y-17650D01*
X38110Y-17816D01*
X38164Y-17781D01*
X38183Y-17612D01*
X38183Y-28811D01*
X38125Y-28753D01*
X37975Y-28691D01*
X37916Y-28691D01*
X37916Y-18010D01*
X37750Y-17844D01*
X37583Y-18010D01*
X37618Y-18064D01*
X37787Y-18083D01*
X37881Y-18064D01*
X37916Y-18010D01*
X37916Y-28691D01*
X37812Y-28691D01*
X37739Y-28721D01*
X37555Y-28537D01*
X36908Y-27890D01*
X36908Y-23000D01*
X36908Y-21400D01*
X36908Y-19400D01*
X36908Y-17999D01*
X36966Y-17975D01*
X37074Y-17867D01*
X37133Y-17726D01*
X37133Y-17690D01*
X37346Y-17477D01*
X37367Y-17498D01*
X37335Y-17518D01*
X37316Y-17687D01*
X37335Y-17781D01*
X37389Y-17816D01*
X37555Y-17650D01*
X37531Y-17626D01*
X37726Y-17431D01*
X37750Y-17455D01*
X37916Y-17289D01*
X37881Y-17235D01*
X37712Y-17216D01*
X37618Y-17235D01*
X37598Y-17267D01*
X37577Y-17246D01*
X38626Y-16197D01*
X38720Y-16292D01*
X38791Y-16321D01*
X38791Y-18966D01*
X38775Y-18982D01*
X38716Y-19123D01*
X38716Y-19275D01*
X38774Y-19416D01*
X38882Y-19524D01*
X39023Y-19583D01*
X39175Y-19583D01*
X39235Y-19558D01*
X40791Y-21114D01*
X40766Y-21173D01*
X40766Y-21325D01*
X40824Y-21466D01*
X40932Y-21574D01*
X40991Y-21599D01*
X40991Y-23900D01*
X40933Y-23924D01*
X40825Y-24032D01*
X40766Y-24173D01*
X40766Y-24325D01*
X40824Y-24466D01*
X40932Y-24574D01*
X40991Y-24599D01*
X40991Y-26900D01*
X40933Y-26924D01*
X40825Y-27032D01*
X40766Y-27173D01*
X40766Y-27325D01*
X40824Y-27466D01*
X40932Y-27574D01*
X41073Y-27633D01*
X41225Y-27633D01*
X41366Y-27575D01*
X41474Y-27467D01*
X41533Y-27326D01*
X41533Y-27174D01*
X41475Y-27033D01*
X41367Y-26925D01*
X41308Y-26900D01*
X41308Y-24599D01*
X41366Y-24575D01*
X41474Y-24467D01*
X41533Y-24326D01*
X41533Y-24174D01*
X41475Y-24033D01*
X41367Y-23925D01*
X41308Y-23900D01*
X41308Y-21599D01*
X41366Y-21575D01*
X41474Y-21467D01*
X41533Y-21326D01*
X41533Y-21174D01*
X41475Y-21033D01*
X41367Y-20925D01*
X41316Y-20903D01*
X41316Y-19560D01*
X41316Y-18839D01*
X41281Y-18785D01*
X41121Y-18767D01*
X41121Y-16330D01*
X41121Y-15569D01*
X41083Y-15514D01*
X40906Y-15496D01*
X40816Y-15514D01*
X40778Y-15569D01*
X40950Y-15741D01*
X41121Y-15569D01*
X41121Y-16330D01*
X40950Y-16158D01*
X40778Y-16330D01*
X40816Y-16385D01*
X40993Y-16403D01*
X41083Y-16385D01*
X41121Y-16330D01*
X41121Y-18767D01*
X41112Y-18766D01*
X41018Y-18785D01*
X40983Y-18839D01*
X41150Y-19005D01*
X41316Y-18839D01*
X41316Y-19560D01*
X41150Y-19394D01*
X40983Y-19560D01*
X41018Y-19614D01*
X41187Y-19633D01*
X41281Y-19614D01*
X41316Y-19560D01*
X41316Y-20903D01*
X41226Y-20866D01*
X41074Y-20866D01*
X41014Y-20891D01*
X40955Y-20831D01*
X40955Y-19200D01*
X40789Y-19033D01*
X40741Y-19065D01*
X40741Y-15950D01*
X40569Y-15778D01*
X40514Y-15816D01*
X40496Y-15993D01*
X40514Y-16083D01*
X40569Y-16121D01*
X40741Y-15950D01*
X40741Y-19065D01*
X40735Y-19068D01*
X40716Y-19237D01*
X40735Y-19331D01*
X40789Y-19366D01*
X40955Y-19200D01*
X40955Y-20831D01*
X40353Y-20230D01*
X40353Y-15870D01*
X40292Y-15721D01*
X40179Y-15607D01*
X40030Y-15546D01*
X39898Y-15546D01*
X39898Y-11061D01*
X39792Y-10804D01*
X39596Y-10607D01*
X39339Y-10501D01*
X39061Y-10501D01*
X38804Y-10607D01*
X38607Y-10803D01*
X38501Y-11060D01*
X38501Y-11338D01*
X38607Y-11595D01*
X38803Y-11792D01*
X39060Y-11898D01*
X39338Y-11898D01*
X39595Y-11792D01*
X39792Y-11596D01*
X39898Y-11339D01*
X39898Y-11061D01*
X39898Y-15546D01*
X39870Y-15546D01*
X39721Y-15607D01*
X39607Y-15720D01*
X39546Y-15869D01*
X39546Y-16029D01*
X39607Y-16178D01*
X39720Y-16292D01*
X39869Y-16353D01*
X40029Y-16353D01*
X40178Y-16292D01*
X40292Y-16179D01*
X40353Y-16030D01*
X40353Y-15870D01*
X40353Y-20230D01*
X39458Y-19335D01*
X39483Y-19276D01*
X39483Y-19124D01*
X39425Y-18983D01*
X39317Y-18875D01*
X39176Y-18816D01*
X39108Y-18816D01*
X39108Y-16321D01*
X39178Y-16292D01*
X39292Y-16179D01*
X39353Y-16030D01*
X39353Y-15870D01*
X39292Y-15721D01*
X39179Y-15607D01*
X39030Y-15546D01*
X38870Y-15546D01*
X38721Y-15607D01*
X38607Y-15720D01*
X38578Y-15791D01*
X34900Y-15791D01*
X34839Y-15803D01*
X34788Y-15838D01*
X34788Y-15838D01*
X34788Y-15838D01*
X34458Y-16167D01*
X34458Y-12950D01*
X34446Y-12889D01*
X34411Y-12838D01*
X34253Y-12679D01*
X34253Y-11706D01*
X34235Y-11616D01*
X34180Y-11578D01*
X34008Y-11750D01*
X34180Y-11921D01*
X34235Y-11883D01*
X34253Y-11706D01*
X34253Y-12679D01*
X34211Y-12638D01*
X34182Y-12618D01*
X34142Y-12521D01*
X34029Y-12407D01*
X33971Y-12384D01*
X33971Y-12130D01*
X33971Y-11369D01*
X33933Y-11314D01*
X33756Y-11296D01*
X33666Y-11314D01*
X33628Y-11369D01*
X33800Y-11541D01*
X33971Y-11369D01*
X33971Y-12130D01*
X33800Y-11958D01*
X33628Y-12130D01*
X33666Y-12185D01*
X33843Y-12203D01*
X33933Y-12185D01*
X33971Y-12130D01*
X33971Y-12384D01*
X33880Y-12346D01*
X33720Y-12346D01*
X33649Y-12375D01*
X33591Y-12317D01*
X33591Y-11750D01*
X33419Y-11578D01*
X33364Y-11616D01*
X33346Y-11793D01*
X33364Y-11883D01*
X33419Y-11921D01*
X33591Y-11750D01*
X33591Y-12317D01*
X33311Y-12038D01*
X33260Y-12003D01*
X33200Y-11991D01*
X31099Y-11991D01*
X31108Y-11971D01*
X31108Y-11928D01*
X31108Y-11328D01*
X31091Y-11288D01*
X31061Y-11258D01*
X31021Y-11241D01*
X30978Y-11241D01*
X30378Y-11241D01*
X30338Y-11258D01*
X30308Y-11288D01*
X30291Y-11328D01*
X30291Y-11371D01*
X30291Y-11967D01*
X30092Y-11768D01*
X30108Y-11731D01*
X30108Y-11569D01*
X30046Y-11419D01*
X29931Y-11304D01*
X29781Y-11241D01*
X29619Y-11241D01*
X29469Y-11303D01*
X29354Y-11418D01*
X29323Y-11491D01*
X29076Y-11491D01*
X29046Y-11419D01*
X28931Y-11304D01*
X28781Y-11241D01*
X28619Y-11241D01*
X28469Y-11303D01*
X28354Y-11418D01*
X28291Y-11568D01*
X28291Y-11730D01*
X28353Y-11880D01*
X28468Y-11995D01*
X28618Y-12058D01*
X28780Y-12058D01*
X28930Y-11996D01*
X29045Y-11881D01*
X29076Y-11808D01*
X29323Y-11808D01*
X29353Y-11880D01*
X29468Y-11995D01*
X29618Y-12058D01*
X29780Y-12058D01*
X29889Y-12013D01*
X30138Y-12261D01*
X30189Y-12296D01*
X30250Y-12308D01*
X30464Y-12308D01*
X30354Y-12418D01*
X30291Y-12568D01*
X30291Y-12730D01*
X30353Y-12880D01*
X30468Y-12995D01*
X30618Y-13058D01*
X30780Y-13058D01*
X30930Y-12996D01*
X31045Y-12881D01*
X31108Y-12731D01*
X31108Y-12569D01*
X31046Y-12419D01*
X30935Y-12308D01*
X33134Y-12308D01*
X33425Y-12599D01*
X33396Y-12669D01*
X33396Y-12829D01*
X33457Y-12978D01*
X33570Y-13092D01*
X33719Y-13153D01*
X33879Y-13153D01*
X34028Y-13092D01*
X34123Y-12997D01*
X34141Y-13015D01*
X34141Y-13520D01*
X34029Y-13407D01*
X33880Y-13346D01*
X33720Y-13346D01*
X33571Y-13407D01*
X33457Y-13520D01*
X33396Y-13669D01*
X33396Y-13829D01*
X33457Y-13978D01*
X33570Y-14092D01*
X33719Y-14153D01*
X33879Y-14153D01*
X34028Y-14092D01*
X34141Y-13979D01*
X34141Y-16346D01*
X34020Y-16346D01*
X33871Y-16407D01*
X33757Y-16520D01*
X33696Y-16669D01*
X33696Y-16829D01*
X33757Y-16978D01*
X33870Y-17092D01*
X34019Y-17153D01*
X34179Y-17153D01*
X34328Y-17092D01*
X34442Y-16979D01*
X34503Y-16830D01*
X34503Y-16670D01*
X34474Y-16599D01*
X34965Y-16108D01*
X38267Y-16108D01*
X37540Y-16835D01*
X37553Y-16706D01*
X37535Y-16616D01*
X37480Y-16578D01*
X37308Y-16750D01*
X37325Y-16766D01*
X37271Y-16820D01*
X37271Y-16369D01*
X37233Y-16314D01*
X37056Y-16296D01*
X36966Y-16314D01*
X36928Y-16369D01*
X37100Y-16541D01*
X37271Y-16369D01*
X37271Y-16820D01*
X37116Y-16975D01*
X37100Y-16958D01*
X36928Y-17130D01*
X36966Y-17185D01*
X37143Y-17203D01*
X37179Y-17196D01*
X37009Y-17367D01*
X36967Y-17325D01*
X36891Y-17293D01*
X36891Y-16750D01*
X36719Y-16578D01*
X36664Y-16616D01*
X36646Y-16793D01*
X36664Y-16883D01*
X36719Y-16921D01*
X36891Y-16750D01*
X36891Y-17293D01*
X36826Y-17266D01*
X36674Y-17266D01*
X36533Y-17324D01*
X36503Y-17354D01*
X36503Y-16670D01*
X36442Y-16521D01*
X36329Y-16407D01*
X36180Y-16346D01*
X36020Y-16346D01*
X35871Y-16407D01*
X35757Y-16520D01*
X35696Y-16669D01*
X35696Y-16829D01*
X35757Y-16978D01*
X35870Y-17092D01*
X36019Y-17153D01*
X36179Y-17153D01*
X36328Y-17092D01*
X36442Y-16979D01*
X36503Y-16830D01*
X36503Y-16670D01*
X36503Y-17354D01*
X36425Y-17432D01*
X36366Y-17573D01*
X36366Y-17725D01*
X36424Y-17866D01*
X36532Y-17974D01*
X36591Y-17999D01*
X36591Y-19400D01*
X36591Y-21400D01*
X36591Y-22934D01*
X36483Y-23042D01*
X36483Y-19124D01*
X36425Y-18983D01*
X36317Y-18875D01*
X36176Y-18816D01*
X36083Y-18816D01*
X36083Y-17612D01*
X36064Y-17518D01*
X36010Y-17483D01*
X35844Y-17650D01*
X36010Y-17816D01*
X36064Y-17781D01*
X36083Y-17612D01*
X36083Y-18816D01*
X36024Y-18816D01*
X35883Y-18874D01*
X35816Y-18941D01*
X35816Y-18010D01*
X35816Y-17289D01*
X35781Y-17235D01*
X35612Y-17216D01*
X35518Y-17235D01*
X35503Y-17258D01*
X35503Y-16670D01*
X35442Y-16521D01*
X35329Y-16407D01*
X35180Y-16346D01*
X35020Y-16346D01*
X34871Y-16407D01*
X34757Y-16520D01*
X34696Y-16669D01*
X34696Y-16829D01*
X34757Y-16978D01*
X34870Y-17092D01*
X35019Y-17153D01*
X35179Y-17153D01*
X35328Y-17092D01*
X35442Y-16979D01*
X35503Y-16830D01*
X35503Y-16670D01*
X35503Y-17258D01*
X35483Y-17289D01*
X35650Y-17455D01*
X35816Y-17289D01*
X35816Y-18010D01*
X35650Y-17844D01*
X35483Y-18010D01*
X35518Y-18064D01*
X35687Y-18083D01*
X35781Y-18064D01*
X35816Y-18010D01*
X35816Y-18941D01*
X35775Y-18982D01*
X35716Y-19123D01*
X35716Y-19275D01*
X35774Y-19416D01*
X35882Y-19524D01*
X36023Y-19583D01*
X36175Y-19583D01*
X36316Y-19525D01*
X36424Y-19417D01*
X36483Y-19276D01*
X36483Y-19124D01*
X36483Y-23042D01*
X35455Y-24070D01*
X35455Y-17650D01*
X35289Y-17483D01*
X35235Y-17518D01*
X35216Y-17687D01*
X35235Y-17781D01*
X35289Y-17816D01*
X35455Y-17650D01*
X35455Y-24070D01*
X34153Y-25372D01*
X34153Y-24957D01*
X34153Y-21957D01*
X34135Y-21866D01*
X34080Y-21828D01*
X33908Y-22000D01*
X34080Y-22171D01*
X34135Y-22133D01*
X34153Y-21957D01*
X34153Y-24957D01*
X34135Y-24866D01*
X34080Y-24828D01*
X33908Y-25000D01*
X34080Y-25171D01*
X34135Y-25133D01*
X34153Y-24957D01*
X34153Y-25372D01*
X33885Y-25640D01*
X33871Y-25634D01*
X33780Y-25596D01*
X33620Y-25596D01*
X33471Y-25657D01*
X33391Y-25737D01*
X33391Y-25334D01*
X33493Y-25437D01*
X33537Y-25393D01*
X33566Y-25435D01*
X33742Y-25453D01*
X33833Y-25435D01*
X33871Y-25380D01*
X33700Y-25208D01*
X33683Y-25225D01*
X33474Y-25016D01*
X33491Y-25000D01*
X33474Y-24983D01*
X33683Y-24774D01*
X33700Y-24791D01*
X33871Y-24619D01*
X33833Y-24564D01*
X33657Y-24546D01*
X33566Y-24564D01*
X33537Y-24606D01*
X33493Y-24562D01*
X33391Y-24665D01*
X33391Y-24262D01*
X33471Y-24341D01*
X33619Y-24403D01*
X33779Y-24403D01*
X33928Y-24342D01*
X34041Y-24228D01*
X34103Y-24080D01*
X34103Y-23920D01*
X34042Y-23771D01*
X33928Y-23658D01*
X33780Y-23596D01*
X33620Y-23596D01*
X33471Y-23657D01*
X33391Y-23737D01*
X33391Y-23262D01*
X33471Y-23341D01*
X33619Y-23403D01*
X33779Y-23403D01*
X33928Y-23342D01*
X34041Y-23228D01*
X34103Y-23080D01*
X34103Y-22920D01*
X34042Y-22771D01*
X33928Y-22658D01*
X33871Y-22634D01*
X33780Y-22596D01*
X33620Y-22596D01*
X33471Y-22657D01*
X33391Y-22737D01*
X33391Y-22334D01*
X33493Y-22437D01*
X33537Y-22393D01*
X33566Y-22435D01*
X33742Y-22453D01*
X33833Y-22435D01*
X33871Y-22380D01*
X33700Y-22208D01*
X33683Y-22225D01*
X33474Y-22016D01*
X33491Y-22000D01*
X33474Y-21983D01*
X33683Y-21774D01*
X33700Y-21791D01*
X33871Y-21619D01*
X33833Y-21564D01*
X33657Y-21546D01*
X33566Y-21564D01*
X33537Y-21606D01*
X33493Y-21562D01*
X33391Y-21665D01*
X33391Y-20956D01*
X33400Y-20978D01*
X33514Y-21092D01*
X33662Y-21153D01*
X33823Y-21153D01*
X33971Y-21092D01*
X34085Y-20979D01*
X34147Y-20830D01*
X34147Y-20670D01*
X34085Y-20521D01*
X33972Y-20407D01*
X33823Y-20346D01*
X33663Y-20346D01*
X33514Y-20407D01*
X33401Y-20520D01*
X33391Y-20543D01*
X33391Y-18956D01*
X33400Y-18978D01*
X33514Y-19092D01*
X33662Y-19153D01*
X33805Y-19153D01*
X33754Y-19278D01*
X33753Y-19564D01*
X33862Y-19828D01*
X34064Y-20031D01*
X34328Y-20140D01*
X34614Y-20141D01*
X34878Y-20031D01*
X35081Y-19829D01*
X35190Y-19565D01*
X35191Y-19280D01*
X35081Y-19015D01*
X35033Y-18967D01*
X35033Y-17574D01*
X34975Y-17433D01*
X34867Y-17325D01*
X34726Y-17266D01*
X34574Y-17266D01*
X34433Y-17324D01*
X34325Y-17432D01*
X34266Y-17573D01*
X34266Y-17725D01*
X34324Y-17866D01*
X34432Y-17974D01*
X34573Y-18033D01*
X34725Y-18033D01*
X34866Y-17975D01*
X34974Y-17867D01*
X35033Y-17726D01*
X35033Y-17574D01*
X35033Y-18967D01*
X34879Y-18813D01*
X34615Y-18704D01*
X34330Y-18703D01*
X34196Y-18758D01*
X34196Y-17706D01*
X34178Y-17616D01*
X34124Y-17578D01*
X33952Y-17750D01*
X34124Y-17921D01*
X34178Y-17883D01*
X34196Y-17706D01*
X34196Y-18758D01*
X34147Y-18779D01*
X34147Y-18670D01*
X34085Y-18521D01*
X33972Y-18407D01*
X33915Y-18384D01*
X33915Y-18130D01*
X33915Y-17369D01*
X33877Y-17314D01*
X33700Y-17296D01*
X33609Y-17314D01*
X33571Y-17369D01*
X33743Y-17541D01*
X33915Y-17369D01*
X33915Y-18130D01*
X33743Y-17958D01*
X33571Y-18130D01*
X33609Y-18185D01*
X33786Y-18203D01*
X33877Y-18185D01*
X33915Y-18130D01*
X33915Y-18384D01*
X33823Y-18346D01*
X33663Y-18346D01*
X33534Y-18399D01*
X33534Y-17750D01*
X33362Y-17578D01*
X33307Y-17616D01*
X33289Y-17793D01*
X33307Y-17883D01*
X33362Y-17921D01*
X33534Y-17750D01*
X33534Y-18399D01*
X33514Y-18407D01*
X33401Y-18520D01*
X33391Y-18543D01*
X33391Y-18500D01*
X33380Y-18445D01*
X33380Y-18445D01*
X33370Y-18430D01*
X33350Y-18399D01*
X33350Y-18399D01*
X33158Y-18207D01*
X33158Y-14319D01*
X33096Y-14169D01*
X32981Y-14054D01*
X32831Y-13991D01*
X32669Y-13991D01*
X32519Y-14053D01*
X32404Y-14168D01*
X32341Y-14318D01*
X32341Y-14480D01*
X32403Y-14630D01*
X32518Y-14745D01*
X32668Y-14808D01*
X32830Y-14808D01*
X32980Y-14746D01*
X33095Y-14631D01*
X33158Y-14481D01*
X33158Y-14319D01*
X33158Y-18207D01*
X33153Y-18203D01*
X33153Y-18170D01*
X33153Y-17170D01*
X33153Y-16170D01*
X33133Y-16120D01*
X33133Y-15224D01*
X33075Y-15083D01*
X32967Y-14975D01*
X32826Y-14916D01*
X32674Y-14916D01*
X32533Y-14974D01*
X32425Y-15082D01*
X32366Y-15223D01*
X32366Y-15375D01*
X32424Y-15516D01*
X32532Y-15624D01*
X32673Y-15683D01*
X32825Y-15683D01*
X32966Y-15625D01*
X33074Y-15517D01*
X33133Y-15376D01*
X33133Y-15224D01*
X33133Y-16120D01*
X33092Y-16021D01*
X32979Y-15907D01*
X32830Y-15846D01*
X32670Y-15846D01*
X32521Y-15907D01*
X32407Y-16020D01*
X32346Y-16169D01*
X32346Y-16329D01*
X32407Y-16478D01*
X32520Y-16592D01*
X32669Y-16653D01*
X32829Y-16653D01*
X32978Y-16592D01*
X33092Y-16479D01*
X33153Y-16330D01*
X33153Y-16170D01*
X33153Y-17170D01*
X33092Y-17021D01*
X32979Y-16907D01*
X32830Y-16846D01*
X32670Y-16846D01*
X32521Y-16907D01*
X32407Y-17020D01*
X32346Y-17169D01*
X32346Y-17329D01*
X32407Y-17478D01*
X32520Y-17592D01*
X32669Y-17653D01*
X32829Y-17653D01*
X32978Y-17592D01*
X33092Y-17479D01*
X33153Y-17330D01*
X33153Y-17170D01*
X33153Y-18170D01*
X33092Y-18021D01*
X32979Y-17907D01*
X32830Y-17846D01*
X32670Y-17846D01*
X32521Y-17907D01*
X32407Y-18020D01*
X32346Y-18169D01*
X32346Y-18329D01*
X32407Y-18478D01*
X32520Y-18592D01*
X32669Y-18653D01*
X32829Y-18653D01*
X32978Y-18592D01*
X33060Y-18510D01*
X33108Y-18558D01*
X33108Y-19059D01*
X33092Y-19021D01*
X32979Y-18907D01*
X32830Y-18846D01*
X32670Y-18846D01*
X32521Y-18907D01*
X32407Y-19020D01*
X32346Y-19169D01*
X32346Y-19329D01*
X32407Y-19478D01*
X32520Y-19592D01*
X32669Y-19653D01*
X32829Y-19653D01*
X32978Y-19592D01*
X33092Y-19479D01*
X33108Y-19440D01*
X33108Y-20059D01*
X33092Y-20021D01*
X32979Y-19907D01*
X32830Y-19846D01*
X32670Y-19846D01*
X32521Y-19907D01*
X32407Y-20020D01*
X32346Y-20169D01*
X32346Y-20329D01*
X32407Y-20478D01*
X32520Y-20592D01*
X32669Y-20653D01*
X32829Y-20653D01*
X32978Y-20592D01*
X33092Y-20479D01*
X33108Y-20440D01*
X33108Y-21059D01*
X33092Y-21021D01*
X32979Y-20907D01*
X32830Y-20846D01*
X32670Y-20846D01*
X32521Y-20907D01*
X32407Y-21020D01*
X32346Y-21169D01*
X32346Y-21329D01*
X32407Y-21478D01*
X32520Y-21592D01*
X32669Y-21653D01*
X32829Y-21653D01*
X32978Y-21592D01*
X33092Y-21479D01*
X33108Y-21440D01*
X33108Y-22059D01*
X33092Y-22021D01*
X32979Y-21907D01*
X32830Y-21846D01*
X32670Y-21846D01*
X32521Y-21907D01*
X32407Y-22020D01*
X32346Y-22169D01*
X32346Y-22329D01*
X32407Y-22478D01*
X32520Y-22592D01*
X32669Y-22653D01*
X32829Y-22653D01*
X32978Y-22592D01*
X33092Y-22479D01*
X33108Y-22440D01*
X33108Y-23059D01*
X33092Y-23021D01*
X32979Y-22907D01*
X32830Y-22846D01*
X32670Y-22846D01*
X32521Y-22907D01*
X32407Y-23020D01*
X32346Y-23169D01*
X32346Y-23329D01*
X32407Y-23478D01*
X32520Y-23592D01*
X32669Y-23653D01*
X32829Y-23653D01*
X32978Y-23592D01*
X33092Y-23479D01*
X33108Y-23440D01*
X33108Y-24100D01*
X32958Y-24250D01*
X33108Y-24399D01*
X33108Y-25100D01*
X32958Y-25250D01*
X33108Y-25399D01*
X33108Y-26059D01*
X33092Y-26021D01*
X32979Y-25907D01*
X32921Y-25884D01*
X32921Y-25630D01*
X32921Y-24869D01*
X32921Y-24630D01*
X32921Y-23869D01*
X32883Y-23814D01*
X32706Y-23796D01*
X32616Y-23814D01*
X32578Y-23869D01*
X32750Y-24041D01*
X32921Y-23869D01*
X32921Y-24630D01*
X32750Y-24458D01*
X32578Y-24630D01*
X32616Y-24685D01*
X32793Y-24703D01*
X32883Y-24685D01*
X32921Y-24630D01*
X32921Y-24869D01*
X32883Y-24814D01*
X32706Y-24796D01*
X32616Y-24814D01*
X32578Y-24869D01*
X32750Y-25041D01*
X32921Y-24869D01*
X32921Y-25630D01*
X32750Y-25458D01*
X32578Y-25630D01*
X32616Y-25685D01*
X32793Y-25703D01*
X32883Y-25685D01*
X32921Y-25630D01*
X32921Y-25884D01*
X32830Y-25846D01*
X32670Y-25846D01*
X32541Y-25899D01*
X32541Y-25250D01*
X32541Y-24250D01*
X32369Y-24078D01*
X32314Y-24116D01*
X32296Y-24293D01*
X32314Y-24383D01*
X32369Y-24421D01*
X32541Y-24250D01*
X32541Y-25250D01*
X32369Y-25078D01*
X32314Y-25116D01*
X32296Y-25293D01*
X32314Y-25383D01*
X32369Y-25421D01*
X32541Y-25250D01*
X32541Y-25899D01*
X32521Y-25907D01*
X32407Y-26020D01*
X32346Y-26169D01*
X32346Y-26329D01*
X32407Y-26478D01*
X32520Y-26592D01*
X32669Y-26653D01*
X32829Y-26653D01*
X32978Y-26592D01*
X33092Y-26479D01*
X33108Y-26440D01*
X33108Y-27059D01*
X33092Y-27021D01*
X32979Y-26907D01*
X32830Y-26846D01*
X32670Y-26846D01*
X32521Y-26907D01*
X32407Y-27020D01*
X32346Y-27169D01*
X32346Y-27329D01*
X32407Y-27478D01*
X32520Y-27592D01*
X32608Y-27628D01*
X32608Y-27741D01*
X32158Y-28191D01*
X32158Y-14678D01*
X32158Y-14078D01*
X32141Y-14038D01*
X32111Y-14008D01*
X32071Y-13991D01*
X32028Y-13991D01*
X31428Y-13991D01*
X31388Y-14008D01*
X31358Y-14038D01*
X31341Y-14078D01*
X31341Y-14121D01*
X31341Y-14721D01*
X31358Y-14761D01*
X31388Y-14791D01*
X31428Y-14808D01*
X31471Y-14808D01*
X32071Y-14808D01*
X32111Y-14791D01*
X32141Y-14761D01*
X32158Y-14721D01*
X32158Y-14678D01*
X32158Y-28191D01*
X32141Y-28208D01*
X31483Y-28208D01*
X31524Y-28167D01*
X31583Y-28026D01*
X31583Y-27874D01*
X31583Y-27074D01*
X31525Y-26933D01*
X31417Y-26825D01*
X31276Y-26766D01*
X31124Y-26766D01*
X30983Y-26824D01*
X30875Y-26932D01*
X30816Y-27073D01*
X30816Y-27225D01*
X30874Y-27366D01*
X30982Y-27474D01*
X31123Y-27533D01*
X31275Y-27533D01*
X31416Y-27475D01*
X31524Y-27367D01*
X31583Y-27226D01*
X31583Y-27074D01*
X31583Y-27874D01*
X31525Y-27733D01*
X31417Y-27625D01*
X31276Y-27566D01*
X31124Y-27566D01*
X30983Y-27624D01*
X30875Y-27732D01*
X30816Y-27873D01*
X30816Y-28025D01*
X30874Y-28166D01*
X30916Y-28208D01*
X30794Y-28208D01*
X30794Y-16335D01*
X30744Y-16216D01*
X30653Y-16124D01*
X30534Y-16075D01*
X30404Y-16075D01*
X30285Y-16124D01*
X30194Y-16215D01*
X30158Y-16302D01*
X30158Y-12605D01*
X30140Y-12515D01*
X30085Y-12476D01*
X29912Y-12650D01*
X30085Y-12823D01*
X30140Y-12784D01*
X30158Y-12605D01*
X30158Y-16302D01*
X30144Y-16335D01*
X30144Y-16464D01*
X30193Y-16583D01*
X30285Y-16675D01*
X30404Y-16724D01*
X30533Y-16724D01*
X30653Y-16675D01*
X30744Y-16584D01*
X30794Y-16464D01*
X30794Y-16335D01*
X30794Y-28208D01*
X30133Y-28208D01*
X30133Y-15224D01*
X30075Y-15083D01*
X29967Y-14975D01*
X29873Y-14936D01*
X29873Y-13035D01*
X29873Y-12264D01*
X29834Y-12209D01*
X29655Y-12191D01*
X29565Y-12209D01*
X29526Y-12264D01*
X29700Y-12437D01*
X29873Y-12264D01*
X29873Y-13035D01*
X29700Y-12862D01*
X29526Y-13035D01*
X29565Y-13090D01*
X29744Y-13108D01*
X29834Y-13090D01*
X29873Y-13035D01*
X29873Y-14936D01*
X29826Y-14916D01*
X29674Y-14916D01*
X29533Y-14974D01*
X29487Y-15020D01*
X29487Y-12650D01*
X29314Y-12476D01*
X29259Y-12515D01*
X29241Y-12694D01*
X29259Y-12784D01*
X29314Y-12823D01*
X29487Y-12650D01*
X29487Y-15020D01*
X29425Y-15082D01*
X29366Y-15223D01*
X29366Y-15375D01*
X29424Y-15516D01*
X29532Y-15624D01*
X29673Y-15683D01*
X29825Y-15683D01*
X29966Y-15625D01*
X30074Y-15517D01*
X30133Y-15376D01*
X30133Y-15224D01*
X30133Y-28208D01*
X29455Y-28208D01*
X29455Y-16335D01*
X29406Y-16216D01*
X29314Y-16124D01*
X29195Y-16075D01*
X29158Y-16075D01*
X29158Y-12605D01*
X29140Y-12515D01*
X29085Y-12476D01*
X28912Y-12650D01*
X29085Y-12823D01*
X29140Y-12784D01*
X29158Y-12605D01*
X29158Y-16075D01*
X29066Y-16075D01*
X28946Y-16124D01*
X28873Y-16198D01*
X28873Y-13035D01*
X28873Y-12264D01*
X28834Y-12209D01*
X28655Y-12191D01*
X28565Y-12209D01*
X28526Y-12264D01*
X28700Y-12437D01*
X28873Y-12264D01*
X28873Y-13035D01*
X28700Y-12862D01*
X28526Y-13035D01*
X28565Y-13090D01*
X28744Y-13108D01*
X28834Y-13090D01*
X28873Y-13035D01*
X28873Y-16198D01*
X28855Y-16215D01*
X28805Y-16335D01*
X28805Y-16464D01*
X28855Y-16583D01*
X28946Y-16675D01*
X29065Y-16724D01*
X29195Y-16724D01*
X29314Y-16675D01*
X29405Y-16584D01*
X29455Y-16464D01*
X29455Y-16335D01*
X29455Y-28208D01*
X28648Y-28208D01*
X28648Y-25611D01*
X28542Y-25354D01*
X28346Y-25157D01*
X28089Y-25051D01*
X27811Y-25051D01*
X27554Y-25157D01*
X27357Y-25353D01*
X27251Y-25610D01*
X27251Y-25888D01*
X27357Y-26145D01*
X27553Y-26342D01*
X27810Y-26448D01*
X28088Y-26448D01*
X28345Y-26342D01*
X28542Y-26146D01*
X28648Y-25889D01*
X28648Y-25611D01*
X28648Y-28208D01*
X28483Y-28208D01*
X28524Y-28167D01*
X28583Y-28026D01*
X28583Y-27874D01*
X28583Y-27074D01*
X28525Y-26933D01*
X28417Y-26825D01*
X28276Y-26766D01*
X28124Y-26766D01*
X27983Y-26824D01*
X27875Y-26932D01*
X27816Y-27073D01*
X27816Y-27225D01*
X27874Y-27366D01*
X27982Y-27474D01*
X28123Y-27533D01*
X28275Y-27533D01*
X28416Y-27475D01*
X28524Y-27367D01*
X28583Y-27226D01*
X28583Y-27074D01*
X28583Y-27874D01*
X28525Y-27733D01*
X28417Y-27625D01*
X28276Y-27566D01*
X28124Y-27566D01*
X27983Y-27624D01*
X27875Y-27732D01*
X27816Y-27873D01*
X27816Y-28025D01*
X27874Y-28166D01*
X27916Y-28208D01*
X27203Y-28208D01*
X27203Y-26206D01*
X27185Y-26116D01*
X27130Y-26078D01*
X26958Y-26250D01*
X27130Y-26421D01*
X27185Y-26383D01*
X27203Y-26206D01*
X27203Y-28208D01*
X27153Y-28208D01*
X27153Y-27170D01*
X27092Y-27021D01*
X26979Y-26907D01*
X26921Y-26884D01*
X26921Y-26630D01*
X26921Y-25869D01*
X26883Y-25814D01*
X26706Y-25796D01*
X26616Y-25814D01*
X26578Y-25869D01*
X26750Y-26041D01*
X26921Y-25869D01*
X26921Y-26630D01*
X26750Y-26458D01*
X26578Y-26630D01*
X26616Y-26685D01*
X26793Y-26703D01*
X26883Y-26685D01*
X26921Y-26630D01*
X26921Y-26884D01*
X26830Y-26846D01*
X26670Y-26846D01*
X26521Y-26907D01*
X26407Y-27020D01*
X26346Y-27169D01*
X26346Y-27329D01*
X26407Y-27478D01*
X26520Y-27592D01*
X26669Y-27653D01*
X26829Y-27653D01*
X26978Y-27592D01*
X27092Y-27479D01*
X27153Y-27330D01*
X27153Y-27170D01*
X27153Y-28208D01*
X25312Y-28208D01*
X25342Y-28179D01*
X25403Y-28030D01*
X25403Y-27870D01*
X25342Y-27721D01*
X25279Y-27658D01*
X25500Y-27658D01*
X25560Y-27646D01*
X25611Y-27611D01*
X26361Y-26861D01*
X26361Y-26861D01*
X26361Y-26861D01*
X26396Y-26810D01*
X26396Y-26810D01*
X26406Y-26760D01*
X26408Y-26750D01*
X26408Y-26750D01*
X26408Y-26750D01*
X26408Y-26382D01*
X26541Y-26250D01*
X26408Y-26117D01*
X26408Y-25479D01*
X26520Y-25592D01*
X26669Y-25653D01*
X26829Y-25653D01*
X26978Y-25592D01*
X27092Y-25479D01*
X27153Y-25330D01*
X27153Y-25170D01*
X27092Y-25021D01*
X26979Y-24907D01*
X26830Y-24846D01*
X26670Y-24846D01*
X26521Y-24907D01*
X26408Y-25020D01*
X26408Y-24750D01*
X26408Y-24715D01*
X26528Y-24595D01*
X26669Y-24653D01*
X26829Y-24653D01*
X26978Y-24592D01*
X27092Y-24479D01*
X27153Y-24330D01*
X27153Y-24170D01*
X27092Y-24021D01*
X26979Y-23907D01*
X26927Y-23886D01*
X26954Y-23880D01*
X27000Y-23850D01*
X27300Y-23550D01*
X27300Y-23550D01*
X27320Y-23519D01*
X27330Y-23504D01*
X27330Y-23504D01*
X27341Y-23450D01*
X27341Y-23450D01*
X27341Y-22607D01*
X27357Y-22645D01*
X27553Y-22842D01*
X27810Y-22948D01*
X28088Y-22948D01*
X28345Y-22842D01*
X28542Y-22646D01*
X28648Y-22389D01*
X28648Y-22111D01*
X28542Y-21854D01*
X28487Y-21799D01*
X28487Y-12650D01*
X28314Y-12476D01*
X28259Y-12515D01*
X28241Y-12694D01*
X28259Y-12784D01*
X28314Y-12823D01*
X28487Y-12650D01*
X28487Y-21799D01*
X28346Y-21657D01*
X28108Y-21559D01*
X28108Y-15378D01*
X28108Y-14778D01*
X28091Y-14738D01*
X28061Y-14708D01*
X28021Y-14691D01*
X27978Y-14691D01*
X27904Y-14691D01*
X27904Y-12568D01*
X27765Y-12232D01*
X27508Y-11974D01*
X27171Y-11834D01*
X26807Y-11834D01*
X26471Y-11973D01*
X26213Y-12230D01*
X26073Y-12567D01*
X26073Y-12931D01*
X26212Y-13267D01*
X26469Y-13525D01*
X26806Y-13665D01*
X27170Y-13665D01*
X27506Y-13526D01*
X27764Y-13269D01*
X27904Y-12932D01*
X27904Y-12568D01*
X27904Y-14691D01*
X27378Y-14691D01*
X27338Y-14708D01*
X27308Y-14738D01*
X27291Y-14778D01*
X27291Y-14821D01*
X27291Y-15421D01*
X27308Y-15461D01*
X27338Y-15491D01*
X27378Y-15508D01*
X27421Y-15508D01*
X28021Y-15508D01*
X28061Y-15491D01*
X28091Y-15461D01*
X28108Y-15421D01*
X28108Y-15378D01*
X28108Y-21559D01*
X28089Y-21551D01*
X27811Y-21551D01*
X27554Y-21657D01*
X27357Y-21853D01*
X27341Y-21892D01*
X27341Y-18700D01*
X27330Y-18645D01*
X27300Y-18599D01*
X27300Y-18599D01*
X27117Y-18417D01*
X27153Y-18330D01*
X27153Y-18170D01*
X27092Y-18021D01*
X26979Y-17907D01*
X26830Y-17846D01*
X26670Y-17846D01*
X26521Y-17907D01*
X26441Y-17987D01*
X26441Y-17512D01*
X26520Y-17592D01*
X26669Y-17653D01*
X26829Y-17653D01*
X26978Y-17592D01*
X27092Y-17479D01*
X27153Y-17330D01*
X27153Y-17170D01*
X27153Y-16170D01*
X27108Y-16059D01*
X27108Y-15019D01*
X27046Y-14869D01*
X26931Y-14754D01*
X26781Y-14691D01*
X26619Y-14691D01*
X26469Y-14753D01*
X26354Y-14868D01*
X26291Y-15018D01*
X26291Y-15180D01*
X26353Y-15330D01*
X26468Y-15445D01*
X26618Y-15508D01*
X26780Y-15508D01*
X26930Y-15446D01*
X27045Y-15331D01*
X27108Y-15181D01*
X27108Y-15019D01*
X27108Y-16059D01*
X27092Y-16021D01*
X26979Y-15907D01*
X26830Y-15846D01*
X26670Y-15846D01*
X26521Y-15907D01*
X26407Y-16020D01*
X26346Y-16169D01*
X26346Y-16329D01*
X26407Y-16478D01*
X26520Y-16592D01*
X26669Y-16653D01*
X26829Y-16653D01*
X26978Y-16592D01*
X27092Y-16479D01*
X27153Y-16330D01*
X27153Y-16170D01*
X27153Y-17170D01*
X27092Y-17021D01*
X26979Y-16907D01*
X26830Y-16846D01*
X26670Y-16846D01*
X26521Y-16907D01*
X26441Y-16987D01*
X26441Y-16800D01*
X26432Y-16754D01*
X26430Y-16745D01*
X26430Y-16745D01*
X26400Y-16699D01*
X26400Y-16699D01*
X25635Y-15934D01*
X25589Y-15904D01*
X25535Y-15893D01*
X25288Y-15893D01*
X25288Y-11399D01*
X25270Y-11310D01*
X25214Y-11266D01*
X25031Y-11450D01*
X25214Y-11633D01*
X25270Y-11589D01*
X25288Y-11399D01*
X25288Y-15893D01*
X25212Y-15893D01*
X25212Y-15816D01*
X25196Y-15776D01*
X25165Y-15746D01*
X25126Y-15729D01*
X25083Y-15729D01*
X24983Y-15729D01*
X24983Y-11864D01*
X24983Y-11035D01*
X24939Y-10979D01*
X24749Y-10961D01*
X24660Y-10979D01*
X24616Y-11035D01*
X24800Y-11218D01*
X24983Y-11035D01*
X24983Y-11864D01*
X24800Y-11681D01*
X24616Y-11864D01*
X24660Y-11920D01*
X24850Y-11938D01*
X24939Y-11920D01*
X24983Y-11864D01*
X24983Y-15729D01*
X24608Y-15729D01*
X24608Y-12628D01*
X24608Y-12028D01*
X24591Y-11988D01*
X24568Y-11965D01*
X24568Y-11450D01*
X24385Y-11266D01*
X24329Y-11310D01*
X24311Y-11500D01*
X24329Y-11589D01*
X24385Y-11633D01*
X24568Y-11450D01*
X24568Y-11965D01*
X24561Y-11958D01*
X24521Y-11941D01*
X24478Y-11941D01*
X23878Y-11941D01*
X23838Y-11958D01*
X23808Y-11988D01*
X23791Y-12028D01*
X23791Y-12071D01*
X23791Y-12671D01*
X23808Y-12711D01*
X23838Y-12741D01*
X23878Y-12758D01*
X23921Y-12758D01*
X24521Y-12758D01*
X24561Y-12741D01*
X24591Y-12711D01*
X24608Y-12671D01*
X24608Y-12628D01*
X24608Y-15729D01*
X24492Y-15729D01*
X24452Y-15746D01*
X24421Y-15776D01*
X24405Y-15816D01*
X24405Y-15859D01*
X24405Y-16253D01*
X24421Y-16293D01*
X24452Y-16323D01*
X24468Y-16330D01*
X24452Y-16337D01*
X24421Y-16367D01*
X24405Y-16407D01*
X24405Y-16450D01*
X24405Y-16844D01*
X24421Y-16884D01*
X24452Y-16914D01*
X24491Y-16931D01*
X24534Y-16931D01*
X25125Y-16931D01*
X25165Y-16914D01*
X25196Y-16884D01*
X25212Y-16844D01*
X25212Y-16801D01*
X25212Y-16767D01*
X25867Y-16767D01*
X26008Y-16908D01*
X26008Y-20650D01*
X26019Y-20704D01*
X26049Y-20750D01*
X26382Y-21082D01*
X26346Y-21169D01*
X26346Y-21329D01*
X26407Y-21478D01*
X26520Y-21592D01*
X26669Y-21653D01*
X26829Y-21653D01*
X26978Y-21592D01*
X27058Y-21512D01*
X27058Y-21987D01*
X26979Y-21907D01*
X26830Y-21846D01*
X26670Y-21846D01*
X26521Y-21907D01*
X26407Y-22020D01*
X26371Y-22108D01*
X25858Y-22108D01*
X25618Y-21868D01*
X25618Y-17956D01*
X25585Y-17876D01*
X25523Y-17814D01*
X25443Y-17781D01*
X25356Y-17781D01*
X25276Y-17814D01*
X25232Y-17858D01*
X23688Y-17858D01*
X23688Y-11399D01*
X23670Y-11310D01*
X23614Y-11266D01*
X23431Y-11450D01*
X23614Y-11633D01*
X23670Y-11589D01*
X23688Y-11399D01*
X23688Y-17858D01*
X21246Y-17858D01*
X21246Y-14077D01*
X21197Y-13958D01*
X21106Y-13866D01*
X20986Y-13817D01*
X20857Y-13817D01*
X20738Y-13866D01*
X20646Y-13957D01*
X20597Y-14077D01*
X20597Y-14206D01*
X20646Y-14325D01*
X20737Y-14417D01*
X20857Y-14466D01*
X20986Y-14466D01*
X21105Y-14417D01*
X21197Y-14326D01*
X21246Y-14206D01*
X21246Y-14077D01*
X21246Y-17858D01*
X20917Y-17858D01*
X20873Y-17814D01*
X20793Y-17781D01*
X20706Y-17781D01*
X20626Y-17814D01*
X20564Y-17876D01*
X20531Y-17956D01*
X20531Y-18043D01*
X20551Y-18092D01*
X20523Y-18064D01*
X20443Y-18031D01*
X20356Y-18031D01*
X20276Y-18064D01*
X20214Y-18126D01*
X20181Y-18206D01*
X20181Y-18293D01*
X20201Y-18342D01*
X20173Y-18314D01*
X20093Y-18281D01*
X20006Y-18281D01*
X19926Y-18314D01*
X19864Y-18376D01*
X19831Y-18456D01*
X19831Y-18543D01*
X19864Y-18623D01*
X19926Y-18685D01*
X20006Y-18718D01*
X20093Y-18718D01*
X20173Y-18685D01*
X20217Y-18641D01*
X24382Y-18641D01*
X24426Y-18685D01*
X24506Y-18718D01*
X24593Y-18718D01*
X24673Y-18685D01*
X24735Y-18623D01*
X24768Y-18543D01*
X24768Y-18456D01*
X24741Y-18391D01*
X24932Y-18391D01*
X24976Y-18435D01*
X25056Y-18468D01*
X25143Y-18468D01*
X25223Y-18435D01*
X25285Y-18373D01*
X25318Y-18293D01*
X25318Y-18206D01*
X25316Y-18201D01*
X25356Y-18218D01*
X25443Y-18218D01*
X25523Y-18185D01*
X25585Y-18123D01*
X25618Y-18043D01*
X25618Y-17956D01*
X25618Y-21868D01*
X25200Y-21449D01*
X25154Y-21419D01*
X25100Y-21408D01*
X21258Y-21408D01*
X18538Y-18687D01*
X18538Y-11399D01*
X18520Y-11310D01*
X18464Y-11266D01*
X18281Y-11450D01*
X18464Y-11633D01*
X18520Y-11589D01*
X18538Y-11399D01*
X18538Y-18687D01*
X18100Y-18250D01*
X18100Y-16931D01*
X18275Y-16931D01*
X18315Y-16914D01*
X18346Y-16884D01*
X18362Y-16844D01*
X18362Y-16801D01*
X18362Y-16407D01*
X18346Y-16367D01*
X18315Y-16337D01*
X18299Y-16330D01*
X18315Y-16323D01*
X18346Y-16293D01*
X18362Y-16253D01*
X18362Y-16210D01*
X18362Y-15816D01*
X18346Y-15776D01*
X18315Y-15746D01*
X18276Y-15729D01*
X18233Y-15729D01*
X18233Y-11864D01*
X18233Y-11035D01*
X18189Y-10979D01*
X17999Y-10961D01*
X17910Y-10979D01*
X17866Y-11035D01*
X18050Y-11218D01*
X18233Y-11035D01*
X18233Y-11864D01*
X18050Y-11681D01*
X17866Y-11864D01*
X17910Y-11920D01*
X18100Y-11938D01*
X18189Y-11920D01*
X18233Y-11864D01*
X18233Y-15729D01*
X18233Y-15729D01*
X17642Y-15729D01*
X17602Y-15746D01*
X17571Y-15776D01*
X17555Y-15816D01*
X17555Y-15859D01*
X17555Y-15907D01*
X17545Y-15914D01*
X17514Y-15934D01*
X17449Y-15999D01*
X17419Y-16045D01*
X17408Y-16100D01*
X17408Y-18100D01*
X17419Y-18154D01*
X17449Y-18200D01*
X20991Y-21741D01*
X18350Y-21741D01*
X18289Y-21753D01*
X18238Y-21788D01*
X17847Y-22179D01*
X17815Y-22225D01*
X17642Y-22225D01*
X17602Y-22242D01*
X17584Y-22260D01*
X17358Y-22034D01*
X17358Y-12758D01*
X17771Y-12758D01*
X17811Y-12741D01*
X17841Y-12711D01*
X17858Y-12671D01*
X17858Y-12628D01*
X17858Y-12028D01*
X17841Y-11988D01*
X17818Y-11965D01*
X17818Y-11450D01*
X17635Y-11266D01*
X17579Y-11310D01*
X17561Y-11500D01*
X17579Y-11589D01*
X17635Y-11633D01*
X17818Y-11450D01*
X17818Y-11965D01*
X17811Y-11958D01*
X17771Y-11941D01*
X17728Y-11941D01*
X17128Y-11941D01*
X17088Y-11958D01*
X17058Y-11988D01*
X17041Y-12028D01*
X17041Y-12071D01*
X17041Y-12671D01*
X17041Y-12671D01*
X17041Y-22100D01*
X17053Y-22160D01*
X17088Y-22211D01*
X17519Y-22642D01*
X17555Y-22667D01*
X17555Y-22749D01*
X17571Y-22789D01*
X17577Y-22795D01*
X17577Y-22795D01*
X17535Y-22838D01*
X17512Y-22893D01*
X17512Y-22953D01*
X17512Y-22984D01*
X17549Y-23022D01*
X17811Y-23022D01*
X17811Y-22949D01*
X18106Y-22949D01*
X18106Y-23022D01*
X18130Y-23022D01*
X18130Y-23219D01*
X18106Y-23219D01*
X18106Y-23431D01*
X18144Y-23469D01*
X18284Y-23469D01*
X18340Y-23446D01*
X18382Y-23403D01*
X18405Y-23348D01*
X18406Y-23288D01*
X18406Y-23257D01*
X18406Y-23129D01*
X19742Y-24465D01*
X19675Y-24532D01*
X19616Y-24673D01*
X19616Y-24825D01*
X19674Y-24966D01*
X19782Y-25074D01*
X19923Y-25133D01*
X20075Y-25133D01*
X20216Y-25075D01*
X20324Y-24967D01*
X20383Y-24826D01*
X20383Y-24674D01*
X20325Y-24533D01*
X20217Y-24425D01*
X20100Y-24376D01*
X18362Y-22639D01*
X18362Y-22312D01*
X18346Y-22272D01*
X18315Y-22242D01*
X18276Y-22225D01*
X18248Y-22225D01*
X18415Y-22058D01*
X20674Y-22058D01*
X20563Y-22168D01*
X20498Y-22324D01*
X20498Y-22492D01*
X20562Y-22648D01*
X20681Y-22767D01*
X20837Y-22832D01*
X21005Y-22832D01*
X21161Y-22768D01*
X21280Y-22649D01*
X21345Y-22493D01*
X21345Y-22325D01*
X21281Y-22169D01*
X21169Y-22058D01*
X21284Y-22058D01*
X21869Y-22642D01*
X21869Y-22642D01*
X21920Y-22677D01*
X21981Y-22689D01*
X24405Y-22689D01*
X24405Y-22749D01*
X24421Y-22789D01*
X24427Y-22795D01*
X24427Y-22795D01*
X24385Y-22838D01*
X24362Y-22893D01*
X24362Y-22953D01*
X24362Y-22984D01*
X24399Y-23022D01*
X24661Y-23022D01*
X24661Y-22949D01*
X24956Y-22949D01*
X24956Y-23022D01*
X25218Y-23022D01*
X25256Y-22984D01*
X25256Y-22953D01*
X25255Y-22893D01*
X25232Y-22838D01*
X25190Y-22795D01*
X25190Y-22795D01*
X25196Y-22789D01*
X25212Y-22749D01*
X25212Y-22706D01*
X25212Y-22312D01*
X25196Y-22272D01*
X25165Y-22242D01*
X25126Y-22225D01*
X25083Y-22225D01*
X24492Y-22225D01*
X24452Y-22242D01*
X24421Y-22272D01*
X24405Y-22312D01*
X24405Y-22355D01*
X24405Y-22372D01*
X22046Y-22372D01*
X21515Y-21841D01*
X24991Y-21841D01*
X26346Y-23196D01*
X26346Y-23329D01*
X26407Y-23478D01*
X26520Y-23592D01*
X26559Y-23608D01*
X25256Y-23608D01*
X25256Y-23288D01*
X25256Y-23257D01*
X25218Y-23219D01*
X24956Y-23219D01*
X24956Y-23431D01*
X24994Y-23469D01*
X25134Y-23469D01*
X25190Y-23446D01*
X25232Y-23403D01*
X25255Y-23348D01*
X25256Y-23288D01*
X25256Y-23608D01*
X24661Y-23608D01*
X24661Y-23431D01*
X24661Y-23219D01*
X24399Y-23219D01*
X24362Y-23257D01*
X24362Y-23288D01*
X24362Y-23348D01*
X24385Y-23403D01*
X24427Y-23446D01*
X24483Y-23469D01*
X24623Y-23469D01*
X24661Y-23431D01*
X24661Y-23608D01*
X24000Y-23608D01*
X23945Y-23619D01*
X23899Y-23649D01*
X22783Y-24766D01*
X22783Y-24124D01*
X22725Y-23983D01*
X22617Y-23875D01*
X22476Y-23816D01*
X22324Y-23816D01*
X22183Y-23874D01*
X22075Y-23982D01*
X22016Y-24123D01*
X22016Y-24275D01*
X22074Y-24416D01*
X22182Y-24524D01*
X22323Y-24583D01*
X22475Y-24583D01*
X22616Y-24525D01*
X22724Y-24417D01*
X22783Y-24276D01*
X22783Y-24124D01*
X22783Y-24766D01*
X22737Y-24812D01*
X22725Y-24783D01*
X22617Y-24675D01*
X22476Y-24616D01*
X22324Y-24616D01*
X22183Y-24674D01*
X22075Y-24782D01*
X22016Y-24923D01*
X22016Y-25075D01*
X22074Y-25216D01*
X22182Y-25324D01*
X22323Y-25383D01*
X22475Y-25383D01*
X22616Y-25325D01*
X22724Y-25217D01*
X22756Y-25140D01*
X22804Y-25130D01*
X22850Y-25100D01*
X24058Y-23891D01*
X25286Y-23891D01*
X25400Y-24005D01*
X25513Y-23891D01*
X26559Y-23891D01*
X26521Y-23907D01*
X26407Y-24020D01*
X26346Y-24169D01*
X26346Y-24329D01*
X26346Y-24329D01*
X26138Y-24538D01*
X26103Y-24589D01*
X26091Y-24650D01*
X26091Y-24750D01*
X26091Y-26684D01*
X25833Y-26942D01*
X25833Y-26562D01*
X25833Y-25762D01*
X25833Y-24962D01*
X25833Y-24162D01*
X25814Y-24068D01*
X25760Y-24033D01*
X25594Y-24200D01*
X25760Y-24366D01*
X25814Y-24331D01*
X25833Y-24162D01*
X25833Y-24962D01*
X25814Y-24868D01*
X25760Y-24833D01*
X25594Y-25000D01*
X25760Y-25166D01*
X25814Y-25131D01*
X25833Y-24962D01*
X25833Y-25762D01*
X25814Y-25668D01*
X25760Y-25633D01*
X25594Y-25800D01*
X25760Y-25966D01*
X25814Y-25931D01*
X25833Y-25762D01*
X25833Y-26562D01*
X25814Y-26468D01*
X25760Y-26433D01*
X25594Y-26600D01*
X25760Y-26766D01*
X25814Y-26731D01*
X25833Y-26562D01*
X25833Y-26942D01*
X25566Y-27210D01*
X25566Y-26960D01*
X25566Y-26239D01*
X25540Y-26200D01*
X25566Y-26160D01*
X25566Y-25439D01*
X25540Y-25400D01*
X25566Y-25360D01*
X25566Y-24639D01*
X25540Y-24600D01*
X25566Y-24560D01*
X25400Y-24394D01*
X25233Y-24560D01*
X25259Y-24600D01*
X25233Y-24639D01*
X25400Y-24805D01*
X25566Y-24639D01*
X25566Y-25360D01*
X25400Y-25194D01*
X25233Y-25360D01*
X25259Y-25400D01*
X25233Y-25439D01*
X25400Y-25605D01*
X25566Y-25439D01*
X25566Y-26160D01*
X25400Y-25994D01*
X25233Y-26160D01*
X25259Y-26200D01*
X25233Y-26239D01*
X25400Y-26405D01*
X25566Y-26239D01*
X25566Y-26960D01*
X25400Y-26794D01*
X25233Y-26960D01*
X25268Y-27014D01*
X25437Y-27033D01*
X25531Y-27014D01*
X25566Y-26960D01*
X25566Y-27210D01*
X25434Y-27341D01*
X25205Y-27341D01*
X25205Y-26600D01*
X25205Y-25800D01*
X25205Y-25000D01*
X25205Y-24200D01*
X25039Y-24033D01*
X24985Y-24068D01*
X24966Y-24237D01*
X24985Y-24331D01*
X25039Y-24366D01*
X25205Y-24200D01*
X25205Y-25000D01*
X25039Y-24833D01*
X24985Y-24868D01*
X24966Y-25037D01*
X24985Y-25131D01*
X25039Y-25166D01*
X25205Y-25000D01*
X25205Y-25800D01*
X25039Y-25633D01*
X24985Y-25668D01*
X24966Y-25837D01*
X24985Y-25931D01*
X25039Y-25966D01*
X25205Y-25800D01*
X25205Y-26600D01*
X25039Y-26433D01*
X24985Y-26468D01*
X24966Y-26637D01*
X24985Y-26731D01*
X25039Y-26766D01*
X25205Y-26600D01*
X25205Y-27341D01*
X24800Y-27341D01*
X24750Y-27341D01*
X22783Y-27341D01*
X22783Y-26524D01*
X22783Y-25724D01*
X22725Y-25583D01*
X22617Y-25475D01*
X22476Y-25416D01*
X22324Y-25416D01*
X22183Y-25474D01*
X22075Y-25582D01*
X22016Y-25723D01*
X22016Y-25875D01*
X22074Y-26016D01*
X22182Y-26124D01*
X22323Y-26183D01*
X22475Y-26183D01*
X22616Y-26125D01*
X22724Y-26017D01*
X22783Y-25876D01*
X22783Y-25724D01*
X22783Y-26524D01*
X22725Y-26383D01*
X22617Y-26275D01*
X22476Y-26216D01*
X22324Y-26216D01*
X22183Y-26274D01*
X22075Y-26382D01*
X22016Y-26523D01*
X22016Y-26675D01*
X22074Y-26816D01*
X22182Y-26924D01*
X22323Y-26983D01*
X22475Y-26983D01*
X22616Y-26925D01*
X22724Y-26817D01*
X22783Y-26676D01*
X22783Y-26524D01*
X22783Y-27341D01*
X20178Y-27341D01*
X20166Y-27313D01*
X20136Y-27283D01*
X20096Y-27266D01*
X20053Y-27266D01*
X19503Y-27266D01*
X19463Y-27283D01*
X19434Y-27312D01*
X19433Y-27307D01*
X19433Y-24712D01*
X19414Y-24618D01*
X19360Y-24583D01*
X19194Y-24750D01*
X19360Y-24916D01*
X19414Y-24881D01*
X19433Y-24712D01*
X19433Y-27307D01*
X19430Y-27295D01*
X19430Y-27295D01*
X19420Y-27280D01*
X19400Y-27249D01*
X19400Y-27249D01*
X19166Y-27015D01*
X19166Y-25110D01*
X19166Y-24389D01*
X19131Y-24335D01*
X18962Y-24316D01*
X18868Y-24335D01*
X18833Y-24389D01*
X19000Y-24555D01*
X19166Y-24389D01*
X19166Y-25110D01*
X19000Y-24944D01*
X18833Y-25110D01*
X18868Y-25164D01*
X19037Y-25183D01*
X19131Y-25164D01*
X19166Y-25110D01*
X19166Y-27015D01*
X18805Y-26655D01*
X18805Y-24750D01*
X18639Y-24583D01*
X18585Y-24618D01*
X18566Y-24787D01*
X18585Y-24881D01*
X18639Y-24916D01*
X18805Y-24750D01*
X18805Y-26655D01*
X18406Y-26255D01*
X17900Y-25749D01*
X17858Y-25721D01*
X17858Y-25128D01*
X17858Y-24528D01*
X17841Y-24488D01*
X17811Y-24458D01*
X17811Y-24458D01*
X17811Y-23431D01*
X17811Y-23219D01*
X17549Y-23219D01*
X17512Y-23257D01*
X17512Y-23288D01*
X17512Y-23348D01*
X17535Y-23403D01*
X17577Y-23446D01*
X17633Y-23469D01*
X17773Y-23469D01*
X17811Y-23431D01*
X17811Y-24458D01*
X17771Y-24441D01*
X17728Y-24441D01*
X17128Y-24441D01*
X17088Y-24458D01*
X17058Y-24488D01*
X17041Y-24528D01*
X17041Y-24571D01*
X17041Y-25171D01*
X17058Y-25211D01*
X17088Y-25241D01*
X17128Y-25258D01*
X17171Y-25258D01*
X17771Y-25258D01*
X17811Y-25241D01*
X17841Y-25211D01*
X17858Y-25171D01*
X17858Y-25128D01*
X17858Y-25721D01*
X17854Y-25719D01*
X17836Y-25715D01*
X17796Y-25619D01*
X17681Y-25504D01*
X17531Y-25441D01*
X17369Y-25441D01*
X17219Y-25503D01*
X17104Y-25618D01*
X17041Y-25768D01*
X17041Y-25930D01*
X17103Y-26080D01*
X17218Y-26195D01*
X17368Y-26258D01*
X17530Y-26258D01*
X17680Y-26196D01*
X17795Y-26081D01*
X17806Y-26056D01*
X18984Y-27234D01*
X18951Y-27267D01*
X18931Y-27235D01*
X18762Y-27216D01*
X18668Y-27235D01*
X18633Y-27289D01*
X18800Y-27455D01*
X18823Y-27431D01*
X18966Y-27573D01*
X19018Y-27626D01*
X18994Y-27650D01*
X19158Y-27813D01*
X19158Y-28100D01*
X19169Y-28154D01*
X19199Y-28200D01*
X20501Y-29501D01*
X19183Y-29501D01*
X19183Y-28574D01*
X19125Y-28433D01*
X19017Y-28325D01*
X18966Y-28303D01*
X18966Y-28010D01*
X18800Y-27844D01*
X18633Y-28010D01*
X18668Y-28064D01*
X18837Y-28083D01*
X18931Y-28064D01*
X18966Y-28010D01*
X18966Y-28303D01*
X18876Y-28266D01*
X18724Y-28266D01*
X18605Y-28315D01*
X18605Y-27650D01*
X18439Y-27483D01*
X18385Y-27518D01*
X18366Y-27687D01*
X18385Y-27781D01*
X18439Y-27816D01*
X18605Y-27650D01*
X18605Y-28315D01*
X18583Y-28324D01*
X18475Y-28432D01*
X18416Y-28573D01*
X18416Y-28725D01*
X18474Y-28866D01*
X18582Y-28974D01*
X18723Y-29033D01*
X18875Y-29033D01*
X19016Y-28975D01*
X19124Y-28867D01*
X19183Y-28726D01*
X19183Y-28574D01*
X19183Y-29501D01*
X17858Y-29501D01*
X17858Y-26769D01*
X17796Y-26619D01*
X17681Y-26504D01*
X17531Y-26441D01*
X17369Y-26441D01*
X17219Y-26503D01*
X17104Y-26618D01*
X17066Y-26708D01*
X16938Y-26708D01*
X16938Y-11399D01*
X16920Y-11310D01*
X16864Y-11266D01*
X16681Y-11450D01*
X16864Y-11633D01*
X16920Y-11589D01*
X16938Y-11399D01*
X16938Y-26708D01*
X16858Y-26708D01*
X16858Y-12269D01*
X16796Y-12119D01*
X16681Y-12004D01*
X16633Y-11984D01*
X16633Y-11864D01*
X16450Y-11681D01*
X16266Y-11864D01*
X16310Y-11920D01*
X16500Y-11938D01*
X16589Y-11920D01*
X16633Y-11864D01*
X16633Y-11984D01*
X16531Y-11941D01*
X16369Y-11941D01*
X16219Y-12003D01*
X16218Y-12003D01*
X16218Y-11450D01*
X16035Y-11266D01*
X15979Y-11310D01*
X15961Y-11500D01*
X15979Y-11589D01*
X16035Y-11633D01*
X16218Y-11450D01*
X16218Y-12003D01*
X16104Y-12118D01*
X16041Y-12268D01*
X16041Y-12430D01*
X16103Y-12580D01*
X16218Y-12695D01*
X16368Y-12758D01*
X16530Y-12758D01*
X16680Y-12696D01*
X16795Y-12581D01*
X16858Y-12431D01*
X16858Y-12269D01*
X16858Y-26708D01*
X16500Y-26708D01*
X16454Y-26717D01*
X16445Y-26719D01*
X16399Y-26749D01*
X15883Y-27266D01*
X15883Y-12112D01*
X15864Y-12018D01*
X15810Y-11983D01*
X15644Y-12150D01*
X15810Y-12316D01*
X15864Y-12281D01*
X15883Y-12112D01*
X15883Y-27266D01*
X15616Y-27533D01*
X15616Y-12510D01*
X15450Y-12344D01*
X15283Y-12510D01*
X15318Y-12564D01*
X15487Y-12583D01*
X15581Y-12564D01*
X15616Y-12510D01*
X15616Y-27533D01*
X15255Y-27894D01*
X15255Y-12150D01*
X15089Y-11983D01*
X15035Y-12018D01*
X15016Y-12187D01*
X15035Y-12281D01*
X15089Y-12316D01*
X15255Y-12150D01*
X15255Y-27894D01*
X14649Y-28499D01*
X14619Y-28545D01*
X14608Y-28600D01*
X14608Y-28617D01*
X14519Y-28654D01*
X14404Y-28768D01*
X14342Y-28918D01*
X14342Y-29080D01*
X14404Y-29230D01*
X14518Y-29345D01*
X14668Y-29407D01*
X14830Y-29407D01*
X14980Y-29345D01*
X15095Y-29231D01*
X15157Y-29081D01*
X15157Y-28919D01*
X15095Y-28769D01*
X14981Y-28654D01*
X14920Y-28629D01*
X16558Y-26991D01*
X17066Y-26991D01*
X17103Y-27080D01*
X17218Y-27195D01*
X17368Y-27258D01*
X17530Y-27258D01*
X17680Y-27196D01*
X17795Y-27081D01*
X17858Y-26931D01*
X17858Y-26769D01*
X17858Y-29501D01*
X16157Y-29501D01*
X16157Y-28919D01*
X16095Y-28769D01*
X15981Y-28654D01*
X15831Y-28592D01*
X15669Y-28592D01*
X15519Y-28654D01*
X15404Y-28768D01*
X15342Y-28918D01*
X15342Y-29080D01*
X15404Y-29230D01*
X15518Y-29345D01*
X15668Y-29407D01*
X15830Y-29407D01*
X15980Y-29345D01*
X16095Y-29231D01*
X16157Y-29081D01*
X16157Y-28919D01*
X16157Y-29501D01*
X14207Y-29501D01*
X14207Y-28955D01*
X14189Y-28865D01*
X14134Y-28827D01*
X13961Y-29000D01*
X14134Y-29172D01*
X14189Y-29134D01*
X14207Y-28955D01*
X14207Y-29501D01*
X13922Y-29501D01*
X13922Y-29384D01*
X13922Y-28615D01*
X13884Y-28560D01*
X13705Y-28542D01*
X13615Y-28560D01*
X13577Y-28615D01*
X13750Y-28788D01*
X13922Y-28615D01*
X13922Y-29384D01*
X13750Y-29211D01*
X13577Y-29384D01*
X13615Y-29439D01*
X13794Y-29457D01*
X13884Y-29439D01*
X13922Y-29384D01*
X13922Y-29501D01*
X13538Y-29501D01*
X13538Y-29000D01*
X13365Y-28827D01*
X13310Y-28865D01*
X13292Y-29044D01*
X13310Y-29134D01*
X13365Y-29172D01*
X13538Y-29000D01*
X13538Y-29501D01*
X13157Y-29501D01*
X13157Y-28919D01*
X13095Y-28769D01*
X12981Y-28654D01*
X12831Y-28592D01*
X12669Y-28592D01*
X12519Y-28654D01*
X12404Y-28768D01*
X12342Y-28918D01*
X12342Y-29080D01*
X12404Y-29230D01*
X12518Y-29345D01*
X12668Y-29407D01*
X12830Y-29407D01*
X12980Y-29345D01*
X13095Y-29231D01*
X13157Y-29081D01*
X13157Y-28919D01*
X13157Y-29501D01*
X11685Y-29501D01*
X11685Y-28562D01*
X11685Y-10845D01*
X11578Y-10587D01*
X11381Y-10390D01*
X11124Y-10283D01*
X10845Y-10283D01*
X10587Y-10389D01*
X10390Y-10586D01*
X10283Y-10844D01*
X10283Y-11123D01*
X10389Y-11380D01*
X10586Y-11578D01*
X10844Y-11684D01*
X11123Y-11685D01*
X11380Y-11578D01*
X11578Y-11381D01*
X11684Y-11124D01*
X11685Y-10845D01*
X11685Y-28562D01*
X11641Y-28456D01*
X11641Y-22669D01*
X11580Y-22521D01*
X11466Y-22407D01*
X11318Y-22346D01*
X11157Y-22345D01*
X11009Y-22407D01*
X10895Y-22520D01*
X10834Y-22668D01*
X10834Y-22829D01*
X10895Y-22977D01*
X11008Y-23091D01*
X11157Y-23153D01*
X11317Y-23153D01*
X11466Y-23091D01*
X11579Y-22978D01*
X11641Y-22830D01*
X11641Y-22669D01*
X11641Y-28456D01*
X11578Y-28304D01*
X11381Y-28107D01*
X11124Y-28000D01*
X10845Y-27999D01*
X10587Y-28106D01*
X10390Y-28303D01*
X10283Y-28560D01*
X10283Y-28839D01*
X10389Y-29097D01*
X10586Y-29294D01*
X10844Y-29401D01*
X11123Y-29401D01*
X11380Y-29295D01*
X11578Y-29098D01*
X11684Y-28840D01*
X11685Y-28562D01*
X11685Y-29501D01*
X11003Y-29501D01*
X10678Y-29437D01*
X10421Y-29265D01*
X10247Y-29005D01*
X10183Y-28682D01*
X10183Y-11002D01*
X10247Y-10679D01*
X10421Y-10419D01*
X10678Y-10247D01*
X11003Y-10183D01*
X12333Y-10183D01*
X12233Y-10224D01*
X12125Y-10332D01*
X12066Y-10473D01*
X12066Y-10625D01*
X12124Y-10766D01*
X12232Y-10874D01*
X12373Y-10933D01*
X12525Y-10933D01*
X12666Y-10875D01*
X12770Y-10771D01*
X13258Y-11258D01*
X13258Y-11657D01*
X12850Y-11249D01*
X12813Y-11224D01*
X12775Y-11133D01*
X12667Y-11025D01*
X12526Y-10966D01*
X12374Y-10966D01*
X12233Y-11024D01*
X12125Y-11132D01*
X12066Y-11273D01*
X12066Y-11425D01*
X12124Y-11566D01*
X12232Y-11674D01*
X12373Y-11733D01*
X12525Y-11733D01*
X12666Y-11675D01*
X12770Y-11571D01*
X13108Y-11908D01*
X13108Y-12307D01*
X12850Y-12049D01*
X12813Y-12024D01*
X12775Y-11933D01*
X12667Y-11825D01*
X12526Y-11766D01*
X12374Y-11766D01*
X12233Y-11824D01*
X12125Y-11932D01*
X12066Y-12073D01*
X12066Y-12225D01*
X12124Y-12366D01*
X12232Y-12474D01*
X12373Y-12533D01*
X12525Y-12533D01*
X12666Y-12475D01*
X12770Y-12371D01*
X12968Y-12568D01*
X12968Y-15707D01*
X12945Y-15729D01*
X12524Y-15729D01*
X12484Y-15746D01*
X12453Y-15776D01*
X12437Y-15816D01*
X12437Y-15859D01*
X12437Y-16253D01*
X12453Y-16293D01*
X12484Y-16323D01*
X12523Y-16340D01*
X12566Y-16340D01*
X13108Y-16340D01*
X13108Y-16910D01*
X12524Y-16910D01*
X12484Y-16927D01*
X12453Y-16957D01*
X12437Y-16997D01*
X12437Y-17040D01*
X12437Y-17434D01*
X12453Y-17474D01*
X12484Y-17504D01*
X12500Y-17511D01*
X12484Y-17518D01*
X12453Y-17548D01*
X12437Y-17588D01*
X12437Y-17631D01*
X12437Y-18025D01*
X12453Y-18065D01*
X12484Y-18095D01*
X12523Y-18112D01*
X12566Y-18112D01*
X13157Y-18112D01*
X13197Y-18095D01*
X13228Y-18065D01*
X13244Y-18025D01*
X13244Y-17982D01*
X13244Y-17938D01*
X13247Y-17937D01*
X13293Y-17907D01*
X13500Y-17700D01*
X13500Y-17700D01*
X13530Y-17654D01*
X13541Y-17600D01*
X13541Y-17600D01*
X13541Y-11200D01*
X13530Y-11145D01*
X13530Y-11145D01*
X13520Y-11130D01*
X13500Y-11099D01*
X13500Y-11099D01*
X12850Y-10449D01*
X12813Y-10424D01*
X12775Y-10333D01*
X12667Y-10225D01*
X12566Y-10183D01*
X15333Y-10183D01*
X15233Y-10224D01*
X15125Y-10332D01*
X15066Y-10473D01*
X15066Y-10625D01*
X15124Y-10766D01*
X15232Y-10874D01*
X15373Y-10933D01*
X15466Y-10933D01*
X15432Y-10966D01*
X15374Y-10966D01*
X15233Y-11024D01*
X15125Y-11132D01*
X15066Y-11273D01*
X15066Y-11425D01*
X15124Y-11566D01*
X15232Y-11674D01*
X15359Y-11727D01*
X15318Y-11735D01*
X15283Y-11789D01*
X15450Y-11955D01*
X15616Y-11789D01*
X15581Y-11735D01*
X15533Y-11730D01*
X15666Y-11675D01*
X15774Y-11567D01*
X15833Y-11426D01*
X15833Y-11274D01*
X15775Y-11133D01*
X15721Y-11079D01*
X15758Y-11041D01*
X16272Y-11041D01*
X16450Y-11218D01*
X16627Y-11041D01*
X16650Y-11041D01*
X16650Y-11041D01*
X16704Y-11030D01*
X16750Y-11000D01*
X17158Y-10591D01*
X17634Y-10591D01*
X17678Y-10697D01*
X17801Y-10821D01*
X17962Y-10888D01*
X18136Y-10888D01*
X18297Y-10821D01*
X18421Y-10698D01*
X18488Y-10537D01*
X18488Y-10363D01*
X18421Y-10202D01*
X18402Y-10183D01*
X19183Y-10183D01*
X19083Y-10224D01*
X18975Y-10332D01*
X18916Y-10473D01*
X18916Y-10625D01*
X18947Y-10701D01*
X18649Y-10999D01*
X18619Y-11045D01*
X18608Y-11100D01*
X18608Y-17250D01*
X18619Y-17304D01*
X18649Y-17350D01*
X19206Y-17907D01*
X19252Y-17937D01*
X19287Y-17944D01*
X19287Y-18025D01*
X19303Y-18065D01*
X19334Y-18095D01*
X19373Y-18112D01*
X19416Y-18112D01*
X20007Y-18112D01*
X20047Y-18095D01*
X20078Y-18065D01*
X20094Y-18025D01*
X20094Y-17982D01*
X20094Y-17588D01*
X20078Y-17548D01*
X20047Y-17518D01*
X20031Y-17511D01*
X20047Y-17504D01*
X20078Y-17474D01*
X20094Y-17434D01*
X20094Y-17391D01*
X20094Y-16997D01*
X20078Y-16957D01*
X20047Y-16927D01*
X20008Y-16910D01*
X19965Y-16910D01*
X19374Y-16910D01*
X19334Y-16927D01*
X19303Y-16957D01*
X19290Y-16989D01*
X19041Y-16741D01*
X19041Y-15942D01*
X19234Y-16135D01*
X19234Y-16135D01*
X19280Y-16165D01*
X19287Y-16167D01*
X19287Y-16253D01*
X19303Y-16293D01*
X19334Y-16323D01*
X19373Y-16340D01*
X19416Y-16340D01*
X20007Y-16340D01*
X20047Y-16323D01*
X20078Y-16293D01*
X20094Y-16253D01*
X20094Y-16210D01*
X20094Y-15816D01*
X20078Y-15776D01*
X20047Y-15746D01*
X20008Y-15729D01*
X19965Y-15729D01*
X19374Y-15729D01*
X19334Y-15746D01*
X19303Y-15776D01*
X19295Y-15795D01*
X19191Y-15691D01*
X19191Y-12592D01*
X19250Y-12533D01*
X19375Y-12533D01*
X19516Y-12475D01*
X19624Y-12367D01*
X19656Y-12291D01*
X21341Y-12291D01*
X21899Y-12850D01*
X21899Y-12850D01*
X21945Y-12880D01*
X21945Y-12880D01*
X21954Y-12882D01*
X22000Y-12891D01*
X22800Y-12891D01*
X22800Y-12891D01*
X22854Y-12880D01*
X22900Y-12850D01*
X23029Y-12721D01*
X23118Y-12758D01*
X23280Y-12758D01*
X23430Y-12696D01*
X23545Y-12581D01*
X23608Y-12431D01*
X23608Y-12269D01*
X23546Y-12119D01*
X23431Y-12004D01*
X23383Y-11984D01*
X23383Y-11864D01*
X23200Y-11681D01*
X23016Y-11864D01*
X23060Y-11920D01*
X23250Y-11938D01*
X23339Y-11920D01*
X23383Y-11864D01*
X23383Y-11984D01*
X23281Y-11941D01*
X23119Y-11941D01*
X22969Y-12003D01*
X22968Y-12003D01*
X22968Y-11450D01*
X22785Y-11266D01*
X22729Y-11310D01*
X22711Y-11500D01*
X22729Y-11589D01*
X22785Y-11633D01*
X22968Y-11450D01*
X22968Y-12003D01*
X22854Y-12118D01*
X22791Y-12268D01*
X22791Y-12430D01*
X22828Y-12520D01*
X22741Y-12608D01*
X22733Y-12608D01*
X22733Y-12112D01*
X22714Y-12018D01*
X22660Y-11983D01*
X22494Y-12150D01*
X22660Y-12316D01*
X22714Y-12281D01*
X22733Y-12112D01*
X22733Y-12608D01*
X22466Y-12608D01*
X22466Y-12510D01*
X22300Y-12344D01*
X22133Y-12510D01*
X22168Y-12564D01*
X22337Y-12583D01*
X22431Y-12564D01*
X22466Y-12510D01*
X22466Y-12608D01*
X22105Y-12608D01*
X22105Y-12150D01*
X21939Y-11983D01*
X21885Y-12018D01*
X21866Y-12187D01*
X21885Y-12281D01*
X21939Y-12316D01*
X22105Y-12150D01*
X22105Y-12608D01*
X22058Y-12608D01*
X21500Y-12049D01*
X21454Y-12019D01*
X21400Y-12008D01*
X19656Y-12008D01*
X19625Y-11933D01*
X19517Y-11825D01*
X19376Y-11766D01*
X19224Y-11766D01*
X19083Y-11824D01*
X19041Y-11866D01*
X19041Y-11808D01*
X19148Y-11702D01*
X19223Y-11733D01*
X19375Y-11733D01*
X19516Y-11675D01*
X19624Y-11567D01*
X19683Y-11426D01*
X19683Y-11274D01*
X19625Y-11133D01*
X19517Y-11025D01*
X19376Y-10966D01*
X19224Y-10966D01*
X19083Y-11024D01*
X18975Y-11132D01*
X18916Y-11273D01*
X18916Y-11425D01*
X18947Y-11501D01*
X18891Y-11557D01*
X18891Y-11158D01*
X19148Y-10902D01*
X19223Y-10933D01*
X19375Y-10933D01*
X19516Y-10875D01*
X19624Y-10767D01*
X19683Y-10626D01*
X19683Y-10474D01*
X19625Y-10333D01*
X19517Y-10225D01*
X19416Y-10183D01*
X22183Y-10183D01*
X22083Y-10224D01*
X21975Y-10332D01*
X21916Y-10473D01*
X21916Y-10625D01*
X21974Y-10766D01*
X22082Y-10874D01*
X22223Y-10933D01*
X22375Y-10933D01*
X22516Y-10875D01*
X22624Y-10767D01*
X22653Y-10698D01*
X22828Y-10698D01*
X22881Y-10751D01*
X22750Y-10751D01*
X22693Y-10763D01*
X22645Y-10795D01*
X22445Y-10995D01*
X22376Y-10966D01*
X22224Y-10966D01*
X22083Y-11024D01*
X21975Y-11132D01*
X21916Y-11273D01*
X21916Y-11425D01*
X21974Y-11566D01*
X22082Y-11674D01*
X22209Y-11727D01*
X22168Y-11735D01*
X22133Y-11789D01*
X22300Y-11955D01*
X22466Y-11789D01*
X22431Y-11735D01*
X22383Y-11730D01*
X22516Y-11675D01*
X22624Y-11567D01*
X22683Y-11426D01*
X22683Y-11274D01*
X22654Y-11204D01*
X22811Y-11048D01*
X23029Y-11048D01*
X23200Y-11218D01*
X23370Y-11048D01*
X23400Y-11048D01*
X23456Y-11036D01*
X23504Y-11004D01*
X23523Y-10976D01*
X23908Y-10591D01*
X24384Y-10591D01*
X24428Y-10697D01*
X24551Y-10821D01*
X24712Y-10888D01*
X24886Y-10888D01*
X25047Y-10821D01*
X25171Y-10698D01*
X25238Y-10537D01*
X25238Y-10363D01*
X25171Y-10202D01*
X25152Y-10183D01*
X48367Y-10183D01*
X48690Y-10247D01*
X48950Y-10421D01*
X49122Y-10678D01*
X49186Y-11003D01*
X49186Y-28717D01*
M02*
