G04 (created by PCBNEW (2013-jul-07)-stable) date Mi 26 Nov 2014 08:47:29 CET*
%MOIN*%
G04 Gerber Fmt 3.4, Leading zero omitted, Abs format*
%FSLAX34Y34*%
G01*
G70*
G90*
G04 APERTURE LIST*
%ADD10C,0.00590551*%
%ADD11C,0.015*%
%ADD12R,0.08X0.08*%
%ADD13C,0.08*%
%ADD14R,0.0790551X0.21685*%
%ADD15C,0.138504*%
%ADD16R,0.236535X0.13811*%
%ADD17O,0.0719685X0.171181*%
G04 APERTURE END LIST*
G54D10*
G54D11*
X117322Y-14173D02*
X59251Y-14173D01*
G54D10*
X58858Y-14173D02*
X59251Y-14173D01*
X58858Y-13779D02*
X59251Y-13779D01*
X58858Y-4724D02*
X59251Y-4724D01*
X58858Y-4330D02*
X59251Y-4330D01*
G54D11*
X787Y-9448D02*
G75*
G03X0Y-10236I0J-787D01*
G74*
G01*
X0Y-12992D02*
G75*
G03X787Y-13779I787J0D01*
G74*
G01*
X117322Y-13779D02*
G75*
G03X118110Y-12992I0J787D01*
G74*
G01*
X118110Y-10236D02*
G75*
G03X117322Y-9448I-787J0D01*
G74*
G01*
X118110Y-14960D02*
G75*
G03X117322Y-14173I-787J0D01*
G74*
G01*
X117322Y-18503D02*
G75*
G03X118110Y-17716I0J787D01*
G74*
G01*
X0Y-17716D02*
G75*
G03X787Y-18503I787J0D01*
G74*
G01*
X787Y-14173D02*
G75*
G03X0Y-14960I0J-787D01*
G74*
G01*
X787Y-9448D02*
X117322Y-9448D01*
X118110Y-10236D02*
X118110Y-12992D01*
X118110Y-14960D02*
X118110Y-17716D01*
X59251Y-13779D02*
X117322Y-13779D01*
X117322Y-18503D02*
X787Y-18503D01*
X0Y-17716D02*
X0Y-14960D01*
X0Y-12992D02*
X0Y-10236D01*
X787Y-13779D02*
X58858Y-13779D01*
X58858Y-14173D02*
X787Y-14173D01*
X58858Y-4724D02*
X787Y-4724D01*
X787Y-4330D02*
X58858Y-4330D01*
X0Y-3543D02*
X0Y-787D01*
X0Y-8267D02*
X0Y-5511D01*
X117322Y-9055D02*
X787Y-9055D01*
X117322Y-4724D02*
X59251Y-4724D01*
X59251Y-4330D02*
X117322Y-4330D01*
X118110Y-5511D02*
X118110Y-8267D01*
X118110Y-787D02*
X118110Y-3543D01*
X787Y0D02*
X117322Y0D01*
X787Y-4724D02*
G75*
G03X0Y-5511I0J-787D01*
G74*
G01*
X0Y-8267D02*
G75*
G03X787Y-9055I787J0D01*
G74*
G01*
X117322Y-9055D02*
G75*
G03X118110Y-8267I0J787D01*
G74*
G01*
X118110Y-5511D02*
G75*
G03X117322Y-4724I-787J0D01*
G74*
G01*
X118110Y-787D02*
G75*
G03X117322Y0I-787J0D01*
G74*
G01*
X117322Y-4330D02*
G75*
G03X118110Y-3543I0J787D01*
G74*
G01*
X0Y-3543D02*
G75*
G03X787Y-4330I787J0D01*
G74*
G01*
X787Y0D02*
G75*
G03X0Y-787I0J-787D01*
G74*
G01*
G54D12*
X54287Y-15838D03*
G54D13*
X54287Y-16838D03*
X53287Y-15838D03*
X53287Y-16838D03*
X52287Y-15838D03*
X52287Y-16838D03*
G54D14*
X117716Y-11614D03*
X116732Y-11614D03*
X115748Y-11614D03*
X2362Y-11614D03*
X1377Y-11614D03*
X393Y-11614D03*
X25433Y-11614D03*
X24448Y-11614D03*
X23464Y-11614D03*
X48503Y-11614D03*
X47519Y-11614D03*
X46535Y-11614D03*
X71574Y-11614D03*
X70590Y-11614D03*
X69606Y-11614D03*
X94645Y-11614D03*
X93661Y-11614D03*
X92677Y-11614D03*
X104212Y-16338D03*
X105196Y-16338D03*
X106181Y-16338D03*
X81141Y-16338D03*
X82125Y-16338D03*
X83110Y-16338D03*
X58070Y-16338D03*
X59055Y-16338D03*
X60039Y-16338D03*
X35000Y-16338D03*
X35984Y-16338D03*
X36968Y-16338D03*
X11929Y-16338D03*
X12913Y-16338D03*
X13897Y-16338D03*
X106181Y-11614D03*
X105196Y-11614D03*
X104212Y-11614D03*
X115748Y-16338D03*
X116732Y-16338D03*
X117716Y-16338D03*
X92677Y-16338D03*
X93661Y-16338D03*
X94645Y-16338D03*
X69606Y-16338D03*
X70590Y-16338D03*
X71574Y-16338D03*
X46535Y-16338D03*
X47519Y-16338D03*
X48503Y-16338D03*
X23464Y-16338D03*
X24448Y-16338D03*
X25433Y-16338D03*
X393Y-16338D03*
X1377Y-16338D03*
X2362Y-16338D03*
X83110Y-11614D03*
X82125Y-11614D03*
X81141Y-11614D03*
X36968Y-11614D03*
X35984Y-11614D03*
X35000Y-11614D03*
X13897Y-11614D03*
X12913Y-11614D03*
X11929Y-11614D03*
X60039Y-11614D03*
X59055Y-11614D03*
X58070Y-11614D03*
G54D12*
X115720Y-10039D03*
G54D13*
X116720Y-10039D03*
G54D15*
X76358Y-16338D03*
X76358Y-11614D03*
X7145Y-16338D03*
X41751Y-11614D03*
X41751Y-16338D03*
X110964Y-16338D03*
X110964Y-11614D03*
X7145Y-11614D03*
G54D16*
X99429Y-17519D03*
X99429Y-15316D03*
G54D17*
X101429Y-16816D03*
G54D16*
X99429Y-8070D03*
X99429Y-5867D03*
G54D17*
X101429Y-7367D03*
G54D15*
X7145Y-2165D03*
X110964Y-2165D03*
X110964Y-6889D03*
X41751Y-6889D03*
X41751Y-2165D03*
X7145Y-6889D03*
X76358Y-2165D03*
X76358Y-6889D03*
G54D12*
X115720Y-590D03*
G54D13*
X116720Y-590D03*
G54D14*
X60039Y-2165D03*
X59055Y-2165D03*
X58070Y-2165D03*
X13897Y-2165D03*
X12913Y-2165D03*
X11929Y-2165D03*
X36968Y-2165D03*
X35984Y-2165D03*
X35000Y-2165D03*
X83110Y-2165D03*
X82125Y-2165D03*
X81141Y-2165D03*
X393Y-6889D03*
X1377Y-6889D03*
X2362Y-6889D03*
X23464Y-6889D03*
X24448Y-6889D03*
X25433Y-6889D03*
X46535Y-6889D03*
X47519Y-6889D03*
X48503Y-6889D03*
X69606Y-6889D03*
X70590Y-6889D03*
X71574Y-6889D03*
X92677Y-6889D03*
X93661Y-6889D03*
X94645Y-6889D03*
X115748Y-6889D03*
X116732Y-6889D03*
X117716Y-6889D03*
X106181Y-2165D03*
X105196Y-2165D03*
X104212Y-2165D03*
X11929Y-6889D03*
X12913Y-6889D03*
X13897Y-6889D03*
X35000Y-6889D03*
X35984Y-6889D03*
X36968Y-6889D03*
X58070Y-6889D03*
X59055Y-6889D03*
X60039Y-6889D03*
X81141Y-6889D03*
X82125Y-6889D03*
X83110Y-6889D03*
X104212Y-6889D03*
X105196Y-6889D03*
X106181Y-6889D03*
X94645Y-2165D03*
X93661Y-2165D03*
X92677Y-2165D03*
X71574Y-2165D03*
X70590Y-2165D03*
X69606Y-2165D03*
X48503Y-2165D03*
X47519Y-2165D03*
X46535Y-2165D03*
X25433Y-2165D03*
X24448Y-2165D03*
X23464Y-2165D03*
X2362Y-2165D03*
X1377Y-2165D03*
X393Y-2165D03*
X117716Y-2165D03*
X116732Y-2165D03*
X115748Y-2165D03*
G54D12*
X54287Y-6389D03*
G54D13*
X54287Y-7389D03*
X53287Y-6389D03*
X53287Y-7389D03*
X52287Y-6389D03*
X52287Y-7389D03*
M02*
