M48
;DRILL file {Pcbnew (2013-jul-07)-stable} date So 23 Nov 2014 23:35:39 CET
;FORMAT={-:-/ absolute / metric / decimal}
FMAT,2
METRIC,TZ
T1C0.300
T2C1.016
T3C3.010
%
G90
G05
M71
T1
X3.5Y-20.5
X3.5Y-44.5
T2
X132.81Y-16.23
X132.81Y-18.77
X132.81Y-40.23
X132.81Y-42.77
X135.35Y-16.23
X135.35Y-18.77
X135.35Y-40.23
X135.35Y-42.77
X137.89Y-16.23
X137.89Y-18.77
X137.89Y-40.23
X137.89Y-42.77
X293.93Y-1.5
X293.93Y-25.5
X296.47Y-1.5
X296.47Y-25.5
T3
X18.15Y-5.5
X18.15Y-17.5
X18.15Y-29.5
X18.15Y-41.5
X106.05Y-5.5
X106.05Y-17.5
X106.05Y-29.5
X106.05Y-41.5
X193.95Y-5.5
X193.95Y-17.5
X193.95Y-29.5
X193.95Y-41.5
X281.85Y-5.5
X281.85Y-17.5
X281.85Y-29.5
X281.85Y-41.5
T2
X251.288Y-14.904G85X253.812Y-14.904
G05
X251.288Y-21.G85X253.812Y-21.
G05
X251.288Y-38.904G85X253.812Y-38.904
G05
X251.288Y-45.G85X253.812Y-45.
G05
X257.63Y-19.976G85X257.63Y-17.452
G05
X257.63Y-43.976G85X257.63Y-41.452
G05
T0
M30
