<?xml version="1.0" encoding="UTF-8" standalone="no"?>
<!-- Created with Inkscape (http://www.inkscape.org/) -->

<svg
   xmlns:dc="http://purl.org/dc/elements/1.1/"
   xmlns:cc="http://creativecommons.org/ns#"
   xmlns:rdf="http://www.w3.org/1999/02/22-rdf-syntax-ns#"
   xmlns:svg="http://www.w3.org/2000/svg"
   xmlns="http://www.w3.org/2000/svg"
   xmlns:xlink="http://www.w3.org/1999/xlink"
   xmlns:sodipodi="http://sodipodi.sourceforge.net/DTD/sodipodi-0.dtd"
   xmlns:inkscape="http://www.inkscape.org/namespaces/inkscape"
   id="svg42898"
   version="1.1"
   inkscape:version="0.48.4 r9939"
   width="744.09448"
   height="1052.3622"
   sodipodi:docname="soundmodule.png">
  <metadata
     id="metadata42904">
    <rdf:RDF>
      <cc:Work
         rdf:about="">
        <dc:format>image/svg+xml</dc:format>
        <dc:type
           rdf:resource="http://purl.org/dc/dcmitype/StillImage" />
        <dc:title></dc:title>
      </cc:Work>
    </rdf:RDF>
  </metadata>
  <defs
     id="defs42902" />
  <sodipodi:namedview
     pagecolor="#ffffff"
     bordercolor="#666666"
     borderopacity="1"
     objecttolerance="10"
     gridtolerance="10"
     guidetolerance="10"
     inkscape:pageopacity="0"
     inkscape:pageshadow="2"
     inkscape:window-width="1366"
     inkscape:window-height="718"
     id="namedview42900"
     showgrid="true"
     showguides="true"
     inkscape:guide-bbox="true"
     units="mm"
     inkscape:document-units="mm"
     inkscape:zoom="0.944"
     inkscape:cx="838.27067"
     inkscape:cy="343.59086"
     inkscape:window-x="0"
     inkscape:window-y="0"
     inkscape:window-maximized="1"
     inkscape:current-layer="svg42898">
    <sodipodi:guide
       orientation="1,0"
       position="879.76695,190.41314"
       id="guide42910" />
    <sodipodi:guide
       orientation="1,0"
       position="889.03602,207.89195"
       id="guide42912" />
    <sodipodi:guide
       orientation="1,0"
       position="898.04026,189.08898"
       id="guide42914" />
    <inkscape:grid
       type="xygrid"
       id="grid42916"
       empspacing="20"
       visible="true"
       enabled="true"
       snapvisiblegridlinesonly="true"
       units="mm"
       spacingx="0.127mm"
       spacingy="0.127mm" />
  </sodipodi:namedview>
  <g
     id="g42918"
     transform="translate(74.597508,-13.480572)">
    <image
       y="691.17444"
       x="831.03809"
       id="image42906"
       xlink:href="file:///home/setz/projekte/elektro/1410_woerdclock/pcb/data/soundmodule.png"
       height="179.74141"
       width="148.30508" />
    <rect
       y="723.98157"
       x="864.1109"
       height="116.81226"
       width="49.489422"
       id="rect42908"
       style="fill:none;stroke:#000000;stroke-width:0.11687736;stroke-miterlimit:4;stroke-opacity:1;stroke-dasharray:none" />
  </g>
  <image
     y="707.44904"
     x="932.27966"
     id="image42984"
     xlink:href="file:///home/setz/projekte/elektro/1410_woerdclock/pcb/data/sound.jpg"
     height="123.75726"
     width="60.838657"
     style="opacity:0.70815448" />
  <rect
     y="681.99152"
     x="1008.2005"
     height="116.81226"
     width="49.489422"
     id="rect42908-2"
     style="fill:none;stroke:#000000;stroke-width:0.11687736;stroke-miterlimit:4;stroke-opacity:1;stroke-dasharray:none" />
  <image
     y="708.1687"
     x="1091.553"
     id="image42984-1"
     xlink:href="file:///home/setz/projekte/elektro/1410_woerdclock/pcb/data/sound.jpg"
     height="123.75726"
     width="60.838657" />
  <path
     inkscape:connector-curvature="0"
     id="path43809"
     d="m 1163.9344,760.78377 0,-61.87863 30.4193,0 30.4194,0 0,61.87863 0,61.87863 -30.4194,0 -30.4193,0 0,-61.87863 z"
     style="fill:#fbfcfb" />
  <path
     inkscape:connector-curvature="0"
     id="path43807"
     d="m 1171.137,817.51655 -0.9627,-0.98594 0,-51.0961 0,-51.09611 0.9302,-1.08678 0.9302,-1.08677 5.9505,0 c 5.617,0 5.9655,-0.0282 6.2196,-0.5029 0.148,-0.27659 0.2691,-0.74019 0.2691,-1.03022 0,-1.24424 1.1294,-3.47368 2.5212,-4.97701 2.7498,-2.97011 4.4421,-3.74909 8.1443,-3.74889 2.2052,1.2e-4 2.6453,0.0829 4.0299,0.75771 2.9861,1.45542 5.8671,4.87712 6.2582,7.43261 0.3376,2.2063 -0.1097,2.0687 6.7247,2.0687 l 6.0805,0 0.9302,1.08677 0.9303,1.08678 0,51.1193 0,51.1193 -0.986,0.96275 -0.9859,0.96274 -23.0108,0 -23.0107,0 -0.9628,-0.98594 z m 15.4169,-3.30396 0.13,-3.37993 8.1898,0 8.1898,0 0.13,3.37993 0.13,3.37992 3.338,0 3.338,0 0.042,-4.72317 c 0.023,-2.59775 0.1311,-4.81234 0.2401,-4.92131 0.1089,-0.10898 1.3959,-0.22528 2.8599,-0.25847 1.464,-0.0332 2.8097,-0.0708 2.9904,-0.0836 0.2591,-0.0183 0.314,-1.82389 0.26,-8.53806 l -0.069,-8.51481 -21.4495,0 -21.4495,0 0,8.57509 0,8.5751 2.943,0.0186 c 2.2694,0.0144 2.9975,0.1047 3.181,0.39471 0.1308,0.20685 0.2397,2.45628 0.2419,4.99875 l 0,4.62267 3.315,-0.0728 3.3149,-0.0728 0.13,-3.37992 z m 15.7297,0.38999 0,-2.98994 -7.4099,0 -7.4098,0 -0.075,2.71237 c -0.041,1.4918 -0.015,2.86834 0.058,3.05899 0.1073,0.27982 1.5499,0.33332 7.4844,0.27757 l 7.3515,-0.0691 0,-2.98993 z m 16.3914,2.48176 0.6382,-0.63817 0,-50.91284 c 0,-47.39737 -0.03,-50.95722 -0.4399,-51.55567 -0.242,-0.35356 -0.5637,-0.7288 -0.715,-0.83385 -0.1513,-0.10506 -3.0245,-0.1946 -6.385,-0.19898 -3.3604,-0.004 -6.2457,-0.0944 -6.4118,-0.20009 -0.1661,-0.10567 -0.4381,-0.94277 -0.6044,-1.86022 -0.4186,-2.30818 -1.1885,-3.82405 -2.7235,-5.36239 -1.5812,-1.58466 -3.1849,-2.39888 -5.4055,-2.7446 -2.1646,-0.33701 -4.3587,0.0179 -6.3381,1.02525 -2.76,1.40458 -4.3817,3.73431 -5.1114,7.34309 l -0.3375,1.66896 -6.4023,0.13 c -3.5213,0.0715 -6.4506,0.18849 -6.5097,0.25999 -1.0264,1.24311 -0.9749,-1.52234 -0.9749,52.25885 0,45.59624 0.042,50.9028 0.4048,51.42101 0.2226,0.31781 0.5725,0.57784 0.7777,0.57784 0.3184,0 0.3828,-2.02371 0.4402,-13.8447 l 0.067,-13.84469 22.2295,0 22.2295,0 0.065,13.6497 c 0.036,7.50733 0.1198,13.79594 0.1869,13.97469 0.1853,0.49395 0.6148,0.39205 1.32,-0.31318 z m -35.5575,-28.65877 c -0.618,-0.16231 -0.7867,-1.33505 -0.6822,-4.74452 0.097,-3.16071 0.2081,-3.38975 1.6487,-3.38975 1.4569,0 1.5044,0.12988 1.5166,4.14505 0.01,2.93163 -0.065,3.73407 -0.3628,3.92226 -0.3848,0.24353 -1.3339,0.2735 -2.1203,0.067 z m 7.0113,0.011 c -0.2502,-0.0723 -0.4634,-0.26917 -0.4737,-0.43743 -0.01,-0.16826 -0.039,-1.81856 -0.065,-3.66733 -0.034,-2.49015 0.043,-3.45043 0.2973,-3.70491 0.3682,-0.36813 2.0581,-0.46171 2.5609,-0.14183 0.3266,0.20773 0.6012,7.4291 0.2942,7.7361 -0.2267,0.22662 -2.0538,0.37721 -2.6137,0.2154 z m 7.0849,-0.01 c -0.2145,-0.0889 -0.476,-0.29028 -0.581,-0.44759 -0.2684,-0.40179 -0.2394,-6.70962 0.033,-7.13917 0.1231,-0.19432 0.7436,-0.41189 1.3789,-0.48349 1.866,-0.21033 2.03,0.11671 2.0252,4.0403 0,1.81299 -0.1023,3.45147 -0.2225,3.64106 -0.2413,0.38067 -2.0195,0.64325 -2.6334,0.38889 z m 7.215,0.009 c -0.6557,-0.18779 -0.7706,-0.95623 -0.6725,-4.49865 0.095,-3.43953 0.1883,-3.64541 1.6473,-3.64541 1.4705,0 1.5217,0.13741 1.5323,4.1182 0.01,2.00653 -0.059,3.71746 -0.1441,3.80207 -0.2237,0.22369 -1.8317,0.37598 -2.363,0.22379 z m 1.0483,-10.39874 c -0.2575,-0.0738 -0.5037,-0.47842 -0.5818,-0.95564 -0.1994,-1.22048 -0.046,-5.56018 0.205,-5.81114 0.2828,-0.28238 6.3041,-0.28205 6.5865,2.6e-4 0.2822,0.28223 0.2828,6.30348 8e-4,6.58653 -0.2353,0.23594 -5.4849,0.38801 -6.2104,0.17989 z m -25.844,-1.1097 c -1.961,-1.19581 -1.7726,-4.3567 0.3189,-5.34919 1.6588,-0.78715 3.3896,-0.23216 4.1279,1.32364 0.4978,1.04908 0.4978,1.75512 0,2.8042 -0.7709,1.62448 -2.8494,2.19537 -4.4468,1.22135 z m 9.3427,0.11594 c -2.3756,-1.03322 -2.085,-4.87409 0.4257,-5.62632 2.7895,-0.83574 5.0111,1.69086 3.7758,4.29409 -0.7497,1.57986 -2.4168,2.10846 -4.2015,1.33223 z m 8.8746,-0.0228 c -2.2043,-1.0879 -2.2188,-4.36985 -0.024,-5.41144 1.1136,-0.52843 1.805,-0.53587 2.8692,-0.0309 2.8869,1.36993 1.776,5.87094 -1.4414,5.83975 -0.3359,-0.003 -0.9677,-0.18211 -1.404,-0.39745 z m -17.2124,-8.47655 c -0.1781,-0.17814 -0.3239,-0.81848 -0.3239,-1.42299 0,-0.87771 0.138,-1.20765 0.6851,-1.63796 0.8174,-0.643 1.2173,-0.67613 1.664,-0.13785 0.2481,0.29889 0.2578,0.47608 0.038,0.6958 -0.2063,0.20626 -0.2133,0.39304 -0.023,0.62198 0.1494,0.17996 0.2343,0.71508 0.1888,1.18916 -0.075,0.7786 -0.1708,0.8694 -0.9938,0.93885 -0.5011,0.0423 -1.0568,-0.0689 -1.235,-0.24699 z m 9.4359,0.0563 c -0.093,-0.14992 -0.3293,-0.88763 -0.5258,-1.63935 -0.3986,-1.52438 -0.1824,-2.07432 0.6189,-1.5739 0.3328,0.20781 0.5633,0.21676 0.7509,0.0291 0.4119,-0.41191 0.8384,-0.005 0.8162,0.77831 -0.048,1.68131 -1.1345,3.25641 -1.6602,2.40579 z m 5.7532,0.0705 c -0.3007,-0.30078 -0.1875,-3.08835 0.1387,-3.41459 0.4504,-0.45045 1.1024,-0.38374 1.5977,0.16347 0.5072,0.56051 0.5864,2.6443 0.1183,3.11246 -0.3337,0.33368 -1.5674,0.42591 -1.8547,0.13866 z m 2.5839,-0.0426 c -0.1727,-0.27943 0.5177,-2.90302 0.8519,-3.2372 0.5095,-0.5095 1.0326,0.0691 1.3517,1.49508 0.2411,1.07749 0.2498,1.53131 0.033,1.7477 -0.2164,0.21639 -0.3904,0.21086 -0.6701,-0.0213 -0.257,-0.21329 -0.4318,-0.2264 -0.5464,-0.041 -0.2011,0.32545 -0.8327,0.36055 -1.0205,0.0567 z m 3.6614,0.048 c -0.098,-0.0983 -0.1805,-0.65649 -0.1827,-1.24039 0,-0.5839 -0.1084,-1.22653 -0.236,-1.42806 -0.3908,-0.61744 -0.012,-1.06355 0.9024,-1.06355 1.0365,0 1.3556,0.39016 0.8111,0.99183 -0.2185,0.24149 -0.4348,0.95626 -0.4805,1.58837 -0.078,1.08269 -0.4117,1.55437 -0.8143,1.1518 z m 3.1956,-0.22887 c -0.1574,-0.18962 -0.2498,-0.83896 -0.2053,-1.44297 0.091,-1.22951 1.0484,-2.2213 1.8487,-1.91419 0.5405,0.20739 0.5907,1.154 0.061,1.154 -0.5323,0 -1.0578,1.00835 -0.6053,1.16148 1.1903,0.40289 1.3734,0.29334 1.5061,-0.90149 0.178,-1.60208 0.8591,-1.61824 1.04,-0.0247 0.095,0.83812 0.2695,1.19549 0.65,1.33244 0.764,0.27494 0.91,0.086 0.91,-1.17777 0,-1.17198 0.359,-1.69497 0.836,-1.21796 0.1876,0.18762 0.4181,0.17867 0.7508,-0.0291 0.6918,-0.43205 1.2586,0.14434 0.8249,0.83886 -0.2327,0.37253 -0.2334,0.67926 0,1.28985 0.2371,0.62814 0.2305,0.87203 -0.031,1.12971 -0.2689,0.26531 -0.4048,0.23139 -0.7056,-0.17606 -0.3657,-0.49551 -0.379,-0.49569 -0.7343,-0.01 -0.298,0.40751 -0.4316,0.437 -0.7568,0.16706 -0.2347,-0.19473 -0.4569,-0.22768 -0.5474,-0.0812 -0.244,0.39467 -4.5021,0.30831 -4.8394,-0.0982 z m -22.1324,-5.7928 c -0.8316,-0.0963 -0.9515,-0.47897 -0.8,-2.55283 l 0.1163,-1.59256 1.4083,-0.16552 c 1.7887,-0.21023 2.6049,-0.004 2.7957,0.70773 0.2131,0.79467 0.187,2.84576 -0.041,3.19944 -0.1967,0.30542 -2.2604,0.54488 -3.4794,0.40374 z m 5.4132,-0.004 c -0.5022,-0.0971 -0.467,0.0319 -0.5556,-2.0377 -0.038,-0.88097 0.024,-1.7524 0.1383,-1.9365 0.2547,-0.41208 3.3367,-0.61866 3.8708,-0.25944 0.4292,0.28865 0.6426,3.32732 0.2755,3.92139 -0.2066,0.33424 -2.5849,0.5334 -3.729,0.31225 z m 9.1445,0.053 c -0.2367,-0.0702 -0.4834,-0.38436 -0.5483,-0.69822 -0.1684,-0.81497 -0.051,-3.26738 0.1667,-3.48516 0.2336,-0.23362 3.7544,-0.2097 3.9912,0.0271 0.2902,0.29019 0.374,3.37635 0.1026,3.77928 -0.2526,0.37505 -2.8341,0.63722 -3.7122,0.37698 z m 5.9818,-0.0486 c -0.4502,-0.0521 -0.7414,-0.27711 -0.8414,-0.64999 -0.2312,-0.86211 -0.1824,-2.86227 0.08,-3.27662 0.3338,-0.52732 3.8597,-0.53827 4.192,-0.013 0.3073,0.48584 0.3127,3.1244 0.01,3.60671 -0.2252,0.35573 -1.8673,0.51475 -3.4379,0.33291 z m -17.4644,-8.54008 c -0.097,-0.0972 -0.1767,-1.38566 -0.1767,-2.86329 l 0,-2.68661 -1.235,-0.004 c -2.3236,-0.007 -2.4049,-0.0775 -2.4049,-2.09495 l 0,-1.77785 0.8823,-0.16552 c 1.1885,-0.22297 6.5606,-0.0432 6.8315,0.22862 0.2722,0.27306 0.2853,3.18062 0.015,3.4504 -0.1102,0.11025 -0.8999,0.25106 -1.7549,0.31291 l -1.5545,0.11244 0,2.28088 c 0,1.84003 0.08,2.31139 0.4113,2.4387 0.2261,0.0868 3.8297,0.15781 8.0078,0.15781 5.5618,0 7.6801,-0.0836 7.9085,-0.31199 0.1918,-0.19181 0.312,-1.13126 0.312,-2.4387 l 0,-2.1267 -1.5545,-0.11244 c -0.8549,-0.0619 -1.6407,-0.19865 -1.746,-0.30401 -0.2652,-0.26515 -0.259,-3.19173 0.01,-3.45871 0.2573,-0.25809 7.3307,-0.29632 7.586,-0.041 0.249,0.24894 0.2899,3.25761 0.048,3.49986 -0.1102,0.11025 -0.9526,0.24835 -1.8719,0.30688 l -1.6715,0.10644 -0.073,2.76519 -0.074,2.76519 -8.8581,0.0684 c -4.872,0.0376 -8.9376,-0.0112 -9.0348,-0.10833 z m -12.1364,-5.62957 c -0.7874,-0.26852 -0.9206,-0.43644 -0.9884,-1.24663 -0.065,-0.77485 0.042,-1.01531 0.621,-1.39453 1.6163,-1.05907 4.3338,-0.61036 4.681,0.77291 0.2557,1.01855 -0.2328,1.84674 -1.2038,2.04093 -1.1759,0.2352 -2.0573,0.18626 -3.1098,-0.17268 z m 3.1199,-1.35279 c 0,-0.70157 -2.0599,-0.90822 -2.5974,-0.26058 -0.257,0.30964 -0.2503,0.41045 0.033,0.50477 1.2146,0.40406 2.5642,0.27554 2.5642,-0.24419 z m 6.1749,-3.19813 c -1.0528,-0.0871 -1.0176,-0.01 -1.0536,-2.31974 -0.01,-0.60526 0.073,-1.19024 0.1824,-1.29997 0.2424,-0.24235 7.3227,-0.26955 7.5632,-0.029 0.2337,0.23378 0.306,3.25001 0.083,3.47442 -0.1872,0.18863 -5.0811,0.31455 -6.7752,0.17434 z m 17.1631,0.002 c -0.5419,-0.10557 -0.7177,-0.8912 -0.5383,-2.40582 l 0.1482,-1.25111 1.6948,-0.1815 c 1.8123,-0.19408 5.7021,-0.0144 5.9918,0.27684 0.1832,0.18419 0.1353,3.2467 -0.054,3.43574 -0.1282,0.12816 -6.6494,0.24147 -7.2428,0.12585 z m -27.3966,-0.6822 c -0.078,-0.2041 -0.1039,-0.63634 -0.057,-0.96054 0.082,-0.5615 0.2,-0.59091 2.4991,-0.62022 1.6655,-0.0212 2.4984,0.0715 2.6873,0.29916 0.5132,0.61831 -0.059,0.8727 -1.9644,0.8727 -1.3742,0 -1.9927,0.10834 -2.2264,0.38999 -0.4072,0.49059 -0.755,0.4976 -0.9387,0.0189 z m 4.3311,-4.14608 c -0.2326,-0.61167 -0.3883,-0.66506 -2.1466,-0.73611 -1.4778,-0.0597 -1.8958,-0.16261 -1.8958,-0.4666 0,-0.30236 0.409,-0.40689 1.82,-0.46519 1.52,-0.0628 1.8926,-0.16991 2.2609,-0.64999 0.6501,-0.84742 1.035,-0.28057 0.9389,1.38261 -0.088,1.5236 -0.5762,1.99065 -0.9774,0.93528 z m 5.3623,0.14319 c -0.3563,-0.0689 -0.4349,-0.40758 -0.4349,-1.87317 l 0,-1.78912 0.892,-0.16734 c 1.1076,-0.20778 6.5626,-0.0281 6.8152,0.22449 0.221,0.22103 0.22,3.25846 -10e-4,3.47964 -0.1615,0.16146 -6.5176,0.27117 -7.2712,0.1255 z m 17.4496,-0.0802 c -0.2668,-0.16467 -0.3835,-3.25376 -0.1325,-3.50479 0.1846,-0.18453 6.421,-0.33824 7.1424,-0.17604 0.5374,0.12082 0.585,0.27747 0.585,1.9233 0,1.52464 -0.068,1.7951 -0.455,1.81405 -2.2636,0.11081 -6.9287,0.0739 -7.1399,-0.0565 z m -26.8683,-4.40831 c -0.2338,-0.37823 0.131,-0.69415 0.924,-0.80031 0.9824,-0.13151 0.8841,-1.08132 -0.13,-1.25699 -0.429,-0.0743 -0.7508,-0.2217 -0.715,-0.32754 0.036,-0.10585 0.065,-0.31384 0.065,-0.4622 0,-0.17228 0.8689,-0.24274 2.4049,-0.19499 1.9312,0.06 2.405,0.15158 2.405,0.46474 0,0.26 -0.3467,0.43333 -1.04,0.51999 -0.8233,0.10292 -1.04,0.23833 -1.04,0.64999 0,0.40424 0.2021,0.53916 0.9077,0.60613 0.8927,0.0847 1.3919,0.46855 1.1398,0.87642 -0.1985,0.32114 -4.7191,0.25203 -4.9214,-0.0752 z m 9.4706,0.11941 c -0.2954,-0.0856 -0.4616,-0.52293 -0.5505,-1.44832 -0.2198,-2.28733 0.022,-2.53774 2.4589,-2.5448 l 1.2252,-0.004 0.075,-2.40494 0.075,-2.40495 8.9698,0 8.9698,0 0.074,2.37525 0.074,2.37526 1.6707,0.10638 c 0.9188,0.0585 1.7628,0.19904 1.8756,0.3123 0.2318,0.23287 0.17,3.27226 -0.072,3.51371 -0.2378,0.23781 -7.3192,0.18782 -7.5603,-0.0534 -0.1157,-0.11565 -0.2057,-0.91429 -0.2,-1.77475 0.012,-1.85091 0.2049,-2.03534 2.1328,-2.04092 l 1.3759,-0.004 -0.076,-2.01495 -0.076,-2.01496 -7.2091,-0.0691 -7.2092,-0.0691 0.1582,0.79114 c 0.2033,1.0164 -0.5045,1.8741 -1.4556,1.76392 -0.5782,-0.067 -0.6744,0.0322 -0.7454,0.76807 l -0.082,0.84498 1.3815,0.004 c 1.9338,0.006 2.1262,0.18914 2.1383,2.04091 0.01,0.86047 -0.084,1.65911 -0.1992,1.77475 -0.2253,0.22617 -6.5187,0.38046 -7.2207,0.17703 z m -9.523,-4.817 c -0.449,-0.44902 -0.4066,-2.16703 0.063,-2.55685 0.6405,-0.53158 1.1854,-0.12182 1.1103,0.83484 -0.048,0.61412 0.042,0.85238 0.323,0.85238 0.2145,0 0.4272,-0.26222 0.4727,-0.5827 0.1856,-1.30638 2.2947,-1.86169 2.8846,-0.75948 0.4855,0.90719 0.2752,2.12216 -0.3674,2.12216 -0.374,0 -0.5431,-0.20075 -0.6023,-0.71498 -0.1089,-0.94649 -0.391,-0.90312 -0.8458,0.13 -0.3305,0.75108 -0.502,0.85349 -1.5432,0.92162 -0.6861,0.0449 -1.3054,-0.0574 -1.495,-0.24699 z m 19.7781,-10.6903 c -1.5021,-0.57902 -3.1641,-1.95984 -4.1547,-3.45188 -0.8134,-1.22496 -0.9936,-1.74512 -1.0812,-3.12057 -0.1298,-2.03844 0.5295,-3.57608 2.2827,-5.32391 3.5369,-3.52609 8.2083,-2.91026 11.1133,1.46507 1.2862,1.93708 1.4928,4.10203 0.5731,6.00432 -0.735,1.52039 -2.5994,3.42831 -4.0054,4.09895 -1.2606,0.60127 -3.5982,0.76346 -4.7278,0.32802 z m 4.9467,-1.32759 c 2.4582,-1.20271 3.994,-4.3654 3.3293,-6.85634 -0.5585,-2.09294 -1.7047,-3.59117 -3.3749,-4.41136 -3.8877,-1.90918 -8.0254,0.0788 -9.1815,4.41136 -0.266,0.99706 -0.266,1.47288 0,2.46994 0.3921,1.4692 1.5988,3.42769 2.4317,3.94655 2.3402,1.45781 4.4373,1.59355 6.7954,0.43985 z"
     style="fill:#d5d9da" />
  <path
     inkscape:connector-curvature="0"
     id="path43805"
     d="m 1172.7742,818.00561 c 0,-0.13882 0.1055,-0.31764 0.2345,-0.39737 0.1294,-0.08 0.201,-2.13165 0.1597,-4.57635 -0.061,-3.60771 0,-4.50183 0.304,-4.81029 0.5259,-0.52582 5.3422,-0.54252 5.7758,-0.02 0.2059,0.24812 0.2759,1.83247 0.2268,5.13488 l -0.071,4.77603 -3.315,0.0728 c -2.0202,0.0444 -3.3149,-0.0258 -3.3149,-0.17966 z m 13.7797,-0.0231 c 0,-0.14299 0.117,-0.25999 0.26,-0.25999 0.143,0 0.26,0.117 0.26,0.25999 0,0.143 -0.117,0.26 -0.26,0.26 -0.143,0 -0.26,-0.117 -0.26,-0.26 z m 15.8597,0 c 0,-0.14299 0.1824,-0.25999 0.4053,-0.25999 0.2229,0 0.333,0.117 0.2446,0.25999 -0.088,0.143 -0.2707,0.26 -0.4053,0.26 -0.1346,0 -0.2446,-0.117 -0.2446,-0.26 z m 7.9731,0.0867 c -0.3276,-0.32758 -0.1982,-9.57758 0.1387,-9.91445 0.4278,-0.42786 5.708,-0.42786 6.1358,0 0.2206,0.22054 0.312,1.74485 0.312,5.19989 l 0,4.88789 -3.2066,0 c -1.7636,0 -3.2846,-0.078 -3.3799,-0.17333 z m -27.4207,-30.038 c -0.4323,-0.43228 -0.4323,-6.74357 0,-7.17584 0.1716,-0.1716 0.6747,-0.312 1.118,-0.312 1.3163,0 1.4299,0.30981 1.4299,3.89992 0,3.5901 -0.1136,3.89991 -1.4299,3.89991 -0.4433,0 -0.9464,-0.1404 -1.118,-0.31199 z m 7.0198,0 c -0.4322,-0.43228 -0.4322,-6.74357 0,-7.17584 0.1716,-0.1716 0.7332,-0.312 1.248,-0.312 1.4593,0 1.56,0.25166 1.56,3.89992 0,3.64825 -0.1007,3.89991 -1.56,3.89991 -0.5148,0 -1.0764,-0.1404 -1.248,-0.31199 z m 7.0199,0 c -0.4323,-0.43228 -0.4323,-6.74357 0,-7.17584 0.1716,-0.1716 0.7332,-0.312 1.2479,-0.312 1.4593,0 1.56,0.25166 1.56,3.89992 0,3.64825 -0.1007,3.89991 -1.56,3.89991 -0.5147,0 -1.0763,-0.1404 -1.2479,-0.31199 z m 7.2798,0 c -0.2096,-0.20965 -0.312,-1.38664 -0.312,-3.58792 0,-3.59011 0.1136,-3.89992 1.43,-3.89992 1.3164,0 1.43,0.30981 1.43,3.89992 0,3.5901 -0.1136,3.89991 -1.43,3.89991 -0.4433,0 -0.9464,-0.1404 -1.118,-0.31199 z m 1.04,-10.39977 c -0.2034,-0.20342 -0.312,-1.27109 -0.312,-3.06794 0,-1.79684 0.1086,-2.86451 0.312,-3.06793 0.4278,-0.42785 5.708,-0.42785 6.1359,0 0.4278,0.42786 0.4278,5.70801 0,6.13587 -0.2035,0.20341 -1.2711,0.31199 -3.068,0.31199 -1.7968,0 -2.8645,-0.10858 -3.0679,-0.31199 z m -25.5028,-0.83082 c -1.8496,-1.02511 -1.7592,-4.09061 0.1493,-5.06662 1.8679,-0.95528 4.242,0.46315 4.242,2.53446 0,0.81147 -0.1874,1.27037 -0.807,1.97596 -0.6843,0.77937 -0.9707,0.91763 -1.8849,0.90981 -0.5929,-0.005 -1.3577,-0.16419 -1.6994,-0.35361 z m 9.064,-0.0802 c -1.0313,-0.71079 -1.2761,-1.17353 -1.2788,-2.41688 0,-1.80377 1.0985,-2.85994 2.9848,-2.85994 1.3516,0 2.7211,1.37338 2.7211,2.72883 0,2.40109 -2.5287,3.85643 -4.4271,2.54799 z m 8.8017,-0.002 c -1.7981,-1.11553 -1.6682,-4.01705 0.2232,-4.98431 1.9381,-0.99117 4.242,0.40436 4.242,2.56951 0,2.31682 -2.47,3.65258 -4.4652,2.4148 z m -16.8024,-8.44667 c -0.5781,-0.57815 -0.3723,-1.94272 0.3826,-2.53653 0.9907,-0.7793 1.4226,-0.24213 0.4665,0.58026 -0.481,0.41375 -0.672,0.77265 -0.5628,1.05732 0.2254,0.58744 0.6314,0.54221 0.8329,-0.0928 0.2316,-0.72966 0.6488,-0.38298 0.6488,0.53911 0,0.66413 -0.096,0.76464 -0.728,0.76464 -0.4004,0 -0.8684,-0.1404 -1.04,-0.312 z m 9.3651,-0.10092 c -0.4209,-0.78649 -0.6747,-2.44702 -0.374,-2.44702 0.1436,0 0.3405,0.20475 0.4375,0.45499 0.1646,0.42465 0.2009,0.42158 0.5451,-0.046 0.2028,-0.27555 0.436,-0.43375 0.5182,-0.35156 0.2209,0.22094 -0.1458,1.92554 -0.5262,2.44578 -0.3095,0.42321 -0.3458,0.41981 -0.6006,-0.0562 z m 5.6626,-1.10276 c 0,-1.73947 0.464,-2.2308 1.3497,-1.42923 0.3761,0.34037 0.4761,0.73101 0.4174,1.63123 -0.073,1.12673 -0.1178,1.1876 -0.9221,1.26515 l -0.845,0.0815 0,-1.54862 z m 1.3,-0.0443 c 0,-0.26911 -0.1179,-0.56212 -0.2619,-0.65112 -0.3341,-0.20651 -0.6226,0.52378 -0.4178,1.05759 0.1999,0.52097 0.6797,0.23406 0.6797,-0.40647 z m 8.3718,1.24797 c -0.8758,-0.87574 0.2841,-3.44774 1.252,-2.77617 0.2956,0.20513 0.3088,0.29905 0.056,0.40124 -1.176,0.47599 -1.3857,1.65544 -0.3383,1.90272 0.3462,0.0817 0.6771,0.29158 0.7353,0.46639 0.1398,0.41926 -1.287,0.42413 -1.7053,0.006 z m 2.5479,-1.11797 c 0,-0.78648 0.117,-1.42997 0.26,-1.42997 0.143,0 0.26,0.4085 0.26,0.90778 0,0.6262 0.1613,1.0085 0.52,1.23251 0.7381,0.46093 0.6446,0.71965 -0.26,0.71965 -0.7721,0 -0.78,-0.0145 -0.78,-1.42997 z m -9.2356,0.19978 c 0.1001,-0.53361 0.304,-1.19817 0.4531,-1.47682 0.2548,-0.47599 0.2911,-0.47938 0.6005,-0.0562 0.3727,0.50966 0.749,2.22303 0.5352,2.43681 -0.077,0.0773 -0.3378,-0.0224 -0.579,-0.22156 -0.3406,-0.28117 -0.463,-0.28944 -0.5479,-0.0371 -0.06,0.17875 -0.2297,0.32499 -0.3767,0.32499 -0.1678,0 -0.1995,-0.36109 -0.085,-0.97019 z m 3.2558,0.22271 c 0,-0.41112 -0.073,-1.1131 -0.1625,-1.55997 -0.1503,-0.75136 -0.1091,-0.81248 0.5478,-0.81248 0.5801,0 0.6732,0.0834 0.5082,0.45499 -0.1111,0.25025 -0.2524,0.95223 -0.314,1.55997 -0.1254,1.23771 -0.5795,1.51785 -0.5795,0.35749 z m 8.5798,-0.55249 c 0,-1.22353 0.2741,-1.64814 0.6604,-1.02304 0.1135,0.1836 0.3229,0.1396 0.6215,-0.13056 0.5792,-0.5242 0.8397,-0.26226 0.4939,0.49667 -0.1922,0.42177 -0.1812,0.75596 0.038,1.1663 0.4039,0.75465 0.073,1.06845 -0.4216,0.4002 -0.3633,-0.49055 -0.4037,-0.49416 -0.7224,-0.0646 -0.5338,0.71944 -0.6702,0.54741 -0.6702,-0.84498 z m -28.0274,-4.73189 c -0.1716,-0.1716 -0.312,-0.96718 -0.312,-1.76796 0,-0.80079 0.1404,-1.59637 0.312,-1.76797 0.1716,-0.17159 0.9672,-0.31199 1.7679,-0.31199 0.8008,0 1.5964,0.1404 1.768,0.31199 0.1716,0.1716 0.312,0.96718 0.312,1.76797 0,0.80078 -0.1404,1.59636 -0.312,1.76796 -0.1716,0.17159 -0.9672,0.31199 -1.768,0.31199 -0.8007,0 -1.5963,-0.1404 -1.7679,-0.31199 z m 5.7199,0 c -0.1716,-0.1716 -0.312,-0.96718 -0.312,-1.76796 0,-0.80079 0.1404,-1.59637 0.312,-1.76797 0.1716,-0.17159 0.9671,-0.31199 1.7679,-0.31199 0.8008,0 1.5964,0.1404 1.768,0.31199 0.1716,0.1716 0.312,0.96718 0.312,1.76797 0,0.80078 -0.1404,1.59636 -0.312,1.76796 -0.1716,0.17159 -0.9672,0.31199 -1.768,0.31199 -0.8008,0 -1.5963,-0.1404 -1.7679,-0.31199 z m 9.0998,0 c -0.1716,-0.1716 -0.312,-0.96718 -0.312,-1.76796 0,-0.80079 0.1404,-1.59637 0.312,-1.76797 0.1716,-0.17159 0.9671,-0.31199 1.7679,-0.31199 0.8008,0 1.5964,0.1404 1.768,0.31199 0.1716,0.1716 0.312,0.96718 0.312,1.76797 0,0.80078 -0.1404,1.59636 -0.312,1.76796 -0.1716,0.17159 -0.9672,0.31199 -1.768,0.31199 -0.8008,0 -1.5963,-0.1404 -1.7679,-0.31199 z m 5.7198,0 c -0.1716,-0.1716 -0.312,-0.96718 -0.312,-1.76796 0,-0.80079 0.1404,-1.59637 0.312,-1.76797 0.1716,-0.17159 0.9672,-0.31199 1.768,-0.31199 0.8008,0 1.5964,0.1404 1.768,0.31199 0.1716,0.1716 0.3119,0.96718 0.3119,1.76797 0,0.80078 -0.1403,1.59636 -0.3119,1.76796 -0.1716,0.17159 -0.9672,0.31199 -1.768,0.31199 -0.8008,0 -1.5964,-0.1404 -1.768,-0.31199 z m -28.7813,-13.90238 c -1.4423,-0.39184 -1.6081,-1.63794 -0.325,-2.44333 1.1111,-0.6975 2.9527,-0.55488 3.6296,0.2811 0.5557,0.68625 0.5809,1.03949 0.1189,1.6712 -0.3576,0.48916 -2.3687,0.77761 -3.4235,0.49103 z m 2.9206,-0.91566 c 0.4136,-0.34326 0.226,-0.63524 -0.7238,-1.12637 -0.6714,-0.34723 -0.8665,-0.34856 -1.6734,-0.0114 -0.5024,0.2099 -0.9134,0.55976 -0.9134,0.77746 0,0.79823 2.4603,1.06602 3.3106,0.36033 z m 5.3212,0.51835 c -0.4045,-0.4045 -0.4045,-2.61143 0,-3.01593 0.2096,-0.20965 1.3866,-0.31199 3.5879,-0.31199 2.2013,0 3.3783,0.10234 3.5879,0.31199 0.4045,0.4045 0.4045,2.61143 0,3.01593 -0.2096,0.20965 -1.3866,0.312 -3.5879,0.312 -2.2013,0 -3.3783,-0.10235 -3.5879,-0.312 z m 17.6796,0 c -0.1716,-0.17159 -0.312,-0.85018 -0.312,-1.50796 0,-0.65779 0.1404,-1.33637 0.312,-1.50797 0.2096,-0.20965 1.3866,-0.31199 3.5879,-0.31199 2.2013,0 3.3783,0.10234 3.5879,0.31199 0.1716,0.1716 0.312,0.85018 0.312,1.50797 0,0.65778 -0.1404,1.33637 -0.312,1.50796 -0.2096,0.20965 -1.3866,0.312 -3.5879,0.312 -2.2013,0 -3.3783,-0.10235 -3.5879,-0.312 z m -17.6796,-4.4199 c -0.4045,-0.4045 -0.4045,-2.61143 0,-3.01593 0.2096,-0.20965 1.3866,-0.312 3.5879,-0.312 2.2013,0 3.3783,0.10235 3.5879,0.312 0.4045,0.4045 0.4045,2.61143 0,3.01593 -0.2096,0.20965 -1.3866,0.31199 -3.5879,0.31199 -2.2013,0 -3.3783,-0.10234 -3.5879,-0.31199 z m 17.6796,0 c -0.1716,-0.1716 -0.312,-0.85018 -0.312,-1.50797 0,-0.65778 0.1404,-1.33637 0.312,-1.50796 0.2096,-0.20965 1.3866,-0.312 3.5879,-0.312 2.2013,0 3.3783,0.10235 3.5879,0.312 0.1716,0.17159 0.312,0.85018 0.312,1.50796 0,0.65779 -0.1404,1.33637 -0.312,1.50797 -0.2096,0.20965 -1.3866,0.31199 -3.5879,0.31199 -2.2013,0 -3.3783,-0.10234 -3.5879,-0.31199 z m -27.0493,-0.9749 c 0.082,-0.54299 0.2334,-0.58446 2.3628,-0.6484 1.7054,-0.0512 2.275,0.0146 2.275,0.26297 0,0.22893 -0.5823,0.3614 -1.885,0.4288 -1.0367,0.0536 -2.1,0.19636 -2.3628,0.31713 -0.3961,0.18204 -0.4628,0.12039 -0.39,-0.3605 z m 4.1781,-3.91299 c -0.2705,-0.43324 -0.6063,-0.51999 -2.0125,-0.51999 -0.9518,0 -1.6877,-0.11336 -1.6877,-0.25999 0,-0.14615 0.726,-0.26 1.6581,-0.26 1.1567,0 1.756,-0.11793 1.9818,-0.38999 0.5517,-0.66472 0.78,-0.43641 0.78,0.77998 0,1.27008 -0.2125,1.46203 -0.7197,0.64999 z m 5.1916,0.20799 c -0.4045,-0.4045 -0.4045,-2.61143 0,-3.01593 0.2096,-0.20964 1.3866,-0.31199 3.5879,-0.31199 2.2013,0 3.3783,0.10235 3.5879,0.31199 0.4045,0.4045 0.4045,2.61143 0,3.01593 -0.2096,0.20965 -1.3866,0.312 -3.5879,0.312 -2.2013,0 -3.3783,-0.10235 -3.5879,-0.312 z m 17.6796,0 c -0.1716,-0.17159 -0.312,-0.85018 -0.312,-1.50796 0,-0.65779 0.1404,-1.33637 0.312,-1.50797 0.2096,-0.20964 1.3866,-0.31199 3.5879,-0.31199 2.2013,0 3.3783,0.10235 3.5879,0.31199 0.1716,0.1716 0.312,0.85018 0.312,1.50797 0,0.65778 -0.1404,1.33637 -0.312,1.50796 -0.2096,0.20965 -1.3866,0.312 -3.5879,0.312 -2.2013,0 -3.3783,-0.10235 -3.5879,-0.312 z m -26.5714,-4.3679 c 0,-0.143 0.2197,-0.25999 0.4881,-0.25999 0.2685,0 0.642,-0.18531 0.8299,-0.41179 0.4345,-0.52347 0.033,-1.24338 -0.7596,-1.36126 -0.3071,-0.0457 -0.5584,-0.19194 -0.5584,-0.32499 0,-0.13305 0.936,-0.24191 2.0799,-0.24191 1.2133,0 2.08,0.10833 2.08,0.25999 0,0.143 -0.3367,0.26 -0.7482,0.26 -1.6409,0 -1.705,1.6088 -0.071,1.77143 1.6532,0.1645 0.7569,0.56852 -1.2612,0.56852 -1.2133,0 -2.0799,-0.10834 -2.0799,-0.26 z m 8.8918,-0.052 c -0.4352,-0.43523 -0.3986,-2.6724 0.05,-3.04459 0.4949,-0.41076 6.5788,-0.41271 7.0733,-0.002 0.4511,0.37433 0.4897,2.60983 0.053,3.04685 -0.2096,0.20965 -1.3866,0.312 -3.5879,0.312 -2.2013,0 -3.3783,-0.10235 -3.5879,-0.312 z m 17.6796,0 c -0.437,-0.43703 -0.3984,-2.67253 0.053,-3.04685 0.4946,-0.41045 6.5784,-0.4085 7.0734,0.002 0.4484,0.37219 0.4851,2.60935 0.05,3.04459 -0.2096,0.20965 -1.3866,0.31199 -3.5879,0.31199 -2.2013,0 -3.3783,-0.10234 -3.5879,-0.31199 z m -26.7794,-4.67989 c -0.4189,-0.41891 -0.3964,-1.63424 0.037,-1.99387 0.487,-0.4042 0.7283,-0.0694 0.3965,0.55042 -0.2107,0.39383 -0.1825,0.60978 0.119,0.91134 0.5141,0.51404 1.0846,0.27809 1.519,-0.62815 0.1912,-0.39908 0.6806,-0.84266 1.0874,-0.98573 0.6189,-0.21764 0.801,-0.1762 1.1154,0.25371 0.4081,0.55814 0.3837,1.70045 -0.036,1.70045 -0.143,0 -0.2977,-0.30309 -0.3438,-0.67352 -0.1157,-0.93061 -0.8533,-0.74591 -1.3281,0.33256 -0.3209,0.72894 -0.5009,0.84478 -1.313,0.84478 -0.5175,0 -1.0814,-0.1404 -1.253,-0.31199 z m 13.6177,-1.29832 c -0.3611,-0.51548 -0.3586,-0.61548 0.026,-1.03997 0.8497,-0.93882 1.9555,-0.18927 1.4283,0.96802 -0.3621,0.79466 -0.928,0.82267 -1.4538,0.072 z"
     style="fill:#c5d2b6" />
  <path
     inkscape:connector-curvature="0"
     id="path43803"
     d="m 1173.6732,817.65752 c -0.072,-0.1888 -0.1,-2.38662 -0.06,-4.88403 l 0.071,-4.54077 2.7299,0 2.73,0 0,4.80989 0,4.8099 -2.6696,0.0741 c -2.0255,0.0563 -2.7014,-0.009 -2.8013,-0.26913 z m 36.9156,-0.009 c -0.071,-0.18377 -0.096,-2.37747 -0.057,-4.87489 l 0.071,-4.54076 2.9899,0 2.9899,0 0.071,4.66073 c 0.054,3.55471 -0.01,4.71061 -0.26,4.87091 -0.5766,0.36598 -5.6596,0.26443 -5.8056,-0.11598 z m -27.5553,-29.8888 c -0.075,-0.19538 -0.1033,-1.81121 -0.063,-3.59074 l 0.073,-3.23551 1.04,0 1.0399,0 0,3.50993 0,3.50992 -0.977,0.0808 c -0.6465,0.0535 -1.0232,-0.0394 -1.1134,-0.27442 z m 7.0195,-7.8e-4 c -0.075,-0.19496 -0.103,-1.81046 -0.063,-3.58999 l 0.073,-3.23548 1.17,0 1.17,0 0,3.50993 0,3.50992 -1.1074,0.0801 c -0.7543,0.0545 -1.1507,-0.0329 -1.2434,-0.27441 z m 7.0199,0 c -0.075,-0.19496 -0.103,-1.81046 -0.063,-3.58999 l 0.073,-3.23548 1.1699,0 1.17,0 0,3.50993 0,3.50992 -1.1073,0.0801 c -0.7544,0.0545 -1.1508,-0.0329 -1.2434,-0.27441 z m 7.2801,7.8e-4 c -0.075,-0.19538 -0.1033,-1.81121 -0.063,-3.59074 l 0.073,-3.23551 1.04,0 1.04,0 0,3.50993 0,3.50992 -0.9771,0.0808 c -0.6464,0.0535 -1.0232,-0.0394 -1.1134,-0.27442 z m 1.036,-10.41018 c -0.074,-0.19312 -0.1012,-1.5717 -0.06,-3.06349 l 0.075,-2.71237 2.9899,0 2.99,0 0,2.98993 0,2.98994 -2.9299,0.0736 c -2.2723,0.0571 -2.96,-0.005 -3.0645,-0.27757 z m -24.7142,-0.37142 c -0.9275,-0.17116 -1.9677,-1.4767 -1.9969,-2.50638 -0.073,-2.58511 2.7566,-3.84757 4.5668,-2.03736 1.8999,1.89988 0.1235,5.04072 -2.5699,4.54374 z m 9.0998,0.003 c -0.9301,-0.17745 -1.9678,-1.48165 -1.9969,-2.50982 -0.073,-2.57609 2.7562,-3.84791 4.5561,-2.04808 1.9409,1.94096 0.1784,5.08017 -2.5592,4.5579 z m 8.824,-0.002 c -0.7577,-0.14328 -1.8177,-1.23698 -1.9698,-2.03224 -0.5261,-2.75238 2.5883,-4.44347 4.5745,-2.48391 1.9262,1.9003 0.1203,5.03147 -2.6047,4.51615 z m -17.7126,-8.70772 c -0.5781,-0.57815 -0.3723,-1.94272 0.3826,-2.53653 0.9907,-0.7793 1.4226,-0.24213 0.4665,0.58026 -0.481,0.41375 -0.672,0.77265 -0.5628,1.05732 0.2254,0.58744 0.6314,0.54221 0.8329,-0.0928 0.2316,-0.72966 0.6488,-0.38298 0.6488,0.53911 0,0.66413 -0.096,0.76464 -0.728,0.76464 -0.4004,0 -0.8684,-0.1404 -1.04,-0.312 z m 9.3651,-0.10092 c -0.4209,-0.78649 -0.6747,-2.44702 -0.374,-2.44702 0.1436,0 0.3405,0.20475 0.4375,0.45499 0.1646,0.42465 0.2009,0.42158 0.5451,-0.046 0.2028,-0.27555 0.436,-0.43375 0.5182,-0.35156 0.2209,0.22094 -0.1458,1.92554 -0.5262,2.44578 -0.3095,0.42321 -0.3458,0.41981 -0.6006,-0.0562 z m 5.6626,-1.10276 c 0,-1.73947 0.464,-2.2308 1.3497,-1.42923 0.3761,0.34037 0.4761,0.73101 0.4174,1.63123 -0.073,1.12673 -0.1178,1.1876 -0.9221,1.26515 l -0.845,0.0815 0,-1.54862 z m 1.3,-0.0443 c 0,-0.26911 -0.1179,-0.56212 -0.2619,-0.65112 -0.3341,-0.20651 -0.6226,0.52378 -0.4178,1.05759 0.1999,0.52097 0.6797,0.23406 0.6797,-0.40647 z m 8.3718,1.24797 c -0.8758,-0.87574 0.2841,-3.44774 1.252,-2.77617 0.2956,0.20513 0.3088,0.29905 0.056,0.40124 -1.176,0.47599 -1.3857,1.65544 -0.3383,1.90272 0.3462,0.0817 0.6771,0.29158 0.7353,0.46639 0.1398,0.41926 -1.287,0.42413 -1.7053,0.006 z m 2.5479,-1.11797 c 0,-0.78648 0.117,-1.42997 0.26,-1.42997 0.143,0 0.26,0.4085 0.26,0.90778 0,0.6262 0.1613,1.0085 0.52,1.23251 0.7381,0.46093 0.6446,0.71965 -0.26,0.71965 -0.7721,0 -0.78,-0.0145 -0.78,-1.42997 z m -9.2356,0.19978 c 0.1001,-0.53361 0.304,-1.19817 0.4531,-1.47682 0.2548,-0.47599 0.2911,-0.47938 0.6005,-0.0562 0.3727,0.50966 0.749,2.22303 0.5352,2.43681 -0.077,0.0773 -0.3378,-0.0224 -0.579,-0.22156 -0.3406,-0.28117 -0.463,-0.28944 -0.5479,-0.0371 -0.06,0.17875 -0.2297,0.32499 -0.3767,0.32499 -0.1678,0 -0.1995,-0.36109 -0.085,-0.97019 z m 3.2558,0.22271 c 0,-0.41112 -0.073,-1.1131 -0.1625,-1.55997 -0.1503,-0.75136 -0.1091,-0.81248 0.5478,-0.81248 0.5801,0 0.6732,0.0834 0.5082,0.45499 -0.1111,0.25025 -0.2524,0.95223 -0.314,1.55997 -0.1254,1.23771 -0.5795,1.51785 -0.5795,0.35749 z m 8.5798,-0.55249 c 0,-1.22353 0.2741,-1.64814 0.6604,-1.02304 0.1135,0.1836 0.3229,0.1396 0.6215,-0.13056 0.5792,-0.5242 0.8397,-0.26226 0.4939,0.49667 -0.1922,0.42177 -0.1812,0.75596 0.038,1.1663 0.4039,0.75465 0.073,1.06845 -0.4216,0.4002 -0.3633,-0.49055 -0.4037,-0.49416 -0.7224,-0.0646 -0.5338,0.71944 -0.6702,0.54741 -0.6702,-0.84498 z m -27.9675,-5.02339 c -0.078,-0.20266 -0.1056,-0.99801 -0.062,-1.76745 l 0.08,-1.39898 1.6899,0 1.69,0 0,1.68997 0,1.68996 -1.6283,0.0775 c -1.2192,0.058 -1.6639,-0.0151 -1.7697,-0.29099 z m 5.7198,0 c -0.078,-0.20266 -0.1055,-0.99801 -0.062,-1.76745 l 0.08,-1.39898 1.6899,0 1.69,0 0,1.68997 0,1.68996 -1.6283,0.0775 c -1.2192,0.058 -1.6639,-0.0151 -1.7698,-0.29099 z m 9.0998,0 c -0.078,-0.20266 -0.1055,-0.99801 -0.062,-1.76745 l 0.08,-1.39898 1.6899,0 1.69,0 0,1.68997 0,1.68996 -1.6283,0.0775 c -1.2192,0.058 -1.6639,-0.0151 -1.7698,-0.29099 z m 5.7199,0 c -0.078,-0.20266 -0.1055,-0.99801 -0.062,-1.76745 l 0.08,-1.39898 1.69,0 1.69,0 0,1.68997 0,1.68996 -1.6284,0.0775 c -1.2191,0.058 -1.6638,-0.0151 -1.7697,-0.29099 z m -28.8412,-13.61088 c -1.4423,-0.39184 -1.6081,-1.63794 -0.325,-2.44333 1.1111,-0.6975 2.9527,-0.55488 3.6296,0.2811 0.5557,0.68625 0.5809,1.03949 0.1189,1.6712 -0.3576,0.48916 -2.3687,0.77761 -3.4235,0.49103 z m 2.9206,-0.91566 c 0.4136,-0.34326 0.226,-0.63524 -0.7238,-1.12637 -0.6714,-0.34723 -0.8665,-0.34856 -1.6734,-0.0114 -0.5024,0.2099 -0.9134,0.55976 -0.9134,0.77746 0,0.79823 2.4603,1.06602 3.3106,0.36033 z m 5.3775,0.21769 c -0.078,-0.20231 -0.1045,-0.87845 -0.06,-1.50255 l 0.081,-1.13472 3.5099,0 3.5099,0 0,1.42997 0,1.42996 -3.4501,0.0726 c -2.7835,0.0585 -3.4775,0.002 -3.5914,-0.29525 z m 17.6796,0 c -0.078,-0.20231 -0.1045,-0.87845 -0.06,-1.50255 l 0.081,-1.13472 3.5099,0 3.5099,0 0,1.42997 0,1.42996 -3.4501,0.0726 c -2.7835,0.0585 -3.4775,0.002 -3.5914,-0.29525 z m -17.6796,-4.4199 c -0.078,-0.20231 -0.1045,-0.87846 -0.06,-1.50256 l 0.081,-1.13471 3.5099,0 3.5099,0 0,1.42996 0,1.42997 -3.4501,0.0726 c -2.7835,0.0585 -3.4775,0.002 -3.5914,-0.29525 z m 17.6796,0 c -0.078,-0.20231 -0.1045,-0.87846 -0.06,-1.50256 l 0.081,-1.13471 3.5099,0 3.5099,0 0,1.42996 0,1.42997 -3.4501,0.0726 c -2.7835,0.0585 -3.4775,0.002 -3.5914,-0.29525 z m -27.1056,-0.67424 c 0.082,-0.54299 0.2334,-0.58446 2.3628,-0.6484 1.7054,-0.0512 2.275,0.0146 2.275,0.26297 0,0.22893 -0.5823,0.3614 -1.885,0.4288 -1.0367,0.0536 -2.1,0.19636 -2.3628,0.31713 -0.3961,0.18204 -0.4628,0.12039 -0.39,-0.3605 z m 4.1781,-3.91299 c -0.2705,-0.43324 -0.6063,-0.51999 -2.0125,-0.51999 -0.9518,0 -1.6877,-0.11336 -1.6877,-0.25999 0,-0.14615 0.726,-0.26 1.6581,-0.26 1.1567,0 1.756,-0.11793 1.9818,-0.38999 0.5517,-0.66472 0.78,-0.43641 0.78,0.77998 0,1.27008 -0.2125,1.46203 -0.7197,0.64999 z m 5.2479,-0.0927 c -0.078,-0.20231 -0.1045,-0.87845 -0.06,-1.50255 l 0.081,-1.13472 3.5099,0 3.5099,0 0,1.42997 0,1.42997 -3.4501,0.0726 c -2.7835,0.0585 -3.4775,0.002 -3.5914,-0.29525 z m 17.6796,0 c -0.078,-0.20231 -0.1045,-0.87845 -0.06,-1.50255 l 0.081,-1.13472 3.5099,0 3.5099,0 0,1.42997 0,1.42997 -3.4501,0.0726 c -2.7835,0.0585 -3.4775,0.002 -3.5914,-0.29525 z m -26.6277,-4.06724 c 0,-0.143 0.2197,-0.25999 0.4881,-0.25999 0.2685,0 0.642,-0.18531 0.8299,-0.41179 0.4345,-0.52347 0.033,-1.24338 -0.7596,-1.36126 -0.3071,-0.0457 -0.5584,-0.19194 -0.5584,-0.32499 0,-0.13305 0.936,-0.24191 2.0799,-0.24191 1.2133,0 2.08,0.10833 2.08,0.25999 0,0.143 -0.3367,0.26 -0.7482,0.26 -1.6409,0 -1.705,1.6088 -0.071,1.77143 1.6532,0.1645 0.7569,0.56852 -1.2612,0.56852 -1.2133,0 -2.0799,-0.10834 -2.0799,-0.26 z m 8.9481,-0.35266 c -0.078,-0.20231 -0.1045,-0.87846 -0.06,-1.50255 l 0.081,-1.13472 1.8199,-0.13 c 1.001,-0.0715 2.5805,-0.0715 3.51,0 l 1.6899,0.13 0,1.42997 0,1.42996 -3.4501,0.0726 c -2.7835,0.0586 -3.4775,0.002 -3.5914,-0.29525 z m 17.6796,0 c -0.078,-0.20231 -0.1045,-0.87846 -0.06,-1.50255 l 0.081,-1.13472 1.69,-0.13 c 0.9294,-0.0715 2.5089,-0.0715 3.5099,0 l 1.8199,0.13 0,1.42997 0,1.42996 -3.4501,0.0726 c -2.7835,0.0586 -3.4775,0.002 -3.5914,-0.29525 z m -26.8357,-4.37923 c -0.4189,-0.41891 -0.3964,-1.63424 0.037,-1.99387 0.487,-0.4042 0.7283,-0.0694 0.3965,0.55042 -0.2107,0.39383 -0.1825,0.60978 0.119,0.91134 0.5141,0.51404 1.0846,0.27809 1.519,-0.62815 0.1912,-0.39908 0.6806,-0.84266 1.0874,-0.98573 0.6189,-0.21764 0.801,-0.1762 1.1154,0.25371 0.4081,0.55814 0.3837,1.70045 -0.036,1.70045 -0.143,0 -0.2977,-0.30309 -0.3438,-0.67352 -0.1157,-0.93061 -0.8533,-0.74591 -1.3281,0.33256 -0.3209,0.72894 -0.5009,0.84478 -1.313,0.84478 -0.5175,0 -1.0814,-0.1404 -1.253,-0.31199 z m 13.6177,-1.29832 c -0.3611,-0.51548 -0.3586,-0.61548 0.026,-1.03997 0.8497,-0.93882 1.9555,-0.18927 1.4283,0.96802 -0.3621,0.79466 -0.928,0.82267 -1.4538,0.072 z"
     style="fill:#a9a8d3" />
  <path
     inkscape:connector-curvature="0"
     id="path43801"
     d="m 1173.6732,817.65752 c -0.072,-0.1888 -0.1,-2.38662 -0.06,-4.88403 l 0.071,-4.54077 2.7299,0 2.73,0 0,4.80989 0,4.8099 -2.6696,0.0741 c -2.0255,0.0563 -2.7014,-0.009 -2.8013,-0.26913 z m 36.9156,-0.009 c -0.071,-0.18377 -0.096,-2.37747 -0.057,-4.87489 l 0.071,-4.54076 2.9899,0 2.9899,0 0.071,4.3602 c 0.044,2.71238 -0.033,4.55472 -0.2041,4.8749 -0.2476,0.46273 -0.5509,0.51468 -3.0044,0.51468 -1.9831,0 -2.764,-0.0913 -2.8572,-0.33412 z m -27.5553,-29.8888 c -0.075,-0.19538 -0.1033,-1.81121 -0.063,-3.59074 l 0.073,-3.23551 1.04,0 1.0399,0 0,3.50993 0,3.50992 -0.977,0.0808 c -0.6465,0.0535 -1.0232,-0.0394 -1.1134,-0.27442 z m 7.0195,-7.8e-4 c -0.075,-0.19496 -0.103,-1.81046 -0.063,-3.58999 l 0.073,-3.23548 1.17,0 1.17,0 0,3.50993 0,3.50992 -1.1074,0.0801 c -0.7543,0.0545 -1.1507,-0.0329 -1.2434,-0.27441 z m 7.0199,0 c -0.075,-0.19496 -0.103,-1.81046 -0.063,-3.58999 l 0.073,-3.23548 1.1699,0 1.17,0 0,3.50993 0,3.50992 -1.1073,0.0801 c -0.7544,0.0545 -1.1508,-0.0329 -1.2434,-0.27441 z m 7.2801,7.8e-4 c -0.075,-0.19538 -0.1033,-1.81121 -0.063,-3.59074 l 0.073,-3.23551 1.04,0 1.04,0 0,3.50993 0,3.50992 -0.9771,0.0808 c -0.6464,0.0535 -1.0232,-0.0394 -1.1134,-0.27442 z m 1.036,-10.41018 c -0.074,-0.19312 -0.1012,-1.5717 -0.06,-3.06349 l 0.075,-2.71237 2.9899,0 2.99,0 0,2.98993 0,2.98994 -2.9299,0.0736 c -2.2723,0.0571 -2.96,-0.005 -3.0645,-0.27757 z m -24.7142,-0.37142 c -0.9275,-0.17116 -1.9677,-1.4767 -1.9969,-2.50638 -0.073,-2.58511 2.7566,-3.84757 4.5668,-2.03736 1.8999,1.89988 0.1235,5.04072 -2.5699,4.54374 z m 9.0998,0.003 c -0.9301,-0.17745 -1.9678,-1.48165 -1.9969,-2.50982 -0.073,-2.57609 2.7562,-3.84791 4.5561,-2.04808 1.9409,1.94096 0.1784,5.08017 -2.5592,4.5579 z m 8.824,-0.002 c -0.7577,-0.14328 -1.8177,-1.23698 -1.9698,-2.03224 -0.5261,-2.75238 2.5883,-4.44347 4.5745,-2.48391 1.9262,1.9003 0.1203,5.03147 -2.6047,4.51615 z m -15.8327,-14.97908 c -0.078,-0.20266 -0.1056,-0.99801 -0.062,-1.76745 l 0.08,-1.39898 1.6899,0 1.69,0 0,1.68997 0,1.68996 -1.6283,0.0775 c -1.2192,0.058 -1.6639,-0.0151 -1.7697,-0.29099 z m 5.7198,0 c -0.078,-0.20266 -0.1055,-0.99801 -0.062,-1.76745 l 0.08,-1.39898 1.6899,0 1.69,0 0,1.68997 0,1.68996 -1.6283,0.0775 c -1.2192,0.058 -1.6639,-0.0151 -1.7698,-0.29099 z m 9.0998,0 c -0.078,-0.20266 -0.1055,-0.99801 -0.062,-1.76745 l 0.08,-1.39898 1.6899,0 1.69,0 0,1.68997 0,1.68996 -1.6283,0.0775 c -1.2192,0.058 -1.6639,-0.0151 -1.7698,-0.29099 z m 5.7199,0 c -0.078,-0.20266 -0.1055,-0.99801 -0.062,-1.76745 l 0.08,-1.39898 1.69,0 1.69,0 0,1.68997 0,1.68996 -1.6284,0.0775 c -1.2191,0.058 -1.6638,-0.0151 -1.7697,-0.29099 z m -20.5431,-14.30885 c -0.078,-0.20231 -0.1045,-0.87845 -0.06,-1.50255 l 0.081,-1.13472 3.5099,0 3.5099,0 0,1.42997 0,1.42996 -3.4501,0.0726 c -2.7835,0.0585 -3.4775,0.002 -3.5914,-0.29525 z m 17.6796,0 c -0.078,-0.20231 -0.1045,-0.87845 -0.06,-1.50255 l 0.081,-1.13472 3.5099,0 3.5099,0 0,1.42997 0,1.42996 -3.4501,0.0726 c -2.7835,0.0585 -3.4775,0.002 -3.5914,-0.29525 z m -17.6796,-4.4199 c -0.078,-0.20231 -0.1045,-0.87846 -0.06,-1.50256 l 0.081,-1.13471 3.5099,0 3.5099,0 0,1.42996 0,1.42997 -3.4501,0.0726 c -2.7835,0.0585 -3.4775,0.002 -3.5914,-0.29525 z m 17.6796,0 c -0.078,-0.20231 -0.1045,-0.87846 -0.06,-1.50256 l 0.081,-1.13471 3.5099,0 3.5099,0 0,1.42996 0,1.42997 -3.4501,0.0726 c -2.7835,0.0585 -3.4775,0.002 -3.5914,-0.29525 z m -17.6796,-4.6799 c -0.078,-0.20231 -0.1045,-0.87845 -0.06,-1.50255 l 0.081,-1.13472 3.5099,0 3.5099,0 0,1.42997 0,1.42997 -3.4501,0.0726 c -2.7835,0.0585 -3.4775,0.002 -3.5914,-0.29525 z m 17.6796,0 c -0.078,-0.20231 -0.1045,-0.87845 -0.06,-1.50255 l 0.081,-1.13472 3.5099,0 3.5099,0 0,1.42997 0,1.42997 -3.4501,0.0726 c -2.7835,0.0585 -3.4775,0.002 -3.5914,-0.29525 z m -17.6796,-4.4199 c -0.078,-0.20231 -0.1045,-0.87846 -0.06,-1.50255 l 0.081,-1.13472 1.8199,-0.13 c 1.001,-0.0715 2.5805,-0.0715 3.51,0 l 1.6899,0.13 0,1.42997 0,1.42996 -3.4501,0.0726 c -2.7835,0.0586 -3.4775,0.002 -3.5914,-0.29525 z m 17.6796,0 c -0.078,-0.20231 -0.1045,-0.87846 -0.06,-1.50255 l 0.081,-1.13472 1.69,-0.13 c 0.9294,-0.0715 2.5089,-0.0715 3.5099,0 l 1.8199,0.13 0,1.42997 0,1.42996 -3.4501,0.0726 c -2.7835,0.0586 -3.4775,0.002 -3.5914,-0.29525 z"
     style="fill:#9cb189" />
  <path
     inkscape:connector-curvature="0"
     id="path43799"
     d="m 1173.9613,817.40733 c -0.2354,-0.75748 -0.3591,-8.44156 -0.1415,-8.7937 0.2806,-0.45414 4.5994,-0.61211 5.1293,-0.18762 0.347,0.27803 0.4233,6.85632 0.097,8.38652 l -0.1662,0.77998 -2.4073,0.0748 c -1.7888,0.0556 -2.4342,-0.0112 -2.5115,-0.26 z m 36.6805,-1.04979 c -0.2398,-1.99655 -0.1969,-7.28733 0.062,-7.69653 0.3049,-0.4811 4.4096,-0.73684 5.183,-0.32292 0.5458,0.29206 0.566,0.4544 0.566,4.53167 0,2.94238 -0.095,4.32367 -0.312,4.54076 -0.1996,0.1996 -1.2168,0.31199 -2.8237,0.31199 l -2.5117,0 -0.164,-1.36497 z m -27.3193,-28.68294 c -0.3157,-0.3157 -0.4077,-0.98048 -0.405,-2.92493 0,-3.37293 0.1042,-3.68635 1.169,-3.68635 0.5369,0 0.9101,0.15204 1.0096,0.41126 0.2647,0.68966 0.1757,5.56942 -0.1113,6.10569 -0.3253,0.60786 -1.1045,0.65208 -1.6623,0.0943 z m 6.9233,0.0966 c -0.4302,-0.43025 -0.4302,-6.22559 0,-6.65585 0.1716,-0.1716 0.6162,-0.31199 0.988,-0.31199 1.1594,0 1.3,0.39356 1.3,3.63992 0,3.24636 -0.1406,3.63992 -1.3,3.63992 -0.3718,0 -0.8164,-0.1404 -0.988,-0.312 z m 7.2279,0.0645 c -0.2998,-0.19421 -0.41,-0.93711 -0.4764,-3.21255 -0.072,-2.48416 -0.017,-3.02902 0.3435,-3.38987 0.4804,-0.48036 1.1071,-0.54549 1.6928,-0.17592 0.3014,0.19013 0.4066,0.91317 0.4631,3.18095 0.04,1.61418 -0.02,3.07185 -0.1326,3.23926 -0.2962,0.43838 -1.4339,0.65391 -1.8904,0.35813 z m 7.5398,0.058 c -0.6823,-0.25974 -0.772,-0.66059 -0.772,-3.45041 0,-2.90081 0.082,-3.2182 0.902,-3.46895 1.0925,-0.33429 1.2946,0.14504 1.3863,3.28904 0.073,2.48416 0.017,3.02903 -0.3435,3.38987 -0.4554,0.45543 -0.5546,0.47577 -1.1728,0.24045 z m 1.1221,-10.3915 c -0.6606,-0.12848 -0.7974,-0.67192 -0.8469,-3.36565 -0.048,-2.62775 0.1615,-2.79539 3.2935,-2.63156 1.3344,0.0698 2.5105,0.21127 2.6137,0.31439 0.2636,0.26365 0.2836,4.57117 0.025,5.27907 -0.2001,0.54653 -0.3556,0.58266 -2.3656,0.54958 -1.1832,-0.0195 -2.4069,-0.0851 -2.7191,-0.14583 z m -26.0529,-0.96157 c -2.254,-1.24929 -1.311,-4.83706 1.2713,-4.83706 1.3174,0 2.6,1.27018 2.6,2.5748 0,1.95188 -2.1571,3.21239 -3.8713,2.26226 z m 9.0998,0 c -2.254,-1.24929 -1.311,-4.83706 1.2713,-4.83706 1.3174,0 2.6,1.27018 2.6,2.5748 0,1.95188 -2.1571,3.21239 -3.8713,2.26226 z m 8.8398,0 c -2.254,-1.24929 -1.311,-4.83706 1.2713,-4.83706 1.3174,0 2.6,1.27018 2.6,2.5748 0,1.95188 -2.1571,3.21239 -3.8713,2.26226 z m -15.0563,-14.50885 c -0.4045,-0.4045 -0.4045,-2.61143 0,-3.01593 0.4553,-0.45531 2.4329,-0.38989 2.9193,0.0966 0.6131,0.61304 0.5492,2.61781 -0.094,2.96221 -0.6851,0.36667 -2.4422,0.34002 -2.825,-0.0428 z m 5.712,-0.0251 c -0.3671,-0.44274 -0.2871,-2.73333 0.1069,-3.06029 0.1807,-0.14998 0.8912,-0.23666 1.5788,-0.19262 1.0944,0.0701 1.2811,0.16829 1.4978,0.78778 0.1548,0.44248 0.1566,1.07583 0,1.68996 -0.2391,0.96813 -0.2619,0.98301 -1.5858,1.03517 -0.7917,0.0312 -1.4496,-0.0755 -1.6026,-0.26 z m 9.2688,0.0664 c -0.3455,-0.20157 -0.4135,-0.53493 -0.3254,-1.59494 0.061,-0.73706 0.1556,-1.38431 0.2096,-1.43834 0.2765,-0.2765 1.9422,-0.34361 2.5676,-0.10346 0.6478,0.24876 0.715,0.39654 0.715,1.57184 0,1.01647 -0.1089,1.35551 -0.5029,1.5664 -0.6292,0.33671 -2.0855,0.33589 -2.6639,-0.002 z m 6.0921,0.0769 c -0.6594,-0.11538 -0.9268,-0.84282 -0.7995,-2.1752 0.081,-0.84353 0.1419,-0.89076 1.4444,-1.11173 1.7744,-0.30105 2.1497,-0.004 2.1497,1.70074 0,0.79472 -0.1227,1.31377 -0.325,1.37563 -0.6675,0.20403 -1.9042,0.30947 -2.4696,0.21056 z m -21.0729,-14.4179 c -0.3578,-0.3578 -0.4098,-1.73122 -0.085,-2.2437 0.2663,-0.4201 5.4721,-0.65808 6.4298,-0.29394 0.4913,0.18676 0.6229,0.42661 0.6229,1.13466 0,1.5168 -0.4317,1.71497 -3.7365,1.71497 -1.9239,0 -3.0257,-0.10638 -3.2313,-0.31199 z m 17.7624,-0.11034 c -0.2714,-0.27143 -0.3942,-0.75376 -0.3436,-1.34993 0.069,-0.81678 0.1875,-0.95621 0.9888,-1.16709 1.2794,-0.33673 5.7372,-0.0507 6.014,0.38585 0.3238,0.51061 0.271,1.88439 -0.086,2.24151 -0.2056,0.20561 -1.3074,0.31199 -3.2313,0.31199 -2.3477,0 -3.0021,-0.0827 -3.3417,-0.42233 z m -17.2944,-4.22877 c -0.5304,-0.14634 -0.6655,-0.36692 -0.734,-1.19869 -0.1228,-1.49173 0.2998,-1.69084 3.5786,-1.68608 1.5099,0.002 2.9098,0.10818 3.111,0.23553 0.2138,0.13533 0.3758,0.69408 0.39,1.34476 0.021,0.97433 -0.057,1.13635 -0.6258,1.29853 -0.8313,0.23701 -4.8672,0.24121 -5.7198,0.006 z m 17.7569,0.0493 c -1.0965,-0.21264 -1.0944,-2.4839 0,-2.77806 0.962,-0.25797 5.3835,-0.1764 5.9171,0.10915 0.3662,0.196 0.5028,0.54681 0.5028,1.29082 0,0.74402 -0.1366,1.09483 -0.5029,1.29083 -0.4807,0.25728 -4.7207,0.31978 -5.9196,0.0873 z m -17.9519,-4.76611 c -0.464,-0.1865 -0.585,-0.44124 -0.585,-1.2315 0,-0.54799 0.1404,-1.13675 0.312,-1.30834 0.4302,-0.43026 6.2256,-0.43026 6.6558,0 0.1716,0.17159 0.312,0.73318 0.312,1.24797 0,0.51479 -0.1404,1.07637 -0.312,1.24797 -0.3711,0.37112 -5.4813,0.40626 -6.3828,0.0439 z m 17.4219,-0.0569 c -0.141,-0.17875 -0.2564,-0.73448 -0.2564,-1.23497 0,-0.50049 0.1154,-1.05623 0.2564,-1.23497 0.3502,-0.44393 6.1982,-0.45538 6.6405,-0.013 0.1716,0.17159 0.312,0.75948 0.312,1.3064 0,0.82821 -0.1114,1.03679 -0.6669,1.24797 -1.0052,0.38217 -5.9723,0.32572 -6.2856,-0.0714 z m -17.0969,-4.28514 c -0.6609,-0.16512 -0.901,-0.5404 -0.906,-1.41616 -0.01,-1.33993 0.5138,-1.5372 3.8507,-1.45656 l 3.0216,0.073 0.1959,1.15034 c 0.2921,1.71448 0.075,1.84476 -3.0091,1.80943 -1.4482,-0.0166 -2.8671,-0.0886 -3.1531,-0.16007 z m 17.0887,-0.12858 c -0.2059,-0.24805 -0.2427,-0.75051 -0.1115,-1.52078 l 0.196,-1.15034 3.1126,-0.0704 c 2.6897,-0.0609 3.1569,-0.01 3.4382,0.37468 0.3837,0.52474 0.4194,1.61447 0.071,2.16568 -0.357,0.56477 -6.2576,0.74178 -6.7062,0.20118 z"
     style="fill:#94aa79" />
</svg>
